<?xml version="1.0" encoding="utf-8"?>
<!-- Generator: Adobe Illustrator 25.1.0, SVG Export Plug-In . SVG Version: 6.00 Build 0)  -->
<svg version="1.1" xmlns="http://www.w3.org/2000/svg" xmlns:xlink="http://www.w3.org/1999/xlink" x="0px" y="0px"
	 viewBox="0 0 1280 1024" style="enable-background:new 0 0 1280 1024;" xml:space="preserve">
<style type="text/css">
	.st0{fill:#825944;}
	.st1{fill:#26272A;stroke:#000000;stroke-miterlimit:10;}
	.st2{fill:#3E3F44;stroke:#000000;stroke-miterlimit:10;}
	.st3{fill:#52545A;stroke:#000000;stroke-miterlimit:10;}
	.st4{fill:none;stroke:#000000;stroke-miterlimit:10;}
	.st5{fill:#282A2E;stroke:#000000;stroke-miterlimit:10;}
	.st6{fill:#2B2C31;stroke:#000817;stroke-miterlimit:10;}
	.st7{fill:none;stroke:#000000;stroke-width:0.25;stroke-miterlimit:10;}
	.st8{fill:none;stroke:#000817;stroke-miterlimit:10;}
	.st9{fill:#56585D;stroke:#000817;stroke-miterlimit:10;}
	.st10{fill:#1F2023;stroke:#000817;stroke-miterlimit:10;}
	.st11{fill:#050200;stroke:#000000;stroke-miterlimit:10;}
</style>
<g id="floor">
	<g>
		<rect x="0.5" y="0.5" class="st0" width="1279" height="1023"/>
		<path d="M1279,1v1022H1V1H1279 M1280,0H0v1024h1280V0L1280,0z"/>
	</g>
</g>
<g id="ps4">
	<polyline class="st1" points="908.16,312.59 909.67,312.59 911.9,312.96 913.96,313.53 915.3,314.22 916.71,315.11 917.89,316.16 
		918.58,317.21 919.3,318.26 919.3,322.23 919.3,333.93 919.3,392.95 919.3,469.31 919.3,532.3 919.3,607.17 919.3,701.29 
		919.3,702.74 919.3,704.15 919.3,704.83 918.79,705.87 918,706.83 917.11,708 916.18,708.72 914.97,709.44 914.05,709.75 
		912.98,710.16 911.57,710.51 910.54,710.75 909.51,710.75 908.79,710.88 908.16,710.88 907.62,710.88 907.33,710.88 908.19,710.53 
		909.33,709.65 909.89,708.62 910.29,707.18 910.29,705.99 910.29,703.46 910.29,677.04 910.29,643.69 910.29,590.63 910.29,565.42 
		910.29,498.38 910.29,431.12 910.29,373.33 910.29,314.97 909.5,313.78 908.16,312.59 	"/>
	<polyline class="st2" points="903.31,312.08 904.59,311.56 906.25,311.82 908.16,312.59 909.5,313.78 910.29,314.97 910.29,318.22 
		910.29,417.44 910.29,518.7 910.29,618.04 910.29,700.83 910.29,704.14 910.29,705.99 910.29,707.18 909.89,708.62 909.33,709.65 
		908.19,710.53 906.8,711.1 905.51,711.46 904.27,711.46 902.64,711.28 903.35,710.53 904.06,709.54 904.69,708.75 904.85,708.08 
		905.05,707.25 905.05,706.04 905.05,705.06 905.05,703.16 905.05,679.02 905.05,658.6 905.05,602.27 905.05,519.17 905.05,408.93 
		905.05,401.9 905.05,400.35 904.85,399.59 904.57,399.2 904.22,398.64 903.79,398.18 903.55,397.41 903.55,393.91 903.54,335.36 
		903.54,333.12 903.68,332.29 904.27,331.75 904.69,331.1 905.05,329.82 905.05,328.86 905.05,326.97 905.05,317.6 905.05,315.42 
		904.87,314.6 904.5,313.91 904.18,313.32 903.82,312.67 903.31,312.08 	"/>
	<polyline class="st3" points="888.24,308.62 889.63,308.35 890.64,308.48 891.79,308.62 892.9,308.96 894.01,309.42 894.89,309.88 
		895.85,310.8 896.43,311.49 896.73,312.45 896.93,313.68 896.93,323.84 896.93,358.47 896.93,387.24 896.93,468.16 896.93,590.13 
		896.93,690.02 896.93,707.97 896.93,709.26 896.64,710.16 896.4,711.14 895.89,712.04 895.19,713.06 894.65,713.57 894.1,713.89 
		893.49,714.05 892.79,714.37 892.19,714.44 891.61,714.44 890.79,714.54 889.97,714.54 889.63,714.54 889.23,714.54 888.5,714.45 
		889.34,713.79 889.98,713.11 890.48,712.41 890.92,711.49 891.11,710.64 891.22,709.54 891.25,708.33 891.25,707.18 891.25,685.86 
		891.25,621.79 891.25,544.66 891.25,475.79 891.25,390.77 891.25,318.8 891.25,312.68 891.25,311.77 891.07,311.16 890.49,310.43 
		890.05,310 888.24,308.62 	"/>
	<path class="st4" d="M890.79,711.88"/>
	<path class="st4" d="M890.34,712.65"/>
	<path class="st4" d="M891.76,715.65"/>
	<polygon class="st5" points="894.54,309.74 895.36,309.74 896.73,309.98 898.28,310.43 899.5,310.72 900.83,311.18 901.71,311.49 
		902.67,311.76 903.31,312.08 903.82,312.67 904.18,313.32 904.5,313.91 904.87,314.6 905.05,315.42 905.05,328.86 905.05,329.82 
		904.69,331.1 904.27,331.75 903.68,332.29 903.54,333.12 903.54,335.36 903.55,339.29 903.53,340.82 903.58,347.74 903.53,355.59 
		903.53,366.36 903.53,375.85 903.53,388.3 903.55,397.41 903.79,398.18 904.22,398.64 904.57,399.2 904.85,399.59 905.05,400.35 
		905.05,401.9 905.05,406.92 905.05,412.84 905.05,453.2 905.05,532.91 905.05,602.27 905.05,647.45 905.05,693.51 905.05,705.06 
		905.05,707.25 904.85,708.08 904.69,708.75 904.06,709.54 903.35,710.53 902.64,711.28 901.77,711.97 900.7,712.54 899.72,712.74 
		898.34,713.17 896.93,713.4 895.8,713.5 895.2,713.5 894.83,713.4 895.37,712.79 895.67,712.36 896.09,711.69 896.29,711.34 
		896.48,710.8 896.59,710.37 896.72,709.91 896.84,709.54 896.93,708.92 896.93,708.48 896.93,707.49 896.93,682.34 896.93,639.91 
		896.93,581.96 896.93,496.78 896.93,398.46 896.93,345.29 896.93,315.18 896.86,313.26 896.64,312.14 896.19,311.21 895.62,310.58 
			"/>
	<polyline class="st6" points="880.05,307.09 880.84,306.67 882.88,306.67 884.93,307.09 886.61,307.84 888.24,308.62 
		889.79,309.75 890.83,310.76 891.25,311.47 891.25,314.36 891.25,317.05 891.25,397.81 891.25,530.98 891.25,709.29 891.07,711.07 
		890.79,711.88 890.34,712.65 889.6,713.59 888.5,714.45 887.24,715.02 885.65,715.51 884.19,716 882.56,716.4 881.13,716.77 
		880.05,716.97 879.37,716.9 881.95,713.9 882.23,689.26 882.23,585.87 882.23,518.25 882.23,360.36 881.88,308.89 880.05,307.09 	
		"/>
	<polyline class="st7" points="886.17,693.7 886.17,694.91 886.17,695.84 886.17,696.54 886.17,696.99 886.26,697.33 886.44,697.59 
		886.63,697.73 886.84,697.73 886.92,697.5 886.92,697.21 886.92,696.77 886.92,696.22 886.92,695.71 886.92,695.1 886.92,694.5 
		886.92,694.06 886.92,693.78 887.01,693.54 887.23,693.42 887.46,693.54 887.59,693.83 887.59,694.14 887.59,694.9 887.59,695.79 
		887.59,696.46 887.59,697.02 887.59,697.73 	"/>
	<polygon class="st7" points="886,686.09 886,687.19 886,688.04 886,688.67 886,688.94 886.09,689.36 886.17,689.58 886.37,689.79 
		886.6,690.02 886.88,690.02 887.18,690.02 887.59,690.02 887.75,689.66 887.89,689.28 887.96,688.8 887.96,688.46 887.96,687.65 
		887.96,686.5 887.96,686.18 887.96,685.69 887.8,684.96 887.59,684.57 887.06,684.48 886.55,684.69 886.17,684.93 886,685.3 	"/>
	<polyline class="st7" points="887.69,681.44 886.98,681.44 886.46,681.44 886,681.44 885.86,681.03 885.86,680.56 886.23,680.03 
		887.69,677.8 887.83,677.43 887.83,676.99 887.69,676.59 887.18,676.59 886.74,676.59 886.32,676.59 885.86,676.59 	"/>
	<polyline class="st7" points="885.86,672.49 886.27,672.09 886.55,671.74 886.84,671.44 887.09,671.05 887.09,670.68 
		887.09,670.33 886.84,669.89 886.47,669.56 886.11,669.28 885.86,669.14 	"/>
	<polyline class="st7" points="888.22,670.65 887.83,670.65 887.43,670.65 887.09,670.68 	"/>
	<polyline class="st8" points="885.31,358.65 885.31,356.53 885.31,353.47 885.31,349.45 885.46,348.86 885.82,348.56 
		886.25,348.56 886.56,348.56 886.72,348.88 886.72,349.9 886.72,350.96 886.72,357.48 886.8,357.99 887.02,358.35 887.25,358.65 
		887.53,358.82 887.84,358.97 888.21,359.09 888.55,359.09 	"/>
	<polyline class="st8" points="885.42,334.23 885.42,336.44 885.42,337.96 885.42,339.61 885.53,340.16 885.82,340.45 
		886.17,340.59 886.64,340.59 887.23,340.59 887.85,340.59 888.2,340.78 888.37,341.2 888.37,341.93 888.37,343 888.37,343.66 
		888.37,345.29 	"/>
	<polyline class="st8" points="889.63,323.56 885.83,323.56 885.55,323.56 885.55,324.51 887.59,331.87 887.72,332.36 
		887.89,332.78 888.1,333.03 888.48,333.03 888.52,332.53 888.5,332.15 888.52,331.49 888.37,321.4 	"/>
	<polygon class="st9" points="882.23,311.33 882.23,451.76 882.23,542.12 882.23,648.46 882.23,710.13 882.23,711.3 882.23,712.32 
		882.23,713.14 881.95,713.9 881.59,714.49 881.25,715.05 880.89,715.58 880.3,716.08 879.82,716.53 879.37,716.9 878.87,717.27 
		878.37,717.65 877.01,717.65 854.58,717.65 842.92,717.65 824.83,717.65 806.91,717.65 792.38,717.65 775.22,717.65 762.2,717.65 
		748.77,717.65 738.52,717.65 723.44,717.65 709.26,717.65 691.98,717.65 679.97,717.65 668.02,717.65 654.24,717.65 639.74,717.65 
		621.39,717.65 565.39,717.65 504.76,717.65 453.23,717.65 443.53,717.65 440.64,717.65 438.56,717.65 437.46,717.65 436.54,717.52 
		435.81,717.21 434.97,716.62 434.55,716.18 433.93,715.67 433.73,715.42 432.98,714.69 432.53,714.1 431.88,713.37 431.52,712.84 
		431.52,711.66 431.52,696.07 431.52,662.36 431.52,632.06 431.52,590.28 431.52,516.67 431.52,462.38 431.52,414.98 431.52,369.46 
		431.52,327.1 431.52,311.33 431.52,310.62 431.69,309.9 432.07,309.25 432.45,308.76 432.86,308.3 433.28,307.62 433.81,307.13 
		434.27,306.75 434.99,306.4 435.75,305.99 436.89,305.64 482.23,305.64 529.24,305.64 583.68,305.64 629.07,305.64 677.7,305.64 
		735.86,305.64 862.31,305.64 876.93,305.64 878.23,306.13 878.76,306.26 879.52,306.73 880.49,307.39 881.29,308.16 881.88,308.89 
		882.23,309.35 882.23,310.35 	"/>
	<polygon class="st10" points="664.01,532.71 664.01,519.58 664.01,506.21 664.01,495.18 664.01,493.72 663.72,493.37 
		663.22,493.19 662.64,492.98 661.93,492.72 660.93,492.26 660.19,492.02 659.24,491.87 658.39,491.56 657.61,491.24 656.65,491.02 
		655.74,490.82 654.89,490.73 654.34,490.73 654.05,491.06 654.05,491.61 654.05,494.1 654.05,497.88 654.05,500.31 654.05,502.8 
		654.05,505.65 654.05,509.64 654.05,513.57 654.05,517.07 654.05,521.14 654.05,523.7 653.85,524.32 653.55,524.78 653.13,525.1 
		652.78,525.26 652.46,525.26 652.06,525.29 651.79,525.26 651.51,525.18 651.18,524.93 651.01,524.65 650.8,524.21 650.59,523.7 
		650.59,523.23 650.59,520.68 650.59,517.11 650.59,513.98 650.59,510.76 650.59,509.69 650.21,509.27 649.68,508.96 649.18,508.77 
		648.66,508.62 648.11,508.43 647.59,508.32 646.71,508.04 646.05,507.92 645.51,507.92 645.17,507.92 644.57,507.92 644.12,507.89 
		643.43,507.94 642.92,508.13 642.45,508.54 641.87,508.99 641.42,509.46 641.01,509.8 640.6,510.17 640.24,510.8 639.96,511.41 
		639.6,512.05 639.41,512.76 639.23,513.56 639.03,514.17 639.03,514.91 639.03,515.42 639.03,516.1 639.03,517.03 639.03,517.81 
		639.03,518.5 639.03,519.2 639.19,519.93 639.41,520.39 639.68,520.89 639.94,521.52 640.32,522.1 640.7,522.75 641.03,523.19 
		641.35,523.7 641.93,524.48 642.54,525.16 643.22,525.75 644.37,526.53 645.42,527 646.38,527.72 647.45,528.04 649.85,529.01 
		651.34,529.45 653.11,529.96 655.37,530.68 657.26,531.39 658.87,531.97 660.2,532.31 661.01,532.35 661.71,532.41 662.56,532.45 
		662.94,532.48 	"/>
	<path class="st8" d="M664.01,496.51"/>
	<path class="st8" d="M664.67,509.69"/>
	<polygon class="st10" points="664.01,496.51 664.67,496.29 665.28,495.86 665.58,495.7 666.35,495.6 667.1,495.6 667.83,495.6 
		668.89,495.6 669.99,495.6 671.68,495.6 673.43,495.6 674.79,495.72 676.04,495.77 676.74,495.95 677.63,496.06 678.57,496.06 
		679.43,496.31 680.28,496.51 681.08,496.77 681.8,496.99 682.58,497.29 683.23,497.59 683.91,497.97 684.54,498.32 685.08,498.79 
		685.44,499.1 685.62,499.42 685.62,499.87 685.79,500.31 685.79,500.88 685.48,501.28 685.06,501.65 684.4,502.17 683.75,502.52 
		682.67,503.08 681.59,503.55 680.26,504.02 678.57,504.6 677.37,504.98 675.87,505.49 674.49,505.99 672.87,506.5 670.97,507.11 
		669.21,507.67 667.88,508 666.38,508.52 665.39,508.78 664.67,508.96 664.01,509.06 664.01,508.17 664.01,506.83 664.01,505.47 
		664.01,504.46 664.01,504.06 664.38,503.85 664.67,503.71 665.16,503.57 665.65,503.34 666.31,503.03 667.13,502.75 668.18,502.49 
		669.05,502.17 670.41,501.77 671.23,501.56 672.07,501.37 672.73,501.06 673.43,500.88 674.21,500.62 674.79,500.45 675.33,500.22 
		675.68,499.96 675.92,499.63 675.89,499.33 675.75,498.98 675.33,498.7 674.9,498.42 674.25,498.37 673.46,498.37 672.75,498.51 
		671.98,498.67 670.62,499.12 669.64,499.28 668.46,499.7 667.34,500.03 666.31,500.48 665.37,500.88 664.88,500.95 664.01,501.16 
		664.01,500.48 664.01,499.47 664.01,498.06 	"/>
	<polygon class="st10" points="651.92,504.97 650.06,505.71 648.24,506.04 646.57,506.46 645.22,506.74 643.92,506.74 
		642.48,506.97 641.5,506.97 640.18,506.97 639.03,506.97 637.83,506.78 636.94,506.73 635.7,506.62 634.38,506.51 632.87,506.21 
		631.92,506.02 630.93,505.53 630.06,505.08 629.25,504.59 628.23,504.27 627.42,503.79 626.88,503.14 626.48,502.71 626.29,501.98 
		626.29,501.47 626.53,500.87 626.93,500.23 627.42,499.77 628.01,499.23 628.63,498.82 629.5,498.36 630.17,497.99 631.22,497.5 
		632.17,497.18 633.22,496.83 634.19,496.58 635.08,496.34 636.13,496.15 637.32,495.88 638.59,495.4 639.99,494.86 641.42,494.4 
		642.88,493.94 644.2,493.48 645.95,492.97 647.7,492.38 649.24,491.86 650.91,491.49 651.99,491.49 652.99,491.32 654.05,491.32 
		654.05,493.59 654.05,495.07 653.37,495.45 652.37,495.77 651.16,496.18 649.51,496.64 647.6,497.23 646.38,497.64 644.82,498.31 
		642.9,499.15 641.18,500.04 639.61,500.41 638.59,500.76 637.4,501.09 636.75,501.36 636.02,501.68 635.57,501.98 635.54,502.33 
		635.67,502.71 636.16,502.95 636.62,503.06 637.64,503.22 638.45,503.25 639.03,503.17 640.17,502.9 641.07,502.73 642.31,502.33 
		643.41,502.22 644.57,501.82 645.63,501.33 646.57,501.03 647.7,500.71 648.54,500.33 649.86,499.77 650.91,499.31 651.75,499.15 
		652.4,498.98 654.05,498.63 654.05,500.04 654.05,501.71 654.05,503.19 654.05,503.89 654.05,504.46 653.48,504.65 652.69,504.81 	
		"/>
</g>
<g id="cable-head">
	<polygon class="st11" points="317,355.25 317,362.43 317.46,364.37 318.36,367.04 319.27,368.54 320.55,370.48 321.97,372.1 
		323.35,373.31 324.8,374.4 326.77,375.45 328.88,376.3 330.99,376.62 332.52,376.7 341.08,376.82 341.65,376.61 341.97,376.3 
		342.35,375.91 342.63,375.59 342.83,375.26 342.93,374.95 342.93,370.2 342.99,369.93 343.12,369.86 353.53,369.87 353.83,369.84 
		354.2,369.78 354.38,369.64 354.61,369.5 354.94,369.26 355.16,369.06 355.38,368.9 355.55,368.71 355.76,368.51 355.89,368.35 
		356.06,367.94 356.11,367.71 356.11,366.11 356.11,365.9 356.05,365.62 355.88,365.3 355.66,364.93 355.48,364.69 355.25,364.45 
		354.95,364.16 354.62,363.95 354.39,363.78 354.06,363.64 353.57,363.48 353.43,363.46 353.18,363.45 342.99,363.48 342.91,363.46 
		342.89,363.4 342.88,363.22 342.89,354.64 342.96,354.52 343.04,354.44 343.15,354.39 343.33,354.35 353.72,354.35 354.11,354.29 
		354.53,354.06 354.88,353.78 355.25,353.47 355.63,353.09 355.84,352.71 356.05,352.29 356.11,351.86 356.11,350.61 355.97,350.13 
		355.72,349.66 355.47,349.19 355.22,348.87 354.65,348.44 354.17,348.19 353.6,347.99 353.04,347.99 343.26,347.99 343.07,347.94 
		342.97,347.82 342.88,347.6 342.89,343.09 342.88,342.61 342.83,342.4 342.68,342.2 342.44,341.9 342.2,341.62 342.02,341.42 
		341.8,341.26 341.47,341.12 341.19,341 331.78,341 330.52,341.12 329.61,341.3 328.89,341.51 327.92,341.82 327.12,342.12 
		326.17,342.62 325.11,343.15 324.33,343.63 323.36,344.39 322.57,345.08 321.77,345.86 320.97,346.65 320.3,347.52 319.57,348.77 
		318.91,349.87 318.25,351.15 317.86,352.12 317.43,353.32 	"/>
</g>
<g id="cable">
	<rect x="-0.5" y="355.5" class="st11" width="318" height="9"/>
</g>
</svg>
