<?xml version="1.0" encoding="utf-8"?>
<!-- Generator: Adobe Illustrator 25.1.0, SVG Export Plug-In . SVG Version: 6.00 Build 0)  -->
<svg version="1.1" xmlns="http://www.w3.org/2000/svg" xmlns:xlink="http://www.w3.org/1999/xlink" x="0px" y="0px"
	 viewBox="0 0 848 427" style="enable-background:new 0 0 848 427;" xml:space="preserve">
<style type="text/css">
	.st0{fill:#A47449;stroke:#654321;stroke-width:5;stroke-miterlimit:10;}
	.st1{fill:#654321;stroke:#654321;stroke-width:5;stroke-miterlimit:10;}
	.st2{display:none;fill:#D48BFF;stroke:#D48BFF;stroke-width:3;stroke-miterlimit:10;}
	.st3{display:none;}
	.st4{font-family:'MyriadPro-Regular';}
	.st5{font-size:12px;}
	.st6{fill:#696969;stroke:#A9A9A9;stroke-width:3;stroke-miterlimit:10;}
	.st7{fill:#8BFFBC;stroke:#A9A9A9;stroke-miterlimit:10;}
	.st8{fill:#2EFFC1;stroke:#A9A9A9;stroke-miterlimit:10;}
	.st9{stroke:#000000;stroke-miterlimit:10;}
	.st10{fill:#AFAEB2;stroke:#000000;stroke-miterlimit:10;}
	.st11{fill:#8E8D91;stroke:#000000;stroke-miterlimit:10;}
	.st12{fill:#86D6DA;stroke:#000000;stroke-width:0.5;stroke-miterlimit:10;}
	.st13{fill:#868589;stroke:#000000;stroke-width:0.5;stroke-miterlimit:10;}
	.st14{fill:#98D4D9;stroke:#000000;stroke-width:0.5;stroke-miterlimit:10;}
	.st15{fill:#ACAEB1;stroke:#000000;stroke-miterlimit:10;}
	.st16{fill:#5CB7A4;stroke:#000000;stroke-width:0.25;stroke-miterlimit:10;}
	.st17{fill:#8A898D;stroke:#000000;stroke-width:0.25;stroke-miterlimit:10;}
	.st18{fill:#73B5A5;stroke:#000000;stroke-width:0.25;stroke-miterlimit:10;}
	.st19{fill:#87868A;stroke:#000000;stroke-width:0.25;stroke-miterlimit:10;}
	.st20{fill:#82B3A6;stroke:#000000;stroke-width:0.25;stroke-miterlimit:10;}
	.st21{fill:#8D8C90;stroke:#000000;stroke-width:0.25;stroke-miterlimit:10;}
	.st22{fill:none;stroke:#000000;stroke-miterlimit:10;}
	.st23{fill:none;stroke:#000000;stroke-width:0.5;stroke-miterlimit:10;}
	.st24{fill:#555358;stroke:#000000;stroke-width:0.5;stroke-miterlimit:10;}
	.st25{fill:#B7B7B9;stroke:#000000;stroke-width:0.5;stroke-miterlimit:10;}
	.st26{fill:#505150;stroke:#000000;stroke-width:0.5;stroke-miterlimit:10;}
	.st27{fill:#F3AB40;}
	.st28{fill:#E9AD55;}
	.st29{fill:#43967F;}
	.st30{fill:#245EA9;}
	.st31{fill:#ADAEB1;}
	.st32{fill:none;}
	.st33{fill:#599480;}
	.st34{fill:#2964BF;}
	.st35{fill:#C6332A;}
	.st36{display:none;fill:#FFF2EB;stroke:#000000;stroke-miterlimit:10;}
	.st37{display:none;fill:#FFF7F3;stroke:#000000;stroke-miterlimit:10;}
	.st38{display:none;fill:#6C707F;stroke:#000000;stroke-miterlimit:10;}
	.st39{display:none;fill:#FFC4A6;stroke:#000000;stroke-miterlimit:10;}
	.st40{display:none;fill:#FFDAC3;stroke:#000000;stroke-miterlimit:10;}
	.st41{display:none;fill:#E5EAFF;stroke:#000000;stroke-miterlimit:10;}
	.st42{display:none;fill:#CB997E;stroke:#000000;stroke-miterlimit:10;}
	.st43{display:none;fill:url(#SVGID_1_);stroke:#000000;stroke-miterlimit:10;}
	.st44{display:none;fill:url(#SVGID_2_);stroke:#000000;stroke-miterlimit:10;}
	.st45{display:none;fill:none;stroke:#000817;stroke-miterlimit:10;}
	.st46{fill:#26272A;stroke:#000000;stroke-miterlimit:10;}
	.st47{fill:#3E3F44;stroke:#000000;stroke-miterlimit:10;}
	.st48{fill:#52545A;stroke:#000000;stroke-miterlimit:10;}
	.st49{fill:#282A2E;stroke:#000000;stroke-miterlimit:10;}
	.st50{fill:#2B2C31;stroke:#000817;stroke-miterlimit:10;}
	.st51{fill:none;stroke:#000000;stroke-width:0.25;stroke-miterlimit:10;}
	.st52{fill:none;stroke:#000817;stroke-miterlimit:10;}
	.st53{fill:#00B98F;stroke:#000817;stroke-miterlimit:10;}
	.st54{fill:#56585D;stroke:#000817;stroke-miterlimit:10;}
	.st55{fill:#FFFFFF;stroke:#000000;stroke-miterlimit:10;}
	.st56{display:none;fill:#FFFFFF;stroke:#000817;stroke-miterlimit:10;}
	.st57{display:none;fill:#948F8F;stroke:#000817;stroke-miterlimit:10;}
	.st58{fill:#1F2023;stroke:#000817;stroke-miterlimit:10;}
	.st59{display:none;opacity:0.73;fill:#ADB2AE;stroke:#4D4545;stroke-width:7;stroke-miterlimit:10;}
	.st60{display:none;fill:#4D4545;stroke:#4D4545;stroke-width:3;stroke-miterlimit:10;}
	.st61{display:none;fill:#B2B1AA;stroke:#000000;stroke-miterlimit:10;}
	.st62{display:none;stroke:#000000;stroke-miterlimit:10;}
	.st63{display:none;stroke:#000000;stroke-width:0.75;stroke-miterlimit:10;}
	.st64{display:none;fill:#B2B1AA;stroke:#000000;stroke-width:0.75;stroke-miterlimit:10;}
	.st65{display:none;fill:#FFFFFF;stroke:#ECBCB4;stroke-miterlimit:10;}
	.st66{display:none;fill:#ECBCB4;stroke:#ECBCB4;stroke-miterlimit:10;}
	.st67{display:none;stroke:#A27100;stroke-miterlimit:10;}
	.st68{display:none;fill:#FFFFFF;stroke:#000000;stroke-miterlimit:10;}
	.st69{display:none;fill:#8BE1FF;stroke:#A27100;stroke-width:0.25;stroke-miterlimit:10;}
	.st70{fill:#546C7B;}
	.st71{fill:#EFC9B9;}
</style>
<g id="Layer_1">
	<polygon class="st0" points="0.41,-0.46 0.41,295.75 848.41,295.75 848.41,-0.25 	"/>
	<rect x="0.41" y="8.54" class="st1" width="847.5" height="11.33"/>
	<rect x="0.78" y="175.76" class="st1" width="847.5" height="11.33"/>
	<path class="st2" d="M146.91,91.04h-65c-15.46,0-28-12.54-28-28v0c0-15.46,12.54-28,28-28h65c15.46,0,28,12.54,28,28v0
		C174.91,78.51,162.38,91.04,146.91,91.04z"/>
	<polyline class="st2" points="170.91,75.04 170.91,88.04 157.91,88.04 	"/>
	<text transform="matrix(1 0 0 1 77.3253 64.8591)" class="st3 st4 st5">Is it terrifying~?</text>
	<polygon class="st6" points="123.78,295.75 107.91,244.04 123.78,195.05 183.85,195.05 198.92,245.4 183.85,295.75 	"/>
	<rect x="125.91" y="208.04" class="st7" width="56.93" height="36.36"/>
	
		<ellipse transform="matrix(0.9521 -0.3056 0.3056 0.9521 -75.0883 51.6691)" class="st7" cx="127.46" cy="265.63" rx="4.87" ry="9.53"/>
	
		<ellipse transform="matrix(0.4072 -0.9133 0.9133 0.4072 -134.2081 324.0749)" class="st7" cx="182.56" cy="265.43" rx="9.53" ry="4.87"/>
	<polygon class="st8" points="149.91,268.04 164.91,268.04 170.51,258.04 137.88,258.04 144.24,268.04 	"/>
	<ellipse class="st7" cx="134.67" cy="286.53" rx="9.53" ry="4.87"/>
	<ellipse class="st7" cx="155.67" cy="286.53" rx="9.53" ry="4.87"/>
	<ellipse class="st7" cx="176.67" cy="286.53" rx="9.53" ry="4.87"/>
	<path class="st6" d="M347.91,295.75c0,0-2-63.35,0-69.53c2-6.18,21-25.18,53-25.18s43.46,18.36,44.23,25.18
		c0.77,6.82,0,69.53,0,69.53"/>
	<path class="st9" d="M358.91,228.04v14.31c0,0,9-0.31,11-0.31s6.02-0.69,6.01-6.85s-4.3-7.15-6.16-7.15
		S358.91,228.04,358.91,228.04z"/>
	<path class="st9" d="M358.91,256.04v14.31c0,0,9-0.31,11-0.31s6.02-0.69,6.01-6.85s-4.3-7.15-6.16-7.15
		S358.91,256.04,358.91,256.04z"/>
	<path class="st9" d="M387.91,228.04v14.31c0,0,9-0.31,11-0.31s6.02-0.69,6.01-6.85s-4.3-7.15-6.16-7.15
		S387.91,228.04,387.91,228.04z"/>
	<path class="st9" d="M387.91,256.04v14.31c0,0,9-0.31,11-0.31s6.02-0.69,6.01-6.85s-4.3-7.15-6.16-7.15
		S387.91,256.04,387.91,256.04z"/>
	<path class="st9" d="M387.91,278.04v14.31c0,0,9-0.31,11-0.31s6.02-0.69,6.01-6.85s-4.3-7.15-6.16-7.15
		S387.91,278.04,387.91,278.04z"/>
	<path class="st9" d="M418.91,256.04v14.31c0,0,9-0.31,11-0.31s6.02-0.69,6.01-6.85s-4.3-7.15-6.16-7.15
		S418.91,256.04,418.91,256.04z"/>
	<path class="st9" d="M419.91,278.04v14.31c0,0,9-0.31,11-0.31s6.02-0.69,6.01-6.85s-4.3-7.15-6.16-7.15
		S419.91,278.04,419.91,278.04z"/>
	<polygon class="st10" points="586.78,179.01 564.32,179.01 564.14,178.95 563.97,178.87 563.81,178.76 563.62,178.62 
		563.38,178.44 563.18,178.29 563.04,178.14 562.87,178.04 562.78,177.94 562.75,177.82 562.75,177.7 562.75,177.54 562.75,176.52 
		562.75,175.27 562.75,174.14 562.75,172.88 562.75,172.28 562.75,171.95 562.74,170.11 562.87,169.97 563.08,169.95 563.46,169.9 
		563.72,169.87 564.17,169.79 564.52,169.73 565.02,169.63 565.5,169.5 565.92,169.39 566.35,169.26 566.9,169.07 567.1,169 
		567.29,168.94 567.44,168.87 567.56,168.82 567.68,168.77 567.85,168.7 568.06,168.61 568.27,168.51 568.5,168.41 568.77,168.28 
		569.05,168.14 569.26,168.02 569.48,167.89 569.76,167.71 569.99,167.55 570.28,167.34 570.45,167.23 570.64,167.1 570.86,166.97 
		571,166.87 571.17,166.74 571.34,166.62 571.52,166.49 571.75,166.3 571.94,166.12 572.07,166 572.23,165.83 572.37,165.68 
		572.52,165.53 572.65,165.42 572.8,165.27 572.98,165.08 573.12,164.92 573.33,164.68 573.52,164.44 573.7,164.18 573.88,163.94 
		574.05,163.65 574.22,163.39 574.49,163.01 574.7,162.63 574.85,162.28 575.05,161.88 575.26,161.4 575.47,160.89 575.66,160.31 
		575.85,159.67 576.04,158.84 576.13,158.41 576.23,157.87 576.26,157.27 576.29,156.34 576.26,155.22 576.23,154.45 576.14,153.87 
		575.97,153.2 575.77,152.53 575.54,151.81 575.26,151.05 574.92,150.31 574.54,149.69 574.15,149.09 573.55,148.24 573.14,147.75 
		572.71,147.26 572.31,146.83 571.79,146.34 571.23,145.84 570.62,145.35 570.12,144.98 569.54,144.63 568.7,144.18 567.87,143.8 
		567.4,143.58 566.62,143.28 566.14,143.07 565.52,142.86 564.9,142.7 564.14,142.55 563.4,142.41 562.84,142.37 562.2,142.32 
		561.44,142.31 560.68,142.31 560.26,142.31 559.6,142.34 558.96,142.41 558.33,142.54 557.79,142.64 557.36,142.75 556.82,142.88 
		556.27,143.07 555.81,143.21 555.35,143.37 554.97,143.55 554.5,143.75 553.99,144.04 553.43,144.38 552.96,144.61 552.39,144.94 
		551.94,145.27 551.47,145.65 551.12,145.92 550.73,146.25 550.3,146.63 549.91,147.04 549.49,147.51 549.14,147.92 548.71,148.45 
		548.34,149.05 548.05,149.62 547.71,150.26 547.44,150.82 547.15,151.34 546.92,151.98 546.77,152.39 546.61,152.89 546.51,153.48 
		546.41,154.02 546.32,154.59 546.31,155.15 546.3,155.66 546.3,156.26 546.31,156.79 546.33,157.25 546.4,157.79 546.49,158.36 
		546.57,158.84 546.72,159.37 546.9,160.15 547.18,160.83 547.53,161.62 548.02,162.51 548.5,163.36 549.04,164.14 549.65,164.86 
		550.18,165.45 550.76,165.99 551.51,166.65 552.21,167.2 552.88,167.66 553.58,168.06 554.39,168.48 555.03,168.78 555.97,169.19 
		557,169.55 557.93,169.79 558.66,169.95 559.18,170.03 559.39,170.05 559.53,170.07 559.75,170.08 559.95,170.13 560.03,170.15 
		560.11,170.22 560.08,172.67 560.09,174.82 560.1,176.82 560.11,177.63 560.05,177.77 559.95,177.86 559.83,177.97 559.64,178.13 
		559.45,178.31 559.31,178.43 559.12,178.62 558.92,178.79 558.71,178.92 558.42,179.01 558.09,179.01 557.61,179.01 555.88,179.01 
		551.56,179.01 546.57,179.01 542.28,179.01 538.09,179.01 536.93,179.01 536.56,178.87 536.05,178.66 535.57,178.45 535.23,178.26 
		534.72,177.83 534.24,177.3 533.97,176.85 533.65,176.37 533.41,175.78 533.41,175.16 533.41,170.57 533.41,158.46 533.41,141.26 
		533.41,121.03 533.41,100.25 533.41,76.2 533.41,54.18 533.41,41.5 533.41,40.56 533.53,40.04 533.78,39.51 534.1,39.17 
		534.47,38.71 534.91,38.3 535.4,38 535.96,37.86 536.57,37.86 541.15,37.86 554.12,37.86 566.86,37.86 575.28,37.86 582.44,37.86 
		585.4,37.86 586.52,37.86 587.23,38.07 587.73,38.32 588.26,38.79 588.51,39.28 588.91,39.41 589.41,39.41 590,39.41 590.62,39.44 
		606.08,39.45 622.71,39.5 637.27,39.65 650.89,39.65 661.84,39.65 671.71,39.68 679.27,39.77 687.1,39.9 687.72,39.89 
		688.31,39.62 688.86,39.27 689.31,38.85 689.68,38.52 689.93,38.3 690.37,38.13 691.12,38.03 692.04,38 697.21,37.86 708.79,37.86 
		729.95,37.86 743.13,37.86 744.14,38.04 745.02,38.29 745.77,38.65 746.54,39.17 747.12,39.86 747.53,40.8 747.67,42.04 
		747.67,43.22 747.67,58.46 747.67,76.77 747.67,96.02 747.67,117.49 747.67,135.74 747.67,153.35 747.67,170.84 747.67,175.32 
		747.67,176.09 747.56,176.71 747.37,177.2 747.08,177.55 746.67,177.94 746.11,178.29 745.57,178.48 744.83,178.7 744.14,178.84 
		742.92,179.01 741.68,179.01 739.07,179.01 734.15,179.01 727.16,179.01 719.37,179.01 712.29,179.01 706.01,179.01 694.76,179.01 
		694.33,178.93 693.94,178.76 693.65,178.58 693.46,178.29 693.38,177.94 693.35,177.55 693.34,177.22 693.32,177.01 693.2,176.86 
		692.99,176.8 692.71,176.79 692.41,176.77 691.51,176.76 689.95,176.76 683.61,176.75 670.15,176.72 660.95,176.69 650.51,176.64 
		636.73,176.62 624.89,176.62 612.05,176.62 597.42,176.64 590.01,176.57 589.71,176.57 589.42,176.62 589.18,176.84 588.99,177.17 
		588.87,177.52 588.71,177.88 588.44,178.11 588.2,178.35 587.88,178.64 587.37,178.87 587.15,179.01 	"/>
	<polygon class="st11" points="706.75,150.29 706.56,150.6 706.33,151.07 706.04,151.63 705.86,152.14 705.63,152.75 705.43,153.38 
		705.26,153.95 705.09,154.63 705.03,155.05 704.99,155.68 704.99,156.23 704.99,157.34 704.99,157.71 704.99,158.12 705.07,158.58 
		705.19,159.12 705.26,159.64 705.41,160.21 705.55,160.62 705.67,161.05 705.87,161.56 706.02,161.93 706.2,162.34 706.4,162.77 
		706.58,163.17 706.81,163.5 707.05,163.88 707.35,164.29 707.63,164.71 707.97,165.09 708.26,165.47 708.57,165.78 708.89,166.16 
		709.18,166.48 709.48,166.69 709.89,167.03 710.29,167.34 710.62,167.6 710.91,167.81 711.27,168.09 711.7,168.3 712.2,168.61 
		712.62,168.85 713.1,169.1 713.59,169.32 714.04,169.48 714.49,169.66 714.95,169.81 715.34,169.93 715.78,170.08 716.24,170.22 
		716.76,170.31 717.23,170.41 717.76,170.47 718.34,170.54 718.82,170.54 719.61,170.54 721.29,170.54 721.85,170.54 722.37,170.44 
		722.88,170.39 723.35,170.27 723.83,170.15 724.4,170.03 724.81,169.9 725.38,169.71 726,169.47 726.51,169.21 727.08,168.98 
		727.52,168.74 728,168.46 728.45,168.21 728.9,167.9 729.27,167.63 729.68,167.3 730.02,167.01 730.45,166.63 730.8,166.32 
		731.08,166.06 731.45,165.68 731.72,165.35 731.98,165.05 732.26,164.64 732.54,164.24 732.82,163.86 733.01,163.55 733.22,163.18 
		733.42,162.8 733.59,162.47 733.8,162.08 733.98,161.66 734.18,161.17 734.34,160.79 734.46,160.41 734.54,160.03 734.64,159.53 
		734.71,159.17 734.78,158.82 734.83,158.48 734.83,157.89 734.83,157.34 734.83,155.75 734.83,155.34 734.83,154.93 734.71,154.33 
		734.52,153.73 734.35,153.15 734.18,152.58 733.98,152.1 733.76,151.58 733.47,150.98 733.27,150.59 733.04,150.16 732.75,149.63 
		732.47,149.22 732.13,148.75 731.71,148.25 731.24,147.74 730.93,147.42 730.52,147.02 729.99,146.58 729.59,146.23 729.16,145.9 
		728.65,145.54 728.1,145.2 727.59,144.89 726.99,144.59 726.4,144.31 725.77,144.05 725.24,143.84 724.69,143.64 724.16,143.45 
		723.62,143.31 723.11,143.19 722.52,143.07 721.9,142.99 721.29,142.93 720.82,142.93 718.75,142.93 718.3,142.99 717.82,143.06 
		717.42,143.1 716.84,143.22 716.31,143.34 715.83,143.45 715.34,143.58 714.9,143.7 714.52,143.85 714.12,144.01 713.66,144.19 
		713.24,144.34 712.78,144.55 712.34,144.79 711.91,145.02 711.5,145.29 711.01,145.61 710.65,145.87 710.27,146.17 709.96,146.4 
		709.63,146.67 709.27,146.99 709.02,147.25 708.63,147.62 708.4,147.9 708.12,148.22 707.87,148.5 707.58,148.83 707.29,149.21 
		707.09,149.55 	"/>
	<polygon class="st11" points="547.38,125.62 547.46,125.2 547.58,124.68 547.7,124.28 547.83,123.85 548.01,123.53 548.19,123.2 
		548.39,122.85 548.61,122.53 548.87,122.16 549.11,121.85 549.48,121.55 549.82,121.33 550.16,121.05 550.52,120.78 550.84,120.61 
		551.24,120.4 551.65,120.21 552.12,120.06 552.58,119.93 553,119.85 553.38,119.8 553.8,119.73 554.19,119.73 554.69,119.73 
		555.03,119.73 555.5,119.81 555.84,119.89 556.31,120.01 556.72,120.14 557.19,120.29 557.65,120.5 558.14,120.76 558.48,120.99 
		558.85,121.28 559.23,121.59 559.61,121.99 559.94,122.36 560.27,122.68 560.46,123.03 560.68,123.41 560.92,123.79 561.14,124.23 
		561.19,124.57 561.33,125.21 561.39,125.71 561.39,126.34 561.39,126.9 561.33,127.58 561.25,128.05 561.13,128.4 560.92,128.8 
		560.68,129.23 560.45,129.66 560.17,129.98 559.89,130.38 559.58,130.7 559.25,131 559.01,131.18 558.7,131.4 558.31,131.65 
		558.06,131.79 557.71,132 557.39,132.15 556.98,132.32 556.6,132.42 556.23,132.53 555.87,132.6 555.49,132.7 554.94,132.7 
		554.38,132.7 553.94,132.7 553.77,132.7 553.46,132.7 552.97,132.62 552.51,132.52 552.18,132.38 551.67,132.25 551.3,132.06 
		550.86,131.86 550.42,131.58 549.98,131.28 549.63,130.97 549.27,130.64 548.92,130.28 548.67,129.94 548.38,129.53 548.12,129.12 
		547.85,128.69 547.72,128.29 547.57,127.87 547.44,127.45 547.38,127 547.38,126.48 547.38,125.99 	"/>
	<polygon class="st11" points="563.46,169.9 563.72,169.87 564.17,169.79 564.52,169.73 565.02,169.63 565.5,169.5 565.92,169.39 
		566.35,169.26 566.9,169.07 567.1,169 567.29,168.94 567.44,168.87 567.68,168.77 567.85,168.7 568.06,168.61 568.27,168.51 
		568.5,168.41 568.77,168.28 569.05,168.14 569.26,168.02 569.48,167.89 569.76,167.71 569.99,167.55 570.28,167.34 570.64,167.1 
		570.86,166.97 571.17,166.74 571.34,166.62 571.52,166.49 571.75,166.3 571.94,166.12 572.23,165.83 572.37,165.68 572.65,165.42 
		572.8,165.27 573.12,164.92 573.33,164.68 573.52,164.44 573.7,164.18 573.88,163.94 574.05,163.65 574.22,163.39 574.49,163.01 
		574.7,162.63 574.85,162.28 575.05,161.88 575.26,161.4 575.47,160.89 575.66,160.31 575.85,159.67 576.04,158.84 576.13,158.41 
		576.23,157.87 576.26,157.27 576.29,156.34 576.26,155.22 576.23,154.45 576.14,153.87 575.97,153.2 575.77,152.53 575.54,151.81 
		575.26,151.05 574.92,150.31 574.54,149.69 574.15,149.09 573.55,148.24 573.14,147.75 572.71,147.26 572.31,146.83 571.79,146.34 
		571.23,145.84 570.62,145.35 570.12,144.98 569.54,144.63 568.7,144.18 567.87,143.8 567.4,143.58 566.62,143.28 566.14,143.07 
		565.52,142.86 564.9,142.7 564.14,142.55 563.4,142.41 562.84,142.37 562.2,142.32 561.44,142.31 560.68,142.31 560.26,142.31 
		559.6,142.34 558.96,142.41 558.33,142.54 557.79,142.64 557.36,142.75 556.82,142.88 556.27,143.07 555.81,143.21 555.35,143.37 
		554.97,143.55 554.5,143.75 553.99,144.04 553.43,144.38 552.96,144.61 552.39,144.94 551.94,145.27 551.47,145.65 551.12,145.92 
		550.73,146.25 550.3,146.63 549.91,147.04 549.49,147.51 549.14,147.92 548.71,148.45 548.34,149.05 548.05,149.62 547.71,150.26 
		547.44,150.82 547.15,151.34 546.92,151.98 546.77,152.39 546.61,152.89 546.51,153.48 546.41,154.02 546.32,154.59 546.31,155.15 
		546.3,155.66 546.3,156.26 546.31,156.79 546.33,157.25 546.4,157.79 546.49,158.36 546.57,158.84 546.72,159.37 546.9,160.15 
		547.18,160.83 547.53,161.62 548.02,162.51 548.5,163.36 549.04,164.14 549.65,164.86 550.18,165.45 550.76,165.99 551.51,166.65 
		552.21,167.2 552.88,167.66 553.58,168.06 554.39,168.48 555.03,168.78 555.97,169.19 557,169.55 557.93,169.79 558.66,169.95 
		559.18,170.03 559.53,170.07 559.86,170.07 560.19,170.07 560.55,170.07 561.05,170.07 561.46,170.07 562.12,170.07 562.49,170.07 
		562.66,170.07 562.87,169.97 563.08,169.95 	"/>
	<polygon class="st12" points="714.77,157.33 714.77,156.37 715.07,156.06 715.29,155.81 715.65,155.62 715.81,155.51 
		716.74,155.51 717.01,155.73 717.23,155.87 717.44,156.06 717.58,156.3 717.58,157.33 717.58,157.47 717.39,157.66 717.18,157.88 
		716.88,158.12 715.92,158.12 715.43,157.87 714.99,157.55 	"/>
	<polygon class="st13" points="715.83,157.54 715.4,157.18 715.4,156.43 715.61,156.2 715.83,156.02 716.61,156.02 716.93,156.24 
		717.14,156.52 717.14,157.25 716.79,157.54 	"/>
	<polygon class="st12" points="718.17,158.05 718.17,155.55 719.69,155.55 719.98,155.76 720.12,156.02 720.12,156.78 
		719.91,157.06 719.68,157.14 718.64,157.11 718.63,158.05 	"/>
	<polygon class="st13" points="718.63,156.02 718.63,156.74 719.54,156.74 719.76,156.55 719.76,156.21 719.58,156.08 	"/>
	<polygon class="st14" points="720.45,155.51 720.46,158.12 722.54,158.12 722.54,157.54 721.02,157.54 721.02,157.04 
		722.54,157.07 722.54,156.49 720.98,156.5 720.95,156.02 722.54,156.02 722.52,155.51 	"/>
	<polygon class="st12" points="723,155.51 723,158.12 723.7,158.12 723.7,156.56 723.7,156.38 723.87,156.49 724.07,156.8 
		725.15,158.09 725.17,158.15 725.52,158.15 725.58,158.15 725.56,155.48 725.2,155.48 725.2,157.24 725.2,157.32 725.1,157.33 
		725.01,157.25 724.94,157.15 723.76,155.57 723.71,155.48 	"/>
	<polyline class="st15" points="564.32,179.01 563.32,179.01 562.5,179.01 561.48,179.01 560.74,179.01 559.81,179.01 
		559.27,179.01 558.71,178.92 558.92,178.79 559.12,178.62 559.45,178.31 559.64,178.13 559.83,177.97 560.05,177.77 560.11,177.63 
		560.1,177.35 560.1,176.82 560.09,174.82 560.08,172.67 560.11,170.22 560.19,170.07 560.55,170.07 561.05,170.07 561.46,170.07 
		562.12,170.07 562.49,170.07 562.74,170.11 562.74,170.52 562.75,171.09 562.75,171.95 562.75,172.88 562.75,174.14 562.75,175.27 
		562.75,176.52 562.75,177.54 562.75,177.82 562.78,177.94 563.04,178.14 563.18,178.29 563.62,178.62 563.97,178.87 564.32,179.01 
			"/>
	<polygon class="st16" points="553.86,157.13 553.86,156.87 553.86,156.61 553.86,156.32 553.86,155.85 553.86,155.47 
		553.86,155.13 553.86,154.93 553.86,154.82 554.05,154.82 554.19,154.82 554.4,154.82 554.59,154.82 554.84,154.82 555.06,154.82 
		555.18,154.82 555.27,154.82 555.4,154.82 555.56,154.86 555.66,154.93 555.79,155.07 555.89,155.2 555.94,155.34 555.94,155.49 
		555.94,155.64 555.94,155.81 555.94,155.97 555.88,156.06 555.78,156.14 555.7,156.24 555.58,156.33 555.41,156.39 555.26,156.46 
		555.01,156.48 554.9,156.48 554.67,156.48 554.47,156.48 554.35,156.48 554.25,156.51 554.21,156.58 554.21,156.73 554.22,156.91 
		554.21,157 554.21,157.13 554.09,157.13 553.99,157.13 	"/>
	<polygon class="st17" points="554.21,155.97 554.21,155.73 554.21,155.58 554.24,155.49 554.33,155.46 554.4,155.46 554.52,155.46 
		554.66,155.46 554.84,155.46 555.01,155.46 555.14,155.46 555.25,155.46 555.38,155.49 555.47,155.51 555.54,155.58 555.54,155.72 
		555.54,155.83 555.44,155.88 555.27,155.95 555.18,155.97 554.95,155.97 554.74,155.97 554.38,155.97 	"/>
	<polygon class="st18" points="556.41,156.55 556.41,156.09 556.41,155.72 556.45,155.52 556.59,155.41 556.79,155.21 
		556.94,155.11 557.06,154.98 557.16,154.91 557.26,154.82 557.39,154.82 557.59,154.82 557.85,154.82 558.05,154.82 558.17,154.82 
		558.31,154.86 558.41,154.91 558.56,155 558.71,155.12 558.84,155.26 558.95,155.42 559.06,155.58 559.19,155.75 559.25,155.87 
		559.25,156.19 559.25,156.35 559.25,156.47 559.25,156.63 559.25,156.76 559.09,156.89 558.89,157.13 558.67,157.28 558.53,157.37 
		558.38,157.44 558.21,157.44 557.97,157.44 557.74,157.44 557.44,157.44 557.34,157.44 557.13,157.3 556.96,157.19 556.82,157.06 
		556.61,156.88 556.55,156.76 	"/>
	<polygon class="st19" points="556.76,156.42 556.76,155.9 556.83,155.79 556.96,155.69 557.11,155.58 557.26,155.46 557.44,155.46 
		557.67,155.46 557.86,155.46 558.06,155.46 558.17,155.5 558.29,155.54 558.4,155.6 558.52,155.72 558.61,155.79 558.68,155.84 
		558.68,155.91 558.73,156.05 558.73,156.19 558.73,156.42 558.66,156.57 558.54,156.79 558.44,156.85 558.25,156.85 557.99,156.85 
		557.74,156.85 557.45,156.85 557.33,156.85 557.18,156.78 557.04,156.66 556.89,156.57 	"/>
	<polygon class="st20" points="559.34,155.15 559.52,155.46 559.66,155.72 559.75,156.03 559.85,156.23 559.94,156.45 
		560.04,156.68 560.09,156.93 560.18,157.13 560.28,157.13 560.39,157.13 560.49,157.13 560.64,157.13 560.7,156.85 560.77,156.65 
		560.84,156.44 560.96,156.19 561.05,155.97 561.12,155.78 561.29,155.79 561.41,155.79 561.51,155.92 561.56,156.15 561.65,156.49 
		561.74,156.72 561.87,156.96 561.98,157.13 562.1,157.13 562.24,157.13 562.41,157.13 562.52,156.85 562.6,156.55 562.72,156.25 
		562.87,155.92 562.95,155.66 562.99,155.46 563.04,155.26 563.04,155.15 562.83,155.15 562.65,155.11 562.58,155.33 562.52,155.6 
		562.42,155.97 562.35,156.15 562.25,156.38 562.18,156.49 562.02,156.49 561.89,156.37 561.83,156.07 561.75,155.72 561.61,155.46 
		561.54,155.25 561.48,155.11 561.29,155.11 561.19,155.11 561.08,155.11 560.97,155.32 560.84,155.61 560.76,155.87 560.67,156.12 
		560.6,156.3 560.54,156.47 560.38,156.49 560.14,156.12 560.05,155.82 559.96,155.51 559.79,155.24 559.73,155.11 	"/>
	<polygon class="st20" points="563.69,154.89 563.99,154.89 564.34,154.89 564.75,154.89 565.12,154.89 565.38,154.89 
		565.48,154.89 565.48,155.06 565.48,155.27 565.48,155.45 565.34,155.45 565.1,155.45 564.84,155.45 564.5,155.45 564.23,155.45 
		564.06,155.45 564.05,155.66 564.05,155.8 564.27,155.8 565.48,155.8 565.48,156.47 564.03,156.47 564.03,156.82 565.48,156.82 
		565.48,157.44 563.31,157.44 563.31,154.89 	"/>
	<polygon class="st20" points="565.88,157.38 565.88,155.3 565.93,155.2 566.02,155.15 566.13,155.06 566.22,154.96 566.29,154.89 
		566.36,154.83 567.63,154.83 567.84,154.96 568.06,155.12 568.33,155.29 568.4,155.41 568.4,155.64 568.4,155.79 568.32,155.94 
		568.18,156.05 568.08,156.14 568.02,156.19 568.06,156.47 568.21,156.62 568.35,156.79 568.4,156.99 568.4,157.13 568.4,157.28 
		568.4,157.38 568.28,157.38 568.06,157.38 567.79,157.38 567.64,157.38 567.67,157.11 567.66,156.87 567.66,156.71 567.66,156.58 
		567.64,156.49 567.48,156.49 567.21,156.48 567.01,156.47 566.78,156.47 566.62,156.48 566.58,156.67 566.58,156.82 566.59,157.06 
		566.59,157.19 566.58,157.38 	"/>
	<rect x="566.58" y="155.48" class="st21" width="1.09" height="0.36"/>
	<polyline class="st22" points="588.99,177.17 588.99,172.23 588.99,160.64 588.99,153.38 588.99,147.7 	"/>
	<polyline class="st22" points="692.41,176.77 692.41,170.85 692.41,164.04 692.41,157.81 692.33,148.79 	"/>
	<polyline class="st22" points="588.91,39.41 588.91,45.65 588.91,53.6 588.91,61.49 588.91,68.63 	"/>
	<polyline class="st22" points="691.53,38.01 691.53,47.35 691.53,54.52 691.53,63.81 691.5,68.51 	"/>
	<path class="st22" d="M588.91,68.63"/>
	<line class="st23" x1="551.42" y1="126.01" x2="550.38" y2="125.95"/>
	<polyline class="st23" points="550.38,126.79 550.38,126.59 550.38,125.95 550.38,125.5 550.38,125.33 550.38,125.23 550.7,125.23 
		550.98,125.23 551.22,125.23 551.34,125.23 551.59,125.42 551.59,125.6 551.59,125.72 551.59,125.84 551.51,126 551.59,126.54 
		551.59,126.62 551.59,126.79 	"/>
	<polyline class="st23" points="553.43,125.42 552.2,125.42 552.09,125.42 552.09,126.71 552.09,126.84 553.39,126.84 	"/>
	<line class="st23" x1="553.37" y1="126.08" x2="552.09" y2="126.08"/>
	<polyline class="st23" points="555.06,125.71 554.91,125.6 554.79,125.52 554.65,125.47 554.38,125.47 554.16,125.47 554,125.59 
		553.89,125.71 553.89,125.85 553.99,126.01 554.2,126.08 554.43,126.13 554.65,126.17 554.79,126.17 554.91,126.29 554.98,126.48 
		554.97,126.63 554.88,126.79 554.71,126.84 554.47,126.84 554.28,126.84 554.1,126.79 553.98,126.69 553.81,126.53 	"/>
	<polyline class="st23" points="556.71,125.47 555.54,125.47 555.54,127.01 556.71,127.01 	"/>
	<line class="st23" x1="556.71" y1="126.21" x2="555.54" y2="126.21"/>
	<polyline class="st23" points="556.99,125.6 557.14,125.6 558.55,125.6 	"/>
	<line class="st23" x1="557.77" y1="127.01" x2="557.77" y2="125.6"/>
	<polyline class="st22" points="696.64,143.44 698.27,144.49 699.32,145.16 700.54,145.84 701.4,146.35 702.4,146.94 703.8,147.85 
		704.51,148.26 705.34,148.78 705.9,149.19 706.29,149.47 706.56,149.64 706.94,149.88 707,149.75 707.05,149.64 707.14,149.46 
		707.25,149.28 707.38,149.08 707.52,148.91 707.68,148.71 707.64,148.61 707.52,148.46 707.16,148.24 706.77,147.99 706.16,147.63 
		705.55,147.23 704.99,146.86 704.48,146.59 703.92,146.23 703.35,145.88 702.75,145.52 702.01,145.09 701.45,144.74 700.94,144.44 
		700.43,144.14 700.02,143.84 699.54,143.54 699.09,143.24 698.53,142.84 698.1,142.57 697.5,142.24 697.1,142.8 696.64,143.44 	"/>
	<polygon class="st10" points="676.37,161.53 678.33,160.39 680.11,159.2 682.13,157.79 683.71,156.51 685.4,155.25 686.8,154.17 
		688.29,152.86 689.61,151.57 690.86,150.25 692.33,148.79 693.67,147.24 694.99,145.72 696.01,144.32 697.21,142.66 698.78,140.41 
		700.01,138.36 701.3,136.2 702.23,134.27 703.58,131.64 704.69,128.69 705.45,126.38 706.24,123.84 706.85,121.23 707.35,118.75 
		707.64,116.76 707.87,114.89 708.08,113.2 708.19,112.03 708.19,110.33 708.19,108.55 708.19,106.51 708.19,105.07 708.02,103.03 
		707.87,101.8 707.64,100.36 707.41,99 707.08,97.24 706.79,95.66 706.21,93.47 705.62,91.57 705.01,89.64 704.37,87.86 
		703.72,86.28 702.76,84.15 701.94,82.34 700.89,80.5 700.22,79.15 699.43,77.9 698.64,76.52 697.67,75.21 696.73,74.16 
		695.99,73.15 695.06,72.11 694.21,71.22 693.55,70.64 692.78,69.9 692.12,69.09 691.5,68.51 690.88,67.77 689.87,66.69 
		689.02,65.79 687.67,64.36 686.89,63.7 685.96,62.93 685.15,62.15 684.06,61.3 682.67,60.22 681.55,59.44 679.88,58.28 
		678.37,57.23 676.66,56.19 675.12,55.41 673.18,54.25 671.01,53.21 668.76,52.28 666.4,51.19 664.46,50.49 661.75,49.64 
		659.31,48.91 656.95,48.29 655.01,47.82 652.53,47.36 650.83,47.05 649.05,46.85 647.15,46.66 644.28,46.66 640.42,46.47 
		638.55,46.47 636.11,46.47 633.55,46.7 629.68,47.05 626.77,47.43 623.25,48.21 619.88,49.14 617.05,50.03 613.64,51.19 
		610.12,52.66 607.37,54.1 604.77,55.57 602.06,57.39 599.82,58.82 597.49,60.49 595.52,62.08 593.85,63.51 592.18,65.21 
		591.02,66.45 589.63,67.77 588.47,69.16 587.26,70.68 585.33,73.08 584.01,74.86 582.66,77.11 581.38,79.12 580.22,80.98 
		579.44,82.61 578.67,84.27 577.81,86.44 576.96,88.73 576.07,91.01 575.57,93.33 574.75,96.32 574.6,97.49 574.46,98.96 
		574.33,100.36 574.16,101.69 574.08,102.86 573.94,104.21 573.85,106.02 573.85,107.68 573.85,108.89 573.85,110.54 573.85,111.9 
		573.85,112.88 574.01,114.49 574.13,115.16 574.27,116.13 574.52,117.23 574.63,117.74 574.72,118.24 574.77,118.89 574.86,119.7 
		575.02,120.34 575.14,121.1 575.3,121.94 575.53,122.78 575.81,123.71 576.12,124.88 576.37,125.84 576.96,127.35 577.32,128.22 
		577.66,129.17 578.02,129.99 578.36,130.8 578.84,131.86 579.2,132.7 579.82,133.99 580.57,135.4 581.13,136.35 581.81,137.61 
		582.48,138.73 583.24,140.08 583.88,141.09 584.58,142.12 585.48,143.41 586.21,144.36 587.33,145.74 588.51,147.2 589.91,148.65 
		591.08,149.91 592.26,151.15 593.69,152.47 595.01,153.53 596.19,154.6 597.67,155.83 599.3,157.03 600.78,158.07 602.58,159.16 
		604.17,160.17 605.8,161.15 607.29,162 608.97,162.78 611.13,163.76 612.72,164.6 614.97,165.47 616.79,166.14 618.64,166.76 
		620.43,167.43 622.37,167.94 624.24,168.41 626.23,168.86 628.28,169.25 629.96,169.56 631.7,169.79 633.69,170.01 635.22,170.25 
		636.67,170.38 637.74,170.38 639.27,170.38 640.95,170.38 642.32,170.38 644.26,170.38 645.87,170.38 647.36,170.17 648.86,170.03 
		650.17,169.89 651.86,169.67 653.72,169.34 655.52,168.97 657.24,168.59 659.31,168.06 661.19,167.51 662.94,167 664.93,166.34 
		666.68,165.73 668.56,165.01 670.39,164.22 671.95,163.56 673.64,162.75 675.04,162.21 	"/>
	<polyline class="st23" points="630.31,143.82 630.31,141.28 630.31,141.12 630.65,141.12 631.09,141.12 631.42,141.12 
		631.73,141.19 631.88,141.36 631.97,141.65 631.97,141.89 631.97,142.18 631.83,142.47 631.63,142.63 631.14,142.63 630.81,142.63 
		630.41,142.64 	"/>
	<line class="st23" x1="632.95" y1="141.12" x2="632.95" y2="143.82"/>
	<polyline class="st23" points="634.11,141.81 635.04,141.81 635.24,141.93 635.41,142.09 635.41,142.52 635.41,142.66 
		635.41,143.61 635.41,143.82 634.19,143.82 633.97,143.67 633.84,143.47 633.84,143.25 633.84,143.01 634.08,142.82 634.24,142.73 
		634.5,142.67 634.7,142.67 634.87,142.67 635.07,142.66 635.21,142.66 	"/>
	<line class="st23" x1="638.11" y1="141.81" x2="636.56" y2="145.02"/>
	<line class="st23" x1="636.25" y1="141.81" x2="637.12" y2="143.61"/>
	<polyline class="st23" points="640.22,141.12 639.17,141.12 639.01,141.27 638.87,141.49 638.87,142.09 639.07,142.26 
		639.33,142.37 639.55,142.37 639.78,142.37 640.01,142.47 640.22,142.71 640.22,142.95 640.22,143.19 640.22,143.5 640.06,143.7 
		639.85,143.82 638.87,143.82 	"/>
	<polyline class="st23" points="641.28,141.36 641.28,143.72 641.55,143.82 641.84,143.82 	"/>
	<line class="st23" x1="642.11" y1="141.81" x2="641.34" y2="141.81"/>
	<polyline class="st23" points="642.91,141.81 643.85,141.81 644.06,141.96 644.17,142.15 644.17,143.69 644.03,143.82 
		643.69,143.82 642.95,143.82 642.76,143.61 642.59,143.42 642.59,143.1 642.82,142.89 643.04,142.82 643.26,142.71 643.61,142.71 
		643.81,142.71 644.06,142.71 	"/>
	<polyline class="st23" points="645.31,141.36 645.31,143.61 645.55,143.82 645.86,143.82 	"/>
	<line class="st23" x1="646.11" y1="141.81" x2="645.39" y2="141.81"/>
	<line class="st23" x1="646.86" y1="141.03" x2="646.86" y2="141.25"/>
	<line class="st23" x1="646.86" y1="141.81" x2="646.86" y2="143.94"/>
	<polygon class="st23" points="647.91,143.26 647.91,142.59 647.98,142.32 648.07,142.11 648.18,141.98 648.35,141.81 
		648.93,141.81 649.24,141.87 649.45,142.05 649.56,142.3 649.56,142.76 649.56,143.26 649.47,143.54 649.3,143.72 649.11,143.82 
		648.5,143.82 648.22,143.7 648.01,143.53 	"/>
	<polyline class="st23" points="652.21,143.88 652.21,142.18 652.1,141.99 651.84,141.81 650.63,141.81 650.63,143.94 	"/>
	<polygon class="st24" points="632.48,72.53 632.48,71.33 632.19,71.41 631.84,71.44 631.51,71.26 630.99,71.11 630.68,71.11 
		629.44,71.11 629.09,71.19 628.72,71.31 628.25,71.43 627.94,71.59 627.64,71.96 627.64,72.86 627.94,73.04 628.34,73.25 
		628.89,73.4 629.37,73.5 629.97,73.56 630.48,73.56 631.34,73.56 631.73,73.85 631.94,74.1 631.93,74.41 631.64,74.6 631.28,74.75 
		630.86,74.75 630.42,74.75 630.06,74.75 629.56,74.75 629.07,74.63 628.76,74.4 628.49,74.15 628.27,73.9 628.17,73.73 
		627.64,73.75 627.64,75.23 628.1,75.23 628.31,75.23 628.37,75.01 628.62,75.03 629.02,75.23 629.54,75.33 630.06,75.4 
		630.59,75.4 631.18,75.4 631.79,75.21 632.23,75.01 632.6,74.8 632.81,74.48 632.81,73.95 632.81,73.6 632.65,73.33 632.44,73.11 
		632.06,72.91 631.59,72.83 631.09,72.78 630.48,72.74 629.91,72.68 629.32,72.58 628.82,72.41 628.62,72.26 628.62,72.01 
		628.89,71.84 629.14,71.66 629.47,71.56 629.91,71.51 630.99,71.56 631.38,71.68 631.61,71.91 631.91,72.19 632.21,72.54 	"/>
	<polygon class="st24" points="635.87,75.4 635.12,75.05 634.61,74.65 634.28,74.25 634.03,73.9 634.03,72.79 634.3,72.33 
		634.68,71.96 635.15,71.59 635.72,71.26 636.23,71.11 637.89,71.11 638.39,71.23 638.97,71.46 639.29,71.68 639.79,72.04 
		640.02,72.56 640.02,73.81 639.87,74.3 639.56,74.6 639.07,74.96 638.62,75.15 638.19,75.4 	"/>
	<polygon class="st25" points="636.65,74.76 636.07,74.63 635.68,74.36 635.43,74.08 635.32,73.73 635.32,73.45 635.32,72.89 
		635.47,72.51 635.68,72.19 635.98,71.98 636.27,71.74 636.45,71.63 637.45,71.63 637.99,71.88 638.37,72.14 638.6,72.44 
		638.8,72.79 638.8,73.83 638.55,74.18 638.24,74.5 637.89,74.76 	"/>
	<polygon class="st26" points="644.98,71.31 644.98,71.78 645.72,71.78 645.72,73.66 642.98,71.31 640.96,71.31 640.96,71.78 
		641.64,71.79 641.64,74.76 640.96,74.76 640.96,75.15 643.34,75.15 643.28,74.76 642.48,74.76 642.46,72.49 642.76,72.49 
		645.72,75.06 645.72,75.23 646.67,75.23 646.67,71.79 647.37,71.79 647.37,71.31 	"/>
	<polygon class="st26" points="647.99,71.31 647.99,71.8 648.73,71.8 650.39,73.57 650.39,74.78 649.67,74.78 649.67,75.23 
		652.59,75.23 652.59,74.7 651.72,74.7 651.66,73.69 653.55,71.83 654.32,71.83 654.32,71.31 651.9,71.31 651.91,71.77 
		652.45,71.79 652.44,72.04 651.61,72.96 651.15,72.95 650.16,71.87 650.16,71.72 650.75,71.72 650.74,71.31 	"/>
	<polygon class="st27" points="639.03,138.9 638.39,138.63 638.02,138.5 637.49,138.4 636.9,138.4 636.25,138.36 635.71,138.36 
		635.2,138.24 634.62,138.1 634.11,137.94 633.65,137.7 633.25,137.36 633.17,136.96 633.28,136.67 633.66,136.39 634.1,136.16 
		634.62,135.95 634.87,136.1 635.06,136.21 635.41,136.34 635.81,136.5 636.1,136.64 636.42,136.88 636,137.06 635.65,137.17 
		635.67,137.43 636.02,137.43 636.45,137.43 636.87,137.43 637.12,137.43 637.24,137.2 637.43,137.11 637.68,137.11 637.99,137.11 
		638.34,137.15 638.58,137.25 638.81,137.3 639.03,137.43 639.21,137.54 639.21,137.92 639.21,138.9 	"/>
	<polygon class="st28" points="641.72,139.65 643.56,139.03 643.38,138.79 643.02,138.63 642.59,138.5 642.11,138.45 641.72,138.45 
			"/>
	<polygon class="st29" points="634.62,135.95 635.3,135.74 636.06,135.48 636.56,135.31 637.03,135.16 637.62,134.95 638.11,134.8 
		638.56,134.9 638.87,135.01 639.21,135.12 639.21,137.54 638.81,137.3 638.58,137.25 638.34,137.15 637.99,137.11 637.68,137.11 
		637.43,137.11 637.24,137.2 637.12,137.43 636.87,137.43 636.45,137.43 636.02,137.43 635.67,137.43 635.65,137.17 636,137.06 
		636.42,136.88 636.1,136.64 635.81,136.5 635.41,136.34 635.06,136.21 634.87,136.1 	"/>
	<polygon class="st30" points="638.11,134.8 638.6,134.46 638.87,134.34 639.21,134.34 639.21,135.12 638.87,135.01 638.56,134.9 	
		"/>
	<polygon class="st31" points="639.21,135.87 638.66,136.17 638.25,136.33 637.56,136.59 637.03,136.76 636.42,136.88 636,137.06 
		635.65,137.17 635.67,137.43 636.02,137.43 636.45,137.43 636.87,137.43 637.12,137.43 637.24,137.2 637.43,137.11 637.68,137.11 
		637.99,137.11 638.27,136.95 638.4,136.91 638.49,136.89 638.75,136.83 638.95,136.8 	"/>
	<polygon class="st32" points="639.21,137.43 639.21,136.97 639.21,136.45 639,136.6 638.95,136.8 638.75,136.83 638.49,136.89 
		638.27,136.95 637.99,137.11 638.34,137.15 638.58,137.25 638.81,137.3 639.03,137.43 639.21,137.54 	"/>
	<polygon class="st33" points="641.72,138.45 641.72,138.05 642.21,137.95 642.69,137.8 643.23,137.76 643.49,137.54 643.89,137.43 
		644.19,137.38 644.46,137.24 644.68,137.16 645.09,137.11 645.41,137.11 645.86,137.11 646.3,137.17 646.59,137.27 646.95,137.43 
		647.34,137.62 646.86,137.92 646.55,138.04 645.86,138.27 645.38,138.45 644.82,138.64 644.15,138.82 643.56,139.03 643.38,138.79 
		643.02,138.63 642.59,138.5 642.11,138.45 	"/>
	<polygon class="st33" points="641.66,135.95 642.16,136.06 642.8,136.17 643.31,136.34 643.66,136.56 643.34,136.76 642.84,136.89 
		642.31,137.11 641.66,137.35 	"/>
	<polygon class="st34" points="641.72,135.82 642.79,135.61 643.41,135.48 644.19,135.36 644.85,135.29 645.41,135.29 
		646.04,135.35 646.88,135.46 647.52,135.55 648.17,135.87 648.65,136.25 648.82,136.53 648.82,136.84 648.77,137.2 648.53,137.43 
		648.15,137.48 647.73,137.61 647.34,137.62 646.95,137.43 646.59,137.27 646.08,137.14 645.41,137.11 645.53,136.99 645.74,136.91 
		645.98,136.86 646.29,136.77 646.49,136.73 646.57,136.38 646.59,136.27 646.39,136.17 646.21,136.12 645.93,136.12 645.63,136.12 
		645.38,136.17 645.01,136.24 644.68,136.38 644.32,136.53 643.91,136.56 643.66,136.56 643.31,136.34 642.8,136.17 642.16,136.06 
		641.66,135.95 	"/>
	<polygon class="st35" points="639.15,139.05 641.72,139.65 641.66,134.86 641.66,132.66 641.66,131.63 641.66,130.77 
		641.66,130.45 641.66,130.3 641.98,130.3 642.53,130.3 642.75,130.3 642.87,130.44 642.87,130.62 642.87,134.34 643.01,134.59 
		643.18,134.73 643.42,134.73 643.85,134.73 644.29,134.73 644.61,134.62 644.81,134.34 645.08,134.11 645.31,133.79 645.45,133.67 
		645.57,133.47 645.57,133.21 645.57,132.57 645.57,131.67 645.51,131.35 645.34,131.09 645.07,130.74 644.81,130.48 644.53,130.21 
		644.14,129.96 643.72,129.75 643.33,129.57 642.82,129.35 642.36,129.2 641.91,129.03 641.45,128.9 641.02,128.73 640.61,128.62 
		640.25,128.54 639.82,128.47 639.35,128.47 639.15,128.47 639.21,134.34 	"/>
	<path class="st36" d="M573.35,59.25c-0.61-1.95,3.29-4.98,5.07-6.11c3.42-2.18,6.86-2.37,8.44-2.36h21.34
		c1.9,0,3.62,0.77,4.87,2.02c0.28,0.28,2.04,2.1,2.02,4.87c-0.02,2.6-1.61,5.01-4.07,6.28c-3.16-1.2-7.43-2.44-12.58-2.94
		c-3.68-0.36-6.94-0.25-9.63,0.02C576.71,62,573.79,60.66,573.35,59.25z"/>
	<path class="st36" d="M711.78,60.15c0.61-1.95-3.29-4.98-5.07-6.11c-3.42-2.18-6.86-2.37-8.44-2.36h-21.34
		c-1.9,0-3.62,0.77-4.87,2.02c-0.28,0.28-2.04,2.1-2.02,4.87c0.02,2.6,1.61,5.01,4.07,6.28c3.16-1.2,7.43-2.44,12.58-2.94
		c3.68-0.36,6.94-0.25,9.63,0.02C708.42,62.9,711.35,61.56,711.78,60.15z"/>
	<path class="st37" d="M671.23,80.02c1.88-3.63,5.65-5.28,7.4-6.01c7.56-3.17,15.23-0.89,16.97-0.38c5.37,1.59,8.87,4.44,10.74,6.24
		c0.08,0.08,0.08,0.2,0,0.28l-4.75,4.61c-0.01,0.01-0.01,0.01-0.02,0.02c-3.43,2.62-6.79,3.9-8.87,4.54
		c-1.69,0.52-7.26,2.06-14.07,0.83c-3.37-0.61-6.39-1.15-7.83-3.38C669.1,84.15,670.75,80.94,671.23,80.02z"/>
	<path class="st37" d="M613.94,77.92c-1.8-3.63-5.44-5.28-7.12-6.01c-7.27-3.17-14.65-0.89-16.33-0.38
		c-5.3,1.64-8.71,4.59-10.47,6.38c1.57,1.59,3.14,3.17,4.72,4.76c3.3,2.62,6.54,3.91,8.54,4.55c1.62,0.52,6.98,2.06,13.53,0.83
		c3.24-0.61,6.15-1.15,7.54-3.38C616,82.05,614.41,78.85,613.94,77.92z"/>
	<path class="st38" d="M585.8,171.3c0.78-6,2.92-17.76,9.66-30.84c6.31-12.24,13.69-19.92,17.83-23.73c0.6-3.1-0.14-5.9-1.89-7.11
		c-1.62-1.13-3.5-0.46-4-0.27c-27.11,52.19-29,60.96-27.93,62.18c1.38,1.58,3.08,1.46,3.08,1.46
		C583.93,172.89,585.12,171.95,585.8,171.3z"/>
	<path class="st38" d="M695.63,171.3c-0.78-6-2.92-17.76-9.66-30.84c-6.31-12.24-13.69-19.92-17.83-23.73
		c-0.6-3.1,0.14-5.9,1.89-7.11c1.62-1.13,3.5-0.46,4-0.27c27.11,52.19,29,60.96,27.93,62.18c-1.38,1.58-3.08,1.46-3.08,1.46
		C697.5,172.89,696.32,171.95,695.63,171.3z"/>
	<path class="st39" d="M673.78,154.05c-4.87,3.08-15.87,9.12-31.1,9.68c-17.92,0.66-30.93-6.66-35.72-9.68
		c-1.48-0.85-2.34-2.46-2.18-4.09c0.2-2.12,2.01-3.18,2.18-3.27c8.79,1.96,20.15,3.68,33.41,3.68c9.01,0,20.47-0.79,33.41-3.68
		c0.1,0.06,2.11,1.22,2.18,3.55C676.01,151.8,675.16,153.27,673.78,154.05z"/>
	<path class="st38" d="M674.16,47.52c-7.03-0.34-14.3-0.58-21.82-0.7c-15.79-0.26-30.65,0.04-44.46,0.7c-3.41-0.46-5.91-1.35-6-2.35
		c-0.13-1.36,4.3-2.5,6-2.93c8.36-2.13,16.25-1.21,17.18-1.1c9.11,1.06,24.6,1.45,49.09,1.1c4.24,0.05,6.94,1.77,6.82,2.93
		C680.87,46.29,678.07,47.64,674.16,47.52z"/>
	<path class="st38" d="M660.54,54.13c-4.34-1.15-14.28-3.33-26.18-1.94c-3.88,0.45-7.15,1.19-9.77,1.94
		c-2.05,0.08-3.89-0.29-4.32-0.92c-0.55-0.8,0.93-2.3,4.32-2.89c5.89,0.45,10.51,0.26,13.58,0.02c5.92-0.47,9.49-1.42,15.41-1.03
		c3.05,0.2,5.46,0.67,6.95,1.01c2.19-0.08,4.01,0.53,4.36,1.26C665.34,52.48,663.68,53.93,660.54,54.13z"/>
	<path class="st38" d="M653.44,59.51c-6.07,0.66-9.48,0.98-11.44,1.13c-0.58,0.04-2.31,0.16-4.58,0.5c-0.9,0.13-1.64,0.26-2.14,0.35
		c-2.48,0.19-4.77-0.13-5.3-0.99c-0.65-1.06,1.22-3.19,5.3-4.64c3.25,0.92,9.25,2.19,16.39,1.25c2.24-0.29,4.2-0.76,5.86-1.25
		c1.85,0.94,2.87,2.25,2.45,3.05C659.48,59.89,656.66,60.56,653.44,59.51z"/>
	<path class="st40" d="M599.72,69.46c-2.06-0.23-6.18-0.31-10.34,2.41c-1.36,0.89-2.45,1.89-3.31,2.84
		c1.41,6.74,6.28,11.41,11.5,11.41c6.31,0,11.5-5.15,11.5-11.41c0-0.18,0-0.37-0.01-0.55c-0.4-0.5-0.85-0.99-1.37-1.46
		C604.82,70.08,601.62,69.55,599.72,69.46z"/>
	<path class="st40" d="M685.26,71.63c2.06-0.23,6.18-0.32,10.34,2.44c1.36,0.9,2.45,1.92,3.31,2.88
		c-1.41,6.83-6.28,11.57-11.5,11.57c-6.31,0-11.5-5.22-11.5-11.57c0-0.19,0-0.37,0.01-0.56c0.4-0.5,0.85-1,1.37-1.48
		C680.16,72.26,683.35,71.72,685.26,71.63z"/>
	<ellipse class="st41" cx="597.56" cy="76.39" rx="4.35" ry="3.04"/>
	<ellipse class="st41" cx="687.42" cy="76.39" rx="4.35" ry="3.04"/>
	<path class="st36" d="M640.27,118.81c1.93,4.09-1.72,11.22-6.85,13.5c-5.49,2.43-8.94-2.35-16.56-0.61
		c-7.7,1.75-10.77,8.14-11.82,7.36c-1.63-1.2,3.42-18.5,16.97-23.04C628.26,113.93,638,113.98,640.27,118.81z"/>
	<path class="st36" d="M640.88,118.81c-1.93,4.09,1.72,11.22,6.85,13.5c5.49,2.43,8.94-2.35,16.56-0.61
		c7.7,1.75,10.77,8.14,11.82,7.36c1.63-1.2-3.42-18.5-16.97-23.04C652.89,113.93,643.15,113.98,640.88,118.81z"/>
	<path class="st42" d="M576.75,87.8l-28.92-26.76c-0.14-1.5-0.28-2.99-0.41-4.49c7.67,4.35,17.03,11.03,25.43,21.17
		c2.23,2.69,4.17,5.37,5.87,7.96C578.06,86.38,577.4,87.09,576.75,87.8z"/>
	<path class="st42" d="M703.09,87.44c2.66-3.12,4.22-5.97,5.15-7.98c2.89-6.23,2.24-9.98,5.53-14.97c1.86-2.81,4.01-4.67,5.49-5.78
		c0.09,1.77,0.19,3.53,0.28,5.3c-0.5,1.64-1.21,3.94-2.06,6.71c-2.52,8.18-2.81,8.98-3.24,9.9c-1.26,2.63-3.84,6.31-9.79,9.54
		C703.99,89.25,703.54,88.34,703.09,87.44z"/>
	<linearGradient id="SVGID_1_" gradientUnits="userSpaceOnUse" x1="574.941" y1="91.9644" x2="617.8251" y2="91.9644">
		<stop  offset="0" style="stop-color:#FFFFFF"/>
		<stop  offset="0.9925" style="stop-color:#000000;stop-opacity:0.2"/>
	</linearGradient>
	<path class="st43" d="M614.76,101c-11.77,0-23.54,0-35.3,0c-0.79-0.63-3.67-3.08-4.37-7.31c-1-6.09,3.44-10.39,3.83-10.75
		c12.06,0.11,24.11,0.22,36.17,0.33c0.74,1.07,3.12,4.78,2.69,9.92C617.44,97.13,615.62,99.86,614.76,101z"/>
	<linearGradient id="SVGID_2_" gradientUnits="userSpaceOnUse" x1="661.6263" y1="94.2002" x2="704.5104" y2="94.2002">
		<stop  offset="0" style="stop-color:#FFFFFF"/>
		<stop  offset="0.9925" style="stop-color:#000000;stop-opacity:0.2"/>
	</linearGradient>
	<path class="st44" d="M701.45,103.23c-11.77,0-23.54,0-35.3,0c-0.79-0.63-3.67-3.08-4.37-7.31c-1-6.09,3.44-10.39,3.83-10.75
		c12.06,0.11,24.11,0.22,36.17,0.33c0.74,1.07,3.12,4.78,2.69,9.92C704.13,99.36,702.3,102.1,701.45,103.23z"/>
	<path class="st42" d="M617.77,93.18c3.22-2,10.91-6.19,21.58-6.37c11.1-0.19,19.18,4.07,22.42,6.02c0,1.03,0,2.06-0.01,3.09
		c-4.57-1.84-12.39-4.33-22.37-4.28c-9.89,0.05-17.63,2.57-22.17,4.43C617.41,95.1,617.59,94.14,617.77,93.18z"/>
	<path class="st45" d="M637.63,119.4"/>
	<path class="st45" d="M637.38,114.37"/>
	<polyline class="st46" points="183.26,175.35 182.74,175.35 181.97,175.22 181.26,175.03 180.8,174.79 180.31,174.48 179.9,174.12 
		179.66,173.75 179.41,173.39 179.41,172.02 179.41,167.98 179.41,147.59 179.41,121.21 179.41,99.45 179.41,73.59 179.41,41.08 
		179.41,40.58 179.41,40.1 179.41,39.86 179.59,39.5 179.86,39.17 180.17,38.77 180.49,38.52 180.91,38.27 181.23,38.16 
		181.6,38.02 182.08,37.9 182.44,37.82 182.8,37.82 183.04,37.77 183.26,37.77 183.45,37.77 183.55,37.77 183.25,37.89 
		182.86,38.19 182.66,38.55 182.52,39.05 182.52,39.46 182.52,40.33 182.52,49.46 182.52,60.98 182.52,79.31 182.52,88.02 
		182.52,111.17 182.52,134.41 182.52,154.37 182.52,174.53 182.8,174.94 183.26,175.35 	"/>
	<polyline class="st47" points="184.94,175.53 184.49,175.71 183.92,175.62 183.26,175.35 182.8,174.94 182.52,174.53 
		182.52,173.41 182.52,139.13 182.52,104.15 182.52,69.84 182.52,41.24 182.52,40.1 182.52,39.46 182.52,39.05 182.66,38.55 
		182.86,38.19 183.25,37.89 183.73,37.69 184.18,37.57 184.6,37.57 185.17,37.63 184.92,37.89 184.68,38.23 184.46,38.51 
		184.41,38.74 184.33,39.02 184.33,39.44 184.33,39.78 184.33,40.44 184.33,48.78 184.33,55.83 184.33,75.29 184.33,103.99 
		184.33,142.07 184.33,144.5 184.33,145.04 184.4,145.3 184.5,145.43 184.62,145.63 184.77,145.78 184.85,146.05 184.86,147.26 
		184.86,167.49 184.86,168.26 184.81,168.54 184.6,168.73 184.46,168.95 184.33,169.4 184.33,169.73 184.33,170.38 184.33,173.62 
		184.33,174.37 184.4,174.66 184.52,174.89 184.64,175.1 184.76,175.32 184.94,175.53 	"/>
	<polyline class="st48" points="190.14,176.72 189.66,176.82 189.31,176.77 188.92,176.72 188.53,176.6 188.15,176.45 
		187.84,176.29 187.51,175.97 187.31,175.73 187.21,175.4 187.14,174.97 187.14,171.47 187.14,159.5 187.14,149.56 187.14,121.61 
		187.14,79.48 187.14,44.98 187.14,38.77 187.14,38.33 187.24,38.02 187.32,37.68 187.5,37.37 187.74,37.02 187.93,36.84 
		188.12,36.73 188.33,36.68 188.57,36.56 188.78,36.54 188.98,36.54 189.26,36.5 189.55,36.5 189.66,36.5 189.8,36.5 190.05,36.54 
		189.76,36.76 189.54,37 189.37,37.24 189.22,37.56 189.15,37.85 189.11,38.23 189.1,38.65 189.1,39.05 189.1,46.41 189.1,68.54 
		189.1,95.19 189.1,118.98 189.1,148.35 189.1,173.21 189.1,175.32 189.1,175.63 189.17,175.84 189.36,176.1 189.52,176.24 
		190.14,176.72 	"/>
	<path class="st22" d="M189.26,37.42"/>
	<path class="st22" d="M189.42,37.16"/>
	<path class="st22" d="M188.93,36.12"/>
	<polygon class="st49" points="187.97,176.34 187.68,176.34 187.21,176.25 186.67,176.1 186.25,176 185.79,175.84 185.49,175.73 
		185.16,175.64 184.94,175.53 184.76,175.32 184.64,175.1 184.52,174.89 184.4,174.66 184.33,174.37 184.33,169.73 184.33,169.4 
		184.46,168.95 184.6,168.73 184.81,168.54 184.86,168.26 184.86,167.49 184.85,166.13 184.86,165.6 184.84,163.21 184.86,160.5 
		184.86,156.78 184.86,153.5 184.86,149.2 184.85,146.05 184.77,145.78 184.62,145.63 184.5,145.43 184.4,145.3 184.33,145.04 
		184.33,144.5 184.33,142.77 184.33,140.72 184.33,126.78 184.33,99.24 184.33,75.29 184.33,59.68 184.33,43.77 184.33,39.78 
		184.33,39.02 184.41,38.74 184.46,38.51 184.68,38.23 184.92,37.89 185.17,37.63 185.47,37.39 185.84,37.2 186.18,37.13 
		186.66,36.98 187.14,36.9 187.53,36.86 187.74,36.86 187.87,36.9 187.68,37.11 187.57,37.26 187.43,37.49 187.36,37.61 187.3,37.8 
		187.26,37.95 187.21,38.1 187.17,38.23 187.14,38.45 187.14,38.6 187.14,38.94 187.14,47.63 187.14,62.28 187.14,82.3 
		187.14,111.72 187.14,145.69 187.14,164.06 187.14,174.45 187.16,175.12 187.24,175.5 187.4,175.83 187.59,176.04 	"/>
	<polyline class="st50" points="192.97,177.25 192.7,177.39 191.99,177.39 191.29,177.25 190.7,176.99 190.14,176.72 189.61,176.33 
		189.25,175.98 189.1,175.74 189.1,174.74 189.1,173.81 189.1,145.91 189.1,99.91 189.1,38.32 189.16,37.71 189.26,37.42 
		189.42,37.16 189.67,36.83 190.05,36.54 190.49,36.34 191.04,36.17 191.54,36 192.11,35.86 192.6,35.73 192.97,35.66 193.2,35.69 
		192.31,36.73 192.22,45.24 192.22,80.95 192.22,104.31 192.22,158.85 192.34,176.63 192.97,177.25 	"/>
	<polyline class="st51" points="190.86,43.71 190.86,43.28 190.86,42.96 190.86,42.72 190.86,42.57 190.83,42.45 190.76,42.36 
		190.7,42.31 190.63,42.31 190.6,42.39 190.6,42.49 190.6,42.64 190.6,42.83 190.6,43.01 190.6,43.22 190.6,43.43 190.6,43.58 
		190.6,43.68 190.57,43.76 190.49,43.8 190.41,43.76 190.37,43.66 190.37,43.55 190.37,43.29 190.37,42.98 190.37,42.75 
		190.37,42.56 190.37,42.31 	"/>
	<polygon class="st51" points="190.92,46.33 190.92,45.95 190.92,45.66 190.92,45.44 190.92,45.35 190.89,45.2 190.86,45.13 
		190.79,45.06 190.71,44.98 190.61,44.98 190.51,44.98 190.37,44.98 190.31,45.1 190.26,45.23 190.24,45.4 190.24,45.51 
		190.24,45.79 190.24,46.19 190.24,46.3 190.24,46.47 190.29,46.72 190.37,46.86 190.55,46.89 190.73,46.81 190.86,46.73 
		190.92,46.61 	"/>
	<polyline class="st51" points="190.33,47.94 190.58,47.94 190.76,47.94 190.92,47.94 190.97,48.08 190.97,48.24 190.84,48.43 
		190.33,49.2 190.28,49.32 190.28,49.48 190.33,49.61 190.51,49.61 190.66,49.61 190.81,49.61 190.97,49.61 	"/>
	<polyline class="st51" points="190.97,51.03 190.82,51.17 190.73,51.29 190.63,51.39 190.54,51.53 190.54,51.66 190.54,51.78 
		190.63,51.93 190.75,52.04 190.88,52.14 190.97,52.19 	"/>
	<polyline class="st51" points="190.15,51.67 190.28,51.67 190.42,51.67 190.54,51.66 	"/>
	<polyline class="st52" points="191.15,159.44 191.15,160.17 191.15,161.23 191.15,162.62 191.1,162.82 190.98,162.92 
		190.83,162.92 190.72,162.92 190.67,162.82 190.67,162.46 190.67,162.1 190.67,159.84 190.64,159.67 190.57,159.55 190.48,159.44 
		190.39,159.38 190.28,159.33 190.15,159.29 190.04,159.29 	"/>
	<polyline class="st52" points="191.12,167.88 191.12,167.11 191.12,166.59 191.12,166.02 191.08,165.83 190.98,165.73 
		190.86,165.68 190.7,165.68 190.49,165.68 190.28,165.68 190.16,165.61 190.1,165.47 190.1,165.22 190.1,164.85 190.1,164.62 
		190.1,164.06 	"/>
	<polyline class="st52" points="189.66,171.56 190.98,171.56 191.07,171.56 191.07,171.23 190.37,168.69 190.32,168.52 
		190.26,168.38 190.19,168.29 190.06,168.29 190.05,168.46 190.05,168.59 190.05,168.82 190.1,172.31 	"/>
	<circle class="st53" cx="254.95" cy="85.31" r="8.89"/>
	<circle class="st54" cx="257.33" cy="86.69" r="10.27"/>
	<circle class="st54" cx="260.49" cy="89.72" r="11.23"/>
	<circle class="st54" cx="252.92" cy="89" r="11.23"/>
	<circle class="st55" cx="259.05" cy="88.41" r="11.99"/>
	<path class="st54" d="M192.22,175.79v-48.51c0-4.39,0-18.35,0-24.85c0-0.87,0-2.02,0-3.11c0-0.33,0-0.65,0-0.96c0-1,0-1.86,0-2.29
		c0-0.35,0-0.7,0-1.05c0-11.89,0-23.79,0-35.68v-21.3v-0.4v-0.35v-0.28l0.1-0.26l0.13-0.2l0.12-0.19l0.13-0.18l0.2-0.17l0.16-0.15
		l0.15-0.13l0.18-0.13l0.17-0.13h0.47h7.75h4.03h6.25h6.19h5.02h5.93h4.5h4.64h3.54h5.21h4.9h5.97h4.15h4.13h4.76h5.01h6.34h19.34
		h20.94h17.8h3.35h1h0.72h0.38l0.32,0.04l0.25,0.11l0.29,0.2l0.15,0.15l0.21,0.17l0.07,0.09l0.26,0.25l0.15,0.2l0.22,0.25l0.13,0.18
		v0.41v5.39v11.64V65v14.43v25.43v18.76v16.37v15.72v14.63v5.45v0.24l-0.06,0.25l-0.13,0.22l-0.13,0.17l-0.14,0.16l-0.14,0.24
		l-0.18,0.17l-0.16,0.13l-0.25,0.12l-0.26,0.14l-0.39,0.12h-15.66h-16.24h-18.81h-15.68h-16.8h-20.09H199.1h-5.05l-0.45-0.17
		l-0.18-0.05l-0.26-0.16l-0.33-0.23l-0.28-0.26l-0.21-0.25l-0.12-0.16v-0.34V175.79z"/>
	<circle class="st56" cx="255.14" cy="80.48" r="0.81"/>
	<polygon class="st57" points="192.51,94.79 203.06,88.82 211.44,82.87 217.06,77.77 221.76,73.68 227.38,68.18 233.81,61.52 
		237.59,55.1 242.52,47.94 244.82,43.06 246.77,37.57 247.07,35.43 193.55,35.43 192.31,36.73 	"/>
	<path class="st57" d="M302.61,35.43c0,0-1.24-1.46,1.57,9.55s1.12,4.64,1.12,4.64s0.62,1.19,2.84,5.46s-0.88-2.02,3,5.78
		c3.88,7.8,4.72,8.76,4.72,8.76l3.14,3.59l2.92,3.14l3.59,3.31l2.92,3.2l2.92,4.05l2.47,2.7l3.14,2.7l2.92,1.12l3.14,1.58l4.86,1.56
		V37.5l-1.73-2.02L302.61,35.43z"/>
	<polygon class="st58" points="267.6,99.31 267.6,103.85 267.6,108.47 267.6,112.28 267.6,112.78 267.7,112.9 267.87,112.97 
		268.07,113.04 268.32,113.13 268.66,113.29 268.92,113.37 269.25,113.42 269.54,113.53 269.81,113.64 270.14,113.72 270.45,113.78 
		270.75,113.82 270.94,113.82 271.04,113.7 271.04,113.51 271.04,112.65 271.04,111.35 271.04,110.51 271.04,109.65 271.04,108.66 
		271.04,107.28 271.04,105.93 271.04,104.72 271.04,103.31 271.04,102.43 271.11,102.21 271.21,102.05 271.36,101.94 271.48,101.89 
		271.59,101.89 271.73,101.88 271.82,101.89 271.92,101.92 272.03,102 272.09,102.1 272.16,102.25 272.23,102.43 272.23,102.59 
		272.23,103.47 272.23,104.7 272.23,105.78 272.23,106.9 272.23,107.27 272.37,107.41 272.55,107.52 272.72,107.58 272.9,107.63 
		273.09,107.7 273.27,107.74 273.57,107.83 273.8,107.88 273.99,107.88 274.11,107.88 274.31,107.88 274.47,107.89 274.71,107.87 
		274.88,107.81 275.05,107.66 275.25,107.51 275.4,107.35 275.54,107.23 275.68,107.1 275.81,106.88 275.91,106.67 276.03,106.45 
		276.09,106.21 276.16,105.93 276.23,105.72 276.23,105.46 276.23,105.29 276.23,105.05 276.23,104.73 276.23,104.46 276.23,104.22 
		276.23,103.98 276.17,103.73 276.09,103.57 276,103.4 275.91,103.18 275.78,102.98 275.65,102.76 275.54,102.6 275.43,102.43 
		275.22,102.16 275.02,101.92 274.78,101.72 274.38,101.45 274.02,101.29 273.69,101.04 273.32,100.93 272.49,100.59 271.98,100.44 
		271.36,100.27 270.58,100.01 269.93,99.77 269.37,99.57 268.91,99.45 268.64,99.44 268.39,99.42 268.1,99.4 267.97,99.4 	"/>
	<path class="st52" d="M267.6,111.82"/>
	<path class="st52" d="M267.37,107.27"/>
	<polygon class="st58" points="267.6,111.82 267.37,111.9 267.16,112.04 267.06,112.1 266.79,112.13 266.53,112.13 266.28,112.13 
		265.91,112.13 265.53,112.13 264.95,112.13 264.34,112.13 263.87,112.09 263.44,112.08 263.2,112.01 262.89,111.98 262.57,111.98 
		262.27,111.89 261.98,111.82 261.7,111.73 261.45,111.65 261.18,111.55 260.96,111.44 260.72,111.31 260.5,111.19 260.32,111.03 
		260.2,110.93 260.13,110.81 260.13,110.66 260.08,110.51 260.08,110.31 260.18,110.17 260.33,110.04 260.55,109.87 260.78,109.74 
		261.15,109.55 261.52,109.39 261.99,109.23 262.57,109.02 262.98,108.89 263.5,108.72 263.98,108.55 264.54,108.37 265.19,108.16 
		265.8,107.96 266.26,107.85 266.78,107.67 267.12,107.58 267.37,107.52 267.6,107.48 267.6,107.79 267.6,108.25 267.6,108.72 
		267.6,109.07 267.6,109.21 267.47,109.28 267.37,109.33 267.2,109.38 267.03,109.46 266.8,109.57 266.52,109.66 266.16,109.75 
		265.86,109.87 265.39,110 265.1,110.08 264.81,110.14 264.59,110.25 264.34,110.31 264.08,110.4 263.87,110.46 263.69,110.54 
		263.57,110.63 263.48,110.74 263.49,110.85 263.54,110.97 263.69,111.06 263.84,111.16 264.06,111.18 264.33,111.18 264.58,111.13 
		264.84,111.07 265.31,110.92 265.65,110.86 266.06,110.72 266.45,110.6 266.8,110.45 267.13,110.31 267.3,110.29 267.6,110.21 
		267.6,110.45 267.6,110.8 267.6,111.28 	"/>
	<polygon class="st58" points="271.77,108.9 272.42,108.64 273.04,108.53 273.62,108.38 274.09,108.29 274.54,108.29 275.04,108.21 
		275.37,108.21 275.83,108.21 276.23,108.21 276.64,108.27 276.95,108.29 277.38,108.33 277.83,108.36 278.36,108.47 278.68,108.53 
		279.03,108.7 279.32,108.86 279.6,109.03 279.96,109.14 280.24,109.31 280.42,109.53 280.56,109.68 280.63,109.93 280.63,110.11 
		280.54,110.31 280.4,110.54 280.24,110.69 280.03,110.88 279.82,111.02 279.52,111.18 279.29,111.31 278.92,111.48 278.6,111.59 
		278.23,111.71 277.9,111.79 277.59,111.88 277.23,111.94 276.82,112.04 276.38,112.2 275.9,112.39 275.4,112.55 274.9,112.71 
		274.44,112.86 273.84,113.04 273.23,113.25 272.7,113.42 272.12,113.55 271.75,113.55 271.4,113.61 271.04,113.61 271.04,112.83 
		271.04,112.32 271.27,112.18 271.62,112.07 272.04,111.93 272.61,111.77 273.27,111.57 273.69,111.43 274.23,111.2 274.89,110.91 
		275.49,110.6 276.03,110.47 276.38,110.35 276.79,110.24 277.01,110.14 277.27,110.03 277.42,109.93 277.43,109.81 277.39,109.68 
		277.22,109.59 277.06,109.56 276.71,109.5 276.43,109.49 276.23,109.52 275.83,109.61 275.52,109.67 275.09,109.81 274.71,109.85 
		274.31,109.99 273.95,110.15 273.62,110.26 273.23,110.37 272.94,110.5 272.49,110.69 272.12,110.85 271.83,110.91 271.61,110.96 
		271.04,111.09 271.04,110.6 271.04,110.02 271.04,109.51 271.04,109.27 271.04,109.07 271.24,109.01 271.51,108.95 	"/>
	<ellipse class="st59" cx="246.24" cy="79.66" rx="13.83" ry="21.15"/>
	<ellipse class="st59" cx="290.27" cy="78.67" rx="13.83" ry="21.15"/>
	<polygon class="st60" points="217.06,77.77 230.62,77.77 230.62,82.13 212.25,82.13 	"/>
	<rect x="261.25" y="77.77" class="st60" width="13.96" height="4.35"/>
	<polygon class="st60" points="305.29,77.77 323.47,77.77 327.77,82.13 305.29,82.13 	"/>
	<polygon class="st61" points="239.42,54.52 241.28,52.87 243.81,50.88 245.34,50.31 248.13,49.8 251.6,49.8 253.67,49.8 
		256.51,49.8 257.96,49.8 258.4,49.8 259.17,50.31 259.17,51.46 259.17,52.76 259.17,53.97 258.4,54.52 258.24,55.07 254.43,55.61 
		253.02,55.61 251.27,55.61 249.29,55.61 246.22,55.61 243.92,55.61 241.72,55.61 240.95,55.61 240.18,55.61 	"/>
	<polygon class="st61" points="280.96,53.48 282.82,51.83 285.35,49.84 286.88,49.27 289.68,48.76 293.14,48.76 295.21,48.76 
		298.05,48.76 299.5,48.76 299.94,48.76 300.71,49.27 300.71,50.42 300.71,51.72 300.71,52.93 299.94,53.48 299.78,54.03 
		295.97,54.57 294.56,54.57 292.81,54.57 290.83,54.57 287.76,54.57 285.46,54.57 283.26,54.57 282.49,54.57 281.73,54.57 	"/>
	<polygon class="st62" points="256.69,58.19 258.12,57.26 259.38,56.84 260.39,56.42 261.49,56.42 262.24,56.42 263.17,56.42 
		264.43,56.76 265.36,56.93 266.92,56.93 267.97,56.84 269.65,56.76 271.08,55.92 272.35,55.5 274.03,55.08 275.21,55.08 
		276.14,55.08 277.31,55.58 278.49,56.17 279.25,56.63 279.67,57.18 277.31,56.63 276.05,56.25 275.04,56.17 273.19,56.63 
		272.18,57.26 270.92,57.63 269.32,58.19 267.46,58.19 265.36,58.19 264.1,57.63 262.5,57.63 261.65,57.63 260.56,57.63 
		259.46,58.19 258.45,58.19 	"/>
	<polygon class="st62" points="256.69,62.32 258.12,61.4 259.38,60.97 260.39,60.55 261.49,60.55 262.24,60.55 263.17,60.55 
		264.43,60.89 265.36,61.06 266.92,61.06 267.97,60.97 269.65,60.89 271.08,60.05 272.35,59.63 274.03,59.21 275.21,59.21 
		276.14,59.21 277.31,59.71 278.49,60.3 279.25,60.76 279.67,61.31 277.31,60.76 276.05,60.39 275.04,60.3 273.19,60.76 
		272.18,61.4 270.92,61.76 269.32,62.32 267.46,62.32 265.36,62.32 264.1,61.76 262.5,61.76 261.65,61.76 260.56,61.76 
		259.46,62.32 258.45,62.32 	"/>
	<polygon class="st63" points="246.14,111.93 244.01,112.99 241.71,114.65 239.82,116.74 237.53,119.05 235.63,121.79 
		233.74,124.53 231.69,127.87 229.56,130.87 228.22,132.78 226.65,136.24 225.08,139.06 224.14,142.69 223.36,145.71 225.64,141.46 
		227.81,138.33 230.29,133.96 231.87,131.14 233.24,128.43 235.73,125.04 237.62,121.98 239.75,119.63 241.48,116.85 	"/>
	<polygon class="st63" points="316.77,143.07 316.28,140.93 315.26,138.43 313.75,136.1 312.13,133.37 310.01,130.81 307.89,128.25 
		305.24,125.34 302.94,122.49 301.46,120.68 298.59,118.12 296.32,115.79 293.13,113.68 290.48,111.93 293.93,115.37 296.35,118.3 
		299.87,121.95 302.14,124.28 304.35,126.4 306.94,129.69 309.36,132.37 311.06,134.99 313.25,137.43 	"/>
	<polygon class="st64" points="245.36,114.6 244.51,115.05 244.18,115.61 244.18,116.17 244.18,117.07 243.73,118.54 243.45,119.94 
		243.11,121.85 243.11,124.49 242.55,127.25 242.55,128.99 242.55,133.55 242.83,137.82 243.28,140.12 243.95,142.43 244.63,144.79 
		246.65,148.61 247.77,150.13 248.45,151.31 249.35,151.76 248.95,148.84 248.95,147.66 249.35,146.87 250.42,149.96 252.22,153.78 
		253.96,156.09 255.48,157.83 257.05,159.41 258.23,160.25 258.74,160.25 258.74,158.96 258.34,157.16 258.29,156.26 259.69,158.96 
		260.87,160.53 262,161.65 263.35,162.89 264.98,163.9 266.49,164.86 267.62,165.42 268.7,165.82 269.02,165.82 269.81,165.42 
		271.89,164.24 273.8,163.17 275.1,162.16 276.45,160.76 277.68,159.29 278.69,157.55 279.26,156.31 279.26,157.61 278.92,159.18 
		278.64,160.14 278.92,160.42 279.65,160.14 280.27,159.35 282.18,157.72 283.7,156.03 284.71,154.63 285.89,152.66 286.73,150.75 
		287.52,148.56 288.03,146.93 288.03,147.99 288.42,149.29 288.42,150.58 287.97,151.93 288.42,151.82 289.15,151.25 290.22,149.74 
		291.34,147.71 292.58,145.8 293.14,143.95 293.99,141.03 294.58,137.4 294.58,135.09 294.76,130.97 294.49,125.99 294.18,123.63 
		293.31,118.92 292.82,116.83 292.45,115.61 291.5,114.6 290.87,114.6 	"/>
	<ellipse class="st65" cx="246.06" cy="78.67" rx="11.11" ry="16.35"/>
	<polygon class="st66" points="235.23,75 236.98,69.24 239.48,65.49 241.33,63.87 243.9,62.63 246.06,62.32 247.8,62.52 
		249.69,63.21 250.5,63.68 251.69,64.58 252.92,65.81 253.7,66.8 254.99,68.94 255.76,70.7 256.26,72.17 256.59,73.43 256.59,74.13 
		256.59,74.6 256.89,75 	"/>
	<ellipse class="st65" cx="290.27" cy="78.67" rx="11.11" ry="16.35"/>
	<polygon class="st66" points="279.44,75 281.19,69.24 283.69,65.49 285.54,63.87 288.11,62.63 290.27,62.32 292.02,62.52 
		293.9,63.21 294.71,63.68 295.9,64.58 297.13,65.81 297.91,66.8 299.2,68.94 299.98,70.7 300.47,72.17 300.8,73.43 300.8,74.13 
		300.8,74.6 301.1,75 	"/>
	<circle class="st67" cx="252.6" cy="85.31" r="3.67"/>
	<circle class="st68" cx="254.4" cy="86.74" r="1.04"/>
	<circle class="st67" cx="296.81" cy="85.31" r="3.67"/>
	<circle class="st68" cx="298.62" cy="86.74" r="1.04"/>
	<ellipse class="st69" cx="232.29" cy="99.23" rx="2.46" ry="4.44"/>
	<ellipse class="st69" cx="228.76" cy="111.82" rx="2.46" ry="4.44"/>
	<ellipse class="st69" cx="303.62" cy="99.23" rx="2.46" ry="4.44"/>
	<ellipse class="st69" cx="307.75" cy="109.81" rx="2.46" ry="4.44"/>
	<ellipse class="st69" cx="225.13" cy="124.41" rx="2.46" ry="4.44"/>
	<ellipse class="st69" cx="221.59" cy="137" rx="2.46" ry="4.44"/>
	<ellipse class="st69" cx="312.66" cy="120.7" rx="2.46" ry="4.44"/>
	<ellipse class="st69" cx="316.79" cy="131.28" rx="2.46" ry="4.44"/>
</g>
<g id="hands">
	<g>
		<path class="st70" d="M93.42,419.93c-1.56,0-3.09-0.22-4.53-0.66c-11.99-3.61-18.92-21.63-19.51-50.75
			c-0.59-29.3,5.34-66.25,16.7-104.04c10.64-35.37,25.06-67.95,40.6-91.74c15.37-23.52,30.49-36.47,42.59-36.47
			c1.56,0,3.09,0.22,4.53,0.66c11.99,3.61,18.92,21.63,19.51,50.75c0.59,29.3-5.34,66.25-16.7,104.04
			c-10.64,35.37-25.06,67.95-40.6,91.74C120.65,406.98,105.52,419.93,93.42,419.93C93.42,419.93,93.42,419.93,93.42,419.93z"/>
		<path d="M169.26,136.79c1.51,0,2.99,0.21,4.39,0.63c5.86,1.76,10.51,7.11,13.81,15.88c3.26,8.67,5.06,20.24,5.35,34.4
			c0.59,29.25-5.33,66.14-16.68,103.88c-10.62,35.33-25.02,67.86-40.54,91.61c-15.27,23.37-30.25,36.25-42.17,36.25
			c-1.51,0-2.99-0.21-4.39-0.63c-5.86-1.76-10.51-7.11-13.81-15.88c-3.26-8.67-5.06-20.24-5.35-34.4
			c-0.59-29.25,5.33-66.14,16.68-103.88c10.62-35.33,25.02-67.86,40.54-91.61C142.36,149.66,157.34,136.79,169.26,136.79
			 M169.26,135.79c-25.26,0-61.54,55.01-83.66,128.57c-23.53,78.23-22.12,147.81,3.14,155.4c1.51,0.45,3.07,0.68,4.68,0.68
			c25.26,0,61.54-55.01,83.66-128.57c23.53-78.23,22.12-147.81-3.14-155.4C172.43,136.01,170.87,135.79,169.26,135.79L169.26,135.79
			z"/>
	</g>
	<g>
		<path class="st71" d="M174.94,155.27c-0.52,0-1.05-0.04-1.56-0.12c-4.59-0.74-8.4-4.7-10.73-11.14
			c-2.37-6.54-2.92-14.83-1.54-23.34c2.62-16.26,11.82-28.99,20.94-28.99c0.52,0,1.05,0.04,1.56,0.12c4.59,0.74,8.4,4.7,10.73,11.14
			c2.37,6.54,2.91,14.83,1.54,23.34C193.25,142.53,184.05,155.27,174.94,155.27z"/>
		<path d="M182.04,91.16v1h0c0.49,0,0.99,0.04,1.48,0.12c4.4,0.71,8.07,4.55,10.34,10.82c2.34,6.46,2.88,14.67,1.52,23.09
			c-2.59,16.02-11.57,28.57-20.45,28.57c-0.5,0-0.99-0.04-1.48-0.12c-4.4-0.71-8.07-4.55-10.34-10.82
			c-2.34-6.46-2.88-14.67-1.52-23.09c2.59-16.02,11.57-28.57,20.45-28.57L182.04,91.16 M182.04,91.16
			c-9.35,0-18.72,12.63-21.43,29.41c-2.87,17.77,2.81,33.46,12.69,35.06c0.55,0.09,1.09,0.13,1.64,0.13
			c9.35,0,18.72-12.63,21.43-29.41c2.87-17.77-2.81-33.46-12.69-35.06C183.14,91.21,182.59,91.16,182.04,91.16L182.04,91.16z"/>
	</g>
	<g>
		<path class="st70" d="M266.42,419.88c-1.56,0-3.09-0.22-4.53-0.66c-24.96-7.51-26.22-76.94-2.81-154.78
			c10.64-35.37,25.06-67.95,40.6-91.74c15.37-23.52,30.49-36.47,42.59-36.47c1.56,0,3.09,0.22,4.53,0.66
			c11.99,3.61,18.92,21.63,19.51,50.75c0.59,29.3-5.34,66.25-16.7,104.03c-10.64,35.37-25.06,67.95-40.6,91.74
			C293.64,406.93,278.51,419.88,266.42,419.88C266.42,419.88,266.42,419.88,266.42,419.88z"/>
		<path d="M342.26,136.74c1.51,0,2.99,0.21,4.39,0.63c5.86,1.76,10.51,7.11,13.81,15.88c3.26,8.67,5.06,20.24,5.35,34.4
			c0.59,29.25-5.33,66.14-16.68,103.88c-10.62,35.33-25.02,67.86-40.54,91.61c-15.27,23.37-30.25,36.25-42.17,36.25
			c-1.51,0-2.99-0.21-4.39-0.63c-5.86-1.76-10.51-7.11-13.81-15.88c-3.26-8.67-5.06-20.24-5.35-34.4
			c-0.59-29.25,5.33-66.14,16.68-103.88c10.62-35.33,25.02-67.86,40.54-91.61C315.36,149.61,330.34,136.74,342.26,136.74
			 M342.26,135.74c-25.26,0-61.54,55.01-83.66,128.57c-23.53,78.23-22.12,147.81,3.14,155.4c1.51,0.45,3.07,0.68,4.68,0.68
			c25.26,0,61.54-55.01,83.66-128.57c23.53-78.23,22.12-147.81-3.14-155.4C345.43,135.96,343.86,135.74,342.26,135.74L342.26,135.74
			z"/>
	</g>
	<g>
		<path class="st71" d="M345.27,157.05c-0.52,0-1.05-0.04-1.56-0.12c-4.59-0.74-8.4-4.7-10.73-11.14
			c-2.37-6.54-2.91-14.83-1.54-23.34c2.62-16.26,11.82-28.99,20.94-28.99c0.52,0,1.05,0.04,1.56,0.12
			c9.59,1.55,15.09,17.02,12.27,34.48C363.58,144.31,354.38,157.05,345.27,157.05z"/>
		<path d="M352.38,92.95v1h0c0.49,0,0.99,0.04,1.48,0.12c9.31,1.5,14.63,16.72,11.86,33.91c-2.59,16.02-11.57,28.57-20.45,28.57
			c-0.5,0-0.99-0.04-1.48-0.12c-4.4-0.71-8.07-4.55-10.34-10.82c-2.34-6.46-2.88-14.67-1.52-23.09
			c2.59-16.02,11.57-28.57,20.45-28.57L352.38,92.95 M352.38,92.95c-9.35,0-18.72,12.63-21.43,29.41
			c-2.87,17.77,2.81,33.46,12.69,35.06c0.55,0.09,1.09,0.13,1.64,0.13c9.35,0,18.72-12.63,21.43-29.41
			c2.87-17.77-2.81-33.46-12.69-35.06C353.47,92.99,352.92,92.95,352.38,92.95L352.38,92.95z"/>
	</g>
</g>
</svg>
