<svg xmlns="http://www.w3.org/2000/svg" viewBox="0 0 853 301.55"><defs><style>.cls-1{fill:#a47449;}.cls-1,.cls-2{stroke:#654321;stroke-width:5px;}.cls-1,.cls-10,.cls-11,.cls-12,.cls-13,.cls-14,.cls-15,.cls-16,.cls-17,.cls-18,.cls-19,.cls-2,.cls-20,.cls-21,.cls-22,.cls-23,.cls-3,.cls-33,.cls-34,.cls-35,.cls-36,.cls-37,.cls-38,.cls-39,.cls-4,.cls-40,.cls-41,.cls-42,.cls-43,.cls-5,.cls-6,.cls-7,.cls-8,.cls-9{stroke-miterlimit:10;}.cls-2{fill:#654321;}.cls-3{fill:#696969;stroke-width:3px;}.cls-3,.cls-4,.cls-5{stroke:#a9a9a9;}.cls-4{fill:#8bffbc;}.cls-5{fill:#2effc1;}.cls-10,.cls-11,.cls-12,.cls-13,.cls-14,.cls-15,.cls-16,.cls-17,.cls-18,.cls-19,.cls-20,.cls-21,.cls-22,.cls-23,.cls-33,.cls-34,.cls-35,.cls-36,.cls-38,.cls-42,.cls-6,.cls-7,.cls-8,.cls-9{stroke:#000;}.cls-7{fill:#afaeb2;}.cls-8{fill:#8e8d91;}.cls-9{fill:#86d6da;}.cls-10,.cls-11,.cls-20,.cls-21,.cls-22,.cls-23,.cls-9{stroke-width:0.5px;}.cls-10{fill:#868589;}.cls-11{fill:#98d4d9;}.cls-12{fill:#acaeb1;}.cls-13{fill:#5cb7a4;}.cls-13,.cls-14,.cls-15,.cls-16,.cls-17,.cls-18,.cls-38{stroke-width:0.25px;}.cls-14{fill:#8a898d;}.cls-15{fill:#73b5a5;}.cls-16{fill:#87868a;}.cls-17{fill:#82b3a6;}.cls-18{fill:#8d8c90;}.cls-19,.cls-20,.cls-29,.cls-38,.cls-39{fill:none;}.cls-21{fill:#555358;}.cls-22{fill:#b7b7b9;}.cls-23{fill:#505150;}.cls-24{fill:#f3ab40;}.cls-25{fill:#e9ad55;}.cls-26{fill:#43967f;}.cls-27{fill:#245ea9;}.cls-28{fill:#adaeb1;}.cls-30{fill:#599480;}.cls-31{fill:#2964bf;}.cls-32{fill:#c6332a;}.cls-33{fill:#26272a;}.cls-34{fill:#3e3f44;}.cls-35{fill:#52545a;}.cls-36{fill:#282a2e;}.cls-37{fill:#2b2c31;}.cls-37,.cls-39,.cls-40,.cls-41,.cls-43{stroke:#000817;}.cls-40{fill:#00b98f;}.cls-41{fill:#56585d;}.cls-42{fill:#fff;}.cls-43{fill:#1f2023;}.cls-44{fill:#546c7b;}.cls-45{fill:#efc9b9;}</style></defs><g id="Layer_1" data-name="Layer 1"><polygon class="cls-1" points="2.5 2.5 2.5 298.71 850.5 298.71 850.5 2.71 2.5 2.5"/><rect class="cls-2" x="2.5" y="11.5" width="847.5" height="11.33"/><rect class="cls-2" x="2.87" y="178.72" width="847.5" height="11.33"/><polygon class="cls-3" points="125.87 298.71 110 247 125.87 198.01 185.94 198.01 201.01 248.36 185.94 298.71 125.87 298.71"/><rect class="cls-4" x="128" y="211" width="56.93" height="36.36"/><ellipse class="cls-4" cx="343.46" cy="629.63" rx="4.87" ry="9.53" transform="translate(-389.92 -225.94) rotate(-17.8)"/><ellipse class="cls-4" cx="398.56" cy="629.43" rx="9.53" ry="4.87" transform="translate(-552.53 376.07) rotate(-65.97)"/><polygon class="cls-5" points="152 271 167 271 172.6 261 139.97 261 146.32 271 152 271"/><ellipse class="cls-4" cx="136.76" cy="289.49" rx="9.53" ry="4.87"/><ellipse class="cls-4" cx="157.76" cy="289.49" rx="9.53" ry="4.87"/><ellipse class="cls-4" cx="178.76" cy="289.49" rx="9.53" ry="4.87"/><path class="cls-3" d="M563.91,659.75s-2-63.35,0-69.53,21-25.18,53-25.18,43.46,18.36,44.23,25.18,0,69.53,0,69.53" transform="translate(-213.91 -361.04)"/><path class="cls-6" d="M574.91,592v14.31s9-.31,11-.31,6-.69,6-6.84-4.3-7.16-6.16-7.16Z" transform="translate(-213.91 -361.04)"/><path class="cls-6" d="M574.91,620v14.31s9-.31,11-.31,6-.69,6-6.84-4.3-7.16-6.16-7.16Z" transform="translate(-213.91 -361.04)"/><path class="cls-6" d="M603.91,592v14.31s9-.31,11-.31,6-.69,6-6.84-4.3-7.16-6.16-7.16Z" transform="translate(-213.91 -361.04)"/><path class="cls-6" d="M603.91,620v14.31s9-.31,11-.31,6-.69,6-6.84-4.3-7.16-6.16-7.16Z" transform="translate(-213.91 -361.04)"/><path class="cls-6" d="M603.91,642v14.31s9-.31,11-.31,6-.69,6-6.84-4.3-7.16-6.16-7.16Z" transform="translate(-213.91 -361.04)"/><path class="cls-6" d="M634.91,620v14.31s9-.31,11-.31,6-.69,6-6.84-4.3-7.16-6.16-7.16Z" transform="translate(-213.91 -361.04)"/><path class="cls-6" d="M635.91,642v14.31s9-.31,11-.31,6-.69,6-6.84-4.3-7.16-6.16-7.16Z" transform="translate(-213.91 -361.04)"/><polygon class="cls-7" points="588.86 181.97 566.41 181.97 566.23 181.91 566.05 181.83 565.89 181.72 565.71 181.58 565.47 181.39 565.27 181.24 565.13 181.1 564.96 181 564.87 180.89 564.83 180.78 564.83 180.65 564.83 180.5 564.83 179.48 564.83 178.23 564.83 177.1 564.83 175.83 564.83 175.24 564.83 174.9 564.83 173.07 564.96 172.92 565.17 172.9 565.54 172.86 565.81 172.82 566.26 172.75 566.61 172.69 567.11 172.58 567.59 172.45 568.01 172.34 568.44 172.22 568.99 172.02 569.19 171.96 569.37 171.89 569.53 171.83 569.65 171.78 569.77 171.73 569.94 171.66 570.15 171.56 570.36 171.47 570.59 171.37 570.85 171.24 571.13 171.09 571.35 170.98 571.56 170.85 571.85 170.66 572.08 170.5 572.37 170.3 572.54 170.19 572.73 170.06 572.95 169.93 573.09 169.83 573.26 169.69 573.43 169.57 573.61 169.45 573.84 169.25 574.03 169.07 574.16 168.95 574.31 168.78 574.46 168.64 574.61 168.49 574.74 168.37 574.89 168.23 575.07 168.03 575.21 167.88 575.42 167.64 575.61 167.4 575.78 167.13 575.96 166.9 576.14 166.61 576.31 166.34 576.57 165.97 576.79 165.59 576.94 165.23 577.14 164.84 577.35 164.36 577.56 163.84 577.75 163.26 577.94 162.62 578.13 161.79 578.22 161.37 578.32 160.83 578.35 160.22 578.38 159.29 578.35 158.17 578.32 157.41 578.23 156.82 578.05 156.16 577.86 155.49 577.63 154.77 577.34 154.01 577 153.26 576.62 152.65 576.24 152.04 575.64 151.2 575.22 150.7 574.8 150.22 574.4 149.79 573.88 149.29 573.32 148.8 572.7 148.31 572.21 147.94 571.62 147.59 570.79 147.13 569.96 146.75 569.48 146.54 568.71 146.24 568.23 146.03 567.61 145.81 566.99 145.66 566.23 145.5 565.49 145.37 564.92 145.32 564.29 145.28 563.53 145.26 562.77 145.26 562.35 145.26 561.69 145.3 561.05 145.37 560.42 145.49 559.88 145.6 559.45 145.71 558.91 145.83 558.36 146.03 557.9 146.16 557.44 146.33 557.06 146.5 556.59 146.71 556.08 147 555.51 147.34 555.05 147.56 554.48 147.9 554.03 148.23 553.55 148.61 553.21 148.88 552.82 149.2 552.39 149.58 552 150 551.58 150.47 551.23 150.88 550.8 151.41 550.43 152 550.13 152.58 549.8 153.22 549.53 153.78 549.24 154.29 549.01 154.94 548.86 155.35 548.69 155.84 548.6 156.44 548.5 156.98 548.41 157.54 548.4 158.11 548.39 158.62 548.39 159.22 548.4 159.75 548.42 160.21 548.49 160.74 548.58 161.31 548.65 161.79 548.8 162.32 548.99 163.1 549.27 163.78 549.61 164.58 550.11 165.46 550.59 166.31 551.13 167.09 551.74 167.82 552.27 168.4 552.85 168.95 553.6 169.61 554.3 170.16 554.97 170.62 555.67 171.01 556.48 171.44 557.12 171.74 558.06 172.15 559.09 172.5 560.02 172.75 560.75 172.91 561.26 172.98 561.48 173.01 561.62 173.02 561.84 173.04 562.04 173.08 562.12 173.1 562.2 173.18 562.16 175.62 562.18 177.77 562.19 179.78 562.19 180.58 562.14 180.72 562.04 180.81 561.92 180.92 561.72 181.09 561.54 181.27 561.4 181.39 561.2 181.57 561.01 181.74 560.79 181.87 560.51 181.97 560.18 181.97 559.7 181.97 557.97 181.97 553.65 181.97 548.65 181.97 544.37 181.97 540.18 181.97 539.02 181.97 538.65 181.83 538.14 181.62 537.66 181.4 537.32 181.22 536.81 180.79 536.33 180.26 536.06 179.8 535.74 179.32 535.5 178.73 535.5 178.12 535.5 173.53 535.5 161.41 535.5 144.22 535.5 123.98 535.5 103.21 535.5 79.16 535.5 57.14 535.5 44.45 535.5 43.52 535.62 42.99 535.86 42.46 536.18 42.12 536.56 41.67 537 41.26 537.49 40.95 538.05 40.82 538.66 40.82 543.24 40.82 556.21 40.82 568.95 40.82 577.37 40.82 584.53 40.82 587.49 40.82 588.61 40.82 589.32 41.03 589.82 41.28 590.35 41.74 590.6 42.24 591 42.36 591.5 42.36 592.09 42.36 592.71 42.4 608.17 42.4 624.8 42.46 639.36 42.61 652.98 42.61 663.93 42.61 673.8 42.63 681.35 42.72 689.19 42.86 689.8 42.85 690.4 42.57 690.95 42.22 691.39 41.8 691.77 41.48 692.02 41.26 692.46 41.08 693.21 40.98 694.13 40.96 699.29 40.82 710.88 40.82 732.04 40.82 745.22 40.82 746.23 41 747.11 41.25 747.86 41.6 748.63 42.13 749.21 42.82 749.62 43.75 749.76 44.99 749.76 46.18 749.76 61.41 749.76 79.72 749.76 98.98 749.76 120.45 749.76 138.69 749.76 156.31 749.76 173.8 749.76 178.28 749.76 179.05 749.65 179.67 749.46 180.15 749.16 180.51 748.76 180.9 748.2 181.25 747.66 181.44 746.92 181.66 746.22 181.8 745.01 181.97 743.77 181.97 741.15 181.97 736.24 181.97 729.25 181.97 721.46 181.97 714.38 181.97 708.09 181.97 696.85 181.97 696.41 181.89 696.02 181.72 695.74 181.54 695.54 181.24 695.47 180.9 695.44 180.51 695.42 180.18 695.41 179.97 695.29 179.82 695.08 179.76 694.79 179.74 694.5 179.73 693.6 179.71 692.03 179.71 685.7 179.7 672.24 179.67 663.03 179.65 652.6 179.6 638.81 179.57 626.98 179.57 614.14 179.57 599.51 179.6 592.1 179.52 591.8 179.52 591.51 179.58 591.27 179.8 591.08 180.13 590.95 180.47 590.8 180.83 590.52 181.07 590.29 181.3 589.97 181.59 589.46 181.83 589.24 181.97 588.86 181.97"/><polygon class="cls-8" points="708.84 153.24 708.65 153.56 708.42 154.02 708.13 154.59 707.95 155.09 707.72 155.71 707.52 156.34 707.35 156.91 707.18 157.59 707.12 158 707.08 158.64 707.08 159.19 707.08 160.29 707.08 160.66 707.08 161.08 707.16 161.53 707.28 162.07 707.35 162.59 707.5 163.17 707.64 163.58 707.75 164 707.96 164.51 708.11 164.88 708.28 165.3 708.49 165.72 708.67 166.13 708.9 166.45 709.13 166.84 709.44 167.25 709.72 167.66 710.06 168.04 710.35 168.43 710.66 168.73 710.98 169.12 711.26 169.43 711.57 169.65 711.98 169.99 712.38 170.29 712.71 170.56 712.99 170.77 713.35 171.04 713.79 171.26 714.29 171.56 714.71 171.81 715.19 172.05 715.68 172.28 716.13 172.44 716.58 172.62 717.03 172.76 717.43 172.89 717.87 173.04 718.33 173.18 718.85 173.26 719.31 173.37 719.85 173.42 720.43 173.5 720.9 173.5 721.7 173.5 723.38 173.5 723.94 173.5 724.46 173.4 724.97 173.35 725.43 173.23 725.92 173.1 726.48 172.99 726.9 172.86 727.47 172.67 728.09 172.42 728.59 172.17 729.17 171.94 729.61 171.69 730.09 171.42 730.53 171.16 730.99 170.85 731.36 170.59 731.76 170.26 732.1 169.96 732.54 169.58 732.89 169.27 733.16 169.02 733.54 168.64 733.81 168.31 734.07 168 734.35 167.6 734.63 167.2 734.9 166.81 735.1 166.51 735.31 166.13 735.51 165.75 735.68 165.43 735.89 165.03 736.07 164.62 736.27 164.13 736.43 163.75 736.55 163.37 736.63 162.99 736.73 162.49 736.8 162.13 736.87 161.78 736.92 161.44 736.92 160.84 736.92 160.29 736.92 158.7 736.92 158.3 736.92 157.88 736.8 157.29 736.61 156.69 736.44 156.1 736.27 155.54 736.07 155.05 735.85 154.53 735.56 153.94 735.36 153.55 735.13 153.11 734.84 152.58 734.55 152.18 734.21 151.7 733.8 151.2 733.32 150.69 733.02 150.38 732.61 149.97 732.08 149.54 731.68 149.19 731.25 148.86 730.74 148.5 730.18 148.16 729.67 147.84 729.08 147.54 728.49 147.27 727.86 147 727.33 146.79 726.78 146.6 726.25 146.41 725.71 146.26 725.2 146.15 724.61 146.03 723.99 145.94 723.38 145.89 722.91 145.89 720.84 145.89 720.38 145.94 719.91 146.02 719.5 146.06 718.93 146.18 718.4 146.29 717.91 146.41 717.43 146.54 716.99 146.65 716.61 146.8 716.21 146.96 715.75 147.14 715.33 147.3 714.87 147.5 714.42 147.75 714 147.98 713.59 148.25 713.1 148.56 712.74 148.83 712.36 149.13 712.05 149.36 711.72 149.62 711.36 149.94 711.11 150.21 710.71 150.58 710.49 150.85 710.21 151.17 709.96 151.46 709.66 151.79 709.38 152.17 709.18 152.51 708.84 153.24"/><polygon class="cls-8" points="549.47 128.57 549.55 128.15 549.67 127.63 549.79 127.23 549.92 126.81 550.1 126.48 550.28 126.15 550.48 125.81 550.7 125.49 550.96 125.12 551.2 124.8 551.57 124.51 551.91 124.28 552.24 124.01 552.6 123.73 552.93 123.57 553.33 123.35 553.73 123.16 554.21 123.02 554.66 122.89 555.09 122.81 555.47 122.75 555.89 122.69 556.28 122.69 556.78 122.69 557.12 122.69 557.59 122.76 557.93 122.85 558.39 122.96 558.81 123.1 559.28 123.25 559.74 123.46 560.23 123.71 560.57 123.95 560.94 124.23 561.32 124.55 561.7 124.95 562.03 125.32 562.36 125.63 562.55 125.98 562.77 126.36 563.01 126.75 563.23 127.19 563.27 127.53 563.42 128.16 563.48 128.67 563.48 129.29 563.48 129.85 563.42 130.54 563.34 131 563.22 131.35 563.01 131.75 562.77 132.19 562.53 132.62 562.26 132.94 561.98 133.34 561.67 133.66 561.34 133.95 561.1 134.13 560.79 134.35 560.4 134.61 560.15 134.74 559.8 134.96 559.48 135.1 559.07 135.27 558.69 135.38 558.32 135.48 557.96 135.56 557.58 135.65 557.03 135.65 556.47 135.65 556.03 135.65 555.86 135.65 555.55 135.65 555.05 135.58 554.6 135.47 554.27 135.34 553.75 135.21 553.38 135.02 552.95 134.82 552.51 134.53 552.07 134.24 551.72 133.93 551.36 133.59 551.01 133.23 550.75 132.9 550.47 132.48 550.21 132.07 549.94 131.65 549.8 131.25 549.66 130.82 549.53 130.4 549.47 129.96 549.47 129.44 549.47 128.94 549.47 128.57"/><polygon class="cls-8" points="565.54 172.86 565.81 172.82 566.26 172.75 566.61 172.69 567.11 172.58 567.59 172.45 568.01 172.34 568.44 172.22 568.99 172.02 569.19 171.96 569.37 171.89 569.53 171.83 569.77 171.73 569.94 171.66 570.15 171.56 570.36 171.47 570.59 171.37 570.85 171.24 571.13 171.09 571.35 170.98 571.56 170.85 571.85 170.66 572.08 170.5 572.37 170.3 572.73 170.06 572.95 169.93 573.26 169.69 573.43 169.57 573.61 169.45 573.84 169.25 574.03 169.07 574.31 168.78 574.46 168.64 574.74 168.37 574.89 168.23 575.21 167.88 575.42 167.64 575.61 167.4 575.78 167.13 575.96 166.9 576.14 166.61 576.31 166.34 576.57 165.97 576.79 165.59 576.94 165.23 577.14 164.84 577.35 164.36 577.56 163.84 577.75 163.26 577.94 162.62 578.13 161.79 578.22 161.37 578.32 160.83 578.35 160.22 578.38 159.29 578.35 158.17 578.32 157.41 578.23 156.82 578.05 156.16 577.86 155.49 577.63 154.77 577.34 154.01 577 153.26 576.62 152.65 576.24 152.04 575.64 151.2 575.22 150.7 574.8 150.22 574.4 149.79 573.88 149.29 573.32 148.8 572.7 148.31 572.21 147.94 571.62 147.59 570.79 147.13 569.96 146.75 569.48 146.54 568.71 146.24 568.23 146.03 567.61 145.81 566.99 145.66 566.23 145.5 565.49 145.37 564.92 145.32 564.29 145.28 563.53 145.26 562.77 145.26 562.35 145.26 561.69 145.3 561.05 145.37 560.42 145.49 559.88 145.6 559.45 145.71 558.91 145.83 558.36 146.03 557.9 146.16 557.44 146.33 557.06 146.5 556.59 146.71 556.08 147 555.51 147.34 555.05 147.56 554.48 147.9 554.03 148.23 553.55 148.61 553.21 148.88 552.82 149.2 552.39 149.58 552 150 551.58 150.47 551.23 150.88 550.8 151.41 550.43 152 550.13 152.58 549.8 153.22 549.53 153.78 549.24 154.29 549.01 154.94 548.86 155.35 548.69 155.84 548.6 156.44 548.5 156.98 548.41 157.54 548.4 158.11 548.39 158.62 548.39 159.22 548.4 159.75 548.42 160.21 548.49 160.74 548.58 161.31 548.65 161.79 548.8 162.32 548.99 163.1 549.27 163.78 549.61 164.58 550.11 165.46 550.59 166.31 551.13 167.09 551.74 167.82 552.27 168.4 552.85 168.95 553.6 169.61 554.3 170.16 554.97 170.62 555.67 171.01 556.48 171.44 557.12 171.74 558.06 172.15 559.09 172.5 560.02 172.75 560.75 172.91 561.26 172.98 561.62 173.02 561.95 173.02 562.28 173.02 562.64 173.02 563.14 173.02 563.55 173.02 564.21 173.02 564.58 173.02 564.74 173.02 564.96 172.92 565.17 172.9 565.54 172.86"/><polygon class="cls-9" points="716.85 160.29 716.85 159.32 717.16 159.02 717.38 158.77 717.74 158.58 717.9 158.47 718.83 158.47 719.1 158.69 719.32 158.82 719.53 159.02 719.67 159.25 719.67 160.29 719.67 160.43 719.48 160.62 719.27 160.84 718.96 161.07 718.01 161.07 717.52 160.83 717.07 160.51 716.85 160.29"/><polygon class="cls-10" points="717.92 160.5 717.49 160.14 717.49 159.39 717.7 159.16 717.92 158.98 718.7 158.98 719.02 159.2 719.23 159.47 719.23 160.21 718.88 160.5 717.92 160.5"/><polygon class="cls-9" points="720.26 161 720.26 158.51 721.78 158.51 722.07 158.72 722.21 158.98 722.21 159.74 722 160.01 721.76 160.09 720.73 160.07 720.72 161 720.26 161"/><polygon class="cls-10" points="720.72 158.98 720.72 159.69 721.63 159.69 721.85 159.5 721.85 159.17 721.67 159.03 720.72 158.98"/><polygon class="cls-11" points="722.54 158.47 722.55 161.07 724.63 161.07 724.63 160.5 723.11 160.5 723.11 160 724.63 160.03 724.63 159.45 723.07 159.46 723.04 158.98 724.63 158.98 724.61 158.47 722.54 158.47"/><polygon class="cls-9" points="725.09 158.47 725.09 161.07 725.79 161.07 725.79 159.51 725.79 159.34 725.96 159.44 726.16 159.76 727.24 161.04 727.26 161.1 727.61 161.1 727.67 161.1 727.65 158.44 727.29 158.44 727.29 160.2 727.29 160.28 727.18 160.28 727.1 160.2 727.03 160.11 725.85 158.52 725.79 158.44 725.09 158.47"/><polyline class="cls-12" points="566.41 181.97 565.41 181.97 564.59 181.97 563.57 181.97 562.83 181.97 561.89 181.97 561.36 181.97 560.79 181.87 561.01 181.74 561.2 181.57 561.54 181.27 561.72 181.09 561.92 180.92 562.14 180.72 562.19 180.58 562.19 180.3 562.19 179.78 562.18 177.77 562.16 175.62 562.2 173.18 562.28 173.02 562.64 173.02 563.14 173.02 563.55 173.02 564.21 173.02 564.58 173.02 564.83 173.07 564.83 173.48 564.83 174.05 564.83 174.9 564.83 175.83 564.83 177.1 564.83 178.23 564.83 179.48 564.83 180.5 564.83 180.78 564.87 180.89 565.13 181.1 565.27 181.24 565.71 181.58 566.05 181.83 566.41 181.97"/><polygon class="cls-13" points="555.95 160.08 555.95 159.83 555.95 159.57 555.95 159.27 555.95 158.8 555.95 158.43 555.95 158.09 555.95 157.89 555.95 157.78 556.14 157.78 556.28 157.78 556.48 157.78 556.68 157.78 556.92 157.78 557.15 157.78 557.26 157.78 557.36 157.78 557.49 157.78 557.65 157.81 557.75 157.89 557.87 158.02 557.98 158.15 558.02 158.3 558.02 158.45 558.02 158.6 558.02 158.77 558.02 158.93 557.97 159.02 557.87 159.1 557.79 159.19 557.67 159.29 557.5 159.35 557.35 159.42 557.1 159.44 556.99 159.44 556.76 159.44 556.56 159.44 556.43 159.44 556.33 159.46 556.3 159.53 556.3 159.69 556.31 159.86 556.3 159.95 556.3 160.08 556.18 160.08 556.08 160.08 555.95 160.08"/><polygon class="cls-14" points="556.3 158.93 556.3 158.69 556.3 158.54 556.33 158.44 556.41 158.42 556.48 158.42 556.6 158.42 556.75 158.42 556.92 158.42 557.1 158.42 557.23 158.42 557.34 158.42 557.47 158.44 557.56 158.47 557.63 158.54 557.63 158.68 557.63 158.78 557.53 158.84 557.36 158.9 557.27 158.93 557.04 158.93 556.82 158.93 556.47 158.93 556.3 158.93"/><polygon class="cls-15" points="558.5 159.5 558.5 159.04 558.5 158.68 558.54 158.48 558.68 158.37 558.88 158.16 559.03 158.07 559.15 157.94 559.25 157.87 559.35 157.78 559.48 157.78 559.68 157.78 559.94 157.78 560.14 157.78 560.25 157.78 560.4 157.81 560.5 157.87 560.65 157.96 560.8 158.08 560.93 158.22 561.04 158.37 561.15 158.53 561.28 158.71 561.34 158.83 561.34 159.14 561.34 159.31 561.34 159.43 561.34 159.59 561.34 159.71 561.18 159.85 560.98 160.08 560.76 160.24 560.62 160.32 560.47 160.39 560.3 160.39 560.06 160.39 559.83 160.39 559.53 160.39 559.43 160.39 559.22 160.26 559.05 160.15 558.91 160.02 558.7 159.84 558.64 159.71 558.5 159.5"/><polygon class="cls-16" points="558.85 159.37 558.85 158.86 558.91 158.75 559.04 158.65 559.2 158.53 559.34 158.42 559.53 158.42 559.76 158.42 559.95 158.42 560.14 158.42 560.25 158.46 560.38 158.5 560.49 158.55 560.61 158.68 560.7 158.75 560.77 158.79 560.77 158.87 560.81 159.01 560.81 159.14 560.81 159.37 560.75 159.52 560.63 159.75 560.53 159.8 560.34 159.8 560.08 159.8 559.83 159.8 559.54 159.8 559.42 159.8 559.27 159.74 559.13 159.62 558.98 159.53 558.85 159.37"/><polygon class="cls-17" points="561.43 158.1 561.61 158.42 561.75 158.68 561.84 158.99 561.94 159.19 562.02 159.41 562.13 159.64 562.18 159.89 562.27 160.08 562.37 160.08 562.48 160.08 562.58 160.08 562.73 160.08 562.79 159.8 562.85 159.61 562.92 159.39 563.05 159.14 563.14 158.93 563.21 158.74 563.38 158.75 563.5 158.75 563.6 158.87 563.65 159.11 563.73 159.44 563.83 159.68 563.96 159.92 564.07 160.08 564.18 160.08 564.33 160.08 564.5 160.08 564.6 159.8 564.68 159.51 564.81 159.21 564.96 158.87 565.03 158.62 565.07 158.42 565.13 158.22 565.13 158.1 564.92 158.1 564.74 158.06 564.66 158.29 564.6 158.56 564.51 158.93 564.44 159.11 564.34 159.33 564.27 159.44 564.11 159.44 563.98 159.32 563.92 159.03 563.84 158.68 563.7 158.42 563.63 158.21 563.57 158.06 563.38 158.06 563.28 158.06 563.17 158.06 563.06 158.28 562.92 158.56 562.84 158.82 562.76 159.07 562.69 159.25 562.63 159.43 562.47 159.44 562.23 159.07 562.14 158.78 562.04 158.46 561.88 158.2 561.82 158.06 561.43 158.1"/><polygon class="cls-17" points="565.78 157.85 566.08 157.85 566.43 157.85 566.84 157.85 567.21 157.85 567.47 157.85 567.57 157.85 567.57 158.02 567.57 158.23 567.57 158.41 567.43 158.41 567.19 158.41 566.93 158.41 566.59 158.41 566.31 158.41 566.14 158.41 566.14 158.62 566.14 158.76 566.36 158.76 567.57 158.76 567.57 159.43 566.12 159.43 566.12 159.77 567.57 159.77 567.57 160.39 565.4 160.39 565.4 157.85 565.78 157.85"/><polygon class="cls-17" points="567.97 160.34 567.97 158.26 568.01 158.16 568.11 158.11 568.21 158.01 568.3 157.91 568.37 157.85 568.45 157.78 569.72 157.78 569.93 157.92 570.15 158.07 570.42 158.25 570.49 158.36 570.49 158.6 570.49 158.74 570.4 158.9 570.27 159.01 570.17 159.1 570.11 159.14 570.15 159.43 570.3 159.57 570.44 159.75 570.49 159.94 570.49 160.08 570.49 160.24 570.49 160.34 570.36 160.34 570.15 160.34 569.88 160.34 569.73 160.34 569.75 160.07 569.75 159.83 569.75 159.66 569.75 159.53 569.72 159.45 569.57 159.44 569.3 159.43 569.1 159.43 568.87 159.43 568.71 159.44 568.66 159.63 568.67 159.78 568.68 160.02 568.68 160.15 568.66 160.34 567.97 160.34"/><rect class="cls-18" x="568.66" y="158.43" width="1.09" height="0.36"/><polyline class="cls-19" points="591.08 180.13 591.08 175.18 591.08 163.6 591.08 156.34 591.08 150.66"/><polyline class="cls-19" points="694.5 179.73 694.5 173.81 694.5 166.99 694.5 160.76 694.41 151.75"/><polyline class="cls-19" points="591 42.36 591 48.6 591 56.55 591 64.45 591 71.59"/><polyline class="cls-19" points="693.62 40.97 693.62 50.31 693.62 57.47 693.62 66.77 693.59 71.46"/><path class="cls-19" d="M804.91,432.63" transform="translate(-213.91 -361.04)"/><line class="cls-20" x1="553.51" y1="128.97" x2="552.46" y2="128.91"/><polyline class="cls-20" points="552.46 129.75 552.46 129.55 552.46 128.91 552.46 128.46 552.46 128.29 552.46 128.19 552.79 128.19 553.07 128.19 553.31 128.19 553.42 128.19 553.68 128.37 553.68 128.56 553.68 128.67 553.68 128.79 553.59 128.95 553.68 129.49 553.68 129.58 553.68 129.75"/><polyline class="cls-20" points="555.52 128.37 554.28 128.37 554.18 128.37 554.18 129.67 554.18 129.79 555.48 129.79"/><line class="cls-20" x1="555.46" y1="129.04" x2="554.18" y2="129.04"/><polyline class="cls-20" points="557.15 128.66 557 128.56 556.88 128.48 556.74 128.43 556.47 128.43 556.25 128.43 556.09 128.55 555.97 128.66 555.97 128.8 556.08 128.97 556.29 129.04 556.52 129.08 556.74 129.13 556.88 129.13 557 129.24 557.07 129.44 557.06 129.59 556.96 129.75 556.8 129.79 556.56 129.79 556.37 129.79 556.19 129.75 556.07 129.64 555.9 129.48"/><polyline class="cls-20" points="558.8 128.43 557.63 128.43 557.63 129.97 558.8 129.97"/><line class="cls-20" x1="558.8" y1="129.17" x2="557.63" y2="129.17"/><polyline class="cls-20" points="559.07 128.56 559.23 128.56 560.64 128.56"/><line class="cls-20" x1="559.86" y1="129.97" x2="559.86" y2="128.56"/><polyline class="cls-19" points="698.73 146.4 700.36 147.45 701.41 148.11 702.63 148.8 703.49 149.31 704.49 149.9 705.88 150.8 706.6 151.22 707.43 151.73 707.99 152.15 708.38 152.43 708.65 152.59 709.03 152.83 709.09 152.7 709.13 152.6 709.23 152.42 709.34 152.24 709.47 152.04 709.61 151.86 709.77 151.67 709.73 151.57 709.61 151.42 709.25 151.19 708.86 150.94 708.25 150.59 707.63 150.19 707.08 149.81 706.57 149.54 706.01 149.19 705.44 148.84 704.83 148.47 704.1 148.05 703.54 147.7 703.03 147.4 702.52 147.09 702.11 146.79 701.63 146.49 701.18 146.19 700.62 145.8 700.19 145.53 699.59 145.2 699.19 145.75 698.73 146.4"/><polygon class="cls-7" points="678.46 164.49 680.42 163.35 682.2 162.15 684.22 160.75 685.79 159.46 687.49 158.21 688.89 157.13 690.38 155.81 691.7 154.53 692.95 153.21 694.41 151.75 695.76 150.2 697.07 148.68 698.1 147.28 699.29 145.61 700.87 143.36 702.1 141.32 703.39 139.15 704.32 137.22 705.67 134.59 706.78 131.64 707.54 129.33 708.33 126.79 708.94 124.19 709.43 121.71 709.73 119.72 709.96 117.85 710.17 116.15 710.28 114.98 710.28 113.29 710.28 111.5 710.28 109.46 710.28 108.03 710.11 105.98 709.96 104.76 709.73 103.31 709.49 101.95 709.17 100.2 708.88 98.62 708.3 96.43 707.71 94.53 707.1 92.6 706.46 90.82 705.81 89.24 704.85 87.11 704.03 85.29 702.98 83.45 702.3 82.11 701.52 80.85 700.73 79.48 699.76 78.16 698.82 77.12 698.08 76.11 697.15 75.06 696.3 74.17 695.64 73.59 694.87 72.86 694.21 72.04 693.59 71.46 692.97 70.73 691.96 69.64 691.11 68.75 689.75 67.32 688.98 66.66 688.05 65.88 687.24 65.11 686.15 64.26 684.76 63.17 683.63 62.4 681.97 61.24 680.46 60.19 678.75 59.14 677.2 58.37 675.27 57.21 673.1 56.16 670.85 55.23 668.49 54.15 666.55 53.45 663.84 52.6 661.4 51.86 659.04 51.24 657.1 50.78 654.62 50.31 652.92 50 651.13 49.81 649.24 49.62 646.37 49.62 642.51 49.42 640.64 49.42 638.2 49.42 635.64 49.65 631.77 50 628.86 50.39 625.34 51.16 621.97 52.09 619.14 52.98 615.73 54.15 612.21 55.62 609.46 57.05 606.86 58.52 604.15 60.34 601.9 61.78 599.58 63.44 597.6 65.03 595.94 66.47 594.27 68.17 593.11 69.41 591.72 70.73 590.55 72.12 589.35 73.63 587.42 76.03 586.1 77.81 584.74 80.06 583.47 82.08 582.3 83.94 581.53 85.56 580.75 87.23 579.9 89.4 579.05 91.68 578.16 93.97 577.65 96.29 576.84 99.27 576.69 100.45 576.55 101.92 576.41 103.31 576.25 104.64 576.17 105.82 576.03 107.17 575.94 108.97 575.94 110.63 575.94 111.85 575.94 113.49 575.94 114.86 575.94 115.84 576.1 117.44 576.22 118.12 576.36 119.08 576.61 120.19 576.72 120.69 576.8 121.2 576.86 121.84 576.94 122.66 577.11 123.3 577.22 124.06 577.39 124.9 577.62 125.74 577.9 126.66 578.21 127.84 578.46 128.79 579.05 130.31 579.41 131.18 579.75 132.13 580.11 132.94 580.45 133.75 580.92 134.82 581.29 135.66 581.9 136.95 582.66 138.35 583.22 139.3 583.89 140.57 584.57 141.69 585.33 143.03 585.97 144.04 586.67 145.08 587.57 146.37 588.3 147.32 589.42 148.69 590.59 150.15 592 151.61 593.17 152.87 594.35 154.1 595.78 155.42 597.1 156.49 598.27 157.55 599.76 158.78 601.38 159.99 602.87 161.03 604.66 162.12 606.26 163.13 607.89 164.11 609.37 164.95 611.05 165.74 613.21 166.72 614.81 167.56 617.05 168.43 618.88 169.1 620.73 169.72 622.52 170.39 624.45 170.89 626.33 171.37 628.32 171.82 630.37 172.21 632.05 172.52 633.79 172.74 635.78 172.97 637.3 173.2 638.76 173.34 639.83 173.34 641.36 173.34 643.04 173.34 644.4 173.34 646.35 173.34 647.96 173.34 649.45 173.13 650.95 172.98 652.25 172.85 653.95 172.63 655.81 172.29 657.61 171.93 659.33 171.54 661.4 171.01 663.28 170.47 665.03 169.96 667.01 169.29 668.76 168.69 670.64 167.97 672.48 167.18 674.04 166.51 675.73 165.71 677.13 165.16 678.46 164.49"/><polyline class="cls-20" points="632.4 146.78 632.4 144.24 632.4 144.08 632.74 144.08 633.18 144.08 633.51 144.08 633.82 144.15 633.97 144.31 634.05 144.61 634.05 144.84 634.05 145.14 633.92 145.43 633.71 145.58 633.23 145.58 632.9 145.58 632.5 145.6"/><line class="cls-20" x1="635.04" y1="144.08" x2="635.04" y2="146.78"/><polyline class="cls-20" points="636.19 144.77 637.12 144.77 637.33 144.89 637.49 145.05 637.49 145.48 637.49 145.61 637.49 146.57 637.49 146.78 636.28 146.78 636.06 146.63 635.93 146.42 635.93 146.2 635.93 145.97 636.16 145.77 636.33 145.69 636.59 145.63 636.78 145.63 636.96 145.63 637.15 145.61 637.3 145.61"/><line class="cls-20" x1="640.2" y1="144.77" x2="638.64" y2="147.97"/><line class="cls-20" x1="638.33" y1="144.77" x2="639.21" y2="146.57"/><polyline class="cls-20" points="642.31 144.08 641.26 144.08 641.1 144.22 640.96 144.44 640.96 145.05 641.15 145.21 641.42 145.33 641.63 145.33 641.86 145.33 642.1 145.43 642.31 145.67 642.31 145.91 642.31 146.14 642.31 146.45 642.14 146.66 641.94 146.78 640.96 146.78"/><polyline class="cls-20" points="643.37 144.31 643.37 146.67 643.63 146.78 643.93 146.78"/><line class="cls-20" x1="644.2" y1="144.77" x2="643.43" y2="144.77"/><polyline class="cls-20" points="644.99 144.77 645.94 144.77 646.14 144.92 646.26 145.11 646.26 146.65 646.12 146.78 645.78 146.78 645.04 146.78 644.85 146.57 644.68 146.37 644.68 146.05 644.9 145.85 645.13 145.77 645.35 145.67 645.7 145.67 645.89 145.67 646.14 145.67"/><polyline class="cls-20" points="647.4 144.31 647.4 146.57 647.64 146.78 647.95 146.78"/><line class="cls-20" x1="648.2" y1="144.77" x2="647.47" y2="144.77"/><line class="cls-20" x1="648.95" y1="143.99" x2="648.95" y2="144.21"/><line class="cls-20" x1="648.95" y1="144.77" x2="648.95" y2="146.9"/><polygon class="cls-20" points="650 146.22 650 145.54 650.07 145.27 650.16 145.06 650.26 144.93 650.44 144.77 651.02 144.77 651.33 144.83 651.53 145.01 651.65 145.26 651.65 145.72 651.65 146.22 651.56 146.5 651.39 146.67 651.19 146.78 650.59 146.78 650.31 146.66 650.1 146.48 650 146.22"/><polyline class="cls-20" points="654.29 146.84 654.29 145.14 654.19 144.95 653.92 144.77 652.72 144.77 652.72 146.9"/><polygon class="cls-21" points="634.57 75.48 634.57 74.28 634.28 74.36 633.93 74.4 633.6 74.22 633.08 74.06 632.76 74.06 631.53 74.06 631.18 74.15 630.81 74.27 630.34 74.38 630.03 74.55 629.73 74.92 629.73 75.82 630.03 76 630.43 76.2 630.98 76.35 631.46 76.45 632.06 76.52 632.56 76.52 633.43 76.52 633.82 76.8 634.03 77.05 634.02 77.37 633.73 77.55 633.37 77.7 632.95 77.7 632.51 77.7 632.15 77.7 631.64 77.7 631.16 77.59 630.84 77.35 630.58 77.1 630.36 76.85 630.26 76.69 629.73 76.7 629.73 78.19 630.19 78.19 630.39 78.19 630.46 77.97 630.71 77.99 631.11 78.19 631.63 78.29 632.15 78.35 632.68 78.35 633.26 78.35 633.88 78.17 634.32 77.97 634.68 77.75 634.9 77.44 634.9 76.9 634.9 76.55 634.73 76.28 634.53 76.07 634.15 75.87 633.68 75.78 633.18 75.73 632.56 75.7 632 75.63 631.41 75.53 630.91 75.37 630.71 75.22 630.71 74.97 630.98 74.8 631.23 74.61 631.56 74.52 632 74.47 633.08 74.52 633.47 74.63 633.7 74.87 634 75.15 634.3 75.5 634.57 75.48"/><polygon class="cls-21" points="637.96 78.35 637.2 78 636.7 77.6 636.37 77.2 636.12 76.85 636.12 75.75 636.39 75.28 636.77 74.92 637.24 74.55 637.8 74.22 638.32 74.06 639.97 74.06 640.48 74.18 641.06 74.42 641.38 74.63 641.88 75 642.11 75.52 642.11 76.77 641.96 77.25 641.64 77.55 641.16 77.92 640.71 78.1 640.27 78.35 637.96 78.35"/><polygon class="cls-22" points="638.74 77.72 638.15 77.59 637.77 77.32 637.52 77.04 637.4 76.69 637.4 76.4 637.4 75.85 637.55 75.47 637.77 75.15 638.07 74.93 638.36 74.7 638.54 74.58 639.54 74.58 640.08 74.83 640.46 75.1 640.69 75.4 640.89 75.75 640.89 76.78 640.64 77.14 640.33 77.45 639.97 77.72 638.74 77.72"/><polygon class="cls-23" points="647.07 74.27 647.07 74.73 647.8 74.73 647.8 76.62 645.07 74.27 643.05 74.27 643.05 74.73 643.73 74.75 643.73 77.72 643.05 77.72 643.05 78.1 645.42 78.1 645.37 77.72 644.57 77.72 644.55 75.45 644.85 75.45 647.8 78.02 647.8 78.19 648.75 78.19 648.75 74.75 649.46 74.75 649.46 74.27 647.07 74.27"/><polygon class="cls-23" points="650.08 74.27 650.08 74.76 650.82 74.76 652.48 76.52 652.48 77.73 651.75 77.73 651.75 78.19 654.68 78.19 654.68 77.66 653.81 77.66 653.75 76.65 655.63 74.78 656.4 74.78 656.4 74.27 653.99 74.27 654 74.72 654.54 74.75 654.53 75 653.7 75.92 653.24 75.91 652.25 74.82 652.25 74.67 652.84 74.67 652.83 74.27 650.08 74.27"/><polygon class="cls-24" points="641.12 141.86 640.48 141.58 640.11 141.46 639.58 141.36 638.99 141.36 638.34 141.31 637.8 141.31 637.29 141.2 636.71 141.06 636.2 140.9 635.74 140.66 635.34 140.32 635.25 139.92 635.37 139.63 635.75 139.34 636.18 139.12 636.71 138.91 636.95 139.05 637.15 139.16 637.49 139.29 637.9 139.45 638.19 139.6 638.51 139.84 638.09 140.01 637.74 140.13 637.75 140.38 638.11 140.38 638.54 140.38 638.96 140.38 639.21 140.38 639.32 140.16 639.52 140.06 639.77 140.06 640.08 140.06 640.43 140.11 640.67 140.21 640.89 140.25 641.12 140.38 641.29 140.5 641.29 140.88 641.29 141.86 641.12 141.86"/><polygon class="cls-25" points="643.81 142.61 645.65 141.99 645.47 141.74 645.11 141.58 644.68 141.46 644.2 141.41 643.81 141.41 643.81 142.61"/><polygon class="cls-26" points="636.71 138.91 637.39 138.69 638.15 138.44 638.64 138.27 639.12 138.12 639.71 137.9 640.2 137.75 640.65 137.86 640.96 137.97 641.29 138.07 641.29 140.5 640.89 140.25 640.67 140.21 640.43 140.11 640.08 140.06 639.77 140.06 639.52 140.06 639.32 140.16 639.21 140.38 638.96 140.38 638.54 140.38 638.11 140.38 637.75 140.38 637.74 140.13 638.09 140.01 638.51 139.84 638.19 139.6 637.9 139.45 637.49 139.29 637.15 139.16 636.95 139.05 636.71 138.91"/><polygon class="cls-27" points="640.2 137.75 640.68 137.42 640.96 137.3 641.29 137.3 641.29 138.07 640.96 137.97 640.65 137.86 640.2 137.75"/><polygon class="cls-28" points="641.29 138.83 640.75 139.12 640.33 139.29 639.65 139.54 639.12 139.71 638.51 139.84 638.09 140.01 637.74 140.13 637.75 140.38 638.11 140.38 638.54 140.38 638.96 140.38 639.21 140.38 639.32 140.16 639.52 140.06 639.77 140.06 640.08 140.06 640.36 139.91 640.49 139.86 640.58 139.84 640.84 139.78 641.03 139.76 641.29 138.83"/><polygon class="cls-29" points="641.29 140.38 641.29 139.93 641.29 139.4 641.09 139.56 641.03 139.76 640.84 139.78 640.58 139.84 640.36 139.91 640.08 140.06 640.43 140.11 640.67 140.21 640.89 140.25 641.12 140.38 641.29 140.5 641.29 140.38"/><polygon class="cls-30" points="643.81 141.41 643.81 141 644.3 140.91 644.78 140.76 645.31 140.71 645.58 140.5 645.97 140.38 646.27 140.33 646.55 140.19 646.77 140.11 647.18 140.07 647.5 140.07 647.95 140.07 648.39 140.12 648.68 140.23 649.04 140.38 649.43 140.57 648.95 140.88 648.63 140.99 647.95 141.22 647.47 141.41 646.91 141.59 646.24 141.78 645.65 141.99 645.47 141.74 645.11 141.58 644.68 141.46 644.2 141.41 643.81 141.41"/><polygon class="cls-30" points="643.75 138.91 644.25 139.01 644.89 139.12 645.4 139.3 645.75 139.52 645.42 139.72 644.93 139.84 644.39 140.07 643.75 140.3 643.75 138.91"/><polygon class="cls-31" points="643.81 138.78 644.88 138.56 645.5 138.44 646.28 138.32 646.94 138.24 647.5 138.24 648.13 138.3 648.97 138.42 649.61 138.51 650.26 138.83 650.73 139.21 650.91 139.48 650.91 139.79 650.86 140.15 650.62 140.38 650.24 140.44 649.82 140.56 649.43 140.57 649.04 140.38 648.68 140.23 648.17 140.09 647.5 140.07 647.62 139.95 647.83 139.87 648.07 139.82 648.38 139.73 648.58 139.68 648.66 139.33 648.67 139.22 648.48 139.12 648.3 139.07 648.02 139.07 647.72 139.07 647.47 139.12 647.1 139.2 646.76 139.33 646.4 139.48 646 139.52 645.75 139.52 645.4 139.3 644.89 139.12 644.25 139.01 643.75 138.91 643.81 138.78"/><polygon class="cls-32" points="641.24 142.01 643.81 142.61 643.75 137.82 643.75 135.62 643.75 134.58 643.75 133.73 643.75 133.41 643.75 133.25 644.07 133.25 644.62 133.25 644.84 133.25 644.96 133.39 644.96 133.58 644.96 137.3 645.1 137.54 645.26 137.68 645.51 137.68 645.93 137.68 646.38 137.68 646.7 137.57 646.9 137.3 647.17 137.07 647.4 136.75 647.54 136.63 647.66 136.43 647.66 136.17 647.66 135.53 647.66 134.63 647.6 134.31 647.43 134.05 647.15 133.7 646.9 133.44 646.62 133.16 646.23 132.92 645.81 132.71 645.42 132.52 644.91 132.31 644.45 132.16 644 131.99 643.54 131.85 643.11 131.68 642.7 131.58 642.33 131.5 641.91 131.42 641.43 131.42 641.24 131.42 641.29 137.3 641.24 142.01"/><polyline class="cls-33" points="185.35 178.31 184.83 178.31 184.06 178.18 183.35 177.98 182.88 177.75 182.4 177.44 181.99 177.07 181.75 176.71 181.5 176.35 181.5 174.98 181.5 170.93 181.5 150.55 181.5 124.17 181.5 102.41 181.5 76.55 181.5 44.04 181.5 43.54 181.5 43.05 181.5 42.81 181.68 42.46 181.95 42.13 182.26 41.72 182.58 41.47 183 41.22 183.32 41.12 183.68 40.97 184.17 40.85 184.53 40.77 184.88 40.77 185.13 40.72 185.35 40.72 185.54 40.72 185.64 40.72 185.34 40.85 184.95 41.15 184.75 41.51 184.61 42 184.61 42.41 184.61 43.29 184.61 52.41 184.61 63.94 184.61 82.26 184.61 90.97 184.61 114.13 184.61 137.36 184.61 157.33 184.61 177.49 184.89 177.9 185.35 178.31"/><polyline class="cls-34" points="187.02 178.48 186.58 178.66 186.01 178.57 185.35 178.31 184.89 177.9 184.61 177.49 184.61 176.36 184.61 142.09 184.61 107.11 184.61 72.79 184.61 44.2 184.61 43.05 184.61 42.41 184.61 42 184.75 41.51 184.95 41.15 185.34 40.85 185.82 40.65 186.26 40.53 186.69 40.53 187.26 40.59 187.01 40.85 186.77 41.19 186.55 41.46 186.49 41.69 186.42 41.98 186.42 42.4 186.42 42.73 186.42 43.39 186.42 51.73 186.42 58.78 186.42 78.24 186.42 106.95 186.42 145.03 186.42 147.46 186.42 147.99 186.49 148.25 186.59 148.39 186.71 148.58 186.86 148.74 186.94 149.01 186.94 150.22 186.94 170.44 186.94 171.22 186.9 171.5 186.69 171.69 186.55 171.91 186.42 172.35 186.42 172.69 186.42 173.34 186.42 176.58 186.42 177.33 186.49 177.61 186.61 177.85 186.72 178.06 186.85 178.28 187.02 178.48"/><polyline class="cls-35" points="192.23 179.68 191.75 179.77 191.4 179.72 191 179.68 190.62 179.56 190.24 179.4 189.93 179.24 189.6 178.92 189.4 178.69 189.3 178.35 189.23 177.93 189.23 174.42 189.23 162.46 189.23 152.52 189.23 124.57 189.23 82.44 189.23 47.93 189.23 41.73 189.23 41.28 189.33 40.97 189.41 40.64 189.59 40.33 189.83 39.97 190.02 39.8 190.21 39.68 190.42 39.63 190.66 39.52 190.87 39.5 191.07 39.5 191.35 39.46 191.63 39.46 191.75 39.46 191.89 39.46 192.14 39.49 191.85 39.72 191.63 39.95 191.46 40.2 191.3 40.52 191.24 40.81 191.2 41.19 191.19 41.61 191.19 42 191.19 49.37 191.19 71.5 191.19 98.14 191.19 121.93 191.19 151.3 191.19 176.16 191.19 178.28 191.19 178.59 191.25 178.8 191.45 179.05 191.6 179.2 192.23 179.68"/><path class="cls-19" d="M405.26,401.42" transform="translate(-213.91 -361.04)"/><path class="cls-19" d="M405.42,401.16" transform="translate(-213.91 -361.04)"/><path class="cls-19" d="M404.93,400.12" transform="translate(-213.91 -361.04)"/><polygon class="cls-36" points="190.05 179.29 189.77 179.29 189.3 179.21 188.76 179.05 188.34 178.95 187.88 178.79 187.58 178.69 187.25 178.59 187.02 178.48 186.85 178.28 186.72 178.06 186.61 177.85 186.49 177.61 186.42 177.33 186.42 172.69 186.42 172.35 186.55 171.91 186.69 171.69 186.9 171.5 186.94 171.22 186.94 170.44 186.94 169.09 186.95 168.56 186.93 166.16 186.95 163.45 186.95 159.73 186.95 156.46 186.95 152.15 186.94 149.01 186.86 148.74 186.71 148.58 186.59 148.39 186.49 148.25 186.42 147.99 186.42 147.46 186.42 145.72 186.42 143.68 186.42 129.74 186.42 102.2 186.42 78.24 186.42 62.63 186.42 46.73 186.42 42.73 186.42 41.98 186.49 41.69 186.55 41.46 186.77 41.19 187.01 40.85 187.26 40.59 187.56 40.35 187.93 40.15 188.27 40.08 188.74 39.93 189.23 39.85 189.62 39.82 189.82 39.82 189.96 39.85 189.77 40.06 189.66 40.22 189.52 40.45 189.45 40.57 189.38 40.75 189.35 40.9 189.3 41.06 189.26 41.19 189.23 41.4 189.23 41.55 189.23 41.9 189.23 50.58 189.23 65.24 189.23 85.26 189.23 114.68 189.23 148.64 189.23 167.01 189.23 177.41 189.25 178.08 189.33 178.46 189.48 178.78 189.68 179 190.05 179.29"/><polyline class="cls-37" points="195.06 180.21 194.79 180.35 194.08 180.35 193.38 180.21 192.79 179.95 192.23 179.68 191.69 179.29 191.34 178.94 191.19 178.69 191.19 177.7 191.19 176.77 191.19 148.87 191.19 102.87 191.19 41.28 191.25 40.66 191.35 40.38 191.51 40.11 191.76 39.79 192.14 39.49 192.58 39.3 193.13 39.13 193.63 38.96 194.19 38.82 194.69 38.69 195.06 38.62 195.29 38.65 194.4 39.68 194.31 48.2 194.31 83.91 194.31 107.27 194.31 161.81 194.43 179.59 195.06 180.21"/><polyline class="cls-38" points="192.95 46.66 192.95 46.24 192.95 45.92 192.95 45.68 192.95 45.52 192.92 45.41 192.85 45.32 192.79 45.27 192.72 45.27 192.69 45.35 192.69 45.45 192.69 45.6 192.69 45.79 192.69 45.97 192.69 46.18 192.69 46.38 192.69 46.54 192.69 46.63 192.66 46.72 192.58 46.76 192.5 46.72 192.45 46.61 192.45 46.51 192.45 46.25 192.45 45.94 192.45 45.71 192.45 45.51 192.45 45.27"/><polygon class="cls-38" points="193 49.29 193 48.91 193 48.62 193 48.4 193 48.3 192.97 48.16 192.95 48.08 192.88 48.01 192.8 47.93 192.7 47.93 192.6 47.93 192.45 47.93 192.4 48.05 192.35 48.19 192.33 48.35 192.33 48.47 192.33 48.75 192.33 49.15 192.33 49.26 192.33 49.43 192.38 49.68 192.45 49.81 192.64 49.84 192.81 49.77 192.95 49.69 193 49.56 193 49.29"/><polyline class="cls-38" points="192.42 50.89 192.66 50.89 192.85 50.89 193 50.89 193.05 51.04 193.05 51.2 192.93 51.38 192.42 52.15 192.37 52.28 192.37 52.43 192.42 52.57 192.6 52.57 192.75 52.57 192.89 52.57 193.05 52.57"/><polyline class="cls-38" points="193.05 53.99 192.91 54.12 192.81 54.24 192.71 54.35 192.63 54.48 192.63 54.61 192.63 54.73 192.71 54.89 192.84 55 192.97 55.09 193.05 55.14"/><polyline class="cls-38" points="192.24 54.62 192.37 54.62 192.51 54.62 192.63 54.61"/><polyline class="cls-39" points="193.24 162.4 193.24 163.13 193.24 164.19 193.24 165.57 193.19 165.78 193.07 165.88 192.92 165.88 192.81 165.88 192.75 165.77 192.75 165.42 192.75 165.05 192.75 162.8 192.73 162.62 192.65 162.5 192.57 162.4 192.48 162.34 192.37 162.28 192.24 162.24 192.12 162.24"/><polyline class="cls-39" points="193.2 170.83 193.2 170.07 193.2 169.54 193.2 168.97 193.17 168.78 193.07 168.68 192.95 168.63 192.78 168.63 192.58 168.63 192.37 168.63 192.25 168.57 192.19 168.42 192.19 168.17 192.19 167.8 192.19 167.57 192.19 167.01"/><polyline class="cls-39" points="191.75 174.52 193.06 174.52 193.16 174.52 193.16 174.19 192.46 171.65 192.41 171.48 192.35 171.33 192.28 171.25 192.15 171.25 192.13 171.42 192.14 171.55 192.13 171.78 192.19 175.26"/><circle class="cls-40" cx="257.04" cy="88.27" r="8.89"/><circle class="cls-41" cx="259.42" cy="89.64" r="10.27"/><circle class="cls-41" cx="262.58" cy="92.67" r="11.23"/><circle class="cls-41" cx="255.01" cy="91.96" r="11.23"/><circle class="cls-42" cx="261.14" cy="91.36" r="11.99"/><path class="cls-41" d="M408.22,539.79V401l.09-.26.13-.21.12-.19.12-.18.21-.18.16-.15.15-.13.18-.13.17-.13h152.3l.32.05.26.1.29.21.14.15.21.17.07.09.26.25.16.21.22.25.13.18V540l-.06.25-.13.22-.13.17-.15.16-.14.24-.19.17-.15.13-.25.12-.26.14-.4.12h-152l-.45-.17-.18,0-.27-.16-.33-.23-.28-.27-.2-.25-.12-.16v-.68Z" transform="translate(-213.91 -361.04)"/><polygon class="cls-43" points="269.69 102.27 269.69 106.81 269.69 111.42 269.69 115.24 269.69 115.74 269.79 115.86 269.96 115.92 270.16 115.99 270.4 116.08 270.75 116.24 271.01 116.33 271.33 116.38 271.63 116.48 271.9 116.59 272.23 116.67 272.54 116.74 272.84 116.77 273.02 116.77 273.13 116.66 273.13 116.47 273.13 115.61 273.13 114.3 273.13 113.46 273.13 112.6 273.13 111.62 273.13 110.24 273.13 108.88 273.13 107.67 273.13 106.27 273.13 105.38 273.19 105.17 273.3 105.01 273.44 104.9 273.56 104.84 273.68 104.84 273.81 104.83 273.91 104.84 274 104.87 274.12 104.96 274.18 105.06 274.25 105.21 274.32 105.38 274.32 105.54 274.32 106.43 274.32 107.66 274.32 108.74 274.32 109.85 274.32 110.22 274.45 110.37 274.64 110.47 274.81 110.54 274.99 110.59 275.18 110.66 275.36 110.69 275.66 110.79 275.89 110.83 276.08 110.83 276.19 110.83 276.4 110.83 276.56 110.84 276.79 110.83 276.97 110.76 277.13 110.62 277.33 110.47 277.49 110.3 277.63 110.18 277.77 110.06 277.9 109.84 278 109.63 278.12 109.41 278.18 109.16 278.25 108.89 278.31 108.68 278.31 108.42 278.31 108.25 278.31 108.01 278.31 107.69 278.31 107.42 278.31 107.18 278.31 106.94 278.26 106.69 278.18 106.53 278.09 106.35 278 106.14 277.87 105.94 277.74 105.71 277.63 105.56 277.51 105.38 277.31 105.11 277.1 104.88 276.87 104.67 276.47 104.4 276.11 104.24 275.77 103.99 275.41 103.88 274.58 103.55 274.06 103.39 273.45 103.22 272.67 102.97 272.02 102.73 271.46 102.53 271 102.41 270.72 102.39 270.48 102.37 270.19 102.36 270.06 102.35 269.69 102.27"/><path class="cls-39" d="M483.6,475.82" transform="translate(-213.91 -361.04)"/><path class="cls-39" d="M483.37,471.27" transform="translate(-213.91 -361.04)"/><polygon class="cls-43" points="269.69 114.78 269.46 114.85 269.25 115 269.14 115.06 268.88 115.09 268.62 115.09 268.37 115.09 268 115.09 267.62 115.09 267.04 115.09 266.43 115.09 265.96 115.05 265.53 115.03 265.29 114.97 264.98 114.93 264.66 114.93 264.36 114.85 264.07 114.78 263.79 114.68 263.54 114.61 263.27 114.51 263.05 114.4 262.81 114.27 262.59 114.15 262.41 113.99 262.29 113.88 262.22 113.77 262.22 113.61 262.16 113.46 262.16 113.27 262.27 113.13 262.42 113 262.64 112.82 262.87 112.7 263.24 112.51 263.61 112.34 264.07 112.18 264.66 111.98 265.07 111.85 265.59 111.67 266.07 111.5 266.63 111.32 267.28 111.11 267.89 110.92 268.35 110.81 268.87 110.63 269.21 110.54 269.46 110.47 269.69 110.44 269.69 110.75 269.69 111.21 269.69 111.68 269.69 112.03 269.69 112.17 269.56 112.24 269.46 112.29 269.29 112.33 269.12 112.42 268.89 112.52 268.61 112.62 268.25 112.71 267.94 112.82 267.48 112.96 267.19 113.03 266.9 113.1 266.67 113.2 266.43 113.27 266.16 113.36 265.96 113.41 265.78 113.49 265.65 113.58 265.57 113.7 265.58 113.8 265.63 113.92 265.78 114.02 265.93 114.12 266.15 114.13 266.42 114.13 266.67 114.08 266.93 114.03 267.4 113.87 267.74 113.82 268.15 113.67 268.54 113.56 268.89 113.4 269.22 113.27 269.39 113.24 269.69 113.17 269.69 113.4 269.69 113.75 269.69 114.24 269.69 114.78"/><polygon class="cls-43" points="273.86 111.85 274.5 111.6 275.13 111.48 275.71 111.34 276.18 111.24 276.63 111.24 277.13 111.16 277.46 111.16 277.92 111.16 278.31 111.16 278.73 111.23 279.04 111.25 279.46 111.28 279.92 111.32 280.44 111.42 280.77 111.49 281.11 111.66 281.41 111.81 281.69 111.98 282.05 112.09 282.32 112.26 282.51 112.49 282.65 112.64 282.72 112.89 282.72 113.06 282.63 113.27 282.49 113.49 282.32 113.65 282.12 113.84 281.91 113.98 281.61 114.14 281.38 114.27 281.01 114.43 280.69 114.55 280.32 114.67 279.99 114.75 279.68 114.83 279.32 114.9 278.91 114.99 278.47 115.16 277.98 115.35 277.49 115.5 276.99 115.66 276.53 115.82 275.93 116 275.32 116.2 274.79 116.38 274.21 116.51 273.84 116.51 273.49 116.57 273.13 116.57 273.13 115.78 273.13 115.27 273.36 115.14 273.71 115.03 274.13 114.89 274.69 114.73 275.36 114.53 275.78 114.39 276.32 114.15 276.98 113.86 277.57 113.56 278.11 113.43 278.47 113.31 278.88 113.19 279.1 113.1 279.35 112.99 279.51 112.89 279.52 112.77 279.48 112.64 279.31 112.55 279.15 112.51 278.79 112.46 278.51 112.45 278.31 112.48 277.92 112.57 277.61 112.63 277.18 112.77 276.8 112.8 276.4 112.94 276.04 113.11 275.71 113.21 275.32 113.32 275.03 113.45 274.57 113.65 274.21 113.81 273.92 113.86 273.7 113.92 273.13 114.04 273.13 113.56 273.13 112.98 273.13 112.47 273.13 112.22 273.13 112.03 273.32 111.96 273.6 111.91 273.86 111.85"/></g><g id="hands"><path class="cls-44" d="M328.55,662.09c-3.09,0-6.43-.19-10.5-.59-4.86-.48-7.5-.69-8.57-.69-.43,0-.93,0-1.1.4a.77.77,0,0,0,0,.25c-.26,0-.67,0-1.34,0-1.95,0-3.49,0-4.68,0C307,658,316.06,639,330.65,607.67c21-45.14,49.82-107,65.56-107a5.61,5.61,0,0,1,1.59.23c12,3.61,18.92,21.63,19.51,50.75.59,29.3-5.34,66.25-16.7,104a10.45,10.45,0,0,0-.29,2.4c-.09,1.73-.2,2.87-1,2.93l-3.59.25-3.74.2c-3.83.21-5.12.28-5.55.28h0c-.33-.2-1.38-.28-6.41-.28-7.43,0-8.88.19-9.3.39l-.63-.06-3-.33c-.2,0-.83,0-3.9,0-2.78,0-6.37,0-8.47,0H343c-2.92,0-5.21.15-7.43.3S331.25,662.09,328.55,662.09Z" transform="translate(-213.91 -361.04)"/><path d="M396.21,501.21a4.92,4.92,0,0,1,1.44.21c5.86,1.77,10.51,7.11,13.81,15.88s5.06,20.24,5.35,34.4c.59,29.25-5.33,66.14-16.68,103.88a10.52,10.52,0,0,0-.31,2.51c-.05,1-.12,2.43-.55,2.46l-3.59.25-3.74.2c-3.4.19-4.85.27-5.39.28-.56-.22-1.95-.28-6.55-.28-6.77,0-8.68.15-9.38.38l-.49,0c-.56-.06-1.48-.17-3-.32-.23,0-.89-.06-4-.06-2.78,0-6.37,0-8.47,0H343c-2.94,0-5.24.15-7.46.3s-4.3.29-7,.29c-3.08,0-6.4-.19-10.45-.59-4.94-.48-7.52-.69-8.62-.69-.46,0-1.23,0-1.54.67l-.94,0h-3.4c4.73-4.83,12.61-21.14,27.51-53.11,11-23.54,23.39-50.22,35.14-71.14,13.24-23.57,23.32-35.53,30-35.53m0-1c-26.19,0-84.48,160.64-95.25,161.34-7,.45,4.73.45,6,.45,4,0,.55-.69,2.48-.69,1,0,3.27.17,8.52.69,4.49.44,7.81.59,10.55.59,5.5,0,8.7-.59,14.45-.59h10c.67,0,6.22,0,10.15,0,2,0,3.51,0,3.85,0,2.92.3,3.61.4,3.8.4.38,0-1.22-.4,9.2-.4,8,0,5.54.28,6.42.28.45,0,1.73-.07,5.58-.28l3.74-.2,3.6-.25c2-.14,1.17-3.78,1.75-5.68,23.52-78.23,22.11-147.81-3.15-155.41a6.24,6.24,0,0,0-1.73-.25Zm5.16,161.3c-.24,0-1.8.08-5.63.29-2.35.16-3.06.22-2.82.22.66,0,9.07-.51,8.45-.51Z" transform="translate(-213.91 -361.04)"/><path class="cls-45" d="M390.94,519.27a10.05,10.05,0,0,1-1.56-.13c-9.59-1.55-15.1-17-12.28-34.48,2.63-16.26,11.83-29,20.94-29a10.05,10.05,0,0,1,1.56.13c4.59.74,8.4,4.7,10.73,11.14s2.92,14.83,1.55,23.34C409.25,506.53,400.05,519.27,390.94,519.27Z" transform="translate(-213.91 -361.04)"/><path d="M398,455.16v1h0a9,9,0,0,1,1.48.12c4.41.71,8.08,4.55,10.34,10.82,2.34,6.46,2.88,14.66,1.52,23.09-2.59,16-11.57,28.58-20.44,28.58a9,9,0,0,1-1.48-.12c-4.41-.71-8.08-4.55-10.35-10.82-2.33-6.46-2.87-14.66-1.51-23.09,2.58-16,11.57-28.58,20.44-28.58v-1m0,0c-9.35,0-18.72,12.63-21.43,29.42-2.87,17.77,2.81,33.46,12.69,35.05a10,10,0,0,0,1.64.14c9.35,0,18.72-12.63,21.43-29.42,2.87-17.77-2.81-33.46-12.69-35.06a11.22,11.22,0,0,0-1.64-.13Z" transform="translate(-213.91 -361.04)"/><path class="cls-44" d="M560.86,661.62c-1.4,0-3.29-.15-5.68-.35-4-.32-9.41-.77-16.18-.77H473a84.35,84.35,0,0,1-9.67-.66c-1.13-.13-2.22-.25-3.29-.34-1.42-.12-2.85-.18-4.36-.18s-2.94.06-4.05.12c-.82,0-1.52.07-2.1.07-1.33,0-1.48-.2-1.5-.24-.32-.68,2.84-4.33,7.61-9.86,4.3-5,10.2-11.82,18.34-21.79,23.56-28.88,38.62-59.31,50.71-83.75,12.79-25.84,22-44.51,33.63-44.51a12.14,12.14,0,0,1,3.47.53c21.52,6.47,22.46,58.56,2.8,154.83-1,5.1-1.18,5.89-1.08,6.16h0c-.07.32-.42.73-2.65.73Z" transform="translate(-213.91 -361.04)"/><path d="M558.31,499.86h0a11.57,11.57,0,0,1,3.33.51c11.27,3.39,16.81,20.07,16.46,49.57-.3,25.4-5,60.62-14,104.68-.88,4.32-1.15,5.65-1.11,6.21-.11.08-.55.29-2.13.29-1.38,0-3.26-.15-5.64-.35-4-.32-9.43-.77-16.22-.77H473a83.55,83.55,0,0,1-9.61-.66c-1.15-.12-2.23-.24-3.3-.34-1.44-.12-2.88-.18-4.41-.18s-3,.06-4.08.12c-.81,0-1.51.07-2.07.07a5.8,5.8,0,0,1-.94-.06c.5-1.19,3.45-4.61,7.42-9.21,4.31-5,10.21-11.82,18.36-21.81C498,599,513,568.56,525.14,544.09c12.71-25.68,21.88-44.23,33.17-44.23m0-1c-22.87,0-35.61,68.24-84.73,128.44C449.35,657,444,660,449.53,660c1.4,0,3.49-.19,6.15-.19,1.31,0,2.75,0,4.32.18a128.65,128.65,0,0,0,13,1h66c10.76,0,18,1.12,21.86,1.12,1.91,0,3-.28,3.14-1.12.12-.57.15-.74.15-.74s-.14.42-.17.42a55.23,55.23,0,0,1,1.1-5.86c16.35-80,22.12-147.81-3.14-155.41a12.64,12.64,0,0,0-3.62-.55Z" transform="translate(-213.91 -361.04)"/><path class="cls-45" d="M561.27,521.05a10.15,10.15,0,0,1-1.56-.12c-4.59-.74-8.4-4.7-10.73-11.14s-2.92-14.84-1.54-23.35c2.62-16.26,11.82-29,20.94-29a10.25,10.25,0,0,1,1.56.12c4.58.74,8.39,4.7,10.73,11.14s2.91,14.84,1.54,23.35C579.58,508.32,570.38,521.05,561.27,521.05Z" transform="translate(-213.91 -361.04)"/><path d="M568.38,457v1a9.23,9.23,0,0,1,1.48.12c9.31,1.5,14.63,16.71,11.85,33.91-2.58,16-11.56,28.57-20.44,28.57a9,9,0,0,1-1.48-.12c-4.4-.71-8.08-4.55-10.34-10.81-2.34-6.47-2.88-14.67-1.52-23.1,2.59-16,11.57-28.57,20.45-28.57v-1m0,0c-9.36,0-18.73,12.63-21.44,29.41-2.87,17.77,2.81,33.47,12.69,35.06a10,10,0,0,0,1.64.13c9.35,0,18.72-12.63,21.43-29.41,2.87-17.77-2.81-33.47-12.68-35.06a10.16,10.16,0,0,0-1.64-.13Z" transform="translate(-213.91 -361.04)"/></g></svg>