<?xml version="1.0" encoding="utf-8"?>
<!-- Generator: Adobe Illustrator 25.1.0, SVG Export Plug-In . SVG Version: 6.00 Build 0)  -->
<svg version="1.1" id="Layer_1" xmlns="http://www.w3.org/2000/svg" xmlns:xlink="http://www.w3.org/1999/xlink" x="0px" y="0px"
	 viewBox="0 0 1280 1024" style="enable-background:new 0 0 1280 1024;" xml:space="preserve">
<style type="text/css">
	.st0{fill:#A47449;stroke:#654321;stroke-width:5;stroke-miterlimit:10;}
	.st1{fill:#FBFFA2;stroke:#FFFFFF;stroke-width:3;stroke-miterlimit:10;}
	.st2{font-family:'MyriadPro-Regular';}
	.st3{font-size:41.4241px;}
	.st4{fill:#26272A;stroke:#000000;stroke-miterlimit:10;}
	.st5{fill:#3E3F44;stroke:#000000;stroke-miterlimit:10;}
	.st6{fill:#52545A;stroke:#000000;stroke-miterlimit:10;}
	.st7{fill:none;stroke:#000000;stroke-miterlimit:10;}
	.st8{fill:#282A2E;stroke:#000000;stroke-miterlimit:10;}
	.st9{fill:#2B2C31;stroke:#000817;stroke-miterlimit:10;}
	.st10{fill:none;stroke:#000000;stroke-width:0.25;stroke-miterlimit:10;}
	.st11{fill:none;stroke:#000817;stroke-miterlimit:10;}
	.st12{fill:#00B98F;stroke:#000817;stroke-miterlimit:10;}
	.st13{fill:#56585D;stroke:#000817;stroke-miterlimit:10;}
	.st14{fill:#FFFFFF;stroke:#000000;stroke-miterlimit:10;}
	.st15{fill:#FFFFFF;stroke:#000817;stroke-miterlimit:10;}
	.st16{fill:#948F8F;stroke:#000817;stroke-miterlimit:10;}
	.st17{fill:#1F2023;stroke:#000817;stroke-miterlimit:10;}
	.st18{opacity:0.73;fill:#ADB2AE;stroke:#4D4545;stroke-width:7;stroke-miterlimit:10;}
	.st19{fill:#4D4545;stroke:#4D4545;stroke-width:3;stroke-miterlimit:10;}
	.st20{fill:#B2B1AA;stroke:#000000;stroke-miterlimit:10;}
	.st21{stroke:#000000;stroke-miterlimit:10;}
	.st22{stroke:#000000;stroke-width:0.75;stroke-miterlimit:10;}
	.st23{fill:#B2B1AA;stroke:#000000;stroke-width:0.75;stroke-miterlimit:10;}
	.st24{fill:#FFFFFF;stroke:#ECBCB4;stroke-miterlimit:10;}
	.st25{fill:#ECBCB4;stroke:#ECBCB4;stroke-miterlimit:10;}
	.st26{stroke:#A27100;stroke-miterlimit:10;}
</style>
<rect x="1.99" y="2.21" class="st0" width="1277.01" height="1021.79"/>
<rect x="1.99" y="2.21" class="st1" width="1277.01" height="134.51"/>
<text transform="matrix(0.9553 0 0 1 302.1714 78.334)" class="st2 st3">The abandoned PS4 slowly opens its eyes...</text>
<polyline class="st4" points="295.88,901.71 293.51,901.71 290.02,901.11 286.78,900.18 284.68,899.05 282.46,897.59 280.62,895.86 
	279.54,894.13 278.39,892.4 278.39,885.89 278.39,866.67 278.39,769.77 278.39,644.37 278.39,540.94 278.39,418 278.39,263.45 
	278.39,261.09 278.39,258.77 278.39,257.64 279.2,255.95 280.44,254.37 281.84,252.45 283.3,251.26 285.19,250.08 286.64,249.57 
	288.31,248.89 290.52,248.33 292.14,247.93 293.76,247.93 294.89,247.71 295.88,247.71 296.73,247.71 297.18,247.71 295.82,248.29 
	294.05,249.73 293.16,251.42 292.53,253.79 292.53,255.74 292.53,259.9 292.53,303.28 292.53,358.05 292.53,445.17 292.53,486.57 
	292.53,596.65 292.53,707.09 292.53,801.98 292.53,897.81 293.77,899.76 295.88,901.71 "/>
<polyline class="st5" points="303.48,902.55 301.47,903.4 298.86,902.98 295.88,901.71 293.77,899.76 292.53,897.81 292.53,892.48 
	292.53,729.54 292.53,563.28 292.53,400.16 292.53,264.22 292.53,258.79 292.53,255.74 292.53,253.79 293.16,251.42 294.05,249.73 
	295.82,248.29 298,247.36 300.03,246.77 301.97,246.77 304.54,247.06 303.42,248.3 302.31,249.92 301.32,251.21 301.07,252.31 
	300.75,253.67 300.75,255.65 300.75,257.27 300.75,260.39 300.75,300.03 300.75,333.56 300.75,426.06 300.75,562.51 300.75,743.52 
	300.75,755.06 300.75,757.62 301.07,758.86 301.51,759.5 302.05,760.42 302.73,761.17 303.1,762.45 303.11,768.18 303.12,864.33 
	303.12,868.01 302.9,869.36 301.97,870.26 301.32,871.32 300.75,873.42 300.75,874.99 300.75,878.11 300.75,893.5 300.75,897.07 
	301.04,898.42 301.61,899.55 302.11,900.53 302.69,901.58 303.48,902.55 "/>
<polyline class="st6" points="327.13,908.24 324.95,908.68 323.36,908.46 321.56,908.24 319.81,907.68 318.07,906.92 316.69,906.16 
	315.18,904.65 314.28,903.52 313.8,901.95 313.5,899.93 313.5,883.25 313.5,826.38 313.5,779.14 313.5,646.27 313.5,445.98 
	313.5,281.97 313.5,252.49 313.5,250.37 313.95,248.89 314.32,247.29 315.12,245.81 316.23,244.14 317.07,243.3 317.93,242.77 
	318.89,242.51 319.99,241.98 320.93,241.87 321.84,241.87 323.13,241.7 324.41,241.7 324.95,241.7 325.57,241.7 326.71,241.86 
	325.39,242.93 324.4,244.05 323.62,245.19 322.92,246.71 322.62,248.1 322.44,249.91 322.4,251.91 322.4,253.79 322.4,288.8 
	322.4,394 322.4,520.66 322.4,633.74 322.4,773.35 322.4,891.52 322.4,901.58 322.4,903.06 322.69,904.07 323.59,905.26 
	324.28,905.96 327.13,908.24 "/>
<path class="st7" d="M323.13,246.07"/>
<path class="st7" d="M323.83,244.8"/>
<path class="st7" d="M321.6,239.88"/>
<polygon class="st8" points="317.24,906.4 315.96,906.4 313.81,906.01 311.37,905.26 309.45,904.79 307.37,904.04 305.99,903.53 
	304.48,903.08 303.48,902.55 302.69,901.58 302.11,900.53 301.61,899.55 301.04,898.42 300.75,897.07 300.75,874.99 300.75,873.42 
	301.32,871.32 301.97,870.26 302.9,869.36 303.12,868.01 303.12,864.33 303.1,857.88 303.13,855.36 303.07,844 303.13,831.11 
	303.13,813.43 303.13,797.85 303.13,777.4 303.1,762.45 302.73,761.17 302.05,760.42 301.51,759.5 301.07,758.86 300.75,757.62 
	300.75,755.06 300.75,746.83 300.75,737.1 300.75,670.84 300.75,539.94 300.75,426.06 300.75,351.87 300.75,276.24 300.75,257.27 
	300.75,253.67 301.07,252.31 301.32,251.21 302.31,249.92 303.42,248.3 304.54,247.06 305.9,245.93 307.57,244.99 309.12,244.65 
	311.29,243.95 313.5,243.58 315.27,243.41 316.2,243.41 316.79,243.58 315.94,244.58 315.46,245.29 314.81,246.39 314.5,246.96 
	314.19,247.85 314.03,248.55 313.83,249.31 313.64,249.92 313.5,250.93 313.5,251.66 313.5,253.28 313.5,294.57 313.5,364.25 
	313.5,459.4 313.5,599.26 313.5,760.71 313.5,848.03 313.5,897.46 313.6,900.62 313.95,902.45 314.65,903.99 315.54,905.02 "/>
<polyline class="st9" points="339.97,910.74 338.73,911.44 335.53,911.44 332.32,910.74 329.68,909.52 327.13,908.24 324.69,906.38 
	323.06,904.73 322.4,903.56 322.4,898.82 322.4,894.4 322.4,761.78 322.4,543.12 322.4,250.33 322.68,247.41 323.13,246.07 
	323.83,244.8 324.98,243.26 326.71,241.86 328.69,240.92 331.18,240.12 333.48,239.32 336.04,238.65 338.28,238.04 339.97,237.71 
	341.03,237.84 336.99,242.76 336.55,283.22 336.55,452.99 336.55,564.02 336.55,823.28 337.09,907.79 339.97,910.74 "/>
<polyline class="st10" points="330.37,275.93 330.37,273.93 330.37,272.41 330.37,271.26 330.37,270.52 330.24,269.96 
	329.94,269.54 329.65,269.31 329.32,269.31 329.19,269.68 329.19,270.16 329.19,270.89 329.19,271.79 329.19,272.62 329.19,273.62 
	329.19,274.61 329.19,275.34 329.19,275.79 329.05,276.19 328.7,276.38 328.35,276.19 328.14,275.71 328.14,275.2 328.14,273.96 
	328.14,272.5 328.14,271.4 328.14,270.47 328.14,269.31 "/>
<polygon class="st10" points="330.64,288.42 330.64,286.62 330.64,285.22 330.64,284.18 330.64,283.74 330.5,283.05 330.37,282.7 
	330.06,282.35 329.7,281.97 329.26,281.97 328.79,281.97 328.14,281.97 327.89,282.55 327.67,283.19 327.56,283.97 327.56,284.53 
	327.56,285.86 327.56,287.75 327.56,288.27 327.56,289.08 327.81,290.27 328.14,290.91 328.97,291.06 329.78,290.71 330.37,290.33 
	330.64,289.72 "/>
<polyline class="st10" points="327.99,296.05 329.1,296.05 329.92,296.05 330.64,296.05 330.87,296.74 330.87,297.5 330.28,298.37 
	327.99,302.03 327.77,302.64 327.77,303.37 327.99,304.01 328.79,304.01 329.48,304.01 330.14,304.01 330.87,304.01 "/>
<polyline class="st10" points="330.87,310.76 330.21,311.41 329.77,311.98 329.32,312.47 328.94,313.12 328.94,313.73 328.94,314.3 
	329.32,315.03 329.9,315.56 330.46,316.02 330.87,316.25 "/>
<polyline class="st10" points="327.15,313.77 327.77,313.77 328.39,313.77 328.94,313.73 "/>
<polyline class="st11" points="331.72,826.08 331.72,829.56 331.72,834.6 331.72,841.19 331.48,842.16 330.92,842.65 330.25,842.65 
	329.75,842.65 329.51,842.13 329.51,840.46 329.51,838.71 329.51,828 329.38,827.17 329.04,826.58 328.68,826.08 328.24,825.81 
	327.75,825.55 327.17,825.36 326.64,825.36 "/>
<polyline class="st11" points="331.54,866.18 331.54,862.56 331.54,860.06 331.54,857.36 331.38,856.45 330.92,855.96 
	330.37,855.74 329.64,855.74 328.72,855.74 327.74,855.74 327.19,855.42 326.92,854.74 326.92,853.55 326.92,851.78 326.92,850.7 
	326.92,848.03 "/>
<polyline class="st11" points="324.95,883.7 330.91,883.7 331.35,883.7 331.35,882.14 328.15,870.05 327.94,869.26 327.68,868.57 
	327.35,868.15 326.75,868.15 326.69,868.98 326.72,869.6 326.69,870.68 326.92,887.25 "/>
<ellipse class="st12" cx="621.42" cy="473.71" rx="40.37" ry="42.26"/>
<ellipse class="st13" cx="632.26" cy="480.25" rx="46.62" ry="48.8"/>
<ellipse class="st13" cx="646.58" cy="494.65" rx="51.01" ry="53.39"/>
<ellipse class="st13" cx="612.22" cy="491.26" rx="51.01" ry="53.39"/>
<ellipse class="st14" cx="640.07" cy="488.43" rx="54.43" ry="56.97"/>
<path class="st13" d="M336.55,903.79V673.2c0-20.89,0-87.24,0-118.12c0-4.16,0-9.61,0-14.81c0-1.56,0-3.1,0-4.58
	c0-4.76,0-8.86,0-10.88c0-1.66,0-3.32,0-4.99c0-56.54,0-113.09,0-169.63V248.94v-1.92v-1.67V244l0.44-1.24l0.57-0.97l0.53-0.92
	l0.57-0.87l0.92-0.83l0.75-0.74l0.7-0.6l0.8-0.62l0.77-0.62h2.13h35.19h18.3h28.38h28.1h22.8h26.92h20.43h21.07h16.07h23.65h22.25
	h27.11h18.84h18.75h21.61h22.75h28.79h87.85h95.11h80.84h15.22h4.53h3.26h1.72l1.45,0.21l1.14,0.51l1.32,0.97l0.66,0.74l0.97,0.83
	l0.31,0.41l1.19,1.2l0.7,0.97l1.01,1.2l0.57,0.87v1.93v25.61v55.34v49.77v68.6V566.6v89.16v77.82v74.75v69.56v25.9v1.16l-0.26,1.19
	l-0.6,1.06l-0.6,0.81l-0.66,0.75l-0.66,1.12l-0.83,0.81l-0.72,0.62l-1.13,0.56l-1.19,0.69l-1.79,0.56h-71.12h-73.75h-85.4h-71.2
	h-76.3h-91.23H367.8h-22.93l-2.03-0.8l-0.83-0.22l-1.2-0.76l-1.51-1.09l-1.25-1.26l-0.94-1.2l-0.54-0.76v-1.64V903.79z"/>
<ellipse class="st15" cx="622.3" cy="450.72" rx="3.68" ry="3.85"/>
<polygon class="st16" points="337.87,518.76 385.8,490.41 423.83,462.09 449.35,437.87 470.71,418.43 496.24,392.26 525.41,360.63 
	542.6,330.1 565,296.05 575.42,272.85 584.28,246.77 585.64,236.6 342.6,236.6 336.99,242.76 "/>
<path class="st16" d="M837.9,236.6c0,0-5.61-6.93,7.14,45.37c12.75,52.3,5.1,22.04,5.1,22.04s2.81,5.66,12.89,25.98
	c10.08,20.32-4-9.59,13.63,27.49s21.42,41.64,21.42,41.64l14.28,17.08l13.26,14.95l16.32,15.72l13.26,15.23l13.26,19.24l11.22,12.81
	l14.28,12.81l13.26,5.34l14.28,7.53l22.08,7.42V246.43l-7.87-9.62L837.9,236.6z"/>
<polygon class="st17" points="678.87,540.27 678.87,561.83 678.87,583.78 678.87,601.91 678.87,604.29 679.33,604.87 680.12,605.17 
	681.02,605.51 682.14,605.93 683.7,606.7 684.87,607.1 686.36,607.33 687.7,607.84 688.91,608.37 690.43,608.74 691.84,609.05 
	693.18,609.21 694.04,609.21 694.5,608.66 694.5,607.76 694.5,603.67 694.5,597.47 694.5,593.48 694.5,589.39 694.5,584.71 
	694.5,578.16 694.5,571.71 694.5,565.96 694.5,559.27 694.5,555.07 694.81,554.05 695.29,553.3 695.94,552.76 696.48,552.51 
	696.99,552.51 697.62,552.45 698.04,552.51 698.49,552.64 699,553.05 699.27,553.52 699.6,554.24 699.93,555.07 699.93,555.84 
	699.93,560.03 699.93,565.89 699.93,571.03 699.93,576.32 699.93,578.08 700.52,578.77 701.36,579.27 702.14,579.58 702.95,579.83 
	703.82,580.14 704.63,580.32 706.01,580.78 707.05,580.99 707.89,580.99 708.43,580.99 709.37,580.99 710.08,581.02 711.15,580.95 
	711.96,580.64 712.7,579.97 713.61,579.23 714.31,578.45 714.95,577.89 715.59,577.29 716.16,576.25 716.61,575.25 717.17,574.2 
	717.46,573.04 717.74,571.72 718.06,570.72 718.06,569.5 718.06,568.67 718.06,567.55 718.06,566.03 718.06,564.74 718.06,563.61 
	718.06,562.45 717.81,561.26 717.46,560.5 717.05,559.68 716.64,558.65 716.04,557.69 715.44,556.63 714.93,555.91 714.43,555.07 
	713.51,553.79 712.56,552.67 711.49,551.71 709.69,550.42 708.04,549.66 706.53,548.47 704.85,547.94 701.09,546.35 698.75,545.62 
	695.97,544.79 692.44,543.6 689.47,542.45 686.94,541.49 684.85,540.92 683.59,540.86 682.48,540.76 681.16,540.69 680.56,540.66 
	"/>
<path class="st11" d="M678.87,599.72"/>
<path class="st11" d="M677.84,578.07"/>
<polygon class="st17" points="678.87,599.72 677.84,600.08 676.89,600.78 676.41,601.05 675.2,601.21 674.02,601.21 672.88,601.21 
	671.23,601.21 669.5,601.21 666.85,601.21 664.09,601.21 661.96,601.01 660.01,600.94 658.91,600.63 657.51,600.46 656.04,600.46 
	654.68,600.05 653.35,599.72 652.1,599.28 650.96,598.94 649.75,598.43 648.72,597.93 647.65,597.32 646.66,596.74 645.82,595.97 
	645.26,595.47 644.97,594.93 644.97,594.2 644.71,593.47 644.71,592.55 645.19,591.89 645.85,591.28 646.88,590.43 647.91,589.85 
	649.6,588.93 651.29,588.16 653.39,587.39 656.04,586.43 657.91,585.81 660.27,584.96 662.44,584.15 664.97,583.31 667.95,582.31 
	670.71,581.38 672.81,580.84 675.16,580 676.71,579.57 677.84,579.27 678.87,579.11 678.87,580.57 678.87,582.77 678.87,585 
	678.87,586.66 678.87,587.31 678.29,587.66 677.84,587.89 677.07,588.12 676.3,588.5 675.27,589 673.98,589.47 672.33,589.89 
	670.97,590.43 668.84,591.08 667.55,591.43 666.23,591.74 665.2,592.24 664.09,592.55 662.88,592.97 661.96,593.24 661.11,593.62 
	660.56,594.05 660.19,594.59 660.23,595.09 660.45,595.66 661.11,596.13 661.79,596.59 662.81,596.66 664.06,596.66 665.16,596.43 
	666.37,596.16 668.51,595.43 670.05,595.16 671.89,594.47 673.65,593.93 675.27,593.2 676.74,592.55 677.51,592.43 678.87,592.08 
	678.87,593.2 678.87,594.86 678.87,597.16 "/>
<polygon class="st17" points="697.84,585.83 700.76,584.61 703.61,584.07 706.23,583.38 708.35,582.93 710.39,582.93 712.65,582.54 
	714.19,582.54 716.26,582.54 718.06,582.54 719.94,582.85 721.34,582.94 723.28,583.12 725.36,583.3 727.73,583.78 729.21,584.09 
	730.77,584.91 732.13,585.64 733.4,586.44 735,586.97 736.27,587.77 737.12,588.83 737.75,589.54 738.05,590.74 738.05,591.58 
	737.67,592.55 737.04,593.62 736.27,594.37 735.34,595.25 734.37,595.92 733.02,596.67 731.96,597.29 730.31,598.09 728.83,598.62 
	727.18,599.2 725.65,599.59 724.26,599.99 722.61,600.3 720.75,600.75 718.76,601.54 716.56,602.43 714.31,603.18 712.03,603.93 
	709.96,604.69 707.21,605.53 704.46,606.5 702.04,607.34 699.42,607.96 697.73,607.96 696.16,608.23 694.5,608.23 694.5,604.51 
	694.5,602.07 695.57,601.45 697.14,600.92 699.04,600.26 701.62,599.51 704.62,598.53 706.53,597.87 708.98,596.76 711.99,595.39 
	714.69,593.93 717.15,593.31 718.76,592.73 720.62,592.2 721.63,591.76 722.78,591.22 723.5,590.74 723.54,590.16 723.33,589.54 
	722.56,589.14 721.85,588.97 720.24,588.7 718.97,588.65 718.06,588.79 716.27,589.23 714.86,589.5 712.92,590.16 711.18,590.34 
	709.36,591 707.71,591.8 706.23,592.29 704.46,592.82 703.14,593.44 701.07,594.37 699.42,595.12 698.11,595.39 697.09,595.65 
	694.5,596.23 694.5,593.93 694.5,591.18 694.5,588.74 694.5,587.59 694.5,586.66 695.4,586.35 696.63,586.09 "/>
<ellipse class="st18" cx="581.9" cy="446.87" rx="62.81" ry="100.52"/>
<ellipse class="st18" cx="781.84" cy="442.12" rx="62.81" ry="100.52"/>
<polygon class="st19" points="449.35,437.87 510.96,437.87 510.96,458.57 427.54,458.57 "/>
<rect x="650.03" y="437.87" class="st19" width="63.39" height="20.7"/>
<polygon class="st19" points="850.04,437.87 932.6,437.87 952.14,458.57 850.04,458.57 "/>
<polygon class="st20" points="550.89,327.32 559.36,319.5 570.83,310.05 577.8,307.31 590.49,304.9 606.21,304.9 615.61,304.9 
	628.51,304.9 635.08,304.9 637.1,304.9 640.59,307.31 640.59,312.8 640.59,318.98 640.59,324.72 637.1,327.32 636.36,329.93 
	619.08,332.54 612.68,332.54 604.71,332.54 595.74,332.54 581.79,332.54 571.32,332.54 561.36,332.54 557.87,332.54 554.38,332.54 
	"/>
<polygon class="st20" points="739.55,322.38 748.02,314.56 759.48,305.11 766.46,302.37 779.14,299.95 794.86,299.95 804.26,299.95 
	817.17,299.95 823.74,299.95 825.76,299.95 829.24,302.37 829.24,307.85 829.24,314.04 829.24,319.77 825.76,322.38 825.02,324.99 
	807.74,327.6 801.34,327.6 793.37,327.6 784.4,327.6 770.44,327.6 759.98,327.6 750.01,327.6 746.53,327.6 743.04,327.6 "/>
<polygon class="st21" points="629.32,344.79 635.82,340.39 641.56,338.39 646.14,336.38 651.12,336.38 654.56,336.38 658.76,336.38 
	664.5,337.98 668.7,338.79 675.78,338.79 680.56,338.39 688.21,337.98 694.71,333.98 700.44,331.98 708.09,329.98 713.44,329.98 
	717.65,329.98 723,332.38 728.35,335.18 731.8,337.38 733.71,339.99 723,337.38 717.27,335.58 712.68,335.18 704.26,337.38 
	699.68,340.39 693.94,342.1 686.68,344.79 678.26,344.79 668.7,344.79 662.97,342.1 655.7,342.1 651.88,342.1 646.91,342.1 
	641.94,344.79 637.35,344.79 "/>
<polygon class="st21" points="629.32,364.43 635.82,360.02 641.56,358.02 646.14,356.02 651.12,356.02 654.56,356.02 658.76,356.02 
	664.5,357.62 668.7,358.42 675.78,358.42 680.56,358.02 688.21,357.62 694.71,353.62 700.44,351.62 708.09,349.62 713.44,349.62 
	717.65,349.62 723,352.02 728.35,354.82 731.8,357.02 733.71,359.62 723,357.02 717.27,355.22 712.68,354.82 704.26,357.02 
	699.68,360.02 693.94,361.74 686.68,364.43 678.26,364.43 668.7,364.43 662.97,361.74 655.7,361.74 651.88,361.74 646.91,361.74 
	641.94,364.43 637.35,364.43 "/>
<polygon class="st22" points="581.44,600.23 571.74,605.27 561.32,613.19 552.71,623.13 542.31,634.11 533.72,647.12 525.12,660.12 
	515.82,676.01 506.15,690.25 500.07,699.34 492.93,715.81 485.78,729.2 481.52,746.45 477.98,760.82 488.34,740.63 498.17,725.73 
	509.45,704.94 516.61,691.55 522.86,678.67 534.14,662.56 542.73,648.02 552.41,636.84 560.28,623.64 "/>
<polygon class="st22" points="902.16,748.27 899.95,738.08 895.33,726.21 888.47,715.16 881.09,702.17 871.48,690 861.86,677.82 
	849.84,663.98 839.36,650.43 832.67,641.85 819.6,629.65 809.29,618.57 794.85,608.57 782.81,600.23 798.44,616.57 809.46,630.51 
	825.41,647.85 835.72,658.93 845.77,669.05 857.53,684.67 868.53,697.41 876.25,709.84 886.21,721.47 "/>
<polygon class="st23" points="577.87,612.94 574.04,615.07 572.51,617.75 572.51,620.42 572.51,624.7 570.47,631.64 569.19,638.32 
	567.66,647.41 567.66,659.97 565.1,673.07 565.1,681.35 565.1,703 566.38,723.31 568.42,734.26 571.49,745.22 574.55,756.44 
	583.74,774.62 588.85,781.83 591.91,787.44 596,789.58 594.21,775.68 594.21,770.07 596,766.33 600.85,781.03 609.02,799.2 
	616.93,810.16 623.82,818.44 630.97,825.92 636.33,829.93 638.63,829.93 638.63,823.79 636.84,815.24 636.59,810.96 642.97,823.79 
	648.33,831.27 653.44,836.61 659.57,842.49 666.97,847.3 673.86,851.85 678.97,854.52 683.86,856.39 685.35,856.39 688.93,854.52 
	698.37,848.91 707.05,843.83 712.92,839.02 719.05,832.34 724.67,825.39 729.26,817.11 731.82,811.23 731.82,817.37 730.29,824.86 
	729.01,829.4 730.29,830.73 733.6,829.4 736.41,825.66 745.09,817.91 751.99,809.89 756.58,803.21 761.94,793.86 765.77,784.77 
	769.35,774.35 771.64,766.6 771.64,771.68 773.43,777.82 773.43,783.97 771.39,790.38 773.43,789.85 776.75,787.18 781.6,779.96 
	786.71,770.34 792.32,761.25 794.88,752.43 798.75,738.57 801.42,721.34 801.42,710.35 802.25,690.75 801.01,667.06 799.57,655.86 
	795.66,633.46 793.4,623.55 791.75,617.73 787.43,612.94 784.55,612.94 "/>
<ellipse class="st24" cx="581.05" cy="442.12" rx="50.47" ry="77.71"/>
<polygon class="st25" points="531.87,424.71 539.83,397.31 551.16,379.51 559.58,371.78 571.24,365.88 581.05,364.41 588.99,365.37 
	597.55,368.66 601.23,370.88 606.63,375.14 612.22,381.03 615.74,385.7 621.61,395.88 625.12,404.25 627.37,411.22 628.87,417.23 
	628.87,420.57 628.87,422.79 630.24,424.71 "/>
<ellipse class="st24" cx="781.84" cy="442.12" rx="50.47" ry="77.71"/>
<polygon class="st25" points="732.66,424.71 740.62,397.31 751.95,379.51 760.36,371.78 772.03,365.88 781.84,364.41 789.77,365.37 
	798.34,368.66 802.02,370.88 807.42,375.14 813.01,381.03 816.53,385.7 822.4,395.88 825.91,404.25 828.15,411.22 829.65,417.23 
	829.65,420.57 829.65,422.79 831.02,424.71 "/>
<ellipse class="st26" cx="610.76" cy="473.71" rx="16.65" ry="17.42"/>
<ellipse class="st14" cx="618.95" cy="480.51" rx="4.71" ry="4.93"/>
<ellipse class="st26" cx="811.55" cy="473.71" rx="16.65" ry="17.42"/>
<ellipse class="st14" cx="819.74" cy="480.51" rx="4.71" ry="4.93"/>
</svg>
