<?xml version="1.0" encoding="utf-8"?>
<!-- Generator: Adobe Illustrator 25.1.0, SVG Export Plug-In . SVG Version: 6.00 Build 0)  -->
<svg version="1.1" id="Layer_1" xmlns="http://www.w3.org/2000/svg" xmlns:xlink="http://www.w3.org/1999/xlink" x="0px" y="0px"
	 viewBox="0 0 1280 445" style="enable-background:new 0 0 1280 445;" xml:space="preserve">
<style type="text/css">
	.st0{fill:#FFFFFF;stroke:#000000;stroke-width:5;stroke-miterlimit:10;}
	.st1{fill:#A47449;stroke:#654321;stroke-width:5;stroke-miterlimit:10;}
	.st2{fill:#654321;stroke:#654321;stroke-width:5;stroke-miterlimit:10;}
	.st3{fill:#D48BFF;stroke:#D48BFF;stroke-width:3;stroke-miterlimit:10;}
	.st4{font-family:'MyriadPro-Regular';}
	.st5{font-size:18.0127px;}
	.st6{fill:#696969;stroke:#A9A9A9;stroke-width:3;stroke-miterlimit:10;}
	.st7{fill:#8BFFBC;stroke:#A9A9A9;stroke-miterlimit:10;}
	.st8{fill:#2EFFC1;stroke:#A9A9A9;stroke-miterlimit:10;}
	.st9{stroke:#000000;stroke-miterlimit:10;}
	.st10{fill:#AFAEB2;stroke:#000000;stroke-miterlimit:10;}
	.st11{fill:#8E8D91;stroke:#000000;stroke-miterlimit:10;}
	.st12{fill:#86D6DA;stroke:#000000;stroke-width:0.5;stroke-miterlimit:10;}
	.st13{fill:#868589;stroke:#000000;stroke-width:0.5;stroke-miterlimit:10;}
	.st14{fill:#98D4D9;stroke:#000000;stroke-width:0.5;stroke-miterlimit:10;}
	.st15{fill:#ACAEB1;stroke:#000000;stroke-miterlimit:10;}
	.st16{fill:#5CB7A4;stroke:#000000;stroke-width:0.25;stroke-miterlimit:10;}
	.st17{fill:#8A898D;stroke:#000000;stroke-width:0.25;stroke-miterlimit:10;}
	.st18{fill:#73B5A5;stroke:#000000;stroke-width:0.25;stroke-miterlimit:10;}
	.st19{fill:#87868A;stroke:#000000;stroke-width:0.25;stroke-miterlimit:10;}
	.st20{fill:#82B3A6;stroke:#000000;stroke-width:0.25;stroke-miterlimit:10;}
	.st21{fill:#8D8C90;stroke:#000000;stroke-width:0.25;stroke-miterlimit:10;}
	.st22{fill:none;stroke:#000000;stroke-miterlimit:10;}
	.st23{fill:none;stroke:#000000;stroke-width:0.5;stroke-miterlimit:10;}
	.st24{fill:#555358;stroke:#000000;stroke-width:0.5;stroke-miterlimit:10;}
	.st25{fill:#B7B7B9;stroke:#000000;stroke-width:0.5;stroke-miterlimit:10;}
	.st26{fill:#505150;stroke:#000000;stroke-width:0.5;stroke-miterlimit:10;}
	.st27{fill:#F3AB40;}
	.st28{fill:#E9AD55;}
	.st29{fill:#43967F;}
	.st30{fill:#245EA9;}
	.st31{fill:#ADAEB1;}
	.st32{fill:none;}
	.st33{fill:#599480;}
	.st34{fill:#2964BF;}
	.st35{fill:#C6332A;}
	.st36{fill:#FFF2EB;stroke:#000000;stroke-miterlimit:10;}
	.st37{fill:#FFF7F3;stroke:#000000;stroke-miterlimit:10;}
	.st38{fill:#6C707F;stroke:#000000;stroke-miterlimit:10;}
	.st39{fill:#FFC4A6;stroke:#000000;stroke-miterlimit:10;}
	.st40{fill:#FFDAC3;stroke:#000000;stroke-miterlimit:10;}
	.st41{fill:#E5EAFF;stroke:#000000;stroke-miterlimit:10;}
	.st42{fill:#CB997E;stroke:#000000;stroke-miterlimit:10;}
	.st43{fill:url(#SVGID_1_);stroke:#000000;stroke-miterlimit:10;}
	.st44{fill:url(#SVGID_2_);stroke:#000000;stroke-miterlimit:10;}
	.st45{fill:none;stroke:#000817;stroke-miterlimit:10;}
	.st46{fill:#26272A;stroke:#000000;stroke-miterlimit:10;}
	.st47{fill:#3E3F44;stroke:#000000;stroke-miterlimit:10;}
	.st48{fill:#52545A;stroke:#000000;stroke-miterlimit:10;}
	.st49{fill:#282A2E;stroke:#000000;stroke-miterlimit:10;}
	.st50{fill:#2B2C31;stroke:#000817;stroke-miterlimit:10;}
	.st51{fill:none;stroke:#000000;stroke-width:0.25;stroke-miterlimit:10;}
	.st52{fill:#00B98F;stroke:#000817;stroke-miterlimit:10;}
	.st53{fill:#56585D;stroke:#000817;stroke-miterlimit:10;}
	.st54{fill:#FFFFFF;stroke:#000000;stroke-miterlimit:10;}
	.st55{fill:#FFFFFF;stroke:#000817;stroke-miterlimit:10;}
	.st56{fill:#948F8F;stroke:#000817;stroke-miterlimit:10;}
	.st57{fill:#1F2023;stroke:#000817;stroke-miterlimit:10;}
	.st58{opacity:0.73;fill:#ADB2AE;stroke:#4D4545;stroke-width:7;stroke-miterlimit:10;}
	.st59{fill:#4D4545;stroke:#4D4545;stroke-width:3;stroke-miterlimit:10;}
	.st60{fill:#B2B1AA;stroke:#000000;stroke-miterlimit:10;}
	.st61{stroke:#000000;stroke-width:0.75;stroke-miterlimit:10;}
	.st62{fill:#B2B1AA;stroke:#000000;stroke-width:0.75;stroke-miterlimit:10;}
	.st63{fill:#FFFFFF;stroke:#ECBCB4;stroke-miterlimit:10;}
	.st64{fill:#ECBCB4;stroke:#ECBCB4;stroke-miterlimit:10;}
	.st65{stroke:#A27100;stroke-miterlimit:10;}
	.st66{fill:#8BE1FF;stroke:#A27100;stroke-width:0.25;stroke-miterlimit:10;}
</style>
<rect x="3.35" y="-0.04" class="st0" width="1272.9" height="445.06"/>
<polygon class="st1" points="4.1,-0.04 4.1,444.58 1277,444.58 1277,0.26 "/>
<rect x="4.1" y="13.47" class="st2" width="1272.15" height="17.01"/>
<rect x="4.66" y="264.46" class="st2" width="1272.15" height="17.01"/>
<path class="st3" d="M238.04,137.3H112.41c-15.46,0-28-12.54-28-28V81.24c0-15.46,12.54-28,28-28h125.63c15.46,0,28,12.54,28,28
	v28.06C266.04,124.77,253.5,137.3,238.04,137.3z"/>
<polyline class="st3" points="260.03,113.29 260.03,132.8 240.52,132.8 "/>
<text transform="matrix(1 0 0 1 119.5557 97.9966)" class="st4 st5">Is it terrifying~?</text>
<polygon class="st6" points="189.29,444.58 165.47,366.96 189.29,293.42 279.45,293.42 302.08,369 279.45,444.58 "/>
<rect x="192.49" y="312.93" class="st7" width="85.46" height="54.57"/>
<ellipse transform="matrix(0.9521 -0.3056 0.3056 0.9521 -112.7405 78.6541)" class="st7" cx="194.81" cy="399.36" rx="7.31" ry="14.3"/>
<ellipse transform="matrix(0.4072 -0.9133 0.9133 0.4072 -199.9722 490.0172)" class="st7" cx="277.52" cy="399.07" rx="14.3" ry="7.31"/>
<polygon class="st8" points="228.51,402.99 251.03,402.99 259.43,387.98 210.46,387.98 219.99,402.99 "/>
<ellipse class="st7" cx="205.63" cy="430.74" rx="14.3" ry="7.31"/>
<ellipse class="st7" cx="237.15" cy="430.74" rx="14.3" ry="7.31"/>
<ellipse class="st7" cx="268.67" cy="430.74" rx="14.3" ry="7.31"/>
<path class="st6" d="M525.71,444.58c0,0-3.01-95.09,0-104.37c3.01-9.27,31.53-37.79,79.56-37.79c48.03,0,65.23,27.55,66.39,37.79
	c1.16,10.24,0,104.37,0,104.37"/>
<path class="st9" d="M542.23,342.95v21.48c0,0,13.51-0.46,16.51-0.46c3,0,9.03-1.04,9.02-10.28s-6.46-10.74-9.24-10.74
	S542.23,342.95,542.23,342.95z"/>
<path class="st9" d="M542.23,384.98v21.48c0,0,13.51-0.46,16.51-0.46c3,0,9.03-1.04,9.02-10.28c-0.01-9.24-6.46-10.74-9.24-10.74
	S542.23,384.98,542.23,384.98z"/>
<path class="st9" d="M585.76,342.95v21.48c0,0,13.51-0.46,16.51-0.46c3,0,9.03-1.04,9.02-10.28c-0.01-9.24-6.46-10.74-9.24-10.74
	C599.27,342.95,585.76,342.95,585.76,342.95z"/>
<path class="st9" d="M585.76,384.98v21.48c0,0,13.51-0.46,16.51-0.46c3,0,9.03-1.04,9.02-10.28c-0.01-9.24-6.46-10.74-9.24-10.74
	C599.27,384.98,585.76,384.98,585.76,384.98z"/>
<path class="st9" d="M585.76,418v21.48c0,0,13.51-0.46,16.51-0.46c3,0,9.03-1.04,9.02-10.28c-0.01-9.24-6.46-10.74-9.24-10.74
	C599.27,418,585.76,418,585.76,418z"/>
<path class="st9" d="M632.3,384.98v21.48c0,0,13.51-0.46,16.51-0.46c3,0,9.03-1.04,9.02-10.28c-0.01-9.24-6.46-10.74-9.24-10.74
	C645.81,384.98,632.3,384.98,632.3,384.98z"/>
<path class="st9" d="M633.8,418v21.48c0,0,13.51-0.46,16.51-0.46c3,0,9.03-1.04,9.02-10.28c-0.01-9.24-6.46-10.74-9.24-10.74
	S633.8,418,633.8,418z"/>
<polygon class="st10" points="884.27,269.35 850.56,269.35 850.29,269.26 850.03,269.14 849.79,268.97 849.51,268.76 849.15,268.48 
	848.85,268.26 848.64,268.04 848.39,267.89 848.26,267.73 848.2,267.56 848.2,267.37 848.2,267.14 848.2,265.61 848.2,263.73 
	848.2,262.04 848.2,260.14 848.2,259.24 848.2,258.74 848.2,255.99 848.38,255.77 848.7,255.74 849.27,255.67 849.66,255.62 
	850.34,255.51 850.86,255.42 851.62,255.26 852.34,255.06 852.96,254.9 853.62,254.71 854.43,254.42 854.73,254.32 855.01,254.22 
	855.24,254.12 855.43,254.05 855.61,253.98 855.86,253.87 856.18,253.73 856.49,253.59 856.84,253.44 857.23,253.24 857.66,253.02 
	857.97,252.85 858.3,252.65 858.73,252.38 859.08,252.14 859.51,251.83 859.77,251.67 860.05,251.47 860.38,251.27 860.59,251.12 
	860.85,250.92 861.1,250.74 861.38,250.55 861.71,250.26 862,249.99 862.19,249.81 862.43,249.55 862.64,249.34 862.87,249.12 
	863.06,248.94 863.29,248.72 863.56,248.43 863.77,248.19 864.08,247.84 864.37,247.48 864.64,247.08 864.91,246.72 865.17,246.29 
	865.42,245.89 865.82,245.33 866.14,244.75 866.37,244.22 866.67,243.63 866.99,242.92 867.3,242.14 867.58,241.27 867.87,240.31 
	868.16,239.06 868.29,238.43 868.43,237.61 868.48,236.7 868.53,235.31 868.49,233.63 868.45,232.48 868.31,231.6 868.04,230.61 
	867.75,229.6 867.4,228.52 866.98,227.38 866.47,226.26 865.9,225.34 865.31,224.43 864.42,223.16 863.79,222.42 863.15,221.69 
	862.55,221.04 861.78,220.3 860.93,219.55 860.01,218.82 859.27,218.27 858.39,217.74 857.14,217.06 855.89,216.49 855.18,216.17 
	854.01,215.71 853.29,215.4 852.36,215.08 851.43,214.84 850.3,214.61 849.18,214.41 848.34,214.34 847.38,214.28 846.24,214.25 
	845.1,214.25 844.47,214.25 843.47,214.3 842.52,214.41 841.57,214.59 840.76,214.75 840.12,214.92 839.31,215.1 838.47,215.39 
	837.79,215.6 837.1,215.85 836.53,216.11 835.82,216.42 835.06,216.85 834.21,217.36 833.51,217.7 832.66,218.21 831.98,218.7 
	831.27,219.27 830.75,219.67 830.17,220.17 829.52,220.74 828.94,221.36 828.3,222.06 827.78,222.68 827.14,223.47 826.58,224.37 
	826.13,225.23 825.63,226.19 825.22,227.03 824.79,227.8 824.45,228.77 824.22,229.39 823.97,230.13 823.82,231.03 823.68,231.84 
	823.55,232.68 823.52,233.53 823.52,234.3 823.52,235.19 823.52,235.99 823.56,236.68 823.66,237.49 823.8,238.34 823.91,239.06 
	824.14,239.86 824.41,241.03 824.83,242.05 825.35,243.25 826.09,244.57 826.81,245.85 827.63,247.02 828.54,248.11 829.34,248.98 
	830.2,249.8 831.33,250.8 832.38,251.62 833.39,252.31 834.44,252.9 835.66,253.54 836.62,253.99 838.03,254.61 839.57,255.14 
	840.97,255.51 842.07,255.74 842.84,255.86 843.16,255.9 843.38,255.92 843.7,255.95 844,256.01 844.13,256.04 844.24,256.15 
	844.19,259.82 844.21,263.05 844.22,266.06 844.24,267.27 844.16,267.48 844,267.61 843.83,267.78 843.53,268.03 843.26,268.29 
	843.05,268.48 842.75,268.76 842.45,269.01 842.13,269.21 841.7,269.35 841.21,269.35 840.49,269.35 837.9,269.35 831.41,269.35 
	823.91,269.35 817.48,269.35 811.19,269.35 809.45,269.35 808.89,269.14 808.13,268.82 807.41,268.5 806.89,268.22 806.13,267.58 
	805.41,266.78 805.01,266.1 804.53,265.37 804.17,264.49 804.17,263.57 804.17,256.67 804.17,238.49 804.17,212.68 804.17,182.31 
	804.17,151.12 804.17,115.02 804.17,81.97 804.17,62.93 804.17,61.53 804.34,60.73 804.71,59.94 805.19,59.43 805.76,58.75 
	806.41,58.13 807.15,57.67 808,57.48 808.91,57.48 815.79,57.48 835.25,57.48 854.37,57.48 867.01,57.48 877.77,57.48 882.2,57.48 
	883.88,57.48 884.96,57.79 885.7,58.16 886.5,58.86 886.87,59.61 887.47,59.79 888.22,59.79 889.11,59.79 890.04,59.84 
	913.25,59.85 938.22,59.94 960.06,60.16 980.51,60.16 996.95,60.16 1011.76,60.2 1023.1,60.33 1034.87,60.54 1035.79,60.52 
	1036.68,60.11 1037.5,59.58 1038.17,58.95 1038.73,58.46 1039.11,58.13 1039.78,57.87 1040.9,57.72 1042.28,57.68 1050.03,57.48 
	1067.42,57.48 1099.18,57.48 1118.96,57.48 1120.49,57.74 1121.81,58.11 1122.93,58.65 1124.08,59.44 1124.95,60.47 1125.57,61.88 
	1125.78,63.74 1125.78,65.52 1125.78,88.39 1125.78,115.87 1125.78,144.78 1125.78,177 1125.78,204.39 1125.78,230.83 
	1125.78,257.08 1125.78,263.81 1125.78,264.97 1125.61,265.9 1125.34,266.62 1124.89,267.15 1124.28,267.74 1123.44,268.27 
	1122.63,268.55 1121.52,268.88 1120.48,269.09 1118.65,269.35 1116.79,269.35 1112.86,269.35 1105.49,269.35 1094.99,269.35 
	1083.3,269.35 1072.68,269.35 1063.24,269.35 1046.37,269.35 1045.71,269.22 1045.12,268.98 1044.7,268.71 1044.4,268.26 
	1044.29,267.74 1044.25,267.15 1044.22,266.66 1044.2,266.34 1044.02,266.12 1043.71,266.03 1043.28,266 1042.83,265.98 
	1041.48,265.96 1039.14,265.96 1029.62,265.95 1009.43,265.9 995.6,265.86 979.93,265.79 959.25,265.75 941.48,265.75 
	922.21,265.75 900.24,265.79 889.13,265.68 888.67,265.68 888.23,265.76 887.88,266.09 887.59,266.59 887.41,267.11 887.18,267.64 
	886.76,268 886.41,268.35 885.93,268.78 885.17,269.14 884.84,269.35 "/>
<polygon class="st11" points="1064.35,226.23 1064.08,226.7 1063.73,227.4 1063.29,228.25 1063.02,229.01 1062.68,229.93 
	1062.38,230.87 1062.13,231.73 1061.87,232.75 1061.78,233.37 1061.71,234.33 1061.71,235.15 1061.71,236.81 1061.71,237.37 
	1061.71,237.99 1061.84,238.67 1062.01,239.48 1062.13,240.26 1062.35,241.12 1062.56,241.74 1062.73,242.38 1063.03,243.15 
	1063.26,243.7 1063.53,244.32 1063.83,244.96 1064.1,245.56 1064.45,246.06 1064.8,246.63 1065.26,247.25 1065.68,247.87 
	1066.19,248.45 1066.63,249.02 1067.09,249.48 1067.57,250.05 1068,250.53 1068.46,250.85 1069.07,251.36 1069.67,251.82 
	1070.17,252.22 1070.6,252.54 1071.14,252.95 1071.79,253.27 1072.54,253.73 1073.17,254.1 1073.89,254.46 1074.62,254.8 
	1075.31,255.04 1075.98,255.31 1076.66,255.53 1077.25,255.72 1077.92,255.94 1078.6,256.15 1079.38,256.28 1080.08,256.44 
	1080.88,256.52 1081.75,256.63 1082.47,256.63 1083.66,256.63 1086.18,256.63 1087.02,256.63 1087.8,256.49 1088.57,256.41 
	1089.27,256.23 1090,256.04 1090.84,255.86 1091.46,255.67 1092.32,255.39 1093.25,255.02 1094.01,254.64 1094.87,254.29 
	1095.54,253.92 1096.26,253.51 1096.92,253.13 1097.61,252.66 1098.17,252.27 1098.77,251.77 1099.28,251.33 1099.93,250.75 
	1100.46,250.29 1100.87,249.91 1101.43,249.34 1101.84,248.84 1102.23,248.38 1102.66,247.78 1103.07,247.17 1103.48,246.6 
	1103.77,246.14 1104.09,245.58 1104.39,245.01 1104.65,244.51 1104.96,243.93 1105.23,243.3 1105.54,242.57 1105.78,242 
	1105.95,241.43 1106.08,240.85 1106.22,240.1 1106.33,239.56 1106.43,239.04 1106.51,238.53 1106.51,237.64 1106.51,236.81 
	1106.51,234.42 1106.51,233.82 1106.51,233.2 1106.33,232.3 1106.05,231.4 1105.79,230.52 1105.54,229.68 1105.23,228.95 
	1104.9,228.17 1104.47,227.27 1104.17,226.69 1103.82,226.03 1103.39,225.24 1102.96,224.63 1102.45,223.92 1101.83,223.17 
	1101.11,222.4 1100.65,221.93 1100.05,221.32 1099.25,220.67 1098.64,220.14 1097.99,219.65 1097.23,219.11 1096.4,218.6 
	1095.64,218.12 1094.74,217.68 1093.85,217.26 1092.91,216.86 1092.12,216.54 1091.29,216.26 1090.49,215.97 1089.68,215.75 
	1088.92,215.57 1088.03,215.4 1087.1,215.27 1086.18,215.19 1085.48,215.19 1082.38,215.19 1081.69,215.27 1080.97,215.38 
	1080.37,215.45 1079.51,215.62 1078.71,215.8 1077.98,215.97 1077.25,216.16 1076.6,216.34 1076.02,216.56 1075.42,216.8 
	1074.73,217.07 1074.1,217.31 1073.41,217.61 1072.74,217.98 1072.11,218.33 1071.49,218.73 1070.75,219.2 1070.21,219.6 
	1069.64,220.05 1069.18,220.4 1068.68,220.8 1068.14,221.27 1067.76,221.67 1067.17,222.23 1066.84,222.64 1066.41,223.12 
	1066.04,223.55 1065.6,224.04 1065.17,224.62 1064.86,225.13 "/>
<polygon class="st11" points="825.13,189.2 825.26,188.56 825.43,187.79 825.62,187.18 825.81,186.55 826.08,186.06 826.35,185.57 
	826.65,185.04 826.99,184.57 827.37,184.01 827.73,183.54 828.29,183.09 828.79,182.76 829.3,182.35 829.84,181.93 830.33,181.68 
	830.93,181.36 831.54,181.08 832.25,180.86 832.93,180.67 833.57,180.54 834.14,180.46 834.77,180.36 835.36,180.36 836.1,180.36 
	836.61,180.36 837.33,180.48 837.83,180.6 838.53,180.78 839.15,180.98 839.86,181.21 840.55,181.52 841.29,181.9 841.8,182.25 
	842.35,182.68 842.92,183.16 843.5,183.76 843.99,184.31 844.48,184.78 844.76,185.31 845.1,185.88 845.46,186.46 845.8,187.12 
	845.86,187.63 846.08,188.58 846.16,189.34 846.16,190.28 846.16,191.12 846.08,192.15 845.95,192.85 845.78,193.37 845.46,193.97 
	845.1,194.62 844.75,195.27 844.34,195.75 843.91,196.35 843.45,196.83 842.96,197.27 842.59,197.54 842.13,197.87 841.54,198.25 
	841.16,198.46 840.64,198.78 840.17,199 839.55,199.25 838.98,199.41 838.42,199.57 837.88,199.68 837.31,199.82 836.49,199.82 
	835.65,199.82 834.98,199.82 834.73,199.82 834.27,199.82 833.52,199.71 832.84,199.56 832.35,199.35 831.57,199.16 831.01,198.87 
	830.36,198.57 829.7,198.14 829.03,197.7 828.51,197.24 827.97,196.73 827.45,196.19 827.06,195.69 826.64,195.07 826.24,194.45 
	825.84,193.81 825.64,193.21 825.42,192.58 825.23,191.94 825.13,191.28 825.13,190.5 825.13,189.75 "/>
<polygon class="st11" points="849.27,255.67 849.66,255.62 850.34,255.51 850.86,255.42 851.62,255.26 852.34,255.06 852.96,254.9 
	853.62,254.71 854.43,254.42 854.73,254.32 855.01,254.22 855.24,254.12 855.61,253.98 855.86,253.87 856.18,253.73 856.49,253.59 
	856.84,253.44 857.23,253.24 857.66,253.02 857.97,252.85 858.3,252.65 858.73,252.38 859.08,252.14 859.51,251.83 860.05,251.47 
	860.38,251.27 860.85,250.92 861.1,250.74 861.38,250.55 861.71,250.26 862,249.99 862.43,249.55 862.64,249.34 863.06,248.94 
	863.29,248.72 863.77,248.19 864.08,247.84 864.37,247.48 864.64,247.08 864.91,246.72 865.17,246.29 865.42,245.89 865.82,245.33 
	866.14,244.75 866.37,244.22 866.67,243.63 866.99,242.92 867.3,242.14 867.58,241.27 867.87,240.31 868.16,239.06 868.29,238.43 
	868.43,237.61 868.48,236.7 868.53,235.31 868.49,233.63 868.45,232.48 868.31,231.6 868.04,230.61 867.75,229.6 867.4,228.52 
	866.98,227.38 866.47,226.26 865.9,225.34 865.31,224.43 864.42,223.16 863.79,222.42 863.15,221.69 862.55,221.04 861.78,220.3 
	860.93,219.55 860.01,218.82 859.27,218.27 858.39,217.74 857.14,217.06 855.89,216.49 855.18,216.17 854.01,215.71 853.29,215.4 
	852.36,215.08 851.43,214.84 850.3,214.61 849.18,214.41 848.34,214.34 847.38,214.28 846.24,214.25 845.1,214.25 844.47,214.25 
	843.47,214.3 842.52,214.41 841.57,214.59 840.76,214.75 840.12,214.92 839.31,215.1 838.47,215.39 837.79,215.6 837.1,215.85 
	836.53,216.11 835.82,216.42 835.06,216.85 834.21,217.36 833.51,217.7 832.66,218.21 831.98,218.7 831.27,219.27 830.75,219.67 
	830.17,220.17 829.52,220.74 828.94,221.36 828.3,222.06 827.78,222.68 827.14,223.47 826.58,224.37 826.13,225.23 825.63,226.19 
	825.22,227.03 824.79,227.8 824.45,228.77 824.22,229.39 823.97,230.13 823.82,231.03 823.68,231.84 823.55,232.68 823.52,233.53 
	823.52,234.3 823.52,235.19 823.52,235.99 823.56,236.68 823.66,237.49 823.8,238.34 823.91,239.06 824.14,239.86 824.41,241.03 
	824.83,242.05 825.35,243.25 826.09,244.57 826.81,245.85 827.63,247.02 828.54,248.11 829.34,248.98 830.2,249.8 831.33,250.8 
	832.38,251.62 833.39,252.31 834.44,252.9 835.66,253.54 836.62,253.99 838.03,254.61 839.57,255.14 840.97,255.51 842.07,255.74 
	842.84,255.86 843.38,255.92 843.86,255.92 844.36,255.92 844.91,255.92 845.65,255.92 846.27,255.92 847.25,255.92 847.81,255.92 
	848.06,255.92 848.38,255.77 848.7,255.74 "/>
<polygon class="st12" points="1076.39,236.8 1076.39,235.35 1076.84,234.9 1077.18,234.53 1077.71,234.24 1077.96,234.07 
	1079.35,234.07 1079.76,234.4 1080.1,234.61 1080.41,234.9 1080.61,235.25 1080.61,236.8 1080.61,237.01 1080.32,237.3 
	1080.01,237.63 1079.56,237.98 1078.13,237.98 1077.38,237.61 1076.72,237.13 "/>
<polygon class="st13" points="1077.98,237.11 1077.34,236.58 1077.34,235.46 1077.66,235.11 1077.98,234.84 1079.16,234.84 
	1079.64,235.17 1079.95,235.58 1079.95,236.68 1079.43,237.11 "/>
<polygon class="st12" points="1081.5,237.88 1081.5,234.13 1083.78,234.13 1084.22,234.44 1084.42,234.84 1084.42,235.97 
	1084.11,236.39 1083.76,236.51 1082.21,236.47 1082.19,237.88 "/>
<polygon class="st13" points="1082.19,234.84 1082.19,235.91 1083.55,235.91 1083.88,235.62 1083.88,235.13 1083.62,234.92 "/>
<polygon class="st14" points="1084.92,234.07 1084.94,237.98 1088.06,237.98 1088.06,237.11 1085.78,237.11 1085.78,236.37 
	1088.06,236.41 1088.06,235.54 1085.72,235.56 1085.67,234.84 1088.06,234.84 1088.04,234.07 "/>
<polygon class="st12" points="1088.75,234.07 1088.75,237.98 1089.81,237.98 1089.81,235.64 1089.81,235.37 1090.06,235.54 
	1090.35,236.01 1091.97,237.94 1092.01,238.03 1092.54,238.03 1092.63,238.03 1092.59,234.02 1092.06,234.02 1092.05,236.67 
	1092.05,236.79 1091.9,236.8 1091.77,236.68 1091.67,236.54 1089.89,234.15 1089.81,234.02 "/>
<polyline class="st15" points="850.56,269.35 849.07,269.35 847.83,269.35 846.31,269.35 845.19,269.35 843.78,269.35 
	842.98,269.35 842.13,269.21 842.45,269.01 842.75,268.76 843.26,268.29 843.53,268.03 843.83,267.78 844.16,267.48 844.24,267.27 
	844.23,266.84 844.22,266.06 844.21,263.05 844.19,259.82 844.24,256.15 844.36,255.92 844.91,255.92 845.65,255.92 846.27,255.92 
	847.25,255.92 847.81,255.92 848.2,255.99 848.2,256.6 848.2,257.46 848.2,258.74 848.2,260.14 848.2,262.04 848.2,263.73 
	848.2,265.61 848.2,267.14 848.2,267.56 848.26,267.73 848.64,268.04 848.85,268.26 849.51,268.76 850.03,269.14 850.56,269.35 "/>
<polygon class="st16" points="834.86,236.5 834.86,236.11 834.86,235.72 834.86,235.28 834.86,234.57 834.86,234.02 834.86,233.5 
	834.86,233.2 834.86,233.03 835.15,233.03 835.35,233.03 835.67,233.03 835.96,233.03 836.33,233.03 836.67,233.03 836.84,233.03 
	836.98,233.03 837.18,233.03 837.41,233.09 837.56,233.2 837.75,233.4 837.91,233.6 837.98,233.82 837.98,234.04 837.98,234.27 
	837.98,234.53 837.98,234.77 837.89,234.89 837.74,235.02 837.62,235.16 837.44,235.3 837.18,235.39 836.97,235.5 836.59,235.53 
	836.42,235.53 836.08,235.53 835.78,235.53 835.59,235.53 835.44,235.56 835.38,235.67 835.38,235.9 835.4,236.17 835.39,236.3 
	835.38,236.5 835.21,236.5 835.06,236.5 "/>
<polygon class="st17" points="835.39,234.77 835.39,234.4 835.39,234.18 835.43,234.04 835.56,234 835.67,234 835.84,234 
	836.06,234 836.33,234 836.59,234 836.79,234 836.95,234 837.14,234.04 837.28,234.07 837.38,234.18 837.38,234.38 837.38,234.54 
	837.23,234.63 836.98,234.72 836.85,234.77 836.5,234.77 836.18,234.77 835.65,234.77 "/>
<polygon class="st18" points="838.69,235.63 838.69,234.93 838.69,234.38 838.75,234.08 838.96,233.92 839.26,233.62 839.48,233.47 
	839.67,233.27 839.81,233.17 839.97,233.03 840.16,233.03 840.47,233.03 840.85,233.03 841.15,233.03 841.32,233.03 841.54,233.09 
	841.7,233.17 841.92,233.3 842.14,233.49 842.34,233.69 842.51,233.93 842.67,234.17 842.87,234.44 842.95,234.61 842.95,235.09 
	842.95,235.33 842.95,235.51 842.95,235.75 842.95,235.94 842.71,236.14 842.41,236.5 842.09,236.73 841.87,236.86 841.65,236.96 
	841.39,236.96 841.03,236.96 840.69,236.96 840.24,236.96 840.09,236.96 839.77,236.76 839.52,236.59 839.3,236.4 838.99,236.12 
	838.89,235.94 "/>
<polygon class="st19" points="839.22,235.43 839.22,234.66 839.31,234.49 839.51,234.34 839.73,234.17 839.96,234 840.23,234 
	840.58,234 840.87,234 841.16,234 841.32,234.06 841.51,234.11 841.68,234.2 841.86,234.38 841.99,234.49 842.1,234.56 
	842.1,234.67 842.16,234.88 842.16,235.09 842.16,235.43 842.07,235.66 841.89,236 841.73,236.08 841.45,236.08 841.06,236.08 
	840.69,236.08 840.25,236.08 840.07,236.08 839.84,235.98 839.64,235.8 839.41,235.67 "/>
<polygon class="st20" points="843.09,233.53 843.35,234 843.57,234.38 843.71,234.85 843.86,235.15 843.98,235.48 844.14,235.83 
	844.21,236.2 844.35,236.5 844.5,236.5 844.66,236.5 844.81,236.5 845.04,236.5 845.13,236.08 845.23,235.78 845.33,235.46 
	845.52,235.09 845.66,234.77 845.76,234.48 846.02,234.49 846.19,234.49 846.35,234.68 846.42,235.04 846.55,235.54 846.69,235.89 
	846.89,236.25 847.05,236.5 847.22,236.5 847.44,236.5 847.7,236.5 847.85,236.08 847.98,235.63 848.16,235.19 848.39,234.68 
	848.5,234.29 848.56,234 848.64,233.7 848.64,233.53 848.33,233.53 848.05,233.47 847.95,233.8 847.85,234.2 847.71,234.77 
	847.61,235.04 847.45,235.37 847.35,235.54 847.12,235.54 846.92,235.35 846.82,234.91 846.7,234.38 846.5,234 846.39,233.68 
	846.3,233.47 846.02,233.47 845.86,233.47 845.7,233.47 845.53,233.79 845.33,234.22 845.21,234.6 845.09,234.98 844.98,235.25 
	844.89,235.51 844.64,235.54 844.29,234.98 844.15,234.54 844.01,234.06 843.77,233.66 843.67,233.47 "/>
<polygon class="st20" points="849.62,233.14 850.07,233.14 850.59,233.14 851.21,233.14 851.76,233.14 852.15,233.14 852.31,233.14 
	852.31,233.4 852.31,233.72 852.31,233.98 852.1,233.98 851.74,233.98 851.35,233.98 850.83,233.98 850.42,233.98 850.16,233.98 
	850.15,234.3 850.15,234.51 850.48,234.51 852.31,234.51 852.31,235.52 850.13,235.52 850.13,236.03 852.31,236.03 852.31,236.96 
	849.04,236.96 849.04,233.14 "/>
<polygon class="st20" points="852.9,236.88 852.9,233.75 852.97,233.61 853.12,233.53 853.27,233.39 853.41,233.24 853.51,233.14 
	853.62,233.04 855.53,233.04 855.84,233.24 856.18,233.48 856.58,233.74 856.68,233.91 856.68,234.27 856.68,234.48 856.56,234.72 
	856.36,234.88 856.21,235.02 856.12,235.09 856.18,235.52 856.4,235.73 856.62,235.99 856.68,236.29 856.68,236.5 856.68,236.73 
	856.68,236.88 856.5,236.88 856.18,236.88 855.77,236.88 855.55,236.88 855.58,236.47 855.58,236.11 855.58,235.87 855.57,235.67 
	855.54,235.54 855.31,235.54 854.9,235.52 854.6,235.52 854.25,235.52 854.01,235.53 853.95,235.81 853.96,236.04 853.97,236.4 
	853.97,236.59 853.95,236.88 "/>
<rect x="853.95" y="234.02" class="st21" width="1.64" height="0.54"/>
<polyline class="st22" points="887.59,266.59 887.59,259.16 887.59,241.77 887.59,230.87 887.59,222.34 "/>
<polyline class="st22" points="1042.83,265.98 1042.83,257.1 1042.83,246.87 1042.83,237.52 1042.71,223.99 "/>
<polyline class="st22" points="887.47,59.79 887.47,69.16 887.47,81.09 887.47,92.94 887.47,103.66 "/>
<polyline class="st22" points="1041.52,57.7 1041.52,71.72 1041.52,82.47 1041.52,96.43 1041.47,103.47 "/>
<path class="st22" d="M887.47,103.66"/>
<line class="st23" x1="831.2" y1="189.79" x2="829.63" y2="189.7"/>
<polyline class="st23" points="829.63,190.96 829.63,190.66 829.63,189.7 829.63,189.02 829.63,188.77 829.63,188.62 830.12,188.62 
	830.54,188.62 830.91,188.62 831.07,188.62 831.45,188.9 831.45,189.18 831.45,189.35 831.45,189.53 831.33,189.77 831.45,190.58 
	831.45,190.71 831.45,190.96 "/>
<polyline class="st23" points="834.21,188.9 832.36,188.9 832.21,188.9 832.21,190.85 832.21,191.03 834.16,191.03 "/>
<line class="st23" x1="834.13" y1="189.89" x2="832.21" y2="189.89"/>
<polyline class="st23" points="836.67,189.33 836.44,189.18 836.26,189.05 836.05,188.98 835.65,188.98 835.31,188.98 
	835.07,189.16 834.9,189.33 834.9,189.54 835.05,189.79 835.38,189.89 835.71,189.96 836.05,190.03 836.26,190.03 836.44,190.2 
	836.54,190.49 836.53,190.72 836.39,190.96 836.13,191.03 835.78,191.03 835.49,191.03 835.22,190.96 835.04,190.8 834.79,190.57 
	"/>
<polyline class="st23" points="839.15,188.98 837.38,188.98 837.38,191.29 839.15,191.29 "/>
<line class="st23" x1="839.15" y1="190.09" x2="837.38" y2="190.09"/>
<polyline class="st23" points="839.55,189.18 839.79,189.18 841.91,189.18 "/>
<line class="st23" x1="840.73" y1="191.29" x2="840.73" y2="189.18"/>
<polyline class="st22" points="1049.18,215.95 1051.63,217.53 1053.21,218.53 1055.04,219.55 1056.33,220.32 1057.83,221.21 
	1059.93,222.56 1060.99,223.19 1062.24,223.96 1063.08,224.58 1063.67,225 1064.08,225.26 1064.64,225.61 1064.73,225.42 
	1064.8,225.26 1064.94,224.99 1065.11,224.72 1065.31,224.42 1065.51,224.16 1065.76,223.86 1065.69,223.71 1065.51,223.49 
	1064.98,223.15 1064.39,222.78 1063.47,222.25 1062.55,221.64 1061.71,221.08 1060.95,220.67 1060.11,220.14 1059.25,219.61 
	1058.35,219.07 1057.24,218.43 1056.4,217.9 1055.64,217.45 1054.88,217 1054.25,216.55 1053.54,216.1 1052.87,215.64 
	1052.03,215.05 1051.37,214.65 1050.47,214.15 1049.88,214.99 1049.18,215.95 "/>
<polygon class="st10" points="1018.76,243.11 1021.69,241.4 1024.37,239.6 1027.4,237.5 1029.77,235.57 1032.31,233.68 
	1034.42,232.06 1036.65,230.08 1038.63,228.15 1040.51,226.18 1042.71,223.99 1044.72,221.66 1046.7,219.38 1048.23,217.27 
	1050.03,214.77 1052.4,211.4 1054.24,208.33 1056.17,205.08 1057.58,202.18 1059.6,198.24 1061.26,193.81 1062.4,190.34 
	1063.59,186.52 1064.51,182.62 1065.25,178.89 1065.69,175.91 1066.04,173.1 1066.35,170.56 1066.53,168.8 1066.53,166.26 
	1066.53,163.57 1066.53,160.51 1066.53,158.36 1066.26,155.29 1066.04,153.45 1065.69,151.28 1065.34,149.24 1064.86,146.61 
	1064.42,144.24 1063.54,140.95 1062.67,138.09 1061.74,135.2 1060.78,132.52 1059.81,130.16 1058.37,126.95 1057.14,124.23 
	1055.56,121.47 1054.55,119.45 1053.37,117.57 1052.18,115.5 1050.73,113.53 1049.32,111.96 1048.21,110.45 1046.82,108.88 
	1045.54,107.54 1044.55,106.67 1043.39,105.56 1042.4,104.34 1041.47,103.47 1040.54,102.37 1039.02,100.74 1037.75,99.4 
	1035.71,97.25 1034.55,96.26 1033.15,95.1 1031.93,93.94 1030.3,92.66 1028.21,91.03 1026.52,89.87 1024.02,88.12 1021.76,86.55 
	1019.2,84.98 1016.87,83.82 1013.96,82.07 1010.71,80.5 1007.34,79.11 1003.79,77.48 1000.88,76.43 996.81,75.16 993.15,74.05 
	989.6,73.12 986.7,72.42 982.97,71.72 980.42,71.26 977.74,70.97 974.89,70.68 970.59,70.68 964.8,70.39 961.99,70.39 958.32,70.39 
	954.48,70.74 948.67,71.26 944.31,71.84 939.02,73 933.96,74.4 929.72,75.74 924.6,77.48 919.31,79.69 915.18,81.84 911.28,84.05 
	907.21,86.78 903.84,88.93 900.35,91.44 897.39,93.82 894.89,95.97 892.39,98.53 890.64,100.39 888.55,102.37 886.81,104.46 
	885,106.73 882.1,110.33 880.12,113.01 878.08,116.38 876.17,119.4 874.42,122.19 873.26,124.63 872.1,127.13 870.82,130.39 
	869.54,133.82 868.2,137.25 867.44,140.74 866.22,145.22 866,146.98 865.79,149.19 865.58,151.28 865.33,153.28 865.22,155.04 
	865.01,157.07 864.87,159.78 864.87,162.27 864.87,164.09 864.87,166.56 864.87,168.61 864.87,170.08 865.1,172.49 865.29,173.51 
	865.5,174.95 865.87,176.61 866.04,177.37 866.17,178.13 866.25,179.09 866.38,180.31 866.63,181.28 866.8,182.42 867.05,183.68 
	867.39,184.94 867.81,186.33 868.27,188.1 868.65,189.53 869.53,191.8 870.08,193.11 870.58,194.54 871.13,195.76 871.64,196.98 
	872.35,198.57 872.9,199.84 873.82,201.77 874.96,203.88 875.8,205.31 876.81,207.2 877.82,208.88 878.96,210.9 879.92,212.42 
	880.98,213.97 882.32,215.91 883.42,217.34 885.1,219.4 886.87,221.59 888.97,223.78 890.74,225.67 892.5,227.52 894.65,229.5 
	896.63,231.1 898.39,232.7 900.62,234.55 903.06,236.36 905.29,237.91 907.99,239.55 910.39,241.07 912.83,242.54 915.06,243.8 
	917.58,244.98 920.82,246.45 923.22,247.72 926.58,249.02 929.32,250.03 932.1,250.96 934.79,251.97 937.69,252.72 940.51,253.44 
	943.5,254.11 946.57,254.7 949.09,255.16 951.7,255.5 954.69,255.84 956.98,256.19 959.16,256.39 960.78,256.39 963.07,256.39 
	965.59,256.39 967.64,256.39 970.55,256.39 972.98,256.39 975.21,256.08 977.46,255.86 979.42,255.66 981.96,255.33 984.76,254.82 
	987.45,254.27 990.04,253.7 993.15,252.9 995.97,252.09 998.6,251.31 1001.58,250.32 1004.2,249.42 1007.03,248.34 1009.79,247.14 
	1012.12,246.15 1014.66,244.94 1016.76,244.12 "/>
<polyline class="st23" points="949.62,216.52 949.62,212.71 949.62,212.47 950.13,212.47 950.79,212.47 951.28,212.47 
	951.75,212.58 951.97,212.82 952.1,213.27 952.1,213.62 952.1,214.06 951.9,214.5 951.59,214.73 950.86,214.73 950.37,214.73 
	949.77,214.75 "/>
<line class="st23" x1="953.59" y1="212.47" x2="953.59" y2="216.52"/>
<polyline class="st23" points="955.31,213.51 956.71,213.51 957.02,213.69 957.26,213.93 957.26,214.57 957.26,214.77 
	957.26,216.21 957.26,216.52 955.45,216.52 955.12,216.3 954.92,215.99 954.92,215.66 954.92,215.3 955.27,215.02 955.51,214.88 
	955.91,214.8 956.2,214.8 956.47,214.8 956.76,214.77 956.98,214.77 "/>
<line class="st23" x1="961.32" y1="213.51" x2="958.99" y2="218.32"/>
<line class="st23" x1="958.53" y1="213.51" x2="959.84" y2="216.21"/>
<polyline class="st23" points="964.49,212.47 962.92,212.47 962.67,212.69 962.47,213.02 962.47,213.93 962.76,214.17 
	963.16,214.35 963.48,214.35 963.82,214.35 964.18,214.5 964.49,214.86 964.49,215.22 964.49,215.57 964.49,216.04 964.25,216.35 
	963.94,216.52 962.47,216.52 "/>
<polyline class="st23" points="966.08,212.82 966.08,216.37 966.48,216.52 966.93,216.52 "/>
<line class="st23" x1="967.33" y1="213.51" x2="966.17" y2="213.51"/>
<polyline class="st23" points="968.52,213.51 969.94,213.51 970.25,213.73 970.43,214.02 970.43,216.32 970.21,216.52 969.7,216.52 
	968.59,216.52 968.3,216.21 968.06,215.91 968.06,215.44 968.39,215.13 968.72,215.02 969.05,214.86 969.59,214.86 969.87,214.86 
	970.25,214.86 "/>
<polyline class="st23" points="972.13,212.82 972.13,216.21 972.49,216.52 972.95,216.52 "/>
<line class="st23" x1="973.33" y1="213.51" x2="972.25" y2="213.51"/>
<line class="st23" x1="974.46" y1="212.34" x2="974.46" y2="212.67"/>
<line class="st23" x1="974.46" y1="213.51" x2="974.46" y2="216.7"/>
<polygon class="st23" points="976.04,215.68 976.04,214.67 976.15,214.26 976.28,213.95 976.43,213.75 976.7,213.51 977.56,213.51 
	978.03,213.6 978.34,213.86 978.52,214.24 978.52,214.93 978.52,215.68 978.38,216.1 978.12,216.37 977.83,216.52 976.92,216.52 
	976.5,216.35 976.19,216.08 "/>
<polyline class="st23" points="982.48,216.61 982.48,214.06 982.33,213.78 981.93,213.51 980.11,213.51 980.11,216.7 "/>
<polygon class="st24" points="952.87,109.51 952.87,107.7 952.45,107.83 951.92,107.88 951.42,107.6 950.64,107.38 950.17,107.38 
	948.31,107.38 947.78,107.5 947.23,107.68 946.53,107.85 946.06,108.1 945.6,108.65 945.6,110.01 946.06,110.28 946.66,110.58 
	947.48,110.81 948.21,110.96 949.11,111.06 949.86,111.06 951.17,111.06 951.74,111.49 952.07,111.86 952.04,112.34 951.62,112.61 
	951.07,112.84 950.44,112.84 949.79,112.84 949.24,112.84 948.49,112.84 947.76,112.66 947.28,112.31 946.88,111.94 946.56,111.56 
	946.41,111.31 945.6,111.34 945.6,113.57 946.31,113.57 946.61,113.57 946.71,113.24 947.08,113.27 947.68,113.57 948.46,113.72 
	949.24,113.82 950.04,113.82 950.92,113.82 951.84,113.54 952.5,113.24 953.05,112.91 953.37,112.44 953.37,111.64 953.37,111.11 
	953.12,110.71 952.82,110.38 952.24,110.08 951.54,109.96 950.79,109.88 949.86,109.83 949.01,109.73 948.14,109.58 947.38,109.33 
	947.08,109.11 947.08,108.73 947.48,108.48 947.86,108.2 948.36,108.05 949.01,107.98 950.64,108.05 951.22,108.23 951.57,108.58 
	952.02,109.01 952.47,109.53 "/>
<polygon class="st24" points="957.96,113.82 956.83,113.29 956.08,112.69 955.58,112.09 955.2,111.56 955.2,109.91 955.6,109.21 
	956.18,108.65 956.88,108.1 957.73,107.6 958.51,107.38 960.99,107.38 961.74,107.55 962.62,107.9 963.09,108.23 963.85,108.78 
	964.2,109.56 964.2,111.44 963.97,112.16 963.5,112.61 962.77,113.17 962.09,113.44 961.44,113.82 "/>
<polygon class="st25" points="959.14,112.86 958.26,112.66 957.68,112.26 957.31,111.84 957.13,111.31 957.13,110.88 957.13,110.06 
	957.36,109.48 957.68,109.01 958.13,108.68 958.56,108.33 958.83,108.15 960.34,108.15 961.14,108.53 961.72,108.93 962.07,109.38 
	962.37,109.91 962.37,111.46 961.99,111.99 961.52,112.46 960.99,112.86 "/>
<polygon class="st26" points="971.64,107.68 971.64,108.38 972.74,108.38 972.74,111.21 968.63,107.68 965.6,107.68 965.6,108.38 
	966.63,108.4 966.63,112.86 965.6,112.86 965.6,113.44 969.17,113.44 969.08,112.86 967.88,112.86 967.86,109.46 968.31,109.46 
	972.74,113.32 972.74,113.57 974.17,113.57 974.17,108.4 975.22,108.4 975.22,107.68 "/>
<polygon class="st26" points="976.16,107.68 976.16,108.42 977.27,108.42 979.76,111.07 979.76,112.88 978.67,112.88 978.67,113.57 
	983.06,113.57 983.06,112.77 981.75,112.77 981.66,111.26 984.5,108.46 985.65,108.46 985.65,107.68 982.02,107.68 982.04,108.36 
	982.85,108.4 982.83,108.78 981.58,110.16 980.9,110.14 979.41,108.51 979.41,108.29 980.3,108.29 980.28,107.68 "/>
<polygon class="st27" points="962.71,209.14 961.74,208.73 961.19,208.54 960.4,208.39 959.51,208.39 958.53,208.32 957.73,208.32 
	956.96,208.15 956.09,207.93 955.32,207.69 954.63,207.33 954.03,206.83 953.91,206.23 954.07,205.79 954.65,205.36 955.3,205.02 
	956.09,204.71 956.45,204.93 956.74,205.1 957.26,205.29 957.87,205.53 958.31,205.75 958.79,206.11 958.16,206.37 957.63,206.54 
	957.66,206.92 958.19,206.92 958.83,206.92 959.46,206.92 959.84,206.92 960.01,206.59 960.3,206.44 960.69,206.44 961.14,206.44 
	961.67,206.52 962.03,206.66 962.37,206.73 962.71,206.92 962.97,207.09 962.97,207.67 962.97,209.14 "/>
<polygon class="st28" points="966.75,210.27 969.51,209.33 969.24,208.97 968.69,208.73 968.06,208.54 967.33,208.46 966.75,208.46 
	"/>
<polygon class="st29" points="956.09,204.71 957.11,204.39 958.25,204 958.99,203.75 959.71,203.52 960.59,203.2 961.32,202.98 
	962.01,203.14 962.47,203.3 962.97,203.46 962.97,207.09 962.37,206.73 962.03,206.66 961.67,206.52 961.14,206.44 960.69,206.44 
	960.3,206.44 960.01,206.59 959.84,206.92 959.46,206.92 958.83,206.92 958.19,206.92 957.66,206.92 957.63,206.54 958.16,206.37 
	958.79,206.11 958.31,205.75 957.87,205.53 957.26,205.29 956.74,205.1 956.45,204.93 "/>
<polygon class="st30" points="961.32,202.98 962.05,202.47 962.47,202.29 962.97,202.29 962.97,203.46 962.47,203.3 962.01,203.14 
	"/>
<polygon class="st31" points="962.97,204.59 962.15,205.03 961.53,205.28 960.5,205.67 959.71,205.92 958.79,206.11 958.16,206.37 
	957.63,206.54 957.66,206.92 958.19,206.92 958.83,206.92 959.46,206.92 959.84,206.92 960.01,206.59 960.3,206.44 960.69,206.44 
	961.14,206.44 961.57,206.21 961.76,206.15 961.89,206.12 962.28,206.02 962.58,205.99 "/>
<polygon class="st32" points="962.97,206.92 962.97,206.24 962.97,205.45 962.67,205.68 962.58,205.99 962.28,206.02 961.89,206.12 
	961.57,206.21 961.14,206.44 961.67,206.52 962.03,206.66 962.37,206.73 962.71,206.92 962.97,207.09 "/>
<polygon class="st33" points="966.75,208.46 966.75,207.86 967.48,207.72 968.21,207.49 969,207.42 969.4,207.09 969.99,206.92 
	970.45,206.85 970.86,206.64 971.19,206.52 971.8,206.45 972.29,206.45 972.95,206.45 973.62,206.54 974.06,206.69 974.59,206.92 
	975.18,207.21 974.46,207.67 973.99,207.84 972.95,208.19 972.23,208.46 971.4,208.74 970.39,209.02 969.51,209.33 969.24,208.97 
	968.69,208.73 968.06,208.54 967.33,208.46 "/>
<polygon class="st33" points="966.66,204.71 967.4,204.87 968.37,205.03 969.13,205.29 969.65,205.63 969.17,205.93 968.42,206.11 
	967.62,206.45 966.66,206.8 "/>
<polygon class="st34" points="966.75,204.51 968.35,204.2 969.28,204.01 970.45,203.82 971.44,203.71 972.28,203.71 973.23,203.8 
	974.49,203.97 975.44,204.11 976.43,204.59 977.14,205.16 977.4,205.57 977.4,206.04 977.32,206.58 976.97,206.92 976.39,207.01 
	975.76,207.19 975.18,207.21 974.59,206.92 974.06,206.69 973.29,206.49 972.29,206.45 972.47,206.27 972.78,206.15 973.14,206.08 
	973.6,205.95 973.9,205.87 974.03,205.35 974.05,205.18 973.75,205.03 973.49,204.96 973.06,204.96 972.61,204.96 972.24,205.03 
	971.68,205.15 971.18,205.35 970.64,205.57 970.03,205.63 969.65,205.63 969.13,205.29 968.37,205.03 967.4,204.87 966.66,204.71 
	"/>
<polygon class="st35" points="962.88,209.37 966.75,210.27 966.66,203.07 966.66,199.78 966.66,198.22 966.66,196.94 966.66,196.46 
	966.66,196.23 967.14,196.23 967.97,196.23 968.29,196.23 968.47,196.43 968.47,196.71 968.47,202.29 968.68,202.66 968.93,202.87 
	969.29,202.87 969.94,202.87 970.6,202.87 971.08,202.71 971.38,202.29 971.79,201.95 972.13,201.47 972.34,201.29 972.52,200.99 
	972.52,200.6 972.52,199.64 972.52,198.29 972.43,197.81 972.18,197.42 971.77,196.89 971.38,196.5 970.97,196.09 970.37,195.72 
	969.75,195.4 969.16,195.13 968.4,194.81 967.7,194.58 967.03,194.33 966.34,194.12 965.7,193.87 965.08,193.71 964.53,193.59 
	963.89,193.48 963.18,193.48 962.88,193.48 962.97,202.29 "/>
<path class="st36" d="M864.11,89.57c-0.91-2.93,4.94-7.47,7.6-9.17c5.14-3.27,10.3-3.56,12.67-3.54h32.04c2.85,0,5.43,1.16,7.3,3.03
	c0.42,0.42,3.06,3.15,3.03,7.3c-0.03,3.9-2.41,7.52-6.1,9.42c-4.74-1.79-11.15-3.66-18.89-4.42c-5.52-0.54-10.42-0.38-14.45,0.02
	C869.17,93.7,864.77,91.69,864.11,89.57z"/>
<path class="st36" d="M1071.91,90.93c0.91-2.93-4.94-7.47-7.6-9.17c-5.14-3.27-10.3-3.56-12.67-3.54h-32.04
	c-2.85,0-5.43,1.16-7.3,3.03c-0.42,0.42-3.06,3.15-3.03,7.3c0.03,3.9,2.41,7.52,6.1,9.42c4.74-1.79,11.15-3.66,18.89-4.42
	c5.52-0.54,10.42-0.38,14.45,0.02C1066.86,95.06,1071.26,93.04,1071.91,90.93z"/>
<path class="st37" d="M1011.04,120.75c2.82-5.45,8.49-7.92,11.11-9.02c11.35-4.76,22.85-1.34,25.48-0.56
	c8.06,2.39,13.32,6.66,16.12,9.37c0.12,0.12,0.12,0.31,0,0.42l-7.13,6.92c-0.01,0.01-0.02,0.02-0.03,0.03
	c-5.15,3.93-10.2,5.86-13.32,6.81c-2.53,0.78-10.89,3.09-21.12,1.25c-5.05-0.91-9.6-1.73-11.76-5.07
	C1007.84,126.95,1010.32,122.14,1011.04,120.75z"/>
<path class="st37" d="M925.05,117.6c-2.71-5.45-8.16-7.92-10.68-9.02c-10.92-4.76-21.98-1.34-24.51-0.56
	c-7.95,2.46-13.08,6.89-15.71,9.58c2.36,2.38,4.72,4.76,7.08,7.14c4.96,3.94,9.82,5.87,12.83,6.83c2.43,0.78,10.48,3.09,20.31,1.25
	c4.86-0.91,9.23-1.73,11.31-5.07C928.13,123.8,925.74,119,925.05,117.6z"/>
<path class="st38" d="M882.8,257.77c1.17-9.01,4.38-26.66,14.5-46.29c9.47-18.38,20.55-29.89,26.77-35.63
	c0.9-4.65-0.21-8.85-2.83-10.67c-2.43-1.69-5.25-0.7-6-0.4c-40.7,78.34-43.53,91.5-41.92,93.34c2.08,2.37,4.62,2.19,4.62,2.19
	C880,260.16,881.78,258.74,882.8,257.77z"/>
<path class="st38" d="M1047.67,257.77c-1.17-9.01-4.38-26.66-14.5-46.29c-9.47-18.38-20.55-29.89-26.77-35.63
	c-0.9-4.65,0.21-8.85,2.83-10.67c2.43-1.69,5.25-0.7,6-0.4c40.7,78.34,43.53,91.5,41.92,93.34c-2.08,2.37-4.62,2.19-4.62,2.19
	C1050.48,260.16,1048.7,258.74,1047.67,257.77z"/>
<path class="st39" d="M1014.86,231.87c-7.31,4.63-23.82,13.69-46.68,14.53c-26.9,1-46.43-9.99-53.62-14.53
	c-2.23-1.28-3.51-3.69-3.28-6.14c0.31-3.19,3.02-4.77,3.28-4.91c13.2,2.95,30.24,5.53,50.15,5.53c13.53,0,30.72-1.19,50.15-5.53
	c0.15,0.08,3.16,1.83,3.28,5.32C1018.21,228.5,1016.94,230.71,1014.86,231.87z"/>
<path class="st38" d="M1015.44,71.97c-10.55-0.5-21.47-0.87-32.75-1.05c-23.7-0.39-46.01,0.06-66.73,1.05
	c-5.11-0.69-8.87-2.03-9.01-3.52c-0.19-2.05,6.46-3.75,9.01-4.4c12.55-3.2,24.39-1.81,25.79-1.65c13.67,1.58,36.92,2.18,73.69,1.65
	c6.37,0.08,10.42,2.66,10.23,4.4C1025.51,70.12,1021.31,72.15,1015.44,71.97z"/>
<path class="st38" d="M995,81.9c-6.52-1.72-21.44-5-39.3-2.91c-5.83,0.68-10.74,1.79-14.66,2.91c-3.08,0.12-5.83-0.44-6.49-1.38
	c-0.83-1.2,1.4-3.45,6.49-4.34c8.84,0.68,15.78,0.4,20.39,0.03c8.89-0.71,14.24-2.13,23.13-1.55c4.58,0.3,8.2,1.01,10.44,1.52
	c3.28-0.12,6.02,0.79,6.55,1.88C1002.21,79.42,999.71,81.59,995,81.9z"/>
<path class="st38" d="M984.34,89.97c-9.1,0.99-14.23,1.48-17.17,1.69c-0.88,0.06-3.46,0.24-6.88,0.75c-1.36,0.2-2.46,0.39-3.21,0.53
	c-3.72,0.28-7.17-0.19-7.96-1.48c-0.97-1.59,1.83-4.79,7.96-6.96c4.88,1.38,13.88,3.29,24.6,1.88c3.37-0.44,6.31-1.13,8.79-1.88
	c2.78,1.41,4.31,3.37,3.68,4.58C993.41,90.54,989.17,91.54,984.34,89.97z"/>
<path class="st40" d="M903.7,104.91c-3.1-0.34-9.27-0.47-15.53,3.62c-2.04,1.33-3.68,2.84-4.98,4.26
	c2.11,10.11,9.42,17.12,17.26,17.12c9.47,0,17.26-7.73,17.26-17.12c0-0.28-0.01-0.55-0.02-0.83c-0.6-0.74-1.28-1.49-2.06-2.2
	C911.35,105.83,906.56,105.04,903.7,104.91z"/>
<path class="st40" d="M1032.1,108.16c3.1-0.35,9.27-0.47,15.53,3.67c2.04,1.35,3.68,2.88,4.98,4.32
	c-2.11,10.26-9.42,17.36-17.26,17.36c-9.47,0-17.26-7.84-17.26-17.36c0-0.28,0.01-0.56,0.02-0.84c0.6-0.75,1.28-1.51,2.06-2.23
	C1024.44,109.1,1029.24,108.29,1032.1,108.16z"/>
<ellipse class="st41" cx="900.46" cy="115.3" rx="6.53" ry="4.56"/>
<ellipse class="st41" cx="1035.34" cy="115.3" rx="6.53" ry="4.56"/>
<path class="st36" d="M964.57,178.97c2.89,6.15-2.58,16.85-10.28,20.26c-8.24,3.65-13.42-3.52-24.85-0.92
	c-11.56,2.63-16.16,12.21-17.74,11.05c-2.45-1.81,5.13-27.78,25.47-34.58C946.55,171.65,961.16,171.73,964.57,178.97z"/>
<path class="st36" d="M965.48,178.97c-2.89,6.15,2.58,16.85,10.28,20.26c8.24,3.65,13.42-3.52,24.85-0.92
	c11.56,2.63,16.16,12.21,17.74,11.05c2.45-1.81-5.13-27.78-25.47-34.58C983.51,171.65,968.89,171.73,965.48,178.97z"/>
<path class="st42" d="M869.22,132.43L825.8,92.25c-0.21-2.25-0.41-4.49-0.62-6.74c11.52,6.53,25.56,16.55,38.17,31.78
	c3.35,4.04,6.26,8.05,8.81,11.94C871.18,130.3,870.2,131.36,869.22,132.43z"/>
<path class="st42" d="M1058.86,131.89c3.99-4.69,6.34-8.96,7.74-11.98c4.33-9.35,3.36-14.99,8.3-22.47
	c2.79-4.22,6.02-7.02,8.23-8.68c0.14,2.65,0.28,5.3,0.42,7.95c-0.75,2.46-1.81,5.92-3.09,10.07c-3.79,12.28-4.21,13.48-4.87,14.86
	c-1.89,3.94-5.77,9.47-14.7,14.33C1060.21,134.61,1059.54,133.25,1058.86,131.89z"/>
<linearGradient id="SVGID_1_" gradientUnits="userSpaceOnUse" x1="866.5046" y1="138.6833" x2="930.8762" y2="138.6833">
	<stop  offset="0" style="stop-color:#FFFFFF"/>
	<stop  offset="0.9925" style="stop-color:#000000;stop-opacity:0.2"/>
</linearGradient>
<path class="st43" d="M926.28,152.24c-17.66,0-35.33,0-52.99,0c-1.18-0.94-5.52-4.63-6.56-10.98c-1.5-9.14,5.17-15.59,5.75-16.14
	c18.1,0.17,36.19,0.33,54.29,0.5c1.11,1.6,4.68,7.18,4.04,14.88C930.3,146.43,927.56,150.54,926.28,152.24z"/>
<linearGradient id="SVGID_2_" gradientUnits="userSpaceOnUse" x1="996.6242" y1="142.0393" x2="1060.9957" y2="142.0393">
	<stop  offset="0" style="stop-color:#FFFFFF"/>
	<stop  offset="0.9925" style="stop-color:#000000;stop-opacity:0.2"/>
</linearGradient>
<path class="st44" d="M1056.4,155.6c-17.66,0-35.33,0-52.99,0c-1.18-0.94-5.52-4.63-6.56-10.98c-1.5-9.14,5.17-15.59,5.75-16.14
	c18.1,0.17,36.19,0.33,54.29,0.5c1.11,1.6,4.68,7.18,4.04,14.88C1060.42,149.79,1057.68,153.9,1056.4,155.6z"/>
<path class="st42" d="M930.8,140.51c4.83-3.01,16.38-9.3,32.4-9.57c16.66-0.28,28.79,6.11,33.66,9.03c0,1.55-0.01,3.1-0.01,4.64
	c-6.85-2.76-18.6-6.5-33.58-6.43c-14.84,0.07-26.46,3.85-33.27,6.65C930.26,143.4,930.53,141.95,930.8,140.51z"/>
<path class="st45" d="M960.61,179.87"/>
<path class="st45" d="M960.23,172.31"/>
<polyline class="st46" points="278.57,263.85 277.79,263.85 276.63,263.66 275.56,263.36 274.87,263.01 274.14,262.55 273.53,262 
	273.17,261.45 272.79,260.91 272.79,258.85 272.79,252.78 272.79,222.18 272.79,182.59 272.79,149.93 272.79,111.11 272.79,62.3 
	272.79,61.56 272.79,60.82 272.79,60.47 273.06,59.93 273.47,59.43 273.93,58.83 274.41,58.45 275.04,58.08 275.52,57.92 
	276.07,57.71 276.8,57.53 277.34,57.4 277.87,57.4 278.25,57.33 278.57,57.33 278.85,57.33 279,57.33 278.55,57.51 277.97,57.97 
	277.67,58.5 277.46,59.25 277.46,59.87 277.46,61.18 277.46,74.88 277.46,92.17 277.46,119.69 277.46,132.76 277.46,167.52 
	277.46,202.39 277.46,232.36 277.46,262.62 277.88,263.23 278.57,263.85 "/>
<polyline class="st47" points="281.08,264.11 280.42,264.38 279.56,264.25 278.57,263.85 277.88,263.23 277.46,262.62 
	277.46,260.93 277.46,209.48 277.46,156.98 277.46,105.47 277.46,62.55 277.46,60.83 277.46,59.87 277.46,59.25 277.67,58.5 
	277.97,57.97 278.55,57.51 279.27,57.22 279.94,57.03 280.59,57.03 281.43,57.13 281.07,57.52 280.7,58.03 280.37,58.44 
	280.29,58.79 280.18,59.22 280.18,59.84 280.18,60.35 280.18,61.34 280.18,73.85 280.18,84.44 280.18,113.65 280.18,156.74 
	280.18,213.9 280.18,217.54 280.18,218.35 280.29,218.74 280.43,218.94 280.61,219.23 280.84,219.47 280.96,219.87 280.96,221.68 
	280.97,252.05 280.97,253.21 280.89,253.63 280.59,253.92 280.37,254.25 280.18,254.91 280.18,255.41 280.18,256.39 280.18,261.25 
	280.18,262.38 280.28,262.81 280.47,263.17 280.63,263.47 280.82,263.81 281.08,264.11 "/>
<polyline class="st48" points="288.9,265.91 288.18,266.05 287.66,265.98 287.06,265.91 286.48,265.73 285.91,265.49 285.45,265.25 
	284.95,264.78 284.65,264.42 284.5,263.92 284.4,263.29 284.4,258.02 284.4,240.06 284.4,225.14 284.4,183.19 284.4,119.94 
	284.4,68.15 284.4,58.84 284.4,58.17 284.55,57.71 284.67,57.2 284.93,56.73 285.3,56.2 285.58,55.94 285.86,55.77 286.18,55.69 
	286.54,55.52 286.85,55.49 287.15,55.49 287.58,55.43 288,55.43 288.18,55.43 288.38,55.43 288.76,55.48 288.33,55.82 288,56.17 
	287.74,56.54 287.51,57.02 287.41,57.46 287.35,58.03 287.34,58.66 287.34,59.25 287.34,70.31 287.34,103.53 287.34,143.52 
	287.34,179.23 287.34,223.31 287.34,260.63 287.34,263.81 287.34,264.27 287.43,264.59 287.73,264.97 287.96,265.19 288.9,265.91 
	"/>
<path class="st22" d="M287.58,56.81"/>
<path class="st22" d="M287.81,56.41"/>
<path class="st22" d="M287.07,54.86"/>
<polygon class="st49" points="285.63,265.33 285.21,265.33 284.5,265.21 283.69,264.97 283.06,264.82 282.37,264.58 281.91,264.42 
	281.42,264.28 281.08,264.11 280.82,263.81 280.63,263.47 280.47,263.17 280.28,262.81 280.18,262.38 280.18,255.41 280.18,254.91 
	280.37,254.25 280.59,253.92 280.89,253.63 280.97,253.21 280.97,252.05 280.96,250.01 280.97,249.21 280.95,245.62 280.97,241.56 
	280.97,235.97 280.97,231.05 280.97,224.59 280.96,219.87 280.84,219.47 280.61,219.23 280.43,218.94 280.29,218.74 280.18,218.35 
	280.18,217.54 280.18,214.94 280.18,211.87 280.18,190.95 280.18,149.61 280.18,113.65 280.18,90.22 280.18,66.34 280.18,60.35 
	280.18,59.22 280.29,58.79 280.37,58.44 280.7,58.03 281.07,57.52 281.43,57.13 281.88,56.77 282.44,56.47 282.95,56.37 
	283.67,56.15 284.4,56.03 284.98,55.97 285.29,55.97 285.48,56.03 285.2,56.34 285.05,56.57 284.83,56.91 284.73,57.1 284.63,57.38 
	284.57,57.6 284.5,57.84 284.44,58.03 284.4,58.35 284.4,58.58 284.4,59.09 284.4,72.13 284.4,94.13 284.4,124.18 284.4,168.34 
	284.4,219.32 284.4,246.9 284.4,262.51 284.43,263.5 284.55,264.08 284.78,264.57 285.07,264.89 "/>
<polyline class="st50" points="293.14,266.7 292.74,266.92 291.68,266.92 290.62,266.7 289.74,266.31 288.9,265.91 288.1,265.32 
	287.56,264.8 287.34,264.43 287.34,262.93 287.34,261.54 287.34,219.66 287.34,150.62 287.34,58.16 287.43,57.24 287.58,56.81 
	287.81,56.41 288.19,55.93 288.76,55.48 289.42,55.19 290.24,54.93 291,54.68 291.85,54.47 292.59,54.28 293.14,54.17 293.5,54.21 
	292.16,55.77 292.02,68.55 292.02,122.15 292.02,157.22 292.02,239.08 292.2,265.77 293.14,266.7 "/>
<polyline class="st51" points="289.97,66.24 289.97,65.61 289.97,65.13 289.97,64.77 289.97,64.54 289.93,64.36 289.83,64.22 
	289.73,64.15 289.63,64.15 289.58,64.27 289.58,64.42 289.58,64.65 289.58,64.94 289.58,65.2 289.58,65.51 289.58,65.83 
	289.58,66.06 289.58,66.2 289.54,66.32 289.42,66.39 289.31,66.32 289.24,66.17 289.24,66.01 289.24,65.62 289.24,65.16 
	289.24,64.81 289.24,64.52 289.24,64.15 "/>
<polygon class="st51" points="290.06,70.19 290.06,69.62 290.06,69.18 290.06,68.85 290.06,68.71 290.02,68.49 289.97,68.38 
	289.87,68.27 289.75,68.15 289.6,68.15 289.45,68.15 289.24,68.15 289.15,68.33 289.08,68.54 289.04,68.78 289.04,68.96 
	289.04,69.38 289.04,69.98 289.04,70.14 289.04,70.4 289.13,70.77 289.24,70.97 289.51,71.02 289.78,70.91 289.97,70.79 
	290.06,70.6 "/>
<polyline class="st51" points="289.19,72.6 289.55,72.6 289.82,72.6 290.06,72.6 290.14,72.81 290.14,73.05 289.94,73.33 
	289.19,74.49 289.11,74.68 289.11,74.91 289.19,75.11 289.45,75.11 289.68,75.11 289.9,75.11 290.14,75.11 "/>
<polyline class="st51" points="290.14,77.24 289.92,77.45 289.78,77.63 289.62,77.78 289.5,77.99 289.5,78.18 289.5,78.36 
	289.62,78.59 289.82,78.76 290,78.9 290.14,78.97 "/>
<polyline class="st51" points="288.91,78.19 289.11,78.19 289.32,78.19 289.5,78.18 "/>
<polyline class="st45" points="290.42,239.97 290.42,241.07 290.42,242.66 290.42,244.74 290.34,245.05 290.16,245.2 289.93,245.2 
	289.77,245.2 289.69,245.04 289.69,244.51 289.69,243.96 289.69,240.57 289.65,240.31 289.53,240.13 289.41,239.97 289.27,239.88 
	289.11,239.8 288.91,239.74 288.74,239.74 "/>
<polyline class="st45" points="290.36,252.63 290.36,251.49 290.36,250.7 290.36,249.84 290.31,249.56 290.15,249.4 289.97,249.33 
	289.73,249.33 289.43,249.33 289.1,249.33 288.92,249.23 288.83,249.02 288.83,248.64 288.83,248.08 288.83,247.74 288.83,246.9 "/>
<polyline class="st45" points="288.18,258.16 290.15,258.16 290.3,258.16 290.3,257.67 289.24,253.85 289.17,253.6 289.08,253.38 
	288.97,253.25 288.78,253.25 288.75,253.51 288.77,253.71 288.75,254.05 288.83,259.28 "/>
<circle class="st52" cx="386.18" cy="128.7" r="13.34"/>
<circle class="st53" cx="389.76" cy="130.76" r="15.41"/>
<circle class="st53" cx="394.49" cy="135.31" r="16.86"/>
<circle class="st53" cx="383.13" cy="134.24" r="16.86"/>
<circle class="st54" cx="392.34" cy="133.34" r="17.99"/>
<path class="st53" d="M292.02,264.5v-72.81c0-6.6,0-27.55,0-37.3c0-1.31,0-3.03,0-4.68c0-0.49,0-0.98,0-1.44c0-1.5,0-2.8,0-3.43
	c0-0.52,0-1.05,0-1.57c0-17.85,0-35.71,0-53.56V57.72v-0.61v-0.53v-0.43l0.14-0.39l0.19-0.31l0.17-0.29l0.19-0.28l0.31-0.26
	l0.25-0.23l0.23-0.19l0.26-0.2l0.26-0.2h0.71h11.63h6.05h9.38h9.29h7.54h8.9h6.75h6.96h5.31h7.82h7.35h8.96h6.23h6.2h7.14h7.52h9.51
	h29.04h31.44h26.72h5.03h1.5h1.08h0.57l0.48,0.07l0.38,0.16l0.44,0.31l0.22,0.23l0.32,0.26l0.1,0.13l0.39,0.38l0.23,0.31l0.33,0.38
	l0.19,0.28v0.61v8.09v17.47V98.2v21.66v38.17v28.15v24.57v23.6v21.96v8.18v0.37l-0.09,0.37l-0.2,0.33l-0.2,0.26l-0.22,0.24
	l-0.22,0.35l-0.28,0.26l-0.24,0.2l-0.37,0.18l-0.39,0.22l-0.59,0.18h-23.51h-24.38h-28.23h-23.53h-25.22h-30.15h-65.57h-7.58
	l-0.67-0.25l-0.28-0.07l-0.4-0.24l-0.5-0.34l-0.41-0.4l-0.31-0.38l-0.18-0.24v-0.52V264.5z"/>
<circle class="st55" cx="386.46" cy="121.44" r="1.22"/>
<polygon class="st56" points="292.45,142.92 308.29,133.97 320.86,125.03 329.3,117.38 336.36,111.24 344.8,102.98 354.44,92.99 
	360.12,83.35 367.53,72.6 370.97,65.27 373.9,57.03 374.35,53.82 294.02,53.82 292.16,55.77 "/>
<path class="st56" d="M457.73,53.82c0,0-1.85-2.19,2.36,14.33s1.69,6.96,1.69,6.96s0.93,1.79,4.26,8.2
	c3.33,6.42-1.32-3.03,4.51,8.68c5.83,11.71,7.08,13.15,7.08,13.15l4.72,5.39l4.38,4.72l5.39,4.96l4.38,4.81l4.38,6.08l3.71,4.05
	l4.72,4.05l4.38,1.69l4.72,2.38l7.3,2.34V56.93l-2.6-3.04L457.73,53.82z"/>
<polygon class="st57" points="405.17,149.71 405.17,156.52 405.17,163.46 405.17,169.18 405.17,169.93 405.32,170.12 405.58,170.21 
	405.88,170.32 406.24,170.45 406.76,170.69 407.15,170.82 407.64,170.89 408.08,171.05 408.48,171.22 408.98,171.33 409.45,171.43 
	409.89,171.49 410.18,171.49 410.33,171.31 410.33,171.03 410.33,169.74 410.33,167.78 410.33,166.52 410.33,165.23 410.33,163.75 
	410.33,161.68 410.33,159.64 410.33,157.83 410.33,155.71 410.33,154.39 410.43,154.07 410.59,153.83 410.81,153.66 410.99,153.58 
	411.15,153.58 411.36,153.56 411.5,153.58 411.65,153.62 411.82,153.75 411.91,153.9 412.01,154.13 412.12,154.39 412.12,154.63 
	412.12,155.96 412.12,157.81 412.12,159.43 412.12,161.1 412.12,161.65 412.32,161.87 412.6,162.03 412.86,162.13 413.12,162.21 
	413.41,162.31 413.68,162.36 414.13,162.51 414.48,162.57 414.76,162.57 414.93,162.57 415.25,162.57 415.48,162.58 415.83,162.56 
	416.1,162.46 416.35,162.25 416.65,162.02 416.88,161.77 417.09,161.59 417.3,161.41 417.49,161.08 417.64,160.76 417.82,160.43 
	417.92,160.06 418.01,159.64 418.12,159.33 418.12,158.94 418.12,158.68 418.12,158.33 418.12,157.85 418.12,157.44 418.12,157.09 
	418.12,156.72 418.03,156.34 417.92,156.1 417.78,155.84 417.65,155.52 417.45,155.22 417.25,154.88 417.08,154.65 416.92,154.39 
	416.61,153.98 416.3,153.63 415.94,153.33 415.35,152.92 414.81,152.68 414.31,152.3 413.75,152.14 412.51,151.63 411.74,151.4 
	410.82,151.14 409.65,150.77 408.67,150.4 407.83,150.1 407.14,149.92 406.72,149.9 406.36,149.87 405.92,149.85 405.72,149.84 "/>
<path class="st45" d="M405.17,168.49"/>
<path class="st45" d="M404.82,161.65"/>
<polygon class="st57" points="405.17,168.49 404.82,168.6 404.51,168.82 404.35,168.91 403.95,168.96 403.56,168.96 403.18,168.96 
	402.64,168.96 402.07,168.96 401.19,168.96 400.28,168.96 399.57,168.9 398.93,168.87 398.57,168.77 398.1,168.72 397.62,168.72 
	397.17,168.59 396.73,168.49 396.32,168.35 395.94,168.24 395.54,168.08 395.2,167.92 394.85,167.73 394.52,167.55 394.24,167.3 
	394.06,167.15 393.96,166.98 393.96,166.74 393.87,166.51 393.87,166.22 394.03,166.02 394.25,165.82 394.59,165.55 394.93,165.37 
	395.49,165.08 396.05,164.84 396.74,164.59 397.62,164.29 398.24,164.09 399.01,163.83 399.73,163.57 400.57,163.3 401.56,162.99 
	402.47,162.7 403.16,162.53 403.94,162.26 404.45,162.13 404.82,162.03 405.17,161.98 405.17,162.44 405.17,163.13 405.17,163.84 
	405.17,164.36 405.17,164.57 404.97,164.68 404.82,164.75 404.57,164.82 404.31,164.95 403.97,165.1 403.55,165.25 403,165.38 
	402.55,165.55 401.85,165.76 401.42,165.87 400.98,165.97 400.64,166.12 400.28,166.22 399.88,166.36 399.57,166.44 399.3,166.56 
	399.11,166.7 398.99,166.87 399,167.02 399.08,167.21 399.3,167.35 399.52,167.5 399.85,167.52 400.27,167.52 400.63,167.45 
	401.03,167.36 401.74,167.13 402.25,167.05 402.86,166.83 403.44,166.66 403.97,166.43 404.46,166.22 404.72,166.19 405.17,166.08 
	405.17,166.43 405.17,166.95 405.17,167.68 "/>
<polygon class="st57" points="411.43,164.1 412.4,163.71 413.34,163.55 414.21,163.33 414.91,163.18 415.58,163.18 416.33,163.06 
	416.84,163.06 417.52,163.06 418.12,163.06 418.74,163.16 419.2,163.19 419.84,163.25 420.53,163.3 421.31,163.46 421.8,163.55 
	422.32,163.81 422.77,164.04 423.19,164.29 423.72,164.46 424.14,164.71 424.42,165.05 424.63,165.27 424.72,165.65 424.72,165.92 
	424.6,166.22 424.39,166.56 424.14,166.8 423.83,167.08 423.51,167.29 423.06,167.52 422.71,167.72 422.17,167.97 421.68,168.14 
	421.13,168.32 420.63,168.45 420.17,168.57 419.62,168.67 419,168.81 418.35,169.06 417.62,169.34 416.88,169.58 416.12,169.82 
	415.44,170.06 414.53,170.32 413.62,170.63 412.82,170.9 411.96,171.09 411.4,171.09 410.88,171.17 410.33,171.17 410.33,170 
	410.33,169.23 410.68,169.04 411.2,168.87 411.83,168.66 412.68,168.42 413.68,168.11 414.31,167.9 415.12,167.55 416.11,167.12 
	417,166.66 417.82,166.46 418.35,166.28 418.96,166.11 419.3,165.97 419.68,165.8 419.91,165.65 419.93,165.47 419.86,165.27 
	419.61,165.15 419.37,165.09 418.84,165.01 418.42,164.99 418.12,165.04 417.53,165.18 417.06,165.26 416.42,165.47 415.84,165.52 
	415.24,165.73 414.7,165.99 414.21,166.14 413.62,166.31 413.19,166.5 412.5,166.8 411.96,167.04 411.52,167.12 411.19,167.2 
	410.33,167.38 410.33,166.66 410.33,165.79 410.33,165.02 410.33,164.66 410.33,164.36 410.63,164.27 411.03,164.18 "/>
<ellipse class="st58" cx="373.11" cy="120.22" rx="20.76" ry="31.74"/>
<ellipse class="st58" cx="439.2" cy="118.72" rx="20.76" ry="31.74"/>
<polygon class="st59" points="329.3,117.38 349.66,117.38 349.66,123.92 322.09,123.92 "/>
<rect x="395.63" y="117.38" class="st59" width="20.95" height="6.54"/>
<polygon class="st59" points="461.74,117.38 489.03,117.38 495.49,123.92 461.74,123.92 "/>
<polygon class="st60" points="362.86,82.47 365.66,80 369.45,77.02 371.76,76.15 375.95,75.39 381.15,75.39 384.25,75.39 
	388.52,75.39 390.69,75.39 391.36,75.39 392.51,76.15 392.51,77.88 392.51,79.84 392.51,81.65 391.36,82.47 391.11,83.3 
	385.4,84.12 383.29,84.12 380.65,84.12 377.69,84.12 373.07,84.12 369.62,84.12 366.32,84.12 365.17,84.12 364.02,84.12 "/>
<polygon class="st60" points="425.22,80.91 428.02,78.44 431.81,75.46 434.11,74.59 438.31,73.83 443.5,73.83 446.61,73.83 
	450.88,73.83 453.05,73.83 453.72,73.83 454.87,74.59 454.87,76.32 454.87,78.28 454.87,80.09 453.72,80.91 453.47,81.73 
	447.76,82.56 445.64,82.56 443.01,82.56 440.04,82.56 435.43,82.56 431.97,82.56 428.68,82.56 427.53,82.56 426.37,82.56 "/>
<polygon class="st9" points="388.79,87.99 390.93,86.6 392.83,85.96 394.35,85.33 395.99,85.33 397.13,85.33 398.52,85.33 
	400.41,85.84 401.8,86.09 404.14,86.09 405.72,85.96 408.25,85.84 410.4,84.57 412.29,83.94 414.82,83.31 416.59,83.31 
	417.98,83.31 419.75,84.07 421.52,84.95 422.66,85.65 423.29,86.47 419.75,85.65 417.85,85.08 416.34,84.95 413.56,85.65 
	412.04,86.6 410.15,87.14 407.74,87.99 404.96,87.99 401.8,87.99 399.91,87.14 397.51,87.14 396.24,87.14 394.6,87.14 392.96,87.99 
	391.44,87.99 "/>
<polygon class="st9" points="388.79,94.19 390.93,92.8 392.83,92.17 394.35,91.53 395.99,91.53 397.13,91.53 398.52,91.53 
	400.41,92.04 401.8,92.29 404.14,92.29 405.72,92.17 408.25,92.04 410.4,90.78 412.29,90.14 414.82,89.51 416.59,89.51 
	417.98,89.51 419.75,90.27 421.52,91.15 422.66,91.85 423.29,92.67 419.75,91.85 417.85,91.28 416.34,91.15 413.56,91.85 
	412.04,92.8 410.15,93.34 407.74,94.19 404.96,94.19 401.8,94.19 399.91,93.34 397.51,93.34 396.24,93.34 394.6,93.34 392.96,94.19 
	391.44,94.19 "/>
<polygon class="st61" points="372.96,168.65 369.75,170.24 366.31,172.74 363.46,175.88 360.03,179.35 357.19,183.45 354.35,187.56 
	351.27,192.58 348.07,197.08 346.06,199.94 343.7,205.14 341.34,209.37 339.93,214.82 338.76,219.36 342.19,212.98 345.44,208.28 
	349.17,201.71 351.53,197.48 353.6,193.42 357.33,188.33 360.16,183.74 363.36,180.21 365.97,176.04 "/>
<polygon class="st61" points="478.97,215.4 478.24,212.18 476.71,208.43 474.44,204.94 472.01,200.84 468.83,196.99 465.65,193.15 
	461.67,188.78 458.21,184.5 456,181.79 451.68,177.94 448.27,174.44 443.5,171.28 439.52,168.65 444.69,173.81 448.33,178.21 
	453.6,183.69 457.01,187.19 460.33,190.38 464.22,195.31 467.85,199.33 470.4,203.26 473.7,206.93 "/>
<polygon class="st62" points="371.78,172.66 370.51,173.34 370.01,174.18 370.01,175.02 370.01,176.37 369.33,178.57 368.91,180.68 
	368.4,183.55 368.4,187.51 367.56,191.65 367.56,194.26 367.56,201.1 367.98,207.51 368.66,210.97 369.67,214.43 370.68,217.98 
	373.72,223.71 375.41,225.99 376.42,227.77 377.77,228.44 377.18,224.05 377.18,222.28 377.77,221.1 379.37,225.74 382.07,231.48 
	384.69,234.94 386.97,237.55 389.33,239.92 391.1,241.18 391.86,241.18 391.86,239.24 391.27,236.54 391.19,235.19 393.3,239.24 
	395.07,241.6 396.76,243.29 398.78,245.15 401.23,246.67 403.51,248.1 405.2,248.95 406.81,249.54 407.31,249.54 408.49,248.95 
	411.61,247.17 414.48,245.57 416.42,244.05 418.45,241.94 420.3,239.75 421.82,237.13 422.66,235.28 422.66,237.22 422.16,239.58 
	421.74,241.01 422.16,241.44 423.26,241.01 424.18,239.83 427.05,237.39 429.33,234.85 430.85,232.74 432.62,229.79 433.89,226.92 
	435.07,223.63 435.83,221.18 435.83,222.79 436.42,224.73 436.42,226.67 435.74,228.69 436.42,228.52 437.52,227.68 439.12,225.4 
	440.81,222.36 442.66,219.5 443.51,216.71 444.79,212.33 445.67,206.89 445.67,203.42 445.94,197.23 445.54,189.75 445.06,186.21 
	443.77,179.14 443.02,176.01 442.48,174.18 441.05,172.66 440.09,172.66 "/>
<ellipse class="st63" cx="372.83" cy="118.72" rx="16.68" ry="24.54"/>
<polygon class="st64" points="356.58,113.22 359.21,104.57 362.95,98.95 365.73,96.51 369.59,94.65 372.83,94.18 375.45,94.48 
	378.28,95.53 379.5,96.22 381.29,97.57 383.13,99.43 384.3,100.91 386.24,104.12 387.4,106.76 388.14,108.96 388.64,110.86 
	388.64,111.92 388.64,112.62 389.09,113.22 "/>
<ellipse class="st63" cx="439.2" cy="118.72" rx="16.68" ry="24.54"/>
<polygon class="st64" points="422.94,113.22 425.57,104.57 429.32,98.95 432.1,96.51 435.96,94.65 439.2,94.18 441.82,94.48 
	444.65,95.53 445.87,96.22 447.65,97.57 449.5,99.43 450.66,100.91 452.61,104.12 453.76,106.76 454.51,108.96 455,110.86 
	455,111.92 455,112.62 455.46,113.22 "/>
<circle class="st65" cx="382.65" cy="128.7" r="5.5"/>
<circle class="st54" cx="385.36" cy="130.84" r="1.56"/>
<circle class="st65" cx="449.02" cy="128.7" r="5.5"/>
<circle class="st54" cx="451.73" cy="130.84" r="1.56"/>
<ellipse class="st66" cx="352.17" cy="149.59" rx="3.69" ry="6.66"/>
<ellipse class="st66" cx="346.86" cy="168.49" rx="3.69" ry="6.66"/>
<ellipse class="st66" cx="459.24" cy="149.59" rx="3.69" ry="6.66"/>
<ellipse class="st66" cx="465.43" cy="165.47" rx="3.69" ry="6.66"/>
<ellipse class="st66" cx="341.42" cy="187.39" rx="3.69" ry="6.66"/>
<ellipse class="st66" cx="336.11" cy="206.29" rx="3.69" ry="6.66"/>
<ellipse class="st66" cx="472.81" cy="181.81" rx="3.69" ry="6.66"/>
<ellipse class="st66" cx="479" cy="197.69" rx="3.69" ry="6.66"/>
</svg>
