<svg id="Layer_1" data-name="Layer 1" xmlns="http://www.w3.org/2000/svg" xmlns:xlink="http://www.w3.org/1999/xlink" viewBox="0 0 1281.65 451.11"><defs><style>.cls-1,.cls-58,.cls-59,.cls-67,.cls-8{fill:#fff;}.cls-1,.cls-13,.cls-14,.cls-15,.cls-16,.cls-17,.cls-18,.cls-19,.cls-20,.cls-21,.cls-22,.cls-23,.cls-24,.cls-25,.cls-26,.cls-27,.cls-28,.cls-29,.cls-30,.cls-40,.cls-41,.cls-42,.cls-43,.cls-44,.cls-45,.cls-46,.cls-47,.cls-48,.cls-50,.cls-51,.cls-52,.cls-53,.cls-55,.cls-58,.cls-64,.cls-65,.cls-66{stroke:#000;}.cls-1,.cls-10,.cls-11,.cls-12,.cls-13,.cls-14,.cls-15,.cls-16,.cls-17,.cls-18,.cls-19,.cls-2,.cls-20,.cls-21,.cls-22,.cls-23,.cls-24,.cls-25,.cls-26,.cls-27,.cls-28,.cls-29,.cls-3,.cls-30,.cls-4,.cls-40,.cls-41,.cls-42,.cls-43,.cls-44,.cls-45,.cls-46,.cls-47,.cls-48,.cls-49,.cls-5,.cls-50,.cls-51,.cls-52,.cls-53,.cls-54,.cls-55,.cls-56,.cls-57,.cls-58,.cls-59,.cls-6,.cls-60,.cls-61,.cls-62,.cls-63,.cls-64,.cls-65,.cls-66,.cls-67,.cls-68,.cls-69,.cls-7,.cls-70,.cls-8,.cls-9{stroke-miterlimit:10;}.cls-1,.cls-2,.cls-3,.cls-4,.cls-5,.cls-6,.cls-7{stroke-width:5px;}.cls-2{fill:#a47449;}.cls-2,.cls-3,.cls-4,.cls-5,.cls-6,.cls-7{stroke:#654321;}.cls-3{fill:#654321;}.cls-4{fill:#a2ffa3;}.cls-5{fill:#4575ff;}.cls-6{fill:#001700;}.cls-7{fill:#007331;}.cls-8{stroke:#fff;}.cls-10,.cls-63,.cls-8,.cls-9{stroke-width:3px;}.cls-9{fill:#d48bff;stroke:#d48bff;}.cls-10{fill:#696969;}.cls-10,.cls-11,.cls-12{stroke:#a9a9a9;}.cls-11{fill:#8bffbc;}.cls-12{fill:#2effc1;}.cls-14{fill:#afaeb2;}.cls-15{fill:#8e8d91;}.cls-16{fill:#86d6da;}.cls-16,.cls-17,.cls-18,.cls-27,.cls-28,.cls-29,.cls-30{stroke-width:0.5px;}.cls-17{fill:#868589;}.cls-18{fill:#98d4d9;}.cls-19{fill:#acaeb1;}.cls-20{fill:#5cb7a4;}.cls-20,.cls-21,.cls-22,.cls-23,.cls-24,.cls-25,.cls-55,.cls-70{stroke-width:0.25px;}.cls-21{fill:#8a898d;}.cls-22{fill:#73b5a5;}.cls-23{fill:#87868a;}.cls-24{fill:#82b3a6;}.cls-25{fill:#8d8c90;}.cls-26,.cls-27,.cls-36,.cls-49,.cls-55{fill:none;}.cls-28{fill:#555358;}.cls-29{fill:#b7b7b9;}.cls-30{fill:#505150;}.cls-31{fill:#f3ab40;}.cls-32{fill:#e9ad55;}.cls-33{fill:#43967f;}.cls-34{fill:#245ea9;}.cls-35{fill:#adaeb1;}.cls-37{fill:#599480;}.cls-38{fill:#2964bf;}.cls-39{fill:#c6332a;}.cls-40{fill:#fff2eb;}.cls-41{fill:#fff7f3;}.cls-42{fill:#6c707f;}.cls-43{fill:#ffc4a6;}.cls-44{fill:#ffdac3;}.cls-45{fill:#e5eaff;}.cls-46{fill:#cb997e;}.cls-47{fill:url(#linear-gradient);}.cls-48{fill:url(#linear-gradient-2);}.cls-49,.cls-54,.cls-56,.cls-57,.cls-59,.cls-60,.cls-61{stroke:#000817;}.cls-50{fill:#26272a;}.cls-51{fill:#3e3f44;}.cls-52{fill:#52545a;}.cls-53{fill:#282a2e;}.cls-54{fill:#2b2c31;}.cls-56{fill:#00b98f;}.cls-57{fill:#56585d;}.cls-60{fill:#948f8f;}.cls-61{fill:#1f2023;}.cls-62{fill:#adb2ae;stroke-width:7px;opacity:0.73;}.cls-62,.cls-63{stroke:#4d4545;}.cls-63{fill:#4d4545;}.cls-64,.cls-66{fill:#b2b1aa;}.cls-65,.cls-66{stroke-width:0.75px;}.cls-67,.cls-68{stroke:#ecbcb4;}.cls-68{fill:#ecbcb4;}.cls-69,.cls-70{stroke:#a27100;}.cls-70{fill:#8be1ff;}.cls-71{font-size:18.06px;font-family:MyriadPro-Regular, Myriad Pro;}.cls-72{letter-spacing:-0.01em;}.cls-73{letter-spacing:-0.01em;}.cls-74{letter-spacing:0.02em;}.cls-75{letter-spacing:-0.01em;}.cls-76{letter-spacing:-0.01em;}.cls-77{fill:#439cd6;}.cls-78{fill:#8b4593;}.cls-79{fill:#ce4844;}.cls-80{fill:#e6873b;}.cls-81{fill:#edb649;}.cls-82{fill:#79ba58;}</style><linearGradient id="linear-gradient" x1="866.54" y1="384.96" x2="931.06" y2="384.96" gradientUnits="userSpaceOnUse"><stop offset="0" stop-color="#fff"/><stop offset="0.99" stop-opacity="0.2"/></linearGradient><linearGradient id="linear-gradient-2" x1="996.96" y1="388.33" x2="1061.49" y2="388.33" xlink:href="#linear-gradient"/></defs><rect class="cls-1" x="2.5" y="2.5" width="1275.89" height="446.11"/><polygon class="cls-2" points="3.25 2.5 3.25 448.17 1279.15 448.17 1279.15 2.81 3.25 2.5"/><rect class="cls-3" x="3.25" y="16.04" width="1275.14" height="17.05"/><rect class="cls-3" x="3.81" y="267.63" width="1275.14" height="17.05"/><rect class="cls-4" x="193.58" y="317.71" width="85.66" height="54.7"/><ellipse class="cls-5" cx="195.09" cy="407.99" rx="7.52" ry="19.56"/><ellipse class="cls-6" cx="240.23" cy="405.73" rx="10.53" ry="21.82"/><polygon class="cls-7" points="211.6 383.92 260.68 383.92 252.26 398.96 221.15 398.96 211.6 383.92"/><rect class="cls-8" x="286.16" y="140.56" width="212.15" height="93.28" rx="31"/><rect class="cls-9" x="537.68" y="43.54" width="259.24" height="90.61" rx="28"/><polyline class="cls-9" points="790.91 110.08 790.91 129.64 771.35 129.64"/><polygon class="cls-10" points="188.87 448.17 165 370.37 188.87 296.66 279.25 296.66 301.93 372.41 279.25 448.17 188.87 448.17"/><rect class="cls-11" x="192.08" y="316.21" width="85.66" height="54.7"/><ellipse class="cls-11" cx="193.26" cy="661.3" rx="7.33" ry="14.34" transform="translate(-191.73 -167.74) rotate(-17.8)"/><ellipse class="cls-11" cx="276.17" cy="661.01" rx="14.34" ry="7.33" transform="translate(-438.86 385.59) rotate(-65.97)"/><polygon class="cls-12" points="228.19 406.48 250.76 406.48 259.18 391.44 210.09 391.44 219.65 406.48 228.19 406.48"/><ellipse class="cls-11" cx="205.25" cy="434.3" rx="14.34" ry="7.33"/><ellipse class="cls-11" cx="236.85" cy="434.3" rx="14.34" ry="7.33"/><ellipse class="cls-11" cx="268.45" cy="434.3" rx="14.34" ry="7.33"/><path class="cls-10" d="M524.94,706.62s-3-95.31,0-104.61,31.61-37.88,79.75-37.88,65.39,27.62,66.55,37.88,0,104.61,0,104.61" transform="translate(1.15 -258.46)"/><path class="cls-13" d="M541.5,604.76v21.52s13.54-.46,16.55-.46,9.06-1,9-10.3-6.47-10.76-9.26-10.76Z" transform="translate(1.15 -258.46)"/><path class="cls-13" d="M541.5,646.88v21.53S555,668,558.05,668s9.06-1,9-10.3-6.47-10.77-9.26-10.77Z" transform="translate(1.15 -258.46)"/><path class="cls-13" d="M585.13,604.76v21.52s13.55-.46,16.56-.46,9-1,9-10.3-6.48-10.76-9.27-10.76Z" transform="translate(1.15 -258.46)"/><path class="cls-13" d="M585.13,646.88v21.53s13.55-.46,16.56-.46,9-1,9-10.3-6.48-10.77-9.27-10.77Z" transform="translate(1.15 -258.46)"/><path class="cls-13" d="M585.13,680v21.53s13.55-.46,16.56-.46,9-1,9-10.3S604.25,680,601.46,680Z" transform="translate(1.15 -258.46)"/><path class="cls-13" d="M631.78,646.88v21.53s13.54-.46,16.55-.46,9-1,9-10.3-6.48-10.77-9.26-10.77Z" transform="translate(1.15 -258.46)"/><path class="cls-13" d="M633.28,680v21.53s13.54-.46,16.55-.46,9.06-1,9-10.3S652.4,680,649.61,680Z" transform="translate(1.15 -258.46)"/><rect class="cls-8" x="286.16" y="140.56" width="212.15" height="93.28" rx="31"/><polygon class="cls-14" points="885.49 257.48 851.7 257.48 851.43 257.39 851.17 257.27 850.93 257.11 850.65 256.89 850.29 256.62 849.99 256.39 849.77 256.17 849.52 256.02 849.39 255.86 849.34 255.69 849.34 255.5 849.34 255.27 849.34 253.74 849.34 251.85 849.34 250.16 849.34 248.25 849.34 247.35 849.34 246.85 849.34 244.09 849.52 243.87 849.84 243.84 850.41 243.77 850.8 243.72 851.49 243.61 852 243.52 852.76 243.36 853.48 243.16 854.11 243 854.77 242.81 855.59 242.51 855.89 242.42 856.17 242.32 856.4 242.22 856.59 242.15 856.76 242.08 857.02 241.97 857.33 241.83 857.65 241.69 858 241.53 858.39 241.34 858.82 241.12 859.13 240.94 859.46 240.75 859.89 240.47 860.24 240.23 860.67 239.93 860.93 239.76 861.22 239.56 861.54 239.37 861.75 239.21 862.01 239.01 862.27 238.83 862.54 238.64 862.88 238.35 863.17 238.08 863.36 237.9 863.6 237.64 863.81 237.43 864.04 237.2 864.23 237.02 864.47 236.81 864.74 236.51 864.95 236.28 865.26 235.92 865.54 235.56 865.81 235.16 866.08 234.8 866.34 234.37 866.6 233.97 867 233.41 867.32 232.83 867.55 232.3 867.85 231.71 868.17 230.99 868.48 230.21 868.76 229.34 869.06 228.38 869.34 227.13 869.47 226.49 869.62 225.67 869.67 224.76 869.71 223.37 869.67 221.68 869.63 220.53 869.49 219.65 869.23 218.65 868.93 217.64 868.58 216.56 868.16 215.41 867.65 214.29 867.08 213.37 866.49 212.46 865.6 211.19 864.97 210.44 864.32 209.71 863.72 209.06 862.95 208.32 862.1 207.57 861.18 206.84 860.43 206.28 859.55 205.75 858.29 205.07 857.05 204.5 856.33 204.17 855.16 203.72 854.44 203.41 853.51 203.08 852.57 202.84 851.44 202.62 850.32 202.41 849.47 202.34 848.51 202.28 847.38 202.25 846.23 202.25 845.6 202.25 844.6 202.31 843.64 202.41 842.69 202.6 841.88 202.76 841.24 202.92 840.42 203.11 839.59 203.4 838.9 203.61 838.21 203.86 837.64 204.12 836.93 204.43 836.16 204.86 835.32 205.37 834.61 205.71 833.76 206.22 833.08 206.71 832.36 207.28 831.85 207.69 831.26 208.18 830.61 208.76 830.03 209.38 829.39 210.09 828.87 210.7 828.22 211.5 827.67 212.39 827.22 213.26 826.72 214.22 826.3 215.06 825.87 215.84 825.53 216.81 825.3 217.43 825.05 218.17 824.9 219.07 824.76 219.88 824.63 220.73 824.6 221.58 824.59 222.35 824.59 223.25 824.6 224.05 824.64 224.74 824.74 225.55 824.88 226.4 824.99 227.12 825.22 227.93 825.49 229.1 825.92 230.12 826.43 231.32 827.17 232.65 827.9 233.93 828.72 235.1 829.63 236.19 830.43 237.07 831.3 237.89 832.43 238.88 833.48 239.71 834.5 240.4 835.54 241 836.77 241.63 837.73 242.09 839.14 242.71 840.69 243.24 842.09 243.61 843.19 243.84 843.97 243.96 844.28 244 844.5 244.02 844.83 244.05 845.13 244.11 845.25 244.14 845.37 244.25 845.32 247.94 845.34 251.17 845.35 254.19 845.36 255.4 845.29 255.61 845.13 255.74 844.96 255.91 844.66 256.16 844.38 256.42 844.17 256.61 843.88 256.89 843.58 257.14 843.26 257.34 842.83 257.48 842.33 257.48 841.61 257.48 839.01 257.48 832.51 257.48 824.99 257.48 818.54 257.48 812.24 257.48 810.49 257.48 809.94 257.27 809.18 256.95 808.45 256.63 807.93 256.35 807.17 255.71 806.45 254.9 806.04 254.22 805.56 253.5 805.2 252.62 805.2 251.69 805.2 244.78 805.2 226.55 805.2 200.68 805.2 170.24 805.2 138.97 805.2 102.79 805.2 69.66 805.2 50.57 805.2 49.17 805.38 48.38 805.75 47.58 806.23 47.07 806.8 46.39 807.45 45.76 808.19 45.31 809.04 45.11 809.95 45.11 816.85 45.11 836.36 45.11 855.52 45.11 868.19 45.11 878.97 45.11 883.42 45.11 885.11 45.11 886.18 45.42 886.93 45.8 887.72 46.5 888.1 47.25 888.7 47.43 889.45 47.43 890.34 47.43 891.27 47.48 914.54 47.49 939.57 47.58 961.47 47.8 981.95 47.8 998.43 47.8 1013.28 47.84 1024.65 47.97 1036.44 48.18 1037.37 48.16 1038.26 47.75 1039.09 47.22 1039.76 46.59 1040.32 46.1 1040.69 45.76 1041.37 45.5 1042.49 45.35 1043.87 45.32 1051.64 45.11 1069.07 45.11 1100.91 45.11 1120.73 45.11 1122.27 45.38 1123.59 45.75 1124.71 46.29 1125.87 47.08 1126.74 48.11 1127.36 49.52 1127.57 51.39 1127.57 53.17 1127.57 76.09 1127.57 103.64 1127.57 132.62 1127.57 164.92 1127.57 192.37 1127.57 218.87 1127.57 245.19 1127.57 251.93 1127.57 253.09 1127.41 254.02 1127.13 254.75 1126.68 255.28 1126.06 255.87 1125.23 256.4 1124.41 256.68 1123.3 257.01 1122.26 257.22 1120.42 257.48 1118.56 257.48 1114.63 257.48 1107.23 257.48 1096.71 257.48 1084.99 257.48 1074.34 257.48 1064.88 257.48 1047.97 257.48 1047.31 257.36 1046.72 257.11 1046.3 256.84 1046 256.39 1045.89 255.87 1045.84 255.28 1045.82 254.78 1045.8 254.47 1045.62 254.24 1045.3 254.15 1044.87 254.13 1044.42 254.11 1043.07 254.09 1040.72 254.09 1031.19 254.07 1010.94 254.03 997.09 253.99 981.38 253.91 960.65 253.88 942.84 253.88 923.53 253.88 901.5 253.91 890.36 253.8 889.9 253.8 889.47 253.88 889.11 254.22 888.82 254.71 888.63 255.23 888.41 255.77 887.99 256.13 887.64 256.48 887.16 256.92 886.39 257.27 886.06 257.48 885.49 257.48"/><polygon class="cls-15" points="1066 214.26 1065.72 214.73 1065.38 215.44 1064.93 216.28 1064.66 217.05 1064.33 217.97 1064.02 218.91 1063.77 219.78 1063.51 220.8 1063.42 221.42 1063.35 222.38 1063.35 223.21 1063.35 224.87 1063.35 225.43 1063.35 226.05 1063.48 226.73 1063.66 227.55 1063.77 228.33 1063.99 229.19 1064.2 229.81 1064.37 230.45 1064.68 231.22 1064.9 231.78 1065.17 232.4 1065.47 233.04 1065.75 233.64 1066.1 234.14 1066.45 234.71 1066.91 235.33 1067.33 235.96 1067.84 236.53 1068.28 237.1 1068.75 237.57 1069.22 238.14 1069.65 238.62 1070.12 238.94 1070.72 239.45 1071.33 239.91 1071.83 240.31 1072.26 240.63 1072.8 241.05 1073.45 241.37 1074.2 241.83 1074.84 242.19 1075.56 242.56 1076.29 242.9 1076.98 243.14 1077.65 243.41 1078.34 243.63 1078.93 243.82 1079.6 244.05 1080.28 244.25 1081.06 244.38 1081.77 244.54 1082.56 244.62 1083.44 244.73 1084.16 244.73 1085.36 244.73 1087.88 244.73 1088.72 244.73 1089.51 244.59 1090.27 244.51 1090.97 244.33 1091.71 244.14 1092.55 243.97 1093.17 243.78 1094.04 243.49 1094.96 243.12 1095.73 242.74 1096.59 242.39 1097.26 242.02 1097.98 241.6 1098.65 241.22 1099.33 240.76 1099.89 240.36 1100.5 239.87 1101.01 239.42 1101.66 238.84 1102.19 238.38 1102.61 238 1103.16 237.42 1103.58 236.93 1103.96 236.47 1104.39 235.86 1104.81 235.25 1105.22 234.68 1105.51 234.22 1105.83 233.66 1106.13 233.08 1106.39 232.59 1106.71 232 1106.98 231.38 1107.28 230.64 1107.52 230.07 1107.69 229.5 1107.82 228.92 1107.97 228.17 1108.08 227.63 1108.17 227.1 1108.25 226.59 1108.25 225.7 1108.25 224.87 1108.25 222.47 1108.25 221.87 1108.25 221.24 1108.08 220.35 1107.79 219.44 1107.54 218.56 1107.28 217.72 1106.98 216.98 1106.64 216.2 1106.21 215.31 1105.91 214.72 1105.56 214.06 1105.13 213.27 1104.69 212.66 1104.18 211.94 1103.56 211.19 1102.85 210.43 1102.38 209.95 1101.78 209.34 1100.98 208.69 1100.37 208.16 1099.72 207.66 1098.95 207.12 1098.12 206.61 1097.36 206.13 1096.46 205.69 1095.57 205.27 1094.63 204.87 1093.83 204.55 1093 204.27 1092.2 203.98 1091.39 203.76 1090.62 203.58 1089.73 203.41 1088.8 203.28 1087.88 203.2 1087.17 203.2 1084.06 203.2 1083.38 203.28 1082.66 203.39 1082.05 203.45 1081.19 203.63 1080.39 203.8 1079.66 203.98 1078.93 204.17 1078.27 204.35 1077.7 204.57 1077.09 204.81 1076.4 205.08 1075.77 205.32 1075.08 205.62 1074.41 205.99 1073.77 206.34 1073.15 206.74 1072.42 207.22 1071.87 207.62 1071.3 208.06 1070.84 208.41 1070.34 208.81 1069.8 209.29 1069.42 209.69 1068.83 210.25 1068.49 210.66 1068.06 211.14 1067.69 211.57 1067.25 212.07 1066.82 212.64 1066.51 213.15 1066 214.26"/><polygon class="cls-15" points="826.21 177.14 826.34 176.51 826.51 175.73 826.71 175.12 826.9 174.49 827.17 174 827.44 173.5 827.74 172.98 828.07 172.5 828.45 171.94 828.82 171.47 829.38 171.02 829.88 170.69 830.39 170.28 830.93 169.86 831.43 169.61 832.03 169.29 832.63 169 833.35 168.78 834.03 168.59 834.67 168.46 835.24 168.38 835.88 168.29 836.47 168.29 837.21 168.29 837.72 168.29 838.44 168.4 838.95 168.53 839.65 168.7 840.27 168.91 840.98 169.13 841.66 169.45 842.41 169.83 842.92 170.18 843.48 170.61 844.05 171.09 844.62 171.69 845.12 172.25 845.61 172.72 845.89 173.25 846.23 173.82 846.59 174.39 846.93 175.06 846.99 175.57 847.21 176.52 847.29 177.29 847.29 178.22 847.29 179.07 847.21 180.1 847.09 180.8 846.91 181.32 846.59 181.93 846.23 182.58 845.88 183.23 845.46 183.71 845.03 184.31 844.57 184.79 844.08 185.24 843.72 185.5 843.25 185.84 842.67 186.22 842.28 186.43 841.76 186.75 841.28 186.97 840.66 187.22 840.09 187.38 839.53 187.54 838.99 187.65 838.42 187.79 837.6 187.79 836.75 187.79 836.09 187.79 835.83 187.79 835.37 187.79 834.62 187.68 833.94 187.52 833.45 187.32 832.67 187.13 832.11 186.84 831.46 186.54 830.79 186.11 830.12 185.66 829.6 185.2 829.06 184.69 828.53 184.15 828.15 183.65 827.72 183.03 827.33 182.41 826.93 181.77 826.72 181.16 826.5 180.53 826.31 179.89 826.21 179.23 826.21 178.45 826.21 177.7 826.21 177.14"/><polygon class="cls-15" points="850.41 243.77 850.8 243.72 851.49 243.61 852 243.52 852.76 243.36 853.48 243.16 854.11 243 854.77 242.81 855.59 242.51 855.89 242.42 856.17 242.32 856.4 242.22 856.76 242.08 857.02 241.97 857.33 241.83 857.65 241.69 858 241.53 858.39 241.34 858.82 241.12 859.13 240.94 859.46 240.75 859.89 240.47 860.24 240.23 860.67 239.93 861.22 239.56 861.54 239.37 862.01 239.01 862.27 238.83 862.54 238.64 862.88 238.35 863.17 238.08 863.6 237.64 863.81 237.43 864.23 237.02 864.47 236.81 864.95 236.28 865.26 235.92 865.54 235.56 865.81 235.16 866.08 234.8 866.34 234.37 866.6 233.97 867 233.41 867.32 232.83 867.55 232.3 867.85 231.71 868.17 230.99 868.48 230.21 868.76 229.34 869.06 228.38 869.34 227.13 869.47 226.49 869.62 225.67 869.67 224.76 869.71 223.37 869.67 221.68 869.63 220.53 869.49 219.65 869.23 218.65 868.93 217.64 868.58 216.56 868.16 215.41 867.65 214.29 867.08 213.37 866.49 212.46 865.6 211.19 864.97 210.44 864.32 209.71 863.72 209.06 862.95 208.32 862.1 207.57 861.18 206.84 860.43 206.28 859.55 205.75 858.29 205.07 857.05 204.5 856.33 204.17 855.16 203.72 854.44 203.41 853.51 203.08 852.57 202.84 851.44 202.62 850.32 202.41 849.47 202.34 848.51 202.28 847.38 202.25 846.23 202.25 845.6 202.25 844.6 202.31 843.64 202.41 842.69 202.6 841.88 202.76 841.24 202.92 840.42 203.11 839.59 203.4 838.9 203.61 838.21 203.86 837.64 204.12 836.93 204.43 836.16 204.86 835.32 205.37 834.61 205.71 833.76 206.22 833.08 206.71 832.36 207.28 831.85 207.69 831.26 208.18 830.61 208.76 830.03 209.38 829.39 210.09 828.87 210.7 828.22 211.5 827.67 212.39 827.22 213.26 826.72 214.22 826.3 215.06 825.87 215.84 825.53 216.81 825.3 217.43 825.05 218.17 824.9 219.07 824.76 219.88 824.63 220.73 824.6 221.58 824.59 222.35 824.59 223.25 824.6 224.05 824.64 224.74 824.74 225.55 824.88 226.4 824.99 227.12 825.22 227.93 825.49 229.1 825.92 230.12 826.43 231.32 827.17 232.65 827.9 233.93 828.72 235.1 829.63 236.19 830.43 237.07 831.3 237.89 832.43 238.88 833.48 239.71 834.5 240.4 835.54 241 836.77 241.63 837.73 242.09 839.14 242.71 840.69 243.24 842.09 243.61 843.19 243.84 843.97 243.96 844.5 244.02 844.99 244.02 845.49 244.02 846.04 244.02 846.78 244.02 847.41 244.02 848.39 244.02 848.95 244.02 849.2 244.02 849.52 243.87 849.84 243.84 850.41 243.77"/><polygon class="cls-16" points="1078.06 224.86 1078.06 223.41 1078.52 222.95 1078.85 222.58 1079.39 222.29 1079.64 222.12 1081.03 222.12 1081.45 222.45 1081.78 222.66 1082.09 222.95 1082.3 223.3 1082.3 224.86 1082.3 225.07 1082.01 225.36 1081.7 225.69 1081.24 226.04 1079.81 226.04 1079.06 225.67 1078.4 225.19 1078.06 224.86"/><polygon class="cls-17" points="1079.66 225.17 1079.02 224.63 1079.02 223.51 1079.34 223.16 1079.66 222.89 1080.85 222.89 1081.32 223.22 1081.63 223.63 1081.63 224.74 1081.12 225.17 1079.66 225.17"/><polygon class="cls-16" points="1083.19 225.94 1083.19 222.18 1085.47 222.18 1085.91 222.49 1086.12 222.89 1086.12 224.03 1085.8 224.44 1085.45 224.57 1083.9 224.53 1083.88 225.94 1083.19 225.94"/><polygon class="cls-17" points="1083.88 222.89 1083.88 223.97 1085.24 223.97 1085.58 223.68 1085.58 223.18 1085.31 222.97 1083.88 222.89"/><polygon class="cls-18" points="1086.62 222.12 1086.64 226.04 1089.76 226.04 1089.76 225.17 1087.47 225.17 1087.47 224.42 1089.76 224.47 1089.76 223.59 1087.41 223.62 1087.37 222.89 1089.76 222.89 1089.74 222.12 1086.62 222.12"/><polygon class="cls-16" points="1090.45 222.12 1090.45 226.04 1091.51 226.04 1091.51 223.7 1091.51 223.43 1091.77 223.59 1092.06 224.06 1093.68 226 1093.72 226.09 1094.25 226.09 1094.34 226.09 1094.3 222.07 1093.77 222.07 1093.76 224.72 1093.76 224.85 1093.61 224.85 1093.48 224.73 1093.38 224.59 1091.6 222.2 1091.52 222.07 1090.45 222.12"/><polyline class="cls-19" points="851.7 257.48 850.21 257.48 848.96 257.48 847.44 257.48 846.32 257.48 844.91 257.48 844.11 257.48 843.26 257.34 843.58 257.14 843.88 256.89 844.38 256.42 844.66 256.16 844.96 255.91 845.29 255.61 845.36 255.4 845.36 254.97 845.35 254.19 845.34 251.17 845.32 247.94 845.37 244.25 845.49 244.02 846.04 244.02 846.78 244.02 847.41 244.02 848.39 244.02 848.95 244.02 849.34 244.09 849.34 244.7 849.34 245.56 849.34 246.85 849.34 248.25 849.34 250.16 849.34 251.85 849.34 253.74 849.34 255.27 849.34 255.69 849.39 255.86 849.77 256.17 849.99 256.39 850.65 256.89 851.17 257.27 851.7 257.48"/><polygon class="cls-20" points="835.97 224.55 835.97 224.17 835.97 223.78 835.97 223.33 835.97 222.62 835.97 222.07 835.97 221.55 835.97 221.25 835.97 221.08 836.25 221.08 836.46 221.08 836.77 221.08 837.07 221.08 837.43 221.08 837.78 221.08 837.95 221.08 838.09 221.08 838.29 221.08 838.52 221.14 838.67 221.25 838.86 221.45 839.02 221.65 839.09 221.87 839.09 222.09 839.09 222.32 839.09 222.58 839.09 222.82 839.01 222.95 838.85 223.07 838.73 223.21 838.55 223.35 838.3 223.45 838.08 223.55 837.7 223.58 837.53 223.58 837.19 223.58 836.89 223.58 836.7 223.58 836.55 223.62 836.49 223.72 836.49 223.96 836.51 224.22 836.5 224.35 836.49 224.55 836.32 224.55 836.17 224.55 835.97 224.55"/><polygon class="cls-21" points="836.5 222.82 836.5 222.45 836.5 222.23 836.54 222.09 836.67 222.05 836.77 222.05 836.95 222.05 837.17 222.05 837.43 222.05 837.7 222.05 837.9 222.05 838.06 222.05 838.25 222.09 838.39 222.12 838.5 222.23 838.5 222.43 838.5 222.6 838.34 222.68 838.09 222.78 837.96 222.82 837.61 222.82 837.28 222.82 836.75 222.82 836.5 222.82"/><polygon class="cls-22" points="839.8 223.68 839.8 222.99 839.8 222.43 839.86 222.13 840.08 221.97 840.37 221.66 840.6 221.52 840.78 221.32 840.93 221.22 841.09 221.08 841.28 221.08 841.59 221.08 841.97 221.08 842.27 221.08 842.45 221.08 842.66 221.14 842.82 221.22 843.04 221.35 843.27 221.54 843.46 221.74 843.63 221.98 843.8 222.22 843.99 222.49 844.08 222.66 844.08 223.14 844.08 223.39 844.08 223.56 844.08 223.81 844.08 223.99 843.84 224.2 843.53 224.55 843.21 224.79 842.99 224.91 842.77 225.02 842.51 225.02 842.15 225.02 841.81 225.02 841.36 225.02 841.2 225.02 840.89 224.81 840.64 224.65 840.42 224.45 840.11 224.18 840.01 223.99 839.8 223.68"/><polygon class="cls-23" points="840.33 223.49 840.33 222.71 840.43 222.55 840.63 222.39 840.85 222.22 841.08 222.05 841.35 222.05 841.7 222.05 841.99 222.05 842.28 222.05 842.45 222.11 842.63 222.16 842.8 222.25 842.98 222.43 843.11 222.55 843.22 222.61 843.22 222.72 843.29 222.94 843.29 223.14 843.29 223.49 843.19 223.71 843.01 224.05 842.86 224.13 842.57 224.13 842.18 224.13 841.81 224.13 841.37 224.13 841.18 224.13 840.96 224.03 840.75 223.86 840.53 223.72 840.33 223.49"/><polygon class="cls-24" points="844.22 221.58 844.48 222.05 844.69 222.43 844.83 222.9 844.99 223.21 845.11 223.53 845.26 223.88 845.34 224.25 845.48 224.55 845.63 224.55 845.79 224.55 845.94 224.55 846.17 224.55 846.26 224.13 846.36 223.84 846.46 223.52 846.65 223.14 846.79 222.82 846.89 222.53 847.15 222.55 847.33 222.55 847.48 222.73 847.56 223.09 847.68 223.59 847.82 223.95 848.02 224.3 848.19 224.55 848.36 224.55 848.57 224.55 848.84 224.55 848.99 224.13 849.11 223.69 849.3 223.24 849.53 222.73 849.64 222.35 849.7 222.05 849.77 221.75 849.77 221.58 849.47 221.58 849.19 221.51 849.08 221.85 848.99 222.25 848.85 222.82 848.74 223.09 848.59 223.42 848.48 223.59 848.25 223.59 848.05 223.41 847.96 222.96 847.84 222.43 847.63 222.05 847.53 221.73 847.43 221.51 847.15 221.51 847 221.51 846.83 221.51 846.66 221.84 846.46 222.27 846.34 222.65 846.22 223.03 846.11 223.3 846.02 223.56 845.77 223.59 845.42 223.03 845.28 222.59 845.14 222.12 844.89 221.71 844.8 221.51 844.22 221.58"/><polygon class="cls-24" points="850.76 221.19 851.21 221.19 851.73 221.19 852.36 221.19 852.9 221.19 853.3 221.19 853.45 221.19 853.45 221.45 853.45 221.76 853.45 222.03 853.25 222.03 852.88 222.03 852.49 222.03 851.98 222.03 851.56 222.03 851.31 222.03 851.29 222.35 851.29 222.56 851.62 222.56 853.45 222.56 853.45 223.57 851.27 223.57 851.27 224.08 853.45 224.08 853.45 225.02 850.18 225.02 850.18 221.19 850.76 221.19"/><polygon class="cls-24" points="854.05 224.94 854.05 221.8 854.12 221.66 854.27 221.58 854.42 221.44 854.56 221.28 854.66 221.19 854.77 221.09 856.68 221.09 857 221.29 857.33 221.53 857.74 221.79 857.84 221.96 857.84 222.32 857.84 222.53 857.72 222.77 857.51 222.93 857.36 223.07 857.27 223.14 857.33 223.57 857.56 223.78 857.77 224.04 857.84 224.34 857.84 224.55 857.84 224.79 857.84 224.94 857.66 224.94 857.34 224.94 856.93 224.94 856.71 224.94 856.74 224.53 856.73 224.17 856.73 223.92 856.73 223.73 856.69 223.6 856.46 223.59 856.06 223.58 855.76 223.57 855.4 223.57 855.16 223.58 855.1 223.87 855.11 224.1 855.12 224.46 855.12 224.65 855.1 224.94 854.05 224.94"/><rect class="cls-25" x="855.1" y="222.07" width="1.64" height="0.54"/><polyline class="cls-26" points="888.82 254.71 888.82 247.27 888.82 229.84 888.82 218.92 888.82 210.37"/><polyline class="cls-26" points="1044.42 254.11 1044.42 245.2 1044.42 234.95 1044.42 225.58 1044.3 212.01"/><polyline class="cls-26" points="888.7 47.43 888.7 56.82 888.7 68.78 888.7 80.66 888.7 91.4"/><polyline class="cls-26" points="1043.11 45.34 1043.11 59.39 1043.11 70.17 1043.11 84.15 1043.06 91.21"/><path class="cls-26" d="M887.56,349.86" transform="translate(1.15 -258.46)"/><line class="cls-27" x1="832.3" y1="177.74" x2="830.72" y2="177.64"/><polyline class="cls-27" points="830.72 178.91 830.72 178.61 830.72 177.64 830.72 176.97 830.72 176.72 830.72 176.56 831.22 176.56 831.64 176.56 832 176.56 832.17 176.56 832.55 176.84 832.55 177.12 832.55 177.29 832.55 177.47 832.42 177.71 832.55 178.53 832.55 178.65 832.55 178.91"/><polyline class="cls-27" points="835.32 176.84 833.46 176.84 833.31 176.84 833.31 178.79 833.31 178.98 835.26 178.98"/><line class="cls-27" x1="835.23" y1="177.84" x2="833.31" y2="177.84"/><polyline class="cls-27" points="837.77 177.28 837.55 177.12 837.37 177 837.16 176.93 836.75 176.93 836.41 176.93 836.17 177.1 836 177.28 836 177.49 836.16 177.73 836.48 177.84 836.82 177.91 837.16 177.98 837.37 177.98 837.55 178.15 837.65 178.44 837.63 178.67 837.49 178.91 837.24 178.98 836.89 178.98 836.6 178.98 836.33 178.91 836.15 178.75 835.89 178.51"/><polyline class="cls-27" points="840.26 176.93 838.49 176.93 838.49 179.24 840.26 179.24"/><line class="cls-27" x1="840.26" y1="178.04" x2="838.49" y2="178.04"/><polyline class="cls-27" points="840.67 177.12 840.91 177.12 843.03 177.12"/><line class="cls-27" x1="841.85" y1="179.24" x2="841.85" y2="177.12"/><polyline class="cls-26" points="1050.8 203.96 1053.24 205.55 1054.83 206.54 1056.67 207.57 1057.95 208.34 1059.46 209.23 1061.56 210.59 1062.63 211.21 1063.88 211.99 1064.73 212.61 1065.31 213.03 1065.72 213.28 1066.29 213.64 1066.38 213.45 1066.45 213.29 1066.59 213.02 1066.75 212.75 1066.96 212.45 1067.16 212.18 1067.41 211.89 1067.34 211.74 1067.16 211.52 1066.63 211.17 1066.03 210.8 1065.11 210.27 1064.19 209.66 1063.35 209.1 1062.59 208.69 1061.74 208.16 1060.88 207.63 1059.98 207.09 1058.87 206.44 1058.03 205.91 1057.26 205.46 1056.5 205.01 1055.88 204.56 1055.16 204.1 1054.49 203.65 1053.64 203.06 1052.99 202.65 1052.08 202.16 1051.49 202.99 1050.8 203.96"/><polygon class="cls-14" points="1020.29 231.18 1023.24 229.47 1025.92 227.67 1028.96 225.56 1031.33 223.62 1033.88 221.73 1035.99 220.1 1038.23 218.12 1040.21 216.19 1042.1 214.21 1044.3 212.01 1046.32 209.68 1048.3 207.4 1049.84 205.28 1051.64 202.78 1054.02 199.39 1055.87 196.31 1057.8 193.06 1059.21 190.16 1061.23 186.2 1062.9 181.76 1064.04 178.29 1065.23 174.46 1066.15 170.55 1066.9 166.81 1067.34 163.82 1067.69 161.01 1068 158.46 1068.18 156.7 1068.18 154.15 1068.18 151.46 1068.18 148.39 1068.18 146.23 1067.91 143.16 1067.69 141.31 1067.34 139.14 1066.99 137.09 1066.51 134.45 1066.07 132.07 1065.19 128.78 1064.31 125.92 1063.38 123.02 1062.42 120.33 1061.45 117.96 1060 114.75 1058.77 112.03 1057.18 109.25 1056.17 107.23 1054.99 105.34 1053.8 103.28 1052.35 101.3 1050.93 99.72 1049.82 98.21 1048.42 96.63 1047.14 95.29 1046.15 94.42 1044.98 93.31 1043.99 92.09 1043.06 91.21 1042.13 90.11 1040.61 88.47 1039.33 87.13 1037.29 84.98 1036.12 83.99 1034.72 82.82 1033.5 81.66 1031.87 80.37 1029.77 78.74 1028.08 77.58 1025.58 75.83 1023.3 74.25 1020.74 72.68 1018.41 71.52 1015.49 69.77 1012.23 68.19 1008.85 66.79 1005.29 65.16 1002.38 64.11 998.3 62.83 994.63 61.72 991.07 60.79 988.16 60.09 984.43 59.39 981.87 58.93 979.18 58.63 976.33 58.34 972.02 58.34 966.21 58.05 963.39 58.05 959.72 58.05 955.87 58.4 950.04 58.93 945.67 59.51 940.37 60.67 935.3 62.07 931.04 63.41 925.92 65.16 920.61 67.38 916.48 69.53 912.57 71.75 908.49 74.49 905.11 76.64 901.61 79.15 898.64 81.54 896.13 83.69 893.63 86.26 891.88 88.13 889.78 90.11 888.03 92.2 886.23 94.48 883.31 98.09 881.33 100.77 879.29 104.15 877.37 107.18 875.62 109.98 874.46 112.43 873.29 114.93 872.01 118.2 870.73 121.64 869.38 125.07 868.63 128.57 867.4 133.06 867.18 134.82 866.97 137.04 866.76 139.14 866.51 141.14 866.4 142.91 866.19 144.94 866.05 147.65 866.05 150.15 866.05 151.97 866.05 154.45 866.05 156.51 866.05 157.98 866.28 160.4 866.47 161.41 866.68 162.86 867.05 164.52 867.22 165.29 867.35 166.04 867.43 167.01 867.56 168.24 867.81 169.21 867.98 170.35 868.23 171.61 868.57 172.88 868.99 174.27 869.46 176.04 869.83 177.47 870.72 179.75 871.27 181.06 871.77 182.49 872.32 183.72 872.83 184.94 873.54 186.54 874.09 187.81 875.02 189.75 876.16 191.85 877 193.29 878.02 195.19 879.03 196.87 880.17 198.9 881.14 200.42 882.19 201.98 883.54 203.92 884.64 205.35 886.32 207.42 888.1 209.61 890.2 211.8 891.98 213.7 893.75 215.56 895.9 217.54 897.88 219.14 899.65 220.74 901.88 222.6 904.33 224.41 906.57 225.97 909.26 227.62 911.67 229.13 914.12 230.61 916.35 231.88 918.88 233.06 922.13 234.53 924.53 235.8 927.91 237.11 930.65 238.12 933.43 239.05 936.13 240.06 939.04 240.82 941.87 241.53 944.86 242.21 947.94 242.8 950.47 243.26 953.08 243.6 956.08 243.94 958.37 244.29 960.56 244.49 962.18 244.49 964.48 244.49 967 244.49 969.06 244.49 971.98 244.49 974.41 244.49 976.64 244.18 978.9 243.96 980.87 243.76 983.41 243.43 986.22 242.92 988.92 242.37 991.51 241.79 994.63 241 997.46 240.18 1000.09 239.41 1003.08 238.41 1005.71 237.5 1008.54 236.42 1011.3 235.22 1013.65 234.23 1016.19 233.01 1018.29 232.19 1020.29 231.18"/><polyline class="cls-27" points="951 204.53 951 200.71 951 200.47 951.51 200.47 952.17 200.47 952.66 200.47 953.13 200.58 953.35 200.82 953.48 201.27 953.48 201.62 953.48 202.07 953.28 202.5 952.97 202.73 952.24 202.73 951.75 202.73 951.15 202.76"/><line class="cls-27" x1="954.97" y1="200.47" x2="954.97" y2="204.53"/><polyline class="cls-27" points="956.7 201.51 958.1 201.51 958.41 201.69 958.66 201.93 958.66 202.58 958.66 202.78 958.66 204.22 958.66 204.53 956.84 204.53 956.5 204.31 956.3 204 956.3 203.67 956.3 203.31 956.66 203.02 956.9 202.89 957.3 202.8 957.59 202.8 957.86 202.8 958.15 202.78 958.37 202.78"/><line class="cls-27" x1="962.72" y1="201.51" x2="960.39" y2="206.33"/><line class="cls-27" x1="959.93" y1="201.51" x2="961.24" y2="204.22"/><polyline class="cls-27" points="965.9 200.47 964.32 200.47 964.08 200.69 963.88 201.02 963.88 201.93 964.17 202.18 964.57 202.36 964.89 202.36 965.23 202.36 965.59 202.5 965.9 202.87 965.9 203.22 965.9 203.58 965.9 204.04 965.66 204.35 965.35 204.53 963.88 204.53"/><polyline class="cls-27" points="967.5 200.82 967.5 204.38 967.9 204.53 968.34 204.53"/><line class="cls-27" x1="968.74" y1="201.51" x2="967.59" y2="201.51"/><polyline class="cls-27" points="969.94 201.51 971.37 201.51 971.68 201.73 971.85 202.02 971.85 204.33 971.63 204.53 971.12 204.53 970.01 204.53 969.72 204.22 969.48 203.92 969.48 203.44 969.81 203.13 970.14 203.02 970.48 202.87 971.01 202.87 971.3 202.87 971.68 202.87"/><polyline class="cls-27" points="973.56 200.82 973.56 204.22 973.92 204.53 974.39 204.53"/><line class="cls-27" x1="974.76" y1="201.51" x2="973.68" y2="201.51"/><line class="cls-27" x1="975.9" y1="200.33" x2="975.9" y2="200.67"/><line class="cls-27" x1="975.9" y1="201.51" x2="975.9" y2="204.71"/><polygon class="cls-27" points="977.47 203.69 977.47 202.68 977.59 202.27 977.72 201.96 977.87 201.76 978.14 201.51 979.01 201.51 979.47 201.6 979.78 201.87 979.96 202.25 979.96 202.93 979.96 203.69 979.83 204.11 979.56 204.38 979.27 204.53 978.36 204.53 977.94 204.35 977.63 204.09 977.47 203.69"/><polyline class="cls-27" points="983.94 204.62 983.94 202.07 983.78 201.78 983.38 201.51 981.56 201.51 981.56 204.71"/><polygon class="cls-28" points="954.25 97.26 954.25 95.45 953.83 95.58 953.3 95.63 952.8 95.36 952.02 95.13 951.54 95.13 949.68 95.13 949.16 95.25 948.6 95.43 947.9 95.61 947.42 95.86 946.97 96.41 946.97 97.77 947.42 98.04 948.03 98.34 948.86 98.57 949.58 98.72 950.49 98.82 951.24 98.82 952.55 98.82 953.13 99.25 953.45 99.63 953.43 100.1 953 100.38 952.45 100.6 951.82 100.6 951.17 100.6 950.61 100.6 949.86 100.6 949.13 100.43 948.65 100.08 948.25 99.7 947.93 99.32 947.77 99.07 946.97 99.1 946.97 101.33 947.67 101.33 947.98 101.33 948.08 101.01 948.45 101.03 949.06 101.33 949.84 101.48 950.61 101.58 951.42 101.58 952.3 101.58 953.23 101.31 953.88 101.01 954.43 100.68 954.76 100.2 954.76 99.4 954.76 98.87 954.51 98.47 954.21 98.14 953.63 97.84 952.92 97.72 952.17 97.64 951.24 97.59 950.39 97.49 949.51 97.34 948.75 97.09 948.45 96.86 948.45 96.48 948.86 96.23 949.23 95.96 949.73 95.81 950.39 95.73 952.02 95.81 952.6 95.98 952.95 96.33 953.4 96.76 953.85 97.29 954.25 97.26"/><polygon class="cls-28" points="959.35 101.58 958.22 101.06 957.47 100.45 956.97 99.85 956.59 99.32 956.59 97.67 956.99 96.96 957.57 96.41 958.27 95.86 959.13 95.36 959.91 95.13 962.39 95.13 963.15 95.31 964.02 95.66 964.5 95.98 965.26 96.53 965.61 97.31 965.61 99.2 965.38 99.93 964.9 100.38 964.18 100.93 963.5 101.21 962.85 101.58 959.35 101.58"/><polygon class="cls-29" points="960.53 100.63 959.65 100.43 959.08 100.03 958.7 99.6 958.52 99.07 958.52 98.64 958.52 97.82 958.75 97.24 959.08 96.76 959.53 96.44 959.96 96.08 960.23 95.91 961.74 95.91 962.54 96.28 963.12 96.69 963.47 97.14 963.77 97.67 963.77 99.22 963.4 99.75 962.92 100.23 962.39 100.63 960.53 100.63"/><polygon class="cls-30" points="973.07 95.43 973.07 96.13 974.17 96.13 974.17 98.97 970.05 95.43 967.01 95.43 967.01 96.13 968.04 96.16 968.04 100.63 967.01 100.63 967.01 101.21 970.59 101.21 970.5 100.63 969.3 100.63 969.27 97.21 969.73 97.21 974.17 101.08 974.17 101.33 975.6 101.33 975.6 96.16 976.66 96.16 976.66 95.43 973.07 95.43"/><polygon class="cls-30" points="977.6 95.43 977.6 96.17 978.71 96.17 981.2 98.83 981.2 100.65 980.12 100.65 980.12 101.33 984.51 101.33 984.51 100.53 983.21 100.53 983.11 99.02 985.96 96.21 987.11 96.21 987.11 95.43 983.47 95.43 983.49 96.12 984.31 96.16 984.29 96.53 983.04 97.92 982.35 97.9 980.86 96.27 980.86 96.04 981.75 96.04 981.73 95.43 977.6 95.43"/><polygon class="cls-31" points="964.11 197.13 963.15 196.72 962.6 196.53 961.8 196.38 960.91 196.38 959.92 196.31 959.12 196.31 958.35 196.14 957.48 195.92 956.71 195.68 956.01 195.32 955.41 194.81 955.29 194.21 955.46 193.78 956.04 193.34 956.69 193.01 957.48 192.69 957.85 192.91 958.14 193.08 958.66 193.27 959.27 193.51 959.7 193.73 960.18 194.09 959.56 194.36 959.03 194.53 959.05 194.91 959.58 194.91 960.23 194.91 960.86 194.91 961.24 194.91 961.41 194.57 961.7 194.43 962.09 194.43 962.55 194.43 963.08 194.5 963.44 194.65 963.78 194.72 964.11 194.91 964.38 195.08 964.38 195.66 964.38 197.13 964.11 197.13"/><polygon class="cls-32" points="968.17 198.26 970.93 197.32 970.66 196.96 970.12 196.72 969.48 196.53 968.74 196.45 968.17 196.45 968.17 198.26"/><polygon class="cls-33" points="957.48 192.69 958.5 192.37 959.64 191.98 960.39 191.73 961.11 191.5 962 191.18 962.72 190.95 963.41 191.11 963.88 191.27 964.38 191.43 964.38 195.08 963.78 194.72 963.44 194.65 963.08 194.5 962.55 194.43 962.09 194.43 961.7 194.43 961.41 194.57 961.24 194.91 960.86 194.91 960.23 194.91 959.58 194.91 959.05 194.91 959.03 194.53 959.56 194.36 960.18 194.09 959.7 193.73 959.27 193.51 958.66 193.27 958.14 193.08 957.85 192.91 957.48 192.69"/><polygon class="cls-34" points="962.72 190.95 963.46 190.45 963.88 190.27 964.38 190.27 964.38 191.43 963.88 191.27 963.41 191.11 962.72 190.95"/><polygon class="cls-35" points="964.38 192.58 963.55 193.02 962.93 193.26 961.9 193.65 961.11 193.9 960.18 194.09 959.56 194.36 959.03 194.53 959.05 194.91 959.58 194.91 960.23 194.91 960.86 194.91 961.24 194.91 961.41 194.57 961.7 194.43 962.09 194.43 962.55 194.43 962.98 194.19 963.16 194.13 963.3 194.1 963.69 194.01 963.99 193.97 964.38 192.58"/><polygon class="cls-36" points="964.38 194.91 964.38 194.23 964.38 193.43 964.07 193.67 963.99 193.97 963.69 194.01 963.3 194.1 962.98 194.19 962.55 194.43 963.08 194.5 963.44 194.65 963.78 194.72 964.11 194.91 964.38 195.08 964.38 194.91"/><polygon class="cls-37" points="968.17 196.45 968.17 195.84 968.89 195.71 969.63 195.48 970.43 195.41 970.83 195.08 971.42 194.91 971.87 194.84 972.29 194.63 972.62 194.5 973.23 194.44 973.72 194.44 974.39 194.44 975.05 194.52 975.49 194.68 976.03 194.91 976.62 195.2 975.9 195.65 975.42 195.83 974.39 196.18 973.66 196.45 972.83 196.73 971.82 197.01 970.93 197.32 970.66 196.96 970.12 196.72 969.48 196.53 968.74 196.45 968.17 196.45"/><polygon class="cls-37" points="968.07 192.69 968.82 192.85 969.79 193.02 970.55 193.28 971.08 193.61 970.59 193.91 969.85 194.1 969.04 194.44 968.07 194.79 968.07 192.69"/><polygon class="cls-38" points="968.17 192.49 969.77 192.18 970.7 191.99 971.88 191.8 972.87 191.69 973.71 191.69 974.66 191.78 975.93 191.95 976.88 192.09 977.87 192.58 978.58 193.15 978.84 193.56 978.84 194.02 978.77 194.56 978.41 194.91 977.83 194.99 977.2 195.18 976.62 195.2 976.03 194.91 975.49 194.68 974.72 194.48 973.72 194.44 973.89 194.26 974.21 194.13 974.57 194.06 975.03 193.93 975.33 193.85 975.46 193.33 975.48 193.16 975.18 193.02 974.92 192.94 974.49 192.94 974.04 192.94 973.67 193.02 973.11 193.13 972.61 193.33 972.07 193.56 971.45 193.61 971.08 193.61 970.55 193.28 969.79 193.02 968.82 192.85 968.07 192.69 968.17 192.49"/><polygon class="cls-39" points="964.29 197.36 968.17 198.26 968.07 191.05 968.07 187.75 968.07 186.19 968.07 184.9 968.07 184.42 968.07 184.19 968.56 184.19 969.38 184.19 969.71 184.19 969.89 184.39 969.89 184.67 969.89 190.27 970.1 190.64 970.35 190.85 970.72 190.85 971.36 190.85 972.02 190.85 972.51 190.68 972.81 190.27 973.22 189.93 973.56 189.44 973.77 189.26 973.95 188.96 973.95 188.57 973.95 187.61 973.95 186.25 973.86 185.77 973.61 185.38 973.2 184.85 972.81 184.46 972.39 184.05 971.8 183.68 971.18 183.36 970.58 183.09 969.82 182.76 969.12 182.53 968.44 182.28 967.75 182.07 967.11 181.82 966.49 181.66 965.94 181.55 965.3 181.43 964.59 181.43 964.29 181.43 964.38 190.27 964.29 197.36"/><path class="cls-40" d="M864.14,335.74c-.91-2.94,5-7.49,7.62-9.19A23.38,23.38,0,0,1,884.47,323h32.11a10.32,10.32,0,0,1,7.32,3,10.65,10.65,0,0,1,3,7.32,10.93,10.93,0,0,1-6.12,9.45,73.91,73.91,0,0,0-18.93-4.43,73.17,73.17,0,0,0-14.49,0C869.21,339.88,864.8,337.86,864.14,335.74Z" transform="translate(1.15 -258.46)"/><path class="cls-40" d="M1072.43,337.1c.91-2.94-5-7.49-7.62-9.19a23.29,23.29,0,0,0-12.71-3.55H1020a10.28,10.28,0,0,0-7.32,3,10.58,10.58,0,0,0-3,7.32,10.92,10.92,0,0,0,6.11,9.45,73.57,73.57,0,0,1,33.42-4.41C1067.37,341.23,1071.77,339.21,1072.43,337.1Z" transform="translate(1.15 -258.46)"/><path class="cls-41" d="M1011.42,367c2.82-5.47,8.5-7.94,11.13-9,11.38-4.77,22.91-1.35,25.54-.57a39.11,39.11,0,0,1,16.15,9.4.29.29,0,0,1,0,.42l-7.15,6.93,0,0a42.7,42.7,0,0,1-13.34,6.83,46.17,46.17,0,0,1-21.17,1.25c-5.06-.91-9.62-1.73-11.79-5.09C1008.21,373.2,1010.7,368.38,1011.42,367Z" transform="translate(1.15 -258.46)"/><path class="cls-41" d="M925.22,363.83c-2.71-5.46-8.18-7.94-10.71-9-10.94-4.77-22-1.34-24.56-.56a37.43,37.43,0,0,0-15.75,9.6l7.1,7.16a40.37,40.37,0,0,0,12.85,6.84,42.52,42.52,0,0,0,20.36,1.25c4.88-.91,9.26-1.73,11.34-5.08C928.31,370.05,925.92,365.23,925.22,363.83Z" transform="translate(1.15 -258.46)"/><path class="cls-42" d="M882.88,504.33a141.63,141.63,0,0,1,14.53-46.4,128.61,128.61,0,0,1,26.84-35.71c.9-4.66-.22-8.87-2.84-10.7-2.44-1.7-5.27-.7-6-.4-40.79,78.52-43.63,91.72-42,93.56a6.06,6.06,0,0,0,4.63,2.19A8.57,8.57,0,0,0,882.88,504.33Z" transform="translate(1.15 -258.46)"/><path class="cls-42" d="M1048.13,504.33a141.71,141.71,0,0,0-14.54-46.4,128.43,128.43,0,0,0-26.83-35.71c-.91-4.66.21-8.87,2.84-10.7a6.48,6.48,0,0,1,6-.4c40.8,78.52,43.64,91.72,42,93.56a6.07,6.07,0,0,1-4.63,2.19A8.54,8.54,0,0,1,1048.13,504.33Z" transform="translate(1.15 -258.46)"/><path class="cls-43" d="M1015.24,478.37a93.64,93.64,0,0,1-100.53,0,6.44,6.44,0,0,1-3.29-6.15,6.7,6.7,0,0,1,3.29-4.93,230.8,230.8,0,0,0,100.53,0,6.75,6.75,0,0,1,3.29,5.34A6.37,6.37,0,0,1,1015.24,478.37Z" transform="translate(1.15 -258.46)"/><path class="cls-42" d="M1015.83,318.1Q1000,317.33,983,317c-23.75-.39-46.12.06-66.89,1.06-5.13-.7-8.89-2-9-3.54-.19-2.05,6.48-3.75,9-4.4A75.55,75.55,0,0,1,942,308.51c13.71,1.58,37,2.18,73.87,1.65,6.39.08,10.44,2.66,10.26,4.4S1021.7,318.28,1015.83,318.1Z" transform="translate(1.15 -258.46)"/><path class="cls-42" d="M995.33,328.05a107.83,107.83,0,0,0-39.39-2.92,91.68,91.68,0,0,0-14.7,2.92c-3.09.12-5.84-.44-6.5-1.39-.83-1.2,1.4-3.45,6.5-4.35a130.4,130.4,0,0,0,20.44,0c8.92-.71,14.27-2.14,23.19-1.56a65.12,65.12,0,0,1,10.46,1.53c3.29-.12,6,.79,6.57,1.89C1002.56,325.56,1000.06,327.74,995.33,328.05Z" transform="translate(1.15 -258.46)"/><path class="cls-42" d="M984.65,336.14c-9.12,1-14.26,1.48-17.21,1.7-.87.06-3.47.24-6.89.74-1.36.2-2.47.4-3.21.54-3.73.28-7.18-.19-8-1.49-1-1.6,1.83-4.8,8-7A61.93,61.93,0,0,0,982,332.54a56.47,56.47,0,0,0,8.81-1.89c2.78,1.41,4.32,3.38,3.69,4.6C993.74,336.71,989.49,337.71,984.65,336.14Z" transform="translate(1.15 -258.46)"/><path class="cls-44" d="M903.82,351.11a23.44,23.44,0,0,0-15.57,3.63,25.45,25.45,0,0,0-5,4.27c2.12,10.13,9.44,17.16,17.3,17.16A17.32,17.32,0,0,0,917.87,359c0-.28,0-.56,0-.83a20,20,0,0,0-2.06-2.21A18.76,18.76,0,0,0,903.82,351.11Z" transform="translate(1.15 -258.46)"/><path class="cls-44" d="M1032.52,354.37a23.19,23.19,0,0,1,15.57,3.68,25.6,25.6,0,0,1,5,4.33c-2.12,10.28-9.44,17.4-17.3,17.4a17.44,17.44,0,0,1-17.3-17.4c0-.28,0-.56,0-.84a19.37,19.37,0,0,1,2.06-2.24A18.58,18.58,0,0,1,1032.52,354.37Z" transform="translate(1.15 -258.46)"/><ellipse class="cls-45" cx="901.72" cy="103.07" rx="6.54" ry="4.57"/><ellipse class="cls-45" cx="1036.92" cy="103.07" rx="6.54" ry="4.57"/><path class="cls-40" d="M964.83,425.35c2.91,6.16-2.58,16.89-10.3,20.31-8.26,3.66-13.45-3.53-24.91-.92s-16.2,12.24-17.78,11.08C909.38,454,917,428,937.37,421.15,946.77,418,961.42,418.09,964.83,425.35Z" transform="translate(1.15 -258.46)"/><path class="cls-40" d="M965.75,425.35c-2.9,6.16,2.58,16.89,10.3,20.31,8.26,3.66,13.46-3.53,24.92-.92s16.2,12.24,17.78,11.08c2.45-1.81-5.15-27.84-25.54-34.67C983.82,418,969.17,418.09,965.75,425.35Z" transform="translate(1.15 -258.46)"/><path class="cls-46" d="M869.26,378.69l-43.52-40.27c-.21-2.25-.41-4.5-.62-6.75a137.64,137.64,0,0,1,38.26,31.86,131,131,0,0,1,8.83,12Z" transform="translate(1.15 -258.46)"/><path class="cls-46" d="M1059.35,378.15a52.52,52.52,0,0,0,7.75-12c4.34-9.38,3.37-15,8.32-22.53a35.11,35.11,0,0,1,8.25-8.7l.42,8c-.75,2.46-1.81,5.93-3.1,10.09-3.79,12.31-4.22,13.51-4.88,14.89-1.89,3.95-5.78,9.49-14.73,14.36Z" transform="translate(1.15 -258.46)"/><path class="cls-47" d="M926.45,398.56H873.33a18.18,18.18,0,0,1-6.57-11c-1.51-9.17,5.18-15.63,5.76-16.18l54.42.5a23.19,23.19,0,0,1,4,14.92A22.84,22.84,0,0,1,926.45,398.56Z" transform="translate(1.15 -258.46)"/><path class="cls-48" d="M1056.88,401.92h-53.12a18.17,18.17,0,0,1-6.58-11c-1.5-9.16,5.18-15.63,5.77-16.17l54.41.5a22.56,22.56,0,0,1-.48,26.68Z" transform="translate(1.15 -258.46)"/><path class="cls-46" d="M931,386.79a63.39,63.39,0,0,1,66.21-.53v4.65a88.9,88.9,0,0,0-67,.23Z" transform="translate(1.15 -258.46)"/><path class="cls-49" d="M960.86,426.24" transform="translate(1.15 -258.46)"/><path class="cls-49" d="M960.48,418.67" transform="translate(1.15 -258.46)"/><polyline class="cls-50" points="278.37 251.97 277.58 251.97 276.43 251.78 275.35 251.48 274.66 251.13 273.92 250.66 273.31 250.12 272.95 249.57 272.57 249.02 272.57 246.96 272.57 240.88 272.57 210.21 272.57 170.52 272.57 137.78 272.57 98.87 272.57 49.95 272.57 49.2 272.57 48.47 272.57 48.11 272.84 47.57 273.25 47.07 273.72 46.47 274.2 46.09 274.82 45.72 275.31 45.55 275.86 45.34 276.59 45.16 277.13 45.04 277.67 45.04 278.04 44.97 278.37 44.97 278.65 44.97 278.8 44.97 278.35 45.15 277.76 45.6 277.47 46.14 277.26 46.89 277.26 47.51 277.26 48.82 277.26 62.55 277.26 79.89 277.26 107.47 277.26 120.57 277.26 155.41 277.26 190.37 277.26 220.4 277.26 250.74 277.67 251.35 278.37 251.97"/><polyline class="cls-51" points="280.88 252.24 280.22 252.5 279.36 252.37 278.37 251.97 277.67 251.35 277.26 250.74 277.26 249.05 277.26 197.47 277.26 144.85 277.26 93.22 277.26 50.19 277.26 48.47 277.26 47.51 277.26 46.89 277.47 46.14 277.76 45.6 278.35 45.15 279.07 44.85 279.74 44.67 280.39 44.67 281.24 44.76 280.87 45.15 280.5 45.66 280.17 46.07 280.09 46.42 279.98 46.85 279.98 47.48 279.98 47.99 279.98 48.98 279.98 61.53 279.98 72.14 279.98 101.42 279.98 144.61 279.98 201.9 279.98 205.55 279.98 206.36 280.09 206.75 280.23 206.96 280.41 207.25 280.64 207.49 280.76 207.89 280.76 209.71 280.77 240.14 280.77 241.3 280.69 241.73 280.39 242.01 280.17 242.35 279.98 243.01 279.98 243.51 279.98 244.5 279.98 249.37 279.98 250.5 280.08 250.93 280.27 251.28 280.43 251.59 280.62 251.93 280.88 252.24"/><polyline class="cls-52" points="288.72 254.04 288 254.18 287.47 254.11 286.88 254.04 286.3 253.86 285.72 253.62 285.26 253.38 284.76 252.9 284.46 252.54 284.31 252.04 284.2 251.41 284.2 246.13 284.2 228.13 284.2 213.17 284.2 171.12 284.2 107.72 284.2 55.81 284.2 46.48 284.2 45.81 284.36 45.34 284.48 44.83 284.74 44.37 285.11 43.84 285.39 43.57 285.67 43.4 285.99 43.32 286.36 43.15 286.67 43.12 286.97 43.12 287.4 43.06 287.82 43.06 288 43.06 288.2 43.06 288.58 43.11 288.15 43.45 287.82 43.81 287.56 44.17 287.33 44.65 287.23 45.09 287.17 45.66 287.15 46.3 287.15 46.89 287.15 57.97 287.15 91.27 287.15 131.36 287.15 167.15 287.15 211.34 287.15 248.74 287.15 251.93 287.15 252.4 287.25 252.71 287.55 253.09 287.78 253.31 288.72 254.04"/><path class="cls-26" d="M286.25,302.9" transform="translate(1.15 -258.46)"/><path class="cls-26" d="M286.48,302.5" transform="translate(1.15 -258.46)"/><path class="cls-26" d="M285.74,300.94" transform="translate(1.15 -258.46)"/><polygon class="cls-53" points="285.44 253.45 285.02 253.45 284.31 253.33 283.5 253.09 282.87 252.94 282.18 252.71 281.72 252.54 281.22 252.4 280.88 252.24 280.62 251.93 280.43 251.59 280.27 251.28 280.08 250.93 279.98 250.5 279.98 243.51 279.98 243.01 280.17 242.35 280.39 242.01 280.69 241.73 280.77 241.3 280.77 240.14 280.76 238.1 280.77 237.3 280.75 233.7 280.77 229.62 280.77 224.03 280.77 219.09 280.77 212.62 280.76 207.89 280.64 207.49 280.41 207.25 280.23 206.96 280.09 206.75 279.98 206.36 279.98 205.55 279.98 202.94 279.98 199.87 279.98 178.89 279.98 137.46 279.98 101.42 279.98 77.93 279.98 53.99 279.98 47.99 279.98 46.85 280.09 46.42 280.17 46.07 280.5 45.66 280.87 45.15 281.24 44.76 281.69 44.4 282.24 44.1 282.75 44 283.47 43.78 284.2 43.66 284.79 43.6 285.1 43.6 285.3 43.66 285.01 43.97 284.86 44.2 284.64 44.55 284.54 44.73 284.44 45.01 284.38 45.23 284.31 45.47 284.25 45.66 284.2 45.98 284.2 46.22 284.2 46.73 284.2 59.8 284.2 81.85 284.2 111.97 284.2 156.24 284.2 207.34 284.2 234.98 284.2 250.62 284.24 251.62 284.36 252.2 284.59 252.69 284.88 253.01 285.44 253.45"/><polyline class="cls-54" points="292.98 254.83 292.56 255.05 291.5 255.05 290.44 254.83 289.56 254.44 288.72 254.04 287.91 253.45 287.37 252.92 287.15 252.55 287.15 251.05 287.15 249.65 287.15 207.68 287.15 138.47 287.15 45.8 287.25 44.87 287.4 44.45 287.63 44.05 288.01 43.56 288.58 43.11 289.24 42.82 290.06 42.56 290.83 42.31 291.67 42.1 292.42 41.91 292.98 41.8 293.33 41.84 291.99 43.4 291.84 56.21 291.84 109.94 291.84 145.09 291.84 227.14 292.02 253.89 292.98 254.83"/><polyline class="cls-55" points="289.8 53.9 289.8 53.27 289.8 52.78 289.8 52.42 289.8 52.19 289.75 52.01 289.65 51.88 289.56 51.8 289.45 51.8 289.4 51.92 289.4 52.07 289.4 52.3 289.4 52.59 289.4 52.85 289.4 53.17 289.4 53.48 289.4 53.71 289.4 53.85 289.36 53.98 289.24 54.04 289.13 53.98 289.06 53.83 289.06 53.67 289.06 53.27 289.06 52.81 289.06 52.46 289.06 52.17 289.06 51.8"/><polygon class="cls-55" points="289.88 57.85 289.88 57.28 289.88 56.84 289.88 56.51 289.88 56.37 289.84 56.15 289.8 56.04 289.69 55.93 289.57 55.81 289.43 55.81 289.27 55.81 289.06 55.81 288.97 55.99 288.9 56.2 288.86 56.44 288.86 56.62 288.86 57.04 288.86 57.64 288.86 57.8 288.86 58.06 288.95 58.44 289.06 58.64 289.33 58.69 289.6 58.58 289.8 58.46 289.88 58.26 289.88 57.85"/><polyline class="cls-55" points="289.01 60.27 289.37 60.27 289.65 60.27 289.88 60.27 289.96 60.48 289.96 60.73 289.77 61 289.01 62.16 288.93 62.35 288.93 62.58 289.01 62.79 289.27 62.79 289.5 62.79 289.72 62.79 289.96 62.79"/><polyline class="cls-55" points="289.96 64.92 289.74 65.13 289.6 65.31 289.45 65.47 289.32 65.67 289.32 65.86 289.32 66.04 289.45 66.27 289.64 66.44 289.83 66.59 289.96 66.66"/><polyline class="cls-55" points="288.73 65.88 288.93 65.88 289.14 65.88 289.32 65.86"/><polyline class="cls-49" points="290.24 228.03 290.24 229.13 290.24 230.73 290.24 232.81 290.16 233.12 289.98 233.28 289.75 233.28 289.59 233.28 289.51 233.11 289.51 232.58 289.51 232.03 289.51 228.64 289.47 228.37 289.36 228.19 289.23 228.03 289.09 227.94 288.93 227.86 288.73 227.8 288.56 227.8"/><polyline class="cls-49" points="290.18 240.72 290.18 239.58 290.18 238.79 290.18 237.93 290.13 237.64 289.98 237.49 289.8 237.42 289.55 237.42 289.25 237.42 288.92 237.42 288.74 237.32 288.65 237.1 288.65 236.72 288.65 236.17 288.65 235.82 288.65 234.98"/><polyline class="cls-49" points="288 246.27 289.98 246.27 290.12 246.27 290.12 245.77 289.06 241.95 288.99 241.7 288.9 241.48 288.79 241.35 288.6 241.35 288.57 241.61 288.58 241.81 288.57 242.15 288.65 247.39"/><circle class="cls-56" cx="386.22" cy="116.5" r="13.38"/><circle class="cls-57" cx="389.81" cy="118.57" r="15.44"/><circle class="cls-57" cx="394.56" cy="123.13" r="16.9"/><circle class="cls-57" cx="383.18" cy="122.05" r="16.9"/><circle class="cls-58" cx="392.4" cy="121.16" r="18.03"/><path class="cls-57" d="M290.7,511.08V302.25l.14-.4.19-.3.17-.29.19-.28.31-.26.25-.23.23-.19.26-.2.26-.2H521.85l.49.07.37.16.44.31.22.23.32.26.1.13.4.38.23.31.33.38.19.27V511.45l-.08.38-.2.33-.2.26-.21.23L524,513l-.28.26-.24.19-.37.18-.4.22-.59.18H293.45l-.67-.26-.28-.07-.4-.24-.5-.34-.41-.4-.31-.38-.18-.24v-1Z" transform="translate(1.15 -258.46)"/><circle class="cls-59" cx="386.51" cy="109.22" r="1.22"/><polygon class="cls-60" points="292.28 130.76 308.16 121.78 320.76 112.82 329.22 105.16 336.29 99 344.75 90.72 354.42 80.71 360.11 71.04 367.53 60.27 370.98 52.92 373.92 44.67 374.37 41.45 293.85 41.45 291.99 43.4 292.28 130.76"/><path class="cls-60" d="M456.8,299.9s-1.86-2.19,2.36,14.37,1.69,7,1.69,7l4.27,8.22c3.34,6.44-1.32-3,4.52,8.7s7.1,13.18,7.1,13.18l4.73,5.41,4.39,4.73,5.41,5,4.39,4.82,4.4,6.09,3.71,4.05,4.74,4.06,4.39,1.69,4.73,2.38,7.31,2.35V303l-2.6-3Z" transform="translate(1.15 -258.46)"/><polygon class="cls-61" points="405.26 137.57 405.26 144.39 405.26 151.34 405.26 157.07 405.26 157.83 405.41 158.01 405.67 158.11 405.97 158.22 406.34 158.35 406.86 158.59 407.24 158.72 407.74 158.79 408.18 158.95 408.58 159.12 409.09 159.24 409.56 159.34 410 159.39 410.28 159.39 410.44 159.21 410.44 158.93 410.44 157.63 410.44 155.67 410.44 154.41 410.44 153.11 410.44 151.63 410.44 149.56 410.44 147.52 410.44 145.7 410.44 143.58 410.44 142.25 410.54 141.93 410.7 141.69 410.91 141.52 411.09 141.44 411.26 141.44 411.47 141.42 411.61 141.44 411.76 141.48 411.93 141.61 412.01 141.76 412.12 141.99 412.23 142.25 412.23 142.49 412.23 143.82 412.23 145.68 412.23 147.3 412.23 148.98 412.23 149.53 412.43 149.75 412.71 149.91 412.97 150.01 413.24 150.09 413.52 150.19 413.79 150.24 414.25 150.39 414.59 150.45 414.87 150.45 415.05 150.45 415.36 150.45 415.6 150.47 415.95 150.44 416.22 150.34 416.46 150.13 416.77 149.9 417 149.65 417.21 149.47 417.42 149.28 417.61 148.95 417.76 148.64 417.95 148.3 418.04 147.94 418.14 147.52 418.24 147.21 418.24 146.82 418.24 146.56 418.24 146.2 418.24 145.72 418.24 145.31 418.24 144.96 418.24 144.59 418.16 144.21 418.04 143.97 417.91 143.71 417.77 143.38 417.57 143.08 417.37 142.75 417.2 142.52 417.04 142.25 416.73 141.85 416.42 141.49 416.06 141.19 415.47 140.78 414.92 140.54 414.42 140.16 413.87 139.99 412.62 139.49 411.85 139.26 410.92 139 409.75 138.62 408.77 138.25 407.93 137.95 407.24 137.77 406.82 137.75 406.45 137.72 406.01 137.7 405.82 137.69 405.26 137.57"/><path class="cls-49" d="M404.11,414.84" transform="translate(1.15 -258.46)"/><path class="cls-49" d="M403.77,408" transform="translate(1.15 -258.46)"/><polygon class="cls-61" points="405.26 156.38 404.92 156.5 404.6 156.72 404.44 156.81 404.04 156.85 403.65 156.85 403.27 156.85 402.73 156.85 402.15 156.85 401.27 156.85 400.36 156.85 399.65 156.79 399.01 156.77 398.64 156.67 398.18 156.62 397.69 156.62 397.24 156.49 396.8 156.38 396.39 156.25 396.01 156.13 395.61 155.98 395.27 155.82 394.92 155.62 394.59 155.44 394.31 155.2 394.12 155.04 394.03 154.87 394.03 154.64 393.94 154.41 393.94 154.11 394.1 153.91 394.32 153.71 394.66 153.44 395 153.26 395.56 152.97 396.12 152.72 396.82 152.48 397.69 152.18 398.31 151.98 399.09 151.71 399.81 151.46 400.65 151.19 401.64 150.87 402.55 150.58 403.25 150.41 404.03 150.14 404.54 150.01 404.92 149.91 405.26 149.86 405.26 150.32 405.26 151.02 405.26 151.72 405.26 152.25 405.26 152.46 405.06 152.56 404.92 152.64 404.66 152.71 404.41 152.83 404.06 152.99 403.64 153.14 403.09 153.27 402.64 153.44 401.93 153.65 401.51 153.76 401.07 153.86 400.73 154.01 400.36 154.11 399.96 154.25 399.65 154.33 399.38 154.45 399.19 154.59 399.07 154.76 399.08 154.92 399.15 155.1 399.38 155.25 399.6 155.39 399.94 155.42 400.35 155.42 400.71 155.34 401.12 155.26 401.82 155.03 402.33 154.94 402.94 154.72 403.53 154.55 404.06 154.32 404.55 154.11 404.81 154.08 405.26 153.97 405.26 154.32 405.26 154.84 405.26 155.57 405.26 156.38"/><polygon class="cls-61" points="411.54 151.99 412.51 151.6 413.45 151.43 414.32 151.21 415.02 151.07 415.7 151.07 416.45 150.95 416.96 150.95 417.64 150.95 418.24 150.95 418.87 151.04 419.33 151.07 419.97 151.13 420.66 151.19 421.44 151.34 421.94 151.44 422.45 151.7 422.9 151.93 423.32 152.18 423.86 152.35 424.28 152.6 424.56 152.94 424.77 153.16 424.87 153.54 424.87 153.81 424.74 154.12 424.53 154.45 424.28 154.69 423.97 154.97 423.64 155.18 423.2 155.42 422.85 155.62 422.3 155.87 421.81 156.03 421.26 156.22 420.76 156.34 420.3 156.47 419.75 156.57 419.13 156.71 418.47 156.96 417.74 157.24 417 157.48 416.24 157.72 415.56 157.96 414.64 158.22 413.73 158.53 412.94 158.8 412.07 158.99 411.5 158.99 410.99 159.08 410.44 159.08 410.44 157.9 410.44 157.13 410.79 156.93 411.31 156.76 411.94 156.55 412.8 156.32 413.79 156.01 414.42 155.8 415.23 155.45 416.23 155.01 417.13 154.55 417.94 154.35 418.47 154.17 419.09 154 419.43 153.86 419.8 153.69 420.04 153.54 420.06 153.36 419.99 153.16 419.73 153.03 419.5 152.98 418.96 152.9 418.54 152.88 418.24 152.92 417.65 153.06 417.18 153.15 416.54 153.36 415.96 153.41 415.36 153.62 414.81 153.88 414.32 154.03 413.73 154.2 413.3 154.4 412.61 154.69 412.07 154.93 411.63 155.01 411.3 155.1 410.44 155.28 410.44 154.55 410.44 153.68 410.44 152.91 410.44 152.54 410.44 152.25 410.73 152.15 411.14 152.07 411.54 151.99"/><ellipse class="cls-62" cx="373.13" cy="108" rx="20.81" ry="31.82"/><ellipse class="cls-62" cx="439.37" cy="106.5" rx="20.81" ry="31.82"/><polygon class="cls-63" points="329.22 105.16 349.63 105.16 349.63 111.71 321.99 111.71 329.22 105.16"/><rect class="cls-63" x="395.7" y="105.15" width="21" height="6.55"/><polygon class="cls-63" points="461.97 105.16 489.32 105.16 495.79 111.71 461.97 111.71 461.97 105.16"/><polygon class="cls-64" points="362.86 70.17 365.66 67.69 369.46 64.7 371.77 63.83 375.98 63.07 381.18 63.07 384.3 63.07 388.57 63.07 390.75 63.07 391.42 63.07 392.57 63.83 392.57 65.57 392.57 67.52 392.57 69.34 391.42 70.17 391.17 70.99 385.45 71.82 383.33 71.82 380.69 71.82 377.72 71.82 373.09 71.82 369.63 71.82 366.32 71.82 365.17 71.82 364.01 71.82 362.86 70.17"/><polygon class="cls-64" points="425.36 68.6 428.17 66.12 431.96 63.13 434.28 62.27 438.48 61.5 443.69 61.5 446.8 61.5 451.08 61.5 453.25 61.5 453.92 61.5 455.08 62.27 455.08 64 455.08 65.96 455.08 67.78 453.92 68.6 453.68 69.43 447.95 70.25 445.83 70.25 443.19 70.25 440.22 70.25 435.6 70.25 432.13 70.25 428.83 70.25 427.67 70.25 426.52 70.25 425.36 68.6"/><polygon class="cls-13" points="388.84 75.69 391 74.3 392.89 73.67 394.42 73.03 396.06 73.03 397.2 73.03 398.6 73.03 400.5 73.54 401.89 73.79 404.24 73.79 405.82 73.67 408.35 73.54 410.5 72.27 412.4 71.64 414.94 71.01 416.71 71.01 418.11 71.01 419.88 71.77 421.65 72.65 422.79 73.35 423.43 74.17 419.88 73.35 417.98 72.78 416.46 72.65 413.67 73.35 412.15 74.3 410.25 74.84 407.84 75.69 405.06 75.69 401.89 75.69 399.99 74.84 397.58 74.84 396.31 74.84 394.67 74.84 393.02 75.69 391.5 75.69 388.84 75.69"/><polygon class="cls-13" points="388.84 81.91 391 80.52 392.89 79.88 394.42 79.25 396.06 79.25 397.2 79.25 398.6 79.25 400.5 79.75 401.89 80.01 404.24 80.01 405.82 79.88 408.35 79.75 410.5 78.49 412.4 77.86 414.94 77.22 416.71 77.22 418.11 77.22 419.88 77.98 421.65 78.87 422.79 79.56 423.43 80.39 419.88 79.56 417.98 79 416.46 78.87 413.67 79.56 412.15 80.52 410.25 81.06 407.84 81.91 405.06 81.91 401.89 81.91 399.99 81.06 397.58 81.06 396.31 81.06 394.67 81.06 393.02 81.91 391.5 81.91 388.84 81.91"/><polygon class="cls-65" points="372.98 156.54 369.76 158.14 366.31 160.65 363.46 163.79 360.01 167.27 357.17 171.39 354.32 175.5 351.24 180.53 348.03 185.04 346.02 187.91 343.65 193.13 341.28 197.37 339.87 202.82 338.7 207.37 342.13 200.98 345.39 196.27 349.13 189.69 351.5 185.45 353.57 181.37 357.31 176.27 360.15 171.67 363.36 168.13 365.97 163.95 372.98 156.54"/><polygon class="cls-65" points="479.24 203.4 478.5 200.18 476.97 196.42 474.7 192.92 472.26 188.81 469.07 184.96 465.88 181.1 461.9 176.72 458.43 172.43 456.21 169.72 451.88 165.86 448.47 162.35 443.68 159.18 439.69 156.54 444.87 161.72 448.52 166.13 453.81 171.62 457.22 175.13 460.55 178.33 464.45 183.27 468.09 187.3 470.65 191.24 473.95 194.92 479.24 203.4"/><polygon class="cls-66" points="371.8 160.57 370.53 161.24 370.02 162.09 370.02 162.94 370.02 164.29 369.34 166.49 368.92 168.6 368.41 171.48 368.41 175.45 367.56 179.6 367.56 182.22 367.56 189.07 367.99 195.5 368.67 198.97 369.68 202.44 370.69 205.99 373.74 211.74 375.43 214.03 376.45 215.8 377.8 216.48 377.21 212.08 377.21 210.3 377.8 209.12 379.41 213.77 382.11 219.52 384.74 222.99 387.02 225.61 389.39 227.98 391.17 229.25 391.93 229.25 391.93 227.31 391.33 224.6 391.25 223.24 393.36 227.31 395.14 229.67 396.83 231.37 398.86 233.23 401.31 234.75 403.6 236.19 405.29 237.03 406.91 237.62 407.4 237.62 408.59 237.03 411.72 235.26 414.6 233.65 416.54 232.13 418.57 230.01 420.43 227.81 421.95 225.19 422.8 223.33 422.8 225.28 422.29 227.64 421.87 229.08 422.29 229.5 423.39 229.08 424.32 227.9 427.2 225.44 429.48 222.91 431 220.79 432.78 217.83 434.05 214.96 435.23 211.66 436 209.2 436 210.81 436.59 212.76 436.59 214.7 435.91 216.73 436.59 216.56 437.69 215.72 439.29 213.43 440.99 210.39 442.85 207.51 443.69 204.72 444.98 200.33 445.86 194.88 445.86 191.4 446.13 185.2 445.73 177.7 445.25 174.15 443.95 167.06 443.2 163.93 442.66 162.09 441.23 160.57 440.27 160.57 371.8 160.57"/><ellipse class="cls-67" cx="372.85" cy="106.5" rx="16.72" ry="24.6"/><polygon class="cls-68" points="356.56 100.99 359.19 92.32 362.94 86.68 365.73 84.24 369.6 82.37 372.85 81.9 375.48 82.21 378.31 83.25 379.54 83.95 381.32 85.3 383.18 87.16 384.34 88.64 386.29 91.86 387.45 94.51 388.19 96.72 388.69 98.62 388.69 99.68 388.69 100.38 389.14 100.99 356.56 100.99"/><ellipse class="cls-67" cx="439.37" cy="106.5" rx="16.72" ry="24.6"/><polygon class="cls-68" points="423.08 100.99 425.71 92.32 429.47 86.68 432.26 84.24 436.12 82.37 439.37 81.9 442 82.21 444.84 83.25 446.06 83.95 447.85 85.3 449.7 87.16 450.87 88.64 452.81 91.86 453.97 94.51 454.72 96.72 455.21 98.62 455.21 99.68 455.21 100.38 455.67 100.99 423.08 100.99"/><circle class="cls-69" cx="382.69" cy="116.5" r="5.52"/><circle class="cls-58" cx="385.41" cy="118.65" r="1.56"/><circle class="cls-69" cx="449.21" cy="116.5" r="5.52"/><circle class="cls-58" cx="451.93" cy="118.65" r="1.56"/><ellipse class="cls-70" cx="352.14" cy="137.44" rx="3.7" ry="6.68"/><ellipse class="cls-70" cx="346.82" cy="156.38" rx="3.7" ry="6.68"/><ellipse class="cls-70" cx="459.46" cy="137.44" rx="3.7" ry="6.68"/><ellipse class="cls-70" cx="465.67" cy="153.36" rx="3.7" ry="6.68"/><ellipse class="cls-70" cx="341.36" cy="175.33" rx="3.7" ry="6.68"/><ellipse class="cls-70" cx="336.04" cy="194.27" rx="3.7" ry="6.68"/><ellipse class="cls-70" cx="473.07" cy="169.74" rx="3.7" ry="6.68"/><ellipse class="cls-70" cx="479.27" cy="185.66" rx="3.7" ry="6.68"/><text class="cls-71" transform="translate(542.15 92.81)"><tspan class="cls-72">E</tspan><tspan class="cls-73" x="8.76" y="0">v</tspan><tspan x="17.26" y="0">e</tspan><tspan class="cls-74" x="26.31" y="0">r</tspan><tspan x="32.66" y="0">ything must </tspan><tspan class="cls-75" x="127.29" y="0">c</tspan><tspan x="135.27" y="0">ome </tspan><tspan class="cls-75" x="173.11" y="0">t</tspan><tspan x="178.98" y="0">o an en</tspan><tspan class="cls-76" x="234.33" y="0">d</tspan><tspan x="244.34" y="0">...</tspan></text><polygon class="cls-13" points="920.39 324.03 921.17 322.66 922.37 321.25 923.35 320.14 924.61 318.97 926.13 318.05 927.88 317.16 929.08 316.51 931.09 315.65 932.84 314.98 934.8 314.64 937.25 314.36 942.1 314.36 955.12 314.36 968.58 314.36 981.6 314.36 997.84 314.36 1012.05 314.36 1024.26 314.36 1027.04 314.36 1029.11 314.55 1032.38 315.04 1034.94 315.53 1037.94 316.55 1040.66 317.83 1042.62 319.06 1044.69 321.03 1045.73 322.17 1046.33 323.31 1047.11 325.54 1047.11 327.19 1047.11 330.7 1047.11 339.51 1047.11 348.39 1047.11 360.96 1047.11 379.24 1047.11 405.44 1047.11 431.44 1047.11 434.23 1047.11 435.94 1046.83 436.99 1046.11 438.34 1045.1 439.56 1043.62 440.75 1041.22 442.75 1038.48 444.16 1034.98 445.27 1030.57 446.25 1025.29 447.14 1017.03 447.14 1002.74 447.14 988.25 447.14 973.66 447.14 955.76 447.14 941.95 447.14 936.67 447.14 934.41 446.73 933.12 446.38 931.15 445.7 929.09 444.92 926.45 443.46 923.95 441.56 922.32 439.94 921.22 438.13 920.93 437.4 920.59 436.4 920.39 435.56 920.39 419.51 920.39 402.89 920.39 387.07 920.39 367.3 920.39 350.48 920.39 327.75 920.39 324.03"/><polyline class="cls-77" points="944.06 400.88 944.55 401.55 944.86 401.88 945.18 402.25 945.51 402.62 945.95 403.1 946.45 403.64 946.96 404.16 947.5 404.64 947.96 405.07 948.49 405.59 949.09 406.15 949.61 406.59 950.14 406.98 950.76 407.44 951.4 407.88 952.11 408.4 952.66 408.78 953.42 409.23 954.07 409.58 954.79 409.96 955.66 410.37 956.64 410.73 957.35 410.98 958.18 411.25 959.06 411.44 959.98 411.62 960.92 411.73 961.28 411.76 963.15 411.76 963.82 411.72 964.57 411.64 965.39 411.53 966.25 411.37 967.16 411.12 967.9 410.91 968.66 410.67 969.5 410.4 970.75 409.94 971.73 409.63 972.79 409.32 973.84 409.03 974.58 408.88 975.26 408.7 976.1 408.55 976.89 408.44 977.64 408.38 978.6 408.34 979.46 408.29 980.49 408.28 981.64 408.32 982.66 408.36 983.52 408.39 984.48 408.44 985.31 408.56 986.1 408.68 986.97 408.84 987.75 409.01 988.56 409.22 989.28 409.42 990.03 409.65 990.76 409.9 991.53 410.19 992.31 410.44 993.19 410.73 993.96 410.98 994.81 411.24 995.44 411.41 995.92 411.54 996.54 411.64 997.32 411.71 998.13 411.76 998.93 411.76 1000.11 411.76 1000.83 411.71 1001.53 411.59 1002.28 411.41 1003 411.24 1003.78 411 1004.46 410.76 1005.08 410.5 1005.71 410.22 1006.43 409.87 1007.25 409.46 1007.89 409.06 1008.51 408.67 1009.07 408.24 1009.6 407.8 1010.3 407.3 1011.04 406.81 1011.65 406.28 1012.29 405.78 1012.75 405.32 1013.35 404.81 1013.81 404.38 1014.35 403.79 1014.9 403.25 1015.31 402.83 1015.76 402.35 1016.19 401.88 1016.62 401.44 1016.86 401.12 1017.02 400.83 1016.9 400.88 1010.17 400.88 998.72 400.88 984.81 400.88 968.09 400.88 951.24 400.88 944.06 400.88"/><polyline class="cls-78" points="936.6 390.07 936.73 390.32 936.92 390.64 937.12 391.03 937.27 391.36 937.47 391.66 937.66 392.01 937.9 392.4 938.16 392.77 938.4 393.2 938.6 393.52 938.9 393.97 939.2 394.41 939.46 394.78 939.64 395.06 939.84 395.38 940.05 395.71 940.3 396.08 940.5 396.37 940.73 396.7 940.97 397.05 941.2 397.34 941.46 397.73 941.76 398.12 942.04 398.57 942.3 398.9 942.72 399.38 943.01 399.76 943.4 400.18 943.72 400.51 943.96 400.78 944.06 400.88 946.23 400.88 947.3 400.88 961.32 400.88 971.14 400.88 984.81 400.88 998.72 400.88 1012.15 400.88 1016.9 400.88 1017.02 400.83 1017.15 400.73 1017.33 400.53 1017.66 400.12 1018.27 399.31 1018.79 398.61 1019.77 397.41 1020.51 396.46 1021.3 395.35 1022.13 394.19 1022.9 393.05 1023.55 392.01 1024.17 391.04 1024.63 390.34 1024.8 390.02 1024.74 390.07 1021.37 390.07 1010.8 390.07 998.38 390.07 981.02 390.07 962.17 390.07 943.37 390.07 936.6 390.07"/><polyline class="cls-79" points="932.91 379.44 932.99 379.91 933.09 380.43 933.28 381.08 933.45 381.64 933.63 382.19 933.85 382.9 934.13 383.81 934.44 384.82 934.7 385.68 935.01 386.56 935.31 387.25 935.66 388.11 935.95 388.72 936.26 389.37 936.6 390.07 937.2 390.07 949.69 390.07 964.07 390.07 976.56 390.07 991.05 390.07 1014.07 390.07 1024.55 390.07 1024.74 390.07 1024.8 390.02 1024.87 389.94 1024.99 389.8 1025.16 389.63 1025.25 389.49 1025.27 389.45 1025.07 389.4 1024.76 389.31 1024.46 389.24 1024.07 389.13 1023.38 388.89 1022.73 388.67 1022.01 388.4 1021.24 388.08 1020.58 387.79 1020.07 387.51 1019.5 387.16 1019 386.86 1018.59 386.62 1018.09 386.32 1017.59 385.97 1017.08 385.62 1016.7 385.3 1016.19 384.93 1015.75 384.58 1015.22 384.13 1014.71 383.66 1014.31 383.28 1013.88 382.83 1013.57 382.5 1013.03 381.89 1012.54 381.26 1012.18 380.66 1012.01 380.19 1011.83 379.77 1011.79 379.44"/><polyline class="cls-80" points="932.57 368.72 932.47 369.05 932.4 369.54 932.35 369.93 932.31 370.51 932.28 370.96 932.22 371.37 932.18 371.78 932.12 372.44 932.12 372.9 932.15 373.73 932.18 374.21 932.24 374.78 932.29 375.38 932.35 375.96 932.42 376.66 932.49 377.16 932.57 377.79 932.69 378.44 932.78 378.96 932.91 379.44 933.35 379.44 938.77 379.44 943.68 379.44 957.67 379.44 970.46 379.44 992.14 379.44 1011.51 379.44 1011.79 379.44 1011.76 379.42 1011.73 379.38 1011.68 379.33 1011.64 379.26 1011.6 379.2 1011.53 379.1 1011.45 378.96 1011.35 378.79 1011.28 378.67 1011.21 378.51 1011.13 378.36 1011.03 378.19 1010.94 378.01 1010.83 377.78 1010.76 377.6 1010.69 377.41 1010.59 377.16 1010.52 376.89 1010.42 376.62 1010.34 376.38 1010.24 376.11 1010.17 375.86 1010.11 375.56 1010.07 375.38 1009.99 375 1009.91 374.62 1009.85 374.3 1009.83 373.96 1009.81 373.3 1009.8 372.75 1009.8 371.96 1009.81 371.33 1009.86 370.83 1009.91 370.35 1009.98 370.02 1010.06 369.44 1010.1 368.99 1010.17 368.7 1010.08 368.72 1009.49 368.72 1004.51 368.72 998.14 368.72 990.57 368.72 980.62 368.72 971.19 368.72 960.26 368.72 949.58 368.72 938.24 368.72 932.57 368.72"/><polyline class="cls-81" points="937.13 357.92 936.84 358.25 936.52 358.67 936.19 359.11 935.83 359.65 935.41 360.36 934.95 361.21 934.48 362.12 934.13 362.95 933.77 363.85 933.57 364.61 933.39 365.35 933.08 366.42 932.89 367.11 932.73 367.75 932.62 368.47 932.59 368.64 932.57 368.72 932.93 368.72 940.26 368.72 955.86 368.72 980 368.72 1008.97 368.72 1009.89 368.72 1010.08 368.72 1010.17 368.7 1010.2 368.65 1010.23 368.57 1010.29 368.36 1010.35 368.16 1010.43 367.84 1010.53 367.54 1010.63 367.27 1010.7 367.01 1010.77 366.72 1010.84 366.54 1010.97 366.22 1011.14 365.87 1011.31 365.52 1011.47 365.18 1011.66 364.81 1011.92 364.4 1012.14 364.01 1012.41 363.54 1012.66 363.18 1012.87 362.88 1013.09 362.6 1013.33 362.26 1013.59 361.88 1013.95 361.48 1014.3 361.1 1014.63 360.8 1015.03 360.46 1015.39 360.13 1015.85 359.76 1016.33 359.39 1016.75 359.09 1017.31 358.73 1017.68 358.5 1017.98 358.26 1018.28 358 998.17 358 964.93 358 937.13 357.92"/><polygon class="cls-82" points="976.97 348.17 976.88 347.74 976.79 347.13 976.79 346.42 976.79 345.84 976.79 345.23 976.79 344.69 976.84 344.3 976.93 343.81 977.03 343.3 977.2 342.71 977.38 342.1 977.63 341.41 978 340.57 978.26 340.05 978.56 339.5 978.92 338.99 979.27 338.41 979.6 337.94 979.97 337.46 980.36 337.02 980.68 336.53 981.15 336.03 981.55 335.58 981.98 335.16 982.42 334.76 983.01 334.24 983.6 333.67 984.18 333.25 984.68 332.86 985.4 332.34 986.21 331.86 986.99 331.4 987.83 330.95 988.77 330.53 989.73 330.03 990.76 329.64 991.81 329.22 993.02 328.89 994.1 328.54 995.22 328.28 996.3 328.07 997.39 327.92 998.29 327.82 998.66 327.8 998.96 327.8 999.21 327.8 999.31 327.77 999.36 327.88 999.4 328.02 999.47 328.37 999.51 328.81 999.55 329.32 999.55 329.74 999.55 330.18 999.55 330.71 999.55 330.95 999.5 331.32 999.46 331.67 999.36 332.06 999.23 332.7 999.08 333.21 998.9 333.8 998.77 334.27 998.58 334.82 998.34 335.37 998.06 335.93 997.79 336.5 997.5 337.02 997.23 337.48 996.95 337.92 996.51 338.5 996.07 339.04 995.74 339.43 995.27 340.07 994.97 340.38 994.63 340.77 994.23 341.19 993.75 341.68 993.37 342.05 992.83 342.55 992.41 342.85 991.92 343.23 991.24 343.69 990.74 344.05 990.29 344.31 989.72 344.66 989.05 345.07 988.38 345.44 987.59 345.86 986.83 346.18 986.07 346.47 985.18 346.79 984.19 347.08 983.14 347.38 982.11 347.64 980.84 347.89 979.76 348.01 978.8 348.12 978.02 348.17 976.97 348.17"/><polygon class="cls-82" points="937.13 357.92 937.59 357.45 938.38 356.65 939.38 355.65 940.19 354.89 941.14 354.07 942.19 353.3 943.19 352.64 944.1 352.01 945.18 351.4 946.34 350.8 947.72 350.15 949.03 349.64 950.21 349.17 951.63 348.7 953.07 348.29 953.93 348.09 954.61 347.93 955.3 347.83 956.18 347.66 956.89 347.57 957.72 347.5 958.69 347.5 961.35 347.5 962.22 347.54 962.96 347.62 963.86 347.75 964.82 347.9 966.06 348.11 966.99 348.3 968.03 348.52 969.23 348.86 970.51 349.22 971.7 349.52 972.72 349.81 973.89 350.14 975.08 350.47 976.04 350.67 976.85 350.81 977.91 350.9 978.82 351.05 979.84 351.17 980.93 351.17 981.42 351.17 981.87 351.09 982.48 351 983.24 350.89 984.08 350.77 984.97 350.65 985.92 350.45 986.57 350.26 987.25 350.07 987.97 349.86 988.98 349.58 989.83 349.33 990.76 349.06 991.6 348.81 992.41 348.63 993.16 348.44 994.02 348.24 994.68 348.11 995.33 348.02 996.08 347.9 996.72 347.8 997.52 347.74 998.38 347.63 999.09 347.58 999.61 347.5 1000.56 347.5 1001.95 347.5 1002.93 347.5 1003.78 347.58 1004.55 347.69 1005.38 347.83 1006.29 347.98 1007.14 348.17 1008.03 348.37 1008.81 348.61 1009.64 348.9 1010.51 349.21 1011.21 349.4 1012 349.67 1012.64 349.92 1013.51 350.29 1014.22 350.63 1014.97 350.99 1015.6 351.33 1016.29 351.69 1016.82 352.04 1017.28 352.31 1017.89 352.71 1018.51 353.11 1019.02 353.47 1019.63 353.93 1020.19 354.36 1020.66 354.77 1021.06 355.15 1021.49 355.58 1021.82 355.9 1021.92 356.01 1021.92 356.06 1021.87 356.1 1021.74 356.18 1021.5 356.3 1021.03 356.51 1020.44 356.76 1019.89 357.03 1019.45 357.26 1019.12 357.44 1018.81 357.68 1018.52 357.86 1018.36 357.98 1018.28 358 1018.13 358 1015.98 358 1008.44 358 1000.3 358 991.55 358 984.77 358 979.73 358 973.79 358 967.13 358 960.05 358 950.05 358 937.13 357.92"/></svg>