<?xml version="1.0" encoding="utf-8"?>
<!-- Generator: Adobe Illustrator 25.1.0, SVG Export Plug-In . SVG Version: 6.00 Build 0)  -->
<svg version="1.1" id="Layer_1" xmlns="http://www.w3.org/2000/svg" xmlns:xlink="http://www.w3.org/1999/xlink" x="0px" y="0px"
	 viewBox="0 0 1279 446" style="enable-background:new 0 0 1279 446;" xml:space="preserve">
<style type="text/css">
	.st0{fill:#FFFFFF;stroke:#000000;stroke-width:5;stroke-miterlimit:10;}
	.st1{fill:#A47449;stroke:#654321;stroke-width:5;stroke-miterlimit:10;}
	.st2{fill:#654321;stroke:#654321;stroke-width:5;stroke-miterlimit:10;}
	.st3{fill:#A2FFA3;stroke:#654321;stroke-width:5;stroke-miterlimit:10;}
	.st4{fill:#4575FF;stroke:#654321;stroke-width:5;stroke-miterlimit:10;}
	.st5{fill:#001700;stroke:#654321;stroke-width:5;stroke-miterlimit:10;}
	.st6{fill:#007331;stroke:#654321;stroke-width:5;stroke-miterlimit:10;}
	.st7{fill:#FFFFFF;stroke:#FFFFFF;stroke-width:3;stroke-miterlimit:10;}
	.st8{fill:#D48BFF;stroke:#D48BFF;stroke-width:3;stroke-miterlimit:10;}
	.st9{fill:#696969;stroke:#A9A9A9;stroke-width:3;stroke-miterlimit:10;}
	.st10{fill:#8BFFBC;stroke:#A9A9A9;stroke-miterlimit:10;}
	.st11{fill:#2EFFC1;stroke:#A9A9A9;stroke-miterlimit:10;}
	.st12{stroke:#000000;stroke-miterlimit:10;}
	.st13{fill:#AFAEB2;stroke:#000000;stroke-miterlimit:10;}
	.st14{fill:#8E8D91;stroke:#000000;stroke-miterlimit:10;}
	.st15{fill:#86D6DA;stroke:#000000;stroke-width:0.5;stroke-miterlimit:10;}
	.st16{fill:#868589;stroke:#000000;stroke-width:0.5;stroke-miterlimit:10;}
	.st17{fill:#98D4D9;stroke:#000000;stroke-width:0.5;stroke-miterlimit:10;}
	.st18{fill:#ACAEB1;stroke:#000000;stroke-miterlimit:10;}
	.st19{fill:#5CB7A4;stroke:#000000;stroke-width:0.25;stroke-miterlimit:10;}
	.st20{fill:#8A898D;stroke:#000000;stroke-width:0.25;stroke-miterlimit:10;}
	.st21{fill:#73B5A5;stroke:#000000;stroke-width:0.25;stroke-miterlimit:10;}
	.st22{fill:#87868A;stroke:#000000;stroke-width:0.25;stroke-miterlimit:10;}
	.st23{fill:#82B3A6;stroke:#000000;stroke-width:0.25;stroke-miterlimit:10;}
	.st24{fill:#8D8C90;stroke:#000000;stroke-width:0.25;stroke-miterlimit:10;}
	.st25{fill:none;stroke:#000000;stroke-miterlimit:10;}
	.st26{fill:none;stroke:#000000;stroke-width:0.5;stroke-miterlimit:10;}
	.st27{fill:#555358;stroke:#000000;stroke-width:0.5;stroke-miterlimit:10;}
	.st28{fill:#B7B7B9;stroke:#000000;stroke-width:0.5;stroke-miterlimit:10;}
	.st29{fill:#505150;stroke:#000000;stroke-width:0.5;stroke-miterlimit:10;}
	.st30{fill:#F3AB40;}
	.st31{fill:#E9AD55;}
	.st32{fill:#43967F;}
	.st33{fill:#245EA9;}
	.st34{fill:#ADAEB1;}
	.st35{fill:none;}
	.st36{fill:#599480;}
	.st37{fill:#2964BF;}
	.st38{fill:#C6332A;}
	.st39{fill:#FFF2EB;stroke:#000000;stroke-miterlimit:10;}
	.st40{fill:#FFF7F3;stroke:#000000;stroke-miterlimit:10;}
	.st41{fill:#6C707F;stroke:#000000;stroke-miterlimit:10;}
	.st42{fill:#FFC4A6;stroke:#000000;stroke-miterlimit:10;}
	.st43{fill:#FFDAC3;stroke:#000000;stroke-miterlimit:10;}
	.st44{fill:#E5EAFF;stroke:#000000;stroke-miterlimit:10;}
	.st45{fill:#CB997E;stroke:#000000;stroke-miterlimit:10;}
	.st46{fill:url(#SVGID_1_);stroke:#000000;stroke-miterlimit:10;}
	.st47{fill:url(#SVGID_2_);stroke:#000000;stroke-miterlimit:10;}
	.st48{fill:none;stroke:#000817;stroke-miterlimit:10;}
	.st49{fill:#26272A;stroke:#000000;stroke-miterlimit:10;}
	.st50{fill:#3E3F44;stroke:#000000;stroke-miterlimit:10;}
	.st51{fill:#52545A;stroke:#000000;stroke-miterlimit:10;}
	.st52{fill:#282A2E;stroke:#000000;stroke-miterlimit:10;}
	.st53{fill:#2B2C31;stroke:#000817;stroke-miterlimit:10;}
	.st54{fill:none;stroke:#000000;stroke-width:0.25;stroke-miterlimit:10;}
	.st55{fill:#00B98F;stroke:#000817;stroke-miterlimit:10;}
	.st56{fill:#56585D;stroke:#000817;stroke-miterlimit:10;}
	.st57{fill:#FFFFFF;stroke:#000000;stroke-miterlimit:10;}
	.st58{fill:#FFFFFF;stroke:#000817;stroke-miterlimit:10;}
	.st59{fill:#948F8F;stroke:#000817;stroke-miterlimit:10;}
	.st60{fill:#1F2023;stroke:#000817;stroke-miterlimit:10;}
	.st61{opacity:0.73;fill:#ADB2AE;stroke:#4D4545;stroke-width:7;stroke-miterlimit:10;}
	.st62{fill:#4D4545;stroke:#4D4545;stroke-width:3;stroke-miterlimit:10;}
	.st63{fill:#B2B1AA;stroke:#000000;stroke-miterlimit:10;}
	.st64{stroke:#000000;stroke-width:0.75;stroke-miterlimit:10;}
	.st65{fill:#B2B1AA;stroke:#000000;stroke-width:0.75;stroke-miterlimit:10;}
	.st66{fill:#FFFFFF;stroke:#ECBCB4;stroke-miterlimit:10;}
	.st67{fill:#ECBCB4;stroke:#ECBCB4;stroke-miterlimit:10;}
	.st68{stroke:#A27100;stroke-miterlimit:10;}
	.st69{fill:#8BE1FF;stroke:#A27100;stroke-width:0.25;stroke-miterlimit:10;}
	.st70{font-family:'MyriadPro-Regular';}
	.st71{font-size:18.0551px;}
</style>
<rect x="1.35" y="-0.04" class="st0" width="1275.9" height="446.11"/>
<polygon class="st1" points="2.11,-0.04 2.11,445.62 1278,445.62 1278,0.26 "/>
<rect x="2.11" y="13.5" class="st2" width="1275.14" height="17.05"/>
<rect x="2.66" y="265.09" class="st2" width="1275.14" height="17.05"/>
<rect x="192.44" y="315.17" class="st3" width="85.66" height="54.7"/>
<ellipse class="st4" cx="193.94" cy="405.44" rx="7.52" ry="19.56"/>
<ellipse class="st5" cx="239.08" cy="403.19" rx="10.53" ry="21.82"/>
<polygon class="st6" points="210.45,381.37 259.53,381.37 251.12,396.42 220.01,396.42 "/>
<path class="st7" d="M466.16,231.3H316.01c-17.12,0-31-13.88-31-31v-31.28c0-17.12,13.88-31,31-31h150.15c17.12,0,31,13.88,31,31
	v31.28C497.16,217.42,483.28,231.3,466.16,231.3z"/>
<path class="st8" d="M767.78,131.61H564.54c-15.46,0-28-12.54-28-28V69c0-15.46,12.54-28,28-28h203.24c15.46,0,28,12.54,28,28v34.61
	C795.78,119.07,783.24,131.61,767.78,131.61z"/>
<polyline class="st8" points="789.76,107.53 789.76,127.09 770.2,127.09 "/>
<polygon class="st9" points="187.73,445.62 163.85,367.83 187.73,294.11 278.1,294.11 300.78,369.87 278.1,445.62 "/>
<rect x="190.93" y="313.66" class="st10" width="85.66" height="54.7"/>
<ellipse transform="matrix(0.9521 -0.3056 0.3056 0.9521 -113.1022 78.2256)" class="st10" cx="193.26" cy="400.3" rx="7.33" ry="14.34"/>
<ellipse transform="matrix(0.4072 -0.9133 0.9133 0.4072 -201.6335 489.3376)" class="st10" cx="276.17" cy="400.01" rx="14.34" ry="7.33"/>
<polygon class="st11" points="227.04,403.94 249.61,403.94 258.03,388.89 208.94,388.89 218.5,403.94 "/>
<ellipse class="st10" cx="204.11" cy="431.75" rx="14.34" ry="7.33"/>
<ellipse class="st10" cx="235.7" cy="431.75" rx="14.34" ry="7.33"/>
<ellipse class="st10" cx="267.3" cy="431.75" rx="14.34" ry="7.33"/>
<path class="st9" d="M524.94,445.62c0,0-3.02-95.32,0-104.61c3.02-9.3,31.6-37.88,79.75-37.88s65.38,27.62,66.54,37.88
	c1.16,10.26,0,104.61,0,104.61"/>
<path class="st12" d="M541.5,343.76v21.53c0,0,13.54-0.46,16.55-0.46c3.01,0,9.06-1.04,9.04-10.3c-0.01-9.26-6.47-10.76-9.26-10.76
	S541.5,343.76,541.5,343.76z"/>
<path class="st12" d="M541.5,385.88v21.53c0,0,13.54-0.46,16.55-0.46c3.01,0,9.06-1.04,9.04-10.3c-0.01-9.26-6.47-10.76-9.26-10.76
	S541.5,385.88,541.5,385.88z"/>
<path class="st12" d="M585.13,343.76v21.53c0,0,13.54-0.46,16.55-0.46c3.01,0,9.06-1.04,9.04-10.3s-6.47-10.76-9.26-10.76
	S585.13,343.76,585.13,343.76z"/>
<path class="st12" d="M585.13,385.88v21.53c0,0,13.54-0.46,16.55-0.46c3.01,0,9.06-1.04,9.04-10.3c-0.01-9.26-6.47-10.76-9.26-10.76
	S585.13,385.88,585.13,385.88z"/>
<path class="st12" d="M585.13,418.98v21.53c0,0,13.54-0.46,16.55-0.46c3.01,0,9.06-1.04,9.04-10.3c-0.01-9.26-6.47-10.76-9.26-10.76
	S585.13,418.98,585.13,418.98z"/>
<path class="st12" d="M631.78,385.88v21.53c0,0,13.54-0.46,16.55-0.46c3.01,0,9.06-1.04,9.04-10.3c-0.01-9.26-6.47-10.76-9.26-10.76
	S631.78,385.88,631.78,385.88z"/>
<path class="st12" d="M633.28,418.98v21.53c0,0,13.54-0.46,16.55-0.46c3.01,0,9.06-1.04,9.04-10.3c-0.01-9.26-6.47-10.76-9.26-10.76
	C646.82,418.98,633.28,418.98,633.28,418.98z"/>
<path class="st7" d="M466.16,231.3H316.01c-17.12,0-31-13.88-31-31v-31.28c0-17.12,13.88-31,31-31h150.15c17.12,0,31,13.88,31,31
	v31.28C497.16,217.42,483.28,231.3,466.16,231.3z"/>
<polygon class="st13" points="884.34,254.94 850.55,254.94 850.29,254.85 850.02,254.73 849.79,254.56 849.5,254.35 849.14,254.07 
	848.84,253.84 848.63,253.63 848.38,253.47 848.25,253.32 848.19,253.15 848.19,252.96 848.19,252.73 848.19,251.19 848.19,249.31 
	848.19,247.61 848.19,245.7 848.19,244.81 848.19,244.31 848.19,241.54 848.37,241.33 848.69,241.29 849.26,241.23 849.65,241.18 
	850.34,241.06 850.86,240.97 851.62,240.82 852.34,240.62 852.96,240.46 853.62,240.27 854.44,239.97 854.74,239.87 855.02,239.77 
	855.25,239.68 855.44,239.6 855.62,239.53 855.87,239.43 856.19,239.28 856.5,239.14 856.85,238.99 857.25,238.79 857.67,238.57 
	857.99,238.4 858.31,238.2 858.74,237.93 859.09,237.69 859.52,237.38 859.78,237.21 860.07,237.02 860.4,236.82 860.61,236.67 
	860.87,236.46 861.12,236.29 861.4,236.1 861.73,235.8 862.03,235.53 862.22,235.35 862.45,235.09 862.67,234.88 862.89,234.66 
	863.09,234.48 863.32,234.26 863.59,233.97 863.8,233.73 864.11,233.38 864.4,233.01 864.67,232.61 864.93,232.26 865.2,231.82 
	865.45,231.43 865.85,230.86 866.18,230.29 866.41,229.75 866.7,229.16 867.02,228.44 867.33,227.66 867.62,226.79 867.91,225.83 
	868.2,224.58 868.33,223.94 868.47,223.13 868.52,222.22 868.57,220.82 868.52,219.13 868.48,217.98 868.34,217.1 868.08,216.11 
	867.79,215.1 867.44,214.01 867.01,212.87 866.5,211.74 865.93,210.82 865.34,209.91 864.45,208.64 863.82,207.89 863.18,207.16 
	862.58,206.52 861.8,205.77 860.95,205.02 860.03,204.29 859.28,203.74 858.41,203.21 857.15,202.52 855.9,201.95 855.19,201.63 
	854.01,201.18 853.29,200.86 852.36,200.54 851.43,200.3 850.29,200.07 849.17,199.87 848.33,199.8 847.37,199.74 846.23,199.71 
	845.08,199.71 844.45,199.71 843.45,199.76 842.49,199.87 841.54,200.05 840.73,200.21 840.09,200.38 839.28,200.56 838.44,200.85 
	837.75,201.07 837.07,201.31 836.49,201.58 835.78,201.89 835.01,202.32 834.17,202.83 833.46,203.17 832.61,203.67 831.93,204.17 
	831.22,204.74 830.7,205.15 830.12,205.64 829.46,206.21 828.88,206.84 828.24,207.54 827.72,208.16 827.08,208.95 826.52,209.85 
	826.07,210.71 825.57,211.67 825.16,212.52 824.72,213.29 824.38,214.26 824.15,214.88 823.91,215.63 823.76,216.53 823.61,217.34 
	823.48,218.18 823.46,219.04 823.45,219.8 823.45,220.7 823.46,221.5 823.49,222.19 823.6,223 823.73,223.86 823.84,224.58 
	824.07,225.38 824.35,226.55 824.77,227.57 825.29,228.77 826.03,230.1 826.75,231.38 827.57,232.55 828.49,233.64 829.29,234.53 
	830.15,235.34 831.28,236.34 832.34,237.17 833.35,237.86 834.4,238.45 835.62,239.09 836.58,239.55 837.99,240.16 839.54,240.69 
	840.94,241.06 842.04,241.3 842.82,241.41 843.14,241.46 843.36,241.48 843.68,241.5 843.98,241.56 844.11,241.6 844.22,241.71 
	844.17,245.39 844.19,248.62 844.21,251.64 844.22,252.85 844.14,253.06 843.98,253.2 843.81,253.36 843.51,253.61 843.23,253.88 
	843.03,254.07 842.73,254.34 842.43,254.6 842.11,254.79 841.68,254.94 841.18,254.94 840.47,254.94 837.86,254.94 831.36,254.94 
	823.85,254.94 817.4,254.94 811.09,254.94 809.35,254.94 808.79,254.73 808.03,254.41 807.31,254.09 806.78,253.8 806.02,253.16 
	805.3,252.36 804.9,251.68 804.41,250.95 804.05,250.07 804.05,249.15 804.05,242.23 804.05,224.01 804.05,198.13 804.05,167.69 
	804.05,136.43 804.05,100.25 804.05,67.11 804.05,48.03 804.05,46.63 804.23,45.83 804.6,45.04 805.08,44.53 805.65,43.84 
	806.3,43.22 807.04,42.76 807.89,42.57 808.8,42.57 815.7,42.57 835.21,42.57 854.38,42.57 867.04,42.57 877.82,42.57 882.27,42.57 
	883.96,42.57 885.03,42.88 885.78,43.25 886.58,43.95 886.95,44.7 887.56,44.89 888.3,44.89 889.19,44.89 890.13,44.93 
	913.39,44.94 938.42,45.03 960.32,45.25 980.81,45.25 997.29,45.25 1012.14,45.3 1023.5,45.43 1035.29,45.63 1036.22,45.61 
	1037.12,45.2 1037.94,44.68 1038.61,44.04 1039.17,43.56 1039.55,43.22 1040.22,42.96 1041.34,42.81 1042.72,42.77 1050.5,42.57 
	1067.93,42.57 1099.76,42.57 1119.59,42.57 1121.12,42.83 1122.44,43.21 1123.56,43.74 1124.72,44.53 1125.6,45.57 1126.22,46.98 
	1126.42,48.84 1126.42,50.63 1126.42,73.55 1126.42,101.1 1126.42,130.07 1126.42,162.37 1126.42,189.82 1126.42,216.33 
	1126.42,242.64 1126.42,249.39 1126.42,250.55 1126.26,251.48 1125.98,252.2 1125.53,252.74 1124.92,253.32 1124.08,253.85 
	1123.27,254.13 1122.15,254.47 1121.11,254.68 1119.27,254.94 1117.41,254.94 1113.48,254.94 1106.09,254.94 1095.56,254.94 
	1083.85,254.94 1073.2,254.94 1063.74,254.94 1046.82,254.94 1046.16,254.81 1045.58,254.56 1045.15,254.29 1044.86,253.84 
	1044.74,253.32 1044.7,252.74 1044.67,252.24 1044.65,251.92 1044.47,251.7 1044.16,251.61 1043.73,251.59 1043.28,251.56 
	1041.92,251.54 1039.58,251.54 1030.04,251.53 1009.8,251.48 995.94,251.44 980.23,251.37 959.5,251.33 941.69,251.33 
	922.38,251.33 900.36,251.37 889.21,251.26 888.76,251.26 888.32,251.34 887.97,251.67 887.67,252.17 887.49,252.69 887.26,253.23 
	886.84,253.58 886.49,253.94 886.01,254.37 885.24,254.73 884.91,254.94 "/>
<polygon class="st14" points="1064.85,211.72 1064.58,212.19 1064.23,212.89 1063.78,213.74 1063.51,214.5 1063.18,215.43 
	1062.88,216.37 1062.62,217.23 1062.36,218.25 1062.27,218.87 1062.21,219.83 1062.21,220.66 1062.21,222.32 1062.21,222.88 
	1062.21,223.5 1062.33,224.19 1062.51,225 1062.62,225.78 1062.84,226.65 1063.05,227.27 1063.23,227.91 1063.53,228.67 
	1063.75,229.23 1064.02,229.85 1064.33,230.49 1064.6,231.1 1064.95,231.59 1065.3,232.17 1065.76,232.79 1066.18,233.41 
	1066.69,233.99 1067.14,234.56 1067.6,235.02 1068.08,235.6 1068.51,236.08 1068.97,236.4 1069.58,236.91 1070.18,237.37 
	1070.68,237.77 1071.11,238.09 1071.65,238.5 1072.31,238.82 1073.06,239.28 1073.69,239.65 1074.41,240.02 1075.15,240.35 
	1075.83,240.59 1076.5,240.86 1077.19,241.09 1077.78,241.28 1078.45,241.5 1079.14,241.71 1079.92,241.84 1080.62,242 
	1081.42,242.08 1082.29,242.19 1083.01,242.19 1084.21,242.19 1086.73,242.19 1087.58,242.19 1088.36,242.04 1089.12,241.96 
	1089.83,241.79 1090.56,241.6 1091.41,241.42 1092.03,241.23 1092.89,240.94 1093.81,240.58 1094.58,240.19 1095.44,239.84 
	1096.11,239.47 1096.83,239.06 1097.5,238.68 1098.19,238.21 1098.75,237.82 1099.35,237.32 1099.86,236.87 1100.52,236.3 
	1101.04,235.84 1101.46,235.45 1102.02,234.88 1102.43,234.38 1102.81,233.92 1103.24,233.32 1103.66,232.71 1104.07,232.13 
	1104.36,231.67 1104.68,231.11 1104.98,230.54 1105.24,230.04 1105.56,229.45 1105.83,228.83 1106.13,228.1 1106.37,227.52 
	1106.55,226.95 1106.68,226.37 1106.82,225.62 1106.93,225.08 1107.03,224.56 1107.11,224.04 1107.11,223.15 1107.11,222.32 
	1107.11,219.93 1107.11,219.32 1107.11,218.7 1106.93,217.81 1106.64,216.9 1106.39,216.02 1106.13,215.17 1105.83,214.44 
	1105.49,213.66 1105.06,212.76 1104.76,212.17 1104.41,211.52 1103.98,210.72 1103.55,210.11 1103.04,209.4 1102.42,208.65 
	1101.7,207.88 1101.23,207.4 1100.63,206.8 1099.83,206.14 1099.22,205.62 1098.57,205.12 1097.8,204.58 1096.97,204.07 
	1096.21,203.59 1095.31,203.14 1094.42,202.73 1093.48,202.33 1092.68,202.01 1091.85,201.72 1091.05,201.43 1090.24,201.21 
	1089.47,201.04 1088.58,200.86 1087.66,200.73 1086.73,200.65 1086.03,200.65 1082.92,200.65 1082.23,200.73 1081.51,200.84 
	1080.91,200.91 1080.04,201.08 1079.25,201.26 1078.51,201.43 1077.78,201.63 1077.12,201.8 1076.55,202.03 1075.94,202.26 
	1075.26,202.54 1074.62,202.78 1073.93,203.08 1073.26,203.45 1072.62,203.8 1072,204.2 1071.27,204.67 1070.73,205.07 
	1070.15,205.52 1069.69,205.87 1069.19,206.27 1068.65,206.75 1068.27,207.15 1067.68,207.71 1067.34,208.12 1066.91,208.6 
	1066.55,209.03 1066.1,209.52 1065.67,210.1 1065.36,210.61 "/>
<polygon class="st14" points="825.07,174.6 825.19,173.96 825.37,173.18 825.56,172.58 825.75,171.94 826.02,171.45 826.29,170.96 
	826.59,170.43 826.93,169.96 827.31,169.4 827.67,168.92 828.23,168.48 828.74,168.14 829.25,167.73 829.79,167.32 830.28,167.06 
	830.88,166.75 831.49,166.46 832.2,166.24 832.89,166.05 833.52,165.92 834.1,165.84 834.73,165.74 835.32,165.74 836.07,165.74 
	836.58,165.74 837.29,165.86 837.8,165.98 838.5,166.16 839.12,166.36 839.83,166.59 840.52,166.9 841.26,167.29 841.77,167.64 
	842.33,168.06 842.9,168.54 843.47,169.15 843.97,169.7 844.46,170.17 844.75,170.7 845.08,171.28 845.45,171.85 845.78,172.52 
	845.84,173.02 846.07,173.98 846.15,174.74 846.15,175.68 846.15,176.52 846.07,177.56 845.94,178.25 845.76,178.78 845.45,179.38 
	845.08,180.04 844.73,180.69 844.32,181.16 843.89,181.77 843.43,182.25 842.93,182.69 842.57,182.96 842.11,183.29 841.52,183.68 
	841.14,183.88 840.61,184.2 840.14,184.42 839.52,184.68 838.94,184.84 838.39,185 837.85,185.11 837.27,185.25 836.45,185.25 
	835.61,185.25 834.94,185.25 834.68,185.25 834.22,185.25 833.48,185.14 832.79,184.98 832.3,184.77 831.52,184.58 830.96,184.3 
	830.31,183.99 829.64,183.56 828.98,183.12 828.45,182.66 827.91,182.15 827.39,181.61 827.01,181.1 826.58,180.48 826.18,179.86 
	825.78,179.22 825.57,178.62 825.35,177.98 825.16,177.35 825.07,176.68 825.07,175.9 825.07,175.16 "/>
<polygon class="st14" points="849.26,241.23 849.65,241.18 850.34,241.06 850.86,240.97 851.62,240.82 852.34,240.62 852.96,240.46 
	853.62,240.27 854.44,239.97 854.74,239.87 855.02,239.77 855.25,239.68 855.62,239.53 855.87,239.43 856.19,239.28 856.5,239.14 
	856.85,238.99 857.25,238.79 857.67,238.57 857.99,238.4 858.31,238.2 858.74,237.93 859.09,237.69 859.52,237.38 860.07,237.02 
	860.4,236.82 860.87,236.46 861.12,236.29 861.4,236.1 861.73,235.8 862.03,235.53 862.45,235.09 862.67,234.88 863.09,234.48 
	863.32,234.26 863.8,233.73 864.11,233.38 864.4,233.01 864.67,232.61 864.93,232.26 865.2,231.82 865.45,231.43 865.85,230.86 
	866.18,230.29 866.41,229.75 866.7,229.16 867.02,228.44 867.33,227.66 867.62,226.79 867.91,225.83 868.2,224.58 868.33,223.94 
	868.47,223.13 868.52,222.22 868.57,220.82 868.52,219.13 868.48,217.98 868.34,217.1 868.08,216.11 867.79,215.1 867.44,214.01 
	867.01,212.87 866.5,211.74 865.93,210.82 865.34,209.91 864.45,208.64 863.82,207.89 863.18,207.16 862.58,206.52 861.8,205.77 
	860.95,205.02 860.03,204.29 859.28,203.74 858.41,203.21 857.15,202.52 855.9,201.95 855.19,201.63 854.01,201.18 853.29,200.86 
	852.36,200.54 851.43,200.3 850.29,200.07 849.17,199.87 848.33,199.8 847.37,199.74 846.23,199.71 845.08,199.71 844.45,199.71 
	843.45,199.76 842.49,199.87 841.54,200.05 840.73,200.21 840.09,200.38 839.28,200.56 838.44,200.85 837.75,201.07 837.07,201.31 
	836.49,201.58 835.78,201.89 835.01,202.32 834.17,202.83 833.46,203.17 832.61,203.67 831.93,204.17 831.22,204.74 830.7,205.15 
	830.12,205.64 829.46,206.21 828.88,206.84 828.24,207.54 827.72,208.16 827.08,208.95 826.52,209.85 826.07,210.71 825.57,211.67 
	825.16,212.52 824.72,213.29 824.38,214.26 824.15,214.88 823.91,215.63 823.76,216.53 823.61,217.34 823.48,218.18 823.46,219.04 
	823.45,219.8 823.45,220.7 823.46,221.5 823.49,222.19 823.6,223 823.73,223.86 823.84,224.58 824.07,225.38 824.35,226.55 
	824.77,227.57 825.29,228.77 826.03,230.1 826.75,231.38 827.57,232.55 828.49,233.64 829.29,234.53 830.15,235.34 831.28,236.34 
	832.34,237.17 833.35,237.86 834.4,238.45 835.62,239.09 836.58,239.55 837.99,240.16 839.54,240.69 840.94,241.06 842.04,241.3 
	842.82,241.41 843.36,241.48 843.84,241.48 844.34,241.48 844.89,241.48 845.64,241.48 846.26,241.48 847.24,241.48 847.8,241.48 
	848.05,241.48 848.37,241.33 848.69,241.29 "/>
<polygon class="st15" points="1076.92,222.32 1076.92,220.86 1077.37,220.41 1077.71,220.03 1078.24,219.74 1078.49,219.58 
	1079.88,219.58 1080.3,219.91 1080.63,220.12 1080.94,220.41 1081.15,220.76 1081.15,222.32 1081.15,222.52 1080.86,222.81 
	1080.55,223.15 1080.09,223.5 1078.66,223.5 1077.91,223.12 1077.25,222.65 "/>
<polygon class="st16" points="1078.51,222.63 1077.87,222.09 1077.87,220.97 1078.19,220.61 1078.51,220.34 1079.7,220.34 
	1080.18,220.68 1080.49,221.09 1080.49,222.19 1079.97,222.63 "/>
<polygon class="st15" points="1082.04,223.39 1082.04,219.64 1084.33,219.64 1084.76,219.95 1084.97,220.34 1084.97,221.48 
	1084.66,221.9 1084.31,222.02 1082.75,221.98 1082.73,223.39 "/>
<polygon class="st16" points="1082.73,220.34 1082.73,221.42 1084.1,221.42 1084.43,221.13 1084.43,220.63 1084.16,220.43 "/>
<polygon class="st17" points="1085.47,219.58 1085.49,223.5 1088.61,223.5 1088.61,222.63 1086.33,222.63 1086.33,221.88 
	1088.61,221.92 1088.61,221.05 1086.27,221.07 1086.22,220.34 1088.61,220.34 1088.59,219.58 "/>
<polygon class="st15" points="1089.31,219.58 1089.31,223.5 1090.37,223.5 1090.37,221.15 1090.37,220.88 1090.62,221.05 
	1090.91,221.52 1092.54,223.45 1092.57,223.54 1093.1,223.54 1093.2,223.54 1093.16,219.53 1092.62,219.53 1092.61,222.18 
	1092.61,222.3 1092.46,222.31 1092.33,222.19 1092.23,222.05 1090.45,219.66 1090.37,219.53 "/>
<polyline class="st18" points="850.55,254.94 849.06,254.94 847.82,254.94 846.29,254.94 845.17,254.94 843.76,254.94 
	842.96,254.94 842.11,254.79 842.43,254.6 842.73,254.34 843.23,253.88 843.51,253.61 843.81,253.36 844.14,253.06 844.22,252.85 
	844.21,252.43 844.21,251.64 844.19,248.62 844.17,245.39 844.22,241.71 844.34,241.48 844.89,241.48 845.64,241.48 846.26,241.48 
	847.24,241.48 847.8,241.48 848.19,241.54 848.19,242.16 848.19,243.02 848.19,244.31 848.19,245.7 848.19,247.61 848.19,249.31 
	848.19,251.19 848.19,252.73 848.19,253.15 848.25,253.32 848.63,253.63 848.84,253.84 849.5,254.35 850.02,254.73 850.55,254.94 
	"/>
<polygon class="st19" points="834.82,222.01 834.82,221.62 834.82,221.23 834.82,220.79 834.82,220.08 834.82,219.52 834.82,219 
	834.82,218.71 834.82,218.54 835.11,218.54 835.31,218.54 835.63,218.54 835.92,218.54 836.29,218.54 836.63,218.54 836.8,218.54 
	836.94,218.54 837.14,218.54 837.38,218.59 837.53,218.71 837.72,218.91 837.88,219.11 837.94,219.32 837.94,219.55 837.94,219.78 
	837.94,220.03 837.94,220.27 837.86,220.4 837.71,220.52 837.58,220.67 837.4,220.81 837.15,220.9 836.93,221.01 836.55,221.03 
	836.38,221.03 836.04,221.03 835.74,221.03 835.55,221.03 835.4,221.07 835.34,221.18 835.34,221.41 835.36,221.68 835.35,221.81 
	835.34,222.01 835.17,222.01 835.02,222.01 "/>
<polygon class="st20" points="835.35,220.27 835.35,219.91 835.35,219.68 835.39,219.54 835.52,219.5 835.63,219.5 835.81,219.5 
	836.02,219.5 836.29,219.5 836.55,219.5 836.75,219.5 836.91,219.5 837.1,219.54 837.24,219.58 837.35,219.68 837.35,219.89 
	837.35,220.05 837.2,220.14 836.94,220.23 836.81,220.27 836.46,220.27 836.14,220.27 835.61,220.27 "/>
<polygon class="st21" points="838.66,221.14 838.66,220.44 838.66,219.89 838.72,219.59 838.93,219.42 839.22,219.12 839.45,218.97 
	839.64,218.78 839.78,218.67 839.94,218.54 840.13,218.54 840.44,218.54 840.82,218.54 841.12,218.54 841.3,218.54 841.51,218.59 
	841.67,218.67 841.9,218.81 842.12,218.99 842.32,219.2 842.48,219.43 842.65,219.68 842.84,219.94 842.93,220.12 842.93,220.59 
	842.93,220.84 842.93,221.02 842.93,221.26 842.93,221.45 842.69,221.65 842.38,222.01 842.06,222.24 841.85,222.37 841.62,222.48 
	841.37,222.48 841.01,222.48 840.66,222.48 840.21,222.48 840.06,222.48 839.74,222.27 839.49,222.1 839.27,221.91 838.96,221.63 
	838.86,221.45 "/>
<polygon class="st22" points="839.19,220.94 839.19,220.17 839.28,220 839.48,219.84 839.7,219.68 839.93,219.5 840.2,219.5 
	840.55,219.5 840.84,219.5 841.13,219.5 841.3,219.56 841.48,219.62 841.65,219.71 841.84,219.89 841.96,220 842.07,220.07 
	842.07,220.18 842.14,220.39 842.14,220.59 842.14,220.94 842.04,221.16 841.87,221.51 841.71,221.59 841.43,221.59 841.03,221.59 
	840.66,221.59 840.22,221.59 840.04,221.59 839.81,221.49 839.61,221.31 839.38,221.17 "/>
<polygon class="st23" points="843.07,219.03 843.33,219.5 843.55,219.89 843.68,220.36 843.84,220.66 843.96,220.99 844.12,221.34 
	844.19,221.71 844.33,222.01 844.49,222.01 844.64,222.01 844.79,222.01 845.02,222.01 845.12,221.59 845.21,221.29 845.32,220.97 
	845.5,220.59 845.64,220.27 845.75,219.99 846.01,220 846.18,220 846.33,220.19 846.41,220.54 846.53,221.05 846.67,221.4 
	846.87,221.76 847.04,222.01 847.21,222.01 847.43,222.01 847.69,222.01 847.84,221.59 847.97,221.14 848.15,220.69 848.38,220.19 
	848.49,219.8 848.55,219.5 848.63,219.2 848.63,219.03 848.32,219.03 848.04,218.97 847.93,219.31 847.84,219.71 847.7,220.27 
	847.6,220.54 847.44,220.88 847.33,221.05 847.1,221.05 846.9,220.86 846.81,220.42 846.69,219.89 846.49,219.5 846.38,219.18 
	846.29,218.97 846.01,218.97 845.85,218.97 845.69,218.97 845.52,219.29 845.32,219.72 845.19,220.11 845.07,220.49 844.96,220.76 
	844.87,221.02 844.62,221.05 844.27,220.49 844.13,220.05 843.99,219.57 843.75,219.17 843.65,218.97 "/>
<polygon class="st23" points="849.61,218.65 850.06,218.65 850.59,218.65 851.21,218.65 851.76,218.65 852.15,218.65 852.31,218.65 
	852.31,218.9 852.31,219.22 852.31,219.49 852.1,219.49 851.73,219.49 851.34,219.49 850.83,219.49 850.42,219.49 850.16,219.49 
	850.15,219.81 850.15,220.01 850.48,220.01 852.31,220.01 852.31,221.03 850.12,221.03 850.12,221.54 852.31,221.54 852.31,222.48 
	849.03,222.48 849.03,218.65 "/>
<polygon class="st23" points="852.9,222.39 852.9,219.26 852.98,219.11 853.12,219.03 853.28,218.9 853.41,218.74 853.52,218.65 
	853.63,218.54 855.53,218.54 855.85,218.75 856.18,218.98 856.59,219.25 856.69,219.42 856.69,219.77 856.69,219.99 856.57,220.22 
	856.37,220.39 856.22,220.52 856.13,220.59 856.18,221.02 856.41,221.24 856.63,221.5 856.69,221.8 856.69,222.01 856.69,222.24 
	856.69,222.39 856.51,222.39 856.19,222.39 855.78,222.39 855.56,222.39 855.59,221.98 855.59,221.62 855.59,221.38 855.58,221.18 
	855.55,221.05 855.31,221.04 854.91,221.03 854.61,221.02 854.26,221.02 854.02,221.04 853.95,221.32 853.97,221.55 853.97,221.91 
	853.97,222.11 853.95,222.39 "/>
<rect x="853.95" y="219.53" class="st24" width="1.64" height="0.54"/>
<polyline class="st25" points="887.67,252.17 887.67,244.73 887.67,227.3 887.67,216.37 887.67,207.82 "/>
<polyline class="st25" points="1043.28,251.56 1043.28,242.66 1043.28,232.4 1043.28,223.03 1043.15,209.47 "/>
<polyline class="st25" points="887.56,44.89 887.56,54.27 887.56,66.24 887.56,78.12 887.56,88.86 "/>
<polyline class="st25" points="1041.96,42.79 1041.96,56.84 1041.96,67.62 1041.96,81.61 1041.91,88.67 "/>
<path class="st25" d="M887.56,88.86"/>
<line class="st26" x1="831.15" y1="175.2" x2="829.58" y2="175.1"/>
<polyline class="st26" points="829.58,176.36 829.58,176.07 829.58,175.1 829.58,174.42 829.58,174.17 829.58,174.02 830.07,174.02 
	830.49,174.02 830.85,174.02 831.02,174.02 831.4,174.3 831.4,174.58 831.4,174.75 831.4,174.93 831.28,175.17 831.4,175.98 
	831.4,176.11 831.4,176.36 "/>
<polyline class="st26" points="834.17,174.3 832.32,174.3 832.16,174.3 832.16,176.25 832.16,176.43 834.11,176.43 "/>
<line class="st26" x1="834.09" y1="175.29" x2="832.16" y2="175.29"/>
<polyline class="st26" points="836.63,174.73 836.4,174.58 836.22,174.45 836.01,174.38 835.61,174.38 835.27,174.38 835.03,174.56 
	834.86,174.73 834.86,174.94 835.01,175.19 835.34,175.29 835.67,175.36 836.01,175.43 836.22,175.43 836.4,175.6 836.5,175.9 
	836.49,176.12 836.35,176.36 836.09,176.43 835.74,176.43 835.45,176.43 835.18,176.36 835,176.21 834.75,175.97 "/>
<polyline class="st26" points="839.11,174.38 837.34,174.38 837.34,176.7 839.11,176.7 "/>
<line class="st26" x1="839.11" y1="175.5" x2="837.34" y2="175.5"/>
<polyline class="st26" points="839.52,174.58 839.76,174.58 841.88,174.58 "/>
<line class="st26" x1="840.7" y1="176.7" x2="840.7" y2="174.58"/>
<polyline class="st25" points="1049.65,201.41 1052.1,203 1053.68,203.99 1055.52,205.02 1056.81,205.8 1058.32,206.68 
	1060.41,208.04 1061.48,208.67 1062.73,209.44 1063.58,210.07 1064.16,210.49 1064.58,210.74 1065.14,211.1 1065.23,210.9 
	1065.3,210.74 1065.44,210.48 1065.61,210.2 1065.81,209.91 1066.01,209.64 1066.26,209.34 1066.19,209.19 1066.01,208.97 
	1065.48,208.63 1064.89,208.25 1063.97,207.72 1063.05,207.11 1062.21,206.55 1061.44,206.15 1060.6,205.62 1059.74,205.09 
	1058.83,204.54 1057.72,203.9 1056.88,203.37 1056.12,202.92 1055.35,202.46 1054.73,202.01 1054.01,201.56 1053.34,201.11 
	1052.5,200.51 1051.84,200.11 1050.93,199.61 1050.34,200.45 1049.65,201.41 "/>
<polygon class="st13" points="1019.15,228.64 1022.09,226.92 1024.78,225.12 1027.81,223.01 1030.18,221.08 1032.73,219.19 
	1034.84,217.56 1037.09,215.58 1039.07,213.64 1040.96,211.67 1043.15,209.47 1045.18,207.14 1047.16,204.85 1048.69,202.74 
	1050.5,200.23 1052.87,196.85 1054.72,193.77 1056.65,190.52 1058.06,187.61 1060.08,183.66 1061.75,179.22 1062.9,175.74 
	1064.08,171.92 1065.01,168 1065.76,164.27 1066.19,161.28 1066.55,158.46 1066.85,155.91 1067.03,154.15 1067.03,151.6 
	1067.03,148.91 1067.03,145.84 1067.03,143.69 1066.77,140.61 1066.55,138.76 1066.19,136.59 1065.84,134.54 1065.36,131.9 
	1064.92,129.53 1064.04,126.23 1063.16,123.37 1062.24,120.47 1061.27,117.79 1060.3,115.42 1058.85,112.21 1057.62,109.48 
	1056.04,106.71 1055.03,104.69 1053.84,102.8 1052.65,100.73 1051.2,98.75 1049.78,97.18 1048.67,95.66 1047.27,94.09 
	1045.99,92.75 1045,91.87 1043.84,90.77 1042.84,89.54 1041.91,88.67 1040.98,87.56 1039.46,85.93 1038.18,84.59 1036.14,82.43 
	1034.98,81.44 1033.58,80.28 1032.35,79.11 1030.72,77.83 1028.62,76.2 1026.93,75.03 1024.43,73.28 1022.15,71.71 1019.59,70.14 
	1017.26,68.97 1014.35,67.22 1011.08,65.65 1007.7,64.25 1004.15,62.62 1001.23,61.57 997.15,60.29 993.48,59.18 989.93,58.25 
	987.01,57.55 983.28,56.85 980.72,56.38 978.04,56.09 975.18,55.8 970.87,55.8 965.06,55.51 962.24,55.51 958.57,55.51 
	954.72,55.86 948.9,56.38 944.53,56.96 939.22,58.13 934.15,59.53 929.9,60.87 924.77,62.62 919.47,64.83 915.33,66.99 911.42,69.2 
	907.34,71.94 903.96,74.1 900.47,76.6 897.49,78.99 894.99,81.15 892.48,83.71 890.73,85.58 888.64,87.56 886.89,89.66 
	885.08,91.93 882.17,95.55 880.18,98.23 878.14,101.61 876.22,104.64 874.47,107.43 873.31,109.88 872.14,112.39 870.86,115.65 
	869.58,119.09 868.24,122.53 867.48,126.03 866.26,130.51 866.03,132.28 865.82,134.5 865.61,136.59 865.36,138.59 865.25,140.36 
	865.04,142.4 864.9,145.11 864.9,147.61 864.9,149.43 864.9,151.91 864.9,153.96 864.9,155.43 865.13,157.85 865.32,158.87 
	865.53,160.32 865.9,161.98 866.07,162.74 866.2,163.5 866.28,164.47 866.41,165.69 866.66,166.66 866.83,167.8 867.08,169.07 
	867.42,170.33 867.84,171.72 868.31,173.5 868.69,174.93 869.57,177.21 870.12,178.51 870.63,179.95 871.18,181.17 871.68,182.39 
	872.4,184 872.95,185.26 873.87,187.2 875.01,189.31 875.86,190.74 876.87,192.64 877.88,194.33 879.02,196.35 879.99,197.87 
	881.04,199.43 882.39,201.37 883.49,202.81 885.18,204.87 886.95,207.06 889.06,209.26 890.83,211.16 892.6,213.01 894.75,214.99 
	896.73,216.6 898.5,218.2 900.74,220.05 903.18,221.87 905.42,223.43 908.12,225.07 910.52,226.59 912.97,228.07 915.2,229.33 
	917.73,230.51 920.98,231.99 923.38,233.25 926.76,234.56 929.5,235.57 932.28,236.5 934.98,237.51 937.89,238.27 940.72,238.99 
	943.71,239.66 946.79,240.25 949.32,240.72 951.94,241.06 954.93,241.39 957.23,241.75 959.42,241.95 961.03,241.95 963.33,241.95 
	965.85,241.95 967.91,241.95 970.83,241.95 973.26,241.95 975.5,241.64 977.75,241.42 979.72,241.22 982.26,240.89 985.07,240.38 
	987.77,239.82 990.36,239.25 993.48,238.45 996.31,237.63 998.94,236.86 1001.93,235.86 1004.56,234.96 1007.39,233.87 
	1010.16,232.68 1012.5,231.68 1015.04,230.47 1017.15,229.65 "/>
<polyline class="st26" points="949.85,201.99 949.85,198.17 949.85,197.92 950.36,197.92 951.03,197.92 951.51,197.92 
	951.98,198.03 952.2,198.28 952.34,198.72 952.34,199.08 952.34,199.52 952.14,199.96 951.83,200.19 951.09,200.19 950.6,200.19 
	950,200.21 "/>
<line class="st26" x1="953.82" y1="197.92" x2="953.82" y2="201.99"/>
<polyline class="st26" points="955.56,198.97 956.96,198.97 957.27,199.14 957.51,199.39 957.51,200.03 957.51,200.23 
	957.51,201.68 957.51,201.99 955.69,201.99 955.36,201.77 955.16,201.45 955.16,201.12 955.16,200.77 955.51,200.48 955.76,200.34 
	956.16,200.26 956.45,200.26 956.71,200.26 957,200.23 957.22,200.23 "/>
<line class="st26" x1="961.58" y1="198.97" x2="959.24" y2="203.79"/>
<line class="st26" x1="958.78" y1="198.97" x2="960.09" y2="201.68"/>
<polyline class="st26" points="964.75,197.92 963.18,197.92 962.93,198.15 962.73,198.48 962.73,199.39 963.02,199.63 
	963.42,199.81 963.74,199.81 964.09,199.81 964.44,199.96 964.75,200.32 964.75,200.68 964.75,201.03 964.75,201.5 964.51,201.81 
	964.2,201.99 962.73,201.99 "/>
<polyline class="st26" points="966.35,198.28 966.35,201.83 966.75,201.99 967.2,201.99 "/>
<line class="st26" x1="967.6" y1="198.97" x2="966.44" y2="198.97"/>
<polyline class="st26" points="968.8,198.97 970.22,198.97 970.53,199.19 970.71,199.48 970.71,201.79 970.48,201.99 969.97,201.99 
	968.86,201.99 968.57,201.68 968.33,201.38 968.33,200.9 968.66,200.59 969,200.48 969.33,200.32 969.86,200.32 970.15,200.32 
	970.53,200.32 "/>
<polyline class="st26" points="972.42,198.28 972.42,201.68 972.77,201.99 973.24,201.99 "/>
<line class="st26" x1="973.62" y1="198.97" x2="972.53" y2="198.97"/>
<line class="st26" x1="974.75" y1="197.79" x2="974.75" y2="198.12"/>
<line class="st26" x1="974.75" y1="198.97" x2="974.75" y2="202.17"/>
<polygon class="st26" points="976.33,201.14 976.33,200.13 976.44,199.72 976.57,199.41 976.73,199.21 976.99,198.97 977.86,198.97 
	978.33,199.06 978.64,199.32 978.81,199.7 978.81,200.39 978.81,201.14 978.68,201.57 978.41,201.83 978.13,201.99 977.21,201.99 
	976.79,201.81 976.48,201.54 "/>
<polyline class="st26" points="982.79,202.08 982.79,199.52 982.63,199.23 982.23,198.97 980.41,198.97 980.41,202.17 "/>
<polygon class="st27" points="953.11,94.72 953.11,92.91 952.68,93.04 952.15,93.09 951.65,92.81 950.87,92.58 950.4,92.58 
	948.54,92.58 948.01,92.71 947.46,92.89 946.75,93.06 946.28,93.31 945.82,93.87 945.82,95.22 946.28,95.5 946.88,95.8 
	947.71,96.02 948.44,96.18 949.34,96.28 950.09,96.28 951.4,96.28 951.98,96.7 952.3,97.08 952.28,97.56 951.85,97.83 951.3,98.06 
	950.67,98.06 950.02,98.06 949.47,98.06 948.71,98.06 947.98,97.88 947.51,97.53 947.11,97.16 946.78,96.78 946.63,96.53 
	945.82,96.55 945.82,98.79 946.53,98.79 946.83,98.79 946.93,98.46 947.31,98.49 947.91,98.79 948.69,98.94 949.47,99.04 
	950.27,99.04 951.15,99.04 952.08,98.76 952.73,98.46 953.28,98.13 953.61,97.66 953.61,96.85 953.61,96.33 953.36,95.92 
	953.06,95.6 952.48,95.3 951.78,95.17 951.02,95.1 950.09,95.05 949.24,94.95 948.36,94.79 947.61,94.54 947.31,94.32 947.31,93.94 
	947.71,93.69 948.08,93.41 948.59,93.26 949.24,93.19 950.87,93.26 951.45,93.44 951.8,93.79 952.25,94.22 952.71,94.74 "/>
<polygon class="st27" points="958.21,99.04 957.08,98.51 956.32,97.91 955.82,97.31 955.44,96.78 955.44,95.12 955.85,94.42 
	956.42,93.87 957.13,93.31 957.98,92.81 958.76,92.58 961.24,92.58 962,92.76 962.88,93.11 963.35,93.44 964.11,93.99 964.46,94.77 
	964.46,96.65 964.23,97.38 963.76,97.83 963.03,98.39 962.35,98.66 961.7,99.04 "/>
<polygon class="st28" points="959.39,98.08 958.51,97.88 957.93,97.48 957.55,97.05 957.38,96.53 957.38,96.1 957.38,95.27 
	957.6,94.69 957.93,94.22 958.38,93.89 958.81,93.54 959.09,93.36 960.59,93.36 961.4,93.74 961.97,94.14 962.33,94.59 
	962.63,95.12 962.63,96.68 962.25,97.21 961.77,97.68 961.24,98.08 "/>
<polygon class="st29" points="971.92,92.89 971.92,93.59 973.02,93.59 973.02,96.43 968.91,92.89 965.87,92.89 965.87,93.59 
	966.9,93.61 966.9,98.08 965.87,98.08 965.87,98.66 969.45,98.66 969.36,98.08 968.15,98.08 968.13,94.67 968.58,94.67 
	973.02,98.54 973.02,98.79 974.46,98.79 974.46,93.61 975.51,93.61 975.51,92.89 "/>
<polygon class="st29" points="976.45,92.89 976.45,93.63 977.57,93.63 980.06,96.28 980.06,98.1 978.97,98.1 978.97,98.79 
	983.37,98.79 983.37,97.99 982.06,97.99 981.96,96.47 984.81,93.67 985.96,93.67 985.96,92.89 982.32,92.89 982.34,93.57 
	983.16,93.61 983.14,93.99 981.89,95.37 981.21,95.35 979.71,93.72 979.71,93.5 980.6,93.5 980.58,92.89 "/>
<polygon class="st30" points="962.97,194.58 962,194.17 961.45,193.98 960.65,193.84 959.76,193.84 958.78,193.76 957.98,193.76 
	957.21,193.6 956.33,193.38 955.57,193.14 954.87,192.78 954.26,192.27 954.14,191.67 954.31,191.23 954.89,190.8 955.54,190.46 
	956.33,190.15 956.7,190.37 956.99,190.53 957.51,190.73 958.12,190.97 958.56,191.19 959.04,191.55 958.41,191.81 957.88,191.98 
	957.9,192.37 958.43,192.37 959.09,192.37 959.71,192.37 960.09,192.37 960.27,192.03 960.56,191.88 960.94,191.88 961.4,191.88 
	961.93,191.96 962.29,192.1 962.63,192.17 962.97,192.37 963.23,192.53 963.23,193.11 963.23,194.58 "/>
<polygon class="st31" points="967.02,195.72 969.79,194.78 969.52,194.41 968.97,194.17 968.33,193.98 967.6,193.91 967.02,193.91 
	"/>
<polygon class="st32" points="956.33,190.15 957.35,189.83 958.5,189.44 959.24,189.19 959.96,188.96 960.85,188.64 961.58,188.41 
	962.27,188.57 962.73,188.73 963.23,188.89 963.23,192.53 962.63,192.17 962.29,192.1 961.93,191.96 961.4,191.88 960.94,191.88 
	960.56,191.88 960.27,192.03 960.09,192.37 959.71,192.37 959.09,192.37 958.43,192.37 957.9,192.37 957.88,191.98 958.41,191.81 
	959.04,191.55 958.56,191.19 958.12,190.97 957.51,190.73 956.99,190.53 956.7,190.37 "/>
<polygon class="st33" points="961.58,188.41 962.31,187.91 962.73,187.72 963.23,187.72 963.23,188.89 962.73,188.73 962.27,188.57 
	"/>
<polygon class="st34" points="963.23,190.03 962.4,190.47 961.79,190.72 960.76,191.11 959.96,191.36 959.04,191.55 958.41,191.81 
	957.88,191.98 957.9,192.37 958.43,192.37 959.09,192.37 959.71,192.37 960.09,192.37 960.27,192.03 960.56,191.88 960.94,191.88 
	961.4,191.88 961.83,191.65 962.01,191.59 962.15,191.56 962.54,191.46 962.84,191.43 "/>
<polygon class="st35" points="963.23,192.37 963.23,191.68 963.23,190.89 962.92,191.12 962.84,191.43 962.54,191.46 962.15,191.56 
	961.83,191.65 961.4,191.88 961.93,191.96 962.29,192.1 962.63,192.17 962.97,192.37 963.23,192.53 "/>
<polygon class="st36" points="967.02,193.91 967.02,193.3 967.75,193.16 968.48,192.93 969.28,192.86 969.68,192.53 970.27,192.37 
	970.72,192.29 971.14,192.08 971.47,191.96 972.08,191.89 972.57,191.89 973.24,191.89 973.91,191.98 974.34,192.13 974.88,192.37 
	975.47,192.66 974.75,193.11 974.27,193.28 973.24,193.63 972.52,193.91 971.68,194.19 970.67,194.47 969.79,194.78 969.52,194.41 
	968.97,194.17 968.33,193.98 967.6,193.91 "/>
<polygon class="st36" points="966.92,190.15 967.67,190.3 968.64,190.47 969.41,190.73 969.93,191.07 969.44,191.37 968.7,191.55 
	967.9,191.89 966.92,192.24 "/>
<polygon class="st37" points="967.02,189.95 968.62,189.63 969.56,189.44 970.73,189.26 971.72,189.15 972.56,189.15 973.51,189.24 
	974.78,189.41 975.73,189.55 976.72,190.03 977.43,190.6 977.69,191.01 977.69,191.48 977.62,192.02 977.26,192.37 976.69,192.45 
	976.05,192.64 975.47,192.66 974.88,192.37 974.34,192.13 973.58,191.93 972.57,191.89 972.75,191.71 973.07,191.59 973.42,191.52 
	973.89,191.39 974.18,191.31 974.32,190.79 974.33,190.62 974.04,190.47 973.77,190.4 973.35,190.4 972.9,190.4 972.52,190.47 
	971.96,190.58 971.46,190.79 970.92,191.01 970.3,191.07 969.93,191.07 969.41,190.73 968.64,190.47 967.67,190.3 966.92,190.15 "/>
<polygon class="st38" points="963.14,194.81 967.02,195.72 966.92,188.51 966.92,185.2 966.92,183.64 966.92,182.35 966.92,181.87 
	966.92,181.64 967.41,181.64 968.24,181.64 968.56,181.64 968.74,181.85 968.74,182.12 968.74,187.72 968.95,188.09 969.2,188.31 
	969.57,188.31 970.21,188.31 970.88,188.31 971.36,188.14 971.66,187.72 972.07,187.38 972.42,186.9 972.62,186.72 972.81,186.42 
	972.81,186.03 972.81,185.06 972.81,183.71 972.71,183.23 972.46,182.84 972.05,182.31 971.66,181.92 971.25,181.5 970.65,181.14 
	970.03,180.82 969.43,180.54 968.67,180.22 967.97,179.99 967.3,179.74 966.61,179.53 965.96,179.28 965.35,179.12 964.79,179 
	964.15,178.89 963.44,178.89 963.14,178.89 963.23,187.72 "/>
<path class="st39" d="M864.14,74.74c-0.91-2.94,4.95-7.49,7.62-9.19c5.15-3.28,10.33-3.57,12.7-3.55h32.11
	c2.86,0,5.45,1.16,7.32,3.03c0.42,0.42,3.07,3.15,3.03,7.32c-0.03,3.91-2.42,7.54-6.12,9.45c-4.75-1.8-11.18-3.67-18.93-4.43
	c-5.53-0.54-10.44-0.38-14.48,0.02C869.21,78.88,864.8,76.86,864.14,74.74z"/>
<path class="st39" d="M1072.43,76.1c0.91-2.94-4.95-7.49-7.62-9.19c-5.15-3.28-10.33-3.57-12.7-3.55h-32.11
	c-2.86,0-5.45,1.16-7.32,3.03c-0.42,0.42-3.07,3.15-3.03,7.32c0.03,3.91,2.42,7.54,6.12,9.45c4.75-1.8,11.18-3.67,18.93-4.43
	c5.53-0.54,10.44-0.38,14.48,0.02C1067.37,80.23,1071.77,78.21,1072.43,76.1z"/>
<path class="st40" d="M1011.42,105.99c2.82-5.47,8.51-7.94,11.13-9.04c11.38-4.77,22.91-1.35,25.54-0.56
	c8.08,2.4,13.35,6.68,16.15,9.39c0.12,0.12,0.12,0.31,0,0.42l-7.14,6.93c-0.01,0.01-0.02,0.02-0.03,0.03
	c-5.16,3.94-10.22,5.87-13.35,6.83c-2.54,0.78-10.92,3.1-21.17,1.25c-5.06-0.91-9.62-1.73-11.79-5.08
	C1008.21,112.2,1010.7,107.38,1011.42,105.99z"/>
<path class="st40" d="M925.22,102.83c-2.71-5.47-8.18-7.94-10.71-9.04c-10.94-4.77-22.04-1.35-24.56-0.56
	c-7.97,2.46-13.11,6.9-15.75,9.6c2.36,2.39,4.73,4.77,7.09,7.16c4.97,3.95,9.84,5.88,12.86,6.84c2.44,0.78,10.5,3.1,20.36,1.25
	c4.87-0.91,9.25-1.73,11.34-5.08C928.31,109.05,925.92,104.23,925.22,102.83z"/>
<path class="st41" d="M882.88,243.33c1.17-9.03,4.39-26.72,14.54-46.4c9.49-18.42,20.6-29.96,26.83-35.71
	c0.91-4.66-0.21-8.87-2.84-10.7c-2.44-1.7-5.27-0.7-6.02-0.4c-40.8,78.52-43.63,91.72-42.02,93.56c2.08,2.38,4.63,2.19,4.63,2.19
	C880.06,245.72,881.85,244.3,882.88,243.33z"/>
<path class="st41" d="M1048.13,243.33c-1.17-9.03-4.39-26.72-14.54-46.4c-9.49-18.42-20.6-29.96-26.83-35.71
	c-0.91-4.66,0.21-8.87,2.84-10.7c2.44-1.7,5.27-0.7,6.02-0.4c40.8,78.52,43.63,91.72,42.02,93.56c-2.08,2.38-4.63,2.19-4.63,2.19
	C1050.94,245.72,1049.16,244.3,1048.13,243.33z"/>
<path class="st42" d="M1015.24,217.37c-7.32,4.64-23.88,13.72-46.79,14.57c-26.97,1-46.54-10.02-53.75-14.57
	c-2.23-1.28-3.52-3.7-3.28-6.16c0.31-3.2,3.03-4.78,3.28-4.92c13.23,2.95,30.31,5.54,50.27,5.54c13.56,0,30.79-1.19,50.27-5.54
	c0.15,0.08,3.17,1.83,3.28,5.33C1018.6,213.99,1017.33,216.21,1015.24,217.37z"/>
<path class="st41" d="M1015.83,57.1c-10.57-0.51-21.52-0.87-32.83-1.05c-23.75-0.39-46.12,0.06-66.89,1.05
	c-5.13-0.69-8.89-2.03-9.03-3.53c-0.19-2.05,6.48-3.75,9.03-4.41c12.58-3.21,24.45-1.81,25.85-1.65
	c13.71,1.59,37.01,2.19,73.87,1.65c6.39,0.08,10.44,2.67,10.26,4.41C1025.91,55.24,1021.7,57.28,1015.83,57.1z"/>
<path class="st41" d="M995.33,67.05c-6.54-1.73-21.49-5.01-39.4-2.92c-5.84,0.68-10.76,1.79-14.69,2.92
	c-3.09,0.12-5.85-0.44-6.5-1.39c-0.83-1.2,1.4-3.45,6.5-4.35c8.86,0.68,15.81,0.4,20.44,0.03c8.91-0.71,14.27-2.14,23.19-1.55
	c4.59,0.3,8.22,1.01,10.46,1.52c3.29-0.12,6.03,0.79,6.57,1.89C1002.56,64.56,1000.06,66.74,995.33,67.05z"/>
<path class="st41" d="M984.65,75.14c-9.13,1-14.26,1.48-17.21,1.7c-0.88,0.06-3.47,0.25-6.89,0.75c-1.36,0.2-2.47,0.39-3.21,0.53
	c-3.73,0.28-7.18-0.19-7.98-1.49c-0.98-1.59,1.83-4.8,7.98-6.98c4.9,1.38,13.91,3.3,24.66,1.88c3.38-0.44,6.32-1.14,8.81-1.88
	c2.78,1.41,4.32,3.38,3.69,4.6C993.74,75.71,989.49,76.71,984.65,75.14z"/>
<path class="st43" d="M903.82,90.11c-3.1-0.35-9.29-0.47-15.56,3.63c-2.04,1.33-3.69,2.85-4.99,4.27
	c2.12,10.14,9.44,17.16,17.3,17.16c9.49,0,17.3-7.75,17.3-17.16c0-0.28-0.01-0.55-0.02-0.83c-0.6-0.75-1.29-1.49-2.06-2.2
	C911.49,91.04,906.69,90.24,903.82,90.11z"/>
<path class="st43" d="M1032.52,93.37c3.1-0.35,9.29-0.47,15.56,3.68c2.04,1.35,3.69,2.89,4.99,4.33c-2.12,10.28-9.44,17.4-17.3,17.4
	c-9.49,0-17.3-7.86-17.3-17.4c0-0.28,0.01-0.56,0.02-0.84c0.6-0.76,1.29-1.51,2.06-2.23C1024.85,94.31,1029.65,93.5,1032.52,93.37z"
	/>
<ellipse class="st44" cx="900.57" cy="100.53" rx="6.54" ry="4.57"/>
<ellipse class="st44" cx="1035.77" cy="100.53" rx="6.54" ry="4.57"/>
<path class="st39" d="M964.83,164.35c2.9,6.16-2.58,16.89-10.3,20.31c-8.26,3.66-13.45-3.53-24.91-0.92
	c-11.58,2.64-16.2,12.24-17.78,11.08c-2.46-1.81,5.15-27.84,25.53-34.67C946.77,157.01,961.42,157.09,964.83,164.35z"/>
<path class="st39" d="M965.75,164.35c-2.9,6.16,2.58,16.89,10.3,20.31c8.26,3.66,13.45-3.53,24.91-0.92
	c11.58,2.64,16.2,12.24,17.78,11.08c2.46-1.81-5.15-27.84-25.53-34.67C983.82,157.01,969.17,157.09,965.75,164.35z"/>
<path class="st45" d="M869.26,117.69l-43.52-40.27c-0.21-2.25-0.42-4.5-0.62-6.76c11.55,6.55,25.62,16.59,38.26,31.86
	c3.35,4.05,6.28,8.07,8.83,11.97C871.23,115.56,870.24,116.63,869.26,117.69z"/>
<path class="st45" d="M1059.35,117.15c4-4.7,6.35-8.98,7.75-12c4.34-9.37,3.37-15.02,8.32-22.53c2.79-4.23,6.03-7.03,8.25-8.7
	c0.14,2.66,0.28,5.31,0.42,7.97c-0.75,2.46-1.82,5.93-3.1,10.09c-3.8,12.31-4.22,13.52-4.88,14.89c-1.89,3.95-5.79,9.49-14.74,14.36
	C1060.7,119.88,1060.03,118.51,1059.35,117.15z"/>
<linearGradient id="SVGID_1_" gradientUnits="userSpaceOnUse" x1="866.5378" y1="123.9641" x2="931.0609" y2="123.9641">
	<stop  offset="0" style="stop-color:#FFFFFF"/>
	<stop  offset="0.9925" style="stop-color:#000000;stop-opacity:0.2"/>
</linearGradient>
<path class="st46" d="M926.45,137.56c-17.71,0-35.41,0-53.12,0c-1.19-0.95-5.53-4.64-6.57-11.01c-1.5-9.17,5.18-15.63,5.76-16.18
	c18.14,0.17,36.28,0.33,54.42,0.5c1.11,1.61,4.7,7.2,4.05,14.92C930.48,131.73,927.74,135.85,926.45,137.56z"/>
<linearGradient id="SVGID_2_" gradientUnits="userSpaceOnUse" x1="996.9638" y1="127.328" x2="1061.4869" y2="127.328">
	<stop  offset="0" style="stop-color:#FFFFFF"/>
	<stop  offset="0.9925" style="stop-color:#000000;stop-opacity:0.2"/>
</linearGradient>
<path class="st47" d="M1056.88,140.92c-17.71,0-35.41,0-53.12,0c-1.19-0.95-5.53-4.64-6.57-11.01c-1.5-9.17,5.18-15.63,5.76-16.18
	c18.14,0.17,36.28,0.33,54.42,0.5c1.11,1.61,4.7,7.2,4.05,14.92C1060.91,135.09,1058.16,139.21,1056.88,140.92z"/>
<path class="st45" d="M930.98,125.79c4.85-3.02,16.42-9.32,32.48-9.59c16.7-0.28,28.86,6.13,33.74,9.06c0,1.55-0.01,3.1-0.01,4.65
	c-6.87-2.77-18.65-6.51-33.66-6.44c-14.88,0.07-26.52,3.86-33.35,6.66C930.44,128.69,930.71,127.24,930.98,125.79z"/>
<path class="st48" d="M960.86,165.24"/>
<path class="st48" d="M960.48,157.67"/>
<polyline class="st49" points="277.22,249.42 276.44,249.42 275.28,249.23 274.2,248.94 273.51,248.58 272.77,248.12 272.16,247.57 
	271.81,247.02 271.43,246.48 271.43,244.42 271.43,238.33 271.43,207.66 271.43,167.97 271.43,135.23 271.43,96.32 271.43,47.4 
	271.43,46.65 271.43,45.92 271.43,45.56 271.69,45.03 272.11,44.53 272.57,43.92 273.05,43.55 273.68,43.17 274.16,43.01 
	274.71,42.8 275.45,42.62 275.98,42.49 276.52,42.49 276.89,42.42 277.22,42.42 277.5,42.42 277.65,42.42 277.2,42.6 276.61,43.06 
	276.32,43.6 276.11,44.35 276.11,44.96 276.11,46.28 276.11,60.01 276.11,77.35 276.11,104.92 276.11,118.02 276.11,152.87 
	276.11,187.82 276.11,217.86 276.11,248.19 276.52,248.81 277.22,249.42 "/>
<polyline class="st50" points="279.74,249.69 279.07,249.96 278.21,249.83 277.22,249.42 276.52,248.81 276.11,248.19 276.11,246.5 
	276.11,194.93 276.11,142.31 276.11,90.67 276.11,47.65 276.11,45.93 276.11,44.96 276.11,44.35 276.32,43.6 276.61,43.06 
	277.2,42.6 277.92,42.31 278.6,42.12 279.24,42.12 280.09,42.22 279.72,42.61 279.35,43.12 279.02,43.53 278.94,43.88 278.83,44.31 
	278.83,44.94 278.83,45.45 278.83,46.44 278.83,58.98 278.83,69.6 278.83,98.87 278.83,142.06 278.83,199.35 278.83,203.01 
	278.83,203.82 278.94,204.21 279.08,204.41 279.26,204.7 279.49,204.94 279.61,205.35 279.62,207.16 279.62,237.59 279.62,238.76 
	279.55,239.19 279.24,239.47 279.02,239.8 278.83,240.47 278.83,240.97 278.83,241.95 278.83,246.82 278.83,247.96 278.93,248.38 
	279.12,248.74 279.29,249.05 279.48,249.38 279.74,249.69 "/>
<polyline class="st51" points="287.57,251.49 286.85,251.63 286.33,251.56 285.73,251.49 285.15,251.31 284.57,251.07 
	284.11,250.83 283.62,250.36 283.32,250 283.16,249.5 283.06,248.86 283.06,243.58 283.06,225.58 283.06,210.63 283.06,168.57 
	283.06,105.18 283.06,53.27 283.06,43.94 283.06,43.26 283.21,42.8 283.33,42.29 283.6,41.82 283.96,41.29 284.24,41.03 
	284.53,40.86 284.85,40.78 285.21,40.61 285.52,40.57 285.82,40.57 286.25,40.52 286.67,40.52 286.85,40.52 287.06,40.52 
	287.44,40.57 287,40.91 286.67,41.26 286.41,41.62 286.18,42.11 286.08,42.54 286.02,43.12 286.01,43.75 286.01,44.35 286.01,55.43 
	286.01,88.72 286.01,128.81 286.01,164.61 286.01,208.79 286.01,246.2 286.01,249.38 286.01,249.85 286.1,250.17 286.4,250.55 
	286.63,250.77 287.57,251.49 "/>
<path class="st25" d="M286.25,41.9"/>
<path class="st25" d="M286.48,41.5"/>
<path class="st25" d="M285.74,39.94"/>
<polygon class="st52" points="284.3,250.91 283.87,250.91 283.16,250.78 282.35,250.55 281.72,250.4 281.03,250.16 280.57,250 
	280.07,249.86 279.74,249.69 279.48,249.38 279.29,249.05 279.12,248.74 278.93,248.38 278.83,247.96 278.83,240.97 278.83,240.47 
	279.02,239.8 279.24,239.47 279.55,239.19 279.62,238.76 279.62,237.59 279.61,235.55 279.62,234.75 279.6,231.16 279.62,227.08 
	279.62,221.48 279.62,216.55 279.62,210.08 279.61,205.35 279.49,204.94 279.26,204.7 279.08,204.41 278.94,204.21 278.83,203.82 
	278.83,203.01 278.83,200.4 278.83,197.32 278.83,176.35 278.83,134.92 278.83,98.87 278.83,75.39 278.83,51.45 278.83,45.45 
	278.83,44.31 278.94,43.88 279.02,43.53 279.35,43.12 279.72,42.61 280.09,42.22 280.54,41.86 281.09,41.56 281.61,41.45 
	282.33,41.23 283.06,41.11 283.64,41.06 283.95,41.06 284.15,41.11 283.87,41.43 283.71,41.66 283.49,42 283.39,42.18 283.29,42.46 
	283.24,42.69 283.17,42.93 283.1,43.12 283.06,43.44 283.06,43.67 283.06,44.18 283.06,57.25 283.06,79.31 283.06,109.42 
	283.06,153.69 283.06,204.79 283.06,232.43 283.06,248.08 283.09,249.08 283.21,249.66 283.44,250.14 283.74,250.47 "/>
<polyline class="st53" points="291.83,252.28 291.42,252.5 290.36,252.5 289.29,252.28 288.42,251.9 287.57,251.49 286.77,250.9 
	286.23,250.38 286.01,250.01 286.01,248.51 286.01,247.11 286.01,205.13 286.01,135.92 286.01,43.25 286.1,42.33 286.25,41.9 
	286.48,41.5 286.86,41.01 287.44,40.57 288.09,40.27 288.92,40.02 289.68,39.76 290.53,39.55 291.27,39.36 291.83,39.26 
	292.18,39.3 290.84,40.85 290.7,53.66 290.7,107.39 290.7,142.54 290.7,224.6 290.88,251.35 291.83,252.28 "/>
<polyline class="st54" points="288.65,51.35 288.65,50.72 288.65,50.24 288.65,49.87 288.65,49.64 288.6,49.46 288.51,49.33 
	288.41,49.26 288.3,49.26 288.26,49.37 288.26,49.53 288.26,49.76 288.26,50.04 288.26,50.31 288.26,50.62 288.26,50.93 
	288.26,51.17 288.26,51.31 288.21,51.43 288.1,51.5 287.98,51.43 287.91,51.28 287.91,51.12 287.91,50.73 287.91,50.27 
	287.91,49.92 287.91,49.62 287.91,49.26 "/>
<polygon class="st54" points="288.74,55.31 288.74,54.74 288.74,54.29 288.74,53.96 288.74,53.83 288.69,53.61 288.65,53.49 
	288.54,53.38 288.42,53.27 288.28,53.27 288.12,53.27 287.91,53.27 287.83,53.45 287.75,53.65 287.72,53.9 287.72,54.07 
	287.72,54.5 287.72,55.09 287.72,55.26 287.72,55.52 287.8,55.89 287.91,56.1 288.19,56.14 288.45,56.03 288.65,55.91 288.74,55.72 
	"/>
<polyline class="st54" points="287.86,57.72 288.23,57.72 288.5,57.72 288.74,57.72 288.81,57.94 288.81,58.18 288.62,58.46 
	287.86,59.62 287.79,59.81 287.79,60.04 287.86,60.24 288.12,60.24 288.35,60.24 288.57,60.24 288.81,60.24 "/>
<polyline class="st54" points="288.81,62.38 288.59,62.58 288.45,62.76 288.3,62.92 288.17,63.12 288.17,63.32 288.17,63.5 
	288.3,63.73 288.49,63.9 288.68,64.04 288.81,64.11 "/>
<polyline class="st54" points="287.58,63.33 287.79,63.33 287.99,63.33 288.17,63.32 "/>
<polyline class="st48" points="289.09,225.49 289.09,226.59 289.09,228.18 289.09,230.27 289.02,230.58 288.83,230.73 
	288.61,230.73 288.44,230.73 288.36,230.57 288.36,230.04 288.36,229.48 288.36,226.09 288.32,225.83 288.21,225.65 288.09,225.49 
	287.94,225.4 287.78,225.32 287.59,225.26 287.41,225.26 "/>
<polyline class="st48" points="289.04,238.18 289.04,237.03 289.04,236.24 289.04,235.39 288.98,235.1 288.83,234.94 288.65,234.87 
	288.41,234.87 288.1,234.87 287.78,234.87 287.6,234.77 287.51,234.56 287.51,234.18 287.51,233.62 287.51,233.28 287.51,232.43 "/>
<polyline class="st48" points="286.85,243.72 288.83,243.72 288.97,243.72 288.97,243.23 287.91,239.4 287.84,239.15 287.76,238.93 
	287.65,238.8 287.45,238.8 287.43,239.06 287.44,239.26 287.43,239.6 287.51,244.85 "/>
<circle class="st55" cx="385.08" cy="113.95" r="13.38"/>
<circle class="st56" cx="388.67" cy="116.02" r="15.44"/>
<circle class="st56" cx="393.41" cy="120.58" r="16.9"/>
<circle class="st56" cx="382.03" cy="119.51" r="16.9"/>
<circle class="st57" cx="391.26" cy="118.61" r="18.03"/>
<path class="st56" d="M290.7,250.08V177.1c0-6.61,0-27.61,0-37.39c0-1.32,0-3.04,0-4.69c0-0.49,0-0.98,0-1.45c0-1.51,0-2.8,0-3.44
	c0-0.53,0-1.05,0-1.58c0-17.9,0-35.79,0-53.69V42.81V42.2v-0.53v-0.43l0.14-0.39l0.19-0.31l0.17-0.29l0.19-0.28l0.31-0.26l0.25-0.23
	l0.23-0.19l0.26-0.2l0.26-0.2h0.71h11.66h6.06h9.4h9.31h7.55h8.92h6.77h6.98h5.32h7.84h7.37h8.98h6.24h6.21h7.16h7.54h9.54h29.1
	h31.51h26.78h5.04h1.5h1.08h0.57l0.48,0.07l0.38,0.16l0.44,0.31l0.22,0.23l0.32,0.26l0.1,0.13l0.39,0.38l0.23,0.31l0.34,0.38
	l0.19,0.28v0.61v8.1v17.52v15.75v21.71v38.26v28.22v24.63v23.66v22.02v8.2v0.37l-0.09,0.38l-0.2,0.34l-0.2,0.26l-0.22,0.24
	l-0.22,0.36l-0.28,0.26l-0.24,0.2l-0.38,0.18l-0.39,0.22l-0.59,0.18h-23.56h-24.43h-28.29h-23.59H397h-30.22h-65.72h-7.6l-0.67-0.25
	l-0.28-0.07l-0.4-0.24l-0.5-0.35l-0.41-0.4l-0.31-0.38l-0.18-0.24v-0.52V250.08z"/>
<circle class="st58" cx="385.37" cy="106.68" r="1.22"/>
<polygon class="st59" points="291.13,128.21 307.01,119.24 319.61,110.28 328.07,102.61 335.15,96.46 343.6,88.17 353.27,78.16 
	358.96,68.5 366.38,57.72 369.84,50.38 372.77,42.12 373.22,38.9 292.7,38.9 290.84,40.85 "/>
<path class="st59" d="M456.8,38.9c0,0-1.86-2.19,2.37,14.36s1.69,6.98,1.69,6.98s0.93,1.79,4.27,8.22s-1.32-3.04,4.52,8.7
	s7.1,13.18,7.1,13.18l4.73,5.41l4.39,4.73l5.41,4.97l4.39,4.82l4.39,6.09l3.72,4.06l4.73,4.06l4.39,1.69l4.73,2.38l7.31,2.35V42.02
	l-2.61-3.05L456.8,38.9z"/>
<polygon class="st60" points="404.11,135.02 404.11,141.84 404.11,148.79 404.11,154.53 404.11,155.29 404.26,155.47 404.52,155.56 
	404.82,155.67 405.19,155.81 405.71,156.05 406.1,156.17 406.59,156.25 407.03,156.41 407.44,156.58 407.94,156.69 408.41,156.79 
	408.85,156.84 409.14,156.84 409.29,156.67 409.29,156.38 409.29,155.09 409.29,153.13 409.29,151.86 409.29,150.57 409.29,149.09 
	409.29,147.01 409.29,144.97 409.29,143.15 409.29,141.03 409.29,139.71 409.39,139.38 409.55,139.15 409.77,138.98 409.95,138.9 
	410.11,138.9 410.32,138.88 410.46,138.9 410.61,138.94 410.78,139.07 410.87,139.21 410.98,139.44 411.09,139.71 411.09,139.95 
	411.09,141.28 411.09,143.13 411.09,144.76 411.09,146.43 411.09,146.99 411.28,147.21 411.56,147.37 411.82,147.46 412.09,147.54 
	412.38,147.64 412.64,147.7 413.1,147.84 413.45,147.91 413.73,147.91 413.9,147.91 414.22,147.91 414.45,147.92 414.81,147.9 
	415.07,147.8 415.32,147.59 415.62,147.35 415.85,147.11 416.06,146.93 416.28,146.74 416.47,146.41 416.61,146.09 416.8,145.76 
	416.9,145.39 416.99,144.97 417.09,144.66 417.09,144.27 417.09,144.01 417.09,143.66 417.09,143.17 417.09,142.77 417.09,142.41 
	417.09,142.04 417.01,141.67 416.9,141.43 416.76,141.16 416.62,140.84 416.42,140.54 416.23,140.2 416.06,139.97 415.89,139.71 
	415.59,139.3 415.27,138.94 414.92,138.64 414.32,138.23 413.78,137.99 413.27,137.62 412.72,137.45 411.47,136.95 410.7,136.72 
	409.78,136.45 408.6,136.08 407.62,135.71 406.78,135.41 406.09,135.23 405.67,135.21 405.31,135.18 404.87,135.16 404.67,135.15 
	"/>
<path class="st48" d="M404.11,153.84"/>
<path class="st48" d="M403.77,146.99"/>
<polygon class="st60" points="404.11,153.84 403.77,153.95 403.45,154.18 403.3,154.26 402.89,154.31 402.5,154.31 402.13,154.31 
	401.58,154.31 401.01,154.31 400.13,154.31 399.21,154.31 398.51,154.25 397.86,154.22 397.5,154.13 397.03,154.07 396.55,154.07 
	396.1,153.94 395.66,153.84 395.24,153.7 394.86,153.59 394.46,153.43 394.12,153.27 393.77,153.08 393.44,152.9 393.16,152.65 
	392.98,152.49 392.88,152.32 392.88,152.09 392.79,151.86 392.79,151.57 392.95,151.36 393.17,151.17 393.51,150.9 393.85,150.71 
	394.41,150.42 394.97,150.18 395.67,149.94 396.55,149.63 397.17,149.44 397.95,149.17 398.67,148.91 399.51,148.64 400.49,148.33 
	401.41,148.03 402.1,147.86 402.88,147.6 403.39,147.46 403.77,147.36 404.11,147.32 404.11,147.78 404.11,148.47 404.11,149.18 
	404.11,149.7 404.11,149.91 403.92,150.02 403.77,150.09 403.51,150.17 403.26,150.29 402.92,150.45 402.49,150.59 401.94,150.73 
	401.49,150.9 400.79,151.1 400.36,151.21 399.92,151.31 399.58,151.47 399.21,151.57 398.81,151.7 398.51,151.79 398.23,151.91 
	398.04,152.04 397.92,152.21 397.93,152.37 398.01,152.55 398.23,152.7 398.45,152.85 398.79,152.87 399.2,152.87 399.57,152.8 
	399.97,152.71 400.68,152.48 401.19,152.4 401.8,152.18 402.38,152.01 402.92,151.77 403.41,151.57 403.66,151.53 404.11,151.42 
	404.11,151.77 404.11,152.3 404.11,153.03 "/>
<polygon class="st60" points="410.4,149.44 411.36,149.05 412.31,148.89 413.18,148.67 413.88,148.52 414.55,148.52 415.3,148.4 
	415.81,148.4 416.5,148.4 417.09,148.4 417.72,148.5 418.18,148.53 418.82,148.58 419.51,148.64 420.3,148.79 420.79,148.89 
	421.31,149.15 421.75,149.38 422.18,149.64 422.71,149.8 423.13,150.06 423.41,150.39 423.62,150.62 423.72,151 423.72,151.26 
	423.59,151.57 423.38,151.91 423.13,152.14 422.82,152.43 422.5,152.64 422.05,152.87 421.7,153.07 421.15,153.32 420.66,153.49 
	420.11,153.67 419.61,153.8 419.15,153.92 418.6,154.02 417.98,154.16 417.33,154.42 416.6,154.7 415.85,154.93 415.1,155.17 
	414.41,155.41 413.5,155.68 412.59,155.99 411.79,156.25 410.92,156.45 410.36,156.45 409.84,156.53 409.29,156.53 409.29,155.35 
	409.29,154.58 409.64,154.39 410.16,154.22 410.79,154.01 411.65,153.77 412.64,153.46 413.27,153.25 414.09,152.9 415.08,152.47 
	415.98,152 416.79,151.81 417.33,151.63 417.94,151.46 418.28,151.32 418.66,151.15 418.9,151 418.91,150.81 418.84,150.62 
	418.59,150.49 418.35,150.43 417.82,150.35 417.4,150.34 417.09,150.38 416.5,150.52 416.04,150.6 415.39,150.81 414.82,150.87 
	414.21,151.08 413.67,151.33 413.18,151.49 412.59,151.65 412.15,151.85 411.47,152.14 410.92,152.38 410.48,152.47 410.15,152.55 
	409.29,152.73 409.29,152 409.29,151.14 409.29,150.36 409.29,150 409.29,149.71 409.59,149.61 409.99,149.52 "/>
<ellipse class="st61" cx="371.98" cy="105.46" rx="20.81" ry="31.82"/>
<ellipse class="st61" cx="438.22" cy="103.96" rx="20.81" ry="31.82"/>
<polygon class="st62" points="328.07,102.61 348.48,102.61 348.48,109.16 320.84,109.16 "/>
<rect x="394.55" y="102.61" class="st62" width="21" height="6.55"/>
<polygon class="st62" points="460.82,102.61 488.17,102.61 494.65,109.16 460.82,109.16 "/>
<polygon class="st63" points="361.71,67.62 364.52,65.14 368.31,62.15 370.63,61.29 374.83,60.52 380.04,60.52 383.15,60.52 
	387.43,60.52 389.6,60.52 390.27,60.52 391.43,61.29 391.43,63.02 391.43,64.98 391.43,66.79 390.27,67.62 390.03,68.45 
	384.3,69.27 382.18,69.27 379.54,69.27 376.57,69.27 371.95,69.27 368.48,69.27 365.18,69.27 364.02,69.27 362.87,69.27 "/>
<polygon class="st63" points="424.21,66.06 427.02,63.58 430.82,60.59 433.13,59.72 437.33,58.96 442.54,58.96 445.65,58.96 
	449.93,58.96 452.11,58.96 452.78,58.96 453.93,59.72 453.93,61.46 453.93,63.41 453.93,65.23 452.78,66.06 452.53,66.88 
	446.81,67.71 444.69,67.71 442.04,67.71 439.07,67.71 434.45,67.71 430.98,67.71 427.68,67.71 426.53,67.71 425.37,67.71 "/>
<polygon class="st12" points="387.69,73.15 389.85,71.75 391.75,71.12 393.27,70.49 394.91,70.49 396.05,70.49 397.45,70.49 
	399.35,70.99 400.74,71.25 403.09,71.25 404.67,71.12 407.2,70.99 409.36,69.73 411.26,69.09 413.79,68.46 415.56,68.46 
	416.96,68.46 418.73,69.22 420.5,70.11 421.64,70.8 422.28,71.63 418.73,70.8 416.83,70.23 415.31,70.11 412.52,70.8 411,71.75 
	409.1,72.3 406.7,73.15 403.91,73.15 400.74,73.15 398.84,72.3 396.43,72.3 395.17,72.3 393.52,72.3 391.87,73.15 390.35,73.15 "/>
<polygon class="st12" points="387.69,79.36 389.85,77.97 391.75,77.34 393.27,76.7 394.91,76.7 396.05,76.7 397.45,76.7 
	399.35,77.21 400.74,77.46 403.09,77.46 404.67,77.34 407.2,77.21 409.36,75.94 411.26,75.31 413.79,74.68 415.56,74.68 
	416.96,74.68 418.73,75.44 420.5,76.32 421.64,77.02 422.28,77.84 418.73,77.02 416.83,76.45 415.31,76.32 412.52,77.02 411,77.97 
	409.1,78.51 406.7,79.36 403.91,79.36 400.74,79.36 398.84,78.51 396.43,78.51 395.17,78.51 393.52,78.51 391.87,79.36 
	390.35,79.36 "/>
<polygon class="st64" points="371.83,154 368.62,155.6 365.16,158.1 362.31,161.25 358.87,164.72 356.02,168.84 353.17,172.96 
	350.09,177.98 346.89,182.49 344.87,185.37 342.5,190.58 340.14,194.82 338.73,200.28 337.55,204.83 340.99,198.44 344.24,193.72 
	347.98,187.14 350.35,182.9 352.42,178.83 356.16,173.73 359,169.13 362.21,165.59 364.82,161.41 "/>
<polygon class="st64" points="478.09,200.86 477.36,197.63 475.83,193.88 473.55,190.38 471.11,186.27 467.92,182.41 464.74,178.56 
	460.75,174.18 457.28,169.89 455.07,167.17 450.74,163.31 447.32,159.81 442.53,156.64 438.55,154 443.73,159.17 447.38,163.58 
	452.66,169.07 456.08,172.58 459.41,175.78 463.3,180.73 466.95,184.76 469.5,188.69 472.8,192.37 "/>
<polygon class="st65" points="370.65,158.02 369.38,158.7 368.87,159.54 368.87,160.39 368.87,161.74 368.19,163.94 367.77,166.06 
	367.26,168.93 367.26,172.91 366.42,177.05 366.42,179.68 366.42,186.53 366.84,192.96 367.52,196.42 368.53,199.89 369.55,203.44 
	372.59,209.2 374.28,211.48 375.3,213.26 376.65,213.93 376.06,209.53 376.06,207.76 376.65,206.57 378.26,211.23 380.97,216.98 
	383.59,220.45 385.87,223.07 388.24,225.44 390.02,226.71 390.78,226.71 390.78,224.76 390.19,222.05 390.1,220.7 392.22,224.76 
	393.99,227.13 395.68,228.82 397.71,230.68 400.17,232.2 402.45,233.64 404.14,234.49 405.76,235.08 406.26,235.08 407.44,234.49 
	410.57,232.71 413.45,231.1 415.39,229.58 417.42,227.47 419.28,225.27 420.81,222.65 421.65,220.78 421.65,222.73 421.14,225.1 
	420.72,226.54 421.14,226.96 422.24,226.54 423.17,225.35 426.05,222.9 428.33,220.36 429.86,218.25 431.63,215.29 432.9,212.41 
	434.09,209.11 434.85,206.66 434.85,208.27 435.44,210.21 435.44,212.16 434.76,214.19 435.44,214.02 436.54,213.17 438.15,210.89 
	439.84,207.84 441.7,204.97 442.54,202.18 443.83,197.79 444.71,192.33 444.71,188.86 444.99,182.65 444.58,175.15 444.1,171.61 
	442.8,164.52 442.05,161.38 441.51,159.54 440.08,158.02 439.12,158.02 "/>
<ellipse class="st66" cx="371.7" cy="103.96" rx="16.72" ry="24.6"/>
<polygon class="st67" points="355.41,98.44 358.05,89.77 361.8,84.14 364.59,81.69 368.45,79.82 371.7,79.36 374.33,79.66 
	377.17,80.7 378.39,81.41 380.18,82.75 382.03,84.62 383.19,86.1 385.14,89.32 386.3,91.97 387.05,94.18 387.54,96.08 387.54,97.13 
	387.54,97.84 388,98.44 "/>
<ellipse class="st66" cx="438.22" cy="103.96" rx="16.72" ry="24.6"/>
<polygon class="st67" points="421.93,98.44 424.57,89.77 428.32,84.14 431.11,81.69 434.97,79.82 438.22,79.36 440.85,79.66 
	443.69,80.7 444.91,81.41 446.7,82.75 448.55,84.62 449.72,86.1 451.66,89.32 452.83,91.97 453.57,94.18 454.07,96.08 454.07,97.13 
	454.07,97.84 454.52,98.44 "/>
<circle class="st68" cx="381.54" cy="113.95" r="5.52"/>
<circle class="st57" cx="384.26" cy="116.11" r="1.56"/>
<circle class="st68" cx="448.07" cy="113.95" r="5.52"/>
<circle class="st57" cx="450.78" cy="116.11" r="1.56"/>
<ellipse class="st69" cx="350.99" cy="134.89" rx="3.7" ry="6.68"/>
<ellipse class="st69" cx="345.67" cy="153.84" rx="3.7" ry="6.68"/>
<ellipse class="st69" cx="458.32" cy="134.89" rx="3.7" ry="6.68"/>
<ellipse class="st69" cx="464.52" cy="150.81" rx="3.7" ry="6.68"/>
<ellipse class="st69" cx="340.21" cy="172.78" rx="3.7" ry="6.68"/>
<ellipse class="st69" cx="334.89" cy="191.73" rx="3.7" ry="6.68"/>
<ellipse class="st69" cx="471.92" cy="167.19" rx="3.7" ry="6.68"/>
<ellipse class="st69" cx="478.12" cy="183.11" rx="3.7" ry="6.68"/>
<text transform="matrix(1 0 0 1 541.0015 90.2632)" class="st70 st71">Everything must come to an end...</text>
</svg>
