<?xml version="1.0" encoding="utf-8"?>
<!-- Generator: Adobe Illustrator 25.1.0, SVG Export Plug-In . SVG Version: 6.00 Build 0)  -->
<svg version="1.1" id="Layer_1" xmlns="http://www.w3.org/2000/svg" xmlns:xlink="http://www.w3.org/1999/xlink" x="0px" y="0px"
	 viewBox="0 0 1113.13 452.16" style="enable-background:new 0 0 1113.13 452.16;" xml:space="preserve">
<style type="text/css">
	.st0{fill:#FFFFFF;stroke:#000000;stroke-width:5;stroke-miterlimit:10;}
	.st1{fill:#A47449;stroke:#654321;stroke-width:5;stroke-miterlimit:10;}
	.st2{fill:#654321;stroke:#654321;stroke-width:5;stroke-miterlimit:10;}
	.st3{fill:#A2FFA3;stroke:#654321;stroke-width:5;stroke-miterlimit:10;}
	.st4{fill:#4575FF;stroke:#654321;stroke-width:5;stroke-miterlimit:10;}
	.st5{fill:#001700;stroke:#654321;stroke-width:5;stroke-miterlimit:10;}
	.st6{fill:#007331;stroke:#654321;stroke-width:5;stroke-miterlimit:10;}
	.st7{fill:#FFFFFF;stroke:#FFFFFF;stroke-width:3;stroke-miterlimit:10;}
	.st8{fill:#D48BFF;stroke:#D48BFF;stroke-width:3;stroke-miterlimit:10;}
	.st9{font-family:'ArialMT';}
	.st10{font-size:18.1px;}
	.st11{fill:#696969;stroke:#A9A9A9;stroke-width:3;stroke-miterlimit:10;}
	.st12{fill:#8BFFBC;stroke:#A9A9A9;stroke-miterlimit:10;}
	.st13{fill:#2EFFC1;stroke:#A9A9A9;stroke-miterlimit:10;}
	.st14{stroke:#000000;stroke-miterlimit:10;}
	.st15{fill:#AFAEB2;stroke:#000000;stroke-miterlimit:10;}
	.st16{fill:#8E8D91;stroke:#000000;stroke-miterlimit:10;}
	.st17{fill:#86D6DA;stroke:#000000;stroke-width:0.5;stroke-miterlimit:10;}
	.st18{fill:#868589;stroke:#000000;stroke-width:0.5;stroke-miterlimit:10;}
	.st19{fill:#98D4D9;stroke:#000000;stroke-width:0.5;stroke-miterlimit:10;}
	.st20{fill:#ACAEB1;stroke:#000000;stroke-miterlimit:10;}
	.st21{fill:#5CB7A4;stroke:#000000;stroke-width:0.25;stroke-miterlimit:10;}
	.st22{fill:#8A898D;stroke:#000000;stroke-width:0.25;stroke-miterlimit:10;}
	.st23{fill:#73B5A5;stroke:#000000;stroke-width:0.25;stroke-miterlimit:10;}
	.st24{fill:#87868A;stroke:#000000;stroke-width:0.25;stroke-miterlimit:10;}
	.st25{fill:#82B3A6;stroke:#000000;stroke-width:0.25;stroke-miterlimit:10;}
	.st26{fill:#8D8C90;stroke:#000000;stroke-width:0.25;stroke-miterlimit:10;}
	.st27{fill:none;stroke:#000000;stroke-miterlimit:10;}
	.st28{fill:none;stroke:#000000;stroke-width:0.5;stroke-miterlimit:10;}
	.st29{fill:#555358;stroke:#000000;stroke-width:0.5;stroke-miterlimit:10;}
	.st30{fill:#B7B7B9;stroke:#000000;stroke-width:0.5;stroke-miterlimit:10;}
	.st31{fill:#505150;stroke:#000000;stroke-width:0.5;stroke-miterlimit:10;}
	.st32{fill:#F3AB40;}
	.st33{fill:#E9AD55;}
	.st34{fill:#43967F;}
	.st35{fill:#245EA9;}
	.st36{fill:#ADAEB1;}
	.st37{fill:none;}
	.st38{fill:#599480;}
	.st39{fill:#2964BF;}
	.st40{fill:#C6332A;}
	.st41{fill:#FFF2EB;stroke:#000000;stroke-miterlimit:10;}
	.st42{fill:#FFF7F3;stroke:#000000;stroke-miterlimit:10;}
	.st43{fill:#6C707F;stroke:#000000;stroke-miterlimit:10;}
	.st44{fill:#FFC4A6;stroke:#000000;stroke-miterlimit:10;}
	.st45{fill:#FFDAC3;stroke:#000000;stroke-miterlimit:10;}
	.st46{fill:#E5EAFF;stroke:#000000;stroke-miterlimit:10;}
	.st47{fill:#CB997E;stroke:#000000;stroke-miterlimit:10;}
	.st48{fill:url(#SVGID_1_);stroke:#000000;stroke-miterlimit:10;}
	.st49{fill:url(#SVGID_2_);stroke:#000000;stroke-miterlimit:10;}
	.st50{fill:none;stroke:#000817;stroke-miterlimit:10;}
	.st51{fill:#26272A;stroke:#000000;stroke-miterlimit:10;}
	.st52{fill:#3E3F44;stroke:#000000;stroke-miterlimit:10;}
	.st53{fill:#52545A;stroke:#000000;stroke-miterlimit:10;}
	.st54{fill:#282A2E;stroke:#000000;stroke-miterlimit:10;}
	.st55{fill:#2B2C31;stroke:#000817;stroke-miterlimit:10;}
	.st56{fill:none;stroke:#000000;stroke-width:0.25;stroke-miterlimit:10;}
	.st57{fill:#00B98F;stroke:#000817;stroke-miterlimit:10;}
	.st58{fill:#56585D;stroke:#000817;stroke-miterlimit:10;}
	.st59{fill:#FFFFFF;stroke:#000000;stroke-miterlimit:10;}
	.st60{fill:#FFFFFF;stroke:#000817;stroke-miterlimit:10;}
	.st61{fill:#948F8F;stroke:#000817;stroke-miterlimit:10;}
	.st62{fill:#1F2023;stroke:#000817;stroke-miterlimit:10;}
	.st63{opacity:0.73;fill:#ADB2AE;stroke:#4D4545;stroke-width:7;stroke-miterlimit:10;enable-background:new    ;}
	.st64{fill:#4D4545;stroke:#4D4545;stroke-width:3;stroke-miterlimit:10;}
	.st65{fill:#B2B1AA;stroke:#000000;stroke-miterlimit:10;}
	.st66{stroke:#000000;stroke-width:0.75;stroke-miterlimit:10;}
	.st67{fill:#B2B1AA;stroke:#000000;stroke-width:0.75;stroke-miterlimit:10;}
	.st68{fill:#FFFFFF;stroke:#ECBCB4;stroke-miterlimit:10;}
	.st69{fill:#ECBCB4;stroke:#ECBCB4;stroke-miterlimit:10;}
	.st70{stroke:#A27100;stroke-miterlimit:10;}
	.st71{fill:#8BE1FF;stroke:#A27100;stroke-width:0.25;stroke-miterlimit:10;}
	.st72{fill:#439CD6;}
	.st73{fill:#8B4593;}
	.st74{fill:#CE4844;}
	.st75{fill:#E6873B;}
	.st76{fill:#EDB649;}
	.st77{fill:#79BA58;}
</style>
<rect x="-92.35" y="2.5" class="st0" width="1278.89" height="447.16"/>
<polygon class="st1" points="-91.6,2.5 -91.6,449.22 1187.3,449.22 1187.3,2.81 "/>
<rect x="-91.6" y="16.07" class="st2" width="1278.14" height="17.09"/>
<rect x="-91.04" y="268.26" class="st2" width="1278.14" height="17.09"/>
<rect x="99.18" y="318.45" class="st3" width="85.86" height="54.83"/>
<ellipse class="st4" cx="100.69" cy="408.94" rx="7.54" ry="19.61"/>
<ellipse class="st5" cx="145.93" cy="406.68" rx="10.56" ry="21.87"/>
<polygon class="st6" points="117.24,384.81 166.44,384.81 158,399.89 126.82,399.89 "/>
<path class="st7" d="M222.98,140.88h150.65c17.12,0,31,13.88,31,31v31.5c0,17.12-13.88,31-31,31H222.98c-17.12,0-31-13.88-31-31
	v-31.5C191.98,154.76,205.86,140.88,222.98,140.88z"/>
<path class="st8" d="M549.46,50.01h126.48c15.46,0,28,12.54,28,28v28.46c0,15.46-12.54,28-28,28H549.46c-15.46,0-28-12.54-28-28
	V78.01C521.46,62.55,534,50.01,549.46,50.01z"/>
<polyline class="st8" points="697.91,110.33 697.91,129.94 678.3,129.94 "/>
<text transform="matrix(1 0 0 1 541.6892 97.99)" class="st9 st10">N</text>
<text transform="matrix(1 0 0 1 553.5992 97.99)" class="st9 st10">o</text>
<text transform="matrix(1 0 0 1 563.0992 97.99)" class="st9 st10">, I do</text>
<text transform="matrix(1 0 0 1 598.9892 97.99)" class="st9 st10">n</text>
<text transform="matrix(1 0 0 1 608.4292 97.99)" class="st9 st10">’</text>
<text transform="matrix(1 0 0 1 611.9792 97.99)" class="st9 st10">t think s</text>
<text transform="matrix(1 0 0 1 671.6092 97.99)" class="st9 st10">o</text>
<text transform="matrix(1 0 0 1 681.1092 97.99)" class="st9 st10">.</text>
<polygon class="st11" points="94.46,449.22 70.53,371.24 94.46,297.35 185.05,297.35 207.78,373.28 185.05,449.22 "/>
<rect x="97.67" y="316.95" class="st12" width="85.86" height="54.83"/>
<ellipse transform="matrix(0.9521 -0.3057 0.3057 0.9521 -118.6406 49.9099)" class="st12" cx="100.04" cy="403.77" rx="7.34" ry="14.37"/>
<ellipse transform="matrix(0.4072 -0.9133 0.9133 0.4072 -259.9624 406.4148)" class="st12" cx="183.11" cy="403.48" rx="14.37" ry="7.34"/>
<polygon class="st13" points="133.87,407.43 156.49,407.43 164.93,392.35 115.73,392.35 125.31,407.43 "/>
<ellipse class="st12" cx="110.88" cy="435.31" rx="14.37" ry="7.34"/>
<ellipse class="st12" cx="142.55" cy="435.31" rx="14.37" ry="7.34"/>
<ellipse class="st12" cx="174.22" cy="435.31" rx="14.37" ry="7.34"/>
<path class="st11" d="M432.47,449.21c0,0-3-95.54,0-104.85s31.68-38,79.94-38s65.54,27.69,66.7,38s0,104.85,0,104.85"/>
<path class="st14" d="M449.07,347.1v21.58c0,0,13.57-0.46,16.59-0.46s9.08-1,9.06-10.33s-6.49-10.79-9.28-10.79H449.07z"/>
<path class="st14" d="M449.07,389.33v21.58c0,0,13.57-0.47,16.59-0.47s9.08-1,9.06-10.32s-6.49-10.79-9.28-10.79L449.07,389.33z"/>
<path class="st14" d="M492.81,347.1v21.58c0,0,13.57-0.46,16.59-0.46c3.02,0,9.07-1,9.06-10.33s-6.49-10.79-9.29-10.79H492.81z"/>
<path class="st14" d="M492.81,389.33v21.58c0,0,13.57-0.47,16.59-0.47c3.02,0,9.07-1,9.06-10.32s-6.49-10.79-9.29-10.79
	L492.81,389.33z"/>
<path class="st14" d="M492.81,422.54v21.58c0,0,13.57-0.47,16.59-0.47c3.02,0,9.07-1,9.06-10.32s-6.49-10.79-9.29-10.79H492.81z"/>
<path class="st14" d="M539.56,389.33v21.58c0,0,13.57-0.47,16.59-0.47s9.07-1,9.06-10.32s-6.49-10.79-9.28-10.79L539.56,389.33z"/>
<path class="st14" d="M541.07,422.54v21.58c0,0,13.57-0.47,16.59-0.47s9.07-1,9.06-10.32s-6.49-10.79-9.29-10.79H541.07z"/>
<path class="st7" d="M222.98,140.88h150.65c17.12,0,31,13.88,31,31v31.5c0,17.12-13.88,31-31,31H222.98c-17.12,0-31-13.88-31-31
	v-31.5C191.98,154.76,205.86,140.88,222.98,140.88z"/>
<polygon class="st15" points="792.72,258.08 758.85,258.08 758.58,257.99 758.32,257.87 758.08,257.7 757.79,257.49 757.43,257.21 
	757.13,256.99 756.92,256.77 756.66,256.61 756.53,256.46 756.48,256.29 756.48,256.1 756.48,255.86 756.48,254.33 756.48,252.44 
	756.48,250.74 756.48,248.83 756.48,247.93 756.48,247.42 756.47,244.66 756.66,244.44 756.98,244.41 757.55,244.34 757.94,244.29 
	758.63,244.18 759.15,244.08 759.91,243.93 760.63,243.73 761.26,243.56 761.92,243.38 762.74,243.08 763.04,242.98 763.32,242.88 
	763.55,242.78 763.74,242.71 763.92,242.64 764.18,242.53 764.49,242.39 764.81,242.25 765.16,242.09 765.55,241.9 765.98,241.68 
	766.3,241.5 766.63,241.31 767.06,241.03 767.41,240.79 767.84,240.48 768.1,240.31 768.38,240.12 768.71,239.92 768.92,239.77 
	769.18,239.56 769.44,239.39 769.71,239.19 770.05,238.9 770.35,238.63 770.54,238.45 770.77,238.19 770.99,237.98 771.21,237.75 
	771.41,237.57 771.64,237.36 771.91,237.06 772.12,236.83 772.43,236.47 772.72,236.11 772.99,235.7 773.26,235.35 773.52,234.91 
	773.78,234.51 774.18,233.95 774.51,233.37 774.74,232.84 775.03,232.24 775.36,231.53 775.66,230.75 775.95,229.87 776.24,228.91 
	776.53,227.66 776.66,227.01 776.81,226.19 776.85,225.28 776.9,223.88 776.86,222.19 776.82,221.04 776.68,220.16 776.41,219.16 
	776.12,218.15 775.77,217.06 775.34,215.91 774.83,214.79 774.26,213.86 773.67,212.95 772.78,211.68 772.15,210.93 771.5,210.19 
	770.9,209.55 770.12,208.8 769.27,208.05 768.35,207.32 767.6,206.76 766.72,206.23 765.45,205.54 764.21,204.97 763.49,204.65 
	762.31,204.19 761.59,203.88 760.66,203.55 759.72,203.32 758.58,203.09 757.46,202.88 756.61,202.81 755.65,202.75 754.51,202.72 
	753.36,202.72 752.73,202.72 751.73,202.78 750.77,202.88 749.81,203.07 749,203.23 748.36,203.4 747.54,203.58 746.7,203.87 
	746.02,204.08 745.33,204.33 744.75,204.6 744.04,204.91 743.27,205.34 742.42,205.85 741.71,206.19 740.86,206.7 740.18,207.19 
	739.46,207.77 738.94,208.17 738.36,208.67 737.71,209.24 737.12,209.87 736.48,210.57 735.96,211.19 735.31,211.99 734.76,212.89 
	734.31,213.75 733.8,214.72 733.39,215.56 732.96,216.34 732.61,217.31 732.38,217.93 732.14,218.68 731.99,219.58 731.84,220.39 
	731.71,221.24 731.68,222.1 731.68,222.87 731.68,223.77 731.68,224.57 731.72,225.26 731.83,226.07 731.96,226.93 732.07,227.65 
	732.3,228.46 732.58,229.63 733,230.65 733.52,231.85 734.26,233.19 734.99,234.47 735.81,235.64 736.73,236.74 737.53,237.62 
	738.4,238.44 739.53,239.44 740.59,240.27 741.6,240.96 742.65,241.56 743.88,242.19 744.84,242.66 746.26,243.27 747.81,243.8 
	749.21,244.17 750.32,244.41 751.09,244.53 751.41,244.57 751.63,244.59 751.96,244.62 752.26,244.68 752.38,244.71 752.5,244.82 
	752.45,248.51 752.47,251.75 752.48,254.78 752.49,255.99 752.42,256.2 752.26,256.33 752.08,256.5 751.79,256.75 751.51,257.02 
	751.3,257.21 751,257.49 750.7,257.74 750.38,257.94 749.95,258.08 749.45,258.08 748.74,258.08 746.12,258.08 739.61,258.08 
	732.08,258.08 725.61,258.08 719.29,258.08 717.54,258.08 716.99,257.87 716.22,257.55 715.5,257.23 714.97,256.95 714.21,256.3 
	713.49,255.5 713.08,254.81 712.6,254.09 712.24,253.2 712.24,252.28 712.24,245.35 712.24,227.08 712.24,201.14 712.24,170.63 
	712.24,139.3 712.24,103.03 712.24,69.82 712.24,50.69 712.24,49.28 712.41,48.48 712.78,47.69 713.27,47.17 713.84,46.49 
	714.49,45.87 715.23,45.41 716.09,45.21 717,45.21 723.91,45.21 743.47,45.21 762.68,45.21 775.37,45.21 786.18,45.21 790.64,45.21 
	792.33,45.21 793.41,45.52 794.16,45.9 794.95,46.6 795.33,47.35 795.94,47.54 796.69,47.54 797.58,47.54 798.51,47.59 
	821.83,47.59 846.92,47.68 868.87,47.9 889.41,47.9 905.92,47.9 920.81,47.95 932.2,48.08 944.02,48.28 944.95,48.27 945.85,47.85 
	946.67,47.33 947.35,46.69 947.91,46.2 948.28,45.87 948.96,45.6 950.08,45.45 951.47,45.42 959.26,45.21 976.73,45.21 
	1008.64,45.21 1028.51,45.21 1030.05,45.48 1031.38,45.85 1032.5,46.39 1033.66,47.18 1034.53,48.22 1035.16,49.63 1035.36,51.5 
	1035.36,53.29 1035.36,76.27 1035.36,103.88 1035.36,132.92 1035.36,165.3 1035.36,192.82 1035.36,219.38 1035.36,245.76 
	1035.36,252.52 1035.36,253.68 1035.2,254.61 1034.92,255.34 1034.47,255.88 1033.85,256.46 1033.01,257 1032.2,257.28 
	1031.08,257.61 1030.04,257.82 1028.2,258.08 1026.33,258.08 1022.39,258.08 1014.98,258.08 1004.43,258.08 992.69,258.08 
	982.01,258.08 972.53,258.08 955.58,258.08 954.92,257.95 954.33,257.71 953.9,257.44 953.6,256.98 953.49,256.46 953.45,255.88 
	953.42,255.38 953.4,255.06 953.22,254.83 952.9,254.74 952.47,254.72 952.02,254.7 950.66,254.68 948.31,254.68 938.76,254.66 
	918.46,254.62 904.57,254.58 888.83,254.5 868.05,254.47 850.2,254.47 830.84,254.47 808.77,254.5 797.6,254.39 797.14,254.39 
	796.7,254.47 796.35,254.81 796.05,255.31 795.87,255.83 795.64,256.37 795.22,256.72 794.87,257.08 794.39,257.51 793.62,257.87 
	793.28,258.08 "/>
<polygon class="st16" points="973.65,214.76 973.37,215.23 973.03,215.94 972.58,216.78 972.31,217.55 971.97,218.48 971.67,219.42 
	971.41,220.29 971.16,221.31 971.06,221.93 971,222.89 971,223.73 971,225.39 971,225.95 971,226.57 971.12,227.26 971.3,228.08 
	971.41,228.86 971.63,229.72 971.84,230.35 972.02,230.99 972.32,231.75 972.55,232.31 972.82,232.94 973.12,233.58 973.39,234.19 
	973.75,234.68 974.1,235.26 974.56,235.88 974.98,236.5 975.49,237.08 975.94,237.66 976.4,238.12 976.88,238.7 977.31,239.18 
	977.78,239.5 978.38,240.01 978.99,240.47 979.49,240.87 979.92,241.19 980.46,241.61 981.12,241.93 981.87,242.39 982.51,242.76 
	983.23,243.13 983.97,243.46 984.65,243.7 985.33,243.97 986.01,244.2 986.6,244.39 987.28,244.61 987.97,244.82 988.75,244.95 
	989.45,245.11 990.25,245.19 991.13,245.3 991.85,245.3 993.05,245.3 995.58,245.3 996.43,245.3 997.21,245.16 997.98,245.08 
	998.68,244.9 999.42,244.71 1000.26,244.53 1000.89,244.34 1001.75,244.05 1002.68,243.69 1003.45,243.3 1004.31,242.95 
	1004.98,242.58 1005.7,242.17 1006.37,241.78 1007.06,241.32 1007.62,240.92 1008.23,240.42 1008.74,239.97 1009.4,239.4 
	1009.92,238.94 1010.34,238.55 1010.9,237.98 1011.32,237.48 1011.7,237.02 1012.13,236.41 1012.55,235.8 1012.96,235.22 
	1013.25,234.76 1013.57,234.2 1013.87,233.63 1014.13,233.13 1014.45,232.54 1014.72,231.91 1015.03,231.18 1015.27,230.6 
	1015.44,230.03 1015.57,229.45 1015.71,228.7 1015.83,228.16 1015.92,227.63 1016,227.12 1016,226.22 1016,225.39 1016,222.99 
	1016,222.38 1016,221.76 1015.83,220.86 1015.54,219.95 1015.28,219.07 1015.03,218.22 1014.72,217.49 1014.39,216.7 
	1013.96,215.81 1013.65,215.22 1013.3,214.56 1012.87,213.76 1012.44,213.15 1011.92,212.43 1011.3,211.68 1010.58,210.91 
	1010.12,210.44 1009.51,209.83 1008.71,209.17 1008.1,208.64 1007.45,208.15 1006.68,207.6 1005.85,207.09 1005.08,206.61 
	1004.18,206.16 1003.29,205.75 1002.34,205.35 1001.54,205.03 1000.71,204.74 999.91,204.45 999.1,204.23 998.33,204.05 
	997.43,203.88 996.51,203.75 995.58,203.67 994.87,203.67 991.76,203.67 991.07,203.75 990.35,203.86 989.74,203.93 988.88,204.1 
	988.08,204.28 987.34,204.45 986.6,204.65 985.95,204.82 985.37,205.04 984.77,205.28 984.08,205.56 983.44,205.8 982.75,206.1 
	982.08,206.47 981.44,206.82 980.82,207.22 980.08,207.7 979.54,208.1 978.96,208.55 978.5,208.9 978,209.3 977.46,209.78 
	977.07,210.18 976.48,210.74 976.14,211.15 975.71,211.63 975.35,212.07 974.9,212.56 974.47,213.14 974.16,213.65 "/>
<polygon class="st16" points="733.3,177.55 733.43,176.92 733.6,176.14 733.79,175.53 733.98,174.89 734.26,174.4 734.53,173.91 
	734.83,173.38 735.16,172.9 735.54,172.34 735.91,171.87 736.47,171.42 736.98,171.08 737.49,170.67 738.03,170.26 738.53,170 
	739.13,169.68 739.74,169.4 740.45,169.17 741.14,168.98 741.78,168.85 742.35,168.77 742.99,168.68 743.58,168.68 744.32,168.68 
	744.83,168.68 745.55,168.79 746.06,168.92 746.76,169.09 747.39,169.3 748.1,169.52 748.79,169.84 749.54,170.22 750.05,170.57 
	750.6,171 751.18,171.48 751.75,172.09 752.25,172.65 752.74,173.12 753.03,173.65 753.36,174.22 753.73,174.8 754.06,175.47 
	754.13,175.98 754.35,176.93 754.43,177.7 754.43,178.64 754.43,179.48 754.35,180.52 754.22,181.22 754.04,181.75 753.73,182.35 
	753.36,183 753.01,183.66 752.6,184.13 752.16,184.74 751.7,185.22 751.21,185.66 750.84,185.94 750.38,186.27 749.79,186.65 
	749.41,186.86 748.88,187.18 748.4,187.4 747.78,187.66 747.21,187.82 746.65,187.97 746.11,188.09 745.54,188.23 744.71,188.23 
	743.86,188.23 743.19,188.23 742.94,188.23 742.48,188.23 741.73,188.12 741.04,187.96 740.55,187.75 739.77,187.56 739.21,187.27 
	738.56,186.97 737.89,186.54 737.22,186.09 736.69,185.63 736.15,185.12 735.63,184.58 735.24,184.07 734.81,183.45 734.41,182.83 
	734.02,182.19 733.81,181.59 733.58,180.95 733.39,180.31 733.3,179.64 733.3,178.86 733.3,178.11 "/>
<polygon class="st16" points="757.55,244.34 757.94,244.29 758.63,244.18 759.15,244.08 759.91,243.93 760.63,243.73 761.26,243.56 
	761.92,243.38 762.74,243.08 763.04,242.98 763.32,242.88 763.55,242.78 763.92,242.64 764.18,242.53 764.49,242.39 764.81,242.25 
	765.16,242.09 765.55,241.9 765.98,241.68 766.3,241.5 766.63,241.31 767.06,241.03 767.41,240.79 767.84,240.48 768.38,240.12 
	768.71,239.92 769.18,239.56 769.44,239.39 769.71,239.19 770.05,238.9 770.35,238.63 770.77,238.19 770.99,237.98 771.41,237.57 
	771.64,237.36 772.12,236.83 772.43,236.47 772.72,236.11 772.99,235.7 773.26,235.35 773.52,234.91 773.78,234.51 774.18,233.95 
	774.51,233.37 774.74,232.84 775.03,232.24 775.36,231.53 775.66,230.75 775.95,229.87 776.24,228.91 776.53,227.66 776.66,227.01 
	776.81,226.19 776.85,225.28 776.9,223.88 776.86,222.19 776.82,221.04 776.68,220.16 776.41,219.16 776.12,218.15 775.77,217.06 
	775.34,215.91 774.83,214.79 774.26,213.86 773.67,212.95 772.78,211.68 772.15,210.93 771.5,210.19 770.9,209.55 770.12,208.8 
	769.27,208.05 768.35,207.32 767.6,206.76 766.72,206.23 765.45,205.54 764.21,204.97 763.49,204.65 762.31,204.19 761.59,203.88 
	760.66,203.55 759.72,203.32 758.58,203.09 757.46,202.88 756.61,202.81 755.65,202.75 754.51,202.72 753.36,202.72 752.73,202.72 
	751.73,202.78 750.77,202.88 749.81,203.07 749,203.23 748.36,203.4 747.54,203.58 746.7,203.87 746.02,204.08 745.33,204.33 
	744.75,204.6 744.04,204.91 743.27,205.34 742.42,205.85 741.71,206.19 740.86,206.7 740.18,207.19 739.46,207.77 738.94,208.17 
	738.36,208.67 737.71,209.24 737.12,209.87 736.48,210.57 735.96,211.19 735.31,211.99 734.76,212.89 734.31,213.75 733.8,214.72 
	733.39,215.56 732.96,216.34 732.61,217.31 732.38,217.93 732.14,218.68 731.99,219.58 731.84,220.39 731.71,221.24 731.68,222.1 
	731.68,222.87 731.68,223.77 731.68,224.57 731.72,225.26 731.83,226.07 731.96,226.93 732.07,227.65 732.3,228.46 732.58,229.63 
	733,230.65 733.52,231.85 734.26,233.19 734.99,234.47 735.81,235.64 736.73,236.74 737.53,237.62 738.4,238.44 739.53,239.44 
	740.59,240.27 741.6,240.96 742.65,241.56 743.88,242.19 744.84,242.66 746.26,243.27 747.81,243.8 749.21,244.17 750.32,244.41 
	751.09,244.53 751.63,244.59 752.12,244.59 752.62,244.59 753.17,244.59 753.92,244.59 754.54,244.59 755.53,244.59 756.08,244.59 
	756.34,244.59 756.66,244.44 756.98,244.41 "/>
<polygon class="st17" points="985.74,225.38 985.74,223.93 986.2,223.47 986.53,223.09 987.07,222.8 987.32,222.64 988.72,222.64 
	989.13,222.97 989.47,223.18 989.78,223.47 989.99,223.82 989.99,225.38 989.99,225.59 989.69,225.88 989.38,226.22 988.92,226.57 
	987.49,226.57 986.74,226.19 986.07,225.72 "/>
<polygon class="st18" points="987.34,225.69 986.7,225.15 986.7,224.03 987.02,223.68 987.34,223.41 988.53,223.41 989.01,223.74 
	989.32,224.16 989.32,225.26 988.8,225.69 "/>
<polygon class="st17" points="990.88,226.46 990.88,222.7 993.17,222.7 993.6,223.01 993.81,223.41 993.81,224.55 993.5,224.97 
	993.15,225.09 991.59,225.05 991.57,226.46 "/>
<polygon class="st18" points="991.57,223.41 991.57,224.49 992.94,224.49 993.27,224.2 993.27,223.7 993,223.49 "/>
<polygon class="st19" points="994.31,222.64 994.33,226.57 997.46,226.57 997.46,225.69 995.17,225.69 995.17,224.95 997.46,224.99 
	997.46,224.11 995.11,224.13 995.07,223.41 997.46,223.41 997.44,222.64 "/>
<polygon class="st17" points="998.16,222.64 998.16,226.57 999.22,226.57 999.22,224.22 999.22,223.95 999.48,224.11 999.77,224.58 
	1001.4,226.52 1001.44,226.61 1001.97,226.61 1002.06,226.61 1002.02,222.59 1001.48,222.59 1001.48,225.25 1001.48,225.37 
	1001.32,225.38 1001.19,225.25 1001.09,225.12 999.31,222.72 999.23,222.59 "/>
<polyline class="st20" points="758.85,258.08 757.35,258.08 756.1,258.08 754.57,258.08 753.45,258.08 752.04,258.08 751.24,258.08 
	750.38,257.94 750.7,257.74 751,257.49 751.51,257.02 751.79,256.75 752.08,256.5 752.42,256.2 752.49,255.99 752.49,255.56 
	752.48,254.78 752.47,251.75 752.45,248.51 752.5,244.82 752.62,244.59 753.17,244.59 753.92,244.59 754.54,244.59 755.53,244.59 
	756.08,244.59 756.47,244.66 756.48,245.27 756.48,246.14 756.48,247.42 756.48,248.83 756.48,250.74 756.48,252.44 756.48,254.33 
	756.48,255.86 756.48,256.29 756.53,256.46 756.92,256.77 757.13,256.99 757.79,257.49 758.32,257.87 758.85,258.08 "/>
<polygon class="st21" points="743.08,225.08 743.08,224.69 743.08,224.3 743.08,223.85 743.08,223.14 743.08,222.58 743.08,222.06 
	743.08,221.77 743.08,221.6 743.36,221.6 743.57,221.6 743.88,221.6 744.18,221.6 744.55,221.6 744.89,221.6 745.06,221.6 
	745.2,221.6 745.4,221.6 745.64,221.65 745.79,221.77 745.98,221.97 746.14,222.16 746.21,222.38 746.21,222.61 746.21,222.84 
	746.21,223.09 746.21,223.34 746.12,223.46 745.97,223.59 745.85,223.73 745.67,223.87 745.41,223.97 745.19,224.07 744.81,224.1 
	744.64,224.1 744.3,224.1 744,224.1 743.81,224.1 743.66,224.14 743.6,224.24 743.6,224.48 743.62,224.74 743.61,224.88 
	743.6,225.08 743.43,225.08 743.28,225.08 "/>
<polygon class="st22" points="743.61,223.34 743.61,222.97 743.61,222.74 743.65,222.6 743.78,222.56 743.88,222.56 744.06,222.56 
	744.28,222.56 744.55,222.56 744.81,222.56 745.01,222.56 745.17,222.56 745.36,222.6 745.51,222.64 745.61,222.74 745.61,222.95 
	745.61,223.11 745.46,223.2 745.2,223.29 745.07,223.34 744.72,223.34 744.4,223.34 743.87,223.34 "/>
<polygon class="st23" points="746.92,224.2 746.92,223.5 746.92,222.95 746.98,222.65 747.2,222.48 747.49,222.18 747.72,222.03 
	747.9,221.84 748.05,221.73 748.21,221.6 748.4,221.6 748.71,221.6 749.09,221.6 749.39,221.6 749.57,221.6 749.78,221.65 
	749.94,221.73 750.17,221.87 750.39,222.05 750.59,222.26 750.76,222.49 750.92,222.74 751.12,223 751.21,223.18 751.21,223.66 
	751.21,223.91 751.21,224.08 751.21,224.33 751.21,224.51 750.96,224.72 750.66,225.08 750.33,225.31 750.12,225.44 749.89,225.54 
	749.64,225.54 749.28,225.54 748.93,225.54 748.48,225.54 748.32,225.54 748.01,225.34 747.76,225.17 747.54,224.97 747.23,224.7 
	747.13,224.51 "/>
<polygon class="st24" points="747.45,224 747.45,223.23 747.55,223.06 747.75,222.91 747.97,222.74 748.2,222.56 748.47,222.56 
	748.82,222.56 749.11,222.56 749.4,222.56 749.57,222.62 749.76,222.68 749.92,222.77 750.11,222.95 750.24,223.06 750.34,223.13 
	750.34,223.24 750.41,223.46 750.41,223.66 750.41,224 750.31,224.23 750.14,224.57 749.98,224.65 749.7,224.65 749.3,224.65 
	748.93,224.65 748.49,224.65 748.3,224.65 748.08,224.55 747.87,224.38 747.65,224.24 "/>
<polygon class="st25" points="751.34,222.09 751.61,222.56 751.82,222.95 751.96,223.42 752.12,223.73 752.24,224.05 752.39,224.41 
	752.47,224.78 752.61,225.08 752.76,225.08 752.92,225.08 753.07,225.08 753.3,225.08 753.4,224.65 753.49,224.36 753.6,224.03 
	753.78,223.66 753.92,223.34 754.03,223.05 754.29,223.06 754.46,223.06 754.62,223.25 754.69,223.61 754.82,224.11 754.96,224.47 
	755.16,224.82 755.33,225.08 755.5,225.08 755.71,225.08 755.97,225.08 756.13,224.65 756.25,224.21 756.44,223.76 756.67,223.25 
	756.78,222.86 756.84,222.56 756.92,222.26 756.92,222.09 756.61,222.09 756.33,222.03 756.22,222.37 756.13,222.77 755.99,223.34 
	755.88,223.61 755.73,223.94 755.62,224.11 755.39,224.11 755.19,223.93 755.1,223.48 754.97,222.95 754.77,222.56 754.66,222.25 
	754.57,222.03 754.29,222.03 754.13,222.03 753.97,222.03 753.8,222.35 753.6,222.78 753.47,223.17 753.35,223.55 753.24,223.82 
	753.15,224.08 752.9,224.11 752.55,223.55 752.41,223.11 752.27,222.63 752.02,222.23 751.93,222.03 "/>
<polygon class="st25" points="757.9,221.71 758.35,221.71 758.88,221.71 759.5,221.71 760.05,221.71 760.44,221.71 760.6,221.71 
	760.6,221.96 760.6,222.28 760.6,222.55 760.4,222.55 760.03,222.55 759.64,222.55 759.12,222.55 758.71,222.55 758.45,222.55 
	758.44,222.87 758.44,223.07 758.77,223.07 760.6,223.07 760.6,224.09 758.41,224.09 758.41,224.6 760.6,224.6 760.6,225.54 
	757.32,225.54 757.32,221.71 "/>
<polygon class="st25" points="761.2,225.46 761.2,222.32 761.27,222.17 761.42,222.09 761.57,221.96 761.71,221.8 761.82,221.71 
	761.93,221.6 763.84,221.6 764.16,221.81 764.49,222.04 764.9,222.31 765,222.48 765,222.84 765,223.05 764.88,223.29 
	764.67,223.45 764.52,223.59 764.43,223.66 764.49,224.09 764.72,224.3 764.93,224.56 765,224.87 765,225.07 765,225.31 765,225.46 
	764.82,225.46 764.5,225.46 764.09,225.46 763.86,225.46 763.9,225.05 763.89,224.69 763.89,224.44 763.88,224.25 763.85,224.12 
	763.62,224.11 763.21,224.1 762.91,224.09 762.56,224.09 762.32,224.1 762.25,224.39 762.27,224.62 762.27,224.98 762.27,225.17 
	762.25,225.46 "/>
<rect x="762.25" y="222.59" class="st26" width="1.64" height="0.54"/>
<polyline class="st27" points="796.05,255.31 796.05,247.85 796.05,230.38 796.05,219.43 796.05,210.85 "/>
<polyline class="st27" points="952.02,254.7 952.02,245.77 952.02,235.5 952.02,226.1 951.9,212.5 "/>
<polyline class="st27" points="795.94,47.54 795.94,56.95 795.94,68.94 795.94,80.84 795.94,91.61 "/>
<polyline class="st27" points="950.71,45.44 950.71,59.52 950.71,70.33 950.71,84.34 950.65,91.42 "/>
<path class="st27" d="M795.94,91.6"/>
<line class="st28" x1="739.4" y1="178.15" x2="737.82" y2="178.05"/>
<polyline class="st28" points="737.82,179.32 737.82,179.03 737.82,178.05 737.82,177.38 737.82,177.12 737.82,176.97 
	738.31,176.97 738.74,176.97 739.1,176.97 739.27,176.97 739.65,177.25 739.65,177.53 739.65,177.7 739.65,177.88 739.52,178.12 
	739.65,178.94 739.65,179.07 739.65,179.32 "/>
<polyline class="st28" points="742.42,177.25 740.57,177.25 740.41,177.25 740.41,179.21 740.41,179.39 742.37,179.39 "/>
<line class="st28" x1="742.34" y1="178.25" x2="740.41" y2="178.25"/>
<polyline class="st28" points="744.89,177.69 744.66,177.53 744.48,177.41 744.27,177.34 743.86,177.34 743.52,177.34 
	743.28,177.51 743.11,177.69 743.11,177.9 743.27,178.15 743.59,178.25 743.93,178.32 744.27,178.39 744.48,178.39 744.66,178.56 
	744.76,178.86 744.75,179.08 744.61,179.32 744.35,179.39 744,179.39 743.7,179.39 743.44,179.32 743.26,179.17 743,178.93 "/>
<polyline class="st28" points="747.38,177.34 745.61,177.34 745.61,179.66 747.38,179.66 "/>
<line class="st28" x1="747.38" y1="178.45" x2="745.61" y2="178.45"/>
<polyline class="st28" points="747.79,177.53 748.03,177.53 750.15,177.53 "/>
<line class="st28" x1="748.97" y1="179.66" x2="748.97" y2="177.53"/>
<polyline class="st27" points="958.41,204.43 960.86,206.02 962.45,207.02 964.29,208.05 965.58,208.83 967.1,209.71 969.2,211.08 
	970.27,211.7 971.52,212.48 972.37,213.1 972.96,213.53 973.37,213.78 973.94,214.14 974.03,213.94 974.1,213.78 974.24,213.52 
	974.4,213.24 974.61,212.94 974.81,212.68 975.06,212.38 974.99,212.23 974.81,212.01 974.28,211.66 973.68,211.29 972.76,210.76 
	971.84,210.15 971,209.58 970.23,209.18 969.38,208.65 968.52,208.11 967.61,207.56 966.5,206.92 965.66,206.39 964.89,205.94 
	964.13,205.49 963.5,205.03 962.78,204.58 962.11,204.12 961.26,203.53 960.61,203.12 959.7,202.63 959.11,203.46 958.41,204.43 "/>
<polygon class="st15" points="927.84,231.72 930.79,230 933.48,228.19 936.52,226.08 938.9,224.14 941.46,222.25 943.57,220.61 
	945.82,218.63 947.8,216.69 949.7,214.71 951.9,212.5 953.93,210.17 955.91,207.88 957.45,205.76 959.26,203.25 961.64,199.86 
	963.49,196.77 965.43,193.51 966.84,190.6 968.87,186.63 970.54,182.18 971.69,178.7 972.88,174.87 973.8,170.94 974.55,167.2 
	974.99,164.2 975.35,161.38 975.66,158.82 975.83,157.06 975.83,154.5 975.83,151.81 975.83,148.73 975.83,146.57 975.57,143.49 
	975.35,141.63 974.99,139.46 974.64,137.4 974.16,134.76 973.72,132.38 972.83,129.07 971.95,126.21 971.03,123.3 970.06,120.61 
	969.09,118.23 967.63,115.02 966.4,112.28 964.81,109.5 963.8,107.48 962.61,105.58 961.42,103.51 959.97,101.53 958.54,99.95 
	957.43,98.43 956.03,96.86 954.74,95.51 953.75,94.64 952.58,93.53 951.59,92.3 950.65,91.42 949.72,90.31 948.2,88.68 
	946.92,87.33 944.87,85.17 943.7,84.18 942.3,83.01 941.07,81.84 939.44,80.56 937.33,78.92 935.64,77.75 933.13,76 930.85,74.42 
	928.28,72.84 925.94,71.68 923.02,69.92 919.75,68.35 916.36,66.94 912.8,65.31 909.88,64.26 905.79,62.97 902.11,61.86 
	898.55,60.93 895.63,60.23 891.89,59.53 889.32,59.06 886.63,58.77 883.77,58.48 879.44,58.48 873.62,58.18 870.8,58.18 
	867.12,58.18 863.26,58.53 857.42,59.06 853.04,59.64 847.72,60.81 842.64,62.21 838.38,63.56 833.24,65.31 827.92,67.53 
	823.77,69.69 819.86,71.91 815.77,74.66 812.38,76.82 808.88,79.33 805.9,81.72 803.39,83.89 800.87,86.46 799.12,88.33 
	797.02,90.31 795.27,92.42 793.45,94.69 790.53,98.31 788.55,101 786.5,104.39 784.57,107.43 782.82,110.23 781.65,112.69 
	780.49,115.2 779.2,118.47 777.91,121.92 776.57,125.36 775.81,128.87 774.59,133.37 774.36,135.14 774.15,137.36 773.94,139.46 
	773.69,141.47 773.58,143.24 773.37,145.28 773.23,147.99 773.23,150.5 773.23,152.33 773.23,154.81 773.23,156.87 773.23,158.34 
	773.46,160.77 773.65,161.79 773.86,163.24 774.23,164.9 774.4,165.67 774.53,166.43 774.61,167.4 774.74,168.63 774.99,169.6 
	775.16,170.74 775.42,172.01 775.75,173.28 776.18,174.67 776.64,176.45 777.02,177.88 777.91,180.17 778.46,181.48 778.97,182.92 
	779.52,184.14 780.02,185.37 780.74,186.97 781.29,188.24 782.22,190.19 783.36,192.3 784.21,193.74 785.22,195.64 786.24,197.33 
	787.38,199.36 788.35,200.88 789.41,202.44 790.76,204.39 791.86,205.83 793.55,207.9 795.33,210.1 797.44,212.29 799.22,214.2 
	800.99,216.06 803.15,218.04 805.13,219.65 806.91,221.26 809.15,223.12 811.6,224.93 813.84,226.5 816.55,228.15 818.96,229.67 
	821.41,231.15 823.65,232.42 826.18,233.6 829.44,235.08 831.85,236.35 835.23,237.66 837.98,238.67 840.77,239.6 843.47,240.62 
	846.39,241.38 849.22,242.1 852.22,242.77 855.31,243.36 857.85,243.83 860.47,244.17 863.47,244.5 865.77,244.86 867.97,245.06 
	869.58,245.06 871.89,245.06 874.42,245.06 876.48,245.06 879.4,245.06 881.84,245.06 884.08,244.75 886.34,244.53 888.32,244.33 
	890.87,244 893.68,243.49 896.39,242.93 898.98,242.36 902.11,241.56 904.94,240.74 907.58,239.96 910.58,238.96 913.22,238.06 
	916.05,236.97 918.82,235.77 921.17,234.77 923.72,233.55 925.83,232.73 "/>
<polyline class="st28" points="858.37,205.01 858.37,201.18 858.37,200.93 858.89,200.93 859.55,200.93 860.04,200.93 
	860.51,201.04 860.73,201.29 860.87,201.74 860.87,202.09 860.87,202.54 860.67,202.97 860.36,203.2 859.62,203.2 859.13,203.2 
	858.53,203.23 "/>
<line class="st28" x1="862.36" y1="200.93" x2="862.36" y2="205.01"/>
<polyline class="st28" points="864.1,201.98 865.5,201.98 865.81,202.16 866.06,202.4 866.06,203.05 866.06,203.25 866.06,204.7 
	866.06,205.01 864.23,205.01 863.9,204.78 863.7,204.47 863.7,204.14 863.7,203.78 864.05,203.49 864.3,203.36 864.7,203.27 
	864.99,203.27 865.25,203.27 865.54,203.25 865.77,203.25 "/>
<line class="st28" x1="870.13" y1="201.98" x2="867.79" y2="206.81"/>
<line class="st28" x1="867.32" y1="201.98" x2="868.64" y2="204.7"/>
<polyline class="st28" points="873.31,200.93 871.73,200.93 871.49,201.16 871.29,201.49 871.29,202.4 871.58,202.65 871.98,202.83 
	872.3,202.83 872.65,202.83 873,202.97 873.31,203.34 873.31,203.69 873.31,204.05 873.31,204.52 873.07,204.83 872.76,205.01 
	871.29,205.01 "/>
<polyline class="st28" points="874.92,201.29 874.92,204.85 875.32,205.01 875.76,205.01 "/>
<line class="st28" x1="876.16" y1="201.98" x2="875.01" y2="201.98"/>
<polyline class="st28" points="877.37,201.98 878.79,201.98 879.1,202.2 879.28,202.49 879.28,204.81 879.06,205.01 878.55,205.01 
	877.43,205.01 877.14,204.7 876.9,204.4 876.9,203.92 877.23,203.6 877.57,203.49 877.9,203.34 878.43,203.34 878.73,203.34 
	879.1,203.34 "/>
<polyline class="st28" points="881,201.29 881,204.7 881.35,205.01 881.82,205.01 "/>
<line class="st28" x1="882.2" y1="201.98" x2="881.11" y2="201.98"/>
<line class="st28" x1="883.33" y1="200.8" x2="883.33" y2="201.13"/>
<line class="st28" x1="883.33" y1="201.98" x2="883.33" y2="205.19"/>
<polygon class="st28" points="884.91,204.16 884.91,203.15 885.03,202.74 885.16,202.43 885.31,202.22 885.58,201.98 886.45,201.98 
	886.92,202.07 887.23,202.34 887.41,202.71 887.41,203.4 887.41,204.16 887.28,204.59 887.01,204.85 886.72,205.01 885.8,205.01 
	885.38,204.83 885.07,204.56 "/>
<polyline class="st28" points="891.39,205.1 891.39,202.54 891.24,202.25 890.84,201.98 889.01,201.98 889.01,205.19 "/>
<polygon class="st29" points="861.64,97.49 861.64,95.67 861.21,95.8 860.68,95.85 860.18,95.57 859.4,95.35 858.92,95.35 
	857.06,95.35 856.53,95.47 855.98,95.65 855.27,95.83 854.79,96.08 854.34,96.63 854.34,97.99 854.79,98.27 855.4,98.57 
	856.23,98.8 856.96,98.95 857.87,99.05 858.62,99.05 859.93,99.05 860.51,99.47 860.84,99.85 860.81,100.33 860.38,100.61 
	859.83,100.83 859.2,100.83 858.54,100.83 857.99,100.83 857.24,100.83 856.51,100.66 856.03,100.31 855.63,99.93 855.3,99.55 
	855.15,99.3 854.34,99.32 854.34,101.56 855.05,101.56 855.35,101.56 855.45,101.24 855.83,101.26 856.43,101.56 857.21,101.72 
	857.99,101.82 858.8,101.82 859.68,101.82 860.61,101.54 861.26,101.24 861.82,100.91 862.15,100.43 862.15,99.63 862.15,99.1 
	861.89,98.69 861.59,98.37 861.01,98.06 860.31,97.94 859.55,97.86 858.62,97.81 857.77,97.71 856.88,97.56 856.13,97.31 
	855.83,97.08 855.83,96.71 856.23,96.45 856.61,96.18 857.11,96.03 857.77,95.95 859.4,96.03 859.98,96.2 860.33,96.56 
	860.79,96.98 861.24,97.51 "/>
<polygon class="st29" points="866.75,101.82 865.62,101.29 864.86,100.68 864.36,100.08 863.98,99.55 863.98,97.89 864.39,97.18 
	864.97,96.63 865.67,96.08 866.53,95.57 867.31,95.35 869.8,95.35 870.55,95.52 871.43,95.88 871.91,96.2 872.67,96.76 
	873.02,97.54 873.02,99.42 872.79,100.16 872.32,100.61 871.59,101.16 870.91,101.44 870.25,101.82 "/>
<polygon class="st30" points="867.93,100.86 867.05,100.66 866.48,100.26 866.1,99.83 865.92,99.3 865.92,98.87 865.92,98.04 
	866.15,97.46 866.48,96.98 866.93,96.66 867.36,96.3 867.63,96.13 869.14,96.13 869.95,96.5 870.53,96.91 870.88,97.36 
	871.18,97.89 871.18,99.45 870.8,99.98 870.33,100.46 869.8,100.86 "/>
<polygon class="st31" points="880.5,95.65 880.5,96.35 881.61,96.35 881.61,99.2 877.48,95.65 874.43,95.65 874.43,96.35 
	875.46,96.38 875.46,100.86 874.43,100.86 874.43,101.44 878.02,101.44 877.93,100.86 876.72,100.86 876.7,97.44 877.15,97.44 
	881.61,101.31 881.61,101.56 883.04,101.56 883.04,96.38 884.1,96.38 884.1,95.65 "/>
<polygon class="st31" points="885.04,95.65 885.04,96.39 886.16,96.39 888.65,99.06 888.65,100.88 887.56,100.88 887.56,101.56 
	891.97,101.56 891.97,100.77 890.66,100.77 890.57,99.25 893.42,96.43 894.57,96.43 894.57,95.65 890.93,95.65 890.95,96.34 
	891.76,96.38 891.74,96.76 890.49,98.14 889.81,98.12 888.3,96.49 888.3,96.26 889.2,96.26 889.18,95.65 "/>
<polygon class="st32" points="871.52,197.59 870.56,197.18 870,196.98 869.2,196.84 868.31,196.84 867.32,196.76 866.52,196.76 
	865.75,196.59 864.88,196.38 864.11,196.14 863.4,195.77 862.8,195.27 862.68,194.66 862.85,194.23 863.43,193.79 864.08,193.46 
	864.88,193.14 865.24,193.36 865.53,193.53 866.06,193.72 866.67,193.96 867.1,194.18 867.58,194.54 866.96,194.81 866.42,194.98 
	866.45,195.36 866.98,195.36 867.63,195.36 868.26,195.36 868.64,195.36 868.82,195.03 869.11,194.88 869.49,194.88 869.95,194.88 
	870.48,194.95 870.85,195.1 871.18,195.17 871.52,195.36 871.79,195.53 871.79,196.11 871.79,197.59 "/>
<polygon class="st33" points="875.58,198.72 878.36,197.78 878.09,197.42 877.54,197.18 876.9,196.98 876.16,196.91 875.58,196.91 
	"/>
<polygon class="st34" points="864.88,193.14 865.9,192.82 867.04,192.43 867.79,192.18 868.51,191.95 869.4,191.63 870.13,191.4 
	870.82,191.56 871.29,191.72 871.79,191.88 871.79,195.53 871.18,195.17 870.85,195.1 870.48,194.95 869.95,194.88 869.49,194.88 
	869.11,194.88 868.82,195.03 868.64,195.36 868.26,195.36 867.63,195.36 866.98,195.36 866.45,195.36 866.42,194.98 866.96,194.81 
	867.58,194.54 867.1,194.18 866.67,193.96 866.06,193.72 865.53,193.53 865.24,193.36 "/>
<polygon class="st35" points="870.13,191.4 870.87,190.89 871.29,190.71 871.79,190.71 871.79,191.88 871.29,191.72 870.82,191.56 
	"/>
<polygon class="st36" points="871.79,193.02 870.96,193.46 870.34,193.71 869.31,194.1 868.51,194.35 867.58,194.54 866.96,194.81 
	866.42,194.98 866.45,195.36 866.98,195.36 867.63,195.36 868.26,195.36 868.64,195.36 868.82,195.03 869.11,194.88 869.49,194.88 
	869.95,194.88 870.38,194.64 870.57,194.58 870.71,194.55 871.1,194.46 871.4,194.42 "/>
<polygon class="st37" points="871.79,195.36 871.79,194.68 871.79,193.88 871.48,194.12 871.4,194.42 871.1,194.46 870.71,194.55 
	870.38,194.64 869.95,194.88 870.48,194.95 870.85,195.1 871.18,195.17 871.52,195.36 871.79,195.53 "/>
<polygon class="st38" points="875.58,196.91 875.58,196.3 876.32,196.16 877.05,195.93 877.85,195.86 878.25,195.53 878.85,195.36 
	879.3,195.29 879.72,195.08 880.05,194.96 880.66,194.89 881.15,194.89 881.82,194.89 882.49,194.97 882.93,195.13 883.47,195.36 
	884.06,195.65 883.33,196.11 882.86,196.28 881.82,196.63 881.1,196.91 880.26,197.19 879.25,197.47 878.36,197.78 878.09,197.42 
	877.54,197.18 876.9,196.98 876.16,196.91 "/>
<polygon class="st38" points="875.49,193.14 876.24,193.29 877.21,193.46 877.98,193.72 878.5,194.06 878.02,194.36 877.27,194.55 
	876.46,194.89 875.49,195.24 "/>
<polygon class="st39" points="875.58,192.94 877.19,192.62 878.13,192.43 879.31,192.25 880.3,192.13 881.14,192.13 882.1,192.23 
	883.37,192.4 884.32,192.54 885.31,193.02 886.02,193.59 886.28,194.01 886.28,194.47 886.21,195.02 885.86,195.36 885.28,195.45 
	884.64,195.63 884.06,195.65 883.47,195.36 882.93,195.13 882.16,194.93 881.15,194.89 881.33,194.71 881.65,194.59 882,194.51 
	882.47,194.38 882.77,194.31 882.9,193.78 882.92,193.61 882.62,193.46 882.36,193.39 881.93,193.39 881.48,193.39 881.1,193.46 
	880.54,193.57 880.04,193.78 879.5,194.01 878.88,194.06 878.5,194.06 877.98,193.72 877.21,193.46 876.24,193.29 875.49,193.14 "/>
<polygon class="st40" points="871.7,197.81 875.58,198.72 875.49,191.5 875.49,188.18 875.49,186.62 875.49,185.33 875.49,184.84 
	875.49,184.61 875.98,184.61 876.81,184.61 877.13,184.61 877.31,184.82 877.31,185.1 877.31,190.71 877.52,191.08 877.77,191.29 
	878.14,191.29 878.79,191.29 879.45,191.29 879.94,191.13 880.24,190.71 880.65,190.37 881,189.88 881.2,189.7 881.39,189.4 
	881.39,189.01 881.39,188.04 881.39,186.69 881.29,186.2 881.04,185.81 880.63,185.28 880.24,184.89 879.82,184.48 879.22,184.11 
	878.6,183.79 878,183.51 877.25,183.19 876.54,182.96 875.86,182.7 875.17,182.5 874.53,182.24 873.91,182.08 873.36,181.97 
	872.71,181.85 872,181.85 871.7,181.85 871.79,190.71 "/>
<path class="st41" d="M772.47,77.45c-0.91-2.94,5-7.5,7.64-9.21c3.81-2.39,8.23-3.62,12.73-3.56h32.19c2.75-0.01,5.39,1.07,7.34,3
	c1.91,1.97,2.98,4.6,3,7.34c-0.1,4.05-2.44,7.72-6.07,9.52c-6.11-2.31-12.5-3.8-19-4.44c-4.82-0.48-9.69-0.48-14.51,0
	C777.54,81.6,773.13,79.54,772.47,77.45z"/>
<path class="st41" d="M981.3,78.81c0.91-2.94-5-7.5-7.64-9.21c-3.82-2.39-8.24-3.62-12.74-3.56h-32.19c-2.74-0.01-5.38,1.07-7.33,3
	c-1.91,1.97-2.98,4.6-3,7.34c0.13,4.05,2.49,7.69,6.13,9.47c10.67-4.05,22.14-5.56,33.49-4.41
	C976.17,82.96,980.59,80.94,981.3,78.81z"/>
<path class="st42" d="M920.09,108.78c2.83-5.48,8.53-8,11.16-9.06c11.4-4.79,23-1.35,25.6-0.57c6.08,1.78,11.63,5.01,16.19,9.41
	c0.12,0.12,0.12,0.31,0.01,0.42c0,0,0,0-0.01,0.01l-7.15,6.95l0,0c-4.02,3.05-8.55,5.37-13.38,6.85
	c-6.88,2.06-14.15,2.49-21.22,1.25c-5.08-0.91-9.64-1.73-11.81-5.09C916.88,115.01,919.37,110.18,920.09,108.78z"/>
<path class="st42" d="M833.69,105.61c-2.72-5.48-8.2-7.95-10.73-9.06c-11-4.78-22.09-1.34-24.62-0.56
	c-5.98,1.84-11.4,5.15-15.78,9.62l7.11,7.18c3.84,3.05,8.21,5.37,12.88,6.86c6.6,2.06,13.61,2.49,20.41,1.25
	c4.88-0.91,9.28-1.73,11.36-5.09C836.79,111.84,834.39,107.01,833.69,105.61z"/>
<path class="st43" d="M791.3,246.45c2.14-16.23,7.07-31.97,14.57-46.52c6.81-13.41,15.91-25.52,26.9-35.79
	c0.9-4.67-0.22-8.89-2.85-10.72c-2.44-1.71-5.28-0.7-6-0.41c-40.89,78.71-43.73,91.94-42.12,93.78c1.15,1.38,2.84,2.19,4.64,2.2
	C788.29,248.7,790,247.81,791.3,246.45z"/>
<path class="st43" d="M956.89,246.45c-2.15-16.23-7.08-31.97-14.59-46.52c-6.81-13.41-15.91-25.52-26.9-35.79
	c-0.91-4.67,0.22-8.89,2.85-10.72c2.44-1.71,5.27-0.7,6-0.41c40.89,78.71,43.73,91.94,42.12,93.78c-1.15,1.38-2.84,2.19-4.64,2.2
	C959.88,248.69,958.18,247.8,956.89,246.45z"/>
<path class="st44" d="M923.93,220.42c-30.74,19.57-70.04,19.57-100.78,0c-2.21-1.23-3.5-3.65-3.29-6.17
	c0.28-2.06,1.49-3.88,3.29-4.93c33.19,7.4,67.59,7.4,100.78,0c1.91,1.13,3.14,3.13,3.29,5.35
	C927.28,217.05,926.01,219.27,923.93,220.42z"/>
<path class="st43" d="M924.51,59.77c-10.59-0.51-21.55-0.86-32.9-1.06c-23.81-0.38-46.23,0.06-67,1.06c-5.14-0.7-8.91-2-9-3.54
	c-0.19-2.06,6.49-3.76,9-4.42c8.48-2.04,17.24-2.6,25.91-1.65c13.74,1.59,37.1,2.19,74,1.65c6.4,0.09,10.47,2.68,10.29,4.42
	S930.4,59.95,924.51,59.77z"/>
<path class="st43" d="M903.97,69.74c-12.87-3.4-26.26-4.39-39.49-2.92c-4.98,0.57-9.91,1.55-14.73,2.92
	c-3.1,0.13-5.86-0.44-6.52-1.39c-0.83-1.2,1.41-3.46,6.52-4.36c6.82,0.54,13.67,0.54,20.49,0c8.93-0.71,14.31-2.14,23.24-1.56
	c3.53,0.24,7.04,0.75,10.49,1.53c3.3-0.11,6.05,0.8,6.58,1.9C911.21,67.25,908.71,69.43,903.97,69.74z"/>
<path class="st43" d="M893.3,77.86c-9.14,1-14.29,1.48-17.25,1.7c-0.88,0.06-3.48,0.24-6.9,0.75c-1.37,0.2-2.48,0.39-3.22,0.53
	c-3.74,0.28-7.2-0.19-8-1.49c-1-1.6,1.83-4.81,8-7c8.02,2.29,16.43,2.93,24.71,1.89c2.99-0.39,5.94-1.02,8.83-1.89
	c2.79,1.42,4.34,3.39,3.7,4.61C902.37,78.43,898.11,79.43,893.3,77.86z"/>
<path class="st45" d="M812.24,92.86c-5.47-0.65-10.99,0.64-15.6,3.64c-1.84,1.21-3.52,2.64-5,4.28c2.12,10.16,9.46,17.2,17.34,17.2
	c9.51-0.02,17.23-7.69,17.32-17.2c0-0.28,0-0.56,0-0.83c-0.63-0.79-1.33-1.53-2.07-2.21C820.93,94.75,816.69,93.02,812.24,92.86z"/>
<path class="st45" d="M941.24,96.13c5.47-0.66,11.01,0.64,15.61,3.68c1.84,1.24,3.52,2.7,5,4.35c-2.13,10.3-9.47,17.44-17.35,17.44
	c-9.58-0.08-17.32-7.86-17.34-17.44c0-0.29,0-0.57,0-0.85c0.63-0.8,1.32-1.55,2.07-2.24C932.51,98.03,936.77,96.28,941.24,96.13z"/>
<ellipse class="st46" cx="808.98" cy="103.31" rx="6.56" ry="4.58"/>
<ellipse class="st46" cx="944.5" cy="103.31" rx="6.56" ry="4.58"/>
<path class="st41" d="M873.4,167.28c2.91,6.17-2.59,16.92-10.33,20.35c-8.28,3.67-13.48-3.53-25-0.92s-16.21,12.27-17.77,11.11
	c-2.46-1.82,5.16-27.91,25.59-34.75C855.3,159.92,869.98,160,873.4,167.28z"/>
<path class="st41" d="M874.3,167.28c-2.91,6.17,2.58,16.92,10.33,20.35c8.27,3.67,13.48-3.53,25-0.92s16.24,12.27,17.82,11.11
	c2.46-1.82-5.16-27.91-25.59-34.75C892.43,159.92,877.74,160,874.3,167.28z"/>
<path class="st47" d="M777.6,120.54l-43.62-40.36l-0.63-6.77c14.62,8.22,27.62,19.04,38.36,31.93c3.17,3.83,6.13,7.84,8.85,12
	C779.57,118.38,778.59,119.45,777.6,120.54z"/>
<path class="st47" d="M968.14,119.97c3.12-3.63,5.74-7.67,7.77-12c4.35-9.39,3.37-15.05,8.33-22.58c2.23-3.36,5.04-6.31,8.28-8.71
	l0.42,8c-0.76,2.47-1.82,6-3.11,10.11c-3.8,12.34-4.23,13.55-4.89,14.93c-1.9,4-5.8,9.51-14.77,14.39L968.14,119.97z"/>
<linearGradient id="SVGID_1_" gradientUnits="userSpaceOnUse" x1="772.7181" y1="45.73" x2="837.3878" y2="45.73" gradientTransform="matrix(1 0 0 -1 2.15 172.54)">
	<stop  offset="0" style="stop-color:#FFFFFF"/>
	<stop  offset="0.99" style="stop-color:#000000;stop-opacity:0.2"/>
</linearGradient>
<path class="st48" d="M834.92,140.42h-53.24c-3.46-2.75-5.8-6.66-6.59-11c-1.51-9.19,5.19-15.67,5.78-16.22l54.54,0.5
	c3.04,4.39,4.47,9.68,4.06,15C839.08,132.96,837.5,137.02,834.92,140.42z"/>
<linearGradient id="SVGID_2_" gradientUnits="userSpaceOnUse" x1="903.4506" y1="42.36" x2="968.1158" y2="42.36" gradientTransform="matrix(1 0 0 -1 2.15 172.54)">
	<stop  offset="0" style="stop-color:#FFFFFF"/>
	<stop  offset="0.99" style="stop-color:#000000;stop-opacity:0.2"/>
</linearGradient>
<path class="st49" d="M965.66,143.79h-53.25c-3.46-2.75-5.8-6.66-6.59-11c-1.5-9.19,5.19-15.67,5.78-16.22l54.54,0.51
	c3.03,4.37,4.46,9.65,4.06,14.95C969.82,136.3,968.24,140.37,965.66,143.79z"/>
<path class="st47" d="M839.47,128.63c20.26-12.63,45.89-12.84,66.36-0.54v4.67c-21.56-8.69-45.67-8.61-67.17,0.22
	C838.93,131.54,839.2,130.08,839.47,128.63z"/>
<path class="st50" d="M869.42,168.17"/>
<path class="st50" d="M869.04,160.54"/>
<polyline class="st51" points="184.17,252.56 183.38,252.56 182.22,252.36 181.14,252.07 180.45,251.71 179.71,251.25 179.1,250.7 
	178.74,250.15 178.36,249.6 178.36,247.53 178.36,241.44 178.36,210.69 178.36,170.91 178.36,138.1 178.36,99.09 178.36,50.06 
	178.36,49.31 178.36,48.58 178.36,48.22 178.63,47.68 179.04,47.18 179.51,46.57 179.99,46.19 180.61,45.82 181.1,45.66 
	181.65,45.44 182.39,45.26 182.92,45.14 183.46,45.14 183.84,45.06 184.17,45.06 184.45,45.06 184.6,45.06 184.15,45.25 
	183.56,45.71 183.26,46.24 183.05,46.99 183.05,47.61 183.05,48.93 183.05,62.7 183.05,80.07 183.05,107.71 183.05,120.85 
	183.05,155.77 183.05,190.81 183.05,220.92 183.05,251.32 183.47,251.94 184.17,252.56 "/>
<polyline class="st52" points="186.69,252.82 186.02,253.09 185.16,252.96 184.17,252.56 183.47,251.94 183.05,251.32 
	183.05,249.63 183.05,197.93 183.05,145.18 183.05,93.43 183.05,50.3 183.05,48.58 183.05,47.61 183.05,46.99 183.26,46.24 
	183.56,45.71 184.15,45.25 184.87,44.95 185.54,44.77 186.19,44.77 187.04,44.86 186.67,45.25 186.3,45.77 185.97,46.18 
	185.89,46.53 185.78,46.96 185.78,47.59 185.78,48.1 185.78,49.09 185.78,61.66 185.78,72.3 185.78,101.65 185.78,144.94 
	185.78,202.37 185.78,206.03 185.78,206.84 185.89,207.24 186.03,207.44 186.21,207.73 186.44,207.97 186.56,208.37 186.57,210.19 
	186.57,240.7 186.57,241.86 186.5,242.29 186.19,242.58 185.97,242.91 185.78,243.58 185.78,244.08 185.78,245.07 185.78,249.95 
	185.78,251.08 185.88,251.51 186.07,251.87 186.24,252.18 186.43,252.51 186.69,252.82 "/>
<polyline class="st53" points="194.54,254.63 193.82,254.77 193.29,254.7 192.69,254.63 192.11,254.45 191.53,254.21 191.08,253.97 
	190.58,253.49 190.28,253.13 190.12,252.63 190.02,251.99 190.02,246.7 190.02,228.66 190.02,213.67 190.02,171.51 190.02,107.97 
	190.02,55.94 190.02,46.58 190.02,45.91 190.17,45.44 190.29,44.93 190.56,44.46 190.92,43.93 191.2,43.67 191.49,43.5 
	191.81,43.42 192.17,43.25 192.48,43.21 192.79,43.21 193.22,43.16 193.64,43.16 193.82,43.16 194.03,43.16 194.4,43.21 
	193.97,43.55 193.64,43.9 193.38,44.27 193.15,44.75 193.05,45.19 192.99,45.76 192.97,46.4 192.97,46.99 192.97,58.1 192.97,91.48 
	192.97,131.66 192.97,167.54 192.97,211.83 192.97,249.32 192.97,252.51 192.97,252.98 193.07,253.3 193.37,253.68 193.6,253.9 
	194.54,254.63 "/>
<path class="st27" d="M193.22,44.54"/>
<path class="st27" d="M193.45,44.14"/>
<path class="st27" d="M192.71,42.54"/>
<polygon class="st54" points="191.26,254.04 190.84,254.04 190.12,253.92 189.31,253.68 188.67,253.53 187.98,253.29 187.52,253.13 
	187.02,252.99 186.69,252.82 186.43,252.51 186.24,252.18 186.07,251.87 185.88,251.51 185.78,251.08 185.78,244.08 185.78,243.58 
	185.97,242.91 186.19,242.58 186.5,242.29 186.57,241.86 186.57,240.7 186.56,238.65 186.58,237.85 186.55,234.25 186.58,230.16 
	186.58,224.55 186.58,219.6 186.58,213.12 186.56,208.37 186.44,207.97 186.21,207.73 186.03,207.44 185.89,207.24 185.78,206.84 
	185.78,206.03 185.78,203.42 185.78,200.33 185.78,179.31 185.78,137.78 185.78,101.65 185.78,78.11 185.78,54.12 185.78,48.1 
	185.78,46.96 185.89,46.53 185.97,46.18 186.3,45.77 186.67,45.25 187.04,44.86 187.49,44.5 188.05,44.2 188.56,44.1 189.28,43.87 
	190.02,43.76 190.6,43.7 190.91,43.7 191.11,43.76 190.83,44.07 190.67,44.3 190.45,44.65 190.35,44.83 190.25,45.11 190.2,45.33 
	190.13,45.57 190.06,45.77 190.02,46.09 190.02,46.32 190.02,46.83 190.02,59.93 190.02,82.04 190.02,112.23 190.02,156.6 
	190.02,207.82 190.02,235.52 190.02,251.21 190.05,252.21 190.17,252.79 190.4,253.28 190.7,253.6 "/>
<polyline class="st55" points="198.81,255.42 198.4,255.64 197.33,255.64 196.27,255.42 195.39,255.03 194.54,254.63 193.73,254.04 
	193.19,253.51 192.97,253.14 192.97,251.64 192.97,250.24 192.97,208.16 192.97,138.79 192.97,45.9 193.07,44.97 193.22,44.55 
	193.45,44.14 193.83,43.65 194.4,43.21 195.06,42.91 195.89,42.66 196.65,42.4 197.5,42.19 198.25,42 198.81,41.89 199.16,41.93 
	197.82,43.49 197.67,56.33 197.67,110.19 197.67,145.42 197.67,227.67 197.85,254.49 198.81,255.42 "/>
<polyline class="st56" points="195.62,54.02 195.62,53.38 195.62,52.9 195.62,52.54 195.62,52.3 195.58,52.13 195.48,51.99 
	195.38,51.92 195.27,51.92 195.23,52.04 195.23,52.19 195.23,52.42 195.23,52.71 195.23,52.97 195.23,53.29 195.23,53.6 
	195.23,53.83 195.23,53.98 195.18,54.1 195.07,54.16 194.95,54.1 194.88,53.95 194.88,53.79 194.88,53.39 194.88,52.93 
	194.88,52.58 194.88,52.29 194.88,51.92 "/>
<polygon class="st56" points="195.71,57.98 195.71,57.41 195.71,56.97 195.71,56.63 195.71,56.5 195.66,56.28 195.62,56.17 
	195.52,56.05 195.4,55.94 195.25,55.94 195.09,55.94 194.88,55.94 194.8,56.12 194.72,56.32 194.69,56.57 194.69,56.75 
	194.69,57.17 194.69,57.77 194.69,57.93 194.69,58.19 194.77,58.57 194.88,58.77 195.16,58.82 195.42,58.71 195.62,58.59 
	195.71,58.4 "/>
<polyline class="st56" points="194.83,60.4 195.2,60.4 195.47,60.4 195.71,60.4 195.78,60.62 195.78,60.86 195.59,61.14 
	194.83,62.3 194.76,62.49 194.76,62.72 194.83,62.93 195.09,62.93 195.33,62.93 195.54,62.93 195.78,62.93 "/>
<polyline class="st56" points="195.78,65.07 195.57,65.27 195.42,65.45 195.27,65.61 195.14,65.82 195.14,66.01 195.14,66.19 
	195.27,66.42 195.46,66.59 195.65,66.74 195.78,66.81 "/>
<polyline class="st56" points="194.55,66.02 194.76,66.02 194.96,66.02 195.14,66.01 "/>
<polyline class="st50" points="196.07,228.56 196.07,229.66 196.07,231.26 196.07,233.35 195.99,233.66 195.8,233.82 195.58,233.82 
	195.41,233.82 195.33,233.65 195.33,233.12 195.33,232.57 195.33,229.17 195.29,228.91 195.18,228.72 195.06,228.56 194.91,228.47 
	194.75,228.39 194.56,228.33 194.38,228.33 "/>
<polyline class="st50" points="196.01,241.28 196.01,240.13 196.01,239.34 196.01,238.48 195.96,238.19 195.8,238.04 195.62,237.97 
	195.38,237.97 195.07,237.97 194.75,237.97 194.57,237.87 194.47,237.65 194.47,237.28 194.47,236.72 194.47,236.37 194.47,235.52 
	"/>
<polyline class="st50" points="193.82,246.84 195.8,246.84 195.95,246.84 195.95,246.35 194.88,242.51 194.81,242.26 194.73,242.04 
	194.62,241.91 194.42,241.91 194.4,242.17 194.41,242.37 194.4,242.71 194.47,247.97 "/>
<circle class="st57" cx="292.28" cy="116.77" r="13.41"/>
<circle class="st58" cx="295.87" cy="118.84" r="15.48"/>
<circle class="st58" cx="300.63" cy="123.41" r="16.94"/>
<circle class="st58" cx="289.22" cy="122.33" r="16.94"/>
<circle class="st59" cx="298.47" cy="121.44" r="18.08"/>
<path class="st58" d="M197.68,253.21V43.88l0.14-0.39l0.19-0.31l0.18-0.29l0.19-0.28l0.3-0.26l0.25-0.23l0.23-0.19l0.27-0.2
	l0.25-0.19h229.7l0.48,0.06l0.38,0.16l0.44,0.31l0.22,0.23l0.32,0.27l0.1,0.13l0.4,0.38l0.23,0.3l0.33,0.38l0.19,0.28v209.5
	l-0.08,0.37l-0.2,0.34l-0.2,0.26l-0.22,0.24l-0.21,0.35l-0.28,0.26l-0.24,0.2l-0.37,0.18l-0.4,0.21l-0.59,0.18H200.44l-0.68-0.25
	l-0.28-0.07l-0.39-0.24l-0.51-0.35l-0.41-0.4l-0.31-0.38l-0.18-0.24V253.21L197.68,253.21z"/>
<circle class="st60" cx="292.57" cy="109.47" r="1.22"/>
<polygon class="st61" points="198.11,131.06 214.03,122.06 226.66,113.08 235.13,105.4 242.23,99.23 250.7,90.92 260.39,80.89 
	266.1,71.2 273.54,60.4 277,53.04 279.94,44.77 280.39,41.54 199.68,41.54 197.82,43.49 "/>
<path class="st61" d="M364.17,41.54c0,0-1.86-2.2,2.37,14.39s1.69,7,1.69,7l4.28,8.25c3.35,6.44-1.32-3.05,4.53,8.72
	s7.11,13.21,7.11,13.21l4.75,5.43l4.4,4.74l5.42,5l4.4,4.83l4.41,6.1l3.72,4.07l4.75,4.06l4.4,1.7l4.74,2.38l7.33,2.36V44.66
	l-2.61-3.06L364.17,41.54z"/>
<polygon class="st62" points="311.35,137.88 311.35,144.72 311.35,151.69 311.35,157.44 311.35,158.19 311.51,158.38 311.77,158.47 
	312.07,158.58 312.44,158.72 312.96,158.96 313.34,159.09 313.84,159.16 314.28,159.32 314.69,159.49 315.19,159.61 315.66,159.71 
	316.11,159.76 316.39,159.76 316.54,159.58 316.54,159.3 316.54,158 316.54,156.03 316.54,154.76 316.54,153.47 316.54,151.98 
	316.54,149.9 316.54,147.86 316.54,146.03 316.54,143.91 316.54,142.58 316.65,142.25 316.81,142.02 317.02,141.85 317.2,141.77 
	317.37,141.77 317.58,141.75 317.72,141.77 317.87,141.81 318.04,141.94 318.13,142.09 318.24,142.31 318.35,142.58 318.35,142.82 
	318.35,144.15 318.35,146.01 318.35,147.64 318.35,149.32 318.35,149.88 318.54,150.1 318.82,150.26 319.08,150.35 319.35,150.43 
	319.64,150.53 319.91,150.59 320.37,150.74 320.71,150.8 320.99,150.8 321.17,150.8 321.48,150.8 321.72,150.81 322.08,150.79 
	322.34,150.69 322.59,150.48 322.89,150.24 323.12,150 323.34,149.82 323.55,149.63 323.74,149.3 323.89,148.98 324.07,148.65 
	324.17,148.28 324.26,147.86 324.37,147.54 324.37,147.16 324.37,146.9 324.37,146.54 324.37,146.06 324.37,145.65 324.37,145.29 
	324.37,144.92 324.28,144.54 324.17,144.3 324.03,144.04 323.9,143.72 323.7,143.41 323.5,143.08 323.33,142.84 323.16,142.58 
	322.86,142.17 322.54,141.82 322.19,141.51 321.59,141.1 321.04,140.86 320.54,140.48 319.98,140.32 318.73,139.81 317.96,139.58 
	317.03,139.32 315.86,138.94 314.87,138.57 314.03,138.27 313.34,138.09 312.92,138.07 312.55,138.04 312.11,138.02 311.91,138.01 
	"/>
<path class="st50" d="M311.36,156.74"/>
<path class="st50" d="M311.02,149.87"/>
<polygon class="st62" points="311.35,156.74 311.01,156.86 310.7,157.08 310.54,157.17 310.13,157.22 309.74,157.22 309.36,157.22 
	308.82,157.22 308.24,157.22 307.36,157.22 306.45,157.22 305.74,157.16 305.09,157.13 304.72,157.03 304.26,156.98 303.77,156.98 
	303.32,156.85 302.88,156.74 302.46,156.61 302.09,156.5 301.68,156.34 301.34,156.18 300.99,155.98 300.66,155.8 300.38,155.56 
	300.19,155.4 300.1,155.23 300.1,154.99 300.01,154.76 300.01,154.47 300.17,154.26 300.39,154.07 300.73,153.8 301.07,153.61 
	301.64,153.32 302.2,153.08 302.89,152.83 303.77,152.53 304.4,152.33 305.18,152.06 305.9,151.81 306.74,151.54 307.73,151.22 
	308.64,150.93 309.34,150.76 310.12,150.49 310.64,150.35 311.01,150.26 311.35,150.21 311.35,150.67 311.35,151.37 311.35,152.07 
	311.35,152.6 311.35,152.81 311.16,152.92 311.01,152.99 310.76,153.06 310.5,153.19 310.16,153.34 309.73,153.49 309.18,153.63 
	308.73,153.8 308.02,154 307.59,154.12 307.15,154.21 306.81,154.37 306.45,154.47 306.04,154.6 305.74,154.69 305.46,154.81 
	305.27,154.94 305.15,155.12 305.16,155.28 305.24,155.46 305.46,155.6 305.68,155.75 306.02,155.78 306.43,155.78 306.8,155.7 
	307.2,155.62 307.91,155.38 308.42,155.3 309.03,155.08 309.62,154.91 310.16,154.68 310.65,154.47 310.9,154.43 311.35,154.32 
	311.35,154.68 311.35,155.2 311.35,155.93 "/>
<polygon class="st62" points="317.65,152.34 318.62,151.95 319.57,151.78 320.44,151.56 321.14,151.42 321.82,151.42 322.57,151.29 
	323.08,151.29 323.77,151.29 324.37,151.29 324.99,151.39 325.46,151.42 326.1,151.48 326.79,151.53 327.58,151.69 328.07,151.79 
	328.59,152.05 329.04,152.28 329.46,152.53 330,152.7 330.42,152.95 330.7,153.29 330.91,153.52 331.01,153.9 331.01,154.16 
	330.88,154.47 330.67,154.81 330.42,155.05 330.11,155.33 329.78,155.54 329.34,155.78 328.98,155.97 328.44,156.23 327.94,156.4 
	327.4,156.58 326.89,156.71 326.43,156.83 325.88,156.93 325.26,157.07 324.6,157.32 323.87,157.6 323.12,157.84 322.37,158.08 
	321.68,158.32 320.76,158.59 319.85,158.9 319.05,159.16 318.18,159.36 317.62,159.36 317.1,159.44 316.54,159.44 316.54,158.26 
	316.54,157.49 316.9,157.29 317.42,157.13 318.05,156.92 318.91,156.68 319.91,156.37 320.54,156.16 321.35,155.81 322.35,155.37 
	323.25,154.91 324.07,154.71 324.6,154.53 325.22,154.36 325.55,154.22 325.94,154.05 326.17,153.9 326.19,153.71 326.12,153.52 
	325.86,153.39 325.63,153.33 325.09,153.25 324.67,153.24 324.37,153.28 323.78,153.42 323.31,153.5 322.66,153.71 322.09,153.77 
	321.48,153.98 320.93,154.23 320.44,154.39 319.85,154.56 319.41,154.75 318.73,155.05 318.18,155.29 317.74,155.37 317.41,155.46 
	316.54,155.64 316.54,154.91 316.54,154.03 316.54,153.26 316.54,152.9 316.54,152.6 316.84,152.5 317.25,152.42 "/>
<ellipse class="st63" cx="279.15" cy="108.25" rx="20.86" ry="31.89"/>
<ellipse class="st63" cx="345.55" cy="106.74" rx="20.86" ry="31.89"/>
<polygon class="st64" points="235.13,105.4 255.59,105.4 255.59,111.96 227.89,111.96 "/>
<rect x="301.78" y="105.4" class="st64" width="21.05" height="6.57"/>
<polygon class="st64" points="368.2,105.4 395.61,105.4 402.1,111.96 368.2,111.96 "/>
<polygon class="st65" points="268.85,70.32 271.67,67.84 275.47,64.84 277.79,63.97 282,63.21 287.22,63.21 290.34,63.21 
	294.63,63.21 296.81,63.21 297.48,63.21 298.64,63.97 298.64,65.72 298.64,67.68 298.64,69.5 297.48,70.32 297.24,71.15 
	291.5,71.98 289.37,71.98 286.73,71.98 283.75,71.98 279.11,71.98 275.64,71.98 272.33,71.98 271.17,71.98 270.01,71.98 "/>
<polygon class="st65" points="331.51,68.76 334.32,66.27 338.12,63.28 340.44,62.41 344.65,61.64 349.87,61.64 353,61.64 
	357.28,61.64 359.46,61.64 360.13,61.64 361.29,62.41 361.29,64.15 361.29,66.11 361.29,67.93 360.13,68.76 359.89,69.58 
	354.15,70.41 352.03,70.41 349.38,70.41 346.4,70.41 341.77,70.41 338.29,70.41 334.98,70.41 333.82,70.41 332.66,70.41 "/>
<polygon class="st14" points="294.9,75.86 297.06,74.47 298.96,73.83 300.49,73.2 302.14,73.2 303.28,73.2 304.68,73.2 
	306.58,73.71 307.98,73.96 310.33,73.96 311.91,73.83 314.45,73.71 316.61,72.44 318.52,71.8 321.06,71.17 322.84,71.17 
	324.23,71.17 326.01,71.93 327.79,72.82 328.93,73.52 329.57,74.34 326.01,73.52 324.1,72.94 322.58,72.82 319.79,73.52 
	318.26,74.47 316.36,75.01 313.95,75.86 311.15,75.86 307.98,75.86 306.07,75.01 303.66,75.01 302.39,75.01 300.74,75.01 
	299.09,75.86 297.57,75.86 "/>
<polygon class="st14" points="294.9,82.09 297.06,80.7 298.96,80.06 300.49,79.43 302.14,79.43 303.28,79.43 304.68,79.43 
	306.58,79.94 307.98,80.19 310.33,80.19 311.91,80.06 314.45,79.94 316.61,78.67 318.52,78.03 321.06,77.4 322.84,77.4 324.23,77.4 
	326.01,78.16 327.79,79.05 328.93,79.75 329.57,80.57 326.01,79.75 324.1,79.17 322.58,79.05 319.79,79.75 318.26,80.7 
	316.36,81.24 313.95,82.09 311.15,82.09 307.98,82.09 306.07,81.24 303.66,81.24 302.39,81.24 300.74,81.24 299.09,82.09 
	297.57,82.09 "/>
<polygon class="st66" points="279,156.91 275.78,158.51 272.32,161.02 269.46,164.17 266,167.66 263.15,171.78 260.3,175.91 
	257.21,180.95 254,185.47 251.97,188.35 249.6,193.57 247.23,197.82 245.82,203.3 244.64,207.85 248.08,201.45 251.35,196.72 
	255.09,190.13 257.47,185.88 259.54,181.79 263.29,176.68 266.14,172.07 269.36,168.52 271.97,164.33 "/>
<polygon class="st66" points="385.51,203.88 384.77,200.64 383.24,196.88 380.96,193.37 378.51,189.25 375.32,185.39 372.12,181.52 
	368.13,177.13 364.65,172.83 362.43,170.11 358.09,166.24 354.67,162.73 349.87,159.55 345.87,156.91 351.06,162.09 354.72,166.51 
	360.02,172.02 363.44,175.53 366.78,178.74 370.69,183.7 374.34,187.74 376.9,191.68 380.21,195.37 "/>
<polygon class="st67" points="277.81,160.94 276.54,161.62 276.03,162.46 276.03,163.31 276.03,164.67 275.35,166.87 274.93,168.99 
	274.42,171.88 274.42,175.86 273.57,180.01 273.57,182.64 273.57,189.51 274,195.95 274.67,199.43 275.69,202.91 276.71,206.47 
	279.76,212.23 281.46,214.52 282.47,216.3 283.83,216.98 283.24,212.57 283.24,210.79 283.83,209.6 285.44,214.27 288.16,220.03 
	290.78,223.51 293.07,226.14 295.45,228.51 297.23,229.78 297.99,229.78 297.99,227.83 297.4,225.12 297.31,223.76 299.43,227.83 
	301.21,230.21 302.91,231.9 304.94,233.77 307.4,235.29 309.69,236.74 311.39,237.58 313.01,238.18 313.51,238.18 314.69,237.58 
	317.83,235.8 320.71,234.19 322.66,232.67 324.7,230.55 326.56,228.34 328.09,225.71 328.94,223.85 328.94,225.8 328.43,228.17 
	328.01,229.61 328.43,230.04 329.53,229.61 330.46,228.43 333.35,225.97 335.64,223.42 337.16,221.3 338.94,218.34 340.21,215.45 
	341.4,212.15 342.16,209.69 342.16,211.3 342.76,213.25 342.76,215.2 342.08,217.24 342.76,217.06 343.86,216.22 345.47,213.93 
	347.17,210.88 349.03,207.99 349.88,205.19 351.16,200.8 352.05,195.33 352.05,191.84 352.33,185.63 351.92,178.11 351.44,174.56 
	350.14,167.45 349.39,164.31 348.84,162.46 347.41,160.94 346.45,160.94 "/>
<ellipse class="st68" cx="278.87" cy="106.74" rx="16.76" ry="24.65"/>
<polygon class="st69" points="262.54,101.22 265.18,92.53 268.94,86.88 271.74,84.43 275.61,82.56 278.87,82.09 281.5,82.39 
	284.35,83.44 285.57,84.14 287.36,85.49 289.22,87.36 290.39,88.84 292.34,92.08 293.51,94.73 294.25,96.94 294.75,98.85 
	294.75,99.91 294.75,100.61 295.2,101.22 "/>
<ellipse class="st68" cx="345.55" cy="106.74" rx="16.76" ry="24.65"/>
<polygon class="st69" points="329.22,101.22 331.86,92.53 335.62,86.88 338.42,84.43 342.29,82.56 345.55,82.09 348.18,82.39 
	351.03,83.44 352.25,84.14 354.04,85.49 355.9,87.36 357.07,88.84 359.02,92.08 360.18,94.73 360.93,96.94 361.43,98.85 
	361.43,99.91 361.43,100.61 361.88,101.22 "/>
<circle class="st70" cx="288.74" cy="116.77" r="5.53"/>
<circle class="st59" cx="291.46" cy="118.92" r="1.57"/>
<circle class="st70" cx="355.41" cy="116.77" r="5.53"/>
<circle class="st59" cx="358.13" cy="118.92" r="1.57"/>
<ellipse class="st71" cx="258.11" cy="137.75" rx="3.71" ry="6.69"/>
<ellipse class="st71" cx="252.78" cy="156.74" rx="3.71" ry="6.69"/>
<ellipse class="st71" cx="365.69" cy="137.75" rx="3.71" ry="6.69"/>
<ellipse class="st71" cx="371.91" cy="153.71" rx="3.71" ry="6.69"/>
<ellipse class="st71" cx="247.31" cy="175.73" rx="3.71" ry="6.69"/>
<ellipse class="st71" cx="241.97" cy="194.72" rx="3.71" ry="6.69"/>
<ellipse class="st71" cx="379.32" cy="170.13" rx="3.71" ry="6.69"/>
<ellipse class="st71" cx="385.54" cy="186.09" rx="3.71" ry="6.69"/>
<polygon class="st14" points="816.54,325.03 817.32,323.66 818.52,322.25 819.5,321.14 820.76,319.97 822.28,319.05 824.03,318.16 
	825.23,317.51 827.24,316.65 828.99,315.98 830.95,315.64 833.4,315.36 838.25,315.36 851.27,315.36 864.73,315.36 877.75,315.36 
	893.99,315.36 908.2,315.36 920.41,315.36 923.19,315.36 925.26,315.55 928.53,316.04 931.09,316.53 934.09,317.55 936.81,318.83 
	938.77,320.06 940.84,322.03 941.88,323.17 942.48,324.31 943.26,326.54 943.26,328.19 943.26,331.7 943.26,340.51 943.26,349.39 
	943.26,361.96 943.26,380.24 943.26,406.44 943.26,432.44 943.26,435.23 943.26,436.94 942.98,437.99 942.26,439.34 941.25,440.56 
	939.77,441.75 937.37,443.75 934.63,445.16 931.13,446.27 926.72,447.25 921.44,448.14 913.18,448.14 898.89,448.14 884.4,448.14 
	869.81,448.14 851.91,448.14 838.1,448.14 832.82,448.14 830.56,447.73 829.27,447.38 827.3,446.7 825.24,445.92 822.6,444.46 
	820.1,442.56 818.47,440.94 817.37,439.13 817.08,438.4 816.74,437.4 816.54,436.56 816.54,420.51 816.54,403.89 816.54,388.07 
	816.54,368.3 816.54,351.48 816.54,328.75 "/>
<polyline class="st72" points="840.21,401.88 840.7,402.55 841.01,402.88 841.33,403.25 841.66,403.62 842.1,404.1 842.6,404.64 
	843.11,405.16 843.65,405.64 844.11,406.07 844.64,406.59 845.24,407.15 845.76,407.59 846.29,407.98 846.91,408.44 847.55,408.88 
	848.26,409.4 848.81,409.78 849.57,410.23 850.22,410.58 850.94,410.96 851.81,411.37 852.79,411.73 853.5,411.98 854.33,412.25 
	855.21,412.44 856.13,412.62 857.07,412.73 857.43,412.76 859.3,412.76 859.97,412.72 860.72,412.64 861.54,412.53 862.4,412.37 
	863.31,412.12 864.05,411.91 864.81,411.67 865.65,411.4 866.9,410.94 867.88,410.63 868.94,410.32 869.99,410.03 870.73,409.88 
	871.41,409.7 872.25,409.55 873.04,409.44 873.79,409.38 874.75,409.34 875.61,409.29 876.64,409.28 877.79,409.32 878.81,409.36 
	879.67,409.39 880.63,409.44 881.46,409.56 882.25,409.68 883.12,409.84 883.9,410.01 884.71,410.22 885.43,410.42 886.18,410.65 
	886.91,410.9 887.68,411.19 888.46,411.44 889.34,411.73 890.11,411.98 890.96,412.24 891.59,412.41 892.07,412.54 892.69,412.64 
	893.47,412.71 894.28,412.76 895.08,412.76 896.26,412.76 896.98,412.71 897.68,412.59 898.43,412.41 899.15,412.24 899.93,412 
	900.61,411.76 901.23,411.5 901.86,411.22 902.58,410.87 903.4,410.46 904.04,410.06 904.66,409.67 905.22,409.24 905.75,408.8 
	906.45,408.3 907.19,407.81 907.8,407.28 908.44,406.78 908.9,406.32 909.5,405.81 909.96,405.38 910.5,404.79 911.05,404.25 
	911.46,403.83 911.91,403.35 912.34,402.88 912.77,402.44 913.01,402.12 913.17,401.83 913.05,401.88 906.32,401.88 894.87,401.88 
	880.96,401.88 864.24,401.88 847.39,401.88 840.21,401.88 "/>
<polyline class="st73" points="832.75,391.07 832.88,391.32 833.07,391.64 833.27,392.03 833.42,392.36 833.62,392.66 
	833.81,393.01 834.05,393.4 834.31,393.77 834.55,394.2 834.75,394.52 835.05,394.97 835.35,395.41 835.61,395.78 835.79,396.06 
	835.99,396.38 836.2,396.71 836.45,397.08 836.65,397.37 836.88,397.7 837.12,398.05 837.35,398.34 837.61,398.73 837.91,399.12 
	838.19,399.57 838.45,399.9 838.87,400.38 839.16,400.76 839.55,401.18 839.87,401.51 840.11,401.78 840.21,401.88 842.38,401.88 
	843.45,401.88 857.47,401.88 867.29,401.88 880.96,401.88 894.87,401.88 908.3,401.88 913.05,401.88 913.17,401.83 913.3,401.73 
	913.48,401.53 913.81,401.12 914.42,400.31 914.94,399.61 915.92,398.41 916.66,397.46 917.45,396.35 918.28,395.19 919.05,394.05 
	919.7,393.01 920.32,392.04 920.78,391.34 920.95,391.02 920.89,391.07 917.52,391.07 906.95,391.07 894.53,391.07 877.17,391.07 
	858.32,391.07 839.52,391.07 832.75,391.07 "/>
<polyline class="st74" points="829.06,380.44 829.14,380.91 829.24,381.43 829.43,382.08 829.6,382.64 829.78,383.19 830,383.9 
	830.28,384.81 830.59,385.82 830.85,386.68 831.16,387.56 831.46,388.25 831.81,389.11 832.1,389.72 832.41,390.37 832.75,391.07 
	833.35,391.07 845.84,391.07 860.22,391.07 872.71,391.07 887.2,391.07 910.22,391.07 920.7,391.07 920.89,391.07 920.95,391.02 
	921.02,390.94 921.14,390.8 921.31,390.63 921.4,390.49 921.42,390.45 921.22,390.4 920.91,390.31 920.61,390.24 920.22,390.13 
	919.53,389.89 918.88,389.67 918.16,389.4 917.39,389.08 916.73,388.79 916.22,388.51 915.65,388.16 915.15,387.86 914.74,387.62 
	914.24,387.32 913.74,386.97 913.23,386.62 912.85,386.3 912.34,385.93 911.9,385.58 911.37,385.13 910.86,384.66 910.46,384.28 
	910.03,383.83 909.72,383.5 909.18,382.89 908.69,382.26 908.33,381.66 908.16,381.19 907.98,380.77 907.94,380.44 "/>
<polyline class="st75" points="828.72,369.72 828.62,370.05 828.55,370.54 828.5,370.93 828.46,371.51 828.43,371.96 828.37,372.37 
	828.33,372.78 828.27,373.44 828.27,373.9 828.3,374.73 828.33,375.21 828.39,375.78 828.44,376.38 828.5,376.96 828.57,377.66 
	828.64,378.16 828.72,378.79 828.84,379.44 828.93,379.96 829.06,380.44 829.5,380.44 834.92,380.44 839.83,380.44 853.82,380.44 
	866.61,380.44 888.29,380.44 907.66,380.44 907.94,380.44 907.91,380.42 907.88,380.38 907.83,380.33 907.79,380.26 907.75,380.2 
	907.68,380.1 907.6,379.96 907.5,379.79 907.43,379.67 907.36,379.51 907.28,379.36 907.18,379.19 907.09,379.01 906.98,378.78 
	906.91,378.6 906.84,378.41 906.74,378.16 906.67,377.89 906.57,377.62 906.49,377.38 906.39,377.11 906.32,376.86 906.26,376.56 
	906.22,376.38 906.14,376 906.06,375.62 906,375.3 905.98,374.96 905.96,374.3 905.95,373.75 905.95,372.96 905.96,372.33 
	906.01,371.83 906.06,371.35 906.13,371.02 906.21,370.44 906.25,369.99 906.32,369.7 906.23,369.72 905.64,369.72 900.66,369.72 
	894.29,369.72 886.72,369.72 876.77,369.72 867.34,369.72 856.41,369.72 845.73,369.72 834.39,369.72 828.72,369.72 "/>
<polyline class="st76" points="833.28,358.92 832.99,359.25 832.67,359.67 832.34,360.11 831.98,360.65 831.56,361.36 831.1,362.21 
	830.63,363.12 830.28,363.95 829.92,364.85 829.72,365.61 829.54,366.35 829.23,367.42 829.04,368.11 828.88,368.75 828.77,369.47 
	828.74,369.64 828.72,369.72 829.08,369.72 836.41,369.72 852.01,369.72 876.15,369.72 905.12,369.72 906.04,369.72 906.23,369.72 
	906.32,369.7 906.35,369.65 906.38,369.57 906.44,369.36 906.5,369.16 906.58,368.84 906.68,368.54 906.78,368.27 906.85,368.01 
	906.92,367.72 906.99,367.54 907.12,367.22 907.29,366.87 907.46,366.52 907.62,366.18 907.81,365.81 908.07,365.4 908.29,365.01 
	908.56,364.54 908.81,364.18 909.02,363.88 909.24,363.6 909.48,363.26 909.74,362.88 910.1,362.48 910.45,362.1 910.78,361.8 
	911.18,361.46 911.54,361.13 912,360.76 912.48,360.39 912.9,360.09 913.46,359.73 913.83,359.5 914.13,359.26 914.43,359 
	894.32,359 861.08,359 833.28,358.92 "/>
<polygon class="st77" points="873.12,349.17 873.03,348.74 872.94,348.13 872.94,347.42 872.94,346.84 872.94,346.23 872.94,345.69 
	872.99,345.3 873.08,344.81 873.18,344.3 873.35,343.71 873.53,343.1 873.78,342.41 874.15,341.57 874.41,341.05 874.71,340.5 
	875.07,339.99 875.42,339.41 875.75,338.94 876.12,338.46 876.51,338.02 876.83,337.53 877.3,337.03 877.7,336.58 878.13,336.16 
	878.57,335.76 879.16,335.24 879.75,334.67 880.33,334.25 880.83,333.86 881.55,333.34 882.36,332.86 883.14,332.4 883.98,331.95 
	884.92,331.53 885.88,331.03 886.91,330.64 887.96,330.22 889.17,329.89 890.25,329.54 891.37,329.28 892.45,329.07 893.54,328.92 
	894.44,328.82 894.81,328.8 895.11,328.8 895.36,328.8 895.46,328.77 895.51,328.88 895.55,329.02 895.62,329.37 895.66,329.81 
	895.7,330.32 895.7,330.74 895.7,331.18 895.7,331.71 895.7,331.95 895.65,332.32 895.61,332.67 895.51,333.06 895.38,333.7 
	895.23,334.21 895.05,334.8 894.92,335.27 894.73,335.82 894.49,336.37 894.21,336.93 893.94,337.5 893.65,338.02 893.38,338.48 
	893.1,338.92 892.66,339.5 892.22,340.04 891.89,340.43 891.42,341.07 891.12,341.38 890.78,341.77 890.38,342.19 889.9,342.68 
	889.52,343.05 888.98,343.55 888.56,343.85 888.07,344.23 887.39,344.69 886.89,345.05 886.44,345.31 885.87,345.66 885.2,346.07 
	884.53,346.44 883.74,346.86 882.98,347.18 882.22,347.47 881.33,347.79 880.34,348.08 879.29,348.38 878.26,348.64 876.99,348.89 
	875.91,349.01 874.95,349.12 874.17,349.17 "/>
<polygon class="st77" points="833.28,358.92 833.74,358.45 834.53,357.65 835.53,356.65 836.34,355.89 837.29,355.07 838.34,354.3 
	839.34,353.64 840.25,353.01 841.33,352.4 842.49,351.8 843.87,351.15 845.18,350.64 846.36,350.17 847.78,349.7 849.22,349.29 
	850.08,349.09 850.76,348.93 851.45,348.83 852.33,348.66 853.04,348.57 853.87,348.5 854.84,348.5 857.5,348.5 858.37,348.54 
	859.11,348.62 860.01,348.75 860.97,348.9 862.21,349.11 863.14,349.3 864.18,349.52 865.38,349.86 866.66,350.22 867.85,350.52 
	868.87,350.81 870.04,351.14 871.23,351.47 872.19,351.67 873,351.81 874.06,351.9 874.97,352.05 875.99,352.17 877.08,352.17 
	877.57,352.17 878.02,352.09 878.63,352 879.39,351.89 880.23,351.77 881.12,351.65 882.07,351.45 882.72,351.26 883.4,351.07 
	884.12,350.86 885.13,350.58 885.98,350.33 886.91,350.06 887.75,349.81 888.56,349.63 889.31,349.44 890.17,349.24 890.83,349.11 
	891.48,349.02 892.23,348.9 892.87,348.8 893.67,348.74 894.53,348.63 895.24,348.58 895.76,348.5 896.71,348.5 898.1,348.5 
	899.08,348.5 899.93,348.58 900.7,348.69 901.53,348.83 902.44,348.98 903.29,349.17 904.18,349.37 904.96,349.61 905.79,349.9 
	906.66,350.21 907.36,350.4 908.15,350.67 908.79,350.92 909.66,351.29 910.37,351.63 911.12,351.99 911.75,352.33 912.44,352.69 
	912.97,353.04 913.43,353.31 914.04,353.71 914.66,354.11 915.17,354.47 915.78,354.93 916.34,355.36 916.81,355.77 917.21,356.15 
	917.64,356.58 917.97,356.9 918.07,357.01 918.07,357.06 918.02,357.1 917.89,357.18 917.65,357.3 917.18,357.51 916.59,357.76 
	916.04,358.03 915.6,358.26 915.27,358.44 914.96,358.68 914.67,358.86 914.51,358.98 914.43,359 914.28,359 912.13,359 904.59,359 
	896.45,359 887.7,359 880.92,359 875.88,359 869.94,359 863.28,359 856.2,359 846.2,359 "/>
</svg>
