<?xml version="1.0" encoding="utf-8"?>
<!-- Generator: Adobe Illustrator 25.1.0, SVG Export Plug-In . SVG Version: 6.00 Build 0)  -->
<svg version="1.1" id="Layer_1" xmlns="http://www.w3.org/2000/svg" xmlns:xlink="http://www.w3.org/1999/xlink" x="0px" y="0px"
	 viewBox="0 0 1158.36 450.06" style="enable-background:new 0 0 1158.36 450.06;" xml:space="preserve">
<style type="text/css">
	.st0{fill:#FFFFFF;stroke:#000000;stroke-width:5;stroke-miterlimit:10;}
	.st1{fill:#A47449;stroke:#654321;stroke-width:5;stroke-miterlimit:10;}
	.st2{fill:#654321;stroke:#654321;stroke-width:5;stroke-miterlimit:10;}
	.st3{fill:#D48BFF;stroke:#D48BFF;stroke-width:3;stroke-miterlimit:10;}
	.st4{font-family:'ArialMT';}
	.st5{font-size:18.01px;}
	.st6{fill:#696969;stroke:#A9A9A9;stroke-width:3;stroke-miterlimit:10;}
	.st7{fill:#8BFFBC;stroke:#A9A9A9;stroke-miterlimit:10;}
	.st8{fill:#2EFFC1;stroke:#A9A9A9;stroke-miterlimit:10;}
	.st9{stroke:#000000;stroke-miterlimit:10;}
	.st10{fill:#AFAEB2;stroke:#000000;stroke-miterlimit:10;}
	.st11{fill:#8E8D91;stroke:#000000;stroke-miterlimit:10;}
	.st12{fill:#86D6DA;stroke:#000000;stroke-width:0.5;stroke-miterlimit:10;}
	.st13{fill:#868589;stroke:#000000;stroke-width:0.5;stroke-miterlimit:10;}
	.st14{fill:#98D4D9;stroke:#000000;stroke-width:0.5;stroke-miterlimit:10;}
	.st15{fill:#ACAEB1;stroke:#000000;stroke-miterlimit:10;}
	.st16{fill:#5CB7A4;stroke:#000000;stroke-width:0.25;stroke-miterlimit:10;}
	.st17{fill:#8A898D;stroke:#000000;stroke-width:0.25;stroke-miterlimit:10;}
	.st18{fill:#73B5A5;stroke:#000000;stroke-width:0.25;stroke-miterlimit:10;}
	.st19{fill:#87868A;stroke:#000000;stroke-width:0.25;stroke-miterlimit:10;}
	.st20{fill:#82B3A6;stroke:#000000;stroke-width:0.25;stroke-miterlimit:10;}
	.st21{fill:#8D8C90;stroke:#000000;stroke-width:0.25;stroke-miterlimit:10;}
	.st22{fill:none;stroke:#000000;stroke-miterlimit:10;}
	.st23{fill:none;stroke:#000000;stroke-width:0.5;stroke-miterlimit:10;}
	.st24{fill:#555358;stroke:#000000;stroke-width:0.5;stroke-miterlimit:10;}
	.st25{fill:#B7B7B9;stroke:#000000;stroke-width:0.5;stroke-miterlimit:10;}
	.st26{fill:#505150;stroke:#000000;stroke-width:0.5;stroke-miterlimit:10;}
	.st27{fill:#F3AB40;}
	.st28{fill:#E9AD55;}
	.st29{fill:#43967F;}
	.st30{fill:#245EA9;}
	.st31{fill:#ADAEB1;}
	.st32{fill:none;}
	.st33{fill:#599480;}
	.st34{fill:#2964BF;}
	.st35{fill:#C6332A;}
	.st36{fill:#FFF2EB;stroke:#000000;stroke-miterlimit:10;}
	.st37{fill:#FFF7F3;stroke:#000000;stroke-miterlimit:10;}
	.st38{fill:#6C707F;stroke:#000000;stroke-miterlimit:10;}
	.st39{fill:#FFC4A6;stroke:#000000;stroke-miterlimit:10;}
	.st40{fill:#FFDAC3;stroke:#000000;stroke-miterlimit:10;}
	.st41{fill:#E5EAFF;stroke:#000000;stroke-miterlimit:10;}
	.st42{fill:#CB997E;stroke:#000000;stroke-miterlimit:10;}
	.st43{fill:url(#SVGID_1_);stroke:#000000;stroke-miterlimit:10;}
	.st44{fill:url(#SVGID_2_);stroke:#000000;stroke-miterlimit:10;}
	.st45{fill:none;stroke:#000817;stroke-miterlimit:10;}
	.st46{fill:#26272A;stroke:#000000;stroke-miterlimit:10;}
	.st47{fill:#3E3F44;stroke:#000000;stroke-miterlimit:10;}
	.st48{fill:#52545A;stroke:#000000;stroke-miterlimit:10;}
	.st49{fill:#282A2E;stroke:#000000;stroke-miterlimit:10;}
	.st50{fill:#2B2C31;stroke:#000817;stroke-miterlimit:10;}
	.st51{fill:none;stroke:#000000;stroke-width:0.25;stroke-miterlimit:10;}
	.st52{fill:#00B98F;stroke:#000817;stroke-miterlimit:10;}
	.st53{fill:#56585D;stroke:#000817;stroke-miterlimit:10;}
	.st54{fill:#FFFFFF;stroke:#000000;stroke-miterlimit:10;}
	.st55{fill:#FFFFFF;stroke:#000817;stroke-miterlimit:10;}
	.st56{fill:#948F8F;stroke:#000817;stroke-miterlimit:10;}
	.st57{fill:#1F2023;stroke:#000817;stroke-miterlimit:10;}
	.st58{opacity:0.73;fill:#ADB2AE;stroke:#4D4545;stroke-width:7;stroke-miterlimit:10;enable-background:new    ;}
	.st59{fill:#4D4545;stroke:#4D4545;stroke-width:3;stroke-miterlimit:10;}
	.st60{fill:#B2B1AA;stroke:#000000;stroke-miterlimit:10;}
	.st61{stroke:#000000;stroke-width:0.75;stroke-miterlimit:10;}
	.st62{fill:#B2B1AA;stroke:#000000;stroke-width:0.75;stroke-miterlimit:10;}
	.st63{fill:#FFFFFF;stroke:#ECBCB4;stroke-miterlimit:10;}
	.st64{fill:#ECBCB4;stroke:#ECBCB4;stroke-miterlimit:10;}
	.st65{stroke:#A27100;stroke-miterlimit:10;}
	.st66{fill:#8BE1FF;stroke:#A27100;stroke-width:0.25;stroke-miterlimit:10;}
	.st67{fill:#439CD6;}
	.st68{fill:#8B4593;}
	.st69{fill:#CE4844;}
	.st70{fill:#E6873B;}
	.st71{fill:#EDB649;}
	.st72{fill:#79BA58;}
</style>
<rect x="-28.13" y="2.5" class="st0" width="1272.9" height="445.06"/>
<polygon class="st1" points="-27.38,2.5 -27.38,447.12 1245.52,447.12 1245.52,2.81 "/>
<rect x="-27.38" y="16.01" class="st2" width="1272.15" height="17.01"/>
<rect x="-26.82" y="267.01" class="st2" width="1272.15" height="17.01"/>
<path class="st3" d="M80.93,55.79h125.63c15.46,0,28,12.54,28,28v28.06c0,15.46-12.54,28-28,28H80.93c-15.46,0-28-12.54-28-28V83.79
	C52.93,68.33,65.47,55.79,80.93,55.79z"/>
<polyline class="st3" points="228.55,115.83 228.55,135.34 209.04,135.34 "/>
<text transform="matrix(1 0 0 1 88.0694 100.54)" class="st4 st5">Is it </text>
<text transform="matrix(1 0 0 1 117.3194 100.54)" class="st4 st5">t</text>
<text transform="matrix(1 0 0 1 123.1794 100.54)" class="st4 st5">e</text>
<text transform="matrix(1 0 0 1 132.1994 100.54)" class="st4 st5">rr</text>
<text transform="matrix(1 0 0 1 144.1194 100.54)" class="st4 st5">ifying~?</text>
<polygon class="st6" points="157.81,447.12 133.98,369.51 157.81,295.97 247.97,295.97 270.59,371.54 247.97,447.12 "/>
<rect x="161" y="315.47" class="st7" width="85.46" height="54.57"/>
<ellipse transform="matrix(0.9521 -0.3057 0.3057 0.9521 -115.0332 69.1743)" class="st7" cx="163.35" cy="401.88" rx="7.31" ry="14.3"/>
<ellipse transform="matrix(0.4072 -0.9133 0.9133 0.4072 -220.9381 462.7779)" class="st7" cx="246.04" cy="401.59" rx="14.3" ry="7.31"/>
<polygon class="st8" points="197.03,405.54 219.54,405.54 227.94,390.52 178.97,390.52 188.51,405.54 "/>
<ellipse class="st7" cx="174.15" cy="433.28" rx="14.3" ry="7.31"/>
<ellipse class="st7" cx="205.67" cy="433.28" rx="14.3" ry="7.31"/>
<ellipse class="st7" cx="237.19" cy="433.28" rx="14.3" ry="7.31"/>
<path class="st6" d="M494.23,447.12c0,0-3-95.09,0-104.37s31.53-37.79,79.57-37.79s65.23,27.55,66.39,37.79s0,104.37,0,104.37"/>
<path class="st9" d="M510.75,345.54v21.47c0,0,13.51-0.46,16.51-0.46s9-1,9-10.27s-6.43-10.74-9.22-10.74H510.75z"/>
<path class="st9" d="M510.75,387.54v21.47c0,0,13.51-0.46,16.51-0.46s9-1,9-10.27s-6.43-10.74-9.22-10.74H510.75z"/>
<path class="st9" d="M554.28,345.54v21.47c0,0,13.51-0.46,16.51-0.46s9-1,9-10.27s-6.43-10.74-9.22-10.74H554.28z"/>
<path class="st9" d="M554.28,387.54v21.47c0,0,13.51-0.46,16.51-0.46s9-1,9-10.27s-6.43-10.74-9.22-10.74H554.28z"/>
<path class="st9" d="M554.28,420.54v21.48c0,0,13.51-0.46,16.51-0.46s9-1,9-10.28s-6.43-10.74-9.22-10.74H554.28z"/>
<path class="st9" d="M600.82,387.54v21.47c0,0,13.51-0.46,16.51-0.46s9-1,9-10.27s-6.44-10.74-9.22-10.74H600.82z"/>
<path class="st9" d="M602.32,420.54v21.48c0,0,13.51-0.46,16.51-0.46s9-1,9-10.28s-6.44-10.74-9.22-10.74H602.32z"/>
<polygon class="st10" points="852.79,271.89 819.08,271.89 818.81,271.8 818.55,271.68 818.31,271.52 818.02,271.3 817.67,271.03 
	817.37,270.8 817.15,270.59 816.9,270.43 816.77,270.28 816.72,270.11 816.72,269.92 816.72,269.69 816.72,268.16 816.72,266.28 
	816.72,264.58 816.72,262.68 816.72,261.79 816.72,261.29 816.72,258.53 816.9,258.31 817.22,258.28 817.78,258.22 818.17,258.16 
	818.86,258.05 819.38,257.96 820.13,257.81 820.85,257.61 821.48,257.44 822.13,257.26 822.95,256.96 823.25,256.86 823.53,256.77 
	823.76,256.67 823.95,256.6 824.13,256.52 824.38,256.42 824.69,256.28 825.01,256.13 825.36,255.98 825.75,255.79 826.17,255.57 
	826.49,255.39 826.82,255.2 827.25,254.92 827.6,254.68 828.02,254.38 828.28,254.21 828.57,254.01 828.89,253.82 829.1,253.67 
	829.37,253.46 829.62,253.29 829.89,253.1 830.23,252.8 830.52,252.53 830.71,252.35 830.95,252.1 831.16,251.88 831.38,251.66 
	831.58,251.48 831.81,251.27 832.08,250.97 832.29,250.74 832.6,250.38 832.88,250.02 833.15,249.62 833.42,249.27 833.68,248.83 
	833.94,248.44 834.34,247.88 834.66,247.3 834.89,246.77 835.18,246.18 835.51,245.46 835.81,244.69 836.1,243.82 836.39,242.85 
	836.67,241.61 836.81,240.97 836.95,240.16 837,239.25 837.04,237.86 837,236.17 836.96,235.03 836.82,234.15 836.56,233.15 
	836.27,232.15 835.92,231.06 835.5,229.93 834.98,228.8 834.41,227.88 833.83,226.98 832.94,225.71 832.31,224.96 831.67,224.23 
	831.07,223.59 830.3,222.84 829.45,222.1 828.53,221.37 827.78,220.81 826.91,220.29 825.65,219.6 824.41,219.03 823.7,218.71 
	822.53,218.26 821.81,217.95 820.88,217.62 819.95,217.38 818.81,217.16 817.7,216.95 816.85,216.88 815.89,216.82 814.76,216.8 
	813.62,216.8 812.99,216.8 811.99,216.85 811.03,216.95 810.09,217.14 809.28,217.3 808.63,217.46 807.83,217.65 806.99,217.94 
	806.31,218.15 805.62,218.4 805.05,218.66 804.34,218.97 803.57,219.4 802.73,219.91 802.02,220.25 801.17,220.75 800.5,221.24 
	799.78,221.81 799.27,222.22 798.69,222.71 798.03,223.28 797.46,223.91 796.81,224.61 796.29,225.22 795.65,226.01 795.1,226.91 
	794.65,227.77 794.15,228.73 793.74,229.57 793.31,230.35 792.96,231.31 792.74,231.93 792.49,232.68 792.34,233.57 792.2,234.38 
	792.07,235.23 792.04,236.08 792.03,236.84 792.03,237.74 792.04,238.54 792.08,239.22 792.18,240.03 792.31,240.89 792.43,241.61 
	792.66,242.41 792.93,243.58 793.35,244.59 793.87,245.79 794.61,247.12 795.33,248.39 796.15,249.56 797.06,250.65 797.86,251.53 
	798.72,252.35 799.85,253.34 800.9,254.17 801.91,254.85 802.96,255.45 804.18,256.08 805.14,256.54 806.54,257.15 808.09,257.68 
	809.49,258.05 810.59,258.29 811.36,258.4 811.68,258.45 811.89,258.46 812.22,258.49 812.52,258.55 812.64,258.59 812.75,258.69 
	812.71,262.37 812.73,265.6 812.74,268.61 812.75,269.81 812.68,270.02 812.52,270.16 812.35,270.32 812.05,270.57 811.77,270.84 
	811.56,271.02 811.27,271.3 810.97,271.55 810.65,271.75 810.22,271.89 809.73,271.89 809.01,271.89 806.41,271.89 799.93,271.89 
	792.43,271.89 786,271.89 779.71,271.89 777.96,271.89 777.41,271.69 776.65,271.37 775.93,271.04 775.41,270.76 774.65,270.12 
	773.93,269.32 773.52,268.64 773.04,267.92 772.68,267.04 772.68,266.12 772.68,259.22 772.68,241.04 772.68,215.22 772.68,184.85 
	772.68,153.66 772.68,117.57 772.68,84.51 772.68,65.47 772.68,64.07 772.86,63.28 773.23,62.49 773.71,61.98 774.28,61.3 
	774.93,60.67 775.67,60.22 776.52,60.02 777.42,60.02 784.3,60.02 803.77,60.02 822.89,60.02 835.53,60.02 846.28,60.02 
	850.72,60.02 852.4,60.02 853.47,60.33 854.22,60.7 855.01,61.41 855.38,62.15 855.99,62.34 856.74,62.34 857.62,62.34 
	858.56,62.38 881.76,62.39 906.73,62.48 928.58,62.7 949.02,62.7 965.46,62.7 980.28,62.74 991.62,62.88 1003.38,63.08 
	1004.3,63.06 1005.2,62.65 1006.02,62.13 1006.69,61.49 1007.25,61.01 1007.62,60.67 1008.29,60.41 1009.41,60.26 1010.79,60.23 
	1018.55,60.02 1035.94,60.02 1067.7,60.02 1087.48,60.02 1089,60.29 1090.33,60.66 1091.44,61.2 1092.6,61.98 1093.47,63.02 
	1094.09,64.42 1094.3,66.28 1094.3,68.06 1094.3,90.93 1094.3,118.42 1094.3,147.32 1094.3,179.54 1094.3,206.93 1094.3,233.38 
	1094.3,259.63 1094.3,266.36 1094.3,267.51 1094.13,268.44 1093.85,269.17 1093.41,269.7 1092.79,270.28 1091.96,270.81 
	1091.15,271.09 1090.03,271.43 1088.99,271.63 1087.17,271.89 1085.31,271.89 1081.38,271.89 1074.01,271.89 1063.51,271.89 
	1051.82,271.89 1041.2,271.89 1031.76,271.89 1014.88,271.89 1014.23,271.77 1013.64,271.52 1013.21,271.25 1012.92,270.8 
	1012.81,270.28 1012.76,269.7 1012.74,269.2 1012.72,268.89 1012.54,268.66 1012.22,268.57 1011.79,268.55 1011.34,268.53 
	1009.99,268.5 1007.65,268.5 998.14,268.49 977.94,268.44 964.12,268.41 948.45,268.33 927.76,268.3 910,268.3 890.73,268.3 
	868.76,268.33 857.64,268.22 857.19,268.22 856.75,268.3 856.4,268.63 856.11,269.13 855.92,269.65 855.7,270.19 855.28,270.54 
	854.93,270.89 854.45,271.33 853.68,271.68 853.35,271.89 "/>
<polygon class="st11" points="1032.87,228.78 1032.59,229.25 1032.25,229.95 1031.81,230.79 1031.53,231.55 1031.2,232.48 
	1030.9,233.42 1030.64,234.28 1030.39,235.29 1030.29,235.92 1030.23,236.87 1030.23,237.7 1030.23,239.35 1030.23,239.91 
	1030.23,240.53 1030.36,241.22 1030.53,242.03 1030.64,242.81 1030.87,243.67 1031.07,244.29 1031.25,244.93 1031.55,245.69 
	1031.77,246.25 1032.04,246.87 1032.35,247.5 1032.62,248.11 1032.97,248.6 1033.32,249.18 1033.78,249.8 1034.19,250.42 
	1034.7,250.99 1035.15,251.56 1035.61,252.03 1036.09,252.6 1036.52,253.08 1036.98,253.4 1037.58,253.9 1038.19,254.37 
	1038.68,254.76 1039.11,255.08 1039.65,255.5 1040.31,255.81 1041.05,256.28 1041.69,256.64 1042.41,257.01 1043.14,257.34 
	1043.82,257.58 1044.49,257.85 1045.18,258.07 1045.77,258.27 1046.44,258.49 1047.12,258.7 1047.9,258.82 1048.6,258.98 
	1049.4,259.06 1050.27,259.17 1050.99,259.17 1052.18,259.17 1054.7,259.17 1055.54,259.17 1056.32,259.03 1057.08,258.95 
	1057.78,258.77 1058.52,258.58 1059.36,258.41 1059.98,258.22 1060.84,257.93 1061.76,257.57 1062.53,257.18 1063.39,256.83 
	1064.06,256.47 1064.77,256.05 1065.44,255.67 1066.13,255.21 1066.68,254.81 1067.29,254.32 1067.8,253.87 1068.45,253.3 
	1068.98,252.84 1069.39,252.46 1069.95,251.88 1070.36,251.39 1070.74,250.93 1071.17,250.32 1071.59,249.72 1072,249.15 
	1072.29,248.68 1072.61,248.13 1072.91,247.55 1073.16,247.06 1073.48,246.47 1073.75,245.85 1074.05,245.12 1074.29,244.54 
	1074.47,243.97 1074.6,243.4 1074.74,242.65 1074.85,242.11 1074.95,241.58 1075.02,241.07 1075.02,240.18 1075.02,239.35 
	1075.02,236.97 1075.02,236.36 1075.02,235.74 1074.85,234.85 1074.56,233.94 1074.31,233.07 1074.05,232.22 1073.75,231.49 
	1073.42,230.71 1072.99,229.82 1072.69,229.23 1072.33,228.58 1071.91,227.78 1071.48,227.18 1070.97,226.46 1070.34,225.71 
	1069.63,224.95 1069.17,224.47 1068.56,223.87 1067.77,223.21 1067.16,222.69 1066.51,222.19 1065.75,221.65 1064.92,221.14 
	1064.15,220.67 1063.26,220.22 1062.37,219.81 1061.43,219.41 1060.64,219.09 1059.81,218.8 1059.01,218.52 1058.2,218.29 
	1057.44,218.12 1056.54,217.94 1055.62,217.82 1054.7,217.74 1054,217.74 1050.89,217.74 1050.21,217.82 1049.49,217.93 
	1048.89,217.99 1048.03,218.17 1047.23,218.34 1046.5,218.52 1045.77,218.71 1045.11,218.88 1044.54,219.11 1043.94,219.34 
	1043.25,219.62 1042.61,219.85 1041.93,220.16 1041.26,220.52 1040.63,220.87 1040,221.27 1039.27,221.75 1038.73,222.15 
	1038.16,222.59 1037.7,222.94 1037.2,223.34 1036.66,223.82 1036.28,224.22 1035.69,224.77 1035.36,225.19 1034.93,225.66 
	1034.56,226.09 1034.11,226.59 1033.68,227.16 1033.38,227.67 "/>
<polygon class="st11" points="793.65,191.74 793.77,191.11 793.95,190.33 794.14,189.73 794.33,189.09 794.6,188.6 794.87,188.11 
	795.17,187.59 795.5,187.11 795.88,186.56 796.25,186.08 796.8,185.64 797.31,185.3 797.82,184.89 798.36,184.48 798.85,184.23 
	799.45,183.91 800.05,183.62 800.77,183.4 801.45,183.21 802.09,183.08 802.66,183 803.29,182.91 803.88,182.91 804.62,182.91 
	805.13,182.91 805.84,183.02 806.35,183.15 807.05,183.32 807.67,183.53 808.38,183.75 809.06,184.07 809.81,184.45 810.32,184.8 
	810.87,185.22 811.44,185.7 812.01,186.3 812.5,186.86 813,187.33 813.28,187.86 813.62,188.43 813.98,189 814.31,189.67 
	814.38,190.17 814.6,191.13 814.68,191.89 814.68,192.82 814.68,193.66 814.6,194.69 814.47,195.39 814.3,195.91 813.98,196.52 
	813.62,197.17 813.27,197.82 812.85,198.29 812.42,198.9 811.97,199.37 811.47,199.82 811.11,200.09 810.65,200.42 810.06,200.8 
	809.68,201.01 809.16,201.32 808.68,201.54 808.06,201.8 807.49,201.96 806.94,202.12 806.4,202.23 805.83,202.37 805,202.37 
	804.16,202.37 803.5,202.37 803.24,202.37 802.78,202.37 802.04,202.26 801.36,202.1 800.86,201.89 800.09,201.7 799.53,201.42 
	798.88,201.12 798.22,200.69 797.55,200.25 797.02,199.78 796.49,199.28 795.96,198.74 795.58,198.23 795.15,197.61 794.76,196.99 
	794.36,196.36 794.15,195.76 793.93,195.12 793.74,194.49 793.65,193.82 793.65,193.04 793.65,192.3 "/>
<polygon class="st11" points="817.78,258.22 818.17,258.16 818.86,258.05 819.38,257.96 820.13,257.81 820.85,257.61 821.48,257.44 
	822.13,257.26 822.95,256.96 823.25,256.86 823.53,256.77 823.76,256.67 824.13,256.52 824.38,256.42 824.69,256.28 825.01,256.13 
	825.36,255.98 825.75,255.79 826.17,255.57 826.49,255.39 826.82,255.2 827.25,254.92 827.6,254.68 828.02,254.38 828.57,254.01 
	828.89,253.82 829.37,253.46 829.62,253.29 829.89,253.1 830.23,252.8 830.52,252.53 830.95,252.1 831.16,251.88 831.58,251.48 
	831.81,251.27 832.29,250.74 832.6,250.38 832.88,250.02 833.15,249.62 833.42,249.27 833.68,248.83 833.94,248.44 834.34,247.88 
	834.66,247.3 834.89,246.77 835.18,246.18 835.51,245.46 835.81,244.69 836.1,243.82 836.39,242.85 836.67,241.61 836.81,240.97 
	836.95,240.16 837,239.25 837.04,237.86 837,236.17 836.96,235.03 836.82,234.15 836.56,233.15 836.27,232.15 835.92,231.06 
	835.5,229.93 834.98,228.8 834.41,227.88 833.83,226.98 832.94,225.71 832.31,224.96 831.67,224.23 831.07,223.59 830.3,222.84 
	829.45,222.1 828.53,221.37 827.78,220.81 826.91,220.29 825.65,219.6 824.41,219.03 823.7,218.71 822.53,218.26 821.81,217.95 
	820.88,217.62 819.95,217.38 818.81,217.16 817.7,216.95 816.85,216.88 815.89,216.82 814.76,216.8 813.62,216.8 812.99,216.8 
	811.99,216.85 811.03,216.95 810.09,217.14 809.28,217.3 808.63,217.46 807.83,217.65 806.99,217.94 806.31,218.15 805.62,218.4 
	805.05,218.66 804.34,218.97 803.57,219.4 802.73,219.91 802.02,220.25 801.17,220.75 800.5,221.24 799.78,221.81 799.27,222.22 
	798.69,222.71 798.03,223.28 797.46,223.91 796.81,224.61 796.29,225.22 795.65,226.01 795.1,226.91 794.65,227.77 794.15,228.73 
	793.74,229.57 793.31,230.35 792.96,231.31 792.74,231.93 792.49,232.68 792.34,233.57 792.2,234.38 792.07,235.23 792.04,236.08 
	792.03,236.84 792.03,237.74 792.04,238.54 792.08,239.22 792.18,240.03 792.31,240.89 792.43,241.61 792.66,242.41 792.93,243.58 
	793.35,244.59 793.87,245.79 794.61,247.12 795.33,248.39 796.15,249.56 797.06,250.65 797.86,251.53 798.72,252.35 799.85,253.34 
	800.9,254.17 801.91,254.85 802.96,255.45 804.18,256.08 805.14,256.54 806.54,257.15 808.09,257.68 809.49,258.05 810.59,258.29 
	811.36,258.4 811.89,258.46 812.38,258.46 812.88,258.46 813.43,258.46 814.17,258.46 814.79,258.46 815.77,258.46 816.33,258.46 
	816.58,258.46 816.9,258.31 817.22,258.28 "/>
<polygon class="st12" points="1044.91,239.35 1044.91,237.9 1045.36,237.44 1045.69,237.07 1046.23,236.78 1046.48,236.62 
	1047.87,236.62 1048.28,236.95 1048.61,237.15 1048.92,237.44 1049.13,237.79 1049.13,239.35 1049.13,239.56 1048.84,239.84 
	1048.53,240.18 1048.07,240.53 1046.65,240.53 1045.9,240.16 1045.24,239.68 "/>
<polygon class="st13" points="1046.5,239.66 1045.86,239.12 1045.86,238 1046.18,237.65 1046.5,237.38 1047.68,237.38 
	1048.16,237.71 1048.47,238.13 1048.47,239.22 1047.95,239.66 "/>
<polygon class="st12" points="1050.02,240.43 1050.02,236.68 1052.3,236.68 1052.73,236.99 1052.94,237.38 1052.94,238.52 
	1052.63,238.93 1052.28,239.06 1050.73,239.02 1050.7,240.43 "/>
<polygon class="st13" points="1050.7,237.38 1050.7,238.46 1052.07,238.46 1052.4,238.17 1052.4,237.67 1052.13,237.46 "/>
<polygon class="st14" points="1053.44,236.62 1053.46,240.53 1056.57,240.53 1056.57,239.66 1054.29,239.66 1054.29,238.91 
	1056.57,238.96 1056.57,238.09 1054.23,238.11 1054.19,237.38 1056.57,237.38 1056.55,236.62 "/>
<polygon class="st12" points="1057.27,236.62 1057.27,240.53 1058.32,240.53 1058.32,238.19 1058.32,237.92 1058.58,238.08 
	1058.87,238.55 1060.49,240.48 1060.53,240.57 1061.05,240.57 1061.15,240.57 1061.11,236.57 1060.57,236.57 1060.57,239.21 
	1060.57,239.34 1060.41,239.34 1060.28,239.22 1060.18,239.08 1058.41,236.7 1058.33,236.57 "/>
<polyline class="st15" points="819.08,271.89 817.59,271.89 816.34,271.89 814.82,271.89 813.7,271.89 812.3,271.89 811.5,271.89 
	810.65,271.75 810.97,271.55 811.27,271.3 811.77,270.84 812.05,270.57 812.35,270.32 812.68,270.02 812.75,269.81 812.75,269.39 
	812.74,268.61 812.73,265.6 812.71,262.37 812.75,258.69 812.88,258.46 813.43,258.46 814.17,258.46 814.79,258.46 815.77,258.46 
	816.33,258.46 816.72,258.53 816.72,259.14 816.72,260 816.72,261.29 816.72,262.68 816.72,264.58 816.72,266.28 816.72,268.16 
	816.72,269.69 816.72,270.11 816.77,270.28 817.15,270.59 817.37,270.8 818.02,271.3 818.55,271.68 819.08,271.89 "/>
<polygon class="st16" points="803.38,239.04 803.38,238.66 803.38,238.27 803.38,237.82 803.38,237.12 803.38,236.56 803.38,236.04 
	803.38,235.75 803.38,235.58 803.66,235.58 803.87,235.58 804.18,235.58 804.48,235.58 804.84,235.58 805.18,235.58 805.35,235.58 
	805.49,235.58 805.69,235.58 805.93,235.64 806.08,235.75 806.27,235.95 806.43,236.15 806.5,236.36 806.5,236.59 806.5,236.82 
	806.5,237.07 806.5,237.31 806.41,237.44 806.26,237.56 806.14,237.7 805.96,237.84 805.7,237.94 805.49,238.04 805.11,238.07 
	804.94,238.07 804.6,238.07 804.3,238.07 804.11,238.07 803.96,238.11 803.9,238.21 803.9,238.45 803.92,238.71 803.91,238.84 
	803.9,239.04 803.73,239.04 803.58,239.04 "/>
<polygon class="st17" points="803.91,237.31 803.91,236.95 803.91,236.72 803.95,236.58 804.08,236.54 804.18,236.54 804.36,236.54 
	804.58,236.54 804.84,236.54 805.11,236.54 805.31,236.54 805.47,236.54 805.65,236.58 805.8,236.62 805.9,236.72 805.9,236.93 
	805.9,237.09 805.75,237.17 805.49,237.27 805.36,237.31 805.01,237.31 804.69,237.31 804.16,237.31 "/>
<polygon class="st18" points="807.21,238.17 807.21,237.48 807.21,236.93 807.27,236.63 807.48,236.46 807.77,236.16 808,236.01 
	808.18,235.82 808.33,235.71 808.49,235.58 808.68,235.58 808.98,235.58 809.36,235.58 809.67,235.58 809.84,235.58 810.06,235.63 
	810.21,235.71 810.44,235.85 810.66,236.03 810.86,236.24 811.02,236.47 811.19,236.72 811.38,236.98 811.47,237.16 811.47,237.63 
	811.47,237.88 811.47,238.05 811.47,238.3 811.47,238.48 811.23,238.69 810.92,239.04 810.6,239.27 810.39,239.4 810.16,239.51 
	809.91,239.51 809.55,239.51 809.21,239.51 808.76,239.51 808.6,239.51 808.29,239.3 808.04,239.14 807.82,238.94 807.51,238.67 
	807.41,238.48 "/>
<polygon class="st19" points="807.73,237.98 807.73,237.21 807.83,237.04 808.03,236.88 808.25,236.72 808.48,236.54 808.75,236.54 
	809.1,236.54 809.38,236.54 809.68,236.54 809.84,236.6 810.03,236.66 810.19,236.75 810.38,236.93 810.51,237.04 810.61,237.11 
	810.61,237.22 810.68,237.43 810.68,237.63 810.68,237.98 810.58,238.2 810.41,238.54 810.25,238.62 809.97,238.62 809.58,238.62 
	809.21,238.62 808.77,238.62 808.58,238.62 808.36,238.52 808.15,238.35 807.93,238.21 "/>
<polygon class="st20" points="811.61,236.07 811.87,236.54 812.08,236.93 812.22,237.39 812.38,237.7 812.5,238.02 812.65,238.38 
	812.73,238.74 812.87,239.04 813.02,239.04 813.17,239.04 813.33,239.04 813.56,239.04 813.65,238.62 813.74,238.33 813.85,238.01 
	814.03,237.63 814.17,237.31 814.28,237.02 814.54,237.04 814.71,237.04 814.87,237.22 814.94,237.58 815.07,238.08 815.2,238.44 
	815.4,238.79 815.57,239.04 815.74,239.04 815.96,239.04 816.22,239.04 816.37,238.62 816.49,238.18 816.68,237.73 816.91,237.22 
	817.01,236.84 817.08,236.54 817.15,236.24 817.15,236.07 816.85,236.07 816.57,236.01 816.46,236.35 816.37,236.75 816.23,237.31 
	816.12,237.58 815.97,237.91 815.86,238.08 815.63,238.08 815.43,237.9 815.34,237.45 815.22,236.93 815.02,236.54 814.91,236.22 
	814.82,236.01 814.54,236.01 814.38,236.01 814.22,236.01 814.05,236.33 813.85,236.76 813.73,237.15 813.61,237.53 813.5,237.79 
	813.4,238.05 813.16,238.08 812.81,237.53 812.67,237.09 812.53,236.61 812.28,236.21 812.19,236.01 "/>
<polygon class="st20" points="818.13,235.69 818.59,235.69 819.11,235.69 819.73,235.69 820.28,235.69 820.67,235.69 820.83,235.69 
	820.83,235.94 820.83,236.26 820.83,236.53 820.62,236.53 820.25,236.53 819.86,236.53 819.35,236.53 818.94,236.53 818.68,236.53 
	818.67,236.84 818.67,237.05 819,237.05 820.83,237.05 820.83,238.06 818.65,238.06 818.65,238.57 820.83,238.57 820.83,239.51 
	817.56,239.51 817.56,235.69 "/>
<polygon class="st20" points="821.42,239.43 821.42,236.3 821.49,236.15 821.63,236.07 821.79,235.94 821.93,235.78 822.03,235.69 
	822.14,235.59 824.04,235.59 824.36,235.79 824.69,236.02 825.1,236.29 825.2,236.46 825.2,236.81 825.2,237.03 825.08,237.26 
	824.87,237.42 824.73,237.56 824.63,237.63 824.69,238.06 824.92,238.28 825.13,238.53 825.2,238.83 825.2,239.04 825.2,239.28 
	825.2,239.43 825.02,239.43 824.7,239.43 824.29,239.43 824.07,239.43 824.1,239.01 824.1,238.66 824.1,238.41 824.09,238.22 
	824.06,238.09 823.82,238.08 823.42,238.07 823.12,238.06 822.77,238.06 822.53,238.07 822.47,238.36 822.48,238.59 822.49,238.94 
	822.49,239.14 822.47,239.43 "/>
<rect x="822.47" y="236.57" class="st21" width="1.64" height="0.54"/>
<polyline class="st22" points="856.11,269.13 856.11,261.71 856.11,244.32 856.11,233.42 856.11,224.89 "/>
<polyline class="st22" points="1011.34,268.53 1011.34,259.64 1011.34,249.41 1011.34,240.06 1011.22,226.53 "/>
<polyline class="st22" points="855.99,62.34 855.99,71.7 855.99,83.64 855.99,95.49 855.99,106.2 "/>
<polyline class="st22" points="1010.03,60.25 1010.03,74.27 1010.03,85.02 1010.03,98.97 1009.98,106.02 "/>
<path class="st22" d="M855.99,106.2"/>
<line class="st23" x1="799.72" y1="192.34" x2="798.15" y2="192.24"/>
<polyline class="st23" points="798.15,193.5 798.15,193.21 798.15,192.24 798.15,191.57 798.15,191.32 798.15,191.16 798.64,191.16 
	799.06,191.16 799.42,191.16 799.59,191.16 799.97,191.44 799.97,191.72 799.97,191.89 799.97,192.07 799.84,192.31 799.97,193.12 
	799.97,193.25 799.97,193.5 "/>
<polyline class="st23" points="802.73,191.44 800.88,191.44 800.73,191.44 800.73,193.39 800.73,193.57 802.67,193.57 "/>
<line class="st23" x1="802.65" y1="192.44" x2="800.73" y2="192.44"/>
<polyline class="st23" points="805.18,191.88 804.96,191.72 804.78,191.6 804.57,191.53 804.16,191.53 803.82,191.53 803.59,191.7 
	803.42,191.88 803.42,192.09 803.57,192.33 803.89,192.44 804.23,192.51 804.57,192.58 804.78,192.58 804.96,192.75 805.06,193.04 
	805.04,193.26 804.9,193.5 804.65,193.57 804.3,193.57 804,193.57 803.74,193.5 803.56,193.35 803.3,193.11 "/>
<polyline class="st23" points="807.66,191.53 805.9,191.53 805.9,193.84 807.66,193.84 "/>
<line class="st23" x1="807.66" y1="192.64" x2="805.9" y2="192.64"/>
<polyline class="st23" points="808.07,191.72 808.31,191.72 810.42,191.72 "/>
<line class="st23" x1="809.25" y1="193.84" x2="809.25" y2="191.72"/>
<polyline class="st22" points="1017.7,218.5 1020.15,220.08 1021.72,221.07 1023.56,222.1 1024.84,222.87 1026.35,223.75 
	1028.44,225.11 1029.51,225.73 1030.76,226.5 1031.6,227.13 1032.18,227.55 1032.59,227.8 1033.16,228.16 1033.25,227.96 
	1033.32,227.8 1033.46,227.54 1033.62,227.26 1033.83,226.97 1034.03,226.7 1034.28,226.41 1034.21,226.26 1034.03,226.04 
	1033.5,225.69 1032.91,225.32 1031.99,224.79 1031.07,224.18 1030.23,223.62 1029.46,223.22 1028.62,222.69 1027.77,222.16 
	1026.86,221.61 1025.76,220.98 1024.92,220.45 1024.16,220 1023.39,219.54 1022.77,219.09 1022.05,218.64 1021.38,218.19 
	1020.54,217.6 1019.89,217.19 1018.99,216.7 1018.4,217.53 1017.7,218.5 "/>
<polygon class="st10" points="987.27,245.66 990.21,243.95 992.89,242.15 995.91,240.04 998.28,238.11 1000.83,236.22 
	1002.93,234.6 1005.17,232.63 1007.14,230.7 1009.03,228.72 1011.22,226.53 1013.24,224.21 1015.22,221.93 1016.75,219.82 
	1018.55,217.32 1020.92,213.94 1022.76,210.87 1024.69,207.62 1026.09,204.73 1028.11,200.78 1029.78,196.35 1030.92,192.88 
	1032.1,189.07 1033.02,185.16 1033.77,181.44 1034.21,178.45 1034.56,175.65 1034.87,173.1 1035.04,171.35 1035.04,168.8 
	1035.04,166.12 1035.04,163.06 1035.04,160.91 1034.78,157.84 1034.56,155.99 1034.21,153.82 1033.86,151.78 1033.38,149.15 
	1032.94,146.78 1032.06,143.49 1031.18,140.64 1030.26,137.75 1029.3,135.07 1028.33,132.7 1026.88,129.5 1025.66,126.78 
	1024.08,124.01 1023.07,122 1021.88,120.11 1020.7,118.05 1019.25,116.07 1017.83,114.5 1016.73,112.99 1015.33,111.42 
	1014.05,110.09 1013.06,109.21 1011.9,108.11 1010.91,106.89 1009.98,106.02 1009.05,104.91 1007.54,103.28 1006.26,101.95 
	1004.23,99.79 1003.06,98.81 1001.67,97.64 1000.45,96.48 998.82,95.2 996.73,93.57 995.04,92.41 992.54,90.67 990.27,89.1 
	987.72,87.53 985.39,86.36 982.48,84.62 979.23,83.05 975.85,81.65 972.31,80.03 969.4,78.98 965.33,77.7 961.67,76.59 
	958.12,75.67 955.21,74.97 951.49,74.27 948.93,73.8 946.26,73.51 943.41,73.22 939.11,73.22 933.32,72.93 930.5,72.93 
	926.84,72.93 923,73.28 917.19,73.8 912.83,74.39 907.54,75.55 902.48,76.94 898.23,78.28 893.12,80.03 887.83,82.23 883.7,84.39 
	879.8,86.6 875.73,89.33 872.36,91.48 868.87,93.98 865.9,96.36 863.4,98.52 860.9,101.07 859.16,102.93 857.07,104.91 855.32,107 
	853.52,109.27 850.61,112.88 848.64,115.55 846.6,118.92 844.68,121.95 842.94,124.74 841.78,127.18 840.61,129.68 839.33,132.94 
	838.05,136.37 836.72,139.8 835.96,143.28 834.74,147.76 834.52,149.52 834.31,151.74 834.1,153.82 833.85,155.82 833.74,157.59 
	833.53,159.62 833.39,162.32 833.39,164.81 833.39,166.63 833.39,169.1 833.39,171.16 833.39,172.63 833.62,175.04 833.81,176.05 
	834.02,177.5 834.39,179.15 834.56,179.91 834.68,180.67 834.77,181.64 834.89,182.86 835.15,183.83 835.32,184.96 835.57,186.22 
	835.9,187.49 836.33,188.88 836.79,190.64 837.17,192.07 838.05,194.35 838.6,195.65 839.1,197.08 839.65,198.3 840.15,199.52 
	840.87,201.12 841.41,202.38 842.34,204.32 843.48,206.42 844.32,207.85 845.33,209.74 846.34,211.43 847.47,213.45 848.44,214.96 
	849.49,216.52 850.84,218.45 851.93,219.88 853.62,221.95 855.38,224.13 857.49,226.32 859.25,228.22 861.02,230.07 863.17,232.04 
	865.14,233.64 866.91,235.24 869.14,237.09 871.58,238.9 873.81,240.46 876.5,242.1 878.9,243.61 881.34,245.09 883.57,246.35 
	886.1,247.53 889.34,249 891.74,250.26 895.1,251.56 897.84,252.57 900.61,253.5 903.3,254.51 906.21,255.27 909.03,255.98 
	912.01,256.66 915.09,257.25 917.61,257.71 920.22,258.05 923.21,258.38 925.5,258.74 927.68,258.93 929.29,258.93 931.59,258.93 
	934.1,258.93 936.16,258.93 939.07,258.93 941.5,258.93 943.73,258.63 945.98,258.4 947.94,258.21 950.48,257.88 953.28,257.37 
	955.97,256.82 958.55,256.24 961.66,255.45 964.49,254.63 967.12,253.86 970.09,252.87 972.72,251.96 975.54,250.88 978.3,249.69 
	980.64,248.69 983.18,247.48 985.28,246.66 "/>
<polyline class="st23" points="918.14,219.07 918.14,215.26 918.14,215.01 918.65,215.01 919.31,215.01 919.8,215.01 920.26,215.12 
	920.49,215.37 920.62,215.81 920.62,216.17 920.62,216.61 920.42,217.04 920.11,217.27 919.38,217.27 918.89,217.27 918.29,217.3 
	"/>
<line class="st23" x1="922.1" y1="215.01" x2="922.1" y2="219.07"/>
<polyline class="st23" points="923.83,216.06 925.23,216.06 925.54,216.23 925.78,216.48 925.78,217.12 925.78,217.32 
	925.78,218.76 925.78,219.07 923.97,219.07 923.63,218.85 923.43,218.54 923.43,218.2 923.43,217.85 923.79,217.56 924.03,217.43 
	924.43,217.34 924.72,217.34 924.98,217.34 925.27,217.32 925.49,217.32 "/>
<line class="st23" x1="929.84" y1="216.05" x2="927.51" y2="220.86"/>
<line class="st23" x1="927.05" y1="216.05" x2="928.35" y2="218.76"/>
<polyline class="st23" points="933.01,215.01 931.43,215.01 931.19,215.24 930.99,215.57 930.99,216.48 931.28,216.72 931.68,216.9 
	932,216.9 932.34,216.9 932.7,217.04 933.01,217.41 933.01,217.76 933.01,218.12 933.01,218.58 932.76,218.89 932.45,219.07 
	930.99,219.07 "/>
<polyline class="st23" points="934.6,215.37 934.6,218.91 935,219.07 935.44,219.07 "/>
<line class="st23" x1="935.84" y1="216.05" x2="934.69" y2="216.05"/>
<polyline class="st23" points="937.04,216.06 938.46,216.06 938.77,216.28 938.95,216.56 938.95,218.87 938.72,219.07 
	938.21,219.07 937.11,219.07 936.82,218.76 936.57,218.46 936.57,217.98 936.91,217.67 937.24,217.56 937.57,217.41 938.1,217.41 
	938.39,217.41 938.77,217.41 "/>
<polyline class="st23" points="940.65,215.37 940.65,218.76 941.01,219.07 941.47,219.07 "/>
<line class="st23" x1="941.85" y1="216.05" x2="940.76" y2="216.05"/>
<line class="st23" x1="942.98" y1="214.88" x2="942.98" y2="215.21"/>
<line class="st23" x1="942.98" y1="216.05" x2="942.98" y2="219.25"/>
<polygon class="st23" points="944.55,218.23 944.55,217.22 944.66,216.81 944.8,216.5 944.95,216.3 945.22,216.06 946.08,216.06 
	946.55,216.14 946.86,216.41 947.03,216.79 947.03,217.47 947.03,218.23 946.9,218.65 946.64,218.91 946.35,219.07 945.44,219.07 
	945.02,218.89 944.71,218.63 "/>
<polyline class="st23" points="951,219.16 951,216.61 950.85,216.32 950.45,216.06 948.63,216.06 948.63,219.25 "/>
<polygon class="st24" points="921.39,112.05 921.39,110.25 920.96,110.37 920.44,110.42 919.94,110.15 919.16,109.92 918.68,109.92 
	916.83,109.92 916.3,110.05 915.75,110.22 915.05,110.4 914.57,110.65 914.12,111.2 914.12,112.55 914.57,112.83 915.17,113.13 
	916,113.36 916.73,113.5 917.63,113.61 918.38,113.61 919.69,113.61 920.26,114.03 920.59,114.41 920.56,114.88 920.14,115.16 
	919.58,115.38 918.96,115.38 918.31,115.38 917.75,115.38 917,115.38 916.28,115.21 915.8,114.86 915.4,114.48 915.07,114.11 
	914.92,113.86 914.12,113.88 914.12,116.11 914.82,116.11 915.12,116.11 915.23,115.78 915.6,115.81 916.2,116.11 916.98,116.26 
	917.75,116.36 918.56,116.36 919.43,116.36 920.36,116.09 921.01,115.78 921.56,115.46 921.89,114.98 921.89,114.18 921.89,113.66 
	921.64,113.25 921.34,112.93 920.76,112.63 920.06,112.5 919.31,112.43 918.38,112.38 917.53,112.28 916.65,112.13 915.9,111.88 
	915.6,111.65 915.6,111.28 916,111.02 916.38,110.75 916.88,110.6 917.53,110.52 919.16,110.6 919.74,110.77 920.09,111.13 
	920.54,111.55 920.99,112.08 "/>
<polygon class="st24" points="926.48,116.36 925.35,115.83 924.6,115.23 924.1,114.63 923.72,114.11 923.72,112.45 924.12,111.75 
	924.7,111.2 925.4,110.65 926.25,110.15 927.03,109.92 929.51,109.92 930.26,110.1 931.13,110.45 931.61,110.77 932.36,111.33 
	932.71,112.1 932.71,113.98 932.49,114.71 932.01,115.16 931.29,115.71 930.61,115.99 929.96,116.36 "/>
<polygon class="st25" points="927.65,115.41 926.78,115.21 926.2,114.81 925.82,114.38 925.65,113.86 925.65,113.43 925.65,112.6 
	925.87,112.03 926.2,111.55 926.65,111.22 927.08,110.87 927.35,110.7 928.86,110.7 929.66,111.07 930.23,111.47 930.58,111.93 
	930.88,112.45 930.88,114.01 930.51,114.53 930.03,115.01 929.51,115.41 "/>
<polygon class="st26" points="940.16,110.22 940.16,110.92 941.26,110.92 941.26,113.76 937.15,110.22 934.12,110.22 934.12,110.92 
	935.14,110.95 935.14,115.41 934.12,115.41 934.12,115.99 937.69,115.99 937.6,115.41 936.4,115.41 936.37,112 936.82,112 
	941.26,115.86 941.26,116.11 942.69,116.11 942.69,110.95 943.74,110.95 943.74,110.22 "/>
<polygon class="st26" points="944.67,110.22 944.67,110.97 945.79,110.97 948.27,113.61 948.27,115.43 947.19,115.43 947.19,116.11 
	951.58,116.11 951.58,115.31 950.27,115.31 950.18,113.8 953.01,111 954.17,111 954.17,110.22 950.54,110.22 950.55,110.91 
	951.37,110.95 951.35,111.32 950.1,112.7 949.42,112.69 947.93,111.06 947.93,110.83 948.82,110.83 948.8,110.22 "/>
<polygon class="st27" points="931.22,211.68 930.26,211.27 929.71,211.08 928.91,210.94 928.02,210.94 927.04,210.86 926.25,210.86 
	925.48,210.7 924.61,210.48 923.84,210.24 923.14,209.88 922.54,209.37 922.42,208.77 922.59,208.34 923.17,207.91 923.82,207.57 
	924.61,207.26 924.97,207.47 925.26,207.64 925.78,207.83 926.39,208.07 926.82,208.29 927.3,208.65 926.68,208.92 926.15,209.09 
	926.17,209.47 926.7,209.47 927.35,209.47 927.98,209.47 928.35,209.47 928.53,209.13 928.82,208.99 929.2,208.99 929.66,208.99 
	930.19,209.06 930.55,209.21 930.89,209.28 931.22,209.47 931.49,209.64 931.49,210.22 931.49,211.68 "/>
<polygon class="st28" points="935.27,212.81 938.03,211.87 937.76,211.51 937.21,211.27 936.57,211.08 935.84,211.01 935.27,211.01 
	"/>
<polygon class="st29" points="924.61,207.26 925.62,206.94 926.76,206.55 927.51,206.3 928.22,206.07 929.11,205.75 929.84,205.52 
	930.52,205.68 930.99,205.84 931.49,206 931.49,209.64 930.89,209.28 930.55,209.21 930.19,209.06 929.66,208.99 929.2,208.99 
	928.82,208.99 928.53,209.13 928.35,209.47 927.98,209.47 927.35,209.47 926.7,209.47 926.17,209.47 926.15,209.09 926.68,208.92 
	927.3,208.65 926.82,208.29 926.39,208.07 925.78,207.83 925.26,207.64 924.97,207.47 "/>
<polygon class="st30" points="929.84,205.52 930.57,205.02 930.99,204.84 931.49,204.84 931.49,206 930.99,205.84 930.52,205.68 "/>
<polygon class="st31" points="931.49,207.14 930.66,207.58 930.05,207.82 929.02,208.21 928.22,208.46 927.3,208.65 926.68,208.92 
	926.15,209.09 926.17,209.47 926.7,209.47 927.35,209.47 927.98,209.47 928.35,209.47 928.53,209.13 928.82,208.99 929.2,208.99 
	929.66,208.99 930.09,208.75 930.27,208.69 930.41,208.66 930.8,208.57 931.1,208.53 "/>
<polygon class="st32" points="931.49,209.47 931.49,208.79 931.49,208 931.18,208.23 931.1,208.53 930.8,208.57 930.41,208.66 
	930.09,208.75 929.66,208.99 930.19,209.06 930.55,209.21 930.89,209.28 931.22,209.47 931.49,209.64 "/>
<polygon class="st33" points="935.27,211.01 935.27,210.4 935.99,210.26 936.72,210.04 937.52,209.97 937.92,209.64 938.51,209.47 
	938.96,209.39 939.38,209.19 939.71,209.06 940.32,209 940.8,209 941.47,209 942.14,209.08 942.57,209.24 943.11,209.47 
	943.7,209.76 942.98,210.21 942.5,210.38 941.47,210.73 940.75,211.01 939.92,211.29 938.91,211.56 938.03,211.87 937.76,211.51 
	937.21,211.27 936.57,211.08 935.84,211.01 "/>
<polygon class="st33" points="935.17,207.26 935.92,207.41 936.89,207.58 937.65,207.84 938.17,208.17 937.69,208.47 936.94,208.66 
	936.14,209 935.17,209.35 "/>
<polygon class="st34" points="935.27,207.06 936.87,206.74 937.8,206.55 938.97,206.37 939.96,206.26 940.8,206.26 941.75,206.35 
	943.01,206.52 943.96,206.66 944.95,207.14 945.66,207.71 945.92,208.12 945.92,208.58 945.84,209.12 945.49,209.47 944.91,209.55 
	944.28,209.74 943.7,209.76 943.11,209.47 942.57,209.24 941.81,209.04 940.8,209 940.98,208.82 941.3,208.7 941.65,208.62 
	942.12,208.49 942.42,208.42 942.55,207.9 942.57,207.73 942.27,207.58 942.01,207.5 941.58,207.5 941.13,207.5 940.76,207.58 
	940.2,207.69 939.7,207.9 939.16,208.12 938.54,208.17 938.17,208.17 937.65,207.84 936.89,207.58 935.92,207.41 935.17,207.26 "/>
<polygon class="st35" points="931.4,211.91 935.27,212.81 935.17,205.62 935.17,202.32 935.17,200.76 935.17,199.48 935.17,199 
	935.17,198.77 935.66,198.77 936.48,198.77 936.8,198.77 936.99,198.98 936.99,199.25 936.99,204.84 937.19,205.21 937.45,205.42 
	937.81,205.42 938.45,205.42 939.12,205.42 939.6,205.25 939.9,204.84 940.31,204.5 940.65,204.02 940.86,203.83 941.04,203.53 
	941.04,203.15 941.04,202.18 941.04,200.83 940.95,200.35 940.7,199.96 940.28,199.44 939.9,199.05 939.49,198.63 938.89,198.27 
	938.27,197.95 937.67,197.67 936.92,197.35 936.22,197.12 935.54,196.87 934.86,196.66 934.22,196.41 933.6,196.25 933.05,196.14 
	932.41,196.02 931.7,196.02 931.4,196.02 931.49,204.84 "/>
<path class="st36" d="M832.63,92.11c-0.91-2.93,4.95-7.47,7.61-9.17c3.8-2.37,8.19-3.6,12.67-3.54h32c2.74-0.01,5.36,1.07,7.3,3
	c1.91,1.95,2.98,4.57,3,7.3c-0.13,4.03-2.48,7.66-6.1,9.43c-10.62-4.03-22.04-5.54-33.34-4.39
	C837.69,96.24,833.29,94.23,832.63,92.11z"/>
<path class="st36" d="M1040.43,93.47c0.91-2.94-4.94-7.47-7.6-9.17c-3.8-2.38-8.2-3.61-12.68-3.54h-32c-2.74-0.01-5.37,1.07-7.31,3
	c-1.9,1.96-2.98,4.58-3,7.31c0.13,4.03,2.48,7.65,6.1,9.42c10.62-4.03,22.04-5.54,33.34-4.39
	C1035.38,97.6,1039.78,95.54,1040.43,93.47z"/>
<path class="st37" d="M979.52,123.29c2.82-5.46,8.49-7.92,11.11-9c11.35-4.76,22.85-1.34,25.48-0.56
	c6.05,1.78,11.58,4.99,16.11,9.37c0.12,0.11,0.12,0.29,0.01,0.41c0,0-0.01,0.01-0.01,0.01l-7.13,6.92l0,0
	c-4,3.04-8.51,5.35-13.31,6.82c-6.85,2.05-14.08,2.47-21.12,1.24c-5-0.9-9.6-1.72-11.76-5.07
	C976.36,129.54,978.84,124.68,979.52,123.29z"/>
<path class="st37" d="M893.57,120.14c-2.71-5.45-8.16-7.92-10.68-9c-10.92-4.76-22-1.34-24.51-0.56
	c-5.95,1.84-11.35,5.13-15.71,9.58l7.08,7.14c3.83,3.03,8.18,5.35,12.83,6.83c6.57,2.05,13.54,2.48,20.31,1.25
	c4.86-0.91,9.23-1.73,11.31-5.07C896.65,126.34,894.26,121.54,893.57,120.14z"/>
<path class="st38" d="M851.32,260.31c2.14-16.15,7.05-31.81,14.51-46.29c6.77-13.35,15.83-25.41,26.77-35.63
	c0.9-4.65-0.22-8.85-2.83-10.67c-1.81-1.1-4.05-1.25-6-0.4c-40.7,78.33-43.52,91.5-41.92,93.33c1.14,1.38,2.83,2.19,4.62,2.19
	C848.32,262.56,850.03,261.67,851.32,260.31z"/>
<path class="st38" d="M1016.19,260.31c-2.13-16.15-7.04-31.81-14.5-46.29c-6.77-13.35-15.83-25.41-26.77-35.63
	c-0.91-4.65,0.21-8.85,2.83-10.67c1.81-1.11,4.06-1.26,6-0.4c40.7,78.33,43.53,91.5,41.92,93.33c-1.14,1.38-2.83,2.19-4.62,2.19
	C1019.19,262.56,1017.48,261.67,1016.19,260.31z"/>
<path class="st39" d="M983.38,234.41c-30.6,19.47-69.7,19.47-100.3,0c-2.2-1.23-3.48-3.63-3.28-6.14c0.27-2.06,1.48-3.87,3.28-4.91
	c33.03,7.37,67.27,7.37,100.3,0c1.9,1.13,3.12,3.12,3.28,5.32C986.72,231.05,985.46,233.26,983.38,234.41z"/>
<path class="st38" d="M983.96,74.54c-10.54-0.5-21.47-0.87-32.75-1.05c-23.7-0.39-46,0.06-66.73,1.05c-5.11-0.69-8.87-2-9-3.52
	c-0.19-2.05,6.46-3.75,9-4.4c8.44-2.02,17.16-2.58,25.79-1.65c13.68,1.59,36.92,2.19,73.69,1.65c6.38,0.09,10.42,2.66,10.24,4.4
	S989.83,74.69,983.96,74.54z"/>
<path class="st38" d="M963.52,84.44c-12.81-3.38-26.14-4.36-39.31-2.9c-4.97,0.56-9.88,1.53-14.69,2.9
	c-3.09,0.12-5.84-0.44-6.49-1.38c-0.83-1.2,1.39-3.45,6.49-4.34c6.79,0.54,13.6,0.54,20.39,0c8.89-0.7,14.23-2.13,23.13-1.55
	c3.53,0.23,7.03,0.75,10.48,1.55c3.28-0.12,6,0.79,6.55,1.88C970.73,81.96,968.23,84.13,963.52,84.44z"/>
<path class="st38" d="M952.86,92.54c-9.1,1-14.23,1.48-17.17,1.7c-0.87,0.06-3.46,0.24-6.87,0.74c-1.36,0.2-2.47,0.4-3.21,0.53
	c-3.71,0.28-7.16-0.19-8-1.48c-1-1.59,1.83-4.79,8-7c7.99,2.28,16.36,2.92,24.6,1.88c2.98-0.39,5.92-1.02,8.79-1.88
	c2.78,1.41,4.32,3.37,3.69,4.58C961.93,93.08,957.69,94.08,952.86,92.54z"/>
<path class="st40" d="M872.22,107.45c-5.44-0.65-10.94,0.63-15.53,3.62c-1.84,1.2-3.52,2.63-5,4.26
	c2.12,10.11,9.42,17.12,17.27,17.12c9.48-0.01,17.18-7.64,17.26-17.12c0-0.28,0-0.55,0-0.83c-0.63-0.78-1.32-1.52-2.06-2.2
	C880.88,109.32,876.65,107.6,872.22,107.45z"/>
<path class="st40" d="M1000.62,110.7c5.45-0.65,10.95,0.65,15.53,3.67c1.84,1.22,3.52,2.67,5,4.32
	c-2.11,10.26-9.42,17.36-17.26,17.36c-9.54-0.07-17.24-7.82-17.26-17.36c0-0.28,0-0.56,0-0.84c0.63-0.79,1.32-1.54,2.06-2.23
	C991.95,112.6,996.18,110.86,1000.62,110.7z"/>
<ellipse class="st41" cx="868.97" cy="117.85" rx="6.53" ry="4.56"/>
<ellipse class="st41" cx="1003.86" cy="117.85" rx="6.53" ry="4.56"/>
<path class="st36" d="M933.09,181.54c2.89,6.15-2.57,16.85-10.28,20.27c-8.24,3.64-13.42-3.52-24.85-0.92s-16.17,12.21-17.74,11.05
	c-2.45-1.81,5.13-27.77,25.47-34.58C915.07,174.19,929.68,174.27,933.09,181.54z"/>
<path class="st36" d="M934,181.54c-2.89,6.15,2.58,16.85,10.28,20.27c8.24,3.64,13.42-3.52,24.86-0.92s16.16,12.21,17.73,11.05
	c2.46-1.81-5.13-27.77-25.47-34.58C952.03,174.19,937.41,174.27,934,181.54z"/>
<path class="st42" d="M837.74,134.97l-43.42-40.18c-0.2-2.24-0.41-4.49-0.62-6.74c14.55,8.19,27.49,18.96,38.18,31.79
	c3.15,3.81,6.09,7.8,8.8,11.94L837.74,134.97z"/>
<path class="st42" d="M1027.38,134.43c3.12-3.63,5.72-7.66,7.74-12c4.33-9.35,3.36-15,8.3-22.47c2.22-3.35,5.01-6.28,8.23-8.68
	l0.42,7.95c-0.75,2.46-1.81,5.92-3.09,10.07c-3.79,12.28-4.22,13.49-4.87,14.86c-1.89,3.94-5.77,9.46-14.7,14.33L1027.38,134.43z"/>
<linearGradient id="SVGID_1_" gradientUnits="userSpaceOnUse" x1="835.8702" y1="31.33" x2="900.1985" y2="31.33" gradientTransform="matrix(1 0 0 -1 -0.85 172.54)">
	<stop  offset="0" style="stop-color:#FFFFFF"/>
	<stop  offset="0.99" style="stop-color:#000000;stop-opacity:0.2"/>
</linearGradient>
<path class="st43" d="M894.8,154.78h-53c-3.45-2.75-5.78-6.66-6.56-11c-1.5-9.14,5.17-15.59,5.75-16.14l54.29,0.5
	c3,4.36,4.41,9.62,4,14.89C898.92,147.29,897.36,151.36,894.8,154.78z"/>
<linearGradient id="SVGID_2_" gradientUnits="userSpaceOnUse" x1="965.9902" y1="27.97" x2="1030.3193" y2="27.97" gradientTransform="matrix(1 0 0 -1 -0.85 172.54)">
	<stop  offset="0" style="stop-color:#FFFFFF"/>
	<stop  offset="0.99" style="stop-color:#000000;stop-opacity:0.2"/>
</linearGradient>
<path class="st44" d="M1024.92,158.14h-53c-3.45-2.75-5.78-6.66-6.56-11c-1.5-9.14,5.17-15.59,5.75-16.14l54.29,0.5
	c3,4.36,4.41,9.61,4,14.88C1029.04,150.64,1027.49,154.72,1024.92,158.14z"/>
<path class="st42" d="M899.32,143.05c20.17-12.57,45.68-12.78,66.05-0.54v4.65c-21.46-8.65-45.45-8.57-66.85,0.22L899.32,143.05z"/>
<path class="st45" d="M929.13,182.41"/>
<path class="st45" d="M928.75,174.85"/>
<polyline class="st46" points="247.09,266.39 246.31,266.39 245.15,266.2 244.08,265.91 243.39,265.55 242.65,265.09 242.05,264.55 
	241.69,264 241.31,263.45 241.31,261.4 241.31,255.33 241.31,224.73 241.31,185.13 241.31,152.47 241.31,113.65 241.31,64.85 
	241.31,64.1 241.31,63.37 241.31,63.01 241.58,62.48 241.99,61.98 242.45,61.37 242.93,61 243.56,60.63 244.04,60.46 244.59,60.25 
	245.32,60.07 245.85,59.95 246.39,59.95 246.76,59.88 247.09,59.88 247.37,59.88 247.52,59.88 247.07,60.06 246.48,60.51 
	246.19,61.05 245.98,61.8 245.98,62.41 245.98,63.73 245.98,77.42 245.98,94.72 245.98,122.23 245.98,135.3 245.98,170.06 
	245.98,204.94 245.98,234.9 245.98,265.16 246.39,265.78 247.09,266.39 "/>
<polyline class="st47" points="249.6,266.66 248.94,266.93 248.08,266.79 247.09,266.39 246.39,265.78 245.98,265.16 245.98,263.48 
	245.98,212.03 245.98,159.53 245.98,108.02 245.98,65.09 245.98,63.37 245.98,62.41 245.98,61.8 246.19,61.05 246.48,60.51 
	247.07,60.06 247.79,59.77 248.46,59.58 249.1,59.58 249.95,59.67 249.58,60.06 249.22,60.57 248.89,60.98 248.81,61.33 
	248.7,61.76 248.7,62.38 248.7,62.9 248.7,63.88 248.7,76.4 248.7,86.99 248.7,116.19 248.7,159.28 248.7,216.44 248.7,220.09 
	248.7,220.89 248.8,221.29 248.95,221.49 249.13,221.78 249.35,222.01 249.48,222.42 249.48,224.23 249.48,254.59 249.48,255.75 
	249.41,256.18 249.1,256.46 248.89,256.8 248.7,257.46 248.7,257.96 248.7,258.94 248.7,263.8 248.7,264.93 248.8,265.36 
	248.98,265.71 249.15,266.02 249.34,266.35 249.6,266.66 "/>
<polyline class="st48" points="257.42,268.45 256.7,268.6 256.17,268.52 255.58,268.45 255,268.28 254.42,268.04 253.97,267.8 
	253.47,267.32 253.17,266.96 253.01,266.47 252.91,265.83 252.91,260.56 252.91,242.6 252.91,227.69 252.91,185.73 252.91,122.49 
	252.91,70.69 252.91,61.39 252.91,60.72 253.06,60.25 253.19,59.74 253.45,59.28 253.81,58.75 254.09,58.48 254.38,58.32 
	254.7,58.24 255.06,58.07 255.37,58.03 255.67,58.03 256.1,57.98 256.52,57.98 256.7,57.98 256.9,57.98 257.28,58.03 256.85,58.37 
	256.52,58.72 256.26,59.08 256.03,59.56 255.93,60 255.87,60.57 255.86,61.2 255.86,61.8 255.86,72.85 255.86,106.07 255.86,146.07 
	255.86,181.78 255.86,225.86 255.86,263.18 255.86,266.35 255.86,266.82 255.95,267.14 256.25,267.51 256.48,267.74 257.42,268.45 
	"/>
<path class="st22" d="M256.1,59.35"/>
<path class="st22" d="M256.33,58.95"/>
<path class="st22" d="M255.59,57.4"/>
<polygon class="st49" points="254.15,267.87 253.73,267.87 253.01,267.75 252.21,267.51 251.58,267.37 250.89,267.13 250.43,266.97 
	249.93,266.83 249.6,266.66 249.34,266.35 249.15,266.02 248.98,265.71 248.8,265.36 248.7,264.93 248.7,257.96 248.7,257.46 
	248.89,256.8 249.1,256.46 249.41,256.18 249.48,255.75 249.48,254.59 249.48,252.55 249.49,251.76 249.47,248.17 249.49,244.1 
	249.49,238.52 249.49,233.59 249.49,227.14 249.48,222.42 249.35,222.01 249.13,221.78 248.95,221.49 248.8,221.29 248.7,220.89 
	248.7,220.09 248.7,217.49 248.7,214.41 248.7,193.49 248.7,152.16 248.7,116.19 248.7,92.77 248.7,68.89 248.7,62.9 248.7,61.76 
	248.81,61.33 248.89,60.98 249.22,60.57 249.58,60.06 249.95,59.67 250.4,59.31 250.95,59.02 251.47,58.91 252.18,58.69 
	252.91,58.57 253.5,58.52 253.81,58.52 254,58.57 253.72,58.89 253.56,59.11 253.35,59.46 253.24,59.64 253.14,59.92 253.09,60.14 
	253.02,60.38 252.96,60.57 252.91,60.89 252.91,61.12 252.91,61.63 252.91,74.67 252.91,96.67 252.91,126.72 252.91,170.89 
	252.91,221.87 252.91,249.44 252.91,265.05 252.95,266.05 253.06,266.63 253.3,267.11 253.59,267.44 "/>
<polyline class="st50" points="261.66,269.25 261.25,269.46 260.19,269.46 259.13,269.25 258.26,268.86 257.42,268.45 
	256.61,267.87 256.07,267.35 255.86,266.98 255.86,265.48 255.86,264.08 255.86,222.21 255.86,153.16 255.86,60.7 255.95,59.78 
	256.1,59.36 256.33,58.96 256.71,58.47 257.28,58.03 257.93,57.73 258.76,57.48 259.52,57.23 260.36,57.01 261.1,56.82 
	261.66,56.72 262.01,56.76 260.68,58.31 260.53,71.09 260.53,124.7 260.53,159.76 260.53,241.63 260.71,268.31 261.66,269.25 "/>
<polyline class="st51" points="258.49,68.79 258.49,68.16 258.49,67.68 258.49,67.31 258.49,67.08 258.45,66.9 258.35,66.77 
	258.25,66.7 258.14,66.7 258.1,66.81 258.1,66.97 258.1,67.2 258.1,67.48 258.1,67.74 258.1,68.06 258.1,68.37 258.1,68.6 
	258.1,68.74 258.06,68.87 257.94,68.93 257.82,68.87 257.75,68.72 257.75,68.56 257.75,68.17 257.75,67.7 257.75,67.36 
	257.75,67.06 257.75,66.7 "/>
<polygon class="st51" points="258.58,72.73 258.58,72.16 258.58,71.72 258.58,71.39 258.58,71.25 258.53,71.03 258.49,70.92 
	258.39,70.81 258.27,70.69 258.12,70.69 257.97,70.69 257.75,70.69 257.67,70.88 257.6,71.08 257.56,71.33 257.56,71.5 
	257.56,71.92 257.56,72.52 257.56,72.69 257.56,72.94 257.64,73.32 257.75,73.52 258.03,73.56 258.29,73.46 258.49,73.34 
	258.58,73.14 "/>
<polyline class="st51" points="257.7,75.14 258.07,75.14 258.34,75.14 258.58,75.14 258.65,75.36 258.65,75.6 258.46,75.88 
	257.7,77.03 257.63,77.22 257.63,77.45 257.7,77.66 257.97,77.66 258.2,77.66 258.41,77.66 258.65,77.66 "/>
<polyline class="st51" points="258.65,79.79 258.44,79.99 258.29,80.17 258.14,80.33 258.02,80.53 258.02,80.72 258.02,80.91 
	258.14,81.13 258.33,81.3 258.52,81.45 258.65,81.52 "/>
<polyline class="st51" points="257.43,80.74 257.63,80.74 257.83,80.74 258.02,80.72 "/>
<polyline class="st45" points="258.93,242.51 258.93,243.61 258.93,245.2 258.93,247.28 258.86,247.59 258.67,247.74 258.45,247.74 
	258.29,247.74 258.2,247.58 258.2,247.05 258.2,246.5 258.2,243.12 258.16,242.85 258.05,242.67 257.93,242.51 257.79,242.43 
	257.62,242.34 257.43,242.28 257.26,242.28 "/>
<polyline class="st45" points="258.88,255.18 258.88,254.03 258.88,253.24 258.88,252.39 258.82,252.1 258.67,251.95 258.49,251.88 
	258.25,251.88 257.94,251.88 257.62,251.88 257.44,251.78 257.35,251.56 257.35,251.18 257.35,250.63 257.35,250.29 257.35,249.44 
	"/>
<polyline class="st45" points="256.7,260.71 258.67,260.71 258.81,260.71 258.81,260.21 257.75,256.4 257.69,256.15 257.6,255.93 
	257.49,255.8 257.29,255.8 257.27,256.06 257.28,256.25 257.27,256.59 257.35,261.83 "/>
<circle class="st52" cx="354.69" cy="131.24" r="13.34"/>
<circle class="st53" cx="358.27" cy="133.31" r="15.41"/>
<circle class="st53" cx="363.01" cy="137.85" r="16.86"/>
<circle class="st53" cx="351.65" cy="136.78" r="16.86"/>
<circle class="st54" cx="360.86" cy="135.89" r="17.99"/>
<path class="st53" d="M260.52,267.04V58.7l0.14-0.39l0.19-0.31l0.17-0.29l0.19-0.27l0.31-0.26l0.24-0.24l0.24-0.19l0.26-0.19
	l0.26-0.2h228.63l0.48,0.07l0.38,0.16l0.44,0.31l0.21,0.23l0.32,0.26l0.11,0.13l0.39,0.38l0.23,0.3l0.34,0.38l0.18,0.28v208.55
	l-0.08,0.38l-0.2,0.33l-0.2,0.26l-0.21,0.23l-0.22,0.36l-0.28,0.25l-0.23,0.2l-0.38,0.18l-0.39,0.22l-0.59,0.17H263.28l-0.67-0.25
	l-0.27-0.07l-0.4-0.24l-0.5-0.35l-0.41-0.39l-0.31-0.38l-0.18-0.24v-1L260.52,267.04z"/>
<circle class="st55" cx="354.98" cy="123.98" r="1.22"/>
<polygon class="st56" points="260.97,145.47 276.81,136.51 289.38,127.57 297.82,119.92 304.88,113.79 313.31,105.52 322.96,95.53 
	328.64,85.89 336.04,75.14 339.49,67.81 342.42,59.58 342.87,56.37 262.53,56.37 260.68,58.31 "/>
<path class="st56" d="M426.25,56.36c0,0-1.86-2.18,2.36,14.33s1.68,7,1.68,7l4.26,8.2c3.34,6.42-1.32-3,4.51,8.68
	s7.08,13.15,7.08,13.15l4.72,5.4l4.38,4.72l5.4,5l4.38,4.7l4.38,6.07l3.71,4l4.72,4.05l4.39,1.68l4.72,2.38l7.29,2.34V59.47l-2.6-3
	L426.25,56.36z"/>
<polygon class="st57" points="373.68,152.26 373.68,159.07 373.68,166 373.68,171.72 373.68,172.48 373.83,172.66 374.09,172.75 
	374.39,172.86 374.76,172.99 375.28,173.24 375.66,173.36 376.16,173.44 376.6,173.6 377,173.76 377.5,173.88 377.97,173.98 
	378.41,174.03 378.69,174.03 378.85,173.86 378.85,173.57 378.85,172.28 378.85,170.32 378.85,169.06 378.85,167.77 378.85,166.29 
	378.85,164.22 378.85,162.19 378.85,160.37 378.85,158.26 378.85,156.94 378.95,156.61 379.11,156.37 379.32,156.21 379.5,156.13 
	379.67,156.13 379.88,156.11 380.02,156.13 380.17,156.17 380.33,156.29 380.42,156.44 380.53,156.67 380.64,156.94 380.64,157.18 
	380.64,158.5 380.64,160.35 380.64,161.97 380.64,163.64 380.64,164.2 380.84,164.42 381.12,164.57 381.37,164.67 381.64,164.75 
	381.93,164.85 382.19,164.91 382.65,165.05 383,165.12 383.27,165.12 383.45,165.12 383.76,165.12 384,165.13 384.35,165.11 
	384.62,165.01 384.86,164.79 385.16,164.56 385.4,164.32 385.61,164.14 385.82,163.95 386.01,163.62 386.15,163.31 386.34,162.97 
	386.44,162.61 386.53,162.19 386.63,161.88 386.63,161.49 386.63,161.23 386.63,160.87 386.63,160.39 386.63,159.99 386.63,159.63 
	386.63,159.26 386.55,158.89 386.44,158.65 386.3,158.39 386.16,158.06 385.97,157.76 385.77,157.43 385.6,157.2 385.43,156.94 
	385.13,156.53 384.82,156.17 384.46,155.87 383.87,155.46 383.32,155.22 382.82,154.85 382.27,154.68 381.03,154.18 380.25,153.95 
	379.33,153.69 378.17,153.31 377.18,152.95 376.35,152.64 375.66,152.47 375.24,152.44 374.87,152.41 374.44,152.39 374.24,152.38 
	"/>
<path class="st45" d="M373.69,171.03"/>
<path class="st45" d="M373.34,164.19"/>
<polygon class="st57" points="373.68,171.03 373.34,171.15 373.03,171.37 372.87,171.45 372.47,171.5 372.08,171.5 371.7,171.5 
	371.15,171.5 370.58,171.5 369.71,171.5 368.8,171.5 368.09,171.44 367.45,171.42 367.08,171.32 366.62,171.27 366.13,171.27 
	365.68,171.14 365.25,171.03 364.83,170.89 364.46,170.78 364.06,170.63 363.72,170.47 363.36,170.27 363.04,170.09 362.75,169.85 
	362.57,169.69 362.48,169.52 362.48,169.29 362.39,169.06 362.39,168.77 362.55,168.56 362.77,168.37 363.11,168.1 363.45,167.92 
	364.01,167.62 364.57,167.38 365.26,167.14 366.13,166.83 366.75,166.64 367.53,166.37 368.25,166.12 369.09,165.85 370.07,165.53 
	370.98,165.24 371.68,165.07 372.45,164.8 372.97,164.67 373.34,164.57 373.68,164.53 373.68,164.99 373.68,165.68 373.68,166.38 
	373.68,166.91 373.68,167.11 373.49,167.22 373.34,167.3 373.09,167.37 372.83,167.49 372.49,167.65 372.07,167.79 371.52,167.93 
	371.07,168.1 370.36,168.31 369.94,168.41 369.5,168.51 369.16,168.67 368.8,168.77 368.39,168.9 368.09,168.99 367.81,169.11 
	367.63,169.24 367.51,169.41 367.52,169.57 367.59,169.75 367.81,169.9 368.04,170.04 368.37,170.07 368.78,170.07 369.15,170 
	369.55,169.91 370.25,169.68 370.76,169.59 371.37,169.38 371.96,169.2 372.49,168.97 372.98,168.77 373.23,168.73 373.68,168.62 
	373.68,168.97 373.68,169.5 373.68,170.22 "/>
<polygon class="st57" points="379.95,166.65 380.92,166.26 381.86,166.09 382.73,165.87 383.43,165.73 384.1,165.73 384.85,165.61 
	385.35,165.61 386.04,165.61 386.63,165.61 387.26,165.71 387.72,165.73 388.36,165.79 389.05,165.85 389.83,166 390.32,166.1 
	390.84,166.36 391.28,166.59 391.7,166.84 392.24,167.01 392.66,167.26 392.93,167.59 393.14,167.82 393.24,168.2 393.24,168.46 
	393.12,168.77 392.91,169.1 392.66,169.34 392.35,169.62 392.02,169.83 391.58,170.07 391.23,170.26 390.68,170.52 390.19,170.69 
	389.65,170.87 389.14,170.99 388.68,171.12 388.14,171.22 387.52,171.36 386.87,171.61 386.14,171.89 385.4,172.13 384.64,172.36 
	383.96,172.6 383.05,172.87 382.14,173.17 381.34,173.44 380.47,173.64 379.91,173.64 379.4,173.72 378.85,173.72 378.85,172.54 
	378.85,171.78 379.2,171.58 379.72,171.41 380.35,171.2 381.2,170.97 382.19,170.66 382.82,170.45 383.63,170.1 384.63,169.66 
	385.52,169.2 386.33,169.01 386.87,168.82 387.48,168.66 387.82,168.52 388.19,168.35 388.43,168.2 388.44,168.01 388.37,167.82 
	388.12,167.69 387.89,167.64 387.35,167.55 386.93,167.54 386.63,167.58 386.04,167.72 385.58,167.8 384.93,168.01 384.36,168.07 
	383.76,168.28 383.22,168.53 382.73,168.69 382.14,168.85 381.7,169.05 381.02,169.34 380.47,169.58 380.04,169.66 379.7,169.75 
	378.85,169.93 378.85,169.2 378.85,168.34 378.85,167.57 378.85,167.2 378.85,166.91 379.14,166.81 379.55,166.73 "/>
<ellipse class="st58" cx="341.63" cy="122.77" rx="20.76" ry="31.74"/>
<ellipse class="st58" cx="407.71" cy="121.27" rx="20.76" ry="31.74"/>
<polygon class="st59" points="297.82,119.92 318.18,119.92 318.18,126.46 290.61,126.46 "/>
<rect x="364.15" y="119.92" class="st59" width="20.95" height="6.54"/>
<polygon class="st59" points="430.26,119.92 457.55,119.92 464,126.46 430.26,126.46 "/>
<polygon class="st60" points="331.38,85.02 334.18,82.55 337.97,79.56 340.27,78.7 344.47,77.93 349.66,77.93 352.77,77.93 
	357.04,77.93 359.21,77.93 359.87,77.93 361.03,78.7 361.03,80.43 361.03,82.38 361.03,84.19 359.87,85.02 359.63,85.84 
	353.92,86.66 351.8,86.66 349.17,86.66 346.2,86.66 341.59,86.66 338.13,86.66 334.84,86.66 333.69,86.66 332.53,86.66 "/>
<polygon class="st60" points="393.74,83.46 396.54,80.98 400.33,78 402.63,77.14 406.82,76.37 412.02,76.37 415.13,76.37 
	419.39,76.37 421.56,76.37 422.23,76.37 423.38,77.14 423.38,78.87 423.38,80.82 423.38,82.63 422.23,83.46 421.99,84.28 
	416.28,85.1 414.16,85.1 411.53,85.1 408.56,85.1 403.95,85.1 400.49,85.1 397.2,85.1 396.04,85.1 394.89,85.1 "/>
<polygon class="st9" points="357.3,90.53 359.45,89.14 361.35,88.51 362.86,87.88 364.51,87.88 365.64,87.88 367.04,87.88 
	368.93,88.38 370.32,88.64 372.66,88.64 374.24,88.51 376.77,88.38 378.92,87.12 380.81,86.49 383.34,85.86 385.11,85.86 
	386.5,85.86 388.27,86.61 390.04,87.5 391.18,88.19 391.81,89.02 388.27,88.19 386.37,87.63 384.86,87.5 382.07,88.19 380.56,89.14 
	378.66,89.68 376.26,90.53 373.48,90.53 370.32,90.53 368.43,89.68 366.02,89.68 364.76,89.68 363.12,89.68 361.47,90.53 
	359.96,90.53 "/>
<polygon class="st9" points="357.3,96.73 359.45,95.34 361.35,94.71 362.86,94.08 364.51,94.08 365.64,94.08 367.04,94.08 
	368.93,94.58 370.32,94.84 372.66,94.84 374.24,94.71 376.77,94.58 378.92,93.32 380.81,92.69 383.34,92.06 385.11,92.06 
	386.5,92.06 388.27,92.81 390.04,93.7 391.18,94.39 391.81,95.22 388.27,94.39 386.37,93.83 384.86,93.7 382.07,94.39 380.56,95.34 
	378.66,95.88 376.26,96.73 373.48,96.73 370.32,96.73 368.43,95.88 366.02,95.88 364.76,95.88 363.12,95.88 361.47,96.73 
	359.96,96.73 "/>
<polygon class="st61" points="341.48,171.19 338.27,172.79 334.83,175.29 331.98,178.42 328.54,181.89 325.7,186 322.86,190.11 
	319.79,195.12 316.59,199.62 314.58,202.49 312.22,207.69 309.86,211.92 308.45,217.37 307.28,221.9 310.71,215.53 313.95,210.82 
	317.68,204.26 320.05,200.03 322.11,195.96 325.84,190.88 328.68,186.28 331.88,182.75 334.48,178.59 "/>
<polygon class="st61" points="447.49,217.94 446.75,214.72 445.23,210.97 442.96,207.48 440.52,203.38 437.35,199.54 434.17,195.69 
	430.19,191.32 426.73,187.04 424.52,184.34 420.2,180.48 416.79,176.99 412.01,173.83 408.04,171.19 413.2,176.35 416.85,180.75 
	422.12,186.23 425.52,189.73 428.85,192.92 432.74,197.86 436.37,201.88 438.92,205.81 442.21,209.48 "/>
<polygon class="st62" points="340.3,175.21 339.03,175.88 338.52,176.72 338.52,177.57 338.52,178.92 337.85,181.11 337.43,183.22 
	336.92,186.09 336.92,190.06 336.08,194.19 336.08,196.81 336.08,203.64 336.5,210.06 337.17,213.52 338.19,216.98 339.2,220.52 
	342.24,226.26 343.93,228.54 344.94,230.31 346.29,230.99 345.7,226.6 345.7,224.82 346.29,223.64 347.89,228.28 350.59,234.02 
	353.21,237.48 355.49,240.1 357.85,242.46 359.62,243.73 360.38,243.73 360.38,241.79 359.79,239.09 359.71,237.74 361.81,241.79 
	363.59,244.15 365.27,245.84 367.3,247.69 369.75,249.21 372.03,250.65 373.71,251.49 375.33,252.08 375.82,252.08 377,251.49 
	380.13,249.72 383,248.12 384.94,246.6 386.96,244.49 388.82,242.29 390.34,239.68 391.18,237.82 391.18,239.76 390.68,242.12 
	390.25,243.56 390.68,243.98 391.77,243.56 392.7,242.38 395.57,239.93 397.85,237.4 399.37,235.29 401.14,232.34 402.41,229.47 
	403.59,226.18 404.35,223.73 404.35,225.33 404.94,227.27 404.94,229.21 404.26,231.24 404.94,231.07 406.03,230.23 407.64,227.95 
	409.32,224.91 411.18,222.04 412.02,219.26 413.31,214.88 414.19,209.44 414.19,205.97 414.46,199.78 414.05,192.3 413.58,188.76 
	412.29,181.69 411.54,178.56 410.99,176.72 409.56,175.21 408.61,175.21 "/>
<ellipse class="st63" cx="341.35" cy="121.27" rx="16.68" ry="24.54"/>
<polygon class="st64" points="325.09,115.77 327.72,107.12 331.47,101.5 334.25,99.06 338.11,97.19 341.35,96.73 343.97,97.03 
	346.8,98.07 348.02,98.77 349.8,100.11 351.65,101.97 352.81,103.45 354.76,106.67 355.92,109.31 356.66,111.51 357.15,113.41 
	357.15,114.46 357.15,115.16 357.61,115.77 "/>
<ellipse class="st63" cx="407.71" cy="121.27" rx="16.68" ry="24.54"/>
<polygon class="st64" points="391.46,115.77 394.09,107.12 397.83,101.5 400.62,99.06 404.47,97.19 407.72,96.73 410.34,97.03 
	413.17,98.07 414.39,98.77 416.17,100.11 418.02,101.97 419.18,103.45 421.12,106.67 422.28,109.31 423.02,111.51 423.52,113.41 
	423.52,114.46 423.52,115.16 423.97,115.77 "/>
<circle class="st65" cx="351.17" cy="131.24" r="5.5"/>
<circle class="st54" cx="353.88" cy="133.39" r="1.56"/>
<circle class="st65" cx="417.54" cy="131.24" r="5.5"/>
<circle class="st54" cx="420.24" cy="133.39" r="1.56"/>
<ellipse class="st66" cx="320.69" cy="152.13" rx="3.69" ry="6.66"/>
<ellipse class="st66" cx="315.38" cy="171.03" rx="3.69" ry="6.66"/>
<ellipse class="st66" cx="427.76" cy="152.13" rx="3.69" ry="6.66"/>
<ellipse class="st66" cx="433.95" cy="168.01" rx="3.69" ry="6.66"/>
<ellipse class="st66" cx="309.93" cy="189.93" rx="3.69" ry="6.66"/>
<ellipse class="st66" cx="304.63" cy="208.83" rx="3.69" ry="6.66"/>
<ellipse class="st66" cx="441.33" cy="184.36" rx="3.69" ry="6.66"/>
<ellipse class="st66" cx="447.52" cy="200.24" rx="3.69" ry="6.66"/>
<polygon class="st9" points="869.76,326.03 870.54,324.66 871.74,323.25 872.72,322.14 873.98,320.97 875.5,320.05 877.25,319.16 
	878.45,318.51 880.46,317.65 882.21,316.98 884.17,316.64 886.62,316.36 891.47,316.36 904.49,316.36 917.95,316.36 930.97,316.36 
	947.21,316.36 961.42,316.36 973.63,316.36 976.41,316.36 978.48,316.55 981.75,317.04 984.31,317.53 987.31,318.55 990.03,319.83 
	991.99,321.06 994.06,323.03 995.1,324.17 995.7,325.31 996.48,327.54 996.48,329.19 996.48,332.7 996.48,341.51 996.48,350.39 
	996.48,362.96 996.48,381.24 996.48,407.44 996.48,433.44 996.48,436.23 996.48,437.94 996.2,438.99 995.48,440.34 994.47,441.56 
	992.99,442.75 990.59,444.75 987.85,446.16 984.35,447.27 979.94,448.25 974.66,449.14 966.4,449.14 952.11,449.14 937.62,449.14 
	923.03,449.14 905.13,449.14 891.32,449.14 886.04,449.14 883.78,448.73 882.49,448.38 880.52,447.7 878.46,446.92 875.82,445.46 
	873.32,443.56 871.69,441.94 870.59,440.13 870.3,439.4 869.96,438.4 869.76,437.56 869.76,421.51 869.76,404.89 869.76,389.07 
	869.76,369.3 869.76,352.48 869.76,329.75 "/>
<polyline class="st67" points="893.43,402.88 893.92,403.55 894.23,403.88 894.55,404.25 894.88,404.62 895.32,405.1 895.82,405.64 
	896.33,406.16 896.87,406.64 897.33,407.07 897.86,407.59 898.46,408.15 898.98,408.59 899.51,408.98 900.13,409.44 900.77,409.88 
	901.48,410.4 902.03,410.78 902.79,411.23 903.44,411.58 904.16,411.96 905.03,412.37 906.01,412.73 906.72,412.98 907.55,413.25 
	908.43,413.44 909.35,413.62 910.29,413.73 910.65,413.76 912.52,413.76 913.19,413.72 913.94,413.64 914.76,413.53 915.62,413.37 
	916.53,413.12 917.27,412.91 918.03,412.67 918.87,412.4 920.12,411.94 921.1,411.63 922.16,411.32 923.21,411.03 923.95,410.88 
	924.63,410.7 925.47,410.55 926.26,410.44 927.01,410.38 927.97,410.34 928.83,410.29 929.86,410.28 931.01,410.32 932.03,410.36 
	932.89,410.39 933.85,410.44 934.68,410.56 935.47,410.68 936.34,410.84 937.12,411.01 937.93,411.22 938.65,411.42 939.4,411.65 
	940.13,411.9 940.9,412.19 941.68,412.44 942.56,412.73 943.33,412.98 944.18,413.24 944.81,413.41 945.29,413.54 945.91,413.64 
	946.69,413.71 947.5,413.76 948.3,413.76 949.48,413.76 950.2,413.71 950.9,413.59 951.65,413.41 952.37,413.24 953.15,413 
	953.83,412.76 954.45,412.5 955.08,412.22 955.8,411.87 956.62,411.46 957.26,411.06 957.88,410.67 958.44,410.24 958.97,409.8 
	959.67,409.3 960.41,408.81 961.02,408.28 961.66,407.78 962.12,407.32 962.72,406.81 963.18,406.38 963.72,405.79 964.27,405.25 
	964.68,404.83 965.13,404.35 965.56,403.88 965.99,403.44 966.23,403.12 966.39,402.83 966.27,402.88 959.54,402.88 948.09,402.88 
	934.18,402.88 917.46,402.88 900.61,402.88 893.43,402.88 "/>
<polyline class="st68" points="885.97,392.07 886.1,392.32 886.29,392.64 886.49,393.03 886.64,393.36 886.84,393.66 887.03,394.01 
	887.27,394.4 887.53,394.77 887.77,395.2 887.97,395.52 888.27,395.97 888.57,396.41 888.83,396.78 889.01,397.06 889.21,397.38 
	889.42,397.71 889.67,398.08 889.87,398.37 890.1,398.7 890.34,399.05 890.57,399.34 890.83,399.73 891.13,400.12 891.41,400.57 
	891.67,400.9 892.09,401.38 892.38,401.76 892.77,402.18 893.09,402.51 893.33,402.78 893.43,402.88 895.6,402.88 896.67,402.88 
	910.69,402.88 920.51,402.88 934.18,402.88 948.09,402.88 961.52,402.88 966.27,402.88 966.39,402.83 966.52,402.73 966.7,402.53 
	967.03,402.12 967.64,401.31 968.16,400.61 969.14,399.41 969.88,398.46 970.67,397.35 971.5,396.19 972.27,395.05 972.92,394.01 
	973.54,393.04 974,392.34 974.17,392.02 974.11,392.07 970.74,392.07 960.17,392.07 947.75,392.07 930.39,392.07 911.54,392.07 
	892.74,392.07 885.97,392.07 "/>
<polyline class="st69" points="882.28,381.44 882.36,381.91 882.46,382.43 882.65,383.08 882.82,383.64 883,384.19 883.22,384.9 
	883.5,385.81 883.81,386.82 884.07,387.68 884.38,388.56 884.68,389.25 885.03,390.11 885.32,390.72 885.63,391.37 885.97,392.07 
	886.57,392.07 899.06,392.07 913.44,392.07 925.93,392.07 940.42,392.07 963.44,392.07 973.92,392.07 974.11,392.07 974.17,392.02 
	974.24,391.94 974.36,391.8 974.53,391.63 974.62,391.49 974.64,391.45 974.44,391.4 974.13,391.31 973.83,391.24 973.44,391.13 
	972.75,390.89 972.1,390.67 971.38,390.4 970.61,390.08 969.95,389.79 969.44,389.51 968.87,389.16 968.37,388.86 967.96,388.62 
	967.46,388.32 966.96,387.97 966.45,387.62 966.07,387.3 965.56,386.93 965.12,386.58 964.59,386.13 964.08,385.66 963.68,385.28 
	963.25,384.83 962.94,384.5 962.4,383.89 961.91,383.26 961.55,382.66 961.38,382.19 961.2,381.77 961.16,381.44 "/>
<polyline class="st70" points="881.94,370.72 881.84,371.05 881.77,371.54 881.72,371.93 881.68,372.51 881.65,372.96 
	881.59,373.37 881.55,373.78 881.49,374.44 881.49,374.9 881.52,375.73 881.55,376.21 881.61,376.78 881.66,377.38 881.72,377.96 
	881.79,378.66 881.86,379.16 881.94,379.79 882.06,380.44 882.15,380.96 882.28,381.44 882.72,381.44 888.14,381.44 893.05,381.44 
	907.04,381.44 919.83,381.44 941.51,381.44 960.88,381.44 961.16,381.44 961.13,381.42 961.1,381.38 961.05,381.33 961.01,381.26 
	960.97,381.2 960.9,381.1 960.82,380.96 960.72,380.79 960.65,380.67 960.58,380.51 960.5,380.36 960.4,380.19 960.31,380.01 
	960.2,379.78 960.13,379.6 960.06,379.41 959.96,379.16 959.89,378.89 959.79,378.62 959.71,378.38 959.61,378.11 959.54,377.86 
	959.48,377.56 959.44,377.38 959.36,377 959.28,376.62 959.22,376.3 959.2,375.96 959.18,375.3 959.17,374.75 959.17,373.96 
	959.18,373.33 959.23,372.83 959.28,372.35 959.35,372.02 959.43,371.44 959.47,370.99 959.54,370.7 959.45,370.72 958.86,370.72 
	953.88,370.72 947.51,370.72 939.94,370.72 929.99,370.72 920.56,370.72 909.63,370.72 898.95,370.72 887.61,370.72 881.94,370.72 
	"/>
<polyline class="st71" points="886.5,359.92 886.21,360.25 885.89,360.67 885.56,361.11 885.2,361.65 884.78,362.36 884.32,363.21 
	883.85,364.12 883.5,364.95 883.14,365.85 882.94,366.61 882.76,367.35 882.45,368.42 882.26,369.11 882.1,369.75 881.99,370.47 
	881.96,370.64 881.94,370.72 882.3,370.72 889.63,370.72 905.23,370.72 929.37,370.72 958.34,370.72 959.26,370.72 959.45,370.72 
	959.54,370.7 959.57,370.65 959.6,370.57 959.66,370.36 959.72,370.16 959.8,369.84 959.9,369.54 960,369.27 960.07,369.01 
	960.14,368.72 960.21,368.54 960.34,368.22 960.51,367.87 960.68,367.52 960.84,367.18 961.03,366.81 961.29,366.4 961.51,366.01 
	961.78,365.54 962.03,365.18 962.24,364.88 962.46,364.6 962.7,364.26 962.96,363.88 963.32,363.48 963.67,363.1 964,362.8 
	964.4,362.46 964.76,362.13 965.22,361.76 965.7,361.39 966.12,361.09 966.68,360.73 967.05,360.5 967.35,360.26 967.65,360 
	947.54,360 914.3,360 886.5,359.92 "/>
<polygon class="st72" points="926.34,350.17 926.25,349.74 926.16,349.13 926.16,348.42 926.16,347.84 926.16,347.23 926.16,346.69 
	926.21,346.3 926.3,345.81 926.4,345.3 926.57,344.71 926.75,344.1 927,343.41 927.37,342.57 927.63,342.05 927.93,341.5 
	928.29,340.99 928.64,340.41 928.97,339.94 929.34,339.46 929.73,339.02 930.05,338.53 930.52,338.03 930.92,337.58 931.35,337.16 
	931.79,336.76 932.38,336.24 932.97,335.67 933.55,335.25 934.05,334.86 934.77,334.34 935.58,333.86 936.36,333.4 937.2,332.95 
	938.14,332.53 939.1,332.03 940.13,331.64 941.18,331.22 942.39,330.89 943.47,330.54 944.59,330.28 945.67,330.07 946.76,329.92 
	947.66,329.82 948.03,329.8 948.33,329.8 948.58,329.8 948.68,329.77 948.73,329.88 948.77,330.02 948.84,330.37 948.88,330.81 
	948.92,331.32 948.92,331.74 948.92,332.18 948.92,332.71 948.92,332.95 948.87,333.32 948.83,333.67 948.73,334.06 948.6,334.7 
	948.45,335.21 948.27,335.8 948.14,336.27 947.95,336.82 947.71,337.37 947.43,337.93 947.16,338.5 946.87,339.02 946.6,339.48 
	946.32,339.92 945.88,340.5 945.44,341.04 945.11,341.43 944.64,342.07 944.34,342.38 944,342.77 943.6,343.19 943.12,343.68 
	942.74,344.05 942.2,344.55 941.78,344.85 941.29,345.23 940.61,345.69 940.11,346.05 939.66,346.31 939.09,346.66 938.42,347.07 
	937.75,347.44 936.96,347.86 936.2,348.18 935.44,348.47 934.55,348.79 933.56,349.08 932.51,349.38 931.48,349.64 930.21,349.89 
	929.13,350.01 928.17,350.12 927.39,350.17 "/>
<polygon class="st72" points="886.5,359.92 886.96,359.45 887.75,358.65 888.75,357.65 889.56,356.89 890.51,356.07 891.56,355.3 
	892.56,354.64 893.47,354.01 894.55,353.4 895.71,352.8 897.09,352.15 898.4,351.64 899.58,351.17 901,350.7 902.44,350.29 
	903.3,350.09 903.98,349.93 904.67,349.83 905.55,349.66 906.26,349.57 907.09,349.5 908.06,349.5 910.72,349.5 911.59,349.54 
	912.33,349.62 913.23,349.75 914.19,349.9 915.43,350.11 916.36,350.3 917.4,350.52 918.6,350.86 919.88,351.22 921.07,351.52 
	922.09,351.81 923.26,352.14 924.45,352.47 925.41,352.67 926.22,352.81 927.28,352.9 928.19,353.05 929.21,353.17 930.3,353.17 
	930.79,353.17 931.24,353.09 931.85,353 932.61,352.89 933.45,352.77 934.34,352.65 935.29,352.45 935.94,352.26 936.62,352.07 
	937.34,351.86 938.35,351.58 939.2,351.33 940.13,351.06 940.97,350.81 941.78,350.63 942.53,350.44 943.39,350.24 944.05,350.11 
	944.7,350.02 945.45,349.9 946.09,349.8 946.89,349.74 947.75,349.63 948.46,349.58 948.98,349.5 949.93,349.5 951.32,349.5 
	952.3,349.5 953.15,349.58 953.92,349.69 954.75,349.83 955.66,349.98 956.51,350.17 957.4,350.37 958.18,350.61 959.01,350.9 
	959.88,351.21 960.58,351.4 961.37,351.67 962.01,351.92 962.88,352.29 963.59,352.63 964.34,352.99 964.97,353.33 965.66,353.69 
	966.19,354.04 966.65,354.31 967.26,354.71 967.88,355.11 968.39,355.47 969,355.93 969.56,356.36 970.03,356.77 970.43,357.15 
	970.86,357.58 971.19,357.9 971.29,358.01 971.29,358.06 971.24,358.1 971.11,358.18 970.87,358.3 970.4,358.51 969.81,358.76 
	969.26,359.03 968.82,359.26 968.49,359.44 968.18,359.68 967.89,359.86 967.73,359.98 967.65,360 967.5,360 965.35,360 957.81,360 
	949.67,360 940.92,360 934.14,360 929.1,360 923.16,360 916.5,360 909.42,360 899.42,360 "/>
</svg>
