<?xml version="1.0" encoding="utf-8"?>
<!-- Generator: Adobe Illustrator 25.1.0, SVG Export Plug-In . SVG Version: 6.00 Build 0)  -->
<svg version="1.1" id="Layer_1" xmlns="http://www.w3.org/2000/svg" xmlns:xlink="http://www.w3.org/1999/xlink" x="0px" y="0px"
	 viewBox="0 0 1056 885.75" style="enable-background:new 0 0 1056 885.75;" xml:space="preserve">
<style type="text/css">
	.st0{fill:#FFFFFF;stroke:#FFFFFF;stroke-width:3;stroke-miterlimit:10;}
	.st1{fill:#A47449;stroke:#654321;stroke-width:5;stroke-miterlimit:10;}
	.st2{fill:#AFAEB2;stroke:#000000;stroke-miterlimit:10;}
	.st3{fill:#8E8D91;stroke:#000000;stroke-miterlimit:10;}
	.st4{fill:#86D6DA;stroke:#000000;stroke-width:0.5;stroke-miterlimit:10;}
	.st5{fill:#868589;stroke:#000000;stroke-width:0.5;stroke-miterlimit:10;}
	.st6{fill:#98D4D9;stroke:#000000;stroke-width:0.5;stroke-miterlimit:10;}
	.st7{fill:#ACAEB1;stroke:#000000;stroke-miterlimit:10;}
	.st8{fill:#5CB7A4;stroke:#000000;stroke-width:0.25;stroke-miterlimit:10;}
	.st9{fill:#8A898D;stroke:#000000;stroke-width:0.25;stroke-miterlimit:10;}
	.st10{fill:#73B5A5;stroke:#000000;stroke-width:0.25;stroke-miterlimit:10;}
	.st11{fill:#87868A;stroke:#000000;stroke-width:0.25;stroke-miterlimit:10;}
	.st12{fill:#82B3A6;stroke:#000000;stroke-width:0.25;stroke-miterlimit:10;}
	.st13{fill:#8D8C90;stroke:#000000;stroke-width:0.25;stroke-miterlimit:10;}
	.st14{fill:none;stroke:#000000;stroke-miterlimit:10;}
	.st15{fill:none;stroke:#000000;stroke-width:0.5;stroke-miterlimit:10;}
	.st16{fill:#555358;stroke:#000000;stroke-width:0.5;stroke-miterlimit:10;}
	.st17{fill:#B7B7B9;stroke:#000000;stroke-width:0.5;stroke-miterlimit:10;}
	.st18{fill:#505150;stroke:#000000;stroke-width:0.5;stroke-miterlimit:10;}
	.st19{fill:#F3AB40;}
	.st20{fill:#E9AD55;}
	.st21{fill:#43967F;}
	.st22{fill:#245EA9;}
	.st23{fill:#ADAEB1;}
	.st24{fill:none;}
	.st25{fill:#599480;}
	.st26{fill:#2964BF;}
	.st27{fill:#C6332A;}
	.st28{fill:#FFF2EB;stroke:#000000;stroke-miterlimit:10;}
	.st29{fill:#FFF7F3;stroke:#000000;stroke-miterlimit:10;}
	.st30{fill:#6C707F;stroke:#000000;stroke-miterlimit:10;}
	.st31{fill:#FFC4A6;stroke:#000000;stroke-miterlimit:10;}
	.st32{fill:#FFDAC3;stroke:#000000;stroke-miterlimit:10;}
	.st33{fill:#E5EAFF;stroke:#000000;stroke-miterlimit:10;}
	.st34{fill:#CB997E;stroke:#000000;stroke-miterlimit:10;}
	.st35{fill:url(#SVGID_1_);stroke:#000000;stroke-miterlimit:10;}
	.st36{fill:url(#SVGID_2_);stroke:#000000;stroke-miterlimit:10;}
	.st37{fill:none;stroke:#000817;stroke-miterlimit:10;}
	.st38{fill:#D48BFF;stroke:#D48BFF;stroke-width:5;stroke-miterlimit:10;}
	.st39{font-family:'ArialMT';}
	.st40{font-size:32.704px;}
</style>
<polygon class="st0" points="514.01,321.21 578.23,218.61 449.79,218.61 "/>
<rect x="-0.15" y="0.41" class="st1" width="1056.07" height="1023.59"/>
<polygon class="st2" points="337.79,852.31 252.37,852.31 251.7,852.08 251.03,851.78 250.43,851.36 249.71,850.81 248.8,850.12 
	248.05,849.55 247.5,849 246.87,848.61 246.54,848.22 246.39,847.79 246.39,847.31 246.39,846.72 246.39,842.84 246.39,838.08 
	246.39,833.79 246.39,828.97 246.39,826.71 246.39,825.43 246.39,818.45 246.86,817.9 247.66,817.82 249.1,817.65 250.09,817.52 
	251.83,817.24 253.14,817.01 255.06,816.61 256.88,816.11 258.47,815.7 260.12,815.22 262.19,814.47 262.95,814.23 263.67,813.98 
	264.24,813.73 264.72,813.55 265.17,813.37 265.82,813.1 266.61,812.74 267.42,812.38 268.3,811.99 269.29,811.49 270.36,810.94 
	271.17,810.5 271.99,810 273.08,809.31 273.96,808.7 275.05,807.93 275.71,807.5 276.43,807.01 277.25,806.51 277.79,806.12 
	278.45,805.61 279.09,805.17 279.78,804.68 280.64,803.94 281.37,803.26 281.86,802.8 282.45,802.15 282.99,801.61 283.56,801.04 
	284.05,800.59 284.64,800.05 285.32,799.3 285.86,798.7 286.64,797.8 287.37,796.89 288.05,795.87 288.73,794.98 289.39,793.88 
	290.03,792.87 291.05,791.45 291.87,789.99 292.45,788.65 293.19,787.15 294.01,785.33 294.79,783.37 295.51,781.16 296.25,778.73 
	296.97,775.57 297.3,773.96 297.67,771.89 297.79,769.59 297.91,766.07 297.8,761.8 297.7,758.89 297.35,756.66 296.68,754.14 
	295.94,751.59 295.05,748.85 293.98,745.97 292.68,743.12 291.24,740.79 289.76,738.49 287.5,735.27 285.91,733.38 284.28,731.53 
	282.77,729.91 280.81,728.02 278.66,726.13 276.33,724.28 274.44,722.88 272.22,721.54 269.04,719.81 265.89,718.36 264.08,717.55 
	261.12,716.4 259.3,715.61 256.94,714.79 254.58,714.19 251.71,713.61 248.88,713.1 246.74,712.92 244.31,712.76 241.44,712.7 
	238.54,712.7 236.94,712.7 234.42,712.83 232,713.1 229.59,713.56 227.54,713.97 225.92,714.39 223.87,714.86 221.75,715.59 
	220.02,716.13 218.28,716.75 216.83,717.42 215.03,718.2 213.09,719.29 210.95,720.58 209.17,721.44 207.01,722.72 205.29,723.97 
	203.49,725.41 202.18,726.44 200.71,727.68 199.06,729.13 197.59,730.71 195.96,732.49 194.65,734.05 193.02,736.06 191.62,738.33 
	190.49,740.51 189.22,742.94 188.17,745.08 187.08,747.04 186.21,749.49 185.63,751.05 185.01,752.94 184.63,755.21 184.27,757.26 
	183.94,759.4 183.87,761.56 183.85,763.5 183.85,765.77 183.87,767.79 183.96,769.53 184.23,771.58 184.56,773.74 184.85,775.57 
	185.43,777.59 186.12,780.55 187.19,783.14 188.5,786.17 190.37,789.53 192.2,792.76 194.27,795.72 196.59,798.48 198.61,800.71 
	200.8,802.78 203.65,805.3 206.32,807.39 208.88,809.13 211.53,810.64 214.63,812.25 217.05,813.4 220.62,814.96 224.54,816.3 
	228.08,817.23 230.86,817.84 232.82,818.12 233.62,818.24 234.18,818.28 235,818.35 235.76,818.5 236.07,818.59 236.36,818.87 
	236.24,828.17 236.3,836.35 236.33,843.98 236.35,847.04 236.16,847.57 235.77,847.91 235.32,848.32 234.57,848.97 233.87,849.64 
	233.34,850.11 232.59,850.81 231.84,851.45 231.03,851.95 229.94,852.31 228.69,852.31 226.87,852.31 220.29,852.31 203.86,852.31 
	184.86,852.31 168.55,852.31 152.61,852.31 148.2,852.31 146.8,851.78 144.87,850.97 143.04,850.16 141.72,849.45 139.8,847.82 
	137.97,845.79 136.95,844.07 135.73,842.24 134.82,840.01 134.82,837.67 134.82,820.19 134.82,774.12 134.82,708.71 134.82,631.75 
	134.82,552.73 134.82,461.26 134.82,377.5 134.82,329.25 134.82,325.71 135.27,323.7 136.2,321.69 137.42,320.39 138.86,318.67 
	140.51,317.09 142.38,315.94 144.53,315.44 146.83,315.44 164.26,315.44 213.58,315.44 262.04,315.44 294.06,315.44 321.31,315.44 
	332.56,315.44 336.82,315.44 339.54,316.23 341.43,317.17 343.44,318.95 344.38,320.84 345.92,321.31 347.81,321.31 350.05,321.31 
	352.42,321.43 411.22,321.45 474.49,321.67 529.85,322.23 581.65,322.23 623.31,322.23 660.85,322.34 689.59,322.68 719.4,323.19 
	721.73,323.14 724,322.1 726.08,320.78 727.78,319.17 729.2,317.94 730.14,317.09 731.84,316.43 734.68,316.05 738.18,315.96 
	757.83,315.44 801.89,315.44 882.37,315.44 932.49,315.44 936.36,316.11 939.71,317.06 942.54,318.42 945.47,320.41 947.67,323.03 
	949.24,326.59 949.77,331.31 949.77,335.82 949.77,393.77 949.77,463.41 949.77,536.65 949.77,618.3 949.77,687.71 949.77,754.71 
	949.77,821.23 949.77,838.28 949.77,841.21 949.35,843.57 948.64,845.4 947.51,846.75 945.96,848.23 943.84,849.57 941.79,850.28 
	938.96,851.13 936.33,851.65 931.7,852.31 926.99,852.31 917.04,852.31 898.35,852.31 871.75,852.31 842.13,852.31 815.21,852.31 
	791.3,852.31 748.54,852.31 746.87,851.99 745.39,851.37 744.31,850.68 743.56,849.54 743.28,848.23 743.16,846.74 743.11,845.49 
	743.05,844.69 742.59,844.12 741.8,843.89 740.71,843.84 739.57,843.78 736.15,843.72 730.22,843.72 706.11,843.69 654.93,843.57 
	619.91,843.48 580.2,843.29 527.79,843.19 482.77,843.19 433.95,843.19 378.27,843.29 350.1,843 348.95,843 347.84,843.21 
	346.95,844.05 346.22,845.31 345.74,846.63 345.16,847.99 344.11,848.88 343.22,849.78 342.01,850.88 340.07,851.77 339.23,852.31 
	"/>
<polygon class="st3" points="794.12,743.05 793.42,744.24 792.55,746.02 791.42,748.16 790.73,750.09 789.89,752.43 789.12,754.81 
	788.47,756.99 787.83,759.57 787.59,761.15 787.42,763.57 787.42,765.66 787.42,769.86 787.42,771.27 787.42,772.84 787.75,774.58 
	788.19,776.64 788.47,778.61 789.04,780.79 789.56,782.36 790.01,783.98 790.77,785.91 791.34,787.32 792.02,788.9 792.79,790.51 
	793.48,792.04 794.36,793.29 795.25,794.75 796.42,796.32 797.47,797.89 798.76,799.35 799.89,800.8 801.06,801.97 802.27,803.42 
	803.36,804.63 804.53,805.44 806.06,806.73 807.59,807.9 808.84,808.91 809.93,809.71 811.3,810.76 812.96,811.57 814.85,812.74 
	816.47,813.66 818.28,814.59 820.14,815.44 821.87,816.04 823.57,816.73 825.3,817.3 826.79,817.78 828.49,818.34 830.22,818.87 
	832.2,819.19 833.97,819.59 835.99,819.8 838.21,820.08 840.02,820.08 843.05,820.08 849.42,820.08 851.56,820.08 853.54,819.72 
	855.47,819.51 857.25,819.07 859.1,818.59 861.24,818.14 862.82,817.66 864.99,816.93 867.33,816 869.27,815.04 871.45,814.15 
	873.14,813.22 874.96,812.17 876.65,811.2 878.39,810.03 879.8,809.03 881.33,807.78 882.62,806.65 884.27,805.19 885.61,804.02 
	886.65,803.06 888.07,801.6 889.12,800.35 890.08,799.18 891.17,797.65 892.22,796.12 893.27,794.67 894,793.5 894.8,792.08 
	895.57,790.63 896.21,789.38 897.02,787.89 897.71,786.32 898.47,784.46 899.08,783.01 899.52,781.57 899.84,780.1 900.21,778.21 
	900.49,776.84 900.73,775.51 900.93,774.21 900.93,771.96 900.93,769.86 900.93,763.81 900.93,762.28 900.93,760.7 900.49,758.44 
	899.76,756.14 899.12,753.93 898.47,751.79 897.71,749.93 896.86,747.96 895.77,745.7 895,744.2 894.12,742.55 893.03,740.53 
	891.94,739 890.65,737.19 889.07,735.29 887.26,733.35 886.09,732.14 884.56,730.61 882.54,728.96 881.01,727.63 879.35,726.37 
	877.42,725 875.32,723.71 873.38,722.5 871.12,721.37 868.87,720.32 866.49,719.32 864.47,718.51 862.37,717.78 860.35,717.06 
	858.3,716.49 856.36,716.05 854.1,715.6 851.76,715.28 849.42,715.08 847.65,715.08 839.78,715.08 838.05,715.28 836.23,715.56 
	834.7,715.73 832.52,716.17 830.5,716.61 828.65,717.06 826.79,717.54 825.14,717.98 823.69,718.55 822.16,719.15 820.42,719.84 
	818.81,720.45 817.07,721.21 815.38,722.14 813.76,723.03 812.19,724.04 810.34,725.25 808.96,726.25 807.51,727.38 806.34,728.27 
	805.09,729.28 803.72,730.49 802.75,731.5 801.26,732.91 800.41,733.96 799.32,735.17 798.4,736.26 797.27,737.51 796.18,738.96 
	795.41,740.25 "/>
<polygon class="st3" points="187.94,649.22 188.26,647.61 188.7,645.64 189.19,644.11 189.67,642.5 190.35,641.26 191.03,640.01 
	191.8,638.69 192.64,637.48 193.61,636.07 194.53,634.87 195.94,633.74 197.22,632.9 198.51,631.85 199.88,630.81 201.12,630.17 
	202.65,629.36 204.18,628.64 205.98,628.08 207.71,627.59 209.32,627.27 210.77,627.07 212.37,626.83 213.86,626.83 215.75,626.83 
	217.04,626.83 218.84,627.11 220.13,627.43 221.9,627.88 223.47,628.4 225.27,628.96 227,629.76 228.89,630.73 230.18,631.61 
	231.58,632.7 233.03,633.9 234.48,635.43 235.72,636.84 236.97,638.02 237.69,639.37 238.54,640.82 239.46,642.26 240.31,643.95 
	240.47,645.24 241.03,647.65 241.23,649.58 241.23,651.95 241.23,654.08 241.03,656.69 240.71,658.46 240.27,659.79 239.46,661.31 
	238.54,662.96 237.65,664.61 236.61,665.81 235.52,667.34 234.36,668.55 233.11,669.67 232.19,670.35 231.02,671.2 229.53,672.16 
	228.57,672.69 227.24,673.49 226.04,674.05 224.47,674.7 223.02,675.1 221.62,675.5 220.25,675.78 218.8,676.14 216.71,676.14 
	214.58,676.14 212.9,676.14 212.25,676.14 211.09,676.14 209.2,675.86 207.47,675.46 206.23,674.94 204.26,674.45 202.85,673.73 
	201.2,672.97 199.51,671.88 197.83,670.76 196.5,669.59 195.13,668.31 193.81,666.94 192.84,665.65 191.76,664.09 190.75,662.52 
	189.75,660.91 189.23,659.38 188.66,657.78 188.18,656.17 187.94,654.48 187.94,652.51 187.94,650.62 "/>
<polygon class="st3" points="249.1,817.65 250.09,817.52 251.83,817.24 253.14,817.01 255.06,816.61 256.88,816.11 258.47,815.7 
	260.12,815.22 262.19,814.47 262.95,814.23 263.67,813.98 264.24,813.73 265.17,813.37 265.82,813.1 266.61,812.74 267.42,812.38 
	268.3,811.99 269.29,811.49 270.36,810.94 271.17,810.5 271.99,810 273.08,809.31 273.96,808.7 275.05,807.93 276.43,807.01 
	277.25,806.51 278.45,805.61 279.09,805.17 279.78,804.68 280.64,803.94 281.37,803.26 282.45,802.15 282.99,801.61 284.05,800.59 
	284.64,800.05 285.86,798.7 286.64,797.8 287.37,796.89 288.05,795.87 288.73,794.98 289.39,793.88 290.03,792.87 291.05,791.45 
	291.87,789.99 292.45,788.65 293.19,787.15 294.01,785.33 294.79,783.37 295.51,781.16 296.25,778.73 296.97,775.57 297.3,773.96 
	297.67,771.89 297.79,769.59 297.91,766.07 297.8,761.8 297.7,758.89 297.35,756.66 296.68,754.14 295.94,751.59 295.05,748.85 
	293.98,745.97 292.68,743.12 291.24,740.79 289.76,738.49 287.5,735.27 285.91,733.38 284.28,731.53 282.77,729.91 280.81,728.02 
	278.66,726.13 276.33,724.28 274.44,722.88 272.22,721.54 269.04,719.81 265.89,718.36 264.08,717.55 261.12,716.4 259.3,715.61 
	256.94,714.79 254.58,714.19 251.71,713.61 248.88,713.1 246.74,712.92 244.31,712.76 241.44,712.7 238.54,712.7 236.94,712.7 
	234.42,712.83 232,713.1 229.59,713.56 227.54,713.97 225.92,714.39 223.87,714.86 221.75,715.59 220.02,716.13 218.28,716.75 
	216.83,717.42 215.03,718.2 213.09,719.29 210.95,720.58 209.17,721.44 207.01,722.72 205.29,723.97 203.49,725.41 202.18,726.44 
	200.71,727.68 199.06,729.13 197.59,730.71 195.96,732.49 194.65,734.05 193.02,736.06 191.62,738.33 190.49,740.51 189.22,742.94 
	188.17,745.08 187.08,747.04 186.21,749.49 185.63,751.05 185.01,752.94 184.63,755.21 184.27,757.26 183.94,759.4 183.87,761.56 
	183.85,763.5 183.85,765.77 183.87,767.79 183.96,769.53 184.23,771.58 184.56,773.74 184.85,775.57 185.43,777.59 186.12,780.55 
	187.19,783.14 188.5,786.17 190.37,789.53 192.2,792.76 194.27,795.72 196.59,798.48 198.61,800.71 200.8,802.78 203.65,805.3 
	206.32,807.39 208.88,809.13 211.53,810.64 214.63,812.25 217.05,813.4 220.62,814.96 224.54,816.3 228.08,817.23 230.86,817.84 
	232.82,818.12 234.18,818.28 235.41,818.28 236.67,818.28 238.06,818.28 239.94,818.28 241.52,818.28 244,818.28 245.41,818.28 
	246.05,818.28 246.86,817.9 247.66,817.82 "/>
<polygon class="st4" points="824.61,769.84 824.61,766.17 825.77,765.02 826.61,764.07 827.97,763.34 828.6,762.92 832.12,762.92 
	833.17,763.76 834.01,764.28 834.79,765.02 835.32,765.91 835.32,769.84 835.32,770.37 834.58,771.1 833.8,771.94 832.64,772.83 
	829.02,772.83 827.13,771.89 825.45,770.68 "/>
<polygon class="st5" points="828.65,770.63 827.03,769.27 827.03,766.43 827.84,765.54 828.65,764.86 831.65,764.86 832.85,765.7 
	833.64,766.75 833.64,769.53 832.33,770.63 "/>
<polygon class="st4" points="837.57,772.57 837.57,763.07 843.35,763.07 844.45,763.86 844.97,764.86 844.97,767.74 844.18,768.79 
	843.29,769.11 839.36,769 839.31,772.57 "/>
<polygon class="st5" points="839.31,764.86 839.31,767.58 842.77,767.58 843.61,766.85 843.61,765.59 842.93,765.07 "/>
<polygon class="st6" points="846.23,762.92 846.28,772.83 854.18,772.83 854.18,770.63 848.41,770.63 848.41,768.74 854.18,768.85 
	854.18,766.64 848.25,766.69 848.14,764.86 854.18,764.86 854.13,762.92 "/>
<polygon class="st4" points="855.94,762.92 855.94,772.83 858.61,772.83 858.61,766.9 858.61,766.22 859.26,766.63 860,767.82 
	864.1,772.71 864.2,772.95 865.53,772.95 865.77,772.95 865.67,762.8 864.31,762.8 864.29,769.5 864.29,769.81 863.91,769.83 
	863.58,769.52 863.33,769.17 858.83,763.13 858.62,762.8 "/>
<polyline class="st7" points="252.37,852.31 248.6,852.31 245.45,852.31 241.6,852.31 238.76,852.31 235.21,852.31 233.18,852.31 
	231.03,851.95 231.84,851.45 232.59,850.81 233.87,849.64 234.57,848.97 235.32,848.32 236.16,847.57 236.35,847.04 236.34,845.96 
	236.33,843.98 236.3,836.35 236.24,828.17 236.36,818.87 236.67,818.28 238.06,818.28 239.94,818.28 241.52,818.28 244,818.28 
	245.41,818.28 246.39,818.45 246.39,820 246.39,822.18 246.39,825.43 246.39,828.97 246.39,833.79 246.39,838.08 246.39,842.84 
	246.39,846.72 246.39,847.79 246.54,848.22 247.5,849 248.05,849.55 249.71,850.81 251.03,851.78 252.37,852.31 "/>
<polygon class="st8" points="212.6,769.07 212.6,768.09 212.6,767.11 212.6,765.98 212.6,764.19 212.6,762.78 212.6,761.46 
	212.6,760.72 212.6,760.29 213.32,760.29 213.85,760.29 214.64,760.29 215.38,760.29 216.31,760.29 217.17,760.29 217.6,760.29 
	217.96,760.29 218.46,760.29 219.06,760.44 219.44,760.72 219.92,761.23 220.33,761.73 220.49,762.28 220.49,762.85 220.49,763.43 
	220.49,764.07 220.49,764.68 220.28,765 219.9,765.31 219.59,765.67 219.13,766.03 218.49,766.27 217.94,766.53 216.98,766.61 
	216.55,766.61 215.69,766.61 214.92,766.61 214.45,766.61 214.06,766.7 213.92,766.96 213.92,767.56 213.97,768.23 213.94,768.57 
	213.92,769.07 213.49,769.07 213.11,769.07 "/>
<polygon class="st9" points="213.94,764.68 213.94,763.76 213.94,763.19 214.04,762.83 214.37,762.73 214.64,762.73 215.09,762.73 
	215.64,762.73 216.31,762.73 216.98,762.73 217.48,762.73 217.89,762.73 218.37,762.83 218.73,762.92 218.99,763.19 218.99,763.71 
	218.99,764.12 218.61,764.33 217.96,764.57 217.63,764.68 216.74,764.68 215.93,764.68 214.59,764.68 "/>
<polygon class="st10" points="222.3,766.86 222.3,765.1 222.3,763.71 222.45,762.95 222.99,762.53 223.73,761.77 224.3,761.4 
	224.77,760.9 225.14,760.63 225.54,760.29 226.03,760.29 226.8,760.29 227.76,760.29 228.53,760.29 228.98,760.29 229.52,760.43 
	229.92,760.63 230.48,760.98 231.05,761.44 231.55,761.96 231.97,762.56 232.39,763.18 232.88,763.84 233.11,764.29 233.11,765.49 
	233.11,766.12 233.11,766.56 233.11,767.18 233.11,767.65 232.49,768.17 231.72,769.07 230.91,769.65 230.36,769.98 229.79,770.25 
	229.15,770.25 228.23,770.25 227.37,770.25 226.23,770.25 225.84,770.25 225.04,769.73 224.4,769.31 223.86,768.81 223.07,768.12 
	222.82,767.65 "/>
<polygon class="st11" points="223.64,766.37 223.64,764.41 223.88,763.99 224.38,763.6 224.95,763.18 225.51,762.73 226.21,762.73 
	227.1,762.73 227.81,762.73 228.56,762.73 228.98,762.88 229.45,763.03 229.87,763.25 230.34,763.71 230.66,763.99 230.93,764.17 
	230.93,764.44 231.1,764.98 231.1,765.49 231.1,766.37 230.86,766.93 230.41,767.8 230.02,768 229.3,768 228.31,768 227.37,768 
	226.26,768 225.79,768 225.22,767.75 224.7,767.31 224.13,766.96 "/>
<polygon class="st12" points="233.45,761.54 234.11,762.73 234.66,763.71 235.01,764.89 235.4,765.67 235.71,766.48 236.1,767.38 
	236.29,768.31 236.64,769.07 237.03,769.07 237.42,769.07 237.81,769.07 238.4,769.07 238.63,768 238.86,767.26 239.14,766.44 
	239.6,765.49 239.95,764.68 240.23,763.95 240.88,763.99 241.32,763.99 241.7,764.46 241.9,765.37 242.21,766.64 242.56,767.53 
	243.07,768.43 243.49,769.07 243.92,769.07 244.47,769.07 245.13,769.07 245.52,768 245.83,766.87 246.3,765.74 246.88,764.46 
	247.15,763.49 247.31,762.73 247.5,761.97 247.5,761.54 246.73,761.54 246.02,761.38 245.75,762.24 245.52,763.25 245.17,764.68 
	244.9,765.37 244.51,766.21 244.23,766.64 243.65,766.64 243.14,766.17 242.91,765.04 242.6,763.71 242.09,762.73 241.82,761.93 
	241.59,761.38 240.88,761.38 240.48,761.38 240.07,761.38 239.64,762.2 239.14,763.29 238.82,764.26 238.51,765.23 238.24,765.9 
	238.01,766.56 237.38,766.64 236.49,765.23 236.14,764.11 235.79,762.9 235.16,761.89 234.93,761.38 "/>
<polygon class="st12" points="249.99,760.57 251.13,760.57 252.46,760.57 254.03,760.57 255.42,760.57 256.41,760.57 256.81,760.57 
	256.81,761.22 256.81,762.02 256.81,762.7 256.28,762.7 255.36,762.7 254.37,762.7 253.07,762.7 252.02,762.7 251.38,762.7 
	251.35,763.5 251.35,764.02 252.18,764.02 256.81,764.02 256.81,766.58 251.28,766.58 251.28,767.88 256.81,767.88 256.81,770.25 
	248.53,770.25 248.53,760.57 "/>
<polygon class="st12" points="258.31,770.04 258.31,762.11 258.5,761.74 258.86,761.55 259.25,761.2 259.6,760.8 259.86,760.57 
	260.14,760.31 264.96,760.31 265.77,760.82 266.61,761.41 267.64,762.09 267.89,762.52 267.89,763.42 267.89,763.96 267.58,764.56 
	267.07,764.97 266.69,765.31 266.46,765.49 266.61,766.58 267.18,767.12 267.73,767.78 267.89,768.54 267.89,769.06 267.89,769.66 
	267.89,770.04 267.43,770.04 266.62,770.04 265.59,770.04 265.03,770.04 265.11,769 265.09,768.09 265.09,767.47 265.08,766.97 
	265,766.65 264.4,766.63 263.38,766.6 262.63,766.58 261.74,766.58 261.13,766.61 260.96,767.34 261,767.91 261.01,768.82 
	261.01,769.31 260.96,770.04 "/>
<rect x="260.96" y="762.8" class="st13" width="4.15" height="1.37"/>
<polyline class="st14" points="346.22,845.31 346.22,826.5 346.22,782.44 346.22,754.82 346.22,733.2 "/>
<polyline class="st14" points="739.57,843.78 739.57,821.27 739.57,795.35 739.57,771.66 739.26,737.36 "/>
<polyline class="st14" points="345.92,321.31 345.92,345.04 345.92,375.28 345.92,405.31 345.92,432.46 "/>
<polyline class="st14" points="736.25,316.01 736.25,351.53 736.25,378.78 736.25,414.13 736.12,431.99 "/>
<path class="st14" d="M345.92,432.46"/>
<line class="st15" x1="203.32" y1="650.72" x2="199.34" y2="650.48"/>
<polyline class="st15" points="199.34,653.67 199.34,652.93 199.34,650.48 199.34,648.77 199.34,648.13 199.34,647.74 
	200.59,647.74 201.65,647.74 202.57,647.74 203,647.74 203.96,648.45 203.96,649.16 203.96,649.59 203.96,650.05 203.64,650.65 
	203.96,652.71 203.96,653.03 203.96,653.67 "/>
<polyline class="st15" points="210.96,648.45 206.27,648.45 205.88,648.45 205.88,653.39 205.88,653.85 210.81,653.85 "/>
<line class="st15" x1="210.74" y1="650.97" x2="205.88" y2="650.97"/>
<polyline class="st15" points="217.17,649.55 216.6,649.16 216.14,648.84 215.61,648.67 214.58,648.67 213.73,648.67 213.12,649.11 
	212.7,649.55 212.7,650.09 213.09,650.71 213.9,650.97 214.76,651.15 215.61,651.33 216.14,651.33 216.6,651.75 216.85,652.5 
	216.82,653.07 216.46,653.67 215.82,653.85 214.93,653.85 214.19,653.85 213.51,653.67 213.05,653.28 212.41,652.68 "/>
<polyline class="st15" points="223.46,648.67 218.98,648.67 218.98,654.52 223.46,654.52 "/>
<line class="st15" x1="223.46" y1="651.49" x2="218.98" y2="651.49"/>
<polyline class="st15" points="224.49,649.16 225.09,649.16 230.45,649.16 "/>
<line class="st15" x1="227.47" y1="654.52" x2="227.47" y2="649.16"/>
<polyline class="st14" points="755.68,717.01 761.87,721.02 765.87,723.53 770.52,726.13 773.78,728.09 777.59,730.32 782.9,733.76 
	785.59,735.34 788.76,737.3 790.9,738.88 792.37,739.94 793.42,740.58 794.84,741.48 795.07,740.99 795.25,740.59 795.61,739.92 
	796.02,739.22 796.54,738.47 797.05,737.79 797.68,737.05 797.51,736.67 797.05,736.11 795.7,735.24 794.2,734.3 791.88,732.95 
	789.55,731.42 787.42,730 785.49,728.97 783.36,727.63 781.19,726.29 778.9,724.91 776.1,723.29 773.97,721.95 772.03,720.8 
	770.1,719.66 768.52,718.52 766.71,717.37 765.01,716.23 762.88,714.73 761.22,713.7 758.93,712.45 757.44,714.56 755.68,717.01 "/>
<polygon class="st2" points="678.57,785.83 686.02,781.49 692.8,776.94 700.47,771.6 706.47,766.71 712.92,761.93 718.26,757.82 
	723.93,752.81 728.93,747.92 733.71,742.92 739.26,737.36 744.38,731.47 749.38,725.69 753.27,720.36 757.83,714.02 763.83,705.46 
	768.5,697.68 773.39,689.46 776.95,682.12 782.06,672.12 786.28,660.89 789.17,652.11 792.17,642.44 794.51,632.54 796.4,623.1 
	797.51,615.54 798.4,608.42 799.18,601.98 799.62,597.53 799.62,591.08 799.62,584.28 799.62,576.52 799.62,571.08 798.96,563.29 
	798.4,558.63 797.51,553.13 796.62,547.96 795.4,541.29 794.29,535.28 792.06,526.95 789.84,519.72 787.51,512.39 785.06,505.61 
	782.62,499.6 778.95,491.49 775.84,484.6 771.83,477.59 769.28,472.48 766.28,467.7 763.27,462.48 759.61,457.47 756.01,453.5 
	753.21,449.67 749.68,445.69 746.44,442.3 743.93,440.09 740.99,437.29 738.48,434.2 736.12,431.99 733.77,429.19 729.94,425.06 
	726.69,421.67 721.54,416.22 718.59,413.72 715.05,410.77 711.96,407.82 707.84,404.58 702.53,400.46 698.26,397.51 691.92,393.09 
	686.18,389.11 679.7,385.14 673.8,382.19 666.44,377.77 658.19,373.79 649.64,370.25 640.65,366.13 633.29,363.48 622.97,360.24 
	613.69,357.44 604.7,355.08 597.34,353.31 587.91,351.54 581.43,350.37 574.65,349.63 567.43,348.89 556.53,348.89 541.85,348.16 
	534.72,348.16 525.44,348.16 515.72,349.04 500.98,350.37 489.93,351.84 476.53,354.79 463.71,358.32 452.95,361.71 439.99,366.13 
	426.58,371.73 416.12,377.18 406.25,382.78 395.94,389.7 387.39,395.15 378.55,401.49 371.04,407.53 364.7,412.98 358.37,419.46 
	353.95,424.18 348.64,429.19 344.22,434.49 339.66,440.24 332.29,449.37 327.28,456.15 322.12,464.69 317.26,472.36 312.84,479.43 
	309.9,485.61 306.95,491.95 303.71,500.2 300.47,508.89 297.08,517.59 295.16,526.43 292.07,537.77 291.5,542.23 290.97,547.84 
	290.44,553.13 289.81,558.2 289.52,562.67 288.99,567.81 288.64,574.66 288.64,580.98 288.64,585.59 288.64,591.85 288.64,597.05 
	288.64,600.77 289.23,606.89 289.7,609.45 290.23,613.12 291.18,617.31 291.6,619.24 291.92,621.16 292.14,623.61 292.46,626.7 
	293.1,629.16 293.52,632.03 294.16,635.23 295.02,638.43 296.08,641.95 297.25,646.43 298.21,650.05 300.45,655.81 301.84,659.11 
	303.12,662.74 304.5,665.83 305.78,668.92 307.6,672.97 308.98,676.17 311.33,681.08 314.21,686.41 316.34,690.03 318.9,694.83 
	321.46,699.09 324.33,704.21 326.79,708.05 329.45,711.99 332.86,716.9 335.63,720.52 339.9,725.75 344.38,731.29 349.71,736.83 
	354.18,741.63 358.66,746.32 364.1,751.33 369.11,755.38 373.59,759.43 379.24,764.13 385.42,768.71 391.07,772.65 397.9,776.81 
	403.97,780.65 410.16,784.38 415.81,787.58 422.2,790.57 430.41,794.3 436.49,797.49 445.02,800.8 451.95,803.36 458.98,805.7 
	465.81,808.26 473.16,810.18 480.31,811.99 487.87,813.7 495.66,815.19 502.05,816.37 508.66,817.22 516.23,818.07 522.04,818.97 
	527.58,819.47 531.66,819.47 537.47,819.47 543.85,819.47 549.05,819.47 556.43,819.47 562.58,819.47 568.23,818.69 573.93,818.13 
	578.91,817.63 585.34,816.79 592.44,815.5 599.26,814.1 605.8,812.65 613.69,810.64 620.84,808.57 627.5,806.61 635.05,804.1 
	641.7,801.8 648.86,799.06 655.85,796.04 661.77,793.53 668.2,790.45 673.52,788.38 "/>
<polyline class="st15" points="503.39,718.46 503.39,708.8 503.39,708.18 504.68,708.18 506.36,708.18 507.6,708.18 508.78,708.46 
	509.34,709.08 509.68,710.2 509.68,711.1 509.68,712.22 509.17,713.32 508.39,713.91 506.53,713.91 505.3,713.91 503.78,713.96 "/>
<line class="st15" x1="513.44" y1="708.18" x2="513.44" y2="718.46"/>
<polyline class="st15" points="517.82,710.82 521.36,710.82 522.14,711.27 522.76,711.89 522.76,713.51 522.76,714.02 
	522.76,717.67 522.76,718.46 518.16,718.46 517.31,717.89 516.81,717.11 516.81,716.27 516.81,715.37 517.71,714.64 518.32,714.3 
	519.34,714.08 520.07,714.08 520.74,714.08 521.47,714.02 522.03,714.02 "/>
<line class="st15" x1="533.04" y1="710.82" x2="527.14" y2="723"/>
<line class="st15" x1="525.96" y1="710.82" x2="529.28" y2="717.67"/>
<polyline class="st15" points="541.07,708.18 537.08,708.18 536.46,708.74 535.96,709.58 535.96,711.89 536.69,712.5 537.7,712.95 
	538.51,712.95 539.38,712.95 540.28,713.32 541.07,714.24 541.07,715.14 541.07,716.04 541.07,717.22 540.45,718.01 539.66,718.46 
	535.96,718.46 "/>
<polyline class="st15" points="545.11,709.08 545.11,718.06 546.12,718.46 547.24,718.46 "/>
<line class="st15" x1="548.26" y1="710.82" x2="545.34" y2="710.82"/>
<polyline class="st15" points="551.29,710.82 554.88,710.82 555.67,711.38 556.12,712.11 556.12,717.95 555.56,718.46 
	554.26,718.46 551.46,718.46 550.73,717.67 550.11,716.91 550.11,715.7 550.95,714.92 551.79,714.64 552.64,714.24 553.98,714.24 
	554.71,714.24 555.67,714.24 "/>
<polyline class="st15" points="560.44,709.08 560.44,717.67 561.34,718.46 562.52,718.46 "/>
<line class="st15" x1="563.47" y1="710.82" x2="560.72" y2="710.82"/>
<line class="st15" x1="566.34" y1="707.84" x2="566.34" y2="708.68"/>
<line class="st15" x1="566.34" y1="710.82" x2="566.34" y2="718.9"/>
<polygon class="st15" points="570.32,716.32 570.32,713.77 570.6,712.73 570.94,711.94 571.33,711.44 572.01,710.82 574.2,710.82 
	575.38,711.04 576.16,711.72 576.61,712.67 576.61,714.41 576.61,716.32 576.28,717.39 575.6,718.06 574.87,718.46 572.57,718.46 
	571.5,718.01 570.72,717.33 "/>
<polyline class="st15" points="586.67,718.68 586.67,712.22 586.27,711.49 585.26,710.82 580.66,710.82 580.66,718.9 "/>
<polygon class="st16" points="511.63,447.28 511.63,442.71 510.55,443.03 509.22,443.15 507.95,442.46 505.98,441.88 504.77,441.88 
	500.07,441.88 498.74,442.2 497.34,442.65 495.56,443.09 494.36,443.73 493.22,445.12 493.22,448.55 494.36,449.25 495.88,450.01 
	497.98,450.58 499.82,450.96 502.1,451.22 504.01,451.22 507.31,451.22 508.77,452.3 509.6,453.25 509.53,454.46 508.45,455.15 
	507.06,455.73 505.47,455.73 503.82,455.73 502.42,455.73 500.52,455.73 498.68,455.28 497.47,454.39 496.45,453.44 495.63,452.49 
	495.25,451.85 493.22,451.92 493.22,457.57 494.99,457.57 495.76,457.57 496.01,456.74 496.96,456.81 498.49,457.57 500.45,457.95 
	502.42,458.2 504.45,458.2 506.68,458.2 509.03,457.5 510.68,456.74 512.07,455.92 512.9,454.71 512.9,452.68 512.9,451.35 
	512.26,450.33 511.5,449.5 510.04,448.74 508.26,448.42 506.36,448.23 504.01,448.11 501.85,447.85 499.63,447.47 497.72,446.84 
	496.96,446.27 496.96,445.31 497.98,444.68 498.93,443.98 500.2,443.6 501.85,443.41 505.98,443.6 507.44,444.04 508.33,444.93 
	509.47,446.01 510.61,447.35 "/>
<polygon class="st16" points="524.52,458.2 521.66,456.87 519.76,455.35 518.49,453.82 517.53,452.49 517.53,448.3 518.55,446.52 
	520.01,445.12 521.79,443.73 523.95,442.46 525.91,441.88 532.2,441.88 534.1,442.33 536.33,443.22 537.53,444.04 539.44,445.44 
	540.33,447.41 540.33,452.17 539.76,454.01 538.55,455.15 536.71,456.55 534.99,457.25 533.34,458.2 "/>
<polygon class="st17" points="527.5,455.79 525.28,455.28 523.82,454.27 522.87,453.19 522.42,451.85 522.42,450.77 522.42,448.68 
	522.99,447.22 523.82,446.01 524.96,445.19 526.04,444.3 526.74,443.85 530.55,443.85 532.58,444.81 534.04,445.82 534.93,446.96 
	535.69,448.3 535.69,452.23 534.74,453.57 533.53,454.77 532.2,455.79 "/>
<polygon class="st18" points="559.18,442.65 559.18,444.42 561.98,444.42 561.98,451.6 551.56,442.65 543.88,442.65 543.88,444.42 
	546.49,444.49 546.49,455.79 543.88,455.79 543.88,457.25 552.93,457.25 552.71,455.79 549.66,455.79 549.6,447.15 550.74,447.15 
	561.98,456.93 561.98,457.57 565.6,457.57 565.6,444.49 568.26,444.49 568.26,442.65 "/>
<polygon class="st18" points="570.63,442.65 570.63,444.53 573.46,444.53 579.75,451.24 579.75,455.84 577,455.84 577,457.57 
	588.12,457.57 588.12,455.55 584.82,455.55 584.58,451.72 591.77,444.62 594.69,444.62 594.69,442.65 585.49,442.65 585.54,444.38 
	587.6,444.48 587.55,445.44 584.38,448.94 582.66,448.89 578.87,444.77 578.87,444.19 581.13,444.19 581.08,442.65 "/>
<polygon class="st19" points="536.55,699.74 534.11,698.7 532.71,698.21 530.7,697.85 528.45,697.85 525.96,697.67 523.94,697.67 
	521.99,697.24 519.78,696.69 517.84,696.08 516.08,695.17 514.55,693.89 514.25,692.36 514.68,691.27 516.14,690.17 517.78,689.32 
	519.78,688.53 520.71,689.07 521.44,689.5 522.76,689.99 524.3,690.6 525.4,691.15 526.62,692.06 525.03,692.73 523.69,693.16 
	523.75,694.13 525.09,694.13 526.74,694.13 528.32,694.13 529.28,694.13 529.73,693.28 530.46,692.91 531.43,692.91 532.59,692.91 
	533.93,693.1 534.84,693.46 535.7,693.64 536.55,694.13 537.22,694.56 537.22,696.02 537.22,699.74 "/>
<polygon class="st20" points="546.8,702.6 553.79,700.23 553.11,699.31 551.72,698.7 550.11,698.21 548.26,698.03 546.8,698.03 "/>
<polygon class="st21" points="519.78,688.53 522.36,687.71 525.25,686.73 527.14,686.09 528.94,685.51 531.2,684.7 533.04,684.13 
	534.78,684.53 535.96,684.94 537.22,685.34 537.22,694.56 535.7,693.64 534.84,693.46 533.93,693.1 532.59,692.91 531.43,692.91 
	530.46,692.91 529.73,693.28 529.28,694.13 528.32,694.13 526.74,694.13 525.09,694.13 523.75,694.13 523.69,693.16 525.03,692.73 
	526.62,692.06 525.4,691.15 524.3,690.6 522.76,689.99 521.44,689.5 520.71,689.07 "/>
<polygon class="st22" points="533.04,684.13 534.89,682.86 535.96,682.39 537.22,682.39 537.22,685.34 535.96,684.94 534.78,684.53 
	"/>
<polygon class="st23" points="537.22,688.23 535.13,689.34 533.57,689.96 530.97,690.94 528.94,691.58 526.62,692.06 525.03,692.73 
	523.69,693.16 523.75,694.13 525.09,694.13 526.74,694.13 528.32,694.13 529.28,694.13 529.73,693.28 530.46,692.91 531.43,692.91 
	532.59,692.91 533.67,692.32 534.14,692.16 534.49,692.09 535.48,691.85 536.23,691.76 "/>
<polygon class="st24" points="537.22,694.13 537.22,692.41 537.22,690.4 536.45,690.99 536.23,691.76 535.48,691.85 534.49,692.09 
	533.67,692.32 532.59,692.91 533.93,693.1 534.84,693.46 535.7,693.64 536.55,694.13 537.22,694.56 "/>
<polygon class="st25" points="546.8,698.03 546.8,696.49 548.64,696.14 550.49,695.57 552.51,695.39 553.52,694.56 555.02,694.13 
	556.16,693.94 557.22,693.41 558.05,693.1 559.59,692.93 560.82,692.93 562.52,692.93 564.21,693.15 565.31,693.54 566.67,694.13 
	568.17,694.86 566.34,696.01 565.13,696.45 562.52,697.33 560.69,698.03 558.58,698.74 556.03,699.44 553.79,700.23 553.11,699.31 
	551.72,698.7 550.11,698.21 548.26,698.03 "/>
<polygon class="st25" points="546.56,688.53 548.44,688.92 550.9,689.34 552.83,690 554.15,690.85 552.93,691.6 551.04,692.08 
	549.01,692.93 546.56,693.82 "/>
<polygon class="st26" points="546.8,688.02 550.85,687.22 553.21,686.75 556.18,686.27 558.68,685.99 560.81,685.99 563.21,686.23 
	566.42,686.65 568.83,687 571.33,688.23 573.12,689.67 573.78,690.71 573.78,691.89 573.59,693.26 572.7,694.13 571.23,694.34 
	569.63,694.81 568.17,694.86 566.67,694.13 565.31,693.54 563.37,693.04 560.82,692.93 561.28,692.48 562.08,692.17 562.98,691.98 
	564.16,691.65 564.91,691.46 565.24,690.14 565.29,689.72 564.53,689.34 563.87,689.15 562.79,689.15 561.66,689.15 560.71,689.34 
	559.3,689.62 558.02,690.14 556.65,690.71 555.1,690.85 554.15,690.85 552.83,690 550.9,689.34 548.44,688.92 546.56,688.53 "/>
<polygon class="st27" points="536.99,700.32 546.8,702.6 546.56,684.38 546.56,676.02 546.56,672.07 546.56,668.82 546.56,667.6 
	546.56,667.02 547.79,667.02 549.88,667.02 550.69,667.02 551.15,667.54 551.15,668.24 551.15,682.39 551.68,683.33 552.31,683.87 
	553.24,683.87 554.87,683.87 556.55,683.87 557.77,683.45 558.52,682.39 559.57,681.53 560.44,680.31 560.96,679.85 561.43,679.09 
	561.43,678.11 561.43,675.67 561.43,672.25 561.19,671.03 560.56,670.04 559.51,668.71 558.52,667.72 557.48,666.67 555.97,665.75 
	554.4,664.93 552.9,664.24 550.98,663.42 549.21,662.84 547.5,662.21 545.76,661.68 544.13,661.04 542.56,660.64 541.17,660.35 
	539.55,660.06 537.75,660.06 536.99,660.06 537.22,682.39 "/>
<path class="st28" d="M286.72,396.77c-2.31-7.43,12.52-18.93,19.27-23.23c13.01-8.3,26.1-9.02,32.12-8.97h81.18
	c7.23,0,13.77,2.93,18.51,7.67c1.06,1.06,7.76,7.98,7.67,18.51c-0.09,9.88-6.12,19.06-15.46,23.88
	c-12.02-4.55-28.26-9.28-47.86-11.19c-13.99-1.36-26.4-0.96-36.61,0.06C299.52,407.23,288.39,402.13,286.72,396.77z"/>
<path class="st28" d="M813.27,400.2c2.31-7.43-12.52-18.93-19.27-23.23c-13.01-8.3-26.1-9.02-32.12-8.97H680.7
	c-7.23,0-13.77,2.93-18.51,7.67c-1.06,1.06-7.76,7.98-7.67,18.51c0.09,9.88,6.12,19.06,15.46,23.88
	c12.02-4.55,28.26-9.28,47.86-11.19c13.99-1.36,26.4-0.96,36.61,0.06C800.47,410.66,811.61,405.56,813.27,400.2z"/>
<path class="st29" d="M659.03,475.77c7.13-13.82,21.51-20.07,28.14-22.85c28.76-12.06,57.91-3.4,64.56-1.43
	c20.42,6.07,33.76,16.88,40.84,23.74c0.3,0.29,0.29,0.78-0.01,1.07l-18.06,17.52c-0.02,0.02-0.05,0.04-0.07,0.06
	c-13.05,9.96-25.84,14.84-33.75,17.27c-6.41,1.96-27.6,7.83-53.51,3.17c-12.8-2.3-24.32-4.37-29.8-12.85
	C650.93,491.48,657.21,479.3,659.03,475.77z"/>
<path class="st29" d="M441.14,467.79c-6.86-13.82-20.69-20.07-27.07-22.85c-27.67-12.06-55.71-3.4-62.1-1.43
	c-20.15,6.22-33.14,17.45-39.81,24.28c5.98,6.03,11.96,12.06,17.94,18.1c12.57,9.98,24.88,14.87,32.5,17.3
	c6.17,1.96,26.55,7.83,51.47,3.17c12.31-2.3,23.39-4.37,28.66-12.85C448.94,483.5,442.89,471.33,441.14,467.79z"/>
<path class="st30" d="M334.08,822.98c2.96-22.83,11.11-67.54,36.75-117.31c24-46.57,52.08-75.75,67.83-90.28
	c2.29-11.78-0.54-22.43-7.18-27.04c-6.16-4.29-13.31-1.77-15.21-1.02c-103.13,198.5-110.3,231.87-106.23,236.51
	c5.26,6.01,11.7,5.55,11.7,5.55C326.97,829.01,331.49,825.43,334.08,822.98z"/>
<path class="st30" d="M751.85,822.98c-2.96-22.83-11.11-67.54-36.75-117.31c-24-46.57-52.08-75.75-67.83-90.28
	c-2.29-11.78,0.54-22.43,7.18-27.04c6.16-4.29,13.31-1.77,15.21-1.02c103.13,198.5,110.3,231.87,106.23,236.51
	c-5.26,6.01-11.7,5.55-11.7,5.55C758.95,829.01,754.44,825.43,751.85,822.98z"/>
<path class="st31" d="M668.71,757.35c-18.51,11.72-60.37,34.69-118.28,36.83c-68.17,2.52-117.65-25.32-135.88-36.83
	c-5.64-3.23-8.9-9.35-8.3-15.56c0.78-8.08,7.66-12.09,8.3-12.45c33.45,7.46,76.64,14,127.08,14c34.27,0,77.85-3.02,127.08-14
	c0.38,0.21,8.01,4.63,8.3,13.49C677.2,748.79,673.99,754.41,668.71,757.35z"/>
<path class="st30" d="M670.18,352.17c-26.72-1.28-54.4-2.2-82.99-2.66c-60.05-0.98-116.58,0.15-169.1,2.66
	c-12.96-1.76-22.47-5.14-22.82-8.93c-0.49-5.19,16.37-9.49,22.82-11.14c31.81-8.12,61.81-4.59,65.36-4.18
	c34.65,4.01,93.55,5.53,186.73,4.18c16.15,0.21,26.39,6.74,25.93,11.14C695.68,347.47,685.04,352.63,670.18,352.17z"/>
<path class="st30" d="M618.37,377.32c-16.52-4.37-54.32-12.66-99.59-7.38c-14.76,1.72-27.21,4.53-37.14,7.38
	c-7.81,0.31-14.78-1.11-16.44-3.5c-2.1-3.03,3.54-8.73,16.44-11c22.4,1.73,39.97,1.01,51.67,0.08c22.53-1.8,36.08-5.4,58.62-3.93
	c11.6,0.76,20.78,2.55,26.45,3.85c8.32-0.29,15.25,2,16.6,4.77C636.64,371.04,630.32,376.54,618.37,377.32z"/>
<path class="st30" d="M591.37,397.78c-23.07,2.52-36.05,3.75-43.5,4.29c-2.22,0.16-8.78,0.62-17.42,1.89c-3.43,0.5-6.24,1-8.12,1.34
	c-9.42,0.71-18.16-0.48-20.17-3.76c-2.46-4.03,4.63-12.14,20.17-17.64c12.38,3.49,35.16,8.33,62.33,4.76
	c8.53-1.12,15.99-2.87,22.27-4.76c7.03,3.57,10.93,8.55,9.34,11.62C614.35,399.23,603.6,401.76,591.37,397.78z"/>
<path class="st32" d="M387.03,435.63c-7.84-0.87-23.49-1.18-39.35,9.17c-5.16,3.37-9.33,7.2-12.61,10.8
	c5.36,25.63,23.87,43.38,43.74,43.38c24,0,43.74-19.58,43.74-43.38c0-0.7-0.02-1.4-0.05-2.1c-1.52-1.88-3.25-3.77-5.22-5.57
	C406.43,437.98,394.27,435.97,387.03,435.63z"/>
<path class="st32" d="M712.39,443.87c7.84-0.89,23.49-1.2,39.35,9.3c5.16,3.42,9.33,7.3,12.61,10.95c-5.36,25.99-23.87,44-43.74,44
	c-24,0-43.74-19.86-43.74-44c0-0.71,0.02-1.42,0.05-2.13c1.52-1.91,3.25-3.82,5.22-5.65C692.99,446.25,705.14,444.21,712.39,443.87z
	"/>
<ellipse class="st33" cx="378.81" cy="461.97" rx="16.54" ry="11.55"/>
<ellipse class="st33" cx="720.6" cy="461.97" rx="16.54" ry="11.55"/>
<path class="st28" d="M541.27,623.31c7.33,15.57-6.53,42.69-26.05,51.34c-20.87,9.25-34-8.92-62.98-2.32
	c-29.28,6.67-40.96,30.94-44.94,28c-6.22-4.58,13.01-70.38,64.54-87.63C495.6,604.75,532.64,604.96,541.27,623.31z"/>
<path class="st28" d="M543.59,623.31c-7.33,15.57,6.53,42.69,26.05,51.34c20.87,9.25,34-8.92,62.98-2.32
	c29.28,6.67,40.96,30.94,44.94,28c6.22-4.58-13.01-70.38-64.54-87.63C589.26,604.75,552.22,604.96,543.59,623.31z"/>
<path class="st34" d="M299.65,505.36l-110.01-101.8c-0.52-5.69-1.05-11.38-1.57-17.08c29.19,16.55,64.77,41.94,96.73,80.54
	c8.48,10.24,15.87,20.41,22.32,30.26C304.63,499.97,302.14,502.67,299.65,505.36z"/>
<path class="st34" d="M780.21,503.99c10.12-11.88,16.06-22.69,19.6-30.35c10.97-23.7,8.51-37.98,21.03-56.95
	c7.06-10.7,15.25-17.78,20.86-21.99c0.35,6.72,0.71,13.44,1.06,20.15c-1.9,6.23-4.59,15-7.84,25.51
	c-9.6,31.12-10.68,34.17-12.34,37.64c-4.78,9.98-14.62,23.99-37.25,36.31C783.63,510.88,781.92,507.43,780.21,503.99z"/>
<linearGradient id="SVGID_1_" gradientUnits="userSpaceOnUse" x1="292.7846" y1="504.79" x2="455.8971" y2="504.79" gradientTransform="matrix(1 0 0 -1 0 1026)">
	<stop  offset="0" style="stop-color:#FFFFFF"/>
	<stop  offset="0.9925" style="stop-color:#000000;stop-opacity:0.2"/>
</linearGradient>
<path class="st35" d="M444.24,555.57c-44.76,0-89.52,0-134.28,0c-3-2.39-13.98-11.73-16.62-27.82c-3.8-23.17,13.09-39.51,14.57-40.9
	c45.85,0.42,91.71,0.84,137.56,1.26c2.82,4.07,11.87,18.2,10.23,37.71C454.43,540.84,447.49,551.26,444.24,555.57z"/>
<linearGradient id="SVGID_2_" gradientUnits="userSpaceOnUse" x1="622.4946" y1="496.28" x2="785.6072" y2="496.28" gradientTransform="matrix(1 0 0 -1 0 1026)">
	<stop  offset="0" style="stop-color:#FFFFFF"/>
	<stop  offset="0.9925" style="stop-color:#000000;stop-opacity:0.2"/>
</linearGradient>
<path class="st36" d="M773.95,564.08c-44.76,0-89.52,0-134.28,0c-3-2.39-13.98-11.73-16.62-27.82c-3.8-23.17,13.09-39.51,14.57-40.9
	c45.85,0.42,91.71,0.84,137.56,1.26c2.82,4.07,11.87,18.2,10.23,37.71C784.15,549.35,777.21,559.77,773.95,564.08z"/>
<path class="st34" d="M455.7,525.83c12.25-7.62,41.51-23.56,82.1-24.24c42.23-0.71,72.95,15.49,85.29,22.89
	c-0.01,3.92-0.02,7.85-0.03,11.77c-17.37-7-47.14-16.47-85.09-16.29c-37.6,0.18-67.05,9.76-84.31,16.85
	C454.33,533.15,455.01,529.49,455.7,525.83z"/>
<path class="st37" d="M531.23,625.57"/>
<path class="st37" d="M530.28,606.42"/>
<path class="st38" d="M715.27,244.03h-318.9c-21.82,0-39.5-17.68-39.5-39.5V68.23c0-21.82,17.68-39.5,39.5-39.5h318.9
	c21.82,0,39.5,17.68,39.5,39.5v136.3C754.77,226.34,737.09,244.03,715.27,244.03z"/>
<polygon class="st38" points="544.51,287.48 610.33,173.48 478.69,173.48 "/>
<text transform="matrix(1 0 0 1 377.5596 139.124)" class="st39 st40">It’s the way it is you know?</text>
</svg>
