<?xml version="1.0" encoding="utf-8"?>
<!-- Generator: Adobe Illustrator 25.1.0, SVG Export Plug-In . SVG Version: 6.00 Build 0)  -->
<svg version="1.1" id="Layer_1" xmlns="http://www.w3.org/2000/svg" xmlns:xlink="http://www.w3.org/1999/xlink" x="0px" y="0px"
	 viewBox="0 0 1282 447" style="enable-background:new 0 0 1282 447;" xml:space="preserve">
<style type="text/css">
	.st0{fill:#FFFFFF;stroke:#000000;stroke-width:5;stroke-miterlimit:10;}
	.st1{fill:#A47449;stroke:#654321;stroke-width:5;stroke-miterlimit:10;}
	.st2{fill:#654321;stroke:#654321;stroke-width:5;stroke-miterlimit:10;}
	.st3{fill:#A2FFA3;stroke:#654321;stroke-width:5;stroke-miterlimit:10;}
	.st4{fill:#4575FF;stroke:#654321;stroke-width:5;stroke-miterlimit:10;}
	.st5{fill:#001700;stroke:#654321;stroke-width:5;stroke-miterlimit:10;}
	.st6{fill:#007331;stroke:#654321;stroke-width:5;stroke-miterlimit:10;}
	.st7{fill:#FFFFFF;stroke:#FFFFFF;stroke-width:3;stroke-miterlimit:10;}
	.st8{fill:#D48BFF;stroke:#D48BFF;stroke-width:3;stroke-miterlimit:10;}
	.st9{font-family:'MyriadPro-Regular';}
	.st10{font-size:18.0975px;}
	.st11{fill:#696969;stroke:#A9A9A9;stroke-width:3;stroke-miterlimit:10;}
	.st12{fill:#8BFFBC;stroke:#A9A9A9;stroke-miterlimit:10;}
	.st13{fill:#2EFFC1;stroke:#A9A9A9;stroke-miterlimit:10;}
	.st14{stroke:#000000;stroke-miterlimit:10;}
	.st15{fill:#AFAEB2;stroke:#000000;stroke-miterlimit:10;}
	.st16{fill:#8E8D91;stroke:#000000;stroke-miterlimit:10;}
	.st17{fill:#86D6DA;stroke:#000000;stroke-width:0.5;stroke-miterlimit:10;}
	.st18{fill:#868589;stroke:#000000;stroke-width:0.5;stroke-miterlimit:10;}
	.st19{fill:#98D4D9;stroke:#000000;stroke-width:0.5;stroke-miterlimit:10;}
	.st20{fill:#ACAEB1;stroke:#000000;stroke-miterlimit:10;}
	.st21{fill:#5CB7A4;stroke:#000000;stroke-width:0.25;stroke-miterlimit:10;}
	.st22{fill:#8A898D;stroke:#000000;stroke-width:0.25;stroke-miterlimit:10;}
	.st23{fill:#73B5A5;stroke:#000000;stroke-width:0.25;stroke-miterlimit:10;}
	.st24{fill:#87868A;stroke:#000000;stroke-width:0.25;stroke-miterlimit:10;}
	.st25{fill:#82B3A6;stroke:#000000;stroke-width:0.25;stroke-miterlimit:10;}
	.st26{fill:#8D8C90;stroke:#000000;stroke-width:0.25;stroke-miterlimit:10;}
	.st27{fill:none;stroke:#000000;stroke-miterlimit:10;}
	.st28{fill:none;stroke:#000000;stroke-width:0.5;stroke-miterlimit:10;}
	.st29{fill:#555358;stroke:#000000;stroke-width:0.5;stroke-miterlimit:10;}
	.st30{fill:#B7B7B9;stroke:#000000;stroke-width:0.5;stroke-miterlimit:10;}
	.st31{fill:#505150;stroke:#000000;stroke-width:0.5;stroke-miterlimit:10;}
	.st32{fill:#F3AB40;}
	.st33{fill:#E9AD55;}
	.st34{fill:#43967F;}
	.st35{fill:#245EA9;}
	.st36{fill:#ADAEB1;}
	.st37{fill:none;}
	.st38{fill:#599480;}
	.st39{fill:#2964BF;}
	.st40{fill:#C6332A;}
	.st41{fill:#FFF2EB;stroke:#000000;stroke-miterlimit:10;}
	.st42{fill:#FFF7F3;stroke:#000000;stroke-miterlimit:10;}
	.st43{fill:#6C707F;stroke:#000000;stroke-miterlimit:10;}
	.st44{fill:#FFC4A6;stroke:#000000;stroke-miterlimit:10;}
	.st45{fill:#FFDAC3;stroke:#000000;stroke-miterlimit:10;}
	.st46{fill:#E5EAFF;stroke:#000000;stroke-miterlimit:10;}
	.st47{fill:#CB997E;stroke:#000000;stroke-miterlimit:10;}
	.st48{fill:url(#SVGID_1_);stroke:#000000;stroke-miterlimit:10;}
	.st49{fill:url(#SVGID_2_);stroke:#000000;stroke-miterlimit:10;}
	.st50{fill:none;stroke:#000817;stroke-miterlimit:10;}
	.st51{fill:#26272A;stroke:#000000;stroke-miterlimit:10;}
	.st52{fill:#3E3F44;stroke:#000000;stroke-miterlimit:10;}
	.st53{fill:#52545A;stroke:#000000;stroke-miterlimit:10;}
	.st54{fill:#282A2E;stroke:#000000;stroke-miterlimit:10;}
	.st55{fill:#2B2C31;stroke:#000817;stroke-miterlimit:10;}
	.st56{fill:none;stroke:#000000;stroke-width:0.25;stroke-miterlimit:10;}
	.st57{fill:#00B98F;stroke:#000817;stroke-miterlimit:10;}
	.st58{fill:#56585D;stroke:#000817;stroke-miterlimit:10;}
	.st59{fill:#FFFFFF;stroke:#000000;stroke-miterlimit:10;}
	.st60{fill:#FFFFFF;stroke:#000817;stroke-miterlimit:10;}
	.st61{fill:#948F8F;stroke:#000817;stroke-miterlimit:10;}
	.st62{fill:#1F2023;stroke:#000817;stroke-miterlimit:10;}
	.st63{opacity:0.73;fill:#ADB2AE;stroke:#4D4545;stroke-width:7;stroke-miterlimit:10;}
	.st64{fill:#4D4545;stroke:#4D4545;stroke-width:3;stroke-miterlimit:10;}
	.st65{fill:#B2B1AA;stroke:#000000;stroke-miterlimit:10;}
	.st66{stroke:#000000;stroke-width:0.75;stroke-miterlimit:10;}
	.st67{fill:#B2B1AA;stroke:#000000;stroke-width:0.75;stroke-miterlimit:10;}
	.st68{fill:#FFFFFF;stroke:#ECBCB4;stroke-miterlimit:10;}
	.st69{fill:#ECBCB4;stroke:#ECBCB4;stroke-miterlimit:10;}
	.st70{stroke:#A27100;stroke-miterlimit:10;}
	.st71{fill:#8BE1FF;stroke:#A27100;stroke-width:0.25;stroke-miterlimit:10;}
</style>
<rect x="0.35" y="-0.04" class="st0" width="1278.89" height="447.16"/>
<polygon class="st1" points="1.11,-0.04 1.11,446.67 1280,446.67 1280,0.27 "/>
<rect x="1.11" y="13.53" class="st2" width="1278.14" height="17.09"/>
<rect x="1.67" y="265.71" class="st2" width="1278.14" height="17.09"/>
<rect x="191.89" y="315.91" class="st3" width="85.86" height="54.83"/>
<ellipse class="st4" cx="193.39" cy="406.4" rx="7.54" ry="19.61"/>
<ellipse class="st5" cx="238.64" cy="404.13" rx="10.56" ry="21.87"/>
<polygon class="st6" points="209.94,382.27 259.14,382.27 250.7,397.35 219.52,397.35 "/>
<path class="st7" d="M466.32,231.84H315.68c-17.12,0-31-13.88-31-31v-31.5c0-17.12,13.88-31,31-31h150.65c17.12,0,31,13.88,31,31
	v31.5C497.32,217.96,483.44,231.84,466.32,231.84z"/>
<path class="st8" d="M768.64,131.92H642.16c-15.46,0-28-12.54-28-28V75.46c0-15.46,12.54-28,28-28h126.48c15.46,0,28,12.54,28,28
	v28.46C796.64,119.38,784.11,131.92,768.64,131.92z"/>
<polyline class="st8" points="790.61,107.79 790.61,127.39 771.01,127.39 "/>
<text transform="matrix(1 0 0 1 634.3906 95.4424)" class="st9 st10">No, I don’t think so.</text>
<polygon class="st11" points="187.16,446.67 163.23,368.69 187.16,294.8 277.75,294.8 300.48,370.74 277.75,446.67 "/>
<rect x="190.38" y="314.4" class="st12" width="85.86" height="54.83"/>
<ellipse transform="matrix(0.9521 -0.3056 0.3056 0.9521 -113.416 78.1029)" class="st12" cx="192.71" cy="401.24" rx="7.34" ry="14.37"/>
<ellipse transform="matrix(0.4072 -0.9133 0.9133 0.4072 -202.7021 489.5713)" class="st12" cx="275.81" cy="400.95" rx="14.37" ry="7.34"/>
<polygon class="st13" points="226.57,404.89 249.19,404.89 257.63,389.81 208.43,389.81 218.01,404.89 "/>
<ellipse class="st12" cx="203.58" cy="432.77" rx="14.37" ry="7.34"/>
<ellipse class="st12" cx="235.25" cy="432.77" rx="14.37" ry="7.34"/>
<ellipse class="st12" cx="266.92" cy="432.77" rx="14.37" ry="7.34"/>
<path class="st11" d="M525.17,446.67c0,0-3.02-95.54,0-104.86c3.02-9.32,31.68-37.97,79.94-37.97s65.54,27.68,66.7,37.97
	c1.16,10.29,0,104.86,0,104.86"/>
<path class="st14" d="M541.77,344.56v21.58c0,0,13.57-0.46,16.59-0.46c3.02,0,9.08-1.04,9.06-10.32s-6.49-10.79-9.28-10.79
	C555.34,344.56,541.77,344.56,541.77,344.56z"/>
<path class="st14" d="M541.77,386.79v21.58c0,0,13.57-0.46,16.59-0.46c3.02,0,9.08-1.04,9.06-10.32
	c-0.01-9.28-6.49-10.79-9.28-10.79C555.34,386.79,541.77,386.79,541.77,386.79z"/>
<path class="st14" d="M585.51,344.56v21.58c0,0,13.57-0.46,16.59-0.46c3.02,0,9.08-1.04,9.06-10.32
	c-0.01-9.28-6.49-10.79-9.28-10.79S585.51,344.56,585.51,344.56z"/>
<path class="st14" d="M585.51,386.79v21.58c0,0,13.57-0.46,16.59-0.46c3.02,0,9.08-1.04,9.06-10.32
	c-0.01-9.28-6.49-10.79-9.28-10.79S585.51,386.79,585.51,386.79z"/>
<path class="st14" d="M585.51,419.97v21.58c0,0,13.57-0.46,16.59-0.46c3.02,0,9.08-1.04,9.06-10.32
	c-0.01-9.28-6.49-10.79-9.28-10.79S585.51,419.97,585.51,419.97z"/>
<path class="st14" d="M632.26,386.79v21.58c0,0,13.57-0.46,16.59-0.46c3.02,0,9.08-1.04,9.06-10.32
	c-0.01-9.28-6.49-10.79-9.28-10.79C645.83,386.79,632.26,386.79,632.26,386.79z"/>
<path class="st14" d="M633.77,419.97v21.58c0,0,13.57-0.46,16.59-0.46c3.02,0,9.08-1.04,9.06-10.32
	c-0.01-9.28-6.49-10.79-9.28-10.79C647.34,419.97,633.77,419.97,633.77,419.97z"/>
<path class="st7" d="M466.32,231.84H315.68c-17.12,0-31-13.88-31-31v-31.5c0-17.12,13.88-31,31-31h150.65c17.12,0,31,13.88,31,31
	v31.5C497.32,217.96,483.44,231.84,466.32,231.84z"/>
<polygon class="st15" points="885.42,255.54 851.55,255.54 851.28,255.45 851.02,255.33 850.78,255.16 850.49,254.94 850.13,254.67 
	849.83,254.44 849.62,254.23 849.37,254.07 849.24,253.91 849.18,253.74 849.18,253.55 849.18,253.32 849.18,251.78 849.18,249.89 
	849.18,248.19 849.18,246.28 849.18,245.38 849.18,244.88 849.18,242.11 849.36,241.89 849.68,241.86 850.25,241.79 850.64,241.74 
	851.33,241.63 851.85,241.54 852.61,241.38 853.34,241.18 853.97,241.02 854.62,240.83 855.44,240.53 855.74,240.44 856.03,240.34 
	856.26,240.24 856.45,240.17 856.62,240.09 856.88,239.99 857.19,239.85 857.51,239.7 857.86,239.55 858.26,239.35 858.68,239.13 
	859,238.96 859.33,238.76 859.76,238.49 860.11,238.24 860.54,237.94 860.8,237.77 861.09,237.57 861.41,237.38 861.63,237.22 
	861.89,237.02 862.14,236.84 862.42,236.65 862.76,236.36 863.05,236.09 863.24,235.91 863.48,235.65 863.69,235.43 863.92,235.21 
	864.11,235.03 864.34,234.81 864.61,234.52 864.83,234.28 865.14,233.92 865.42,233.56 865.69,233.16 865.96,232.8 866.22,232.37 
	866.48,231.97 866.88,231.41 867.21,230.83 867.44,230.29 867.73,229.7 868.06,228.98 868.37,228.2 868.65,227.33 868.95,226.36 
	869.23,225.11 869.36,224.47 869.51,223.65 869.56,222.74 869.6,221.34 869.56,219.65 869.52,218.5 869.38,217.61 869.12,216.61 
	868.82,215.6 868.47,214.51 868.05,213.37 867.53,212.24 866.96,211.32 866.37,210.41 865.48,209.13 864.85,208.38 864.2,207.65 
	863.6,207 862.82,206.25 861.97,205.51 861.05,204.77 860.3,204.22 859.42,203.69 858.16,203 856.91,202.43 856.19,202.1 
	855.02,201.65 854.3,201.34 853.36,201.01 852.42,200.77 851.28,200.54 850.16,200.34 849.32,200.27 848.35,200.21 847.21,200.18 
	846.07,200.18 845.43,200.18 844.43,200.23 843.47,200.34 842.52,200.52 841.7,200.68 841.06,200.85 840.25,201.04 839.41,201.33 
	838.72,201.54 838.03,201.79 837.46,202.05 836.74,202.36 835.97,202.79 835.13,203.31 834.42,203.65 833.56,204.15 832.88,204.65 
	832.17,205.22 831.65,205.63 831.06,206.12 830.41,206.7 829.83,207.32 829.18,208.03 828.66,208.65 828.02,209.44 827.46,210.34 
	827.01,211.21 826.51,212.17 826.09,213.02 825.66,213.8 825.31,214.77 825.09,215.38 824.84,216.14 824.69,217.04 824.55,217.85 
	824.41,218.7 824.39,219.55 824.38,220.32 824.38,221.22 824.39,222.03 824.42,222.71 824.53,223.53 824.66,224.38 824.78,225.11 
	825.01,225.91 825.28,227.09 825.7,228.11 826.22,229.31 826.97,230.64 827.69,231.92 828.51,233.1 829.43,234.19 830.23,235.08 
	831.1,235.9 832.23,236.9 833.29,237.73 834.3,238.41 835.35,239.01 836.58,239.65 837.54,240.11 838.96,240.73 840.51,241.26 
	841.92,241.63 843.02,241.87 843.8,241.98 844.11,242.03 844.34,242.04 844.66,242.07 844.96,242.13 845.09,242.17 845.2,242.28 
	845.15,245.97 845.18,249.21 845.19,252.23 845.2,253.45 845.12,253.66 844.96,253.79 844.79,253.96 844.49,254.21 844.21,254.48 
	844,254.66 843.7,254.94 843.41,255.19 843.09,255.39 842.65,255.54 842.16,255.54 841.44,255.54 838.83,255.54 832.31,255.54 
	824.78,255.54 818.31,255.54 811.99,255.54 810.24,255.54 809.69,255.33 808.92,255.01 808.2,254.68 807.68,254.4 806.91,253.76 
	806.19,252.95 805.78,252.27 805.3,251.54 804.94,250.66 804.94,249.73 804.94,242.8 804.94,224.53 804.94,198.6 804.94,168.08 
	804.94,136.75 804.94,100.48 804.94,67.27 804.94,48.14 804.94,46.74 805.12,45.94 805.49,45.14 805.97,44.63 806.54,43.95 
	807.2,43.32 807.94,42.87 808.79,42.67 809.7,42.67 816.61,42.67 836.17,42.67 855.38,42.67 868.08,42.67 878.88,42.67 
	883.34,42.67 885.03,42.67 886.11,42.98 886.86,43.35 887.66,44.06 888.03,44.81 888.64,44.99 889.39,44.99 890.28,44.99 
	891.22,45.04 914.53,45.05 939.62,45.14 961.57,45.36 982.11,45.36 998.63,45.36 1013.51,45.4 1024.91,45.54 1036.72,45.74 
	1037.65,45.72 1038.55,45.31 1039.37,44.78 1040.05,44.15 1040.61,43.66 1040.99,43.32 1041.66,43.06 1042.78,42.91 1044.17,42.87 
	1051.96,42.67 1069.43,42.67 1101.34,42.67 1121.22,42.67 1122.75,42.93 1124.08,43.31 1125.2,43.85 1126.36,44.64 1127.24,45.68 
	1127.86,47.09 1128.07,48.96 1128.07,50.75 1128.07,73.72 1128.07,101.34 1128.07,130.38 1128.07,162.75 1128.07,190.27 
	1128.07,216.84 1128.07,243.21 1128.07,249.97 1128.07,251.13 1127.9,252.07 1127.62,252.8 1127.17,253.33 1126.56,253.92 
	1125.72,254.45 1124.9,254.73 1123.78,255.07 1122.74,255.28 1120.9,255.54 1119.03,255.54 1115.09,255.54 1107.68,255.54 
	1097.13,255.54 1085.39,255.54 1074.72,255.54 1065.23,255.54 1048.28,255.54 1047.62,255.41 1047.03,255.16 1046.6,254.89 
	1046.31,254.44 1046.19,253.92 1046.15,253.33 1046.13,252.83 1046.1,252.52 1045.92,252.29 1045.61,252.2 1045.18,252.18 
	1044.72,252.15 1043.37,252.13 1041.01,252.13 1031.46,252.12 1011.16,252.07 997.28,252.03 981.53,251.96 960.75,251.92 
	942.9,251.92 923.54,251.92 901.47,251.96 890.3,251.85 889.84,251.85 889.4,251.93 889.05,252.26 888.76,252.76 888.57,253.28 
	888.34,253.82 887.92,254.18 887.57,254.53 887.09,254.97 886.32,255.32 885.99,255.54 "/>
<polygon class="st16" points="1066.35,212.22 1066.07,212.69 1065.73,213.39 1065.28,214.24 1065.01,215.01 1064.67,215.93 
	1064.37,216.88 1064.11,217.74 1063.86,218.77 1063.76,219.39 1063.7,220.35 1063.7,221.18 1063.7,222.84 1063.7,223.4 
	1063.7,224.03 1063.83,224.72 1064,225.53 1064.11,226.31 1064.34,227.18 1064.55,227.8 1064.72,228.44 1065.03,229.21 
	1065.25,229.77 1065.52,230.39 1065.83,231.03 1066.1,231.64 1066.45,232.14 1066.8,232.71 1067.26,233.34 1067.68,233.96 
	1068.19,234.54 1068.64,235.11 1069.1,235.58 1069.58,236.15 1070.02,236.63 1070.48,236.95 1071.09,237.46 1071.7,237.93 
	1072.19,238.33 1072.62,238.65 1073.17,239.06 1073.82,239.38 1074.57,239.85 1075.21,240.21 1075.93,240.58 1076.67,240.92 
	1077.36,241.16 1078.03,241.43 1078.72,241.65 1079.31,241.84 1079.98,242.07 1080.67,242.28 1081.45,242.4 1082.16,242.56 
	1082.95,242.64 1083.83,242.76 1084.55,242.76 1085.75,242.76 1088.28,242.76 1089.13,242.76 1089.91,242.61 1090.68,242.53 
	1091.38,242.36 1092.12,242.16 1092.97,241.99 1093.59,241.8 1094.45,241.51 1095.38,241.14 1096.15,240.76 1097.01,240.41 
	1097.69,240.04 1098.4,239.62 1099.08,239.24 1099.76,238.77 1100.32,238.37 1100.93,237.88 1101.44,237.43 1102.1,236.85 
	1102.63,236.39 1103.04,236.01 1103.6,235.43 1104.02,234.94 1104.4,234.47 1104.83,233.86 1105.25,233.26 1105.67,232.68 
	1105.95,232.22 1106.27,231.66 1106.58,231.08 1106.83,230.59 1107.15,229.99 1107.43,229.37 1107.73,228.63 1107.97,228.06 
	1108.15,227.49 1108.27,226.91 1108.42,226.15 1108.53,225.61 1108.62,225.08 1108.7,224.57 1108.7,223.68 1108.7,222.84 
	1108.7,220.45 1108.7,219.84 1108.7,219.21 1108.53,218.32 1108.24,217.41 1107.99,216.53 1107.73,215.68 1107.43,214.94 
	1107.09,214.16 1106.66,213.26 1106.35,212.67 1106,212.02 1105.57,211.22 1105.14,210.61 1104.63,209.89 1104,209.14 
	1103.28,208.37 1102.82,207.89 1102.21,207.28 1101.41,206.63 1100.8,206.1 1100.15,205.6 1099.38,205.06 1098.55,204.55 
	1097.78,204.07 1096.89,203.62 1095.99,203.2 1095.05,202.8 1094.25,202.48 1093.41,202.2 1092.62,201.91 1091.8,201.68 
	1091.03,201.51 1090.14,201.33 1089.21,201.2 1088.28,201.12 1087.58,201.12 1084.46,201.12 1083.77,201.2 1083.05,201.32 
	1082.44,201.38 1081.58,201.56 1080.78,201.73 1080.04,201.91 1079.31,202.1 1078.65,202.28 1078.08,202.5 1077.47,202.74 
	1076.78,203.01 1076.14,203.25 1075.45,203.56 1074.78,203.92 1074.14,204.28 1073.52,204.68 1072.78,205.15 1072.24,205.55 
	1071.66,206 1071.2,206.35 1070.7,206.75 1070.16,207.23 1069.78,207.63 1069.18,208.19 1068.85,208.61 1068.42,209.09 
	1068.05,209.52 1067.6,210.02 1067.17,210.59 1066.86,211.1 "/>
<polygon class="st16" points="826,175.01 826.13,174.37 826.3,173.59 826.5,172.99 826.69,172.35 826.96,171.85 827.23,171.36 
	827.53,170.83 827.87,170.36 828.25,169.8 828.61,169.32 829.17,168.87 829.68,168.54 830.19,168.13 830.73,167.71 831.23,167.46 
	831.83,167.14 832.44,166.85 833.16,166.63 833.84,166.44 834.48,166.31 835.05,166.23 835.69,166.13 836.28,166.13 837.03,166.13 
	837.54,166.13 838.25,166.24 838.76,166.37 839.47,166.55 840.09,166.75 840.8,166.98 841.49,167.3 842.24,167.68 842.75,168.03 
	843.31,168.46 843.88,168.94 844.45,169.54 844.95,170.1 845.44,170.57 845.73,171.1 846.06,171.68 846.43,172.25 846.76,172.92 
	846.83,173.43 847.05,174.39 847.13,175.15 847.13,176.09 847.13,176.94 847.05,177.97 846.92,178.67 846.75,179.2 846.43,179.81 
	846.06,180.46 845.71,181.11 845.3,181.59 844.87,182.2 844.41,182.67 843.91,183.12 843.55,183.39 843.08,183.73 842.49,184.11 
	842.11,184.31 841.59,184.63 841.11,184.86 840.49,185.11 839.91,185.27 839.35,185.43 838.81,185.54 838.24,185.69 837.41,185.69 
	836.57,185.69 835.9,185.69 835.64,185.69 835.18,185.69 834.43,185.57 833.75,185.41 833.25,185.21 832.47,185.02 831.91,184.73 
	831.26,184.43 830.59,184 829.92,183.55 829.4,183.09 828.85,182.58 828.33,182.04 827.95,181.53 827.52,180.9 827.12,180.28 
	826.72,179.65 826.51,179.04 826.29,178.4 826.1,177.77 826,177.1 826,176.32 826,175.57 "/>
<polygon class="st16" points="850.25,241.79 850.64,241.74 851.33,241.63 851.85,241.54 852.61,241.38 853.34,241.18 853.97,241.02 
	854.62,240.83 855.44,240.53 855.74,240.44 856.03,240.34 856.26,240.24 856.62,240.09 856.88,239.99 857.19,239.85 857.51,239.7 
	857.86,239.55 858.26,239.35 858.68,239.13 859,238.96 859.33,238.76 859.76,238.49 860.11,238.24 860.54,237.94 861.09,237.57 
	861.41,237.38 861.89,237.02 862.14,236.84 862.42,236.65 862.76,236.36 863.05,236.09 863.48,235.65 863.69,235.43 864.11,235.03 
	864.34,234.81 864.83,234.28 865.14,233.92 865.42,233.56 865.69,233.16 865.96,232.8 866.22,232.37 866.48,231.97 866.88,231.41 
	867.21,230.83 867.44,230.29 867.73,229.7 868.06,228.98 868.37,228.2 868.65,227.33 868.95,226.36 869.23,225.11 869.36,224.47 
	869.51,223.65 869.56,222.74 869.6,221.34 869.56,219.65 869.52,218.5 869.38,217.61 869.12,216.61 868.82,215.6 868.47,214.51 
	868.05,213.37 867.53,212.24 866.96,211.32 866.37,210.41 865.48,209.13 864.85,208.38 864.2,207.65 863.6,207 862.82,206.25 
	861.97,205.51 861.05,204.77 860.3,204.22 859.42,203.69 858.16,203 856.91,202.43 856.19,202.1 855.02,201.65 854.3,201.34 
	853.36,201.01 852.42,200.77 851.28,200.54 850.16,200.34 849.32,200.27 848.35,200.21 847.21,200.18 846.07,200.18 845.43,200.18 
	844.43,200.23 843.47,200.34 842.52,200.52 841.7,200.68 841.06,200.85 840.25,201.04 839.41,201.33 838.72,201.54 838.03,201.79 
	837.46,202.05 836.74,202.36 835.97,202.79 835.13,203.31 834.42,203.65 833.56,204.15 832.88,204.65 832.17,205.22 831.65,205.63 
	831.06,206.12 830.41,206.7 829.83,207.32 829.18,208.03 828.66,208.65 828.02,209.44 827.46,210.34 827.01,211.21 826.51,212.17 
	826.09,213.02 825.66,213.8 825.31,214.77 825.09,215.38 824.84,216.14 824.69,217.04 824.55,217.85 824.41,218.7 824.39,219.55 
	824.38,220.32 824.38,221.22 824.39,222.03 824.42,222.71 824.53,223.53 824.66,224.38 824.78,225.11 825.01,225.91 825.28,227.09 
	825.7,228.11 826.22,229.31 826.97,230.64 827.69,231.92 828.51,233.1 829.43,234.19 830.23,235.08 831.1,235.9 832.23,236.9 
	833.29,237.73 834.3,238.41 835.35,239.01 836.58,239.65 837.54,240.11 838.96,240.73 840.51,241.26 841.92,241.63 843.02,241.87 
	843.8,241.98 844.34,242.04 844.82,242.04 845.32,242.04 845.87,242.04 846.62,242.04 847.25,242.04 848.23,242.04 848.79,242.04 
	849.04,242.04 849.36,241.89 849.68,241.86 "/>
<polygon class="st17" points="1078.44,222.84 1078.44,221.38 1078.9,220.92 1079.23,220.55 1079.78,220.26 1080.03,220.09 
	1081.42,220.09 1081.84,220.42 1082.17,220.63 1082.48,220.92 1082.69,221.28 1082.69,222.84 1082.69,223.05 1082.4,223.34 
	1082.08,223.67 1081.63,224.02 1080.19,224.02 1079.44,223.65 1078.78,223.17 "/>
<polygon class="st18" points="1080.05,223.15 1079.4,222.61 1079.4,221.49 1079.72,221.13 1080.05,220.86 1081.23,220.86 
	1081.71,221.19 1082.02,221.61 1082.02,222.71 1081.5,223.15 "/>
<polygon class="st17" points="1083.58,223.92 1083.58,220.15 1085.87,220.15 1086.31,220.47 1086.52,220.86 1086.52,222.01 
	1086.2,222.42 1085.85,222.55 1084.29,222.5 1084.27,223.92 "/>
<polygon class="st18" points="1084.27,220.86 1084.27,221.94 1085.64,221.94 1085.98,221.65 1085.98,221.15 1085.7,220.94 "/>
<polygon class="st19" points="1087.02,220.09 1087.04,224.02 1090.17,224.02 1090.17,223.15 1087.88,223.15 1087.88,222.4 
	1090.17,222.44 1090.17,221.57 1087.81,221.59 1087.77,220.86 1090.17,220.86 1090.15,220.09 "/>
<polygon class="st17" points="1090.86,220.09 1090.86,224.02 1091.93,224.02 1091.93,221.67 1091.93,221.4 1092.18,221.57 
	1092.47,222.04 1094.1,223.98 1094.14,224.07 1094.67,224.07 1094.76,224.07 1094.72,220.04 1094.19,220.04 1094.18,222.7 
	1094.18,222.82 1094.02,222.83 1093.89,222.71 1093.79,222.57 1092.01,220.18 1091.93,220.04 "/>
<polyline class="st20" points="851.55,255.54 850.05,255.54 848.8,255.54 847.28,255.54 846.15,255.54 844.74,255.54 843.94,255.54 
	843.09,255.39 843.41,255.19 843.7,254.94 844.21,254.48 844.49,254.21 844.79,253.96 845.12,253.66 845.2,253.45 845.19,253.02 
	845.19,252.23 845.18,249.21 845.15,245.97 845.2,242.28 845.32,242.04 845.87,242.04 846.62,242.04 847.25,242.04 848.23,242.04 
	848.79,242.04 849.18,242.11 849.18,242.73 849.18,243.59 849.18,244.88 849.18,246.28 849.18,248.19 849.18,249.89 849.18,251.78 
	849.18,253.32 849.18,253.74 849.24,253.91 849.62,254.23 849.83,254.44 850.49,254.94 851.02,255.33 851.55,255.54 "/>
<polygon class="st21" points="835.78,222.53 835.78,222.14 835.78,221.75 835.78,221.31 835.78,220.6 835.78,220.04 835.78,219.52 
	835.78,219.22 835.78,219.05 836.07,219.05 836.27,219.05 836.59,219.05 836.88,219.05 837.25,219.05 837.59,219.05 837.76,219.05 
	837.9,219.05 838.1,219.05 838.34,219.11 838.49,219.22 838.68,219.42 838.84,219.62 838.91,219.84 838.91,220.07 838.91,220.29 
	838.91,220.55 838.91,220.79 838.82,220.92 838.67,221.04 838.55,221.18 838.37,221.33 838.11,221.42 837.89,221.53 837.52,221.55 
	837.34,221.55 837,221.55 836.7,221.55 836.51,221.55 836.36,221.59 836.3,221.7 836.3,221.93 836.32,222.2 836.31,222.33 
	836.3,222.53 836.13,222.53 835.98,222.53 "/>
<polygon class="st22" points="836.31,220.79 836.31,220.43 836.31,220.2 836.35,220.06 836.48,220.02 836.59,220.02 836.77,220.02 
	836.98,220.02 837.25,220.02 837.52,220.02 837.71,220.02 837.88,220.02 838.07,220.06 838.21,220.09 838.31,220.2 838.31,220.4 
	838.31,220.57 838.16,220.65 837.9,220.75 837.77,220.79 837.42,220.79 837.1,220.79 836.57,220.79 "/>
<polygon class="st23" points="839.62,221.66 839.62,220.96 839.62,220.4 839.68,220.11 839.9,219.94 840.19,219.64 840.42,219.49 
	840.61,219.29 840.75,219.18 840.91,219.05 841.11,219.05 841.41,219.05 841.79,219.05 842.1,219.05 842.27,219.05 842.49,219.11 
	842.64,219.18 842.87,219.32 843.1,219.51 843.29,219.71 843.46,219.95 843.63,220.19 843.82,220.46 843.91,220.64 843.91,221.11 
	843.91,221.36 843.91,221.54 843.91,221.78 843.91,221.97 843.66,222.18 843.36,222.53 843.04,222.76 842.82,222.89 842.6,223 
	842.34,223 841.98,223 841.63,223 841.18,223 841.03,223 840.71,222.79 840.46,222.63 840.24,222.43 839.93,222.16 839.83,221.97 
	"/>
<polygon class="st24" points="840.15,221.46 840.15,220.68 840.25,220.52 840.45,220.36 840.67,220.19 840.9,220.02 841.17,220.02 
	841.53,220.02 841.81,220.02 842.11,220.02 842.27,220.08 842.46,220.14 842.63,220.22 842.81,220.4 842.94,220.52 843.05,220.59 
	843.05,220.69 843.12,220.91 843.12,221.11 843.12,221.46 843.02,221.68 842.84,222.03 842.68,222.11 842.4,222.11 842.01,222.11 
	841.63,222.11 841.19,222.11 841.01,222.11 840.78,222.01 840.58,221.83 840.35,221.69 "/>
<polygon class="st25" points="844.05,219.55 844.31,220.02 844.53,220.4 844.66,220.87 844.82,221.18 844.94,221.51 845.1,221.86 
	845.17,222.23 845.31,222.53 845.47,222.53 845.62,222.53 845.78,222.53 846.01,222.53 846.1,222.11 846.19,221.81 846.3,221.49 
	846.49,221.11 846.62,220.79 846.73,220.5 846.99,220.52 847.16,220.52 847.32,220.7 847.4,221.06 847.52,221.57 847.66,221.92 
	847.86,222.28 848.03,222.53 848.2,222.53 848.41,222.53 848.68,222.53 848.83,222.11 848.95,221.66 849.14,221.21 849.37,220.7 
	849.48,220.32 849.54,220.02 849.62,219.72 849.62,219.55 849.31,219.55 849.03,219.48 848.92,219.82 848.83,220.22 848.69,220.79 
	848.58,221.06 848.43,221.4 848.32,221.57 848.09,221.57 847.89,221.38 847.8,220.93 847.67,220.4 847.47,220.02 847.37,219.7 
	847.27,219.48 846.99,219.48 846.83,219.48 846.67,219.48 846.5,219.81 846.3,220.24 846.18,220.63 846.05,221.01 845.95,221.27 
	845.85,221.54 845.61,221.57 845.25,221.01 845.11,220.56 844.97,220.09 844.73,219.68 844.63,219.48 "/>
<polygon class="st25" points="850.6,219.16 851.06,219.16 851.58,219.16 852.21,219.16 852.76,219.16 853.15,219.16 853.31,219.16 
	853.31,219.42 853.31,219.74 853.31,220 853.1,220 852.73,220 852.34,220 851.83,220 851.41,220 851.15,220 851.14,220.32 
	851.14,220.53 851.47,220.53 853.31,220.53 853.31,221.55 851.12,221.55 851.12,222.06 853.31,222.06 853.31,223 850.03,223 
	850.03,219.16 "/>
<polygon class="st25" points="853.9,222.91 853.9,219.77 853.98,219.63 854.12,219.55 854.28,219.41 854.41,219.25 854.52,219.16 
	854.63,219.06 856.54,219.06 856.86,219.26 857.19,219.5 857.6,219.76 857.7,219.93 857.7,220.29 857.7,220.51 857.58,220.74 
	857.38,220.9 857.23,221.04 857.13,221.11 857.19,221.54 857.42,221.76 857.64,222.02 857.7,222.32 857.7,222.53 857.7,222.76 
	857.7,222.91 857.52,222.91 857.2,222.91 856.79,222.91 856.57,222.91 856.6,222.5 856.59,222.14 856.59,221.9 856.59,221.7 
	856.55,221.57 856.32,221.56 855.91,221.55 855.61,221.54 855.26,221.54 855.02,221.56 854.96,221.84 854.97,222.07 854.98,222.43 
	854.98,222.63 854.96,222.91 "/>
<rect x="854.96" y="220.04" class="st26" width="1.64" height="0.54"/>
<polyline class="st27" points="888.76,252.76 888.76,245.3 888.76,227.83 888.76,216.88 888.76,208.31 "/>
<polyline class="st27" points="1044.72,252.15 1044.72,243.23 1044.72,232.95 1044.72,223.56 1044.6,209.96 "/>
<polyline class="st27" points="888.64,44.99 888.64,54.4 888.64,66.39 888.64,78.3 888.64,89.06 "/>
<polyline class="st27" points="1043.41,42.89 1043.41,56.98 1043.41,67.78 1043.41,81.8 1043.36,88.88 "/>
<path class="st27" d="M888.64,89.06"/>
<line class="st28" x1="832.1" y1="175.61" x2="830.52" y2="175.51"/>
<polyline class="st28" points="830.52,176.78 830.52,176.48 830.52,175.51 830.52,174.83 830.52,174.58 830.52,174.42 
	831.02,174.42 831.44,174.42 831.8,174.42 831.97,174.42 832.35,174.71 832.35,174.99 832.35,175.16 832.35,175.34 832.23,175.58 
	832.35,176.4 832.35,176.52 832.35,176.78 "/>
<polyline class="st28" points="835.13,174.71 833.27,174.71 833.11,174.71 833.11,176.66 833.11,176.85 835.07,176.85 "/>
<line class="st28" x1="835.04" y1="175.71" x2="833.11" y2="175.71"/>
<polyline class="st28" points="837.59,175.14 837.37,174.99 837.18,174.86 836.97,174.79 836.57,174.79 836.23,174.79 
	835.99,174.97 835.82,175.14 835.82,175.35 835.97,175.6 836.3,175.71 836.63,175.78 836.97,175.85 837.18,175.85 837.37,176.02 
	837.46,176.31 837.45,176.54 837.31,176.78 837.06,176.85 836.7,176.85 836.41,176.85 836.14,176.78 835.96,176.62 835.7,176.38 "/>
<polyline class="st28" points="840.08,174.79 838.31,174.79 838.31,177.11 840.08,177.11 "/>
<line class="st28" x1="840.08" y1="175.91" x2="838.31" y2="175.91"/>
<polyline class="st28" points="840.49,174.99 840.73,174.99 842.86,174.99 "/>
<line class="st28" x1="841.67" y1="177.11" x2="841.67" y2="174.99"/>
<polyline class="st27" points="1051.11,201.89 1053.57,203.48 1055.15,204.47 1057,205.51 1058.29,206.28 1059.8,207.17 
	1061.9,208.53 1062.97,209.16 1064.23,209.93 1065.08,210.56 1065.66,210.98 1066.07,211.24 1066.64,211.59 1066.73,211.4 
	1066.8,211.24 1066.94,210.97 1067.11,210.7 1067.31,210.4 1067.52,210.13 1067.76,209.84 1067.7,209.69 1067.51,209.46 
	1066.98,209.12 1066.39,208.74 1065.46,208.21 1064.54,207.6 1063.7,207.04 1062.93,206.63 1062.08,206.1 1061.22,205.57 
	1060.32,205.02 1059.21,204.38 1058.36,203.85 1057.6,203.39 1056.83,202.94 1056.2,202.49 1055.48,202.03 1054.81,201.58 
	1053.97,200.98 1053.31,200.58 1052.4,200.08 1051.81,200.92 1051.11,201.89 "/>
<polygon class="st15" points="1020.54,229.18 1023.49,227.46 1026.18,225.65 1029.22,223.53 1031.6,221.6 1034.16,219.7 
	1036.27,218.07 1038.52,216.09 1040.5,214.15 1042.4,212.16 1044.6,209.96 1046.63,207.62 1048.61,205.33 1050.16,203.22 
	1051.96,200.7 1054.34,197.31 1056.19,194.23 1058.13,190.96 1059.54,188.06 1061.57,184.09 1063.25,179.64 1064.39,176.16 
	1065.58,172.32 1066.51,168.4 1067.26,164.65 1067.7,161.66 1068.05,158.83 1068.36,156.28 1068.53,154.52 1068.53,151.96 
	1068.53,149.26 1068.53,146.19 1068.53,144.03 1068.27,140.94 1068.05,139.09 1067.7,136.91 1067.34,134.86 1066.86,132.21 
	1066.42,129.83 1065.54,126.53 1064.66,123.66 1063.73,120.76 1062.76,118.07 1061.79,115.69 1060.34,112.47 1059.1,109.74 
	1057.52,106.96 1056.5,104.93 1055.31,103.04 1054.12,100.97 1052.67,98.98 1051.24,97.41 1050.13,95.89 1048.73,94.31 
	1047.45,92.97 1046.45,92.09 1045.28,90.98 1044.29,89.75 1043.36,88.88 1042.42,87.77 1040.9,86.13 1039.62,84.79 1037.57,82.63 
	1036.41,81.63 1035,80.47 1033.78,79.3 1032.14,78.01 1030.04,76.38 1028.34,75.21 1025.83,73.46 1023.55,71.88 1020.98,70.3 
	1018.65,69.13 1015.73,67.38 1012.45,65.8 1009.07,64.4 1005.5,62.76 1002.58,61.71 998.49,60.43 994.81,59.32 991.25,58.38 
	988.33,57.68 984.59,56.98 982.02,56.51 979.33,56.22 976.47,55.93 972.15,55.93 966.33,55.64 963.5,55.64 959.82,55.64 
	955.97,55.99 950.12,56.51 945.74,57.1 940.43,58.27 935.34,59.67 931.08,61.01 925.94,62.76 920.62,64.98 916.48,67.15 
	912.56,69.37 908.47,72.11 905.08,74.27 901.58,76.78 898.6,79.18 896.09,81.34 893.58,83.91 891.82,85.78 889.72,87.77 
	887.97,89.87 886.16,92.15 883.24,95.77 881.25,98.46 879.21,101.85 877.28,104.88 875.53,107.69 874.36,110.14 873.19,112.65 
	871.9,115.92 870.62,119.37 869.27,122.82 868.52,126.32 867.29,130.82 867.06,132.59 866.85,134.81 866.64,136.91 866.39,138.92 
	866.28,140.69 866.07,142.73 865.93,145.45 865.93,147.95 865.93,149.78 865.93,152.26 865.93,154.32 865.93,155.8 866.16,158.23 
	866.35,159.24 866.56,160.7 866.94,162.36 867.1,163.12 867.23,163.88 867.32,164.86 867.44,166.08 867.7,167.06 867.87,168.2 
	868.12,169.46 868.46,170.73 868.88,172.13 869.34,173.9 869.73,175.34 870.61,177.62 871.16,178.93 871.67,180.37 872.22,181.6 
	872.73,182.82 873.44,184.43 873.99,185.7 874.92,187.64 876.07,189.76 876.91,191.19 877.93,193.09 878.94,194.79 880.08,196.81 
	881.05,198.34 882.11,199.9 883.46,201.84 884.56,203.28 886.25,205.35 888.03,207.55 890.14,209.75 891.92,211.65 893.69,213.51 
	895.85,215.5 897.84,217.1 899.61,218.71 901.85,220.57 904.3,222.39 906.54,223.95 909.25,225.6 911.66,227.12 914.11,228.6 
	916.35,229.87 918.89,231.05 922.14,232.53 924.55,233.8 927.93,235.11 930.68,236.13 933.47,237.06 936.18,238.07 939.09,238.83 
	941.92,239.55 944.93,240.23 948.01,240.82 950.55,241.28 953.17,241.62 956.17,241.96 958.47,242.32 960.67,242.52 962.29,242.52 
	964.59,242.52 967.12,242.52 969.18,242.52 972.11,242.52 974.55,242.52 976.79,242.21 979.05,241.98 981.02,241.78 983.57,241.45 
	986.39,240.94 989.09,240.39 991.68,239.81 994.81,239.01 997.65,238.19 1000.29,237.42 1003.28,236.42 1005.92,235.51 
	1008.76,234.42 1011.53,233.23 1013.88,232.23 1016.43,231.01 1018.53,230.19 "/>
<polyline class="st28" points="951.08,202.46 951.08,198.63 951.08,198.39 951.59,198.39 952.26,198.39 952.75,198.39 953.21,198.5 
	953.44,198.74 953.57,199.19 953.57,199.55 953.57,199.99 953.37,200.43 953.06,200.66 952.32,200.66 951.83,200.66 951.23,200.68 
	"/>
<line class="st28" x1="955.06" y1="198.39" x2="955.06" y2="202.46"/>
<polyline class="st28" points="956.8,199.43 958.2,199.43 958.51,199.61 958.76,199.86 958.76,200.5 958.76,200.7 958.76,202.15 
	958.76,202.46 956.93,202.46 956.6,202.24 956.4,201.93 956.4,201.59 956.4,201.24 956.75,200.95 957,200.82 957.4,200.73 
	957.69,200.73 957.96,200.73 958.25,200.7 958.47,200.7 "/>
<line class="st28" x1="962.83" y1="199.43" x2="960.5" y2="204.27"/>
<line class="st28" x1="960.03" y1="199.43" x2="961.34" y2="202.15"/>
<polyline class="st28" points="966.02,198.39 964.44,198.39 964.19,198.61 963.99,198.94 963.99,199.86 964.28,200.1 964.68,200.28 
	965,200.28 965.35,200.28 965.71,200.43 966.02,200.79 966.02,201.15 966.02,201.51 966.02,201.97 965.77,202.28 965.46,202.46 
	963.99,202.46 "/>
<polyline class="st28" points="967.62,198.74 967.62,202.31 968.02,202.46 968.47,202.46 "/>
<line class="st28" x1="968.87" y1="199.43" x2="967.71" y2="199.43"/>
<polyline class="st28" points="970.07,199.43 971.49,199.43 971.81,199.66 971.98,199.95 971.98,202.26 971.76,202.46 
	971.25,202.46 970.14,202.46 969.85,202.15 969.6,201.85 969.6,201.37 969.94,201.06 970.27,200.95 970.6,200.79 971.14,200.79 
	971.43,200.79 971.81,200.79 "/>
<polyline class="st28" points="973.7,198.74 973.7,202.15 974.05,202.46 974.52,202.46 "/>
<line class="st28" x1="974.9" y1="199.43" x2="973.81" y2="199.43"/>
<line class="st28" x1="976.04" y1="198.25" x2="976.04" y2="198.59"/>
<line class="st28" x1="976.04" y1="199.43" x2="976.04" y2="202.64"/>
<polygon class="st28" points="977.62,201.62 977.62,200.6 977.73,200.19 977.86,199.88 978.02,199.68 978.29,199.43 979.15,199.43 
	979.62,199.52 979.93,199.79 980.11,200.17 980.11,200.86 980.11,201.62 979.98,202.04 979.71,202.31 979.42,202.46 978.51,202.46 
	978.08,202.28 977.77,202.02 "/>
<polyline class="st28" points="984.1,202.55 984.1,199.99 983.94,199.7 983.54,199.43 981.71,199.43 981.71,202.64 "/>
<polygon class="st29" points="954.34,94.94 954.34,93.13 953.92,93.25 953.39,93.31 952.88,93.03 952.1,92.8 951.63,92.8 
	949.76,92.8 949.23,92.93 948.68,93.1 947.98,93.28 947.5,93.53 947.04,94.09 947.04,95.45 947.5,95.72 948.1,96.02 948.93,96.25 
	949.66,96.4 950.57,96.5 951.32,96.5 952.63,96.5 953.21,96.93 953.54,97.31 953.51,97.79 953.09,98.06 952.53,98.29 951.9,98.29 
	951.25,98.29 950.69,98.29 949.94,98.29 949.21,98.11 948.73,97.76 948.33,97.38 948,97.01 947.85,96.75 947.04,96.78 947.04,99.02 
	947.75,99.02 948.05,99.02 948.15,98.69 948.53,98.72 949.13,99.02 949.91,99.17 950.69,99.27 951.5,99.27 952.38,99.27 
	953.31,98.99 953.97,98.69 954.52,98.37 954.85,97.89 954.85,97.08 954.85,96.55 954.6,96.15 954.29,95.82 953.71,95.52 
	953.01,95.39 952.25,95.32 951.32,95.27 950.47,95.17 949.59,95.02 948.83,94.77 948.53,94.54 948.53,94.16 948.93,93.91 
	949.31,93.63 949.81,93.48 950.47,93.41 952.1,93.48 952.68,93.66 953.04,94.01 953.49,94.44 953.94,94.97 "/>
<polygon class="st29" points="959.45,99.27 958.32,98.74 957.57,98.14 957.06,97.53 956.69,97.01 956.69,95.34 957.09,94.64 
	957.67,94.09 958.37,93.53 959.23,93.03 960.01,92.8 962.5,92.8 963.26,92.98 964.14,93.33 964.62,93.66 965.37,94.21 965.72,94.99 
	965.72,96.88 965.5,97.61 965.02,98.06 964.29,98.62 963.61,98.89 962.95,99.27 "/>
<polygon class="st30" points="960.64,98.32 959.76,98.11 959.18,97.71 958.8,97.28 958.62,96.75 958.62,96.33 958.62,95.5 
	958.85,94.92 959.18,94.44 959.63,94.11 960.06,93.76 960.34,93.58 961.85,93.58 962.65,93.96 963.23,94.36 963.58,94.82 
	963.89,95.34 963.89,96.91 963.51,97.43 963.03,97.91 962.5,98.32 "/>
<polygon class="st31" points="973.2,93.1 973.2,93.81 974.31,93.81 974.31,96.65 970.18,93.1 967.13,93.1 967.13,93.81 
	968.17,93.83 968.17,98.32 967.13,98.32 967.13,98.89 970.72,98.89 970.63,98.32 969.42,98.32 969.4,94.89 969.85,94.89 
	974.31,98.77 974.31,99.02 975.74,99.02 975.74,93.83 976.8,93.83 976.8,93.1 "/>
<polygon class="st31" points="977.74,93.1 977.74,93.85 978.86,93.85 981.36,96.51 981.36,98.33 980.27,98.33 980.27,99.02 
	984.67,99.02 984.67,98.22 983.36,98.22 983.27,96.7 986.12,93.89 987.28,93.89 987.28,93.1 983.63,93.1 983.65,93.79 984.47,93.83 
	984.45,94.21 983.19,95.6 982.51,95.58 981.01,93.94 981.01,93.72 981.9,93.72 981.88,93.1 "/>
<polygon class="st32" points="964.23,195.04 963.26,194.63 962.7,194.44 961.91,194.29 961.01,194.29 960.03,194.22 959.22,194.22 
	958.45,194.05 957.58,193.83 956.81,193.59 956.11,193.23 955.5,192.72 955.38,192.12 955.55,191.68 956.13,191.25 956.78,190.91 
	957.58,190.6 957.94,190.81 958.23,190.98 958.76,191.18 959.37,191.42 959.8,191.63 960.29,192 959.66,192.26 959.13,192.43 
	959.15,192.82 959.68,192.82 960.34,192.82 960.96,192.82 961.34,192.82 961.52,192.48 961.81,192.34 962.2,192.34 962.66,192.34 
	963.19,192.41 963.55,192.55 963.89,192.63 964.23,192.82 964.49,192.99 964.49,193.57 964.49,195.04 "/>
<polygon class="st33" points="968.29,196.18 971.06,195.23 970.79,194.87 970.24,194.63 969.6,194.44 968.87,194.36 968.29,194.36 
	"/>
<polygon class="st34" points="957.58,190.6 958.6,190.27 959.74,189.88 960.5,189.63 961.21,189.4 962.1,189.08 962.83,188.85 
	963.52,189.01 963.99,189.17 964.49,189.33 964.49,192.99 963.89,192.63 963.55,192.55 963.19,192.41 962.66,192.34 962.2,192.34 
	961.81,192.34 961.52,192.48 961.34,192.82 960.96,192.82 960.34,192.82 959.68,192.82 959.15,192.82 959.13,192.43 959.66,192.26 
	960.29,192 959.8,191.63 959.37,191.42 958.76,191.18 958.23,190.98 957.94,190.81 "/>
<polygon class="st35" points="962.83,188.85 963.57,188.35 963.99,188.16 964.49,188.16 964.49,189.33 963.99,189.17 963.52,189.01 
	"/>
<polygon class="st36" points="964.49,190.48 963.66,190.92 963.04,191.16 962.01,191.55 961.21,191.81 960.29,192 959.66,192.26 
	959.13,192.43 959.15,192.82 959.68,192.82 960.34,192.82 960.96,192.82 961.34,192.82 961.52,192.48 961.81,192.34 962.2,192.34 
	962.66,192.34 963.08,192.1 963.27,192.04 963.41,192.01 963.8,191.91 964.1,191.88 "/>
<polygon class="st37" points="964.49,192.82 964.49,192.14 964.49,191.34 964.18,191.57 964.1,191.88 963.8,191.91 963.41,192.01 
	963.08,192.1 962.66,192.34 963.19,192.41 963.55,192.55 963.89,192.63 964.23,192.82 964.49,192.99 "/>
<polygon class="st38" points="968.29,194.36 968.29,193.75 969.02,193.61 969.75,193.39 970.55,193.32 970.95,192.99 971.55,192.82 
	972,192.74 972.42,192.53 972.75,192.41 973.36,192.34 973.85,192.34 974.52,192.34 975.19,192.43 975.63,192.59 976.17,192.82 
	976.76,193.11 976.04,193.56 975.56,193.74 974.52,194.09 973.8,194.36 972.96,194.64 971.95,194.92 971.06,195.23 970.79,194.87 
	970.24,194.63 969.6,194.44 968.87,194.36 "/>
<polygon class="st38" points="968.19,190.6 968.94,190.75 969.91,190.92 970.68,191.18 971.21,191.52 970.72,191.82 969.97,192 
	969.17,192.34 968.19,192.7 "/>
<polygon class="st39" points="968.29,190.39 969.9,190.08 970.83,189.89 972.01,189.7 973,189.59 973.84,189.59 974.8,189.68 
	976.07,189.85 977.02,189.99 978.02,190.48 978.73,191.05 978.99,191.46 978.99,191.93 978.91,192.47 978.56,192.82 977.98,192.9 
	977.34,193.09 976.76,193.11 976.17,192.82 975.63,192.59 974.86,192.39 973.85,192.34 974.03,192.16 974.35,192.04 974.7,191.97 
	975.17,191.84 975.47,191.76 975.6,191.24 975.62,191.07 975.32,190.92 975.06,190.84 974.63,190.84 974.18,190.84 973.81,190.92 
	973.24,191.03 972.74,191.24 972.2,191.46 971.58,191.52 971.21,191.52 970.68,191.18 969.91,190.92 968.94,190.75 968.19,190.6 "/>
<polygon class="st40" points="964.4,195.27 968.29,196.18 968.19,188.95 968.19,185.64 968.19,184.07 968.19,182.78 968.19,182.3 
	968.19,182.07 968.68,182.07 969.51,182.07 969.83,182.07 970.02,182.28 970.02,182.55 970.02,188.16 970.22,188.54 970.48,188.75 
	970.84,188.75 971.49,188.75 972.16,188.75 972.64,188.58 972.94,188.16 973.35,187.82 973.7,187.34 973.91,187.15 974.09,186.86 
	974.09,186.46 974.09,185.5 974.09,184.14 974,183.66 973.74,183.27 973.33,182.74 972.94,182.35 972.53,181.93 971.93,181.56 
	971.3,181.24 970.71,180.96 969.95,180.64 969.25,180.41 968.57,180.16 967.88,179.95 967.23,179.7 966.61,179.54 966.06,179.42 
	965.41,179.31 964.7,179.31 964.4,179.31 964.49,188.16 "/>
<path class="st41" d="M865.17,74.91c-0.91-2.95,4.97-7.51,7.64-9.21c5.16-3.29,10.35-3.58,12.73-3.56h32.19
	c2.87,0,5.46,1.16,7.34,3.04c0.42,0.42,3.08,3.16,3.04,7.34c-0.03,3.92-2.42,7.56-6.13,9.47c-4.77-1.8-11.2-3.68-18.98-4.44
	c-5.55-0.54-10.47-0.38-14.52,0.02C870.24,79.06,865.83,77.04,865.17,74.91z"/>
<path class="st41" d="M1073.95,76.27c0.91-2.95-4.97-7.51-7.64-9.21c-5.16-3.29-10.35-3.58-12.73-3.56h-32.19
	c-2.87,0-5.46,1.16-7.34,3.04c-0.42,0.42-3.08,3.16-3.04,7.34c0.03,3.92,2.42,7.56,6.13,9.47c4.77-1.8,11.2-3.68,18.98-4.44
	c5.55-0.54,10.47-0.38,14.52,0.02C1068.87,80.42,1073.29,78.4,1073.95,76.27z"/>
<path class="st42" d="M1012.79,106.24c2.83-5.48,8.53-7.96,11.16-9.06c11.4-4.78,22.96-1.35,25.6-0.57
	c8.09,2.4,13.38,6.69,16.19,9.41c0.12,0.12,0.12,0.31,0,0.42l-7.16,6.95c-0.01,0.01-0.02,0.02-0.03,0.03
	c-5.18,3.95-10.24,5.88-13.38,6.85c-2.54,0.78-10.94,3.1-21.22,1.26c-5.08-0.91-9.64-1.73-11.81-5.1
	C1009.58,112.47,1012.07,107.64,1012.79,106.24z"/>
<path class="st42" d="M926.39,103.07c-2.72-5.48-8.2-7.96-10.73-9.06c-10.97-4.78-22.09-1.35-24.62-0.57
	c-7.99,2.47-13.14,6.92-15.78,9.63c2.37,2.39,4.74,4.78,7.11,7.18c4.98,3.96,9.87,5.9,12.89,6.86c2.44,0.78,10.53,3.1,20.41,1.26
	c4.88-0.91,9.28-1.73,11.36-5.1C929.49,109.3,927.09,104.47,926.39,103.07z"/>
<path class="st43" d="M883.95,243.91c1.17-9.05,4.4-26.78,14.57-46.51c9.52-18.47,20.65-30.03,26.9-35.79
	c0.91-4.67-0.22-8.89-2.85-10.72c-2.44-1.7-5.28-0.7-6.03-0.4c-40.89,78.71-43.73,91.94-42.12,93.78c2.09,2.38,4.64,2.2,4.64,2.2
	C881.13,246.3,882.92,244.88,883.95,243.91z"/>
<path class="st43" d="M1049.59,243.91c-1.17-9.05-4.4-26.78-14.57-46.51c-9.52-18.47-20.65-30.03-26.9-35.79
	c-0.91-4.67,0.22-8.89,2.85-10.72c2.44-1.7,5.28-0.7,6.03-0.4c40.89,78.71,43.73,91.94,42.12,93.78c-2.09,2.38-4.64,2.2-4.64,2.2
	C1052.41,246.3,1050.62,244.88,1049.59,243.91z"/>
<path class="st44" d="M1016.63,217.88c-7.34,4.65-23.94,13.75-46.9,14.6c-27.03,1-46.65-10.04-53.88-14.6
	c-2.24-1.28-3.53-3.71-3.29-6.17c0.31-3.2,3.04-4.79,3.29-4.94c13.26,2.96,30.39,5.55,50.39,5.55c13.59,0,30.87-1.2,50.39-5.55
	c0.15,0.08,3.18,1.83,3.29,5.35C1019.99,214.49,1018.72,216.72,1016.63,217.88z"/>
<path class="st43" d="M1017.21,57.23c-10.6-0.51-21.57-0.87-32.91-1.06c-23.81-0.39-46.22,0.06-67.05,1.06
	c-5.14-0.7-8.91-2.04-9.05-3.54c-0.19-2.06,6.49-3.76,9.05-4.42c12.61-3.22,24.51-1.82,25.91-1.66c13.74,1.59,37.09,2.19,74.04,1.66
	c6.4,0.08,10.46,2.67,10.28,4.42C1027.32,55.37,1023.1,57.41,1017.21,57.23z"/>
<path class="st43" d="M996.67,67.2c-6.55-1.73-21.54-5.02-39.49-2.93c-5.85,0.68-10.79,1.79-14.73,2.93
	c-3.1,0.12-5.86-0.44-6.52-1.39c-0.83-1.2,1.4-3.46,6.52-4.36c8.88,0.69,15.85,0.4,20.49,0.03c8.93-0.71,14.31-2.14,23.24-1.56
	c4.6,0.3,8.24,1.01,10.49,1.53c3.3-0.12,6.05,0.79,6.58,1.89C1003.91,64.71,1001.41,66.89,996.67,67.2z"/>
<path class="st43" d="M985.96,75.32c-9.15,1-14.29,1.49-17.25,1.7c-0.88,0.06-3.48,0.25-6.91,0.75c-1.36,0.2-2.48,0.4-3.22,0.53
	c-3.73,0.28-7.2-0.19-8-1.49c-0.98-1.6,1.84-4.81,8-6.99c4.91,1.38,13.94,3.3,24.72,1.89c3.38-0.44,6.34-1.14,8.83-1.89
	c2.79,1.41,4.33,3.39,3.7,4.61C995.07,75.89,990.81,76.89,985.96,75.32z"/>
<path class="st45" d="M904.94,90.32c-3.11-0.35-9.31-0.47-15.6,3.63c-2.05,1.34-3.7,2.86-5,4.28c2.12,10.16,9.46,17.2,17.34,17.2
	c9.51,0,17.34-7.77,17.34-17.2c0-0.28-0.01-0.55-0.02-0.83c-0.6-0.75-1.29-1.49-2.07-2.21C912.63,91.25,907.81,90.46,904.94,90.32z"
	/>
<path class="st45" d="M1033.94,93.59c3.11-0.35,9.31-0.48,15.6,3.69c2.05,1.35,3.7,2.9,5,4.34c-2.12,10.3-9.46,17.44-17.34,17.44
	c-9.51,0-17.34-7.87-17.34-17.44c0-0.28,0.01-0.56,0.02-0.84c0.6-0.76,1.29-1.52,2.07-2.24
	C1026.25,94.53,1031.07,93.72,1033.94,93.59z"/>
<ellipse class="st46" cx="901.68" cy="100.77" rx="6.56" ry="4.58"/>
<ellipse class="st46" cx="1037.2" cy="100.77" rx="6.56" ry="4.58"/>
<path class="st41" d="M966.1,164.74c2.91,6.18-2.59,16.93-10.33,20.36c-8.28,3.67-13.48-3.54-24.97-0.92
	c-11.61,2.65-16.24,12.27-17.82,11.1c-2.46-1.82,5.16-27.91,25.59-34.75C947.99,157.38,962.68,157.46,966.1,164.74z"/>
<path class="st41" d="M967.02,164.74c-2.91,6.18,2.59,16.93,10.33,20.36c8.28,3.67,13.48-3.54,24.97-0.92
	c11.61,2.65,16.24,12.27,17.82,11.1c2.46-1.82-5.16-27.91-25.59-34.75C985.13,157.38,970.44,157.46,967.02,164.74z"/>
<path class="st47" d="M870.3,117.97l-43.62-40.36c-0.21-2.26-0.42-4.51-0.62-6.77c11.57,6.56,25.68,16.63,38.35,31.93
	c3.36,4.06,6.29,8.09,8.85,12C872.27,115.83,871.28,116.9,870.3,117.97z"/>
<path class="st47" d="M1060.84,117.43c4.01-4.71,6.37-9,7.77-12.03c4.35-9.4,3.37-15.06,8.34-22.58c2.8-4.24,6.05-7.05,8.27-8.72
	c0.14,2.66,0.28,5.33,0.42,7.99c-0.76,2.47-1.82,5.95-3.11,10.12c-3.8,12.34-4.23,13.55-4.89,14.93c-1.9,3.96-5.8,9.51-14.77,14.4
	C1062.19,120.16,1061.51,118.79,1060.84,117.43z"/>
<linearGradient id="SVGID_1_" gradientUnits="userSpaceOnUse" x1="867.5709" y1="124.2555" x2="932.2457" y2="124.2555">
	<stop  offset="0" style="stop-color:#FFFFFF"/>
	<stop  offset="0.9925" style="stop-color:#000000;stop-opacity:0.2"/>
</linearGradient>
<path class="st48" d="M927.62,137.88c-17.75,0-35.5,0-53.24,0c-1.19-0.95-5.54-4.65-6.59-11.03c-1.51-9.19,5.19-15.67,5.78-16.22
	c18.18,0.17,36.36,0.33,54.54,0.5c1.12,1.61,4.71,7.22,4.06,14.95C931.67,132.04,928.91,136.17,927.62,137.88z"/>
<linearGradient id="SVGID_2_" gradientUnits="userSpaceOnUse" x1="998.3034" y1="127.6273" x2="1062.9781" y2="127.6273">
	<stop  offset="0" style="stop-color:#FFFFFF"/>
	<stop  offset="0.9925" style="stop-color:#000000;stop-opacity:0.2"/>
</linearGradient>
<path class="st49" d="M1058.36,141.25c-17.75,0-35.49,0-53.24,0c-1.19-0.95-5.54-4.65-6.59-11.03c-1.51-9.19,5.19-15.67,5.78-16.22
	c18.18,0.17,36.36,0.33,54.54,0.5c1.12,1.61,4.71,7.22,4.06,14.95C1062.4,135.41,1059.65,139.54,1058.36,141.25z"/>
<path class="st47" d="M932.17,126.09c4.86-3.02,16.46-9.34,32.55-9.61c16.74-0.28,28.93,6.14,33.82,9.08c0,1.56-0.01,3.11-0.01,4.67
	c-6.89-2.77-18.69-6.53-33.74-6.46c-14.91,0.07-26.58,3.87-33.43,6.68C931.63,128.99,931.9,127.54,932.17,126.09z"/>
<path class="st50" d="M962.12,165.63"/>
<path class="st50" d="M961.74,158.04"/>
<polyline class="st51" points="276.87,250.01 276.08,250.01 274.92,249.82 273.85,249.52 273.15,249.17 272.41,248.7 271.8,248.15 
	271.44,247.6 271.06,247.06 271.06,244.99 271.06,238.89 271.06,208.15 271.06,168.37 271.06,135.55 271.06,96.55 271.06,47.52 
	271.06,46.76 271.06,46.03 271.06,45.67 271.33,45.13 271.74,44.63 272.21,44.02 272.69,43.65 273.32,43.27 273.8,43.11 
	274.36,42.9 275.09,42.72 275.63,42.59 276.16,42.59 276.54,42.52 276.87,42.52 277.15,42.52 277.3,42.52 276.85,42.7 276.26,43.16 
	275.96,43.7 275.76,44.45 275.76,45.07 275.76,46.39 275.76,60.15 275.76,77.53 275.76,105.17 275.76,118.3 275.76,153.23 
	275.76,188.26 275.76,218.37 275.76,248.77 276.17,249.39 276.87,250.01 "/>
<polyline class="st52" points="279.39,250.28 278.73,250.55 277.86,250.41 276.87,250.01 276.17,249.39 275.76,248.77 
	275.76,247.08 275.76,195.39 275.76,142.64 275.76,90.89 275.76,47.76 275.76,46.03 275.76,45.07 275.76,44.45 275.96,43.7 
	276.26,43.16 276.85,42.7 277.57,42.41 278.25,42.22 278.89,42.22 279.74,42.32 279.37,42.71 279,43.22 278.68,43.63 278.59,43.98 
	278.49,44.41 278.49,45.04 278.49,45.55 278.49,46.55 278.49,59.12 278.49,69.76 278.49,99.1 278.49,142.4 278.49,199.82 
	278.49,203.48 278.49,204.3 278.59,204.69 278.74,204.89 278.92,205.19 279.14,205.42 279.27,205.83 279.27,207.65 279.27,238.15 
	279.27,239.32 279.2,239.75 278.89,240.03 278.68,240.37 278.49,241.03 278.49,241.53 278.49,242.52 278.49,247.4 278.49,248.54 
	278.58,248.97 278.77,249.32 278.94,249.63 279.13,249.97 279.39,250.28 "/>
<polyline class="st53" points="287.25,252.08 286.52,252.22 286,252.15 285.4,252.08 284.82,251.9 284.24,251.66 283.78,251.42 
	283.28,250.94 282.98,250.58 282.82,250.09 282.72,249.45 282.72,244.15 282.72,226.11 282.72,211.12 282.72,168.97 282.72,105.43 
	282.72,53.39 282.72,44.04 282.72,43.37 282.87,42.9 282.99,42.39 283.26,41.92 283.63,41.39 283.91,41.12 284.19,40.95 
	284.51,40.87 284.88,40.7 285.19,40.67 285.49,40.67 285.92,40.61 286.34,40.61 286.52,40.61 286.73,40.61 287.11,40.66 286.67,41 
	286.34,41.36 286.08,41.72 285.85,42.2 285.75,42.64 285.69,43.22 285.68,43.85 285.68,44.45 285.68,55.56 285.68,88.93 
	285.68,129.12 285.68,164.99 285.68,209.28 285.68,246.78 285.68,249.97 285.68,250.44 285.77,250.76 286.07,251.14 286.3,251.36 
	287.25,252.08 "/>
<path class="st27" d="M285.92,42"/>
<path class="st27" d="M286.15,41.6"/>
<path class="st27" d="M285.41,40.04"/>
<polygon class="st54" points="283.96,251.5 283.54,251.5 282.82,251.37 282.01,251.14 281.38,250.99 280.69,250.75 280.23,250.59 
	279.73,250.44 279.39,250.28 279.13,249.97 278.94,249.63 278.77,249.32 278.58,248.97 278.49,248.54 278.49,241.53 278.49,241.03 
	278.68,240.37 278.89,240.03 279.2,239.75 279.27,239.32 279.27,238.15 279.27,236.11 279.28,235.31 279.26,231.7 279.28,227.61 
	279.28,222 279.28,217.06 279.28,210.57 279.27,205.83 279.14,205.42 278.92,205.19 278.74,204.89 278.59,204.69 278.49,204.3 
	278.49,203.48 278.49,200.87 278.49,197.79 278.49,176.76 278.49,135.24 278.49,99.1 278.49,75.57 278.49,51.57 278.49,45.55 
	278.49,44.41 278.59,43.98 278.68,43.63 279,43.22 279.37,42.71 279.74,42.32 280.2,41.95 280.75,41.66 281.27,41.55 281.99,41.33 
	282.72,41.21 283.31,41.16 283.62,41.16 283.81,41.21 283.53,41.53 283.37,41.75 283.16,42.1 283.05,42.28 282.95,42.56 
	282.9,42.79 282.83,43.03 282.77,43.22 282.72,43.54 282.72,43.77 282.72,44.29 282.72,57.39 282.72,79.49 282.72,109.68 
	282.72,154.06 282.72,205.28 282.72,232.98 282.72,248.66 282.75,249.66 282.87,250.24 283.1,250.73 283.4,251.06 "/>
<polyline class="st55" points="291.51,252.88 291.1,253.1 290.03,253.1 288.97,252.88 288.09,252.49 287.25,252.08 286.44,251.49 
	285.9,250.97 285.68,250.6 285.68,249.09 285.68,247.69 285.68,205.62 285.68,136.24 285.68,43.35 285.77,42.43 285.92,42 
	286.15,41.6 286.53,41.11 287.11,40.66 287.77,40.37 288.59,40.11 289.36,39.86 290.21,39.65 290.95,39.45 291.51,39.35 
	291.86,39.39 290.52,40.95 290.38,53.79 290.38,107.65 290.38,142.88 290.38,225.13 290.56,251.94 291.51,252.88 "/>
<polyline class="st56" points="288.32,51.47 288.32,50.84 288.32,50.36 288.32,49.99 288.32,49.76 288.28,49.58 288.18,49.45 
	288.08,49.37 287.98,49.37 287.93,49.49 287.93,49.64 287.93,49.88 287.93,50.16 287.93,50.42 287.93,50.74 287.93,51.05 
	287.93,51.29 287.93,51.43 287.89,51.56 287.77,51.62 287.65,51.56 287.58,51.4 287.58,51.24 287.58,50.85 287.58,50.38 
	287.58,50.04 287.58,49.74 287.58,49.37 "/>
<polygon class="st56" points="288.41,55.44 288.41,54.86 288.41,54.42 288.41,54.09 288.41,53.95 288.37,53.73 288.32,53.62 
	288.22,53.51 288.1,53.39 287.95,53.39 287.8,53.39 287.58,53.39 287.5,53.57 287.43,53.78 287.39,54.03 287.39,54.2 287.39,54.62 
	287.39,55.22 287.39,55.39 287.39,55.65 287.47,56.03 287.58,56.23 287.86,56.27 288.13,56.16 288.32,56.04 288.41,55.85 "/>
<polyline class="st56" points="287.53,57.86 287.9,57.86 288.17,57.86 288.41,57.86 288.49,58.07 288.49,58.32 288.29,58.59 
	287.53,59.76 287.46,59.95 287.46,60.18 287.53,60.38 287.8,60.38 288.03,60.38 288.25,60.38 288.49,60.38 "/>
<polyline class="st56" points="288.49,62.52 288.27,62.73 288.12,62.91 287.97,63.07 287.85,63.27 287.85,63.47 287.85,63.65 
	287.97,63.88 288.17,64.05 288.35,64.19 288.49,64.26 "/>
<polyline class="st56" points="287.25,63.48 287.46,63.48 287.67,63.48 287.85,63.47 "/>
<polyline class="st50" points="288.77,226.02 288.77,227.12 288.77,228.72 288.77,230.81 288.69,231.12 288.51,231.27 
	288.28,231.27 288.12,231.27 288.04,231.11 288.04,230.58 288.04,230.02 288.04,226.63 288,226.36 287.88,226.18 287.76,226.02 
	287.62,225.93 287.45,225.85 287.26,225.79 287.08,225.79 "/>
<polyline class="st50" points="288.71,238.74 288.71,237.59 288.71,236.8 288.71,235.94 288.66,235.65 288.5,235.5 288.32,235.42 
	288.08,235.42 287.77,235.42 287.45,235.42 287.27,235.33 287.18,235.11 287.18,234.73 287.18,234.17 287.18,233.83 287.18,232.98 
	"/>
<polyline class="st50" points="286.52,244.3 288.5,244.3 288.65,244.3 288.65,243.8 287.58,239.97 287.52,239.71 287.43,239.49 
	287.32,239.36 287.12,239.36 287.1,239.63 287.11,239.82 287.1,240.16 287.18,245.42 "/>
<circle class="st57" cx="384.98" cy="114.22" r="13.41"/>
<circle class="st58" cx="388.58" cy="116.3" r="15.48"/>
<circle class="st58" cx="393.33" cy="120.86" r="16.94"/>
<circle class="st58" cx="381.92" cy="119.79" r="16.94"/>
<circle class="st59" cx="391.17" cy="118.89" r="18.08"/>
<path class="st58" d="M290.38,250.67v-73.16c0-6.63,0-27.68,0-37.48c0-1.32,0-3.05,0-4.7c0-0.5,0-0.98,0-1.45c0-1.51,0-2.81,0-3.45
	c0-0.53,0-1.05,0-1.58c0-17.94,0-35.88,0-53.82V42.91V42.3v-0.53v-0.43l0.14-0.39l0.19-0.31l0.18-0.29l0.19-0.28l0.31-0.26
	l0.25-0.23l0.23-0.19l0.27-0.2l0.26-0.2h0.71h11.69h6.08h9.42h9.33h7.57h8.94h6.78h7h5.34h7.86h7.39h9h6.26h6.23h7.18h7.55h9.56
	h29.17h31.59h26.85h5.05h1.51h1.08h0.57l0.48,0.07l0.38,0.16l0.44,0.31l0.22,0.23l0.32,0.26l0.1,0.13l0.39,0.38l0.23,0.31l0.34,0.38
	l0.19,0.28v0.61v8.12V67.8v15.79v21.76v38.35v28.29v24.69v23.71v22.07v8.22v0.37l-0.09,0.38l-0.2,0.34l-0.2,0.26l-0.22,0.24
	l-0.22,0.36l-0.28,0.26l-0.24,0.2l-0.38,0.18l-0.4,0.22l-0.59,0.18h-23.62h-24.49h-28.36h-23.64h-25.34h-30.3h-65.88h-7.62
	l-0.68-0.25l-0.28-0.07l-0.4-0.24l-0.5-0.35l-0.42-0.4l-0.31-0.38l-0.18-0.24v-0.52V250.67z"/>
<circle class="st60" cx="385.27" cy="106.93" r="1.22"/>
<polygon class="st61" points="290.82,128.52 306.73,119.52 319.36,110.54 327.84,102.85 334.93,96.68 343.41,88.38 353.09,78.35 
	358.8,68.66 366.24,57.86 369.7,50.5 372.64,42.22 373.1,39 292.38,39 290.52,40.95 "/>
<path class="st61" d="M456.87,39c0,0-1.86-2.2,2.37,14.4c4.23,16.59,1.69,6.99,1.69,6.99s0.93,1.79,4.28,8.24s-1.33-3.04,4.53,8.72
	c5.85,11.76,7.11,13.21,7.11,13.21l4.74,5.42l4.4,4.74l5.42,4.99l4.4,4.83l4.4,6.1l3.73,4.07l4.74,4.07l4.4,1.69l4.74,2.39
	l7.33,2.35V42.12l-2.62-3.05L456.87,39z"/>
<polygon class="st62" points="404.06,135.34 404.06,142.18 404.06,149.14 404.06,154.89 404.06,155.65 404.21,155.84 404.47,155.93 
	404.77,156.04 405.14,156.17 405.66,156.41 406.05,156.54 406.54,156.62 406.99,156.78 407.39,156.94 407.89,157.06 408.36,157.16 
	408.81,157.21 409.09,157.21 409.25,157.04 409.25,156.75 409.25,155.45 409.25,153.48 409.25,152.22 409.25,150.92 409.25,149.44 
	409.25,147.36 409.25,145.31 409.25,143.49 409.25,141.37 409.25,140.04 409.35,139.71 409.51,139.47 409.73,139.3 409.91,139.22 
	410.07,139.22 410.28,139.2 410.42,139.22 410.57,139.26 410.74,139.39 410.83,139.54 410.94,139.77 411.05,140.04 411.05,140.28 
	411.05,141.61 411.05,143.47 411.05,145.1 411.05,146.78 411.05,147.33 411.25,147.55 411.53,147.71 411.78,147.81 412.05,147.89 
	412.34,147.99 412.61,148.05 413.07,148.19 413.41,148.26 413.69,148.26 413.87,148.26 414.19,148.26 414.42,148.27 414.78,148.25 
	415.05,148.15 415.29,147.93 415.59,147.7 415.83,147.45 416.04,147.27 416.25,147.08 416.44,146.75 416.59,146.44 416.78,146.1 
	416.87,145.74 416.97,145.32 417.07,145 417.07,144.61 417.07,144.35 417.07,143.99 417.07,143.51 417.07,143.1 417.07,142.74 
	417.07,142.38 416.99,142 416.87,141.76 416.74,141.5 416.6,141.17 416.4,140.87 416.2,140.53 416.03,140.3 415.86,140.04 
	415.56,139.63 415.25,139.27 414.89,138.97 414.29,138.56 413.74,138.32 413.24,137.94 412.68,137.77 411.44,137.27 410.66,137.04 
	409.74,136.77 408.56,136.4 407.58,136.03 406.74,135.73 406.04,135.55 405.62,135.53 405.26,135.49 404.82,135.47 404.62,135.46 
	"/>
<path class="st50" d="M404.06,154.2"/>
<path class="st50" d="M403.72,147.33"/>
<polygon class="st62" points="404.06,154.2 403.72,154.31 403.4,154.54 403.24,154.62 402.84,154.67 402.45,154.67 402.07,154.67 
	401.52,154.67 400.94,154.67 400.06,154.67 399.15,154.67 398.44,154.61 397.79,154.59 397.43,154.49 396.96,154.44 396.47,154.44 
	396.02,154.31 395.58,154.2 395.17,154.06 394.79,153.95 394.39,153.79 394.04,153.63 393.69,153.44 393.36,153.26 393.08,153.01 
	392.9,152.85 392.8,152.68 392.8,152.45 392.71,152.22 392.71,151.92 392.87,151.72 393.09,151.52 393.43,151.25 393.78,151.07 
	394.34,150.78 394.9,150.53 395.6,150.29 396.47,149.98 397.1,149.79 397.88,149.52 398.6,149.26 399.44,148.99 400.43,148.68 
	401.35,148.38 402.04,148.21 402.82,147.94 403.34,147.81 403.72,147.71 404.06,147.66 404.06,148.13 404.06,148.82 404.06,149.53 
	404.06,150.06 404.06,150.26 403.86,150.37 403.72,150.45 403.46,150.52 403.2,150.64 402.86,150.8 402.43,150.95 401.88,151.08 
	401.43,151.25 400.72,151.46 400.3,151.57 399.86,151.67 399.52,151.83 399.15,151.92 398.75,152.06 398.44,152.14 398.16,152.27 
	397.98,152.4 397.85,152.57 397.87,152.73 397.94,152.91 398.16,153.06 398.39,153.21 398.72,153.23 399.14,153.23 399.5,153.16 
	399.91,153.07 400.61,152.84 401.13,152.75 401.74,152.53 402.32,152.36 402.86,152.13 403.35,151.92 403.61,151.89 404.06,151.78 
	404.06,152.13 404.06,152.66 404.06,153.39 "/>
<polygon class="st62" points="410.36,149.79 411.33,149.4 412.27,149.24 413.14,149.02 413.85,148.87 414.52,148.87 415.28,148.75 
	415.79,148.75 416.47,148.75 417.07,148.75 417.7,148.85 418.16,148.88 418.81,148.93 419.49,148.99 420.28,149.14 420.77,149.24 
	421.29,149.5 421.74,149.73 422.16,149.99 422.7,150.16 423.12,150.41 423.4,150.75 423.61,150.97 423.71,151.35 423.71,151.62 
	423.58,151.93 423.37,152.26 423.12,152.5 422.81,152.78 422.49,152.99 422.04,153.23 421.69,153.43 421.14,153.68 420.65,153.85 
	420.1,154.03 419.59,154.16 419.13,154.29 418.58,154.39 417.96,154.53 417.3,154.78 416.57,155.06 415.83,155.3 415.07,155.54 
	414.38,155.78 413.47,156.04 412.55,156.35 411.75,156.62 410.88,156.82 410.32,156.82 409.8,156.9 409.25,156.9 409.25,155.72 
	409.25,154.95 409.6,154.75 410.12,154.58 410.75,154.37 411.61,154.13 412.61,153.82 413.24,153.61 414.06,153.26 415.05,152.83 
	415.95,152.36 416.77,152.17 417.3,151.98 417.92,151.81 418.26,151.67 418.64,151.5 418.88,151.35 418.89,151.17 418.82,150.97 
	418.57,150.84 418.33,150.79 417.79,150.7 417.37,150.69 417.07,150.73 416.48,150.87 416.01,150.96 415.36,151.17 414.79,151.22 
	414.18,151.43 413.64,151.69 413.14,151.84 412.55,152.01 412.12,152.21 411.43,152.5 410.88,152.74 410.45,152.83 410.11,152.91 
	409.25,153.09 409.25,152.36 409.25,151.49 409.25,150.72 409.25,150.35 409.25,150.06 409.55,149.96 409.95,149.87 "/>
<ellipse class="st63" cx="371.85" cy="105.71" rx="20.86" ry="31.89"/>
<ellipse class="st63" cx="438.25" cy="104.2" rx="20.86" ry="31.89"/>
<polygon class="st64" points="327.84,102.85 348.29,102.85 348.29,109.42 320.59,109.42 "/>
<rect x="394.48" y="102.85" class="st64" width="21.05" height="6.57"/>
<polygon class="st64" points="460.9,102.85 488.32,102.85 494.81,109.42 460.9,109.42 "/>
<polygon class="st65" points="361.56,67.78 364.37,65.3 368.18,62.3 370.49,61.43 374.7,60.66 379.93,60.66 383.05,60.66 
	387.33,60.66 389.52,60.66 390.19,60.66 391.34,61.43 391.34,63.17 391.34,65.13 391.34,66.95 390.19,67.78 389.94,68.61 
	384.2,69.43 382.08,69.43 379.43,69.43 376.45,69.43 371.82,69.43 368.34,69.43 365.03,69.43 363.87,69.43 362.72,69.43 "/>
<polygon class="st65" points="424.21,66.21 427.02,63.73 430.83,60.73 433.14,59.86 437.36,59.1 442.58,59.1 445.7,59.1 
	449.98,59.1 452.17,59.1 452.84,59.1 453.99,59.86 453.99,61.6 453.99,63.56 453.99,65.38 452.84,66.21 452.59,67.04 446.85,67.87 
	444.73,67.87 442.08,67.87 439.1,67.87 434.47,67.87 430.99,67.87 427.68,67.87 426.52,67.87 425.37,67.87 "/>
<polygon class="st14" points="387.6,73.32 389.76,71.92 391.67,71.29 393.19,70.65 394.84,70.65 395.98,70.65 397.38,70.65 
	399.28,71.16 400.68,71.42 403.03,71.42 404.62,71.29 407.16,71.16 409.32,69.89 411.22,69.26 413.76,68.62 415.54,68.62 
	416.93,68.62 418.71,69.38 420.49,70.27 421.63,70.97 422.27,71.8 418.71,70.97 416.81,70.4 415.28,70.27 412.49,70.97 
	410.97,71.92 409.06,72.47 406.65,73.32 403.86,73.32 400.68,73.32 398.78,72.47 396.36,72.47 395.09,72.47 393.44,72.47 
	391.79,73.32 390.27,73.32 "/>
<polygon class="st14" points="387.6,79.55 389.76,78.15 391.67,77.52 393.19,76.88 394.84,76.88 395.98,76.88 397.38,76.88 
	399.28,77.39 400.68,77.65 403.03,77.65 404.62,77.52 407.16,77.39 409.32,76.12 411.22,75.49 413.76,74.85 415.54,74.85 
	416.93,74.85 418.71,75.61 420.49,76.5 421.63,77.2 422.27,78.03 418.71,77.2 416.81,76.63 415.28,76.5 412.49,77.2 410.97,78.15 
	409.06,78.7 406.65,79.55 403.86,79.55 400.68,79.55 398.78,78.7 396.36,78.7 395.09,78.7 393.44,78.7 391.79,79.55 390.27,79.55 
	"/>
<polygon class="st66" points="371.7,154.36 368.48,155.96 365.02,158.47 362.16,161.63 358.71,165.11 355.85,169.24 353,173.36 
	349.91,178.4 346.7,182.92 344.68,185.81 342.31,191.03 339.93,195.28 338.52,200.75 337.34,205.31 340.78,198.9 344.05,194.18 
	347.8,187.58 350.17,183.33 352.25,179.25 355.99,174.14 358.85,169.52 362.06,165.98 364.67,161.79 "/>
<polygon class="st66" points="478.21,201.33 477.47,198.1 475.94,194.33 473.66,190.82 471.21,186.7 468.02,182.84 464.83,178.98 
	460.83,174.59 457.36,170.29 455.13,167.57 450.79,163.7 447.37,160.18 442.57,157.01 438.57,154.36 443.77,159.55 447.42,163.97 
	452.72,169.47 456.14,172.99 459.48,176.19 463.39,181.15 467.04,185.19 469.6,189.14 472.91,192.83 "/>
<polygon class="st67" points="370.52,158.39 369.24,159.07 368.73,159.92 368.73,160.77 368.73,162.12 368.06,164.33 367.63,166.45 
	367.12,169.33 367.12,173.32 366.28,177.47 366.28,180.1 366.28,186.97 366.7,193.41 367.38,196.89 368.4,200.36 369.41,203.92 
	372.47,209.69 374.16,211.98 375.18,213.76 376.53,214.44 375.94,210.03 375.94,208.25 376.53,207.06 378.15,211.72 380.86,217.49 
	383.49,220.96 385.78,223.59 388.15,225.97 389.93,227.24 390.69,227.24 390.69,225.29 390.1,222.57 390.02,221.22 392.14,225.29 
	393.92,227.66 395.61,229.36 397.65,231.22 400.1,232.75 402.39,234.19 404.09,235.04 405.71,235.63 406.21,235.63 407.4,235.04 
	410.53,233.26 413.42,231.65 415.37,230.12 417.4,228 419.27,225.8 420.79,223.17 421.64,221.3 421.64,223.25 421.13,225.63 
	420.71,227.07 421.13,227.49 422.23,227.07 423.17,225.88 426.05,223.42 428.34,220.88 429.86,218.76 431.64,215.79 432.92,212.91 
	434.1,209.6 434.87,207.14 434.87,208.76 435.46,210.71 435.46,212.66 434.78,214.69 435.46,214.52 436.56,213.67 438.17,211.38 
	439.87,208.33 441.73,205.45 442.58,202.65 443.87,198.25 444.76,192.78 444.76,189.3 445.03,183.08 444.62,175.56 444.14,172.01 
	442.84,164.9 442.09,161.76 441.54,159.92 440.11,158.39 439.15,158.39 "/>
<ellipse class="st68" cx="371.57" cy="104.2" rx="16.76" ry="24.65"/>
<polygon class="st69" points="355.24,98.67 357.88,89.98 361.65,84.34 364.44,81.88 368.31,80.01 371.57,79.54 374.21,79.85 
	377.05,80.89 378.27,81.6 380.07,82.95 381.92,84.82 383.09,86.3 385.04,89.53 386.21,92.18 386.95,94.4 387.45,96.3 387.45,97.36 
	387.45,98.07 387.91,98.67 "/>
<ellipse class="st68" cx="438.25" cy="104.2" rx="16.76" ry="24.65"/>
<polygon class="st69" points="421.92,98.67 424.56,89.98 428.32,84.34 431.12,81.88 434.99,80.01 438.25,79.54 440.89,79.85 
	443.73,80.89 444.95,81.6 446.75,82.95 448.6,84.82 449.77,86.3 451.72,89.53 452.89,92.18 453.63,94.4 454.13,96.3 454.13,97.36 
	454.13,98.07 454.59,98.67 "/>
<circle class="st70" cx="381.44" cy="114.22" r="5.53"/>
<circle class="st59" cx="384.16" cy="116.38" r="1.57"/>
<circle class="st70" cx="448.12" cy="114.22" r="5.53"/>
<circle class="st59" cx="450.84" cy="116.38" r="1.57"/>
<ellipse class="st71" cx="350.81" cy="135.21" rx="3.71" ry="6.69"/>
<ellipse class="st71" cx="345.48" cy="154.2" rx="3.71" ry="6.69"/>
<ellipse class="st71" cx="458.39" cy="135.21" rx="3.71" ry="6.69"/>
<ellipse class="st71" cx="464.61" cy="151.17" rx="3.71" ry="6.69"/>
<ellipse class="st71" cx="340.01" cy="173.19" rx="3.71" ry="6.69"/>
<ellipse class="st71" cx="334.68" cy="192.18" rx="3.71" ry="6.69"/>
<ellipse class="st71" cx="472.02" cy="167.59" rx="3.71" ry="6.69"/>
<ellipse class="st71" cx="478.24" cy="183.54" rx="3.71" ry="6.69"/>
</svg>
