<?xml version="1.0" encoding="utf-8"?>
<!-- Generator: Adobe Illustrator 25.1.0, SVG Export Plug-In . SVG Version: 6.00 Build 0)  -->
<svg version="1.1" id="Layer_1" xmlns="http://www.w3.org/2000/svg" xmlns:xlink="http://www.w3.org/1999/xlink" x="0px" y="0px"
	 viewBox="0 0 1281 478" style="enable-background:new 0 0 1281 478;" xml:space="preserve">
<style type="text/css">
	.st0{fill:#A47449;stroke:#654321;stroke-width:7;stroke-miterlimit:10;}
	.st1{fill:#654321;stroke:#654321;stroke-width:5;stroke-miterlimit:10;}
	.st2{fill:#D48BFF;stroke:#D48BFF;stroke-width:5;stroke-miterlimit:10;}
	.st3{font-family:'MyriadPro-Regular';}
	.st4{font-size:24.5134px;}
	.st5{fill:#26272A;stroke:#000000;stroke-miterlimit:10;}
	.st6{fill:#3E3F44;stroke:#000000;stroke-miterlimit:10;}
	.st7{fill:#52545A;stroke:#000000;stroke-miterlimit:10;}
	.st8{fill:none;stroke:#000000;stroke-miterlimit:10;}
	.st9{fill:#282A2E;stroke:#000000;stroke-miterlimit:10;}
	.st10{fill:#2B2C31;stroke:#000817;stroke-miterlimit:10;}
	.st11{fill:none;stroke:#000000;stroke-width:0.25;stroke-miterlimit:10;}
	.st12{fill:none;stroke:#000817;stroke-miterlimit:10;}
	.st13{fill:#00B98F;stroke:#000817;stroke-miterlimit:10;}
	.st14{fill:#56585D;stroke:#000817;stroke-miterlimit:10;}
	.st15{fill:#FFFFFF;stroke:#000000;stroke-miterlimit:10;}
	.st16{fill:#FFFFFF;stroke:#000817;stroke-miterlimit:10;}
	.st17{fill:#948F8F;stroke:#000817;stroke-miterlimit:10;}
	.st18{fill:#1F2023;stroke:#000817;stroke-miterlimit:10;}
	.st19{opacity:0.73;fill:#ADB2AE;stroke:#4D4545;stroke-width:7;stroke-miterlimit:10;}
	.st20{fill:#4D4545;stroke:#4D4545;stroke-width:3;stroke-miterlimit:10;}
	.st21{fill:#B2B1AA;stroke:#000000;stroke-miterlimit:10;}
	.st22{stroke:#000000;stroke-miterlimit:10;}
	.st23{stroke:#000000;stroke-width:0.75;stroke-miterlimit:10;}
	.st24{fill:#B2B1AA;stroke:#000000;stroke-width:0.75;stroke-miterlimit:10;}
	.st25{fill:#FFFFFF;stroke:#ECBCB4;stroke-miterlimit:10;}
	.st26{fill:#ECBCB4;stroke:#ECBCB4;stroke-miterlimit:10;}
	.st27{stroke:#A27100;stroke-miterlimit:10;}
	.st28{fill:#8BE1FF;stroke:#A27100;stroke-width:0.25;stroke-miterlimit:10;}
</style>
<rect x="3.6" y="-0.29" class="st0" width="1271.21" height="474.41"/>
<rect x="4.2" y="37.56" class="st1" width="1270.52" height="45.03"/>
<rect x="4.48" y="398.93" class="st1" width="1270.52" height="45.03"/>
<path class="st2" d="M436.27,264.16H217.02c-21.82,0-39.5-17.68-39.5-39.5v-82.38c0-21.82,17.68-39.5,39.5-39.5h219.25
	c21.82,0,39.5,17.68,39.5,39.5v82.38C475.77,246.47,458.09,264.16,436.27,264.16z"/>
<polygon class="st2" points="405.9,257.68 500.78,284.78 476.81,189.07 "/>
<text transform="matrix(1 0 0 1 185.8872 192.6699)" class="st3 st4">See you on the other side...</text>
<polyline class="st5" points="533.48,426.39 532.23,426.39 530.39,426.09 528.68,425.62 527.57,425.05 526.4,424.31 525.43,423.44 
	524.86,422.57 524.25,421.7 524.25,418.41 524.25,408.73 524.25,359.87 524.25,296.66 524.25,244.51 524.25,182.54 524.25,104.62 
	524.25,103.43 524.25,102.26 524.25,101.69 524.68,100.84 525.33,100.04 526.07,99.07 526.84,98.48 527.84,97.88 528.6,97.62 
	529.49,97.28 530.65,97 531.51,96.8 532.36,96.8 532.96,96.68 533.48,96.68 533.93,96.68 534.17,96.68 533.45,96.98 532.51,97.7 
	532.04,98.56 531.71,99.75 531.71,100.73 531.71,102.83 531.71,124.7 531.71,152.31 531.71,196.23 531.71,217.1 531.71,272.6 
	531.71,328.27 531.71,376.12 531.71,424.43 532.37,425.41 533.48,426.39 "/>
<polyline class="st6" points="537.49,426.82 536.43,427.25 535.06,427.03 533.48,426.39 532.37,425.41 531.71,424.43 531.71,421.74 
	531.71,339.6 531.71,255.78 531.71,173.54 531.71,105.01 531.71,102.27 531.71,100.73 531.71,99.75 532.04,98.56 532.51,97.7 
	533.45,96.98 534.6,96.51 535.67,96.21 536.69,96.21 538.05,96.36 537.46,96.98 536.87,97.8 536.35,98.45 536.22,99.01 
	536.05,99.69 536.05,100.69 536.05,101.5 536.05,103.08 536.05,123.06 536.05,139.97 536.05,186.6 536.05,255.39 536.05,346.64 
	536.05,352.46 536.05,353.75 536.22,354.38 536.45,354.7 536.74,355.16 537.09,355.54 537.29,356.18 537.3,359.08 537.3,407.55 
	537.3,409.4 537.19,410.08 536.69,410.54 536.35,411.07 536.05,412.13 536.05,412.92 536.05,414.49 536.05,422.25 536.05,424.05 
	536.2,424.73 536.5,425.3 536.77,425.79 537.07,426.32 537.49,426.82 "/>
<polyline class="st7" points="549.97,429.68 548.82,429.91 547.98,429.8 547.03,429.68 546.11,429.4 545.19,429.02 544.46,428.64 
	543.67,427.88 543.19,427.3 542.94,426.51 542.78,425.49 542.78,417.08 542.78,388.41 542.78,364.6 542.78,297.61 542.78,196.64 
	542.78,113.96 542.78,99.1 542.78,98.03 543.02,97.28 543.21,96.47 543.63,95.73 544.22,94.88 544.66,94.46 545.12,94.19 
	545.62,94.07 546.2,93.8 546.7,93.74 547.18,93.74 547.86,93.66 548.54,93.66 548.82,93.66 549.15,93.66 549.75,93.73 549.05,94.27 
	548.53,94.84 548.12,95.42 547.75,96.18 547.59,96.88 547.5,97.79 547.48,98.8 547.48,99.75 547.48,117.4 547.48,170.43 
	547.48,234.29 547.48,291.3 547.48,361.68 547.48,421.25 547.48,426.32 547.48,427.07 547.63,427.58 548.1,428.18 548.47,428.54 
	549.97,429.68 "/>
<path class="st8" d="M547.86,95.86"/>
<path class="st8" d="M548.23,95.22"/>
<path class="st8" d="M547.05,92.74"/>
<polygon class="st9" points="544.75,428.76 544.08,428.76 542.94,428.56 541.65,428.18 540.64,427.94 539.55,427.56 538.81,427.31 
	538.02,427.08 537.49,426.82 537.07,426.32 536.77,425.79 536.5,425.3 536.2,424.73 536.05,424.05 536.05,412.92 536.05,412.13 
	536.35,411.07 536.69,410.54 537.19,410.08 537.3,409.4 537.3,407.55 537.29,404.3 537.31,403.03 537.27,397.3 537.31,390.8 
	537.31,381.89 537.31,374.03 537.31,363.72 537.29,356.18 537.09,355.54 536.74,355.16 536.45,354.7 536.22,354.38 536.05,353.75 
	536.05,352.46 536.05,348.31 536.05,343.4 536.05,310 536.05,244.01 536.05,186.6 536.05,149.19 536.05,111.07 536.05,101.5 
	536.05,99.69 536.22,99.01 536.35,98.45 536.87,97.8 537.46,96.98 538.05,96.36 538.77,95.79 539.65,95.31 540.47,95.14 
	541.61,94.79 542.78,94.6 543.71,94.52 544.2,94.52 544.51,94.6 544.06,95.11 543.81,95.47 543.47,96.02 543.31,96.31 543.14,96.75 
	543.06,97.11 542.95,97.49 542.85,97.8 542.78,98.31 542.78,98.67 542.78,99.49 542.78,120.31 542.78,155.43 542.78,203.4 
	542.78,273.92 542.78,355.31 542.78,399.33 542.78,424.25 542.83,425.84 543.02,426.76 543.39,427.54 543.86,428.06 "/>
<polyline class="st10" points="556.75,430.95 556.09,431.29 554.4,431.29 552.71,430.95 551.31,430.33 549.97,429.68 548.68,428.74 
	547.82,427.91 547.48,427.32 547.48,424.93 547.48,422.7 547.48,355.85 547.48,245.61 547.48,98.01 547.62,96.53 547.86,95.86 
	548.23,95.22 548.84,94.44 549.75,93.73 550.79,93.26 552.11,92.86 553.32,92.45 554.67,92.12 555.85,91.81 556.75,91.64 
	557.31,91.71 555.17,94.19 554.94,114.59 554.94,200.17 554.94,256.15 554.94,386.85 555.23,429.46 556.75,430.95 "/>
<polyline class="st11" points="551.68,110.91 551.68,109.9 551.68,109.14 551.68,108.56 551.68,108.19 551.61,107.9 551.45,107.69 
	551.3,107.58 551.13,107.58 551.06,107.76 551.06,108 551.06,108.37 551.06,108.83 551.06,109.24 551.06,109.75 551.06,110.25 
	551.06,110.61 551.06,110.84 550.99,111.04 550.8,111.14 550.62,111.04 550.5,110.8 550.5,110.54 550.5,109.92 550.5,109.18 
	550.5,108.63 550.5,108.16 550.5,107.58 "/>
<polygon class="st11" points="551.82,117.21 551.82,116.3 551.82,115.6 551.82,115.07 551.82,114.85 551.75,114.5 551.68,114.32 
	551.51,114.15 551.32,113.96 551.09,113.96 550.85,113.96 550.5,113.96 550.37,114.25 550.26,114.57 550.2,114.97 550.2,115.24 
	550.2,115.92 550.2,116.87 550.2,117.13 550.2,117.54 550.33,118.14 550.5,118.47 550.94,118.54 551.37,118.36 551.68,118.17 
	551.82,117.87 "/>
<polyline class="st11" points="550.42,121.05 551.01,121.05 551.44,121.05 551.82,121.05 551.94,121.4 551.94,121.78 551.63,122.23 
	550.42,124.07 550.31,124.38 550.31,124.74 550.42,125.07 550.85,125.07 551.21,125.07 551.56,125.07 551.94,125.07 "/>
<polyline class="st11" points="551.94,128.47 551.6,128.8 551.37,129.08 551.13,129.33 550.92,129.66 550.92,129.97 550.92,130.26 
	551.13,130.62 551.43,130.89 551.73,131.12 551.94,131.24 "/>
<polyline class="st11" points="549.98,129.99 550.31,129.99 550.64,129.99 550.92,129.97 "/>
<polyline class="st12" points="552.39,388.26 552.39,390.02 552.39,392.56 552.39,395.88 552.27,396.37 551.97,396.62 
	551.62,396.62 551.36,396.62 551.23,396.36 551.23,395.51 551.23,394.63 551.23,389.23 551.16,388.81 550.98,388.52 550.79,388.26 
	550.56,388.13 550.3,388 549.99,387.9 549.71,387.9 "/>
<polyline class="st12" points="552.3,408.48 552.3,406.66 552.3,405.4 552.3,404.03 552.21,403.57 551.97,403.33 551.68,403.21 
	551.3,403.21 550.81,403.21 550.29,403.21 550,403.06 549.86,402.71 549.86,402.11 549.86,401.22 549.86,400.68 549.86,399.33 "/>
<polyline class="st12" points="548.82,417.31 551.97,417.31 552.2,417.31 552.2,416.53 550.51,410.43 550.4,410.03 550.26,409.68 
	550.09,409.47 549.77,409.47 549.74,409.89 549.75,410.21 549.74,410.75 549.86,419.1 "/>
<circle class="st13" cx="705.27" cy="210.62" r="21.3"/>
<circle class="st14" cx="710.99" cy="213.92" r="24.6"/>
<circle class="st14" cx="718.55" cy="221.17" r="26.92"/>
<circle class="st14" cx="700.41" cy="219.47" r="26.92"/>
<circle class="st15" cx="715.11" cy="218.04" r="28.72"/>
<path class="st14" d="M554.94,427.44V311.19c0-10.53,0-43.98,0-59.55c0-2.1,0-4.84,0-7.46c0-0.79,0-1.56,0-2.31c0-2.4,0-4.46,0-5.48
	c0-0.84,0-1.68,0-2.51c0-28.51,0-57.01,0-85.52V97.31v-0.97v-0.84v-0.68l0.23-0.63l0.3-0.49l0.28-0.46l0.3-0.44l0.49-0.42l0.39-0.37
	l0.37-0.3l0.42-0.31l0.41-0.31h1.13h18.57h9.66h14.97h14.83h12.03h14.21h10.78h11.12h8.48h12.48h11.74h14.3h9.94h9.9h11.4h12h15.19
	h46.36h50.19h42.66h8.03h2.39h1.72h0.91l0.77,0.11l0.6,0.26l0.7,0.49l0.35,0.37l0.51,0.42l0.16,0.21l0.63,0.6l0.37,0.49l0.53,0.6
	l0.3,0.44v0.98v12.91v27.9v25.09v34.58v60.93v44.95v39.23v37.68v35.07v13.06v0.59l-0.14,0.6l-0.31,0.53l-0.31,0.41l-0.35,0.38
	l-0.35,0.57l-0.44,0.41l-0.38,0.31l-0.6,0.28l-0.63,0.35l-0.94,0.28h-37.53h-38.92h-45.07h-37.57h-40.26h-48.14H571.43h-12.1
	l-1.07-0.4l-0.44-0.11l-0.63-0.39l-0.8-0.55l-0.66-0.63l-0.5-0.61l-0.29-0.39v-0.83V427.44z"/>
<circle class="st16" cx="705.73" cy="199.03" r="1.94"/>
<polygon class="st17" points="555.64,233.33 580.93,219.04 601,204.76 614.47,192.55 625.74,182.75 639.21,169.56 654.6,153.61 
	663.68,138.22 675.5,121.05 680.99,109.36 685.67,96.21 686.39,91.08 558.14,91.08 555.17,94.19 "/>
<path class="st17" d="M819.5,91.08c0,0-2.96-3.49,3.77,22.87c6.73,26.37,2.69,11.11,2.69,11.11s1.48,2.85,6.8,13.1
	c5.32,10.24-2.11-4.84,7.2,13.86c9.3,18.69,11.3,20.99,11.3,20.99l7.54,8.61l7,7.54l8.61,7.92l7,7.68l7,9.7l5.92,6.46l7.54,6.46
	l7,2.69l7.54,3.8l11.65,3.74V96.04l-4.16-4.85L819.5,91.08z"/>
<polygon class="st18" points="735.59,244.17 735.59,255.04 735.59,266.11 735.59,275.25 735.59,276.45 735.83,276.75 736.24,276.89 
	736.72,277.07 737.31,277.28 738.14,277.67 738.75,277.87 739.54,277.99 740.24,278.24 740.88,278.51 741.68,278.69 742.43,278.85 
	743.14,278.93 743.59,278.93 743.83,278.65 743.83,278.2 743.83,276.14 743.83,273.01 743.83,271 743.83,268.94 743.83,266.58 
	743.83,263.28 743.83,260.03 743.83,257.12 743.83,253.75 743.83,251.64 744,251.12 744.25,250.74 744.6,250.47 744.88,250.35 
	745.15,250.35 745.48,250.32 745.7,250.35 745.94,250.41 746.21,250.62 746.35,250.85 746.52,251.22 746.7,251.64 746.7,252.02 
	746.7,254.14 746.7,257.09 746.7,259.68 746.7,262.35 746.7,263.24 747.01,263.58 747.45,263.84 747.86,263.99 748.29,264.12 
	748.75,264.28 749.18,264.37 749.91,264.6 750.46,264.7 750.9,264.7 751.18,264.7 751.68,264.7 752.05,264.72 752.62,264.69 
	753.05,264.53 753.44,264.19 753.92,263.82 754.29,263.43 754.63,263.14 754.96,262.84 755.26,262.31 755.5,261.81 755.8,261.28 
	755.95,260.7 756.1,260.03 756.27,259.53 756.27,258.91 756.27,258.49 756.27,257.93 756.27,257.16 756.27,256.51 756.27,255.94 
	756.27,255.36 756.13,254.76 755.95,254.38 755.73,253.96 755.51,253.44 755.2,252.96 754.88,252.43 754.61,252.06 754.35,251.64 
	753.86,250.99 753.36,250.42 752.8,249.94 751.85,249.29 750.98,248.91 750.18,248.31 749.3,248.04 747.31,247.24 746.08,246.87 
	744.61,246.46 742.74,245.86 741.18,245.27 739.84,244.79 738.74,244.51 738.07,244.47 737.49,244.42 736.79,244.39 736.47,244.37 
	"/>
<path class="st12" d="M735.59,274.14"/>
<path class="st12" d="M735.04,263.23"/>
<polygon class="st18" points="735.59,274.14 735.04,274.33 734.54,274.68 734.29,274.82 733.65,274.9 733.03,274.9 732.42,274.9 
	731.55,274.9 730.64,274.9 729.24,274.9 727.79,274.9 726.66,274.8 725.63,274.76 725.05,274.6 724.31,274.52 723.54,274.52 
	722.82,274.31 722.12,274.14 721.46,273.93 720.86,273.75 720.22,273.5 719.68,273.25 719.11,272.94 718.59,272.64 718.14,272.26 
	717.85,272 717.7,271.73 717.7,271.36 717.56,271 717.56,270.53 717.81,270.2 718.16,269.89 718.7,269.46 719.25,269.17 
	720.14,268.71 721.03,268.32 722.14,267.93 723.54,267.44 724.53,267.13 725.77,266.71 726.91,266.3 728.25,265.87 729.82,265.37 
	731.28,264.9 732.39,264.63 733.63,264.2 734.44,263.99 735.04,263.83 735.59,263.76 735.59,264.49 735.59,265.6 735.59,266.73 
	735.59,267.56 735.59,267.89 735.28,268.07 735.04,268.18 734.64,268.3 734.23,268.49 733.69,268.74 733.01,268.98 732.13,269.19 
	731.42,269.46 730.29,269.79 729.61,269.97 728.91,270.12 728.37,270.37 727.79,270.53 727.15,270.74 726.66,270.88 726.22,271.07 
	725.92,271.29 725.73,271.56 725.75,271.81 725.87,272.1 726.22,272.33 726.57,272.57 727.11,272.61 727.77,272.61 728.35,272.49 
	728.99,272.35 730.12,271.99 730.93,271.85 731.9,271.5 732.83,271.23 733.69,270.86 734.46,270.53 734.87,270.47 735.59,270.3 
	735.59,270.86 735.59,271.69 735.59,272.86 "/>
<polygon class="st18" points="745.6,267.14 747.14,266.53 748.64,266.26 750.02,265.91 751.14,265.68 752.22,265.68 753.41,265.49 
	754.22,265.49 755.32,265.49 756.27,265.49 757.26,265.64 758,265.69 759.02,265.78 760.12,265.87 761.37,266.11 762.15,266.27 
	762.97,266.68 763.69,267.05 764.36,267.45 765.21,267.72 765.88,268.12 766.32,268.66 766.66,269.01 766.81,269.62 766.81,270.04 
	766.61,270.53 766.28,271.07 765.88,271.45 765.39,271.9 764.87,272.23 764.16,272.61 763.6,272.92 762.73,273.32 761.95,273.59 
	761.08,273.88 760.27,274.08 759.54,274.28 758.66,274.44 757.68,274.66 756.63,275.07 755.47,275.51 754.29,275.89 753.08,276.27 
	751.99,276.65 750.54,277.08 749.09,277.57 747.81,277.99 746.43,278.3 745.54,278.3 744.71,278.44 743.83,278.44 743.83,276.56 
	743.83,275.33 744.4,275.02 745.22,274.75 746.23,274.42 747.59,274.04 749.18,273.55 750.18,273.21 751.48,272.65 753.06,271.96 
	754.49,271.23 755.78,270.91 756.63,270.62 757.62,270.35 758.15,270.13 758.75,269.86 759.13,269.62 759.16,269.33 759.04,269.01 
	758.64,268.81 758.26,268.72 757.41,268.59 756.74,268.57 756.27,268.64 755.32,268.86 754.58,268.99 753.55,269.33 752.64,269.42 
	751.68,269.75 750.81,270.15 750.02,270.4 749.09,270.67 748.39,270.98 747.3,271.45 746.43,271.83 745.74,271.96 745.2,272.1 
	743.83,272.39 743.83,271.23 743.83,269.84 743.83,268.61 743.83,268.03 743.83,267.56 744.31,267.41 744.96,267.27 "/>
<ellipse class="st19" cx="684.41" cy="197.09" rx="33.14" ry="50.67"/>
<ellipse class="st19" cx="789.92" cy="194.69" rx="33.14" ry="50.67"/>
<polygon class="st20" points="614.47,192.55 646.98,192.55 646.98,202.99 602.96,202.99 "/>
<rect x="720.37" y="192.55" class="st20" width="33.45" height="10.44"/>
<polygon class="st20" points="825.91,192.55 869.48,192.55 879.79,202.99 825.91,202.99 "/>
<polygon class="st21" points="668.05,136.82 672.52,132.88 678.57,128.11 682.25,126.73 688.94,125.51 697.24,125.51 702.2,125.51 
	709.01,125.51 712.48,125.51 713.54,125.51 715.38,126.73 715.38,129.5 715.38,132.61 715.38,135.51 713.54,136.82 713.15,138.14 
	704.03,139.45 700.66,139.45 696.45,139.45 691.72,139.45 684.35,139.45 678.83,139.45 673.57,139.45 671.73,139.45 669.89,139.45 
	"/>
<polygon class="st21" points="767.61,134.33 772.08,130.39 778.12,125.62 781.81,124.24 788.5,123.02 796.79,123.02 801.75,123.02 
	808.56,123.02 812.03,123.02 813.1,123.02 814.94,124.24 814.94,127.01 814.94,130.12 814.94,133.01 813.1,134.33 812.71,135.64 
	803.59,136.96 800.21,136.96 796,136.96 791.27,136.96 783.91,136.96 778.39,136.96 773.13,136.96 771.29,136.96 769.45,136.96 "/>
<polygon class="st22" points="709.44,145.63 712.87,143.41 715.89,142.4 718.32,141.39 720.94,141.39 722.75,141.39 724.97,141.39 
	728,142.2 730.22,142.6 733.96,142.6 736.48,142.4 740.51,142.2 743.94,140.18 746.97,139.17 751,138.16 753.83,138.16 
	756.05,138.16 758.87,139.37 761.7,140.78 763.51,141.89 764.52,143.2 758.87,141.89 755.85,140.99 753.42,140.78 748.99,141.89 
	746.56,143.41 743.54,144.27 739.7,145.63 735.26,145.63 730.22,145.63 727.19,144.27 723.36,144.27 721.34,144.27 718.72,144.27 
	716.1,145.63 713.67,145.63 "/>
<polygon class="st22" points="709.44,155.53 712.87,153.31 715.89,152.3 718.32,151.29 720.94,151.29 722.75,151.29 724.97,151.29 
	728,152.1 730.22,152.5 733.96,152.5 736.48,152.3 740.51,152.1 743.94,150.08 746.97,149.07 751,148.06 753.83,148.06 
	756.05,148.06 758.87,149.27 761.7,150.68 763.51,151.79 764.52,153.1 758.87,151.79 755.85,150.88 753.42,150.68 748.99,151.79 
	746.56,153.31 743.54,154.17 739.7,155.53 735.26,155.53 730.22,155.53 727.19,154.17 723.36,154.17 721.34,154.17 718.72,154.17 
	716.1,155.53 713.67,155.53 "/>
<polygon class="st23" points="684.17,274.4 679.05,276.95 673.55,280.94 669.01,285.95 663.52,291.48 658.99,298.04 654.45,304.6 
	649.54,312.61 644.44,319.79 641.23,324.37 637.46,332.67 633.69,339.42 631.44,348.12 629.57,355.36 635.04,345.18 640.23,337.67 
	646.18,327.19 649.96,320.44 653.26,313.95 659.21,305.83 663.74,298.5 668.85,292.86 673.01,286.2 "/>
<polygon class="st23" points="853.41,349.04 852.25,343.9 849.81,337.92 846.19,332.34 842.3,325.8 837.22,319.66 832.15,313.52 
	825.81,306.54 820.28,299.71 816.74,295.39 809.85,289.24 804.41,283.65 796.79,278.61 790.43,274.4 798.68,282.64 804.5,289.67 
	812.91,298.41 818.35,304 823.66,309.1 829.87,316.98 835.67,323.39 839.74,329.66 845,335.53 "/>
<polygon class="st24" points="682.29,280.81 680.27,281.89 679.46,283.23 679.46,284.58 679.46,286.74 678.38,290.24 677.71,293.61 
	676.9,298.19 676.9,304.52 675.55,311.12 675.55,315.3 675.55,326.21 676.22,336.45 677.3,341.97 678.92,347.5 680.54,353.16 
	685.39,362.32 688.08,365.96 689.7,368.78 691.85,369.86 690.91,362.86 690.91,360.03 691.85,358.14 694.41,365.55 698.72,374.71 
	702.9,380.24 706.54,384.41 710.31,388.19 713.14,390.21 714.35,390.21 714.35,387.11 713.41,382.8 713.27,380.64 716.64,387.11 
	719.47,390.88 722.16,393.57 725.4,396.54 729.31,398.96 732.94,401.25 735.64,402.6 738.22,403.54 739.01,403.54 740.89,402.6 
	745.88,399.77 750.46,397.21 753.56,394.79 756.79,391.42 759.75,387.92 762.18,383.74 763.53,380.78 763.53,383.87 762.72,387.65 
	762.04,389.94 762.72,390.61 764.47,389.94 765.95,388.05 770.53,384.14 774.17,380.1 776.59,376.73 779.42,372.02 781.44,367.44 
	783.33,362.18 784.54,358.28 784.54,360.84 785.49,363.93 785.49,367.03 784.41,370.27 785.49,370 787.24,368.65 789.8,365.01 
	792.49,360.16 795.46,355.58 796.8,351.14 798.85,344.14 800.26,335.46 800.26,329.92 800.69,320.04 800.04,308.09 799.28,302.45 
	797.22,291.15 796.02,286.16 795.15,283.23 792.87,280.81 791.35,280.81 "/>
<ellipse class="st25" cx="683.97" cy="194.69" rx="26.63" ry="39.18"/>
<polygon class="st26" points="658.01,185.91 662.21,172.1 668.19,163.13 672.63,159.23 678.79,156.26 683.97,155.52 688.15,156 
	692.67,157.66 694.62,158.78 697.46,160.93 700.41,163.89 702.27,166.25 705.37,171.38 707.22,175.6 708.41,179.12 709.2,182.15 
	709.2,183.83 709.2,184.95 709.92,185.91 "/>
<ellipse class="st25" cx="789.92" cy="194.69" rx="26.63" ry="39.18"/>
<polygon class="st26" points="763.97,185.91 768.17,172.1 774.15,163.13 778.59,159.23 784.75,156.26 789.92,155.52 794.11,156 
	798.63,157.66 800.57,158.78 803.42,160.93 806.37,163.89 808.23,166.25 811.33,171.38 813.18,175.6 814.36,179.12 815.15,182.15 
	815.15,183.83 815.15,184.95 815.88,185.91 "/>
<circle class="st27" cx="699.64" cy="210.62" r="8.78"/>
<circle class="st15" cx="703.97" cy="214.05" r="2.49"/>
<circle class="st27" cx="805.6" cy="210.62" r="8.78"/>
<circle class="st15" cx="809.92" cy="214.05" r="2.49"/>
<ellipse class="st28" cx="650.98" cy="243.97" rx="5.89" ry="10.64"/>
<ellipse class="st28" cx="642.51" cy="274.14" rx="5.89" ry="10.64"/>
<ellipse class="st28" cx="821.92" cy="243.97" rx="5.89" ry="10.64"/>
<ellipse class="st28" cx="831.8" cy="269.33" rx="5.89" ry="10.64"/>
<ellipse class="st28" cx="633.81" cy="304.32" rx="5.89" ry="10.64"/>
<ellipse class="st28" cx="625.34" cy="334.49" rx="5.89" ry="10.64"/>
<ellipse class="st28" cx="843.59" cy="295.42" rx="5.89" ry="10.64"/>
<ellipse class="st28" cx="853.47" cy="320.77" rx="5.89" ry="10.64"/>
</svg>
