<?xml version="1.0" encoding="utf-8"?>
<!-- Generator: Adobe Illustrator 25.1.0, SVG Export Plug-In . SVG Version: 6.00 Build 0)  -->
<svg version="1.1" id="Layer_1" xmlns="http://www.w3.org/2000/svg" xmlns:xlink="http://www.w3.org/1999/xlink" x="0px" y="0px"
	 viewBox="0 0 1274 475" style="enable-background:new 0 0 1274 475;" xml:space="preserve">
<style type="text/css">
	.st0{fill:#A47449;stroke:#654321;stroke-width:7;stroke-miterlimit:10;}
	.st1{fill:#654321;stroke:#654321;stroke-width:5;stroke-miterlimit:10;}
	.st2{fill:#AFAEB2;stroke:#000000;stroke-miterlimit:10;}
	.st3{fill:#8E8D91;stroke:#000000;stroke-miterlimit:10;}
	.st4{fill:#86D6DA;stroke:#000000;stroke-width:0.5;stroke-miterlimit:10;}
	.st5{fill:#868589;stroke:#000000;stroke-width:0.5;stroke-miterlimit:10;}
	.st6{fill:#98D4D9;stroke:#000000;stroke-width:0.5;stroke-miterlimit:10;}
	.st7{fill:#ACAEB1;stroke:#000000;stroke-miterlimit:10;}
	.st8{fill:#5CB7A4;stroke:#000000;stroke-width:0.25;stroke-miterlimit:10;}
	.st9{fill:#8A898D;stroke:#000000;stroke-width:0.25;stroke-miterlimit:10;}
	.st10{fill:#73B5A5;stroke:#000000;stroke-width:0.25;stroke-miterlimit:10;}
	.st11{fill:#87868A;stroke:#000000;stroke-width:0.25;stroke-miterlimit:10;}
	.st12{fill:#82B3A6;stroke:#000000;stroke-width:0.25;stroke-miterlimit:10;}
	.st13{fill:#8D8C90;stroke:#000000;stroke-width:0.25;stroke-miterlimit:10;}
	.st14{fill:none;stroke:#000000;stroke-miterlimit:10;}
	.st15{fill:none;stroke:#000000;stroke-width:0.5;stroke-miterlimit:10;}
	.st16{fill:#555358;stroke:#000000;stroke-width:0.5;stroke-miterlimit:10;}
	.st17{fill:#B7B7B9;stroke:#000000;stroke-width:0.5;stroke-miterlimit:10;}
	.st18{fill:#505150;stroke:#000000;stroke-width:0.5;stroke-miterlimit:10;}
	.st19{fill:#F3AB40;}
	.st20{fill:#E9AD55;}
	.st21{fill:#43967F;}
	.st22{fill:#245EA9;}
	.st23{fill:#ADAEB1;}
	.st24{fill:none;}
	.st25{fill:#599480;}
	.st26{fill:#2964BF;}
	.st27{fill:#C6332A;}
	.st28{fill:#FFF2EB;stroke:#000000;stroke-miterlimit:10;}
	.st29{fill:#FFF7F3;stroke:#000000;stroke-miterlimit:10;}
	.st30{fill:#6C707F;stroke:#000000;stroke-miterlimit:10;}
	.st31{fill:#FFC4A6;stroke:#000000;stroke-miterlimit:10;}
	.st32{fill:#FFDAC3;stroke:#000000;stroke-miterlimit:10;}
	.st33{fill:#E5EAFF;stroke:#000000;stroke-miterlimit:10;}
	.st34{fill:#CB997E;stroke:#000000;stroke-miterlimit:10;}
	.st35{fill:url(#SVGID_1_);stroke:#000000;stroke-miterlimit:10;}
	.st36{fill:url(#SVGID_2_);stroke:#000000;stroke-miterlimit:10;}
	.st37{fill:none;stroke:#000817;stroke-miterlimit:10;}
	.st38{fill:#D48BFF;stroke:#D48BFF;stroke-width:5;stroke-miterlimit:10;}
	.st39{font-family:'MyriadPro-Regular';}
	.st40{font-size:24.5364px;}
</style>
<rect x="1.6" y="-0.29" class="st0" width="1272.4" height="474.85"/>
<rect x="1.91" y="33.95" class="st1" width="1271.72" height="45.08"/>
<rect x="2.19" y="395.66" class="st1" width="1271.72" height="45.08"/>
<polygon class="st2" points="639.45,384.18 592.76,384.18 592.39,384.05 592.03,383.89 591.7,383.66 591.3,383.36 590.81,382.98 
	590.4,382.67 590.1,382.37 589.75,382.16 589.57,381.94 589.49,381.71 589.49,381.45 589.49,381.12 589.49,379.01 589.49,376.4 
	589.49,374.06 589.49,371.42 589.49,370.18 589.49,369.49 589.49,365.67 589.75,365.37 590.19,365.33 590.97,365.24 591.52,365.16 
	592.47,365.01 593.18,364.88 594.23,364.67 595.23,364.39 596.09,364.17 597,363.91 598.13,363.5 598.55,363.36 598.93,363.23 
	599.25,363.09 599.51,362.99 599.76,362.89 600.11,362.75 600.54,362.55 600.98,362.35 601.47,362.14 602.01,361.87 602.59,361.57 
	603.03,361.33 603.49,361.06 604.08,360.67 604.56,360.34 605.16,359.92 605.52,359.69 605.91,359.42 606.36,359.15 606.65,358.93 
	607.01,358.65 607.37,358.41 607.74,358.14 608.21,357.74 608.61,357.37 608.88,357.12 609.2,356.76 609.5,356.47 609.81,356.16 
	610.08,355.91 610.4,355.61 610.77,355.21 611.07,354.88 611.49,354.39 611.89,353.89 612.26,353.33 612.63,352.84 612.99,352.24 
	613.35,351.69 613.9,350.91 614.35,350.12 614.67,349.38 615.07,348.56 615.52,347.57 615.95,346.5 616.34,345.29 616.75,343.96 
	617.14,342.24 617.32,341.35 617.52,340.22 617.59,338.97 617.65,337.04 617.59,334.7 617.54,333.12 617.34,331.9 616.98,330.52 
	616.58,329.13 616.09,327.63 615.5,326.05 614.8,324.49 614.01,323.22 613.2,321.97 611.96,320.21 611.1,319.18 610.21,318.16 
	609.38,317.27 608.3,316.24 607.13,315.21 605.86,314.2 604.83,313.43 603.61,312.7 601.87,311.75 600.15,310.96 599.16,310.52 
	597.54,309.89 596.55,309.46 595.26,309.01 593.97,308.68 592.4,308.37 590.85,308.09 589.68,307.99 588.36,307.9 586.79,307.87 
	585.2,307.87 584.33,307.87 582.95,307.94 581.62,308.09 580.31,308.34 579.19,308.56 578.3,308.79 577.18,309.05 576.02,309.45 
	575.08,309.74 574.13,310.08 573.33,310.45 572.35,310.87 571.29,311.47 570.12,312.18 569.14,312.65 567.97,313.34 567.03,314.03 
	566.04,314.82 565.32,315.38 564.52,316.06 563.62,316.85 562.82,317.71 561.93,318.69 561.21,319.54 560.32,320.64 559.55,321.88 
	558.93,323.07 558.24,324.4 557.67,325.57 557.07,326.64 556.6,327.98 556.28,328.83 555.94,329.86 555.73,331.11 555.54,332.22 
	555.35,333.39 555.32,334.57 555.31,335.63 555.31,336.88 555.32,337.98 555.37,338.93 555.51,340.05 555.7,341.23 555.85,342.23 
	556.17,343.34 556.55,344.96 557.13,346.37 557.85,348.03 558.87,349.86 559.87,351.63 561,353.25 562.27,354.76 563.38,355.97 
	564.57,357.11 566.13,358.48 567.59,359.63 568.99,360.58 570.44,361.4 572.13,362.28 573.46,362.91 575.4,363.77 577.55,364.5 
	579.48,365.01 581,365.34 582.08,365.49 582.51,365.56 582.82,365.58 583.27,365.62 583.68,365.7 583.85,365.75 584.01,365.9 
	583.95,370.99 583.98,375.46 583.99,379.63 584.01,381.3 583.9,381.59 583.69,381.77 583.44,382 583.03,382.35 582.65,382.72 
	582.36,382.98 581.95,383.36 581.54,383.71 581.09,383.98 580.5,384.18 579.81,384.18 578.82,384.18 575.22,384.18 566.24,384.18 
	555.86,384.18 546.94,384.18 538.23,384.18 535.82,384.18 535.06,383.89 534,383.45 533,383 532.28,382.62 531.23,381.73 
	530.23,380.62 529.67,379.67 529.01,378.68 528.51,377.45 528.51,376.18 528.51,366.62 528.51,341.44 528.51,305.69 528.51,263.62 
	528.51,220.43 528.51,170.43 528.51,124.64 528.51,98.27 528.51,96.34 528.75,95.24 529.26,94.14 529.93,93.43 530.71,92.49 
	531.62,91.63 532.64,91 533.81,90.72 535.07,90.72 544.6,90.72 571.56,90.72 598.05,90.72 615.55,90.72 630.45,90.72 636.59,90.72 
	638.92,90.72 640.41,91.16 641.44,91.67 642.54,92.64 643.05,93.67 643.89,93.93 644.93,93.93 646.15,93.93 647.45,94 679.59,94.01 
	714.17,94.13 744.43,94.44 772.75,94.44 795.52,94.44 816.04,94.5 831.75,94.68 848.04,94.96 849.31,94.93 850.55,94.37 
	851.69,93.64 852.62,92.76 853.4,92.09 853.91,91.63 854.84,91.27 856.39,91.06 858.3,91.01 869.05,90.72 893.13,90.72 
	937.12,90.72 964.52,90.72 966.63,91.09 968.46,91.61 970.01,92.35 971.61,93.44 972.82,94.87 973.67,96.82 973.96,99.4 
	973.96,101.86 973.96,133.54 973.96,171.61 973.96,211.64 973.96,256.27 973.96,294.21 973.96,330.83 973.96,367.19 973.96,376.51 
	973.96,378.11 973.73,379.4 973.35,380.4 972.73,381.14 971.88,381.95 970.72,382.68 969.6,383.07 968.06,383.53 966.61,383.82 
	964.08,384.18 961.51,384.18 956.07,384.18 945.86,384.18 931.32,384.18 915.13,384.18 900.41,384.18 887.34,384.18 863.97,384.18 
	863.06,384.01 862.25,383.66 861.65,383.29 861.25,382.67 861.09,381.95 861.03,381.14 861,380.45 860.97,380.02 860.72,379.7 
	860.28,379.58 859.69,379.55 859.07,379.52 857.2,379.49 853.95,379.49 840.78,379.47 812.8,379.4 793.66,379.35 771.95,379.25 
	743.3,379.2 718.7,379.2 692.01,379.2 661.58,379.25 646.18,379.09 645.55,379.09 644.95,379.21 644.46,379.67 644.06,380.36 
	643.8,381.07 643.48,381.82 642.91,382.31 642.42,382.8 641.76,383.4 640.7,383.89 640.24,384.18 "/>
<polygon class="st3" points="888.88,324.46 888.5,325.11 888.02,326.08 887.41,327.25 887.03,328.31 886.57,329.59 886.15,330.89 
	885.8,332.08 885.44,333.49 885.31,334.35 885.22,335.67 885.22,336.82 885.22,339.11 885.22,339.88 885.22,340.74 885.4,341.69 
	885.64,342.82 885.8,343.9 886.11,345.09 886.39,345.95 886.63,346.83 887.05,347.89 887.36,348.66 887.74,349.52 888.16,350.4 
	888.53,351.24 889.02,351.92 889.5,352.72 890.14,353.58 890.71,354.44 891.42,355.23 892.04,356.02 892.68,356.66 893.34,357.46 
	893.93,358.12 894.57,358.56 895.41,359.26 896.25,359.9 896.93,360.45 897.53,360.9 898.28,361.47 899.18,361.91 900.22,362.55 
	901.1,363.06 902.09,363.56 903.1,364.03 904.05,364.36 904.98,364.73 905.93,365.04 906.74,365.31 907.67,365.61 908.62,365.9 
	909.7,366.08 910.67,366.3 911.77,366.41 912.98,366.56 913.97,366.56 915.63,366.56 919.11,366.56 920.28,366.56 921.36,366.36 
	922.42,366.25 923.39,366.01 924.4,365.75 925.57,365.5 926.43,365.24 927.62,364.84 928.9,364.34 929.96,363.81 931.15,363.32 
	932.08,362.81 933.07,362.24 933.99,361.71 934.94,361.07 935.71,360.52 936.55,359.84 937.26,359.22 938.16,358.43 938.89,357.79 
	939.46,357.26 940.23,356.46 940.81,355.78 941.34,355.14 941.93,354.3 942.51,353.47 943.08,352.67 943.48,352.03 943.92,351.26 
	944.34,350.47 944.69,349.78 945.13,348.97 945.5,348.11 945.92,347.09 946.25,346.3 946.5,345.51 946.67,344.71 946.87,343.68 
	947.03,342.93 947.16,342.2 947.27,341.49 947.27,340.26 947.27,339.11 947.27,335.8 947.27,334.97 947.27,334.11 947.03,332.87 
	946.63,331.62 946.28,330.4 945.92,329.23 945.5,328.22 945.04,327.14 944.45,325.9 944.03,325.09 943.54,324.18 942.95,323.08 
	942.35,322.24 941.65,321.25 940.79,320.22 939.79,319.16 939.15,318.5 938.32,317.66 937.21,316.75 936.38,316.03 935.47,315.34 
	934.41,314.59 933.27,313.89 932.21,313.23 930.97,312.61 929.74,312.04 928.44,311.48 927.34,311.04 926.19,310.65 925.09,310.25 
	923.96,309.94 922.9,309.7 921.67,309.46 920.39,309.28 919.11,309.17 918.14,309.17 913.84,309.17 912.89,309.28 911.9,309.43 
	911.06,309.52 909.87,309.76 908.77,310.01 907.76,310.25 906.74,310.51 905.84,310.76 905.04,311.07 904.21,311.4 903.26,311.77 
	902.38,312.1 901.43,312.52 900.5,313.03 899.62,313.51 898.76,314.06 897.75,314.73 897,315.28 896.2,315.89 895.56,316.38 
	894.88,316.93 894.13,317.59 893.6,318.14 892.79,318.92 892.32,319.49 891.73,320.15 891.22,320.75 890.6,321.43 890.01,322.22 
	889.59,322.93 "/>
<polygon class="st3" points="557.54,273.17 557.72,272.29 557.96,271.21 558.22,270.38 558.49,269.5 558.86,268.82 559.23,268.14 
	559.65,267.41 560.11,266.75 560.64,265.98 561.15,265.33 561.91,264.71 562.62,264.25 563.32,263.68 564.07,263.11 564.75,262.76 
	565.58,262.32 566.42,261.92 567.41,261.61 568.35,261.35 569.23,261.17 570.02,261.06 570.9,260.93 571.71,260.93 572.74,260.93 
	573.45,260.93 574.44,261.09 575.14,261.26 576.1,261.5 576.96,261.79 577.95,262.1 578.89,262.54 579.93,263.06 580.63,263.55 
	581.4,264.14 582.19,264.8 582.98,265.63 583.66,266.4 584.34,267.05 584.74,267.79 585.2,268.58 585.7,269.37 586.17,270.29 
	586.25,270.99 586.56,272.31 586.67,273.37 586.67,274.66 586.67,275.83 586.56,277.25 586.39,278.22 586.14,278.95 585.7,279.78 
	585.2,280.68 584.72,281.58 584.14,282.24 583.55,283.07 582.91,283.73 582.23,284.35 581.73,284.72 581.09,285.18 580.28,285.71 
	579.75,286 579.03,286.44 578.37,286.74 577.51,287.09 576.72,287.31 575.95,287.53 575.2,287.69 574.41,287.89 573.27,287.89 
	572.11,287.89 571.18,287.89 570.83,287.89 570.2,287.89 569.16,287.73 568.22,287.51 567.54,287.23 566.46,286.96 565.69,286.57 
	564.79,286.15 563.87,285.56 562.95,284.94 562.22,284.31 561.47,283.6 560.75,282.86 560.22,282.15 559.63,281.3 559.08,280.44 
	558.53,279.56 558.25,278.73 557.94,277.85 557.67,276.97 557.54,276.05 557.54,274.97 557.54,273.94 "/>
<polygon class="st3" points="590.97,365.24 591.52,365.16 592.47,365.01 593.18,364.88 594.23,364.67 595.23,364.39 596.09,364.17 
	597,363.91 598.13,363.5 598.55,363.36 598.93,363.23 599.25,363.09 599.76,362.89 600.11,362.75 600.54,362.55 600.98,362.35 
	601.47,362.14 602.01,361.87 602.59,361.57 603.03,361.33 603.49,361.06 604.08,360.67 604.56,360.34 605.16,359.92 605.91,359.42 
	606.36,359.15 607.01,358.65 607.37,358.41 607.74,358.14 608.21,357.74 608.61,357.37 609.2,356.76 609.5,356.47 610.08,355.91 
	610.4,355.61 611.07,354.88 611.49,354.39 611.89,353.89 612.26,353.33 612.63,352.84 612.99,352.24 613.35,351.69 613.9,350.91 
	614.35,350.12 614.67,349.38 615.07,348.56 615.52,347.57 615.95,346.5 616.34,345.29 616.75,343.96 617.14,342.24 617.32,341.35 
	617.52,340.22 617.59,338.97 617.65,337.04 617.59,334.7 617.54,333.12 617.34,331.9 616.98,330.52 616.58,329.13 616.09,327.63 
	615.5,326.05 614.8,324.49 614.01,323.22 613.2,321.97 611.96,320.21 611.1,319.18 610.21,318.16 609.38,317.27 608.3,316.24 
	607.13,315.21 605.86,314.2 604.83,313.43 603.61,312.7 601.87,311.75 600.15,310.96 599.16,310.52 597.54,309.89 596.55,309.46 
	595.26,309.01 593.97,308.68 592.4,308.37 590.85,308.09 589.68,307.99 588.36,307.9 586.79,307.87 585.2,307.87 584.33,307.87 
	582.95,307.94 581.62,308.09 580.31,308.34 579.19,308.56 578.3,308.79 577.18,309.05 576.02,309.45 575.08,309.74 574.13,310.08 
	573.33,310.45 572.35,310.87 571.29,311.47 570.12,312.18 569.14,312.65 567.97,313.34 567.03,314.03 566.04,314.82 565.32,315.38 
	564.52,316.06 563.62,316.85 562.82,317.71 561.93,318.69 561.21,319.54 560.32,320.64 559.55,321.88 558.93,323.07 558.24,324.4 
	557.67,325.57 557.07,326.64 556.6,327.98 556.28,328.83 555.94,329.86 555.73,331.11 555.54,332.22 555.35,333.39 555.32,334.57 
	555.31,335.63 555.31,336.88 555.32,337.98 555.37,338.93 555.51,340.05 555.7,341.23 555.85,342.23 556.17,343.34 556.55,344.96 
	557.13,346.37 557.85,348.03 558.87,349.86 559.87,351.63 561,353.25 562.27,354.76 563.38,355.97 564.57,357.11 566.13,358.48 
	567.59,359.63 568.99,360.58 570.44,361.4 572.13,362.28 573.46,362.91 575.4,363.77 577.55,364.5 579.48,365.01 581,365.34 
	582.08,365.49 582.82,365.58 583.49,365.58 584.18,365.58 584.94,365.58 585.97,365.58 586.83,365.58 588.19,365.58 588.96,365.58 
	589.31,365.58 589.75,365.37 590.19,365.33 "/>
<polygon class="st4" points="905.55,339.1 905.55,337.1 906.18,336.46 906.64,335.95 907.39,335.55 907.73,335.32 909.65,335.32 
	910.23,335.78 910.69,336.06 911.12,336.46 911.4,336.95 911.4,339.1 911.4,339.39 911,339.79 910.57,340.25 909.94,340.74 
	907.96,340.74 906.93,340.22 906.01,339.56 "/>
<polygon class="st5" points="907.76,339.53 906.87,338.79 906.87,337.24 907.32,336.75 907.76,336.38 909.39,336.38 910.05,336.84 
	910.48,337.41 910.48,338.93 909.77,339.53 "/>
<polygon class="st4" points="912.64,340.59 912.64,335.4 915.79,335.4 916.39,335.83 916.68,336.38 916.68,337.96 916.25,338.53 
	915.76,338.7 913.61,338.64 913.58,340.59 "/>
<polygon class="st5" points="913.58,336.38 913.58,337.87 915.47,337.87 915.93,337.47 915.93,336.78 915.56,336.49 "/>
<polygon class="st6" points="917.37,335.32 917.4,340.74 921.71,340.74 921.71,339.53 918.56,339.53 918.56,338.5 921.71,338.56 
	921.71,337.35 918.47,337.38 918.41,336.38 921.71,336.38 921.68,335.32 "/>
<polygon class="st4" points="922.67,335.32 922.67,340.74 924.14,340.74 924.14,337.5 924.14,337.12 924.49,337.35 924.89,338 
	927.13,340.67 927.19,340.8 927.92,340.8 928.05,340.8 927.99,335.25 927.25,335.25 927.24,338.92 927.24,339.08 927.03,339.1 
	926.85,338.93 926.71,338.74 924.26,335.43 924.14,335.25 "/>
<polyline class="st7" points="592.76,384.18 590.7,384.18 588.98,384.18 586.87,384.18 585.32,384.18 583.38,384.18 582.27,384.18 
	581.09,383.98 581.54,383.71 581.95,383.36 582.65,382.72 583.03,382.35 583.44,382 583.9,381.59 584.01,381.3 584,380.71 
	583.99,379.63 583.98,375.46 583.95,370.99 584.01,365.9 584.18,365.58 584.94,365.58 585.97,365.58 586.83,365.58 588.19,365.58 
	588.96,365.58 589.49,365.67 589.49,366.52 589.49,367.71 589.49,369.49 589.49,371.42 589.49,374.06 589.49,376.4 589.49,379.01 
	589.49,381.12 589.49,381.71 589.57,381.94 590.1,382.37 590.4,382.67 591.3,383.36 592.03,383.89 592.76,384.18 "/>
<polygon class="st8" points="571.02,338.68 571.02,338.14 571.02,337.61 571.02,336.99 571.02,336.01 571.02,335.24 571.02,334.52 
	571.02,334.12 571.02,333.88 571.42,333.88 571.7,333.88 572.14,333.88 572.54,333.88 573.05,333.88 573.52,333.88 573.76,333.88 
	573.95,333.88 574.23,333.88 574.55,333.96 574.76,334.12 575.02,334.39 575.25,334.67 575.34,334.97 575.34,335.28 575.34,335.6 
	575.34,335.95 575.34,336.28 575.22,336.46 575.01,336.63 574.84,336.82 574.59,337.02 574.24,337.15 573.94,337.29 573.42,337.33 
	573.18,337.33 572.71,337.33 572.29,337.33 572.03,337.33 571.82,337.39 571.74,337.53 571.74,337.86 571.77,338.22 571.76,338.41 
	571.74,338.68 571.51,338.68 571.3,338.68 "/>
<polygon class="st9" points="571.76,336.28 571.76,335.78 571.76,335.46 571.81,335.27 571.99,335.22 572.14,335.22 572.38,335.22 
	572.68,335.22 573.05,335.22 573.42,335.22 573.69,335.22 573.91,335.22 574.17,335.27 574.37,335.32 574.51,335.46 574.51,335.75 
	574.51,335.97 574.3,336.09 573.95,336.22 573.77,336.28 573.29,336.28 572.84,336.28 572.11,336.28 "/>
<polygon class="st10" points="576.32,337.47 576.32,336.51 576.32,335.75 576.4,335.34 576.7,335.11 577.11,334.69 577.42,334.49 
	577.68,334.22 577.88,334.07 578.09,333.88 578.36,333.88 578.78,333.88 579.31,333.88 579.73,333.88 579.97,333.88 580.27,333.96 
	580.49,334.07 580.8,334.26 581.11,334.51 581.38,334.8 581.61,335.12 581.84,335.46 582.11,335.82 582.23,336.07 582.23,336.72 
	582.23,337.07 582.23,337.31 582.23,337.65 582.23,337.91 581.89,338.19 581.47,338.68 581.03,339 580.73,339.18 580.42,339.32 
	580.07,339.32 579.57,339.32 579.09,339.32 578.47,339.32 578.26,339.32 577.82,339.04 577.47,338.81 577.18,338.54 576.74,338.16 
	576.61,337.91 "/>
<polygon class="st11" points="577.05,337.2 577.05,336.13 577.19,335.9 577.46,335.69 577.77,335.46 578.08,335.22 578.46,335.22 
	578.95,335.22 579.34,335.22 579.74,335.22 579.97,335.3 580.23,335.38 580.46,335.5 580.72,335.75 580.89,335.9 581.04,336 
	581.04,336.15 581.14,336.45 581.14,336.72 581.14,337.2 581,337.51 580.76,337.99 580.54,338.09 580.15,338.09 579.61,338.09 
	579.09,338.09 578.49,338.09 578.23,338.09 577.92,337.96 577.64,337.72 577.32,337.53 "/>
<polygon class="st12" points="582.42,334.56 582.78,335.22 583.08,335.75 583.27,336.39 583.48,336.82 583.65,337.27 583.87,337.76 
	583.97,338.27 584.16,338.68 584.38,338.68 584.59,338.68 584.8,338.68 585.12,338.68 585.25,338.09 585.38,337.69 585.53,337.25 
	585.78,336.72 585.97,336.28 586.12,335.88 586.48,335.9 586.72,335.9 586.93,336.16 587.04,336.66 587.21,337.35 587.4,337.84 
	587.68,338.33 587.91,338.68 588.14,338.68 588.44,338.68 588.8,338.68 589.02,338.09 589.19,337.48 589.44,336.86 589.76,336.16 
	589.91,335.63 589.99,335.22 590.1,334.8 590.1,334.56 589.68,334.56 589.29,334.48 589.14,334.95 589.02,335.5 588.82,336.28 
	588.68,336.66 588.46,337.12 588.31,337.35 587.99,337.35 587.72,337.1 587.59,336.48 587.42,335.75 587.14,335.22 586.99,334.78 
	586.87,334.48 586.48,334.48 586.26,334.48 586.04,334.48 585.8,334.93 585.53,335.52 585.36,336.05 585.19,336.58 585.04,336.95 
	584.91,337.31 584.57,337.35 584.08,336.58 583.89,335.97 583.7,335.31 583.36,334.76 583.23,334.48 "/>
<polygon class="st12" points="591.46,334.03 592.08,334.03 592.81,334.03 593.67,334.03 594.43,334.03 594.97,334.03 595.19,334.03 
	595.19,334.39 595.19,334.83 595.19,335.2 594.9,335.2 594.39,335.2 593.85,335.2 593.15,335.2 592.57,335.2 592.22,335.2 
	592.2,335.64 592.2,335.92 592.66,335.92 595.19,335.92 595.19,337.32 592.17,337.32 592.17,338.03 595.19,338.03 595.19,339.32 
	590.66,339.32 590.66,334.03 "/>
<polygon class="st12" points="596.01,339.21 596.01,334.88 596.11,334.68 596.31,334.57 596.52,334.38 596.71,334.16 596.86,334.03 
	597.01,333.89 599.64,333.89 600.08,334.17 600.54,334.5 601.11,334.86 601.24,335.1 601.24,335.59 601.24,335.89 601.07,336.21 
	600.79,336.44 600.59,336.63 600.46,336.72 600.54,337.32 600.86,337.62 601.15,337.98 601.24,338.39 601.24,338.68 601.24,339 
	601.24,339.21 600.99,339.21 600.55,339.21 599.99,339.21 599.68,339.21 599.72,338.64 599.72,338.15 599.72,337.81 599.71,337.54 
	599.66,337.36 599.34,337.35 598.78,337.33 598.37,337.32 597.88,337.32 597.55,337.34 597.46,337.73 597.48,338.05 597.49,338.54 
	597.49,338.81 597.46,339.21 "/>
<rect x="597.46" y="335.25" class="st13" width="2.27" height="0.75"/>
<polyline class="st14" points="644.06,380.36 644.06,370.07 644.06,345.99 644.06,330.89 644.06,319.07 "/>
<polyline class="st14" points="859.07,379.52 859.07,367.21 859.07,353.04 859.07,340.1 858.9,321.35 "/>
<polyline class="st14" points="643.89,93.93 643.89,106.9 643.89,123.43 643.89,139.85 643.89,154.69 "/>
<polyline class="st14" points="857.25,91.04 857.25,110.45 857.25,125.35 857.25,144.67 857.18,154.43 "/>
<path class="st14" d="M643.89,154.69"/>
<line class="st15" x1="565.95" y1="273.99" x2="563.78" y2="273.86"/>
<polyline class="st15" points="563.78,275.6 563.78,275.2 563.78,273.86 563.78,272.93 563.78,272.58 563.78,272.36 564.46,272.36 
	565.04,272.36 565.54,272.36 565.78,272.36 566.3,272.75 566.3,273.14 566.3,273.37 566.3,273.62 566.12,273.95 566.3,275.08 
	566.3,275.25 566.3,275.6 "/>
<polyline class="st15" points="570.12,272.75 567.56,272.75 567.35,272.75 567.35,275.45 567.35,275.7 570.05,275.7 "/>
<line class="st15" x1="570.01" y1="274.13" x2="567.35" y2="274.13"/>
<polyline class="st15" points="573.52,273.35 573.21,273.14 572.96,272.96 572.67,272.87 572.11,272.87 571.64,272.87 
	571.31,273.11 571.07,273.35 571.07,273.64 571.29,273.98 571.73,274.13 572.2,274.23 572.67,274.32 572.96,274.32 573.21,274.56 
	573.35,274.96 573.33,275.27 573.13,275.6 572.78,275.7 572.3,275.7 571.89,275.7 571.52,275.6 571.27,275.39 570.92,275.06 "/>
<polyline class="st15" points="576.96,272.87 574.51,272.87 574.51,276.07 576.96,276.07 "/>
<line class="st15" x1="576.96" y1="274.41" x2="574.51" y2="274.41"/>
<polyline class="st15" points="577.52,273.14 577.85,273.14 580.78,273.14 "/>
<line class="st15" x1="579.15" y1="276.07" x2="579.15" y2="273.14"/>
<polyline class="st14" points="867.87,310.22 871.26,312.41 873.44,313.79 875.98,315.21 877.76,316.28 879.85,317.5 882.75,319.38 
	884.22,320.25 885.95,321.31 887.12,322.18 887.93,322.76 888.5,323.11 889.28,323.6 889.4,323.33 889.5,323.11 889.7,322.74 
	889.92,322.37 890.21,321.96 890.49,321.58 890.83,321.18 890.74,320.97 890.48,320.66 889.75,320.19 888.93,319.67 887.66,318.94 
	886.38,318.1 885.22,317.32 884.16,316.76 883,316.03 881.81,315.3 880.56,314.54 879.03,313.66 877.87,312.92 876.81,312.3 
	875.75,311.67 874.89,311.05 873.9,310.42 872.97,309.8 871.81,308.98 870.9,308.42 869.65,307.73 868.83,308.89 867.87,310.22 "/>
<polygon class="st2" points="825.73,347.84 829.8,345.47 833.5,342.98 837.69,340.06 840.98,337.39 844.5,334.78 847.42,332.53 
	850.51,329.8 853.25,327.12 855.86,324.39 858.9,321.35 861.69,318.13 864.43,314.97 866.55,312.05 869.05,308.59 872.33,303.91 
	874.88,299.66 877.55,295.16 879.5,291.15 882.29,285.69 884.6,279.55 886.18,274.75 887.82,269.46 889.1,264.06 890.13,258.89 
	890.74,254.76 891.22,250.87 891.65,247.35 891.89,244.92 891.89,241.39 891.89,237.68 891.89,233.43 891.89,230.46 891.53,226.2 
	891.22,223.65 890.74,220.65 890.25,217.82 889.58,214.17 888.97,210.89 887.76,206.34 886.54,202.39 885.27,198.38 883.93,194.67 
	882.59,191.39 880.59,186.95 878.89,183.19 876.7,179.36 875.3,176.56 873.66,173.95 872.02,171.1 870.02,168.36 868.05,166.19 
	866.52,164.09 864.59,161.92 862.82,160.07 861.45,158.86 859.84,157.33 858.47,155.64 857.18,154.43 855.89,152.9 853.8,150.64 
	852.03,148.79 849.21,145.81 847.6,144.44 845.67,142.83 843.97,141.22 841.72,139.45 838.82,137.2 836.49,135.59 833.02,133.17 
	829.88,130.99 826.34,128.82 823.12,127.21 819.09,124.79 814.58,122.62 809.91,120.69 805,118.43 800.97,116.98 795.33,115.21 
	790.26,113.68 785.35,112.39 781.32,111.43 776.17,110.46 772.62,109.82 768.92,109.41 764.97,109.01 759.01,109.01 750.99,108.61 
	747.1,108.61 742.02,108.61 736.71,109.09 728.65,109.82 722.61,110.62 715.29,112.23 708.28,114.16 702.4,116.02 695.31,118.43 
	687.98,121.49 682.27,124.47 676.87,127.53 671.23,131.32 666.56,134.3 661.73,137.76 657.62,141.06 654.16,144.04 650.7,147.58 
	648.28,150.16 645.38,152.9 642.97,155.8 640.47,158.94 636.44,163.93 633.71,167.64 630.89,172.31 628.23,176.5 625.81,180.36 
	624.2,183.74 622.59,187.21 620.82,191.72 619.05,196.47 617.2,201.22 616.15,206.05 614.46,212.25 614.15,214.69 613.86,217.75 
	613.57,220.65 613.22,223.42 613.07,225.86 612.78,228.67 612.58,232.42 612.58,235.87 612.58,238.39 612.58,241.81 612.58,244.65 
	612.58,246.69 612.91,250.03 613.17,251.43 613.46,253.44 613.97,255.73 614.21,256.78 614.38,257.83 614.5,259.17 614.67,260.86 
	615.02,262.2 615.25,263.78 615.6,265.52 616.07,267.27 616.65,269.2 617.29,271.64 617.82,273.62 619.04,276.77 619.8,278.58 
	620.5,280.56 621.26,282.25 621.96,283.94 622.95,286.15 623.7,287.9 624.99,290.58 626.56,293.5 627.73,295.48 629.12,298.1 
	630.52,300.43 632.1,303.23 633.44,305.33 634.89,307.48 636.76,310.16 638.27,312.14 640.6,315 643.05,318.03 645.97,321.06 
	648.41,323.68 650.86,326.25 653.83,328.99 656.57,331.2 659.02,333.41 662.11,335.98 665.49,338.48 668.58,340.64 672.31,342.91 
	675.63,345.01 679.01,347.05 682.1,348.8 685.59,350.43 690.08,352.47 693.4,354.22 698.06,356.02 701.85,357.42 705.7,358.7 
	709.43,360.1 713.45,361.15 717.35,362.14 721.49,363.08 725.74,363.89 729.24,364.53 732.85,365 736.99,365.46 740.16,365.96 
	743.19,366.23 745.42,366.23 748.6,366.23 752.08,366.23 754.93,366.23 758.96,366.23 762.32,366.23 765.41,365.8 768.53,365.5 
	771.25,365.22 774.76,364.76 778.64,364.06 782.37,363.3 785.95,362.5 790.26,361.4 794.17,360.27 797.81,359.2 801.93,357.83 
	805.57,356.57 809.48,355.08 813.3,353.42 816.54,352.05 820.06,350.37 822.96,349.24 "/>
<polyline class="st15" points="729.97,311.01 729.97,305.74 729.97,305.4 730.67,305.4 731.59,305.4 732.27,305.4 732.91,305.55 
	733.22,305.89 733.41,306.5 733.41,306.99 733.41,307.61 733.13,308.21 732.7,308.53 731.69,308.53 731.01,308.53 730.18,308.56 "/>
<line class="st15" x1="735.46" y1="305.4" x2="735.46" y2="311.01"/>
<polyline class="st15" points="737.86,306.84 739.79,306.84 740.22,307.09 740.56,307.42 740.56,308.31 740.56,308.59 
	740.56,310.58 740.56,311.01 738.04,311.01 737.58,310.71 737.3,310.28 737.3,309.82 737.3,309.33 737.79,308.93 738.13,308.74 
	738.68,308.62 739.08,308.62 739.45,308.62 739.85,308.59 740.16,308.59 "/>
<line class="st15" x1="746.17" y1="306.84" x2="742.95" y2="313.5"/>
<line class="st15" x1="742.31" y1="306.84" x2="744.12" y2="310.58"/>
<polyline class="st15" points="750.56,305.4 748.38,305.4 748.05,305.7 747.77,306.16 747.77,307.42 748.17,307.76 748.72,308.01 
	749.17,308.01 749.64,308.01 750.13,308.21 750.56,308.71 750.56,309.2 750.56,309.69 750.56,310.34 750.23,310.77 749.8,311.01 
	747.77,311.01 "/>
<polyline class="st15" points="752.77,305.89 752.77,310.8 753.33,311.01 753.94,311.01 "/>
<line class="st15" x1="754.49" y1="306.84" x2="752.9" y2="306.84"/>
<polyline class="st15" points="756.15,306.84 758.11,306.84 758.54,307.15 758.79,307.55 758.79,310.74 758.48,311.01 
	757.78,311.01 756.24,311.01 755.84,310.58 755.51,310.17 755.51,309.51 755.97,309.08 756.43,308.93 756.89,308.71 757.62,308.71 
	758.02,308.71 758.54,308.71 "/>
<polyline class="st15" points="761.15,305.89 761.15,310.58 761.64,311.01 762.29,311.01 "/>
<line class="st15" x1="762.81" y1="306.84" x2="761.31" y2="306.84"/>
<line class="st15" x1="764.38" y1="305.21" x2="764.38" y2="305.67"/>
<line class="st15" x1="764.38" y1="306.84" x2="764.38" y2="311.26"/>
<polygon class="st15" points="766.56,309.85 766.56,308.45 766.71,307.88 766.89,307.45 767.11,307.18 767.48,306.84 768.67,306.84 
	769.32,306.96 769.75,307.33 769.99,307.85 769.99,308.8 769.99,309.85 769.81,310.43 769.44,310.8 769.04,311.01 767.78,311.01 
	767.2,310.77 766.77,310.4 "/>
<polyline class="st15" points="775.49,311.14 775.49,307.61 775.27,307.21 774.72,306.84 772.2,306.84 772.2,311.26 "/>
<polygon class="st16" points="734.47,162.79 734.47,160.29 733.88,160.46 733.15,160.53 732.46,160.15 731.38,159.84 730.72,159.84 
	728.16,159.84 727.43,160.01 726.66,160.26 725.69,160.5 725.03,160.85 724.41,161.61 724.41,163.48 725.03,163.87 725.87,164.28 
	727.01,164.59 728.02,164.8 729.27,164.94 730.31,164.94 732.11,164.94 732.91,165.53 733.36,166.05 733.33,166.71 732.74,167.09 
	731.97,167.41 731.11,167.41 730.2,167.41 729.44,167.41 728.4,167.41 727.39,167.16 726.73,166.68 726.18,166.16 725.73,165.64 
	725.52,165.29 724.41,165.32 724.41,168.41 725.38,168.41 725.8,168.41 725.93,167.96 726.46,168 727.29,168.41 728.36,168.62 
	729.44,168.76 730.55,168.76 731.77,168.76 733.05,168.38 733.95,167.96 734.71,167.51 735.17,166.85 735.17,165.74 735.17,165.01 
	734.82,164.46 734.4,164 733.6,163.59 732.63,163.41 731.59,163.31 730.31,163.24 729.13,163.1 727.91,162.89 726.87,162.55 
	726.46,162.23 726.46,161.71 727.01,161.37 727.53,160.99 728.23,160.78 729.13,160.67 731.38,160.78 732.18,161.02 732.67,161.51 
	733.29,162.1 733.92,162.82 "/>
<polygon class="st16" points="741.52,168.76 739.96,168.03 738.91,167.2 738.22,166.36 737.7,165.64 737.7,163.35 738.25,162.37 
	739.05,161.61 740.02,160.85 741.2,160.15 742.28,159.84 745.72,159.84 746.76,160.08 747.97,160.57 748.63,161.02 749.67,161.78 
	750.16,162.86 750.16,165.46 749.85,166.47 749.19,167.09 748.18,167.86 747.24,168.24 746.34,168.76 "/>
<polygon class="st17" points="743.15,167.44 741.93,167.16 741.14,166.61 740.61,166.02 740.37,165.29 740.37,164.7 740.37,163.55 
	740.68,162.76 741.14,162.1 741.76,161.64 742.35,161.16 742.73,160.92 744.81,160.92 745.92,161.44 746.72,161.99 747.21,162.62 
	747.63,163.35 747.63,165.5 747.1,166.23 746.45,166.89 745.72,167.44 "/>
<polygon class="st18" points="760.47,160.26 760.47,161.23 761.99,161.23 761.99,165.15 756.3,160.26 752.1,160.26 752.1,161.23 
	753.52,161.26 753.52,167.44 752.1,167.44 752.1,168.24 757.05,168.24 756.93,167.44 755.26,167.44 755.23,162.72 755.85,162.72 
	761.99,168.06 761.99,168.41 763.97,168.41 763.97,161.26 765.43,161.26 765.43,160.26 "/>
<polygon class="st18" points="766.72,160.26 766.72,161.28 768.27,161.28 771.71,164.95 771.71,167.47 770.21,167.47 770.21,168.41 
	776.28,168.41 776.28,167.31 774.48,167.31 774.35,165.21 778.28,161.34 779.87,161.34 779.87,160.26 774.84,160.26 774.87,161.21 
	776,161.26 775.97,161.78 774.24,163.69 773.3,163.67 771.23,161.42 771.23,161.1 772.46,161.1 772.43,160.26 "/>
<polygon class="st19" points="748.09,300.78 746.76,300.22 746,299.95 744.9,299.75 743.66,299.75 742.31,299.65 741.2,299.65 
	740.13,299.42 738.93,299.12 737.87,298.78 736.9,298.29 736.07,297.59 735.9,296.75 736.14,296.15 736.94,295.55 737.84,295.09 
	738.93,294.65 739.43,294.95 739.83,295.19 740.56,295.45 741.4,295.79 742,296.09 742.67,296.59 741.8,296.95 741.07,297.19 
	741.1,297.72 741.83,297.72 742.73,297.72 743.6,297.72 744.12,297.72 744.36,297.25 744.76,297.05 745.3,297.05 745.93,297.05 
	746.66,297.15 747.16,297.35 747.63,297.45 748.09,297.72 748.46,297.95 748.46,298.75 748.46,300.78 "/>
<polygon class="st20" points="753.69,302.35 757.52,301.05 757.15,300.55 756.39,300.22 755.51,299.95 754.49,299.85 753.69,299.85 
	"/>
<polygon class="st21" points="738.93,294.65 740.34,294.21 741.92,293.67 742.95,293.32 743.94,293.01 745.17,292.57 746.17,292.25 
	747.13,292.47 747.77,292.69 748.46,292.91 748.46,297.95 747.63,297.45 747.16,297.35 746.66,297.15 745.93,297.05 745.3,297.05 
	744.76,297.05 744.36,297.25 744.12,297.72 743.6,297.72 742.73,297.72 741.83,297.72 741.1,297.72 741.07,297.19 741.8,296.95 
	742.67,296.59 742,296.09 741.4,295.79 740.56,295.45 739.83,295.19 739.43,294.95 "/>
<polygon class="st22" points="746.17,292.25 747.19,291.56 747.77,291.3 748.46,291.3 748.46,292.91 747.77,292.69 747.13,292.47 
	"/>
<polygon class="st23" points="748.46,294.49 747.32,295.1 746.46,295.44 745.04,295.98 743.94,296.32 742.67,296.59 741.8,296.95 
	741.07,297.19 741.1,297.72 741.83,297.72 742.73,297.72 743.6,297.72 744.12,297.72 744.36,297.25 744.76,297.05 745.3,297.05 
	745.93,297.05 746.52,296.73 746.78,296.64 746.97,296.6 747.51,296.47 747.92,296.42 "/>
<polygon class="st24" points="748.46,297.72 748.46,296.78 748.46,295.68 748.04,296 747.92,296.42 747.51,296.47 746.97,296.6 
	746.52,296.73 745.93,297.05 746.66,297.15 747.16,297.35 747.63,297.45 748.09,297.72 748.46,297.95 "/>
<polygon class="st25" points="753.69,299.85 753.69,299.01 754.7,298.82 755.71,298.5 756.82,298.41 757.37,297.95 758.19,297.72 
	758.81,297.61 759.39,297.33 759.85,297.16 760.69,297.06 761.36,297.06 762.29,297.06 763.21,297.18 763.81,297.4 764.56,297.72 
	765.38,298.12 764.38,298.74 763.72,298.99 762.29,299.47 761.29,299.85 760.14,300.24 758.74,300.62 757.52,301.05 757.15,300.55 
	756.39,300.22 755.51,299.95 754.49,299.85 "/>
<polygon class="st25" points="753.56,294.65 754.6,294.87 755.94,295.1 756.99,295.46 757.72,295.93 757.05,296.34 756.01,296.6 
	754.91,297.06 753.56,297.55 "/>
<polygon class="st26" points="753.69,294.38 755.91,293.94 757.2,293.68 758.83,293.42 760.19,293.27 761.35,293.27 762.67,293.4 
	764.42,293.63 765.74,293.82 767.1,294.49 768.08,295.28 768.44,295.85 768.44,296.49 768.34,297.24 767.85,297.72 767.05,297.83 
	766.18,298.09 765.38,298.12 764.56,297.72 763.81,297.4 762.75,297.12 761.36,297.06 761.61,296.82 762.05,296.65 762.54,296.54 
	763.18,296.36 763.6,296.26 763.78,295.54 763.8,295.31 763.39,295.1 763.03,295 762.44,295 761.82,295 761.3,295.1 760.53,295.25 
	759.83,295.54 759.08,295.85 758.23,295.93 757.72,295.93 756.99,295.46 755.94,295.1 754.6,294.87 753.56,294.65 "/>
<polygon class="st27" points="748.34,301.1 753.69,302.35 753.56,292.39 753.56,287.82 753.56,285.66 753.56,283.88 753.56,283.22 
	753.56,282.9 754.24,282.9 755.38,282.9 755.82,282.9 756.08,283.19 756.08,283.57 756.08,291.3 756.36,291.82 756.71,292.11 
	757.22,292.11 758.11,292.11 759.03,292.11 759.69,291.88 760.11,291.3 760.68,290.83 761.15,290.17 761.44,289.91 761.69,289.5 
	761.69,288.96 761.69,287.63 761.69,285.76 761.56,285.09 761.22,284.55 760.64,283.82 760.11,283.28 759.54,282.71 758.71,282.2 
	757.85,281.76 757.03,281.38 755.98,280.93 755.01,280.62 754.08,280.27 753.13,279.98 752.24,279.63 751.38,279.41 750.62,279.25 
	749.73,279.09 748.75,279.09 748.34,279.09 748.46,291.3 "/>
<path class="st28" d="M611.54,135.18c-1.26-4.06,6.84-10.35,10.53-12.7c7.11-4.53,14.27-4.93,17.56-4.91H684
	c3.95,0,7.53,1.6,10.12,4.19c0.58,0.58,4.24,4.36,4.19,10.12c-0.05,5.4-3.34,10.42-8.45,13.05c-6.57-2.49-15.45-5.07-26.16-6.12
	c-7.65-0.74-14.43-0.53-20.01,0.03C618.54,140.9,612.45,138.11,611.54,135.18z"/>
<path class="st28" d="M899.35,137.06c1.26-4.06-6.84-10.35-10.53-12.7c-7.11-4.53-14.27-4.93-17.56-4.91h-44.37
	c-3.95,0-7.53,1.6-10.12,4.19c-0.58,0.58-4.24,4.36-4.19,10.12c0.05,5.4,3.34,10.42,8.45,13.05c6.57-2.49,15.45-5.07,26.16-6.12
	c7.65-0.74,14.43-0.53,20.01,0.03C892.36,142.77,898.44,139.98,899.35,137.06z"/>
<path class="st29" d="M815.04,178.36c3.9-7.55,11.75-10.97,15.38-12.49c15.72-6.59,31.65-1.86,35.29-0.78
	c11.16,3.32,18.45,9.22,22.32,12.98c0.17,0.16,0.16,0.42,0,0.58l-9.87,9.58c-0.01,0.01-0.03,0.02-0.04,0.04
	c-7.14,5.44-14.12,8.11-18.45,9.44c-3.5,1.07-15.09,4.28-29.25,1.73c-7-1.26-13.29-2.39-16.29-7.03
	C810.61,186.95,814.05,180.29,815.04,178.36z"/>
<path class="st29" d="M695.94,174c-3.75-7.55-11.31-10.97-14.8-12.49c-15.12-6.59-30.45-1.86-33.94-0.78
	c-11.02,3.4-18.11,9.54-21.76,13.27c3.27,3.3,6.54,6.59,9.8,9.89c6.87,5.46,13.6,8.13,17.76,9.45c3.37,1.07,14.51,4.28,28.13,1.73
	c6.73-1.26,12.79-2.39,15.67-7.03C700.2,182.59,696.9,175.93,695.94,174z"/>
<path class="st30" d="M637.42,368.15c1.62-12.48,6.07-36.92,20.09-64.12c13.12-25.46,28.47-41.41,37.08-49.34
	c1.25-6.44-0.3-12.26-3.92-14.78c-3.37-2.34-7.28-0.97-8.31-0.56c-56.37,108.5-60.29,126.74-58.06,129.28
	c2.88,3.29,6.4,3.03,6.4,3.03C633.54,371.45,636.01,369.49,637.42,368.15z"/>
<path class="st30" d="M865.78,368.15c-1.62-12.48-6.07-36.92-20.09-64.12c-13.12-25.46-28.47-41.41-37.08-49.34
	c-1.25-6.44,0.3-12.26,3.92-14.78c3.37-2.34,7.28-0.97,8.31-0.56c56.37,108.5,60.29,126.74,58.06,129.28
	c-2.88,3.29-6.4,3.03-6.4,3.03C869.66,371.45,867.19,369.49,865.78,368.15z"/>
<path class="st31" d="M820.33,332.27c-10.12,6.41-33,18.96-64.65,20.13c-37.26,1.38-64.31-13.84-74.27-20.13
	c-3.08-1.77-4.86-5.11-4.54-8.51c0.42-4.42,4.19-6.61,4.54-6.8c18.29,4.08,41.89,7.66,69.46,7.66c18.73,0,42.55-1.65,69.46-7.66
	c0.21,0.12,4.38,2.53,4.54,7.37C824.97,327.6,823.22,330.67,820.33,332.27z"/>
<path class="st30" d="M821.14,110.8c-14.61-0.7-29.74-1.2-45.36-1.46c-32.82-0.54-63.72,0.08-92.43,1.46
	c-7.08-0.96-12.28-2.81-12.48-4.88c-0.27-2.84,8.95-5.19,12.48-6.09c17.39-4.44,33.78-2.51,35.72-2.28
	c18.94,2.19,51.14,3.02,102.07,2.28c8.83,0.11,14.43,3.68,14.18,6.09C835.08,108.23,829.26,111.05,821.14,110.8z"/>
<path class="st30" d="M792.82,124.55c-9.03-2.39-29.69-6.92-54.44-4.03c-8.07,0.94-14.87,2.47-20.3,4.03
	c-4.27,0.17-8.08-0.61-8.99-1.91c-1.15-1.66,1.94-4.77,8.99-6.01c12.24,0.95,21.85,0.55,28.24,0.04
	c12.32-0.98,19.72-2.95,32.04-2.15c6.34,0.41,11.36,1.39,14.46,2.11c4.55-0.16,8.34,1.09,9.07,2.61
	C802.8,121.12,799.35,124.12,792.82,124.55z"/>
<path class="st30" d="M778.06,135.73c-12.61,1.38-19.71,2.05-23.78,2.35c-1.21,0.09-4.8,0.34-9.52,1.03
	c-1.88,0.28-3.41,0.54-4.44,0.73c-5.15,0.39-9.93-0.26-11.02-2.06c-1.35-2.2,2.53-6.63,11.02-9.64c6.76,1.91,19.22,4.55,34.07,2.6
	c4.66-0.61,8.74-1.57,12.17-2.6c3.84,1.95,5.97,4.67,5.1,6.35C790.62,136.53,784.75,137.91,778.06,135.73z"/>
<path class="st32" d="M666.36,156.42c-4.29-0.48-12.84-0.65-21.51,5.01c-2.82,1.84-5.1,3.94-6.89,5.9
	c2.93,14.01,13.05,23.71,23.91,23.71c13.12,0,23.91-10.7,23.91-23.71c0-0.38-0.01-0.76-0.03-1.15c-0.83-1.03-1.78-2.06-2.85-3.04
	C676.97,157.7,670.33,156.61,666.36,156.42z"/>
<path class="st32" d="M844.21,160.92c4.29-0.48,12.84-0.66,21.51,5.08c2.82,1.87,5.1,3.99,6.89,5.99
	c-2.93,14.21-13.05,24.05-23.91,24.05c-13.12,0-23.91-10.86-23.91-24.05c0-0.39,0.01-0.78,0.03-1.16c0.83-1.04,1.78-2.09,2.85-3.09
	C833.6,162.22,840.24,161.11,844.21,160.92z"/>
<ellipse class="st33" cx="661.87" cy="170.82" rx="9.04" ry="6.31"/>
<ellipse class="st33" cx="848.7" cy="170.82" rx="9.04" ry="6.31"/>
<path class="st28" d="M750.68,259.01c4.01,8.51-3.57,23.34-14.24,28.06c-11.41,5.05-18.59-4.88-34.43-1.27
	c-16.01,3.65-22.39,16.91-24.56,15.31c-3.4-2.51,7.11-38.47,35.28-47.9C725.71,248.86,745.96,248.98,750.68,259.01z"/>
<path class="st28" d="M751.94,259.01c-4.01,8.51,3.57,23.34,14.24,28.06c11.41,5.05,18.59-4.88,34.43-1.27
	c16.01,3.65,22.39,16.91,24.56,15.31c3.4-2.51-7.11-38.47-35.28-47.9C776.91,248.86,756.66,248.98,751.94,259.01z"/>
<path class="st34" d="M618.61,194.53l-60.13-55.64c-0.29-3.11-0.57-6.22-0.86-9.33c15.96,9.05,35.4,22.92,52.87,44.02
	c4.63,5.6,8.68,11.16,12.2,16.54C621.33,191.59,619.97,193.06,618.61,194.53z"/>
<path class="st34" d="M881.28,193.79c5.53-6.49,8.78-12.41,10.71-16.59c6-12.95,4.65-20.76,11.49-31.13
	c3.86-5.85,8.34-9.72,11.4-12.02c0.19,3.67,0.39,7.34,0.58,11.02c-1.04,3.4-2.51,8.2-4.28,13.95c-5.24,17.01-5.84,18.68-6.74,20.58
	c-2.61,5.46-7.99,13.11-20.36,19.84C883.15,197.55,882.21,195.67,881.28,193.79z"/>
<linearGradient id="SVGID_1_" gradientUnits="userSpaceOnUse" x1="614.8492" y1="203.2009" x2="704.0076" y2="203.2009">
	<stop  offset="0" style="stop-color:#FFFFFF"/>
	<stop  offset="0.9925" style="stop-color:#000000;stop-opacity:0.2"/>
</linearGradient>
<path class="st35" d="M697.64,221.98c-24.47,0-48.93,0-73.4,0c-1.64-1.31-7.64-6.41-9.08-15.21c-2.08-12.66,7.15-21.6,7.96-22.35
	c25.06,0.23,50.13,0.46,75.19,0.69c1.54,2.22,6.49,9.95,5.59,20.61C703.21,213.93,699.41,219.63,697.64,221.98z"/>
<linearGradient id="SVGID_2_" gradientUnits="userSpaceOnUse" x1="795.0724" y1="207.8492" x2="884.2308" y2="207.8492">
	<stop  offset="0" style="stop-color:#FFFFFF"/>
	<stop  offset="0.9925" style="stop-color:#000000;stop-opacity:0.2"/>
</linearGradient>
<path class="st36" d="M877.86,226.63c-24.47,0-48.93,0-73.4,0c-1.64-1.31-7.64-6.41-9.08-15.21c-2.08-12.66,7.15-21.6,7.96-22.35
	c25.06,0.23,50.13,0.46,75.19,0.69c1.54,2.22,6.49,9.95,5.59,20.61C883.43,218.58,879.64,224.27,877.86,226.63z"/>
<path class="st34" d="M703.9,205.73c6.7-4.17,22.69-12.88,44.87-13.25c23.08-0.39,39.88,8.47,46.62,12.51
	c0,2.14-0.01,4.29-0.01,6.43c-9.49-3.82-25.76-9-46.51-8.9c-20.55,0.1-36.65,5.34-46.08,9.21
	C703.15,209.73,703.53,207.73,703.9,205.73z"/>
<path class="st37" d="M745.19,260.24"/>
<path class="st37" d="M744.66,249.78"/>
<path class="st38" d="M413.3,258.23H193.77c-21.82,0-39.5-17.68-39.5-39.5V136.2c0-21.82,17.68-39.5,39.5-39.5H413.3
	c21.82,0,39.5,17.68,39.5,39.5v82.53C452.8,240.55,435.11,258.23,413.3,258.23z"/>
<polygon class="st38" points="382.86,251.75 477.83,278.88 453.84,183.07 "/>
<text transform="matrix(1 0 0 1 186.1294 178.5088)" class="st39 st40">The drip finally stops...</text>
</svg>
