<?xml version="1.0" encoding="utf-8"?>
<!-- Generator: Adobe Illustrator 25.1.0, SVG Export Plug-In . SVG Version: 6.00 Build 0)  -->
<svg version="1.1" id="Layer_1" xmlns="http://www.w3.org/2000/svg" xmlns:xlink="http://www.w3.org/1999/xlink" x="0px" y="0px"
	 viewBox="0 0 1278.75 445.36" style="enable-background:new 0 0 1278.75 445.36;" xml:space="preserve">
<style type="text/css">
	.st0{fill:#FFFFFF;stroke:#000000;stroke-width:5;stroke-miterlimit:10;}
	.st1{fill:#A47449;stroke:#654321;stroke-width:5;stroke-miterlimit:10;}
	.st2{fill:#654321;stroke:#654321;stroke-width:5;stroke-miterlimit:10;}
	.st3{fill:#A2FFA3;stroke:#654321;stroke-width:5;stroke-miterlimit:10;}
	.st4{fill:#4575FF;stroke:#654321;stroke-width:5;stroke-miterlimit:10;}
	.st5{fill:#001700;stroke:#654321;stroke-width:5;stroke-miterlimit:10;}
	.st6{fill:#007331;stroke:#654321;stroke-width:5;stroke-miterlimit:10;}
	.st7{fill:#FFFFFF;stroke:#FFFFFF;stroke-width:3;stroke-miterlimit:10;}
	.st8{fill:#696969;stroke:#A9A9A9;stroke-width:3;stroke-miterlimit:10;}
	.st9{fill:#8BFFBC;stroke:#A9A9A9;stroke-miterlimit:10;}
	.st10{fill:#8BFFBC;stroke:#A9A9A9;stroke-width:0.9999;stroke-miterlimit:9.9994;}
	.st11{fill:#8BFFBC;stroke:#A9A9A9;stroke-width:1;stroke-miterlimit:9.9996;}
	.st12{fill:#2EFFC1;stroke:#A9A9A9;stroke-miterlimit:10;}
	.st13{stroke:#000000;stroke-miterlimit:10;}
	.st14{fill:#AFAEB2;stroke:#000000;stroke-miterlimit:10;}
	.st15{fill:#8E8D91;stroke:#000000;stroke-miterlimit:10;}
	.st16{fill:#86D6DA;stroke:#000000;stroke-width:0.5;stroke-miterlimit:10;}
	.st17{fill:#868589;stroke:#000000;stroke-width:0.5;stroke-miterlimit:10;}
	.st18{fill:#98D4D9;stroke:#000000;stroke-width:0.5;stroke-miterlimit:10;}
	.st19{fill:#ACAEB1;stroke:#000000;stroke-miterlimit:10;}
	.st20{fill:#5CB7A4;stroke:#000000;stroke-width:0.25;stroke-miterlimit:10;}
	.st21{fill:#8A898D;stroke:#000000;stroke-width:0.25;stroke-miterlimit:10;}
	.st22{fill:#73B5A5;stroke:#000000;stroke-width:0.25;stroke-miterlimit:10;}
	.st23{fill:#87868A;stroke:#000000;stroke-width:0.25;stroke-miterlimit:10;}
	.st24{fill:#82B3A6;stroke:#000000;stroke-width:0.25;stroke-miterlimit:10;}
	.st25{fill:#8D8C90;stroke:#000000;stroke-width:0.25;stroke-miterlimit:10;}
	.st26{fill:none;stroke:#000000;stroke-miterlimit:10;}
	.st27{fill:none;stroke:#000000;stroke-width:0.5;stroke-miterlimit:10;}
	.st28{fill:#555358;stroke:#000000;stroke-width:0.5;stroke-miterlimit:10;}
	.st29{fill:#B7B7B9;stroke:#000000;stroke-width:0.5;stroke-miterlimit:10;}
	.st30{fill:#505150;stroke:#000000;stroke-width:0.5;stroke-miterlimit:10;}
	.st31{fill:#F3AB40;}
	.st32{fill:#E9AD55;}
	.st33{fill:#43967F;}
	.st34{fill:#245EA9;}
	.st35{fill:#ADAEB1;}
	.st36{fill:none;}
	.st37{fill:#599480;}
	.st38{fill:#2964BF;}
	.st39{fill:#C6332A;}
	.st40{fill:none;stroke:#000817;stroke-miterlimit:10;}
	.st41{fill:#26272A;stroke:#000000;stroke-miterlimit:10;}
	.st42{fill:#3E3F44;stroke:#000000;stroke-miterlimit:10;}
	.st43{fill:#52545A;stroke:#000000;stroke-miterlimit:10;}
	.st44{fill:#282A2E;stroke:#000000;stroke-miterlimit:10;}
	.st45{fill:#2B2C31;stroke:#000817;stroke-miterlimit:10;}
	.st46{fill:none;stroke:#000000;stroke-width:0.25;stroke-miterlimit:10;}
	.st47{fill:#00B98F;stroke:#000817;stroke-miterlimit:10;}
	.st48{fill:#56585D;stroke:#000817;stroke-miterlimit:10;}
	.st49{fill:#FFFFFF;stroke:#000000;stroke-miterlimit:10;}
	.st50{fill:#FFFFFF;stroke:#000817;stroke-miterlimit:10;}
	.st51{fill:#948F8F;stroke:#000817;stroke-miterlimit:10;}
	.st52{fill:#1F2023;stroke:#000817;stroke-miterlimit:10;}
	.st53{opacity:0.73;fill:#ADB2AE;stroke:#4D4545;stroke-width:7;stroke-miterlimit:10;enable-background:new    ;}
	.st54{fill:#4D4545;stroke:#4D4545;stroke-width:3;stroke-miterlimit:10;}
	.st55{fill:#B2B1AA;stroke:#000000;stroke-miterlimit:10;}
	.st56{stroke:#000000;stroke-width:0.75;stroke-miterlimit:10;}
	.st57{fill:#B2B1AA;stroke:#000000;stroke-width:0.75;stroke-miterlimit:10;}
	.st58{fill:#FFFFFF;stroke:#ECBCB4;stroke-miterlimit:10;}
	.st59{fill:#8BE1FF;stroke:#A27100;stroke-width:0.25;stroke-miterlimit:10;}
	.st60{stroke:#A27100;stroke-width:10;stroke-miterlimit:10;}
	.st61{fill:#FFFFFF;}
	.st62{opacity:0.4;fill:#00FFFF;enable-background:new    ;}
</style>
<rect x="1.35" y="-0.3" class="st0" width="1275.9" height="446.11"/>
<polygon class="st1" points="2.11,-0.3 2.11,445.36 1278,445.36 1278,0 "/>
<rect x="2.11" y="13.24" class="st2" width="1275.14" height="17.05"/>
<rect x="2.66" y="264.83" class="st2" width="1275.14" height="17.05"/>
<rect x="192.44" y="314.91" class="st3" width="85.66" height="54.7"/>
<ellipse class="st4" cx="193.94" cy="405.18" rx="7.52" ry="19.56"/>
<ellipse class="st5" cx="239.08" cy="402.93" rx="10.53" ry="21.82"/>
<polygon class="st6" points="210.45,381.11 259.53,381.11 251.12,396.16 220.01,396.16 "/>
<path class="st7" d="M466.16,231.04H316.01c-17.12,0-31-13.88-31-31v-31.28c0-17.12,13.88-31,31-31h150.15c17.12,0,31,13.88,31,31
	v31.28C497.16,217.16,483.28,231.04,466.16,231.04z"/>
<polygon class="st8" points="187.73,445.36 163.85,367.57 187.73,293.85 278.1,293.85 300.78,369.61 278.1,445.36 "/>
<rect x="190.93" y="313.4" class="st9" width="85.66" height="54.7"/>
<ellipse transform="matrix(0.9522 -0.3056 0.3056 0.9522 -113.0081 78.1907)" class="st10" cx="193.22" cy="400.02" rx="7.33" ry="14.34"/>
<ellipse transform="matrix(0.4072 -0.9133 0.9133 0.4072 -201.3876 489.1651)" class="st11" cx="276.15" cy="399.73" rx="14.34" ry="7.33"/>
<polygon class="st12" points="227.04,403.68 249.61,403.68 258.03,388.63 208.94,388.63 218.5,403.68 "/>
<ellipse class="st9" cx="204.11" cy="431.49" rx="14.34" ry="7.33"/>
<ellipse class="st9" cx="235.7" cy="431.49" rx="14.34" ry="7.33"/>
<ellipse class="st9" cx="267.3" cy="431.49" rx="14.34" ry="7.33"/>
<path class="st8" d="M524.94,445.36c0,0-3.02-95.32,0-104.61c3.02-9.3,31.6-37.88,79.75-37.88s65.38,27.62,66.54,37.88
	s0,104.61,0,104.61"/>
<path class="st13" d="M541.5,343.5v21.53c0,0,13.54-0.46,16.55-0.46s9.06-1.04,9.04-10.3c-0.01-9.26-6.47-10.76-9.26-10.76
	S541.5,343.5,541.5,343.5z"/>
<path class="st13" d="M541.5,385.62v21.53c0,0,13.54-0.46,16.55-0.46s9.06-1.04,9.04-10.3c-0.01-9.26-6.47-10.76-9.26-10.76
	S541.5,385.62,541.5,385.62z"/>
<path class="st13" d="M585.13,343.5v21.53c0,0,13.54-0.46,16.55-0.46s9.06-1.04,9.04-10.3s-6.47-10.76-9.26-10.76
	S585.13,343.5,585.13,343.5z"/>
<path class="st13" d="M585.13,385.62v21.53c0,0,13.54-0.46,16.55-0.46s9.06-1.04,9.04-10.3s-6.47-10.76-9.26-10.76
	S585.13,385.62,585.13,385.62z"/>
<path class="st13" d="M585.13,418.72v21.53c0,0,13.54-0.46,16.55-0.46s9.06-1.04,9.04-10.3s-6.47-10.76-9.26-10.76
	S585.13,418.72,585.13,418.72z"/>
<path class="st13" d="M631.78,385.62v21.53c0,0,13.54-0.46,16.55-0.46s9.06-1.04,9.04-10.3s-6.47-10.76-9.26-10.76
	S631.78,385.62,631.78,385.62z"/>
<path class="st13" d="M633.28,418.72v21.53c0,0,13.54-0.46,16.55-0.46s9.06-1.04,9.04-10.3s-6.47-10.76-9.26-10.76
	C646.82,418.72,633.28,418.72,633.28,418.72z"/>
<path class="st7" d="M466.16,231.04H316.01c-17.12,0-31-13.88-31-31v-31.28c0-17.12,13.88-31,31-31h150.15c17.12,0,31,13.88,31,31
	v31.28C497.16,217.16,483.28,231.04,466.16,231.04z"/>
<polygon class="st14" points="884.34,254.68 850.55,254.68 850.29,254.59 850.02,254.47 849.79,254.3 849.5,254.09 849.14,253.81 
	848.84,253.58 848.63,253.37 848.38,253.21 848.25,253.06 848.19,252.89 848.19,252.7 848.19,252.47 848.19,250.93 848.19,249.05 
	848.19,247.35 848.19,245.44 848.19,244.55 848.19,244.05 848.19,241.28 848.37,241.07 848.69,241.03 849.26,240.97 849.65,240.92 
	850.34,240.8 850.86,240.71 851.62,240.56 852.34,240.36 852.96,240.2 853.62,240.01 854.44,239.71 854.74,239.61 855.02,239.51 
	855.25,239.42 855.44,239.34 855.62,239.27 855.87,239.17 856.19,239.02 856.5,238.88 856.85,238.73 857.25,238.53 857.67,238.31 
	857.99,238.14 858.31,237.94 858.74,237.67 859.09,237.43 859.52,237.12 859.78,236.95 860.07,236.76 860.4,236.56 860.61,236.41 
	860.87,236.2 861.12,236.03 861.4,235.84 861.73,235.54 862.03,235.27 862.22,235.09 862.45,234.83 862.67,234.62 862.89,234.4 
	863.09,234.22 863.32,234 863.59,233.71 863.8,233.47 864.11,233.12 864.4,232.75 864.67,232.35 864.93,232 865.2,231.56 
	865.45,231.17 865.85,230.6 866.18,230.03 866.41,229.49 866.7,228.9 867.02,228.18 867.33,227.4 867.62,226.53 867.91,225.57 
	868.2,224.32 868.33,223.68 868.47,222.87 868.52,221.96 868.57,220.56 868.52,218.87 868.48,217.72 868.34,216.84 868.08,215.85 
	867.79,214.84 867.44,213.75 867.01,212.61 866.5,211.48 865.93,210.56 865.34,209.65 864.45,208.38 863.82,207.63 863.18,206.9 
	862.58,206.26 861.8,205.51 860.95,204.76 860.03,204.03 859.28,203.48 858.41,202.95 857.15,202.26 855.9,201.69 855.19,201.37 
	854.01,200.92 853.29,200.6 852.36,200.28 851.43,200.04 850.29,199.81 849.17,199.61 848.33,199.54 847.37,199.48 846.23,199.45 
	845.08,199.45 844.45,199.45 843.45,199.5 842.49,199.61 841.54,199.79 840.73,199.95 840.09,200.12 839.28,200.3 838.44,200.59 
	837.75,200.81 837.07,201.05 836.49,201.32 835.78,201.63 835.01,202.06 834.17,202.57 833.46,202.91 832.61,203.41 831.93,203.91 
	831.22,204.48 830.7,204.89 830.12,205.38 829.46,205.95 828.88,206.58 828.24,207.28 827.72,207.9 827.08,208.69 826.52,209.59 
	826.07,210.45 825.57,211.41 825.16,212.26 824.72,213.03 824.38,214 824.15,214.62 823.91,215.37 823.76,216.27 823.61,217.08 
	823.48,217.92 823.46,218.78 823.45,219.54 823.45,220.44 823.46,221.24 823.49,221.93 823.6,222.74 823.73,223.6 823.84,224.32 
	824.07,225.12 824.35,226.29 824.77,227.31 825.29,228.51 826.03,229.84 826.75,231.12 827.57,232.29 828.49,233.38 829.29,234.27 
	830.15,235.08 831.28,236.08 832.34,236.91 833.35,237.6 834.4,238.19 835.62,238.83 836.58,239.29 837.99,239.9 839.54,240.43 
	840.94,240.8 842.04,241.04 842.82,241.15 843.14,241.2 843.36,241.22 843.68,241.24 843.98,241.3 844.11,241.34 844.22,241.45 
	844.17,245.13 844.19,248.36 844.21,251.38 844.22,252.59 844.14,252.8 843.98,252.94 843.81,253.1 843.51,253.35 843.23,253.62 
	843.03,253.81 842.73,254.08 842.43,254.34 842.11,254.53 841.68,254.68 841.18,254.68 840.47,254.68 837.86,254.68 831.36,254.68 
	823.85,254.68 817.4,254.68 811.09,254.68 809.35,254.68 808.79,254.47 808.03,254.15 807.31,253.83 806.78,253.54 806.02,252.9 
	805.3,252.1 804.9,251.42 804.41,250.69 804.05,249.81 804.05,248.89 804.05,241.97 804.05,223.75 804.05,197.87 804.05,167.43 
	804.05,136.17 804.05,99.99 804.05,66.85 804.05,47.77 804.05,46.37 804.23,45.57 804.6,44.78 805.08,44.27 805.65,43.58 
	806.3,42.96 807.04,42.5 807.89,42.31 808.8,42.31 815.7,42.31 835.21,42.31 854.38,42.31 867.04,42.31 877.82,42.31 882.27,42.31 
	883.96,42.31 885.03,42.62 885.78,42.99 886.58,43.69 886.95,44.44 887.56,44.63 888.3,44.63 889.19,44.63 890.13,44.67 
	913.39,44.68 938.42,44.77 960.32,44.99 980.81,44.99 997.29,44.99 1012.14,45.04 1023.5,45.17 1035.29,45.37 1036.22,45.35 
	1037.12,44.94 1037.94,44.42 1038.61,43.78 1039.17,43.3 1039.55,42.96 1040.22,42.7 1041.34,42.55 1042.72,42.51 1050.5,42.31 
	1067.93,42.31 1099.76,42.31 1119.59,42.31 1121.12,42.57 1122.44,42.95 1123.56,43.48 1124.72,44.27 1125.6,45.31 1126.22,46.72 
	1126.42,48.58 1126.42,50.37 1126.42,73.29 1126.42,100.84 1126.42,129.81 1126.42,162.11 1126.42,189.56 1126.42,216.07 
	1126.42,242.38 1126.42,249.13 1126.42,250.29 1126.26,251.22 1125.98,251.94 1125.53,252.48 1124.92,253.06 1124.08,253.59 
	1123.27,253.87 1122.15,254.21 1121.11,254.42 1119.27,254.68 1117.41,254.68 1113.48,254.68 1106.09,254.68 1095.56,254.68 
	1083.85,254.68 1073.2,254.68 1063.74,254.68 1046.82,254.68 1046.16,254.55 1045.58,254.3 1045.15,254.03 1044.86,253.58 
	1044.74,253.06 1044.7,252.48 1044.67,251.98 1044.65,251.66 1044.47,251.44 1044.16,251.35 1043.73,251.33 1043.28,251.3 
	1041.92,251.28 1039.58,251.28 1030.04,251.27 1009.8,251.22 995.94,251.18 980.23,251.11 959.5,251.07 941.69,251.07 
	922.38,251.07 900.36,251.11 889.21,251 888.76,251 888.32,251.08 887.97,251.41 887.67,251.91 887.49,252.43 887.26,252.97 
	886.84,253.32 886.49,253.68 886.01,254.11 885.24,254.47 884.91,254.68 "/>
<polygon class="st15" points="1064.85,211.46 1064.58,211.93 1064.23,212.63 1063.78,213.48 1063.51,214.24 1063.18,215.17 
	1062.88,216.11 1062.62,216.97 1062.36,217.99 1062.27,218.61 1062.21,219.57 1062.21,220.4 1062.21,222.06 1062.21,222.62 
	1062.21,223.24 1062.33,223.93 1062.51,224.74 1062.62,225.52 1062.84,226.39 1063.05,227.01 1063.23,227.65 1063.53,228.41 
	1063.75,228.97 1064.02,229.59 1064.33,230.23 1064.6,230.84 1064.95,231.33 1065.3,231.91 1065.76,232.53 1066.18,233.15 
	1066.69,233.73 1067.14,234.3 1067.6,234.76 1068.08,235.34 1068.51,235.82 1068.97,236.14 1069.58,236.65 1070.18,237.11 
	1070.68,237.51 1071.11,237.83 1071.65,238.24 1072.31,238.56 1073.06,239.02 1073.69,239.39 1074.41,239.76 1075.15,240.09 
	1075.83,240.33 1076.5,240.6 1077.19,240.83 1077.78,241.02 1078.45,241.24 1079.14,241.45 1079.92,241.58 1080.62,241.74 
	1081.42,241.82 1082.29,241.93 1083.01,241.93 1084.21,241.93 1086.73,241.93 1087.58,241.93 1088.36,241.78 1089.12,241.7 
	1089.83,241.53 1090.56,241.34 1091.41,241.16 1092.03,240.97 1092.89,240.68 1093.81,240.32 1094.58,239.93 1095.44,239.58 
	1096.11,239.21 1096.83,238.8 1097.5,238.42 1098.19,237.95 1098.75,237.56 1099.35,237.06 1099.86,236.61 1100.52,236.04 
	1101.04,235.58 1101.46,235.19 1102.02,234.62 1102.43,234.12 1102.81,233.66 1103.24,233.06 1103.66,232.45 1104.07,231.87 
	1104.36,231.41 1104.68,230.85 1104.98,230.28 1105.24,229.78 1105.56,229.19 1105.83,228.57 1106.13,227.84 1106.37,227.26 
	1106.55,226.69 1106.68,226.11 1106.82,225.36 1106.93,224.82 1107.03,224.3 1107.11,223.78 1107.11,222.89 1107.11,222.06 
	1107.11,219.67 1107.11,219.06 1107.11,218.44 1106.93,217.55 1106.64,216.64 1106.39,215.76 1106.13,214.91 1105.83,214.18 
	1105.49,213.4 1105.06,212.5 1104.76,211.91 1104.41,211.26 1103.98,210.46 1103.55,209.85 1103.04,209.14 1102.42,208.39 
	1101.7,207.62 1101.23,207.14 1100.63,206.54 1099.83,205.88 1099.22,205.36 1098.57,204.86 1097.8,204.32 1096.97,203.81 
	1096.21,203.33 1095.31,202.88 1094.42,202.47 1093.48,202.07 1092.68,201.75 1091.85,201.46 1091.05,201.17 1090.24,200.95 
	1089.47,200.78 1088.58,200.6 1087.66,200.47 1086.73,200.39 1086.03,200.39 1082.92,200.39 1082.23,200.47 1081.51,200.58 
	1080.91,200.65 1080.04,200.82 1079.25,201 1078.51,201.17 1077.78,201.37 1077.12,201.54 1076.55,201.77 1075.94,202 
	1075.26,202.28 1074.62,202.52 1073.93,202.82 1073.26,203.19 1072.62,203.54 1072,203.94 1071.27,204.41 1070.73,204.81 
	1070.15,205.26 1069.69,205.61 1069.19,206.01 1068.65,206.49 1068.27,206.89 1067.68,207.45 1067.34,207.86 1066.91,208.34 
	1066.55,208.77 1066.1,209.26 1065.67,209.84 1065.36,210.35 "/>
<polygon class="st15" points="825.07,174.34 825.19,173.7 825.37,172.92 825.56,172.32 825.75,171.68 826.02,171.19 826.29,170.7 
	826.59,170.17 826.93,169.7 827.31,169.14 827.67,168.66 828.23,168.22 828.74,167.88 829.25,167.47 829.79,167.06 830.28,166.8 
	830.88,166.49 831.49,166.2 832.2,165.98 832.89,165.79 833.52,165.66 834.1,165.58 834.73,165.48 835.32,165.48 836.07,165.48 
	836.58,165.48 837.29,165.6 837.8,165.72 838.5,165.9 839.12,166.1 839.83,166.33 840.52,166.64 841.26,167.03 841.77,167.38 
	842.33,167.8 842.9,168.28 843.47,168.89 843.97,169.44 844.46,169.91 844.75,170.44 845.08,171.02 845.45,171.59 845.78,172.26 
	845.84,172.76 846.07,173.72 846.15,174.48 846.15,175.42 846.15,176.26 846.07,177.3 845.94,178 845.76,178.52 845.45,179.12 
	845.08,179.78 844.73,180.43 844.32,180.9 843.89,181.51 843.43,181.99 842.93,182.43 842.57,182.7 842.11,183.03 841.52,183.42 
	841.14,183.62 840.61,183.94 840.14,184.16 839.52,184.42 838.94,184.58 838.39,184.74 837.85,184.85 837.27,184.99 836.45,184.99 
	835.61,184.99 834.94,184.99 834.68,184.99 834.22,184.99 833.48,184.88 832.79,184.72 832.3,184.51 831.52,184.32 830.96,184.04 
	830.31,183.73 829.64,183.3 828.98,182.86 828.45,182.4 827.91,181.89 827.39,181.35 827.01,180.84 826.58,180.22 826.18,179.6 
	825.78,178.96 825.57,178.36 825.35,177.72 825.16,177.09 825.07,176.42 825.07,175.64 825.07,174.9 "/>
<polygon class="st15" points="849.26,240.97 849.65,240.92 850.34,240.8 850.86,240.71 851.62,240.56 852.34,240.36 852.96,240.2 
	853.62,240.01 854.44,239.71 854.74,239.61 855.02,239.51 855.25,239.42 855.62,239.27 855.87,239.17 856.19,239.02 856.5,238.88 
	856.85,238.73 857.25,238.53 857.67,238.31 857.99,238.14 858.31,237.94 858.74,237.67 859.09,237.43 859.52,237.12 860.07,236.76 
	860.4,236.56 860.87,236.2 861.12,236.03 861.4,235.84 861.73,235.54 862.03,235.27 862.45,234.83 862.67,234.62 863.09,234.22 
	863.32,234 863.8,233.47 864.11,233.12 864.4,232.75 864.67,232.35 864.93,232 865.2,231.56 865.45,231.17 865.85,230.6 
	866.18,230.03 866.41,229.49 866.7,228.9 867.02,228.18 867.33,227.4 867.62,226.53 867.91,225.57 868.2,224.32 868.33,223.68 
	868.47,222.87 868.52,221.96 868.57,220.56 868.52,218.87 868.48,217.72 868.34,216.84 868.08,215.85 867.79,214.84 867.44,213.75 
	867.01,212.61 866.5,211.48 865.93,210.56 865.34,209.65 864.45,208.38 863.82,207.63 863.18,206.9 862.58,206.26 861.8,205.51 
	860.95,204.76 860.03,204.03 859.28,203.48 858.41,202.95 857.15,202.26 855.9,201.69 855.19,201.37 854.01,200.92 853.29,200.6 
	852.36,200.28 851.43,200.04 850.29,199.81 849.17,199.61 848.33,199.54 847.37,199.48 846.23,199.45 845.08,199.45 844.45,199.45 
	843.45,199.5 842.49,199.61 841.54,199.79 840.73,199.95 840.09,200.12 839.28,200.3 838.44,200.59 837.75,200.81 837.07,201.05 
	836.49,201.32 835.78,201.63 835.01,202.06 834.17,202.57 833.46,202.91 832.61,203.41 831.93,203.91 831.22,204.48 830.7,204.89 
	830.12,205.38 829.46,205.95 828.88,206.58 828.24,207.28 827.72,207.9 827.08,208.69 826.52,209.59 826.07,210.45 825.57,211.41 
	825.16,212.26 824.72,213.03 824.38,214 824.15,214.62 823.91,215.37 823.76,216.27 823.61,217.08 823.48,217.92 823.46,218.78 
	823.45,219.54 823.45,220.44 823.46,221.24 823.49,221.93 823.6,222.74 823.73,223.6 823.84,224.32 824.07,225.12 824.35,226.29 
	824.77,227.31 825.29,228.51 826.03,229.84 826.75,231.12 827.57,232.29 828.49,233.38 829.29,234.27 830.15,235.08 831.28,236.08 
	832.34,236.91 833.35,237.6 834.4,238.19 835.62,238.83 836.58,239.29 837.99,239.9 839.54,240.43 840.94,240.8 842.04,241.04 
	842.82,241.15 843.36,241.22 843.84,241.22 844.34,241.22 844.89,241.22 845.64,241.22 846.26,241.22 847.24,241.22 847.8,241.22 
	848.05,241.22 848.37,241.07 848.69,241.03 "/>
<polygon class="st16" points="1076.92,222.06 1076.92,220.6 1077.37,220.15 1077.71,219.77 1078.24,219.48 1078.49,219.32 
	1079.88,219.32 1080.3,219.65 1080.63,219.86 1080.94,220.15 1081.15,220.5 1081.15,222.06 1081.15,222.26 1080.86,222.55 
	1080.55,222.89 1080.09,223.24 1078.66,223.24 1077.91,222.86 1077.25,222.39 "/>
<polygon class="st17" points="1078.51,222.37 1077.87,221.83 1077.87,220.71 1078.19,220.35 1078.51,220.08 1079.7,220.08 
	1080.18,220.42 1080.49,220.83 1080.49,221.93 1079.97,222.37 "/>
<polygon class="st16" points="1082.04,223.13 1082.04,219.38 1084.33,219.38 1084.76,219.69 1084.97,220.08 1084.97,221.22 
	1084.66,221.64 1084.31,221.76 1082.75,221.72 1082.73,223.13 "/>
<polygon class="st17" points="1082.73,220.08 1082.73,221.16 1084.1,221.16 1084.43,220.87 1084.43,220.37 1084.16,220.17 "/>
<polygon class="st18" points="1085.47,219.32 1085.49,223.24 1088.61,223.24 1088.61,222.37 1086.33,222.37 1086.33,221.62 
	1088.61,221.66 1088.61,220.79 1086.27,220.81 1086.22,220.08 1088.61,220.08 1088.59,219.32 "/>
<polygon class="st16" points="1089.31,219.32 1089.31,223.24 1090.37,223.24 1090.37,220.89 1090.37,220.62 1090.62,220.79 
	1090.91,221.26 1092.54,223.19 1092.57,223.28 1093.1,223.28 1093.2,223.28 1093.16,219.27 1092.62,219.27 1092.61,221.92 
	1092.61,222.04 1092.46,222.05 1092.33,221.93 1092.23,221.79 1090.45,219.4 1090.37,219.27 "/>
<polyline class="st19" points="850.55,254.68 849.06,254.68 847.82,254.68 846.29,254.68 845.17,254.68 843.76,254.68 
	842.96,254.68 842.11,254.53 842.43,254.34 842.73,254.08 843.23,253.62 843.51,253.35 843.81,253.1 844.14,252.8 844.22,252.59 
	844.21,252.17 844.21,251.38 844.19,248.36 844.17,245.13 844.22,241.45 844.34,241.22 844.89,241.22 845.64,241.22 846.26,241.22 
	847.24,241.22 847.8,241.22 848.19,241.28 848.19,241.9 848.19,242.76 848.19,244.05 848.19,245.44 848.19,247.35 848.19,249.05 
	848.19,250.93 848.19,252.47 848.19,252.89 848.25,253.06 848.63,253.37 848.84,253.58 849.5,254.09 850.02,254.47 850.55,254.68 
	"/>
<polygon class="st20" points="834.82,221.75 834.82,221.36 834.82,220.97 834.82,220.53 834.82,219.82 834.82,219.26 834.82,218.74 
	834.82,218.45 834.82,218.28 835.11,218.28 835.31,218.28 835.63,218.28 835.92,218.28 836.29,218.28 836.63,218.28 836.8,218.28 
	836.94,218.28 837.14,218.28 837.38,218.33 837.53,218.45 837.72,218.65 837.88,218.85 837.94,219.06 837.94,219.29 837.94,219.52 
	837.94,219.77 837.94,220.01 837.86,220.14 837.71,220.26 837.58,220.41 837.4,220.55 837.15,220.64 836.93,220.75 836.55,220.77 
	836.38,220.77 836.04,220.77 835.74,220.77 835.55,220.77 835.4,220.81 835.34,220.92 835.34,221.15 835.36,221.42 835.35,221.55 
	835.34,221.75 835.17,221.75 835.02,221.75 "/>
<polygon class="st21" points="835.35,220.01 835.35,219.65 835.35,219.42 835.39,219.28 835.52,219.24 835.63,219.24 835.81,219.24 
	836.02,219.24 836.29,219.24 836.55,219.24 836.75,219.24 836.91,219.24 837.1,219.28 837.24,219.32 837.35,219.42 837.35,219.63 
	837.35,219.79 837.2,219.88 836.94,219.97 836.81,220.01 836.46,220.01 836.14,220.01 835.61,220.01 "/>
<polygon class="st22" points="838.66,220.88 838.66,220.18 838.66,219.63 838.72,219.33 838.93,219.16 839.22,218.86 839.45,218.71 
	839.64,218.52 839.78,218.41 839.94,218.28 840.13,218.28 840.44,218.28 840.82,218.28 841.12,218.28 841.3,218.28 841.51,218.33 
	841.67,218.41 841.9,218.55 842.12,218.73 842.32,218.94 842.48,219.17 842.65,219.42 842.84,219.68 842.93,219.86 842.93,220.33 
	842.93,220.58 842.93,220.76 842.93,221 842.93,221.19 842.69,221.39 842.38,221.75 842.06,221.98 841.85,222.11 841.62,222.22 
	841.37,222.22 841.01,222.22 840.66,222.22 840.21,222.22 840.06,222.22 839.74,222.01 839.49,221.84 839.27,221.65 838.96,221.37 
	838.86,221.19 "/>
<polygon class="st23" points="839.19,220.68 839.19,219.91 839.28,219.74 839.48,219.58 839.7,219.42 839.93,219.24 840.2,219.24 
	840.55,219.24 840.84,219.24 841.13,219.24 841.3,219.3 841.48,219.36 841.65,219.45 841.84,219.63 841.96,219.74 842.07,219.81 
	842.07,219.92 842.14,220.13 842.14,220.33 842.14,220.68 842.04,220.9 841.87,221.25 841.71,221.33 841.43,221.33 841.03,221.33 
	840.66,221.33 840.22,221.33 840.04,221.33 839.81,221.23 839.61,221.05 839.38,220.91 "/>
<polygon class="st24" points="843.07,218.77 843.33,219.24 843.55,219.63 843.68,220.1 843.84,220.4 843.96,220.73 844.12,221.08 
	844.19,221.45 844.33,221.75 844.49,221.75 844.64,221.75 844.79,221.75 845.02,221.75 845.12,221.33 845.21,221.03 845.32,220.71 
	845.5,220.33 845.64,220.01 845.75,219.73 846.01,219.74 846.18,219.74 846.33,219.93 846.41,220.28 846.53,220.79 846.67,221.14 
	846.87,221.5 847.04,221.75 847.21,221.75 847.43,221.75 847.69,221.75 847.84,221.33 847.97,220.88 848.15,220.43 848.38,219.93 
	848.49,219.54 848.55,219.24 848.63,218.94 848.63,218.77 848.32,218.77 848.04,218.71 847.93,219.05 847.84,219.45 847.7,220.01 
	847.6,220.28 847.44,220.62 847.33,220.79 847.1,220.79 846.9,220.6 846.81,220.16 846.69,219.63 846.49,219.24 846.38,218.92 
	846.29,218.71 846.01,218.71 845.85,218.71 845.69,218.71 845.52,219.03 845.32,219.46 845.19,219.85 845.07,220.23 844.96,220.5 
	844.87,220.76 844.62,220.79 844.27,220.23 844.13,219.79 843.99,219.31 843.75,218.91 843.65,218.71 "/>
<polygon class="st24" points="849.61,218.39 850.06,218.39 850.59,218.39 851.21,218.39 851.76,218.39 852.15,218.39 852.31,218.39 
	852.31,218.64 852.31,218.96 852.31,219.23 852.1,219.23 851.73,219.23 851.34,219.23 850.83,219.23 850.42,219.23 850.16,219.23 
	850.15,219.55 850.15,219.75 850.48,219.75 852.31,219.75 852.31,220.77 850.12,220.77 850.12,221.28 852.31,221.28 852.31,222.22 
	849.03,222.22 849.03,218.39 "/>
<polygon class="st24" points="852.9,222.13 852.9,219 852.98,218.85 853.12,218.77 853.28,218.64 853.41,218.48 853.52,218.39 
	853.63,218.28 855.53,218.28 855.85,218.49 856.18,218.72 856.59,218.99 856.69,219.16 856.69,219.51 856.69,219.73 856.57,219.96 
	856.37,220.13 856.22,220.26 856.13,220.33 856.18,220.76 856.41,220.98 856.63,221.24 856.69,221.54 856.69,221.75 856.69,221.98 
	856.69,222.13 856.51,222.13 856.19,222.13 855.78,222.13 855.56,222.13 855.59,221.72 855.59,221.36 855.59,221.12 855.58,220.92 
	855.55,220.79 855.31,220.78 854.91,220.77 854.61,220.76 854.26,220.76 854.02,220.78 853.95,221.06 853.97,221.29 853.97,221.65 
	853.97,221.85 853.95,222.13 "/>
<rect x="853.95" y="219.27" class="st25" width="1.64" height="0.54"/>
<polyline class="st26" points="887.67,251.91 887.67,244.47 887.67,227.04 887.67,216.11 887.67,207.56 "/>
<polyline class="st26" points="1043.28,251.3 1043.28,242.4 1043.28,232.14 1043.28,222.77 1043.15,209.21 "/>
<polyline class="st26" points="887.56,44.63 887.56,54.01 887.56,65.98 887.56,77.86 887.56,88.6 "/>
<polyline class="st26" points="1041.96,42.53 1041.96,56.58 1041.96,67.36 1041.96,81.35 1041.91,88.41 "/>
<path class="st26" d="M887.56,88.6"/>
<line class="st27" x1="831.15" y1="174.94" x2="829.58" y2="174.84"/>
<polyline class="st27" points="829.58,176.1 829.58,175.81 829.58,174.84 829.58,174.16 829.58,173.91 829.58,173.76 830.07,173.76 
	830.49,173.76 830.85,173.76 831.02,173.76 831.4,174.04 831.4,174.32 831.4,174.49 831.4,174.67 831.28,174.91 831.4,175.72 
	831.4,175.85 831.4,176.1 "/>
<polyline class="st27" points="834.17,174.04 832.32,174.04 832.16,174.04 832.16,175.99 832.16,176.17 834.11,176.17 "/>
<line class="st27" x1="834.09" y1="175.03" x2="832.16" y2="175.03"/>
<polyline class="st27" points="836.63,174.47 836.4,174.32 836.22,174.19 836.01,174.12 835.61,174.12 835.27,174.12 835.03,174.3 
	834.86,174.47 834.86,174.68 835.01,174.93 835.34,175.03 835.67,175.1 836.01,175.17 836.22,175.17 836.4,175.34 836.5,175.64 
	836.49,175.86 836.35,176.1 836.09,176.17 835.74,176.17 835.45,176.17 835.18,176.1 835,175.95 834.75,175.71 "/>
<polyline class="st27" points="839.11,174.12 837.34,174.12 837.34,176.44 839.11,176.44 "/>
<line class="st27" x1="839.11" y1="175.24" x2="837.34" y2="175.24"/>
<polyline class="st27" points="839.52,174.32 839.76,174.32 841.88,174.32 "/>
<line class="st27" x1="840.7" y1="176.44" x2="840.7" y2="174.32"/>
<polyline class="st26" points="1049.65,201.15 1052.1,202.74 1053.68,203.73 1055.52,204.76 1056.81,205.54 1058.32,206.42 
	1060.41,207.78 1061.48,208.41 1062.73,209.18 1063.58,209.81 1064.16,210.23 1064.58,210.48 1065.14,210.84 1065.23,210.64 
	1065.3,210.48 1065.44,210.22 1065.61,209.94 1065.81,209.65 1066.01,209.38 1066.26,209.08 1066.19,208.93 1066.01,208.71 
	1065.48,208.37 1064.89,207.99 1063.97,207.46 1063.05,206.85 1062.21,206.29 1061.44,205.89 1060.6,205.36 1059.74,204.83 
	1058.83,204.28 1057.72,203.64 1056.88,203.11 1056.12,202.66 1055.35,202.2 1054.73,201.75 1054.01,201.3 1053.34,200.85 
	1052.5,200.25 1051.84,199.85 1050.93,199.35 1050.34,200.19 1049.65,201.15 "/>
<polygon class="st14" points="1019.15,228.38 1022.09,226.66 1024.78,224.86 1027.81,222.75 1030.18,220.82 1032.73,218.93 
	1034.84,217.3 1037.09,215.32 1039.07,213.38 1040.96,211.41 1043.15,209.21 1045.18,206.88 1047.16,204.59 1048.69,202.48 
	1050.5,199.97 1052.87,196.59 1054.72,193.51 1056.65,190.26 1058.06,187.35 1060.08,183.4 1061.75,178.96 1062.9,175.48 
	1064.08,171.66 1065.01,167.74 1065.76,164.01 1066.19,161.02 1066.55,158.2 1066.85,155.65 1067.03,153.89 1067.03,151.34 
	1067.03,148.65 1067.03,145.58 1067.03,143.43 1066.77,140.35 1066.55,138.5 1066.19,136.33 1065.84,134.28 1065.36,131.64 
	1064.92,129.27 1064.04,125.97 1063.16,123.11 1062.24,120.21 1061.27,117.53 1060.3,115.16 1058.85,111.95 1057.62,109.22 
	1056.04,106.45 1055.03,104.43 1053.84,102.54 1052.65,100.47 1051.2,98.49 1049.78,96.92 1048.67,95.4 1047.27,93.83 
	1045.99,92.49 1045,91.61 1043.84,90.51 1042.84,89.28 1041.91,88.41 1040.98,87.3 1039.46,85.67 1038.18,84.33 1036.14,82.17 
	1034.98,81.18 1033.58,80.02 1032.35,78.85 1030.72,77.57 1028.62,75.94 1026.93,74.77 1024.43,73.02 1022.15,71.45 1019.59,69.88 
	1017.26,68.71 1014.35,66.96 1011.08,65.39 1007.7,63.99 1004.15,62.36 1001.23,61.31 997.15,60.03 993.48,58.92 989.93,57.99 
	987.01,57.29 983.28,56.59 980.72,56.12 978.04,55.83 975.18,55.54 970.87,55.54 965.06,55.25 962.24,55.25 958.57,55.25 
	954.72,55.6 948.9,56.12 944.53,56.7 939.22,57.87 934.15,59.27 929.9,60.61 924.77,62.36 919.47,64.57 915.33,66.73 911.42,68.94 
	907.34,71.68 903.96,73.84 900.47,76.34 897.49,78.73 894.99,80.89 892.48,83.45 890.73,85.32 888.64,87.3 886.89,89.4 
	885.08,91.67 882.17,95.29 880.18,97.97 878.14,101.35 876.22,104.38 874.47,107.17 873.31,109.62 872.14,112.13 870.86,115.39 
	869.58,118.83 868.24,122.27 867.48,125.77 866.26,130.25 866.03,132.02 865.82,134.24 865.61,136.33 865.36,138.33 865.25,140.1 
	865.04,142.14 864.9,144.85 864.9,147.35 864.9,149.17 864.9,151.65 864.9,153.7 864.9,155.17 865.13,157.59 865.32,158.61 
	865.53,160.06 865.9,161.72 866.07,162.48 866.2,163.24 866.28,164.21 866.41,165.43 866.66,166.4 866.83,167.54 867.08,168.81 
	867.42,170.07 867.84,171.46 868.31,173.24 868.69,174.67 869.57,176.95 870.12,178.25 870.63,179.69 871.18,180.91 871.68,182.13 
	872.4,183.74 872.95,185 873.87,186.94 875.01,189.05 875.86,190.48 876.87,192.38 877.88,194.07 879.02,196.09 879.99,197.61 
	881.04,199.17 882.39,201.11 883.49,202.55 885.18,204.61 886.95,206.8 889.06,209 890.83,210.9 892.6,212.75 894.75,214.73 
	896.73,216.34 898.5,217.94 900.74,219.79 903.18,221.61 905.42,223.17 908.12,224.81 910.52,226.33 912.97,227.81 915.2,229.07 
	917.73,230.25 920.98,231.73 923.38,232.99 926.76,234.3 929.5,235.31 932.28,236.24 934.98,237.25 937.89,238.01 940.72,238.73 
	943.71,239.4 946.79,239.99 949.32,240.46 951.94,240.8 954.93,241.13 957.23,241.49 959.42,241.69 961.03,241.69 963.33,241.69 
	965.85,241.69 967.91,241.69 970.83,241.69 973.26,241.69 975.5,241.38 977.75,241.16 979.72,240.96 982.26,240.63 985.07,240.12 
	987.77,239.56 990.36,238.99 993.48,238.19 996.31,237.37 998.94,236.6 1001.93,235.6 1004.56,234.7 1007.39,233.61 1010.16,232.42 
	1012.5,231.42 1015.04,230.21 1017.15,229.39 "/>
<polyline class="st27" points="949.85,201.73 949.85,197.91 949.85,197.66 950.36,197.66 951.03,197.66 951.51,197.66 
	951.98,197.77 952.2,198.02 952.34,198.46 952.34,198.82 952.34,199.26 952.14,199.7 951.83,199.93 951.09,199.93 950.6,199.93 
	950,199.95 "/>
<line class="st27" x1="953.82" y1="197.66" x2="953.82" y2="201.73"/>
<polyline class="st27" points="955.56,198.71 956.96,198.71 957.27,198.88 957.51,199.13 957.51,199.77 957.51,199.97 
	957.51,201.42 957.51,201.73 955.69,201.73 955.36,201.51 955.16,201.19 955.16,200.86 955.16,200.51 955.51,200.22 955.76,200.08 
	956.16,200 956.45,200 956.71,200 957,199.97 957.22,199.97 "/>
<line class="st27" x1="961.58" y1="198.71" x2="959.24" y2="203.53"/>
<line class="st27" x1="958.78" y1="198.71" x2="960.09" y2="201.42"/>
<polyline class="st27" points="964.75,197.66 963.18,197.66 962.93,197.89 962.73,198.22 962.73,199.13 963.02,199.37 
	963.42,199.55 963.74,199.55 964.09,199.55 964.44,199.7 964.75,200.06 964.75,200.42 964.75,200.77 964.75,201.24 964.51,201.55 
	964.2,201.73 962.73,201.73 "/>
<polyline class="st27" points="966.35,198.02 966.35,201.57 966.75,201.73 967.2,201.73 "/>
<line class="st27" x1="967.6" y1="198.71" x2="966.44" y2="198.71"/>
<polyline class="st27" points="968.8,198.71 970.22,198.71 970.53,198.93 970.71,199.22 970.71,201.53 970.48,201.73 969.97,201.73 
	968.86,201.73 968.57,201.42 968.33,201.12 968.33,200.64 968.66,200.33 969,200.22 969.33,200.06 969.86,200.06 970.15,200.06 
	970.53,200.06 "/>
<polyline class="st27" points="972.42,198.02 972.42,201.42 972.77,201.73 973.24,201.73 "/>
<line class="st27" x1="973.62" y1="198.71" x2="972.53" y2="198.71"/>
<line class="st27" x1="974.75" y1="197.53" x2="974.75" y2="197.86"/>
<line class="st27" x1="974.75" y1="198.71" x2="974.75" y2="201.91"/>
<polygon class="st27" points="976.33,200.88 976.33,199.87 976.44,199.46 976.57,199.15 976.73,198.95 976.99,198.71 977.86,198.71 
	978.33,198.8 978.64,199.06 978.81,199.44 978.81,200.13 978.81,200.88 978.68,201.31 978.41,201.57 978.13,201.73 977.21,201.73 
	976.79,201.55 976.48,201.28 "/>
<polyline class="st27" points="982.79,201.82 982.79,199.26 982.63,198.97 982.23,198.71 980.41,198.71 980.41,201.91 "/>
<polygon class="st28" points="953.11,94.46 953.11,92.65 952.68,92.78 952.15,92.83 951.65,92.55 950.87,92.32 950.4,92.32 
	948.54,92.32 948.01,92.45 947.46,92.63 946.75,92.8 946.28,93.05 945.82,93.61 945.82,94.96 946.28,95.24 946.88,95.54 
	947.71,95.76 948.44,95.92 949.34,96.02 950.09,96.02 951.4,96.02 951.98,96.44 952.3,96.82 952.28,97.3 951.85,97.57 951.3,97.8 
	950.67,97.8 950.02,97.8 949.47,97.8 948.71,97.8 947.98,97.62 947.51,97.27 947.11,96.9 946.78,96.52 946.63,96.27 945.82,96.29 
	945.82,98.53 946.53,98.53 946.83,98.53 946.93,98.2 947.31,98.23 947.91,98.53 948.69,98.68 949.47,98.78 950.27,98.78 
	951.15,98.78 952.08,98.5 952.73,98.2 953.28,97.87 953.61,97.4 953.61,96.59 953.61,96.07 953.36,95.66 953.06,95.34 952.48,95.04 
	951.78,94.91 951.02,94.84 950.09,94.79 949.24,94.69 948.36,94.53 947.61,94.28 947.31,94.06 947.31,93.68 947.71,93.43 
	948.08,93.15 948.59,93 949.24,92.93 950.87,93 951.45,93.18 951.8,93.53 952.25,93.96 952.71,94.48 "/>
<polygon class="st28" points="958.21,98.78 957.08,98.25 956.32,97.65 955.82,97.05 955.44,96.52 955.44,94.86 955.85,94.16 
	956.42,93.61 957.13,93.05 957.98,92.55 958.76,92.32 961.24,92.32 962,92.5 962.88,92.85 963.35,93.18 964.11,93.73 964.46,94.51 
	964.46,96.39 964.23,97.12 963.76,97.57 963.03,98.13 962.35,98.4 961.7,98.78 "/>
<polygon class="st29" points="959.39,97.82 958.51,97.62 957.93,97.22 957.55,96.79 957.38,96.27 957.38,95.84 957.38,95.01 
	957.6,94.43 957.93,93.96 958.38,93.63 958.81,93.28 959.09,93.1 960.59,93.1 961.4,93.48 961.97,93.88 962.33,94.33 962.63,94.86 
	962.63,96.42 962.25,96.95 961.77,97.42 961.24,97.82 "/>
<polygon class="st30" points="971.92,92.63 971.92,93.33 973.02,93.33 973.02,96.17 968.91,92.63 965.87,92.63 965.87,93.33 
	966.9,93.35 966.9,97.82 965.87,97.82 965.87,98.4 969.45,98.4 969.36,97.82 968.15,97.82 968.13,94.41 968.58,94.41 973.02,98.28 
	973.02,98.53 974.46,98.53 974.46,93.35 975.51,93.35 975.51,92.63 "/>
<polygon class="st30" points="976.45,92.63 976.45,93.37 977.57,93.37 980.06,96.02 980.06,97.84 978.97,97.84 978.97,98.53 
	983.37,98.53 983.37,97.73 982.06,97.73 981.96,96.21 984.81,93.41 985.96,93.41 985.96,92.63 982.32,92.63 982.34,93.31 
	983.16,93.35 983.14,93.73 981.89,95.11 981.21,95.09 979.71,93.46 979.71,93.24 980.6,93.24 980.58,92.63 "/>
<polygon class="st31" points="962.97,194.32 962,193.91 961.45,193.72 960.65,193.58 959.76,193.58 958.78,193.5 957.98,193.5 
	957.21,193.34 956.33,193.12 955.57,192.88 954.87,192.52 954.26,192.01 954.14,191.41 954.31,190.97 954.89,190.54 955.54,190.2 
	956.33,189.89 956.7,190.11 956.99,190.27 957.51,190.47 958.12,190.71 958.56,190.93 959.04,191.29 958.41,191.55 957.88,191.72 
	957.9,192.11 958.43,192.11 959.09,192.11 959.71,192.11 960.09,192.11 960.27,191.77 960.56,191.62 960.94,191.62 961.4,191.62 
	961.93,191.7 962.29,191.84 962.63,191.91 962.97,192.11 963.23,192.27 963.23,192.85 963.23,194.32 "/>
<polygon class="st32" points="967.02,195.46 969.79,194.52 969.52,194.15 968.97,193.91 968.33,193.72 967.6,193.65 967.02,193.65 
	"/>
<polygon class="st33" points="956.33,189.89 957.35,189.57 958.5,189.18 959.24,188.93 959.96,188.7 960.85,188.38 961.58,188.15 
	962.27,188.31 962.73,188.47 963.23,188.63 963.23,192.27 962.63,191.91 962.29,191.84 961.93,191.7 961.4,191.62 960.94,191.62 
	960.56,191.62 960.27,191.77 960.09,192.11 959.71,192.11 959.09,192.11 958.43,192.11 957.9,192.11 957.88,191.72 958.41,191.55 
	959.04,191.29 958.56,190.93 958.12,190.71 957.51,190.47 956.99,190.27 956.7,190.11 "/>
<polygon class="st34" points="961.58,188.15 962.31,187.65 962.73,187.46 963.23,187.46 963.23,188.63 962.73,188.47 962.27,188.31 
	"/>
<polygon class="st35" points="963.23,189.77 962.4,190.21 961.79,190.46 960.76,190.85 959.96,191.1 959.04,191.29 958.41,191.55 
	957.88,191.72 957.9,192.11 958.43,192.11 959.09,192.11 959.71,192.11 960.09,192.11 960.27,191.77 960.56,191.62 960.94,191.62 
	961.4,191.62 961.83,191.39 962.01,191.33 962.15,191.3 962.54,191.2 962.84,191.17 "/>
<polygon class="st36" points="963.23,192.11 963.23,191.42 963.23,190.63 962.92,190.86 962.84,191.17 962.54,191.2 962.15,191.3 
	961.83,191.39 961.4,191.62 961.93,191.7 962.29,191.84 962.63,191.91 962.97,192.11 963.23,192.27 "/>
<polygon class="st37" points="967.02,193.65 967.02,193.04 967.75,192.9 968.48,192.67 969.28,192.6 969.68,192.27 970.27,192.11 
	970.72,192.03 971.14,191.82 971.47,191.7 972.08,191.63 972.57,191.63 973.24,191.63 973.91,191.72 974.34,191.87 974.88,192.11 
	975.47,192.4 974.75,192.85 974.27,193.02 973.24,193.37 972.52,193.65 971.68,193.93 970.67,194.21 969.79,194.52 969.52,194.15 
	968.97,193.91 968.33,193.72 967.6,193.65 "/>
<polygon class="st37" points="966.92,189.89 967.67,190.04 968.64,190.21 969.41,190.47 969.93,190.81 969.44,191.11 968.7,191.29 
	967.9,191.63 966.92,191.98 "/>
<polygon class="st38" points="967.02,189.69 968.62,189.37 969.56,189.18 970.73,189 971.72,188.89 972.56,188.89 973.51,188.98 
	974.78,189.15 975.73,189.29 976.72,189.77 977.43,190.34 977.69,190.75 977.69,191.22 977.62,191.76 977.26,192.11 976.69,192.19 
	976.05,192.38 975.47,192.4 974.88,192.11 974.34,191.87 973.58,191.67 972.57,191.63 972.75,191.45 973.07,191.33 973.42,191.26 
	973.89,191.13 974.18,191.05 974.32,190.53 974.33,190.36 974.04,190.21 973.77,190.14 973.35,190.14 972.9,190.14 972.52,190.21 
	971.96,190.32 971.46,190.53 970.92,190.75 970.3,190.81 969.93,190.81 969.41,190.47 968.64,190.21 967.67,190.04 966.92,189.89 
	"/>
<polygon class="st39" points="963.14,194.55 967.02,195.46 966.92,188.25 966.92,184.94 966.92,183.38 966.92,182.09 966.92,181.61 
	966.92,181.38 967.41,181.38 968.24,181.38 968.56,181.38 968.74,181.59 968.74,181.86 968.74,187.46 968.95,187.83 969.2,188.05 
	969.57,188.05 970.21,188.05 970.88,188.05 971.36,187.88 971.66,187.46 972.07,187.12 972.42,186.64 972.62,186.46 972.81,186.16 
	972.81,185.77 972.81,184.8 972.81,183.45 972.71,182.97 972.46,182.58 972.05,182.05 971.66,181.66 971.25,181.24 970.65,180.88 
	970.03,180.56 969.43,180.28 968.67,179.96 967.97,179.73 967.3,179.48 966.61,179.27 965.96,179.02 965.35,178.86 964.79,178.74 
	964.15,178.63 963.44,178.63 963.14,178.63 963.23,187.46 "/>
<path class="st40" d="M960.86,164.98"/>
<path class="st40" d="M960.48,157.41"/>
<polyline class="st41" points="277.22,249.16 276.44,249.16 275.28,248.97 274.2,248.68 273.51,248.32 272.77,247.86 272.16,247.31 
	271.81,246.76 271.43,246.22 271.43,244.16 271.43,238.07 271.43,207.4 271.43,167.71 271.43,134.97 271.43,96.06 271.43,47.14 
	271.43,46.39 271.43,45.66 271.43,45.3 271.69,44.77 272.11,44.27 272.57,43.66 273.05,43.29 273.68,42.91 274.16,42.75 
	274.71,42.54 275.45,42.36 275.98,42.23 276.52,42.23 276.89,42.16 277.22,42.16 277.5,42.16 277.65,42.16 277.2,42.34 276.61,42.8 
	276.32,43.34 276.11,44.09 276.11,44.7 276.11,46.02 276.11,59.75 276.11,77.09 276.11,104.66 276.11,117.76 276.11,152.61 
	276.11,187.56 276.11,217.6 276.11,247.93 276.52,248.55 277.22,249.16 "/>
<polyline class="st42" points="279.74,249.43 279.07,249.7 278.21,249.57 277.22,249.16 276.52,248.55 276.11,247.93 276.11,246.24 
	276.11,194.67 276.11,142.05 276.11,90.41 276.11,47.39 276.11,45.67 276.11,44.7 276.11,44.09 276.32,43.34 276.61,42.8 
	277.2,42.34 277.92,42.05 278.6,41.86 279.24,41.86 280.09,41.96 279.72,42.35 279.35,42.86 279.02,43.27 278.94,43.62 
	278.83,44.05 278.83,44.68 278.83,45.19 278.83,46.18 278.83,58.72 278.83,69.34 278.83,98.61 278.83,141.8 278.83,199.09 
	278.83,202.75 278.83,203.56 278.94,203.95 279.08,204.15 279.26,204.44 279.49,204.68 279.61,205.09 279.62,206.9 279.62,237.33 
	279.62,238.5 279.55,238.93 279.24,239.21 279.02,239.54 278.83,240.21 278.83,240.71 278.83,241.69 278.83,246.56 278.83,247.7 
	278.93,248.12 279.12,248.48 279.29,248.79 279.48,249.12 279.74,249.43 "/>
<polyline class="st43" points="287.57,251.23 286.85,251.37 286.33,251.3 285.73,251.23 285.15,251.05 284.57,250.81 284.11,250.57 
	283.62,250.1 283.32,249.74 283.16,249.24 283.06,248.6 283.06,243.32 283.06,225.32 283.06,210.37 283.06,168.31 283.06,104.92 
	283.06,53.01 283.06,43.68 283.06,43 283.21,42.54 283.33,42.03 283.6,41.56 283.96,41.03 284.24,40.77 284.53,40.6 284.85,40.52 
	285.21,40.35 285.52,40.31 285.82,40.31 286.25,40.26 286.67,40.26 286.85,40.26 287.06,40.26 287.44,40.31 287,40.65 286.67,41 
	286.41,41.36 286.18,41.85 286.08,42.28 286.02,42.86 286.01,43.49 286.01,44.09 286.01,55.17 286.01,88.46 286.01,128.55 
	286.01,164.35 286.01,208.53 286.01,245.94 286.01,249.12 286.01,249.59 286.1,249.91 286.4,250.29 286.63,250.51 287.57,251.23 "/>
<path class="st26" d="M286.25,41.64"/>
<path class="st26" d="M286.48,41.24"/>
<path class="st26" d="M285.74,39.68"/>
<polygon class="st44" points="284.3,250.65 283.87,250.65 283.16,250.52 282.35,250.29 281.72,250.14 281.03,249.9 280.57,249.74 
	280.07,249.6 279.74,249.43 279.48,249.12 279.29,248.79 279.12,248.48 278.93,248.12 278.83,247.7 278.83,240.71 278.83,240.21 
	279.02,239.54 279.24,239.21 279.55,238.93 279.62,238.5 279.62,237.33 279.61,235.29 279.62,234.49 279.6,230.9 279.62,226.82 
	279.62,221.22 279.62,216.29 279.62,209.82 279.61,205.09 279.49,204.68 279.26,204.44 279.08,204.15 278.94,203.95 278.83,203.56 
	278.83,202.75 278.83,200.14 278.83,197.06 278.83,176.09 278.83,134.66 278.83,98.61 278.83,75.13 278.83,51.19 278.83,45.19 
	278.83,44.05 278.94,43.62 279.02,43.27 279.35,42.86 279.72,42.35 280.09,41.96 280.54,41.6 281.09,41.3 281.61,41.19 
	282.33,40.97 283.06,40.85 283.64,40.8 283.95,40.8 284.15,40.85 283.87,41.17 283.71,41.4 283.49,41.74 283.39,41.92 283.29,42.2 
	283.24,42.43 283.17,42.67 283.1,42.86 283.06,43.18 283.06,43.41 283.06,43.92 283.06,56.99 283.06,79.05 283.06,109.16 
	283.06,153.43 283.06,204.53 283.06,232.17 283.06,247.82 283.09,248.82 283.21,249.4 283.44,249.88 283.74,250.21 "/>
<polyline class="st45" points="291.83,252.02 291.42,252.24 290.36,252.24 289.29,252.02 288.42,251.64 287.57,251.23 
	286.77,250.64 286.23,250.12 286.01,249.75 286.01,248.25 286.01,246.85 286.01,204.87 286.01,135.66 286.01,42.99 286.1,42.07 
	286.25,41.64 286.48,41.24 286.86,40.75 287.44,40.31 288.09,40.01 288.92,39.76 289.68,39.5 290.53,39.29 291.27,39.1 291.83,39 
	292.18,39.04 290.84,40.59 290.7,53.4 290.7,107.13 290.7,142.28 290.7,224.34 290.88,251.09 291.83,252.02 "/>
<polyline class="st46" points="288.65,51.09 288.65,50.46 288.65,49.98 288.65,49.61 288.65,49.38 288.6,49.2 288.51,49.07 
	288.41,49 288.3,49 288.26,49.11 288.26,49.27 288.26,49.5 288.26,49.78 288.26,50.05 288.26,50.36 288.26,50.67 288.26,50.91 
	288.26,51.05 288.21,51.17 288.1,51.24 287.98,51.17 287.91,51.02 287.91,50.86 287.91,50.47 287.91,50.01 287.91,49.66 
	287.91,49.36 287.91,49 "/>
<polygon class="st46" points="288.74,55.05 288.74,54.48 288.74,54.03 288.74,53.7 288.74,53.57 288.69,53.35 288.65,53.23 
	288.54,53.12 288.42,53.01 288.28,53.01 288.12,53.01 287.91,53.01 287.83,53.19 287.75,53.39 287.72,53.64 287.72,53.81 
	287.72,54.24 287.72,54.83 287.72,55 287.72,55.26 287.8,55.63 287.91,55.84 288.19,55.88 288.45,55.77 288.65,55.65 288.74,55.46 
	"/>
<polyline class="st46" points="287.86,57.46 288.23,57.46 288.5,57.46 288.74,57.46 288.81,57.68 288.81,57.92 288.62,58.2 
	287.86,59.36 287.79,59.55 287.79,59.78 287.86,59.98 288.12,59.98 288.35,59.98 288.57,59.98 288.81,59.98 "/>
<polyline class="st46" points="288.81,62.12 288.59,62.32 288.45,62.5 288.3,62.66 288.17,62.86 288.17,63.06 288.17,63.24 
	288.3,63.47 288.49,63.64 288.68,63.78 288.81,63.85 "/>
<polyline class="st46" points="287.58,63.07 287.79,63.07 287.99,63.07 288.17,63.06 "/>
<polyline class="st40" points="289.09,225.23 289.09,226.33 289.09,227.92 289.09,230.01 289.02,230.32 288.83,230.47 
	288.61,230.47 288.44,230.47 288.36,230.31 288.36,229.78 288.36,229.22 288.36,225.83 288.32,225.57 288.21,225.39 288.09,225.23 
	287.94,225.14 287.78,225.06 287.59,225 287.41,225 "/>
<polyline class="st40" points="289.04,237.92 289.04,236.77 289.04,235.98 289.04,235.13 288.98,234.84 288.83,234.68 
	288.65,234.61 288.41,234.61 288.1,234.61 287.78,234.61 287.6,234.51 287.51,234.3 287.51,233.92 287.51,233.36 287.51,233.02 
	287.51,232.17 "/>
<polyline class="st40" points="286.85,243.46 288.83,243.46 288.97,243.46 288.97,242.97 287.91,239.14 287.84,238.89 
	287.76,238.67 287.65,238.54 287.45,238.54 287.43,238.8 287.44,239 287.43,239.34 287.51,244.59 "/>
<circle class="st47" cx="385.08" cy="113.69" r="13.38"/>
<circle class="st48" cx="388.67" cy="115.76" r="15.44"/>
<circle class="st48" cx="393.41" cy="120.32" r="16.9"/>
<circle class="st48" cx="382.03" cy="119.25" r="16.9"/>
<circle class="st49" cx="391.26" cy="118.35" r="18.03"/>
<path class="st48" d="M290.7,249.82v-72.98c0-6.61,0-27.61,0-37.39c0-1.32,0-3.04,0-4.69c0-0.49,0-0.98,0-1.45c0-1.51,0-2.8,0-3.44
	c0-0.53,0-1.05,0-1.58c0-17.9,0-35.79,0-53.69V42.55v-0.61v-0.53v-0.43l0.14-0.39l0.19-0.31l0.17-0.29l0.19-0.28l0.31-0.26
	l0.25-0.23l0.23-0.19l0.26-0.2l0.26-0.2h0.71h11.66h6.06h9.4h9.31h7.55h8.92h6.77h6.98h5.32h7.84h7.37h8.98h6.24h6.21h7.16h7.54
	h9.54h29.1h31.51h26.78h5.04h1.5h1.08h0.57l0.48,0.07l0.38,0.16l0.44,0.31l0.22,0.23l0.32,0.26l0.1,0.13l0.39,0.38l0.23,0.31
	l0.34,0.38l0.19,0.28v0.61v8.1v17.52v15.75v21.71v38.26v28.22v24.63v23.66v22.02v8.2v0.37l-0.09,0.38l-0.2,0.34l-0.2,0.26
	l-0.22,0.24l-0.22,0.36l-0.28,0.26l-0.24,0.2l-0.38,0.18l-0.39,0.22l-0.59,0.18h-23.56h-24.43h-28.29h-23.59H397h-30.22h-65.72h-7.6
	l-0.67-0.25l-0.28-0.07l-0.4-0.24l-0.5-0.35l-0.41-0.4l-0.31-0.38l-0.18-0.24v-0.52L290.7,249.82L290.7,249.82z"/>
<circle class="st50" cx="385.37" cy="106.42" r="1.22"/>
<polygon class="st51" points="291.13,127.95 307.01,118.98 319.61,110.02 328.07,102.35 335.15,96.2 343.6,87.91 353.27,77.9 
	358.96,68.24 366.38,57.46 369.84,50.12 372.77,41.86 373.22,38.64 292.7,38.64 290.84,40.59 "/>
<path class="st51" d="M456.8,38.64c0,0-1.86-2.19,2.37,14.36c4.22,16.55,1.69,6.98,1.69,6.98s0.93,1.79,4.27,8.22
	s-1.32-3.04,4.52,8.7s7.1,13.18,7.1,13.18l4.73,5.41l4.39,4.73l5.41,4.97l4.39,4.82l4.39,6.09l3.72,4.06l4.73,4.06l4.39,1.69
	l4.73,2.38l7.31,2.35V41.76l-2.61-3.05L456.8,38.64z"/>
<polygon class="st52" points="404.11,134.76 404.11,141.58 404.11,148.53 404.11,154.27 404.11,155.03 404.26,155.21 404.52,155.3 
	404.82,155.41 405.19,155.54 405.71,155.79 406.1,155.91 406.59,155.99 407.03,156.15 407.44,156.32 407.94,156.43 408.41,156.53 
	408.85,156.58 409.14,156.58 409.29,156.41 409.29,156.12 409.29,154.83 409.29,152.87 409.29,151.6 409.29,150.31 409.29,148.83 
	409.29,146.75 409.29,144.71 409.29,142.89 409.29,140.77 409.29,139.45 409.39,139.12 409.55,138.89 409.77,138.72 409.95,138.64 
	410.11,138.64 410.32,138.62 410.46,138.64 410.61,138.68 410.78,138.81 410.87,138.95 410.98,139.18 411.09,139.45 411.09,139.69 
	411.09,141.02 411.09,142.87 411.09,144.5 411.09,146.17 411.09,146.73 411.28,146.95 411.56,147.11 411.82,147.2 412.09,147.28 
	412.38,147.38 412.64,147.44 413.1,147.58 413.45,147.65 413.73,147.65 413.9,147.65 414.22,147.65 414.45,147.66 414.81,147.64 
	415.07,147.54 415.32,147.33 415.62,147.09 415.85,146.85 416.06,146.67 416.28,146.48 416.47,146.15 416.61,145.83 416.8,145.5 
	416.9,145.13 416.99,144.71 417.09,144.4 417.09,144.01 417.09,143.75 417.09,143.4 417.09,142.91 417.09,142.51 417.09,142.15 
	417.09,141.78 417.01,141.41 416.9,141.17 416.76,140.9 416.62,140.58 416.42,140.28 416.23,139.94 416.06,139.71 415.89,139.45 
	415.59,139.04 415.27,138.68 414.92,138.38 414.32,137.97 413.78,137.73 413.27,137.36 412.72,137.19 411.47,136.69 410.7,136.46 
	409.78,136.19 408.6,135.82 407.62,135.45 406.78,135.15 406.09,134.97 405.67,134.95 405.31,134.92 404.87,134.9 404.67,134.89 "/>
<path class="st40" d="M404.11,153.58"/>
<path class="st40" d="M403.77,146.73"/>
<polygon class="st52" points="404.11,153.58 403.77,153.69 403.45,153.92 403.3,154 402.89,154.05 402.5,154.05 402.13,154.05 
	401.58,154.05 401.01,154.05 400.13,154.05 399.21,154.05 398.51,153.99 397.86,153.96 397.5,153.87 397.03,153.81 396.55,153.81 
	396.1,153.68 395.66,153.58 395.24,153.44 394.86,153.33 394.46,153.17 394.12,153.01 393.77,152.82 393.44,152.64 393.16,152.39 
	392.98,152.23 392.88,152.06 392.88,151.83 392.79,151.6 392.79,151.31 392.95,151.1 393.17,150.91 393.51,150.64 393.85,150.45 
	394.41,150.16 394.97,149.92 395.67,149.68 396.55,149.37 397.17,149.18 397.95,148.91 398.67,148.65 399.51,148.38 400.49,148.07 
	401.41,147.77 402.1,147.6 402.88,147.34 403.39,147.2 403.77,147.1 404.11,147.06 404.11,147.52 404.11,148.21 404.11,148.92 
	404.11,149.44 404.11,149.65 403.92,149.76 403.77,149.83 403.51,149.91 403.26,150.03 402.92,150.19 402.49,150.33 401.94,150.47 
	401.49,150.64 400.79,150.84 400.36,150.95 399.92,151.05 399.58,151.21 399.21,151.31 398.81,151.44 398.51,151.53 398.23,151.65 
	398.04,151.78 397.92,151.95 397.93,152.11 398.01,152.29 398.23,152.44 398.45,152.59 398.79,152.61 399.2,152.61 399.57,152.54 
	399.97,152.45 400.68,152.22 401.19,152.14 401.8,151.92 402.38,151.75 402.92,151.51 403.41,151.31 403.66,151.27 404.11,151.16 
	404.11,151.51 404.11,152.04 404.11,152.77 "/>
<polygon class="st52" points="410.4,149.18 411.36,148.79 412.31,148.63 413.18,148.41 413.88,148.26 414.55,148.26 415.3,148.14 
	415.81,148.14 416.5,148.14 417.09,148.14 417.72,148.24 418.18,148.27 418.82,148.32 419.51,148.38 420.3,148.53 420.79,148.63 
	421.31,148.89 421.75,149.12 422.18,149.38 422.71,149.54 423.13,149.8 423.41,150.13 423.62,150.36 423.72,150.74 423.72,151 
	423.59,151.31 423.38,151.65 423.13,151.88 422.82,152.17 422.5,152.38 422.05,152.61 421.7,152.81 421.15,153.06 420.66,153.23 
	420.11,153.41 419.61,153.54 419.15,153.66 418.6,153.76 417.98,153.9 417.33,154.16 416.6,154.44 415.85,154.67 415.1,154.91 
	414.41,155.15 413.5,155.42 412.59,155.73 411.79,155.99 410.92,156.19 410.36,156.19 409.84,156.27 409.29,156.27 409.29,155.09 
	409.29,154.32 409.64,154.13 410.16,153.96 410.79,153.75 411.65,153.51 412.64,153.2 413.27,152.99 414.09,152.64 415.08,152.21 
	415.98,151.74 416.79,151.55 417.33,151.37 417.94,151.2 418.28,151.06 418.66,150.89 418.9,150.74 418.91,150.55 418.84,150.36 
	418.59,150.23 418.35,150.17 417.82,150.09 417.4,150.08 417.09,150.12 416.5,150.26 416.04,150.34 415.39,150.55 414.82,150.61 
	414.21,150.82 413.67,151.07 413.18,151.23 412.59,151.39 412.15,151.59 411.47,151.88 410.92,152.12 410.48,152.21 410.15,152.29 
	409.29,152.47 409.29,151.74 409.29,150.88 409.29,150.1 409.29,149.74 409.29,149.45 409.59,149.35 409.99,149.26 "/>
<ellipse class="st53" cx="371.98" cy="105.2" rx="20.81" ry="31.82"/>
<ellipse class="st53" cx="438.22" cy="103.7" rx="20.81" ry="31.82"/>
<polygon class="st54" points="328.07,102.35 348.48,102.35 348.48,108.9 320.84,108.9 "/>
<rect x="394.55" y="102.35" class="st54" width="21" height="6.55"/>
<polygon class="st54" points="460.82,102.35 488.17,102.35 494.65,108.9 460.82,108.9 "/>
<path class="st55" d="M361.71,67.36l2.81-2.48l3.8-2.99l2.31-0.87l4.2-0.76h5.21h3.11c1.45-0.34,2.9-0.68,4.35-1.02
	c1-0.67,2-1.33,3-2c0.67-0.33,1.33-0.67,2-1c0,1,0,2,0,3c0,0.67,0,1.33,0,2s0,1.33,0,2c0,0.33,0,0.67,0,1c-0.33,0.33-0.67,0.67-1,1
	c-0.67,0.33-1.33,0.67-2,1c-1,0.33-2,0.67-3,1c-1.44,0.59-2.88,1.18-4.32,1.77h-2.64h-2.97h-4.62h-3.47h-3.3h-1.16h-1.16
	L361.71,67.36z"/>
<polygon class="st13" points="387.69,72.89 389.85,71.49 391.75,70.86 393.27,70.23 394.91,70.23 396.05,70.23 397.45,70.23 
	399.35,70.73 400.74,70.99 403.09,70.99 404.67,70.86 407.2,70.73 409.36,69.47 411.26,68.83 413.79,68.2 415.56,68.2 416.96,68.2 
	418.73,68.96 420.5,69.85 421.64,70.54 422.28,71.37 418.73,70.54 416.83,69.97 415.31,69.85 412.52,70.54 411,71.49 409.1,72.04 
	406.7,72.89 403.91,72.89 400.74,72.89 398.84,72.04 396.43,72.04 395.17,72.04 393.52,72.04 391.87,72.89 390.35,72.89 "/>
<polygon class="st13" points="387.69,79.1 389.85,77.71 391.75,77.08 393.27,76.44 394.91,76.44 396.05,76.44 397.45,76.44 
	399.35,76.95 400.74,77.2 403.09,77.2 404.67,77.08 407.2,76.95 409.36,75.68 411.26,75.05 413.79,74.42 415.56,74.42 416.96,74.42 
	418.73,75.18 420.5,76.06 421.64,76.76 422.28,77.58 418.73,76.76 416.83,76.19 415.31,76.06 412.52,76.76 411,77.71 409.1,78.25 
	406.7,79.1 403.91,79.1 400.74,79.1 398.84,78.25 396.43,78.25 395.17,78.25 393.52,78.25 391.87,79.1 390.35,79.1 "/>
<polygon class="st56" points="371.83,153.74 368.62,155.34 365.16,157.84 362.31,160.99 358.87,164.46 356.02,168.58 353.17,172.7 
	350.09,177.72 346.89,182.23 344.87,185.11 342.5,190.32 340.14,194.56 338.73,200.02 337.55,204.57 340.99,198.18 344.24,193.46 
	347.98,186.88 350.35,182.64 352.42,178.57 356.16,173.47 359,168.87 362.21,165.33 364.82,161.15 "/>
<polygon class="st56" points="478.09,200.6 477.36,197.37 475.83,193.62 473.55,190.12 471.11,186.01 467.92,182.15 464.74,178.3 
	460.75,173.92 457.28,169.63 455.07,166.91 450.74,163.05 447.32,159.55 442.53,156.38 438.55,153.74 443.73,158.91 447.38,163.32 
	452.66,168.81 456.08,172.32 459.41,175.52 463.3,180.47 466.95,184.5 469.5,188.43 472.8,192.11 "/>
<polygon class="st57" points="370.65,157.76 369.38,158.44 368.87,159.28 368.87,160.13 368.87,161.48 368.19,163.68 367.77,165.8 
	367.26,168.67 367.26,172.65 366.42,176.79 366.42,179.42 366.42,186.27 366.84,192.7 367.52,196.16 368.53,199.63 369.55,203.18 
	372.59,208.94 374.28,211.22 375.3,213 376.65,213.67 376.06,209.27 376.06,207.5 376.65,206.31 378.26,210.97 380.97,216.72 
	383.59,220.19 385.87,222.81 388.24,225.18 390.02,226.45 390.78,226.45 390.78,224.5 390.19,221.79 390.1,220.44 392.22,224.5 
	393.99,226.87 395.68,228.56 397.71,230.42 400.17,231.94 402.45,233.38 404.14,234.23 405.76,234.82 406.26,234.82 407.44,234.23 
	410.57,232.45 413.45,230.84 415.39,229.32 417.42,227.21 419.28,225.01 420.81,222.39 421.65,220.52 421.65,222.47 421.14,224.84 
	420.72,226.28 421.14,226.7 422.24,226.28 423.17,225.09 426.05,222.64 428.33,220.1 429.86,217.99 431.63,215.03 432.9,212.15 
	434.09,208.85 434.85,206.4 434.85,208.01 435.44,209.95 435.44,211.9 434.76,213.93 435.44,213.76 436.54,212.91 438.15,210.63 
	439.84,207.58 441.7,204.71 442.54,201.92 443.83,197.53 444.71,192.07 444.71,188.6 444.99,182.39 444.58,174.89 444.1,171.35 
	442.8,164.26 442.05,161.12 441.51,159.28 440.08,157.76 439.12,157.76 "/>
<ellipse class="st58" cx="371.7" cy="103.7" rx="16.72" ry="24.6"/>
<ellipse class="st58" cx="438.22" cy="103.7" rx="16.72" ry="24.6"/>
<path class="st59" d="M351,133.74c0.92,3.39,3.17,3.6,4,7c0.58,2.39,0.41,6.1-2,8c-2.23,1.76-6.21,1.83-8,0
	c-4.77-4.89,6.43-23.02,6.99-22.79C352.24,126.06,349.87,129.57,351,133.74z"/>
<path class="st59" d="M338,157.74c1.34,3.44,3.78,3.58,4,6c0.23,2.5-2.07,5.79-5,6c-2.25,0.16-4.12-1.57-5-3
	c-2.05-3.35-0.14-7.5,1-10c1.1-2.39,3.04-5.33,4-5C337.85,152.03,336.75,154.53,338,157.74z"/>
<ellipse class="st60" cx="374.75" cy="103.49" rx="8.25" ry="12.75"/>
<ellipse class="st60" cx="441.92" cy="104.11" rx="8.25" ry="12.75"/>
<path class="st61" d="M417,125.74"/>
<ellipse class="st61" cx="446.36" cy="96.82" rx="4.14" ry="4.58"/>
<ellipse class="st61" cx="379.32" cy="95.47" rx="4.14" ry="4.58"/>
<path class="st61" d="M370.5,115.6c-0.04-0.65-0.24-2.32-1.5-3.86c-1.8-2.22-4.38-2.46-4.86-2.5c0.48-0.04,3.06-0.28,4.86-2.5
	c1.26-1.55,1.46-3.22,1.5-3.86c0.04,0.65,0.24,2.32,1.5,3.86c1.8,2.22,4.38,2.46,4.86,2.5c-0.65,0.04-2.32,0.24-3.86,1.5
	C370.78,112.54,370.54,115.12,370.5,115.6z"/>
<path class="st61" d="M437.95,116.99c-0.04-0.65-0.24-2.32-1.5-3.86c-1.8-2.22-4.38-2.46-4.86-2.5c0.48-0.04,3.06-0.28,4.86-2.5
	c1.26-1.55,1.46-3.22,1.5-3.86c0.04,0.65,0.24,2.32,1.5,3.86c1.8,2.22,4.38,2.46,4.86,2.5c-0.65,0.04-2.32,0.24-3.86,1.5
	C438.24,113.92,437.99,116.5,437.95,116.99z"/>
<path class="st62" d="M385,124.74c-2.59,5.53-7.67,9.06-13,9c-3.94-0.05-6.82-2.06-8-3c-2.43-1.94-3.8-4.01-5-6
	c-1.64-2.73-2.52-5.24-3-7c3.42,3.44,6.14,4.07,8,4c3.3-0.12,3.93-2.45,8-3c3.7-0.5,4.8,1.2,9,1c3.04-0.14,5.46-1.18,7-2
	C387.16,119.75,386.3,121.76,385,124.74z"/>
<path class="st55" d="M450.63,66.4l-2.81-2.48l-3.8-2.99l-2.31-0.87l-4.2-0.76h-5.21h-3.11c-1.45-0.34-2.9-0.68-4.35-1.02
	c-1-0.67-2-1.33-3-2c-0.67-0.33-1.33-0.67-2-1c0,1,0,2,0,3c0,0.67,0,1.33,0,2s0,1.33,0,2c0,0.33,0,0.67,0,1c0.33,0.33,0.67,0.67,1,1
	c0.67,0.33,1.33,0.67,2,1c1,0.33,2,0.67,3,1c1.44,0.59,2.88,1.18,4.32,1.77h2.64h2.97h4.62h3.47h3.3h1.16h1.16L450.63,66.4z"/>
<path class="st59" d="M328.05,181.85c1.34,3.44,3.78,3.58,4,6c0.23,2.5-2.07,5.79-5,6c-2.25,0.16-4.12-1.57-5-3
	c-2.05-3.35-0.14-7.5,1-10c1.1-2.39,3.04-5.33,4-5C327.91,176.14,326.8,178.64,328.05,181.85z"/>
<path class="st59" d="M458.72,133.57c-0.92,3.39-3.17,3.6-4,7c-0.58,2.39-0.41,6.1,2,8c2.23,1.76,6.21,1.83,8,0
	c4.77-4.89-6.43-23.02-6.99-22.79C457.47,125.88,459.85,129.4,458.72,133.57z"/>
<path class="st59" d="M476.51,157.57c-1.34,3.44-3.78,3.58-4,6c-0.23,2.5,2.07,5.79,5,6c2.25,0.16,4.12-1.57,5-3
	c2.05-3.35,0.14-7.5-1-10c-1.1-2.39-3.04-5.33-4-5C476.65,151.87,477.76,154.36,476.51,157.57z"/>
<path class="st59" d="M490.57,181.57c-1.34,3.44-3.78,3.58-4,6c-0.23,2.5,2.07,5.79,5,6c2.25,0.16,4.12-1.57,5-3
	c2.05-3.35,0.14-7.5-1-10c-1.1-2.39-3.04-5.33-4-5C490.72,175.87,491.83,178.36,490.57,181.57z"/>
<path class="st62" d="M451.73,122.45c-2.59,5.53-7.67,9.06-13,9c-3.94-0.05-6.82-2.06-8-3c-2.43-1.94-3.8-4.01-5-6
	c-1.64-2.73-2.52-5.24-3-7c3.42,3.44,6.14,4.07,8,4c3.3-0.12,3.93-2.45,8-3c3.7-0.5,4.8,1.2,9,1c3.04-0.14,5.46-1.18,7-2
	C453.89,117.46,453.03,119.47,451.73,122.45z"/>
</svg>
