<?xml version="1.0" encoding="utf-8"?>
<!-- Generator: Adobe Illustrator 25.1.0, SVG Export Plug-In . SVG Version: 6.00 Build 0)  -->
<svg version="1.1" id="Layer_1" xmlns="http://www.w3.org/2000/svg" xmlns:xlink="http://www.w3.org/1999/xlink" x="0px" y="0px"
	 viewBox="0 0 1280.75 445.66" style="enable-background:new 0 0 1280.75 445.66;" xml:space="preserve">
<style type="text/css">
	.st0{fill:#FFFFFF;stroke:#000000;stroke-width:5;stroke-miterlimit:10;}
	.st1{fill:#A47449;stroke:#654321;stroke-width:5;stroke-miterlimit:10;}
	.st2{fill:#654321;stroke:#654321;stroke-width:5;stroke-miterlimit:10;}
	.st3{fill:#A2FFA3;stroke:#654321;stroke-width:5;stroke-miterlimit:10;}
	.st4{fill:#4575FF;stroke:#654321;stroke-width:5;stroke-miterlimit:10;}
	.st5{fill:#001700;stroke:#654321;stroke-width:5;stroke-miterlimit:10;}
	.st6{fill:#007331;stroke:#654321;stroke-width:5;stroke-miterlimit:10;}
	.st7{fill:#FFFFFF;stroke:#FFFFFF;stroke-width:3;stroke-miterlimit:10;}
	.st8{fill:#696969;stroke:#A9A9A9;stroke-width:3;stroke-miterlimit:10;}
	.st9{fill:#8BFFBC;stroke:#A9A9A9;stroke-miterlimit:10;}
	.st10{fill:#8BFFBC;stroke:#A9A9A9;stroke-width:0.9999;stroke-miterlimit:9.9994;}
	.st11{fill:#8BFFBC;stroke:#A9A9A9;stroke-width:1;stroke-miterlimit:9.9996;}
	.st12{fill:#2EFFC1;stroke:#A9A9A9;stroke-miterlimit:10;}
	.st13{stroke:#000000;stroke-miterlimit:10;}
	.st14{fill:#AFAEB2;stroke:#000000;stroke-miterlimit:10;}
	.st15{fill:#8E8D91;stroke:#000000;stroke-miterlimit:10;}
	.st16{fill:#86D6DA;stroke:#000000;stroke-width:0.5;stroke-miterlimit:10;}
	.st17{fill:#868589;stroke:#000000;stroke-width:0.5;stroke-miterlimit:10;}
	.st18{fill:#98D4D9;stroke:#000000;stroke-width:0.5;stroke-miterlimit:10;}
	.st19{fill:#ACAEB1;stroke:#000000;stroke-miterlimit:10;}
	.st20{fill:#5CB7A4;stroke:#000000;stroke-width:0.25;stroke-miterlimit:10;}
	.st21{fill:#8A898D;stroke:#000000;stroke-width:0.25;stroke-miterlimit:10;}
	.st22{fill:#73B5A5;stroke:#000000;stroke-width:0.25;stroke-miterlimit:10;}
	.st23{fill:#87868A;stroke:#000000;stroke-width:0.25;stroke-miterlimit:10;}
	.st24{fill:#82B3A6;stroke:#000000;stroke-width:0.25;stroke-miterlimit:10;}
	.st25{fill:#8D8C90;stroke:#000000;stroke-width:0.25;stroke-miterlimit:10;}
	.st26{fill:none;stroke:#000000;stroke-miterlimit:10;}
	.st27{fill:none;stroke:#000000;stroke-width:0.5;stroke-miterlimit:10;}
	.st28{fill:#555358;stroke:#000000;stroke-width:0.5;stroke-miterlimit:10;}
	.st29{fill:#B7B7B9;stroke:#000000;stroke-width:0.5;stroke-miterlimit:10;}
	.st30{fill:#505150;stroke:#000000;stroke-width:0.5;stroke-miterlimit:10;}
	.st31{fill:#F3AB40;}
	.st32{fill:#E9AD55;}
	.st33{fill:#43967F;}
	.st34{fill:#245EA9;}
	.st35{fill:#ADAEB1;}
	.st36{fill:none;}
	.st37{fill:#599480;}
	.st38{fill:#2964BF;}
	.st39{fill:#C6332A;}
	.st40{fill:#FFF2EB;stroke:#000000;stroke-miterlimit:10;}
	.st41{fill:#FFF7F3;stroke:#000000;stroke-miterlimit:10;}
	.st42{fill:#6C707F;stroke:#000000;stroke-miterlimit:10;}
	.st43{fill:#FFC4A6;stroke:#000000;stroke-miterlimit:10;}
	.st44{fill:#FFDAC3;stroke:#000000;stroke-miterlimit:10;}
	.st45{fill:#E5EAFF;stroke:#000000;stroke-miterlimit:10;}
	.st46{fill:#CB997E;stroke:#000000;stroke-miterlimit:10;}
	.st47{fill:url(#SVGID_1_);stroke:#000000;stroke-miterlimit:10;}
	.st48{fill:url(#SVGID_2_);stroke:#000000;stroke-miterlimit:10;}
	.st49{fill:none;stroke:#000817;stroke-miterlimit:10;}
	.st50{fill:#26272A;stroke:#000000;stroke-miterlimit:10;}
	.st51{fill:#3E3F44;stroke:#000000;stroke-miterlimit:10;}
	.st52{fill:#52545A;stroke:#000000;stroke-miterlimit:10;}
	.st53{fill:#282A2E;stroke:#000000;stroke-miterlimit:10;}
	.st54{fill:#2B2C31;stroke:#000817;stroke-miterlimit:10;}
	.st55{fill:none;stroke:#000000;stroke-width:0.25;stroke-miterlimit:10;}
	.st56{fill:#00B98F;stroke:#000817;stroke-miterlimit:10;}
	.st57{fill:#56585D;stroke:#000817;stroke-miterlimit:10;}
	.st58{fill:#FFFFFF;stroke:#000000;stroke-miterlimit:10;}
	.st59{fill:#FFFFFF;stroke:#000817;stroke-miterlimit:10;}
	.st60{fill:#948F8F;stroke:#000817;stroke-miterlimit:10;}
	.st61{fill:#1F2023;stroke:#000817;stroke-miterlimit:10;}
	.st62{opacity:0.73;fill:#ADB2AE;stroke:#4D4545;stroke-width:7;stroke-miterlimit:10;enable-background:new    ;}
	.st63{fill:#4D4545;stroke:#4D4545;stroke-width:3;stroke-miterlimit:10;}
	.st64{fill:#B2B1AA;stroke:#000000;stroke-miterlimit:10;}
	.st65{stroke:#000000;stroke-width:0.75;stroke-miterlimit:10;}
	.st66{fill:#B2B1AA;stroke:#000000;stroke-width:0.75;stroke-miterlimit:10;}
	.st67{fill:#FFFFFF;stroke:#ECBCB4;stroke-miterlimit:10;}
	.st68{fill:#ECBCB4;stroke:#ECBCB4;stroke-miterlimit:10;}
	.st69{stroke:#A27100;stroke-miterlimit:10;}
	.st70{fill:#8BE1FF;stroke:#A27100;stroke-width:0.25;stroke-miterlimit:10;}
	.st71{fill:#D48BFF;stroke:#D48BFF;stroke-width:3;stroke-miterlimit:10;}
	.st72{font-family:'ArialMT';}
	.st73{font-size:21px;}
	.st74{fill:#FFFFFF;stroke:#000000;stroke-width:1;stroke-miterlimit:9.9996;}
</style>
<rect x="1.35" class="st0" width="1275.9" height="446.11"/>
<polygon class="st1" points="2.11,0 2.11,445.66 1278,445.66 1278,0.3 "/>
<rect x="2.11" y="13.54" class="st2" width="1275.14" height="17.05"/>
<rect x="2.66" y="265.13" class="st2" width="1275.14" height="17.05"/>
<rect x="192.44" y="315.21" class="st3" width="85.66" height="54.7"/>
<ellipse class="st4" cx="193.94" cy="405.48" rx="7.52" ry="19.56"/>
<ellipse class="st5" cx="239.08" cy="403.23" rx="10.53" ry="21.82"/>
<polygon class="st6" points="210.45,381.41 259.53,381.41 251.12,396.46 220.01,396.46 "/>
<path class="st7" d="M466.16,231.34H316.01c-17.12,0-31-13.88-31-31v-31.28c0-17.12,13.88-31,31-31h150.15c17.12,0,31,13.88,31,31
	v31.28C497.16,217.46,483.28,231.34,466.16,231.34z"/>
<polygon class="st8" points="187.73,445.66 163.85,367.87 187.73,294.15 278.1,294.15 300.78,369.91 278.1,445.66 "/>
<rect x="190.93" y="313.7" class="st9" width="85.66" height="54.7"/>
<ellipse transform="matrix(0.9522 -0.3056 0.3056 0.9522 -113.0998 78.2051)" class="st10" cx="193.22" cy="400.32" rx="7.33" ry="14.34"/>
<ellipse transform="matrix(0.4072 -0.9133 0.9133 0.4072 -201.6617 489.343)" class="st11" cx="276.15" cy="400.03" rx="14.34" ry="7.33"/>
<polygon class="st12" points="227.04,403.98 249.61,403.98 258.03,388.93 208.94,388.93 218.5,403.98 "/>
<ellipse class="st9" cx="204.11" cy="431.79" rx="14.34" ry="7.33"/>
<ellipse class="st9" cx="235.7" cy="431.79" rx="14.34" ry="7.33"/>
<ellipse class="st9" cx="267.3" cy="431.79" rx="14.34" ry="7.33"/>
<path class="st8" d="M524.94,445.66c0,0-3.02-95.32,0-104.61c3.02-9.3,31.6-37.88,79.75-37.88s65.38,27.62,66.54,37.88
	s0,104.61,0,104.61"/>
<path class="st13" d="M541.5,343.8v21.53c0,0,13.54-0.46,16.55-0.46s9.06-1.04,9.04-10.3c-0.01-9.26-6.47-10.76-9.26-10.76
	S541.5,343.8,541.5,343.8z"/>
<path class="st13" d="M541.5,385.92v21.53c0,0,13.54-0.46,16.55-0.46s9.06-1.04,9.04-10.3c-0.01-9.26-6.47-10.76-9.26-10.76
	S541.5,385.92,541.5,385.92z"/>
<path class="st13" d="M585.13,343.8v21.53c0,0,13.54-0.46,16.55-0.46s9.06-1.04,9.04-10.3s-6.47-10.76-9.26-10.76
	S585.13,343.8,585.13,343.8z"/>
<path class="st13" d="M585.13,385.92v21.53c0,0,13.54-0.46,16.55-0.46s9.06-1.04,9.04-10.3s-6.47-10.76-9.26-10.76
	S585.13,385.92,585.13,385.92z"/>
<path class="st13" d="M585.13,419.02v21.53c0,0,13.54-0.46,16.55-0.46s9.06-1.04,9.04-10.3s-6.47-10.76-9.26-10.76
	S585.13,419.02,585.13,419.02z"/>
<path class="st13" d="M631.78,385.92v21.53c0,0,13.54-0.46,16.55-0.46s9.06-1.04,9.04-10.3s-6.47-10.76-9.26-10.76
	S631.78,385.92,631.78,385.92z"/>
<path class="st13" d="M633.28,419.02v21.53c0,0,13.54-0.46,16.55-0.46s9.06-1.04,9.04-10.3s-6.47-10.76-9.26-10.76
	C646.82,419.02,633.28,419.02,633.28,419.02z"/>
<path class="st7" d="M466.16,231.34H316.01c-17.12,0-31-13.88-31-31v-31.28c0-17.12,13.88-31,31-31h150.15c17.12,0,31,13.88,31,31
	v31.28C497.16,217.46,483.28,231.34,466.16,231.34z"/>
<polygon class="st14" points="884.34,254.98 850.55,254.98 850.29,254.89 850.02,254.77 849.79,254.6 849.5,254.39 849.14,254.11 
	848.84,253.88 848.63,253.67 848.38,253.51 848.25,253.36 848.19,253.19 848.19,253 848.19,252.77 848.19,251.23 848.19,249.35 
	848.19,247.65 848.19,245.74 848.19,244.85 848.19,244.35 848.19,241.58 848.37,241.37 848.69,241.33 849.26,241.27 849.65,241.22 
	850.34,241.1 850.86,241.01 851.62,240.86 852.34,240.66 852.96,240.5 853.62,240.31 854.44,240.01 854.74,239.91 855.02,239.81 
	855.25,239.72 855.44,239.64 855.62,239.57 855.87,239.47 856.19,239.32 856.5,239.18 856.85,239.03 857.25,238.83 857.67,238.61 
	857.99,238.44 858.31,238.24 858.74,237.97 859.09,237.73 859.52,237.42 859.78,237.25 860.07,237.06 860.4,236.86 860.61,236.71 
	860.87,236.5 861.12,236.33 861.4,236.14 861.73,235.84 862.03,235.57 862.22,235.39 862.45,235.13 862.67,234.92 862.89,234.7 
	863.09,234.52 863.32,234.3 863.59,234.01 863.8,233.77 864.11,233.42 864.4,233.05 864.67,232.65 864.93,232.3 865.2,231.86 
	865.45,231.47 865.85,230.9 866.18,230.33 866.41,229.79 866.7,229.2 867.02,228.48 867.33,227.7 867.62,226.83 867.91,225.87 
	868.2,224.62 868.33,223.98 868.47,223.17 868.52,222.26 868.57,220.86 868.52,219.17 868.48,218.02 868.34,217.14 868.08,216.15 
	867.79,215.14 867.44,214.05 867.01,212.91 866.5,211.78 865.93,210.86 865.34,209.95 864.45,208.68 863.82,207.93 863.18,207.2 
	862.58,206.56 861.8,205.81 860.95,205.06 860.03,204.33 859.28,203.78 858.41,203.25 857.15,202.56 855.9,201.99 855.19,201.67 
	854.01,201.22 853.29,200.9 852.36,200.58 851.43,200.34 850.29,200.11 849.17,199.91 848.33,199.84 847.37,199.78 846.23,199.75 
	845.08,199.75 844.45,199.75 843.45,199.8 842.49,199.91 841.54,200.09 840.73,200.25 840.09,200.42 839.28,200.6 838.44,200.89 
	837.75,201.11 837.07,201.35 836.49,201.62 835.78,201.93 835.01,202.36 834.17,202.87 833.46,203.21 832.61,203.71 831.93,204.21 
	831.22,204.78 830.7,205.19 830.12,205.68 829.46,206.25 828.88,206.88 828.24,207.58 827.72,208.2 827.08,208.99 826.52,209.89 
	826.07,210.75 825.57,211.71 825.16,212.56 824.72,213.33 824.38,214.3 824.15,214.92 823.91,215.67 823.76,216.57 823.61,217.38 
	823.48,218.22 823.46,219.08 823.45,219.84 823.45,220.74 823.46,221.54 823.49,222.23 823.6,223.04 823.73,223.9 823.84,224.62 
	824.07,225.42 824.35,226.59 824.77,227.61 825.29,228.81 826.03,230.14 826.75,231.42 827.57,232.59 828.49,233.68 829.29,234.57 
	830.15,235.38 831.28,236.38 832.34,237.21 833.35,237.9 834.4,238.49 835.62,239.13 836.58,239.59 837.99,240.2 839.54,240.73 
	840.94,241.1 842.04,241.34 842.82,241.45 843.14,241.5 843.36,241.52 843.68,241.54 843.98,241.6 844.11,241.64 844.22,241.75 
	844.17,245.43 844.19,248.66 844.21,251.68 844.22,252.89 844.14,253.1 843.98,253.24 843.81,253.4 843.51,253.65 843.23,253.92 
	843.03,254.11 842.73,254.38 842.43,254.64 842.11,254.83 841.68,254.98 841.18,254.98 840.47,254.98 837.86,254.98 831.36,254.98 
	823.85,254.98 817.4,254.98 811.09,254.98 809.35,254.98 808.79,254.77 808.03,254.45 807.31,254.13 806.78,253.84 806.02,253.2 
	805.3,252.4 804.9,251.72 804.41,250.99 804.05,250.11 804.05,249.19 804.05,242.27 804.05,224.05 804.05,198.17 804.05,167.73 
	804.05,136.47 804.05,100.29 804.05,67.15 804.05,48.07 804.05,46.67 804.23,45.87 804.6,45.08 805.08,44.57 805.65,43.88 
	806.3,43.26 807.04,42.8 807.89,42.61 808.8,42.61 815.7,42.61 835.21,42.61 854.38,42.61 867.04,42.61 877.82,42.61 882.27,42.61 
	883.96,42.61 885.03,42.92 885.78,43.29 886.58,43.99 886.95,44.74 887.56,44.93 888.3,44.93 889.19,44.93 890.13,44.97 
	913.39,44.98 938.42,45.07 960.32,45.29 980.81,45.29 997.29,45.29 1012.14,45.34 1023.5,45.47 1035.29,45.67 1036.22,45.65 
	1037.12,45.24 1037.94,44.72 1038.61,44.08 1039.17,43.6 1039.55,43.26 1040.22,43 1041.34,42.85 1042.72,42.81 1050.5,42.61 
	1067.93,42.61 1099.76,42.61 1119.59,42.61 1121.12,42.87 1122.44,43.25 1123.56,43.78 1124.72,44.57 1125.6,45.61 1126.22,47.02 
	1126.42,48.88 1126.42,50.67 1126.42,73.59 1126.42,101.14 1126.42,130.11 1126.42,162.41 1126.42,189.86 1126.42,216.37 
	1126.42,242.68 1126.42,249.43 1126.42,250.59 1126.26,251.52 1125.98,252.24 1125.53,252.78 1124.92,253.36 1124.08,253.89 
	1123.27,254.17 1122.15,254.51 1121.11,254.72 1119.27,254.98 1117.41,254.98 1113.48,254.98 1106.09,254.98 1095.56,254.98 
	1083.85,254.98 1073.2,254.98 1063.74,254.98 1046.82,254.98 1046.16,254.85 1045.58,254.6 1045.15,254.33 1044.86,253.88 
	1044.74,253.36 1044.7,252.78 1044.67,252.28 1044.65,251.96 1044.47,251.74 1044.16,251.65 1043.73,251.63 1043.28,251.6 
	1041.92,251.58 1039.58,251.58 1030.04,251.57 1009.8,251.52 995.94,251.48 980.23,251.41 959.5,251.37 941.69,251.37 
	922.38,251.37 900.36,251.41 889.21,251.3 888.76,251.3 888.32,251.38 887.97,251.71 887.67,252.21 887.49,252.73 887.26,253.27 
	886.84,253.62 886.49,253.98 886.01,254.41 885.24,254.77 884.91,254.98 "/>
<polygon class="st15" points="1064.85,211.76 1064.58,212.23 1064.23,212.93 1063.78,213.78 1063.51,214.54 1063.18,215.47 
	1062.88,216.41 1062.62,217.27 1062.36,218.29 1062.27,218.91 1062.21,219.87 1062.21,220.7 1062.21,222.36 1062.21,222.92 
	1062.21,223.54 1062.33,224.23 1062.51,225.04 1062.62,225.82 1062.84,226.69 1063.05,227.31 1063.23,227.95 1063.53,228.71 
	1063.75,229.27 1064.02,229.89 1064.33,230.53 1064.6,231.14 1064.95,231.63 1065.3,232.21 1065.76,232.83 1066.18,233.45 
	1066.69,234.03 1067.14,234.6 1067.6,235.06 1068.08,235.64 1068.51,236.12 1068.97,236.44 1069.58,236.95 1070.18,237.41 
	1070.68,237.81 1071.11,238.13 1071.65,238.54 1072.31,238.86 1073.06,239.32 1073.69,239.69 1074.41,240.06 1075.15,240.39 
	1075.83,240.63 1076.5,240.9 1077.19,241.13 1077.78,241.32 1078.45,241.54 1079.14,241.75 1079.92,241.88 1080.62,242.04 
	1081.42,242.12 1082.29,242.23 1083.01,242.23 1084.21,242.23 1086.73,242.23 1087.58,242.23 1088.36,242.08 1089.12,242 
	1089.83,241.83 1090.56,241.64 1091.41,241.46 1092.03,241.27 1092.89,240.98 1093.81,240.62 1094.58,240.23 1095.44,239.88 
	1096.11,239.51 1096.83,239.1 1097.5,238.72 1098.19,238.25 1098.75,237.86 1099.35,237.36 1099.86,236.91 1100.52,236.34 
	1101.04,235.88 1101.46,235.49 1102.02,234.92 1102.43,234.42 1102.81,233.96 1103.24,233.36 1103.66,232.75 1104.07,232.17 
	1104.36,231.71 1104.68,231.15 1104.98,230.58 1105.24,230.08 1105.56,229.49 1105.83,228.87 1106.13,228.14 1106.37,227.56 
	1106.55,226.99 1106.68,226.41 1106.82,225.66 1106.93,225.12 1107.03,224.6 1107.11,224.08 1107.11,223.19 1107.11,222.36 
	1107.11,219.97 1107.11,219.36 1107.11,218.74 1106.93,217.85 1106.64,216.94 1106.39,216.06 1106.13,215.21 1105.83,214.48 
	1105.49,213.7 1105.06,212.8 1104.76,212.21 1104.41,211.56 1103.98,210.76 1103.55,210.15 1103.04,209.44 1102.42,208.69 
	1101.7,207.92 1101.23,207.44 1100.63,206.84 1099.83,206.18 1099.22,205.66 1098.57,205.16 1097.8,204.62 1096.97,204.11 
	1096.21,203.63 1095.31,203.18 1094.42,202.77 1093.48,202.37 1092.68,202.05 1091.85,201.76 1091.05,201.47 1090.24,201.25 
	1089.47,201.08 1088.58,200.9 1087.66,200.77 1086.73,200.69 1086.03,200.69 1082.92,200.69 1082.23,200.77 1081.51,200.88 
	1080.91,200.95 1080.04,201.12 1079.25,201.3 1078.51,201.47 1077.78,201.67 1077.12,201.84 1076.55,202.07 1075.94,202.3 
	1075.26,202.58 1074.62,202.82 1073.93,203.12 1073.26,203.49 1072.62,203.84 1072,204.24 1071.27,204.71 1070.73,205.11 
	1070.15,205.56 1069.69,205.91 1069.19,206.31 1068.65,206.79 1068.27,207.19 1067.68,207.75 1067.34,208.16 1066.91,208.64 
	1066.55,209.07 1066.1,209.56 1065.67,210.14 1065.36,210.65 "/>
<polygon class="st15" points="825.07,174.64 825.19,174 825.37,173.22 825.56,172.62 825.75,171.98 826.02,171.49 826.29,171 
	826.59,170.47 826.93,170 827.31,169.44 827.67,168.96 828.23,168.52 828.74,168.18 829.25,167.77 829.79,167.36 830.28,167.1 
	830.88,166.79 831.49,166.5 832.2,166.28 832.89,166.09 833.52,165.96 834.1,165.88 834.73,165.78 835.32,165.78 836.07,165.78 
	836.58,165.78 837.29,165.9 837.8,166.02 838.5,166.2 839.12,166.4 839.83,166.63 840.52,166.94 841.26,167.33 841.77,167.68 
	842.33,168.1 842.9,168.58 843.47,169.19 843.97,169.74 844.46,170.21 844.75,170.74 845.08,171.32 845.45,171.89 845.78,172.56 
	845.84,173.06 846.07,174.02 846.15,174.78 846.15,175.72 846.15,176.56 846.07,177.6 845.94,178.3 845.76,178.82 845.45,179.42 
	845.08,180.08 844.73,180.73 844.32,181.2 843.89,181.81 843.43,182.29 842.93,182.73 842.57,183 842.11,183.33 841.52,183.72 
	841.14,183.92 840.61,184.24 840.14,184.46 839.52,184.72 838.94,184.88 838.39,185.04 837.85,185.15 837.27,185.29 836.45,185.29 
	835.61,185.29 834.94,185.29 834.68,185.29 834.22,185.29 833.48,185.18 832.79,185.02 832.3,184.81 831.52,184.62 830.96,184.34 
	830.31,184.03 829.64,183.6 828.98,183.16 828.45,182.7 827.91,182.19 827.39,181.65 827.01,181.14 826.58,180.52 826.18,179.9 
	825.78,179.26 825.57,178.66 825.35,178.02 825.16,177.39 825.07,176.72 825.07,175.94 825.07,175.2 "/>
<polygon class="st15" points="849.26,241.27 849.65,241.22 850.34,241.1 850.86,241.01 851.62,240.86 852.34,240.66 852.96,240.5 
	853.62,240.31 854.44,240.01 854.74,239.91 855.02,239.81 855.25,239.72 855.62,239.57 855.87,239.47 856.19,239.32 856.5,239.18 
	856.85,239.03 857.25,238.83 857.67,238.61 857.99,238.44 858.31,238.24 858.74,237.97 859.09,237.73 859.52,237.42 860.07,237.06 
	860.4,236.86 860.87,236.5 861.12,236.33 861.4,236.14 861.73,235.84 862.03,235.57 862.45,235.13 862.67,234.92 863.09,234.52 
	863.32,234.3 863.8,233.77 864.11,233.42 864.4,233.05 864.67,232.65 864.93,232.3 865.2,231.86 865.45,231.47 865.85,230.9 
	866.18,230.33 866.41,229.79 866.7,229.2 867.02,228.48 867.33,227.7 867.62,226.83 867.91,225.87 868.2,224.62 868.33,223.98 
	868.47,223.17 868.52,222.26 868.57,220.86 868.52,219.17 868.48,218.02 868.34,217.14 868.08,216.15 867.79,215.14 867.44,214.05 
	867.01,212.91 866.5,211.78 865.93,210.86 865.34,209.95 864.45,208.68 863.82,207.93 863.18,207.2 862.58,206.56 861.8,205.81 
	860.95,205.06 860.03,204.33 859.28,203.78 858.41,203.25 857.15,202.56 855.9,201.99 855.19,201.67 854.01,201.22 853.29,200.9 
	852.36,200.58 851.43,200.34 850.29,200.11 849.17,199.91 848.33,199.84 847.37,199.78 846.23,199.75 845.08,199.75 844.45,199.75 
	843.45,199.8 842.49,199.91 841.54,200.09 840.73,200.25 840.09,200.42 839.28,200.6 838.44,200.89 837.75,201.11 837.07,201.35 
	836.49,201.62 835.78,201.93 835.01,202.36 834.17,202.87 833.46,203.21 832.61,203.71 831.93,204.21 831.22,204.78 830.7,205.19 
	830.12,205.68 829.46,206.25 828.88,206.88 828.24,207.58 827.72,208.2 827.08,208.99 826.52,209.89 826.07,210.75 825.57,211.71 
	825.16,212.56 824.72,213.33 824.38,214.3 824.15,214.92 823.91,215.67 823.76,216.57 823.61,217.38 823.48,218.22 823.46,219.08 
	823.45,219.84 823.45,220.74 823.46,221.54 823.49,222.23 823.6,223.04 823.73,223.9 823.84,224.62 824.07,225.42 824.35,226.59 
	824.77,227.61 825.29,228.81 826.03,230.14 826.75,231.42 827.57,232.59 828.49,233.68 829.29,234.57 830.15,235.38 831.28,236.38 
	832.34,237.21 833.35,237.9 834.4,238.49 835.62,239.13 836.58,239.59 837.99,240.2 839.54,240.73 840.94,241.1 842.04,241.34 
	842.82,241.45 843.36,241.52 843.84,241.52 844.34,241.52 844.89,241.52 845.64,241.52 846.26,241.52 847.24,241.52 847.8,241.52 
	848.05,241.52 848.37,241.37 848.69,241.33 "/>
<polygon class="st16" points="1076.92,222.36 1076.92,220.9 1077.37,220.45 1077.71,220.07 1078.24,219.78 1078.49,219.62 
	1079.88,219.62 1080.3,219.95 1080.63,220.16 1080.94,220.45 1081.15,220.8 1081.15,222.36 1081.15,222.56 1080.86,222.85 
	1080.55,223.19 1080.09,223.54 1078.66,223.54 1077.91,223.16 1077.25,222.69 "/>
<polygon class="st17" points="1078.51,222.67 1077.87,222.13 1077.87,221.01 1078.19,220.65 1078.51,220.38 1079.7,220.38 
	1080.18,220.72 1080.49,221.13 1080.49,222.23 1079.97,222.67 "/>
<polygon class="st16" points="1082.04,223.43 1082.04,219.68 1084.33,219.68 1084.76,219.99 1084.97,220.38 1084.97,221.52 
	1084.66,221.94 1084.31,222.06 1082.75,222.02 1082.73,223.43 "/>
<polygon class="st17" points="1082.73,220.38 1082.73,221.46 1084.1,221.46 1084.43,221.17 1084.43,220.67 1084.16,220.47 "/>
<polygon class="st18" points="1085.47,219.62 1085.49,223.54 1088.61,223.54 1088.61,222.67 1086.33,222.67 1086.33,221.92 
	1088.61,221.96 1088.61,221.09 1086.27,221.11 1086.22,220.38 1088.61,220.38 1088.59,219.62 "/>
<polygon class="st16" points="1089.31,219.62 1089.31,223.54 1090.37,223.54 1090.37,221.19 1090.37,220.92 1090.62,221.09 
	1090.91,221.56 1092.54,223.49 1092.57,223.58 1093.1,223.58 1093.2,223.58 1093.16,219.57 1092.62,219.57 1092.61,222.22 
	1092.61,222.34 1092.46,222.35 1092.33,222.23 1092.23,222.09 1090.45,219.7 1090.37,219.57 "/>
<polyline class="st19" points="850.55,254.98 849.06,254.98 847.82,254.98 846.29,254.98 845.17,254.98 843.76,254.98 
	842.96,254.98 842.11,254.83 842.43,254.64 842.73,254.38 843.23,253.92 843.51,253.65 843.81,253.4 844.14,253.1 844.22,252.89 
	844.21,252.47 844.21,251.68 844.19,248.66 844.17,245.43 844.22,241.75 844.34,241.52 844.89,241.52 845.64,241.52 846.26,241.52 
	847.24,241.52 847.8,241.52 848.19,241.58 848.19,242.2 848.19,243.06 848.19,244.35 848.19,245.74 848.19,247.65 848.19,249.35 
	848.19,251.23 848.19,252.77 848.19,253.19 848.25,253.36 848.63,253.67 848.84,253.88 849.5,254.39 850.02,254.77 850.55,254.98 
	"/>
<polygon class="st20" points="834.82,222.05 834.82,221.66 834.82,221.27 834.82,220.83 834.82,220.12 834.82,219.56 834.82,219.04 
	834.82,218.75 834.82,218.58 835.11,218.58 835.31,218.58 835.63,218.58 835.92,218.58 836.29,218.58 836.63,218.58 836.8,218.58 
	836.94,218.58 837.14,218.58 837.38,218.63 837.53,218.75 837.72,218.95 837.88,219.15 837.94,219.36 837.94,219.59 837.94,219.82 
	837.94,220.07 837.94,220.31 837.86,220.44 837.71,220.56 837.58,220.71 837.4,220.85 837.15,220.94 836.93,221.05 836.55,221.07 
	836.38,221.07 836.04,221.07 835.74,221.07 835.55,221.07 835.4,221.11 835.34,221.22 835.34,221.45 835.36,221.72 835.35,221.85 
	835.34,222.05 835.17,222.05 835.02,222.05 "/>
<polygon class="st21" points="835.35,220.31 835.35,219.95 835.35,219.72 835.39,219.58 835.52,219.54 835.63,219.54 835.81,219.54 
	836.02,219.54 836.29,219.54 836.55,219.54 836.75,219.54 836.91,219.54 837.1,219.58 837.24,219.62 837.35,219.72 837.35,219.93 
	837.35,220.09 837.2,220.18 836.94,220.27 836.81,220.31 836.46,220.31 836.14,220.31 835.61,220.31 "/>
<polygon class="st22" points="838.66,221.18 838.66,220.48 838.66,219.93 838.72,219.63 838.93,219.46 839.22,219.16 839.45,219.01 
	839.64,218.82 839.78,218.71 839.94,218.58 840.13,218.58 840.44,218.58 840.82,218.58 841.12,218.58 841.3,218.58 841.51,218.63 
	841.67,218.71 841.9,218.85 842.12,219.03 842.32,219.24 842.48,219.47 842.65,219.72 842.84,219.98 842.93,220.16 842.93,220.63 
	842.93,220.88 842.93,221.06 842.93,221.3 842.93,221.49 842.69,221.69 842.38,222.05 842.06,222.28 841.85,222.41 841.62,222.52 
	841.37,222.52 841.01,222.52 840.66,222.52 840.21,222.52 840.06,222.52 839.74,222.31 839.49,222.14 839.27,221.95 838.96,221.67 
	838.86,221.49 "/>
<polygon class="st23" points="839.19,220.98 839.19,220.21 839.28,220.04 839.48,219.88 839.7,219.72 839.93,219.54 840.2,219.54 
	840.55,219.54 840.84,219.54 841.13,219.54 841.3,219.6 841.48,219.66 841.65,219.75 841.84,219.93 841.96,220.04 842.07,220.11 
	842.07,220.22 842.14,220.43 842.14,220.63 842.14,220.98 842.04,221.2 841.87,221.55 841.71,221.63 841.43,221.63 841.03,221.63 
	840.66,221.63 840.22,221.63 840.04,221.63 839.81,221.53 839.61,221.35 839.38,221.21 "/>
<polygon class="st24" points="843.07,219.07 843.33,219.54 843.55,219.93 843.68,220.4 843.84,220.7 843.96,221.03 844.12,221.38 
	844.19,221.75 844.33,222.05 844.49,222.05 844.64,222.05 844.79,222.05 845.02,222.05 845.12,221.63 845.21,221.33 845.32,221.01 
	845.5,220.63 845.64,220.31 845.75,220.03 846.01,220.04 846.18,220.04 846.33,220.23 846.41,220.58 846.53,221.09 846.67,221.44 
	846.87,221.8 847.04,222.05 847.21,222.05 847.43,222.05 847.69,222.05 847.84,221.63 847.97,221.18 848.15,220.73 848.38,220.23 
	848.49,219.84 848.55,219.54 848.63,219.24 848.63,219.07 848.32,219.07 848.04,219.01 847.93,219.35 847.84,219.75 847.7,220.31 
	847.6,220.58 847.44,220.92 847.33,221.09 847.1,221.09 846.9,220.9 846.81,220.46 846.69,219.93 846.49,219.54 846.38,219.22 
	846.29,219.01 846.01,219.01 845.85,219.01 845.69,219.01 845.52,219.33 845.32,219.76 845.19,220.15 845.07,220.53 844.96,220.8 
	844.87,221.06 844.62,221.09 844.27,220.53 844.13,220.09 843.99,219.61 843.75,219.21 843.65,219.01 "/>
<polygon class="st24" points="849.61,218.69 850.06,218.69 850.59,218.69 851.21,218.69 851.76,218.69 852.15,218.69 852.31,218.69 
	852.31,218.94 852.31,219.26 852.31,219.53 852.1,219.53 851.73,219.53 851.34,219.53 850.83,219.53 850.42,219.53 850.16,219.53 
	850.15,219.85 850.15,220.05 850.48,220.05 852.31,220.05 852.31,221.07 850.12,221.07 850.12,221.58 852.31,221.58 852.31,222.52 
	849.03,222.52 849.03,218.69 "/>
<polygon class="st24" points="852.9,222.43 852.9,219.3 852.98,219.15 853.12,219.07 853.28,218.94 853.41,218.78 853.52,218.69 
	853.63,218.58 855.53,218.58 855.85,218.79 856.18,219.02 856.59,219.29 856.69,219.46 856.69,219.81 856.69,220.03 856.57,220.26 
	856.37,220.43 856.22,220.56 856.13,220.63 856.18,221.06 856.41,221.28 856.63,221.54 856.69,221.84 856.69,222.05 856.69,222.28 
	856.69,222.43 856.51,222.43 856.19,222.43 855.78,222.43 855.56,222.43 855.59,222.02 855.59,221.66 855.59,221.42 855.58,221.22 
	855.55,221.09 855.31,221.08 854.91,221.07 854.61,221.06 854.26,221.06 854.02,221.08 853.95,221.36 853.97,221.59 853.97,221.95 
	853.97,222.15 853.95,222.43 "/>
<rect x="853.95" y="219.57" class="st25" width="1.64" height="0.54"/>
<polyline class="st26" points="887.67,252.21 887.67,244.77 887.67,227.34 887.67,216.41 887.67,207.86 "/>
<polyline class="st26" points="1043.28,251.6 1043.28,242.7 1043.28,232.44 1043.28,223.07 1043.15,209.51 "/>
<polyline class="st26" points="887.56,44.93 887.56,54.31 887.56,66.28 887.56,78.16 887.56,88.9 "/>
<polyline class="st26" points="1041.96,42.83 1041.96,56.88 1041.96,67.66 1041.96,81.65 1041.91,88.71 "/>
<path class="st26" d="M887.56,88.9"/>
<line class="st27" x1="831.15" y1="175.24" x2="829.58" y2="175.14"/>
<polyline class="st27" points="829.58,176.4 829.58,176.11 829.58,175.14 829.58,174.46 829.58,174.21 829.58,174.06 830.07,174.06 
	830.49,174.06 830.85,174.06 831.02,174.06 831.4,174.34 831.4,174.62 831.4,174.79 831.4,174.97 831.28,175.21 831.4,176.02 
	831.4,176.15 831.4,176.4 "/>
<polyline class="st27" points="834.17,174.34 832.32,174.34 832.16,174.34 832.16,176.29 832.16,176.47 834.11,176.47 "/>
<line class="st27" x1="834.09" y1="175.33" x2="832.16" y2="175.33"/>
<polyline class="st27" points="836.63,174.77 836.4,174.62 836.22,174.49 836.01,174.42 835.61,174.42 835.27,174.42 835.03,174.6 
	834.86,174.77 834.86,174.98 835.01,175.23 835.34,175.33 835.67,175.4 836.01,175.47 836.22,175.47 836.4,175.64 836.5,175.94 
	836.49,176.16 836.35,176.4 836.09,176.47 835.74,176.47 835.45,176.47 835.18,176.4 835,176.25 834.75,176.01 "/>
<polyline class="st27" points="839.11,174.42 837.34,174.42 837.34,176.74 839.11,176.74 "/>
<line class="st27" x1="839.11" y1="175.54" x2="837.34" y2="175.54"/>
<polyline class="st27" points="839.52,174.62 839.76,174.62 841.88,174.62 "/>
<line class="st27" x1="840.7" y1="176.74" x2="840.7" y2="174.62"/>
<polyline class="st26" points="1049.65,201.45 1052.1,203.04 1053.68,204.03 1055.52,205.06 1056.81,205.84 1058.32,206.72 
	1060.41,208.08 1061.48,208.71 1062.73,209.48 1063.58,210.11 1064.16,210.53 1064.58,210.78 1065.14,211.14 1065.23,210.94 
	1065.3,210.78 1065.44,210.52 1065.61,210.24 1065.81,209.95 1066.01,209.68 1066.26,209.38 1066.19,209.23 1066.01,209.01 
	1065.48,208.67 1064.89,208.29 1063.97,207.76 1063.05,207.15 1062.21,206.59 1061.44,206.19 1060.6,205.66 1059.74,205.13 
	1058.83,204.58 1057.72,203.94 1056.88,203.41 1056.12,202.96 1055.35,202.5 1054.73,202.05 1054.01,201.6 1053.34,201.15 
	1052.5,200.55 1051.84,200.15 1050.93,199.65 1050.34,200.49 1049.65,201.45 "/>
<polygon class="st14" points="1019.15,228.68 1022.09,226.96 1024.78,225.16 1027.81,223.05 1030.18,221.12 1032.73,219.23 
	1034.84,217.6 1037.09,215.62 1039.07,213.68 1040.96,211.71 1043.15,209.51 1045.18,207.18 1047.16,204.89 1048.69,202.78 
	1050.5,200.27 1052.87,196.89 1054.72,193.81 1056.65,190.56 1058.06,187.65 1060.08,183.7 1061.75,179.26 1062.9,175.78 
	1064.08,171.96 1065.01,168.04 1065.76,164.31 1066.19,161.32 1066.55,158.5 1066.85,155.95 1067.03,154.19 1067.03,151.64 
	1067.03,148.95 1067.03,145.88 1067.03,143.73 1066.77,140.65 1066.55,138.8 1066.19,136.63 1065.84,134.58 1065.36,131.94 
	1064.92,129.57 1064.04,126.27 1063.16,123.41 1062.24,120.51 1061.27,117.83 1060.3,115.46 1058.85,112.25 1057.62,109.52 
	1056.04,106.75 1055.03,104.73 1053.84,102.84 1052.65,100.77 1051.2,98.79 1049.78,97.22 1048.67,95.7 1047.27,94.13 
	1045.99,92.79 1045,91.91 1043.84,90.81 1042.84,89.58 1041.91,88.71 1040.98,87.6 1039.46,85.97 1038.18,84.63 1036.14,82.47 
	1034.98,81.48 1033.58,80.32 1032.35,79.15 1030.72,77.87 1028.62,76.24 1026.93,75.07 1024.43,73.32 1022.15,71.75 1019.59,70.18 
	1017.26,69.01 1014.35,67.26 1011.08,65.69 1007.7,64.29 1004.15,62.66 1001.23,61.61 997.15,60.33 993.48,59.22 989.93,58.29 
	987.01,57.59 983.28,56.89 980.72,56.42 978.04,56.13 975.18,55.84 970.87,55.84 965.06,55.55 962.24,55.55 958.57,55.55 
	954.72,55.9 948.9,56.42 944.53,57 939.22,58.17 934.15,59.57 929.9,60.91 924.77,62.66 919.47,64.87 915.33,67.03 911.42,69.24 
	907.34,71.98 903.96,74.14 900.47,76.64 897.49,79.03 894.99,81.19 892.48,83.75 890.73,85.62 888.64,87.6 886.89,89.7 
	885.08,91.97 882.17,95.59 880.18,98.27 878.14,101.65 876.22,104.68 874.47,107.47 873.31,109.92 872.14,112.43 870.86,115.69 
	869.58,119.13 868.24,122.57 867.48,126.07 866.26,130.55 866.03,132.32 865.82,134.54 865.61,136.63 865.36,138.63 865.25,140.4 
	865.04,142.44 864.9,145.15 864.9,147.65 864.9,149.47 864.9,151.95 864.9,154 864.9,155.47 865.13,157.89 865.32,158.91 
	865.53,160.36 865.9,162.02 866.07,162.78 866.2,163.54 866.28,164.51 866.41,165.73 866.66,166.7 866.83,167.84 867.08,169.11 
	867.42,170.37 867.84,171.76 868.31,173.54 868.69,174.97 869.57,177.25 870.12,178.55 870.63,179.99 871.18,181.21 871.68,182.43 
	872.4,184.04 872.95,185.3 873.87,187.24 875.01,189.35 875.86,190.78 876.87,192.68 877.88,194.37 879.02,196.39 879.99,197.91 
	881.04,199.47 882.39,201.41 883.49,202.85 885.18,204.91 886.95,207.1 889.06,209.3 890.83,211.2 892.6,213.05 894.75,215.03 
	896.73,216.64 898.5,218.24 900.74,220.09 903.18,221.91 905.42,223.47 908.12,225.11 910.52,226.63 912.97,228.11 915.2,229.37 
	917.73,230.55 920.98,232.03 923.38,233.29 926.76,234.6 929.5,235.61 932.28,236.54 934.98,237.55 937.89,238.31 940.72,239.03 
	943.71,239.7 946.79,240.29 949.32,240.76 951.94,241.1 954.93,241.43 957.23,241.79 959.42,241.99 961.03,241.99 963.33,241.99 
	965.85,241.99 967.91,241.99 970.83,241.99 973.26,241.99 975.5,241.68 977.75,241.46 979.72,241.26 982.26,240.93 985.07,240.42 
	987.77,239.86 990.36,239.29 993.48,238.49 996.31,237.67 998.94,236.9 1001.93,235.9 1004.56,235 1007.39,233.91 1010.16,232.72 
	1012.5,231.72 1015.04,230.51 1017.15,229.69 "/>
<polyline class="st27" points="949.85,202.03 949.85,198.21 949.85,197.96 950.36,197.96 951.03,197.96 951.51,197.96 
	951.98,198.07 952.2,198.32 952.34,198.76 952.34,199.12 952.34,199.56 952.14,200 951.83,200.23 951.09,200.23 950.6,200.23 
	950,200.25 "/>
<line class="st27" x1="953.82" y1="197.96" x2="953.82" y2="202.03"/>
<polyline class="st27" points="955.56,199.01 956.96,199.01 957.27,199.18 957.51,199.43 957.51,200.07 957.51,200.27 
	957.51,201.72 957.51,202.03 955.69,202.03 955.36,201.81 955.16,201.49 955.16,201.16 955.16,200.81 955.51,200.52 955.76,200.38 
	956.16,200.3 956.45,200.3 956.71,200.3 957,200.27 957.22,200.27 "/>
<line class="st27" x1="961.58" y1="199.01" x2="959.24" y2="203.83"/>
<line class="st27" x1="958.78" y1="199.01" x2="960.09" y2="201.72"/>
<polyline class="st27" points="964.75,197.96 963.18,197.96 962.93,198.19 962.73,198.52 962.73,199.43 963.02,199.67 
	963.42,199.85 963.74,199.85 964.09,199.85 964.44,200 964.75,200.36 964.75,200.72 964.75,201.07 964.75,201.54 964.51,201.85 
	964.2,202.03 962.73,202.03 "/>
<polyline class="st27" points="966.35,198.32 966.35,201.87 966.75,202.03 967.2,202.03 "/>
<line class="st27" x1="967.6" y1="199.01" x2="966.44" y2="199.01"/>
<polyline class="st27" points="968.8,199.01 970.22,199.01 970.53,199.23 970.71,199.52 970.71,201.83 970.48,202.03 969.97,202.03 
	968.86,202.03 968.57,201.72 968.33,201.42 968.33,200.94 968.66,200.63 969,200.52 969.33,200.36 969.86,200.36 970.15,200.36 
	970.53,200.36 "/>
<polyline class="st27" points="972.42,198.32 972.42,201.72 972.77,202.03 973.24,202.03 "/>
<line class="st27" x1="973.62" y1="199.01" x2="972.53" y2="199.01"/>
<line class="st27" x1="974.75" y1="197.83" x2="974.75" y2="198.16"/>
<line class="st27" x1="974.75" y1="199.01" x2="974.75" y2="202.21"/>
<polygon class="st27" points="976.33,201.18 976.33,200.17 976.44,199.76 976.57,199.45 976.73,199.25 976.99,199.01 977.86,199.01 
	978.33,199.1 978.64,199.36 978.81,199.74 978.81,200.43 978.81,201.18 978.68,201.61 978.41,201.87 978.13,202.03 977.21,202.03 
	976.79,201.85 976.48,201.58 "/>
<polyline class="st27" points="982.79,202.12 982.79,199.56 982.63,199.27 982.23,199.01 980.41,199.01 980.41,202.21 "/>
<polygon class="st28" points="953.11,94.76 953.11,92.95 952.68,93.08 952.15,93.13 951.65,92.85 950.87,92.62 950.4,92.62 
	948.54,92.62 948.01,92.75 947.46,92.93 946.75,93.1 946.28,93.35 945.82,93.91 945.82,95.26 946.28,95.54 946.88,95.84 
	947.71,96.06 948.44,96.22 949.34,96.32 950.09,96.32 951.4,96.32 951.98,96.74 952.3,97.12 952.28,97.6 951.85,97.87 951.3,98.1 
	950.67,98.1 950.02,98.1 949.47,98.1 948.71,98.1 947.98,97.92 947.51,97.57 947.11,97.2 946.78,96.82 946.63,96.57 945.82,96.59 
	945.82,98.83 946.53,98.83 946.83,98.83 946.93,98.5 947.31,98.53 947.91,98.83 948.69,98.98 949.47,99.08 950.27,99.08 
	951.15,99.08 952.08,98.8 952.73,98.5 953.28,98.17 953.61,97.7 953.61,96.89 953.61,96.37 953.36,95.96 953.06,95.64 952.48,95.34 
	951.78,95.21 951.02,95.14 950.09,95.09 949.24,94.99 948.36,94.83 947.61,94.58 947.31,94.36 947.31,93.98 947.71,93.73 
	948.08,93.45 948.59,93.3 949.24,93.23 950.87,93.3 951.45,93.48 951.8,93.83 952.25,94.26 952.71,94.78 "/>
<polygon class="st28" points="958.21,99.08 957.08,98.55 956.32,97.95 955.82,97.35 955.44,96.82 955.44,95.16 955.85,94.46 
	956.42,93.91 957.13,93.35 957.98,92.85 958.76,92.62 961.24,92.62 962,92.8 962.88,93.15 963.35,93.48 964.11,94.03 964.46,94.81 
	964.46,96.69 964.23,97.42 963.76,97.87 963.03,98.43 962.35,98.7 961.7,99.08 "/>
<polygon class="st29" points="959.39,98.12 958.51,97.92 957.93,97.52 957.55,97.09 957.38,96.57 957.38,96.14 957.38,95.31 
	957.6,94.73 957.93,94.26 958.38,93.93 958.81,93.58 959.09,93.4 960.59,93.4 961.4,93.78 961.97,94.18 962.33,94.63 962.63,95.16 
	962.63,96.72 962.25,97.25 961.77,97.72 961.24,98.12 "/>
<polygon class="st30" points="971.92,92.93 971.92,93.63 973.02,93.63 973.02,96.47 968.91,92.93 965.87,92.93 965.87,93.63 
	966.9,93.65 966.9,98.12 965.87,98.12 965.87,98.7 969.45,98.7 969.36,98.12 968.15,98.12 968.13,94.71 968.58,94.71 973.02,98.58 
	973.02,98.83 974.46,98.83 974.46,93.65 975.51,93.65 975.51,92.93 "/>
<polygon class="st30" points="976.45,92.93 976.45,93.67 977.57,93.67 980.06,96.32 980.06,98.14 978.97,98.14 978.97,98.83 
	983.37,98.83 983.37,98.03 982.06,98.03 981.96,96.51 984.81,93.71 985.96,93.71 985.96,92.93 982.32,92.93 982.34,93.61 
	983.16,93.65 983.14,94.03 981.89,95.41 981.21,95.39 979.71,93.76 979.71,93.54 980.6,93.54 980.58,92.93 "/>
<polygon class="st31" points="962.97,194.62 962,194.21 961.45,194.02 960.65,193.88 959.76,193.88 958.78,193.8 957.98,193.8 
	957.21,193.64 956.33,193.42 955.57,193.18 954.87,192.82 954.26,192.31 954.14,191.71 954.31,191.27 954.89,190.84 955.54,190.5 
	956.33,190.19 956.7,190.41 956.99,190.57 957.51,190.77 958.12,191.01 958.56,191.23 959.04,191.59 958.41,191.85 957.88,192.02 
	957.9,192.41 958.43,192.41 959.09,192.41 959.71,192.41 960.09,192.41 960.27,192.07 960.56,191.92 960.94,191.92 961.4,191.92 
	961.93,192 962.29,192.14 962.63,192.21 962.97,192.41 963.23,192.57 963.23,193.15 963.23,194.62 "/>
<polygon class="st32" points="967.02,195.76 969.79,194.82 969.52,194.45 968.97,194.21 968.33,194.02 967.6,193.95 967.02,193.95 
	"/>
<polygon class="st33" points="956.33,190.19 957.35,189.87 958.5,189.48 959.24,189.23 959.96,189 960.85,188.68 961.58,188.45 
	962.27,188.61 962.73,188.77 963.23,188.93 963.23,192.57 962.63,192.21 962.29,192.14 961.93,192 961.4,191.92 960.94,191.92 
	960.56,191.92 960.27,192.07 960.09,192.41 959.71,192.41 959.09,192.41 958.43,192.41 957.9,192.41 957.88,192.02 958.41,191.85 
	959.04,191.59 958.56,191.23 958.12,191.01 957.51,190.77 956.99,190.57 956.7,190.41 "/>
<polygon class="st34" points="961.58,188.45 962.31,187.95 962.73,187.76 963.23,187.76 963.23,188.93 962.73,188.77 962.27,188.61 
	"/>
<polygon class="st35" points="963.23,190.07 962.4,190.51 961.79,190.76 960.76,191.15 959.96,191.4 959.04,191.59 958.41,191.85 
	957.88,192.02 957.9,192.41 958.43,192.41 959.09,192.41 959.71,192.41 960.09,192.41 960.27,192.07 960.56,191.92 960.94,191.92 
	961.4,191.92 961.83,191.69 962.01,191.63 962.15,191.6 962.54,191.5 962.84,191.47 "/>
<polygon class="st36" points="963.23,192.41 963.23,191.72 963.23,190.93 962.92,191.16 962.84,191.47 962.54,191.5 962.15,191.6 
	961.83,191.69 961.4,191.92 961.93,192 962.29,192.14 962.63,192.21 962.97,192.41 963.23,192.57 "/>
<polygon class="st37" points="967.02,193.95 967.02,193.34 967.75,193.2 968.48,192.97 969.28,192.9 969.68,192.57 970.27,192.41 
	970.72,192.33 971.14,192.12 971.47,192 972.08,191.93 972.57,191.93 973.24,191.93 973.91,192.02 974.34,192.17 974.88,192.41 
	975.47,192.7 974.75,193.15 974.27,193.32 973.24,193.67 972.52,193.95 971.68,194.23 970.67,194.51 969.79,194.82 969.52,194.45 
	968.97,194.21 968.33,194.02 967.6,193.95 "/>
<polygon class="st37" points="966.92,190.19 967.67,190.34 968.64,190.51 969.41,190.77 969.93,191.11 969.44,191.41 968.7,191.59 
	967.9,191.93 966.92,192.28 "/>
<polygon class="st38" points="967.02,189.99 968.62,189.67 969.56,189.48 970.73,189.3 971.72,189.19 972.56,189.19 973.51,189.28 
	974.78,189.45 975.73,189.59 976.72,190.07 977.43,190.64 977.69,191.05 977.69,191.52 977.62,192.06 977.26,192.41 976.69,192.49 
	976.05,192.68 975.47,192.7 974.88,192.41 974.34,192.17 973.58,191.97 972.57,191.93 972.75,191.75 973.07,191.63 973.42,191.56 
	973.89,191.43 974.18,191.35 974.32,190.83 974.33,190.66 974.04,190.51 973.77,190.44 973.35,190.44 972.9,190.44 972.52,190.51 
	971.96,190.62 971.46,190.83 970.92,191.05 970.3,191.11 969.93,191.11 969.41,190.77 968.64,190.51 967.67,190.34 966.92,190.19 
	"/>
<polygon class="st39" points="963.14,194.85 967.02,195.76 966.92,188.55 966.92,185.24 966.92,183.68 966.92,182.39 966.92,181.91 
	966.92,181.68 967.41,181.68 968.24,181.68 968.56,181.68 968.74,181.89 968.74,182.16 968.74,187.76 968.95,188.13 969.2,188.35 
	969.57,188.35 970.21,188.35 970.88,188.35 971.36,188.18 971.66,187.76 972.07,187.42 972.42,186.94 972.62,186.76 972.81,186.46 
	972.81,186.07 972.81,185.1 972.81,183.75 972.71,183.27 972.46,182.88 972.05,182.35 971.66,181.96 971.25,181.54 970.65,181.18 
	970.03,180.86 969.43,180.58 968.67,180.26 967.97,180.03 967.3,179.78 966.61,179.57 965.96,179.32 965.35,179.16 964.79,179.04 
	964.15,178.93 963.44,178.93 963.14,178.93 963.23,187.76 "/>
<path class="st40" d="M864.14,74.78c-0.91-2.94,4.95-7.49,7.62-9.19c5.15-3.28,10.33-3.57,12.7-3.55h32.11
	c2.86,0,5.45,1.16,7.32,3.03c0.42,0.42,3.07,3.15,3.03,7.32c-0.03,3.91-2.42,7.54-6.12,9.45c-4.75-1.8-11.18-3.67-18.93-4.43
	c-5.53-0.54-10.44-0.38-14.48,0.02C869.21,78.92,864.8,76.9,864.14,74.78z"/>
<path class="st40" d="M1072.43,76.14c0.91-2.94-4.95-7.49-7.62-9.19c-5.15-3.28-10.33-3.57-12.7-3.55H1020
	c-2.86,0-5.45,1.16-7.32,3.03c-0.42,0.42-3.07,3.15-3.03,7.32c0.03,3.91,2.42,7.54,6.12,9.45c4.75-1.8,11.18-3.67,18.93-4.43
	c5.53-0.54,10.44-0.38,14.48,0.02C1067.37,80.27,1071.77,78.25,1072.43,76.14z"/>
<path class="st41" d="M1011.42,106.03c2.82-5.47,8.51-7.94,11.13-9.04c11.38-4.77,22.91-1.35,25.54-0.56
	c8.08,2.4,13.35,6.68,16.15,9.39c0.12,0.12,0.12,0.31,0,0.42l-7.14,6.93c-0.01,0.01-0.02,0.02-0.03,0.03
	c-5.16,3.94-10.22,5.87-13.35,6.83c-2.54,0.78-10.92,3.1-21.17,1.25c-5.06-0.91-9.62-1.73-11.79-5.08
	C1008.21,112.24,1010.7,107.42,1011.42,106.03z"/>
<path class="st41" d="M925.22,102.87c-2.71-5.47-8.18-7.94-10.71-9.04c-10.94-4.77-22.04-1.35-24.56-0.56
	c-7.97,2.46-13.11,6.9-15.75,9.6c2.36,2.39,4.73,4.77,7.09,7.16c4.97,3.95,9.84,5.88,12.86,6.84c2.44,0.78,10.5,3.1,20.36,1.25
	c4.87-0.91,9.25-1.73,11.34-5.08C928.31,109.09,925.92,104.27,925.22,102.87z"/>
<path class="st42" d="M882.88,243.37c1.17-9.03,4.39-26.72,14.54-46.4c9.49-18.42,20.6-29.96,26.83-35.71
	c0.91-4.66-0.21-8.87-2.84-10.7c-2.44-1.7-5.27-0.7-6.02-0.4c-40.8,78.52-43.63,91.72-42.02,93.56c2.08,2.38,4.63,2.19,4.63,2.19
	C880.06,245.76,881.85,244.34,882.88,243.37z"/>
<path class="st42" d="M1048.13,243.37c-1.17-9.03-4.39-26.72-14.54-46.4c-9.49-18.42-20.6-29.96-26.83-35.71
	c-0.91-4.66,0.21-8.87,2.84-10.7c2.44-1.7,5.27-0.7,6.02-0.4c40.8,78.52,43.63,91.72,42.02,93.56c-2.08,2.38-4.63,2.19-4.63,2.19
	C1050.94,245.76,1049.16,244.34,1048.13,243.37z"/>
<path class="st43" d="M1015.24,217.41c-7.32,4.64-23.88,13.72-46.79,14.57c-26.97,1-46.54-10.02-53.75-14.57
	c-2.23-1.28-3.52-3.7-3.28-6.16c0.31-3.2,3.03-4.78,3.28-4.92c13.23,2.95,30.31,5.54,50.27,5.54c13.56,0,30.79-1.19,50.27-5.54
	c0.15,0.08,3.17,1.83,3.28,5.33C1018.6,214.03,1017.33,216.25,1015.24,217.41z"/>
<path class="st42" d="M1015.83,57.14c-10.57-0.51-21.52-0.87-32.83-1.05c-23.75-0.39-46.12,0.06-66.89,1.05
	c-5.13-0.69-8.89-2.03-9.03-3.53c-0.19-2.05,6.48-3.75,9.03-4.41c12.58-3.21,24.45-1.81,25.85-1.65
	c13.71,1.59,37.01,2.19,73.87,1.65c6.39,0.08,10.44,2.67,10.26,4.41C1025.91,55.28,1021.7,57.32,1015.83,57.14z"/>
<path class="st42" d="M995.33,67.09c-6.54-1.73-21.49-5.01-39.4-2.92c-5.84,0.68-10.76,1.79-14.69,2.92
	c-3.09,0.12-5.85-0.44-6.5-1.39c-0.83-1.2,1.4-3.45,6.5-4.35c8.86,0.68,15.81,0.4,20.44,0.03c8.91-0.71,14.27-2.14,23.19-1.55
	c4.59,0.3,8.22,1.01,10.46,1.52c3.29-0.12,6.03,0.79,6.57,1.89C1002.56,64.6,1000.06,66.78,995.33,67.09z"/>
<path class="st42" d="M984.65,75.18c-9.13,1-14.26,1.48-17.21,1.7c-0.88,0.06-3.47,0.25-6.89,0.75c-1.36,0.2-2.47,0.39-3.21,0.53
	c-3.73,0.28-7.18-0.19-7.98-1.49c-0.98-1.59,1.83-4.8,7.98-6.98c4.9,1.38,13.91,3.3,24.66,1.88c3.38-0.44,6.32-1.14,8.81-1.88
	c2.78,1.41,4.32,3.38,3.69,4.6C993.74,75.75,989.49,76.75,984.65,75.18z"/>
<path class="st44" d="M903.82,90.15c-3.1-0.35-9.29-0.47-15.56,3.63c-2.04,1.33-3.69,2.85-4.99,4.27
	c2.12,10.14,9.44,17.16,17.3,17.16c9.49,0,17.3-7.75,17.3-17.16c0-0.28-0.01-0.55-0.02-0.83c-0.6-0.75-1.29-1.49-2.06-2.2
	C911.49,91.08,906.69,90.28,903.82,90.15z"/>
<path class="st44" d="M1032.52,93.41c3.1-0.35,9.29-0.47,15.56,3.68c2.04,1.35,3.69,2.89,4.99,4.33c-2.12,10.28-9.44,17.4-17.3,17.4
	c-9.49,0-17.3-7.86-17.3-17.4c0-0.28,0.01-0.56,0.02-0.84c0.6-0.76,1.29-1.51,2.06-2.23C1024.85,94.35,1029.65,93.54,1032.52,93.41z
	"/>
<ellipse class="st45" cx="893.57" cy="102.57" rx="6.54" ry="4.57"/>
<ellipse class="st45" cx="1028.77" cy="105.57" rx="6.54" ry="4.57"/>
<path class="st40" d="M964.83,164.39c2.9,6.16-2.58,16.89-10.3,20.31c-8.26,3.66-13.45-3.53-24.91-0.92
	c-11.58,2.64-16.2,12.24-17.78,11.08c-2.46-1.81,5.15-27.84,25.53-34.67C946.77,157.05,961.42,157.13,964.83,164.39z"/>
<path class="st40" d="M965.75,164.39c-2.9,6.16,2.58,16.89,10.3,20.31c8.26,3.66,13.45-3.53,24.91-0.92
	c11.58,2.64,16.2,12.24,17.78,11.08c2.46-1.81-5.15-27.84-25.53-34.67C983.82,157.05,969.17,157.13,965.75,164.39z"/>
<path class="st46" d="M869.26,117.73l-43.52-40.27c-0.21-2.25-0.42-4.5-0.62-6.76c11.55,6.55,25.62,16.59,38.26,31.86
	c3.35,4.05,6.28,8.07,8.83,11.97C871.23,115.6,870.24,116.67,869.26,117.73z"/>
<path class="st46" d="M1059.35,117.19c4-4.7,6.35-8.98,7.75-12c4.34-9.37,3.37-15.02,8.32-22.53c2.79-4.23,6.03-7.03,8.25-8.7
	c0.14,2.66,0.28,5.31,0.42,7.97c-0.75,2.46-1.82,5.93-3.1,10.09c-3.8,12.31-4.22,13.52-4.88,14.89c-1.89,3.95-5.79,9.49-14.74,14.36
	C1060.7,119.92,1060.03,118.55,1059.35,117.19z"/>
<linearGradient id="SVGID_1_" gradientUnits="userSpaceOnUse" x1="866.5411" y1="380.075" x2="931.0681" y2="380.075" gradientTransform="matrix(1 0 0 -1 0 504.08)">
	<stop  offset="0" style="stop-color:#FFFFFF"/>
	<stop  offset="0.9925" style="stop-color:#000000;stop-opacity:0.2"/>
</linearGradient>
<path class="st47" d="M926.45,137.6c-17.71,0-35.41,0-53.12,0c-1.19-0.95-5.53-4.64-6.57-11.01c-1.5-9.17,5.18-15.63,5.76-16.18
	c18.14,0.17,36.28,0.33,54.42,0.5c1.11,1.61,4.7,7.2,4.05,14.92C930.48,131.77,927.74,135.89,926.45,137.6z"/>
<linearGradient id="SVGID_2_" gradientUnits="userSpaceOnUse" x1="996.9711" y1="376.715" x2="1061.498" y2="376.715" gradientTransform="matrix(1 0 0 -1 0 504.08)">
	<stop  offset="0" style="stop-color:#FFFFFF"/>
	<stop  offset="0.9925" style="stop-color:#000000;stop-opacity:0.2"/>
</linearGradient>
<path class="st48" d="M1056.88,140.96c-17.71,0-35.41,0-53.12,0c-1.19-0.95-5.53-4.64-6.57-11.01c-1.5-9.17,5.18-15.63,5.76-16.18
	c18.14,0.17,36.28,0.33,54.42,0.5c1.11,1.61,4.7,7.2,4.05,14.92C1060.91,135.13,1058.16,139.25,1056.88,140.96z"/>
<path class="st46" d="M930.98,125.83c4.85-3.02,16.42-9.32,32.48-9.59c16.7-0.28,28.86,6.13,33.74,9.06c0,1.55-0.01,3.1-0.01,4.65
	c-6.87-2.77-18.65-6.51-33.66-6.44c-14.88,0.07-26.52,3.86-33.35,6.66C930.44,128.73,930.71,127.28,930.98,125.83z"/>
<path class="st49" d="M960.86,165.28"/>
<path class="st49" d="M960.48,157.71"/>
<polyline class="st50" points="277.22,249.46 276.44,249.46 275.28,249.27 274.2,248.98 273.51,248.62 272.77,248.16 272.16,247.61 
	271.81,247.06 271.43,246.52 271.43,244.46 271.43,238.37 271.43,207.7 271.43,168.01 271.43,135.27 271.43,96.36 271.43,47.44 
	271.43,46.69 271.43,45.96 271.43,45.6 271.69,45.07 272.11,44.57 272.57,43.96 273.05,43.59 273.68,43.21 274.16,43.05 
	274.71,42.84 275.45,42.66 275.98,42.53 276.52,42.53 276.89,42.46 277.22,42.46 277.5,42.46 277.65,42.46 277.2,42.64 276.61,43.1 
	276.32,43.64 276.11,44.39 276.11,45 276.11,46.32 276.11,60.05 276.11,77.39 276.11,104.96 276.11,118.06 276.11,152.91 
	276.11,187.86 276.11,217.9 276.11,248.23 276.52,248.85 277.22,249.46 "/>
<polyline class="st51" points="279.74,249.73 279.07,250 278.21,249.87 277.22,249.46 276.52,248.85 276.11,248.23 276.11,246.54 
	276.11,194.97 276.11,142.35 276.11,90.71 276.11,47.69 276.11,45.97 276.11,45 276.11,44.39 276.32,43.64 276.61,43.1 277.2,42.64 
	277.92,42.35 278.6,42.16 279.24,42.16 280.09,42.26 279.72,42.65 279.35,43.16 279.02,43.57 278.94,43.92 278.83,44.35 
	278.83,44.98 278.83,45.49 278.83,46.48 278.83,59.02 278.83,69.64 278.83,98.91 278.83,142.1 278.83,199.39 278.83,203.05 
	278.83,203.86 278.94,204.25 279.08,204.45 279.26,204.74 279.49,204.98 279.61,205.39 279.62,207.2 279.62,237.63 279.62,238.8 
	279.55,239.23 279.24,239.51 279.02,239.84 278.83,240.51 278.83,241.01 278.83,241.99 278.83,246.86 278.83,248 278.93,248.42 
	279.12,248.78 279.29,249.09 279.48,249.42 279.74,249.73 "/>
<polyline class="st52" points="287.57,251.53 286.85,251.67 286.33,251.6 285.73,251.53 285.15,251.35 284.57,251.11 284.11,250.87 
	283.62,250.4 283.32,250.04 283.16,249.54 283.06,248.9 283.06,243.62 283.06,225.62 283.06,210.67 283.06,168.61 283.06,105.22 
	283.06,53.31 283.06,43.98 283.06,43.3 283.21,42.84 283.33,42.33 283.6,41.86 283.96,41.33 284.24,41.07 284.53,40.9 284.85,40.82 
	285.21,40.65 285.52,40.61 285.82,40.61 286.25,40.56 286.67,40.56 286.85,40.56 287.06,40.56 287.44,40.61 287,40.95 286.67,41.3 
	286.41,41.66 286.18,42.15 286.08,42.58 286.02,43.16 286.01,43.79 286.01,44.39 286.01,55.47 286.01,88.76 286.01,128.85 
	286.01,164.65 286.01,208.83 286.01,246.24 286.01,249.42 286.01,249.89 286.1,250.21 286.4,250.59 286.63,250.81 287.57,251.53 "/>
<path class="st26" d="M286.25,41.94"/>
<path class="st26" d="M286.48,41.54"/>
<path class="st26" d="M285.74,39.98"/>
<polygon class="st53" points="284.3,250.95 283.87,250.95 283.16,250.82 282.35,250.59 281.72,250.44 281.03,250.2 280.57,250.04 
	280.07,249.9 279.74,249.73 279.48,249.42 279.29,249.09 279.12,248.78 278.93,248.42 278.83,248 278.83,241.01 278.83,240.51 
	279.02,239.84 279.24,239.51 279.55,239.23 279.62,238.8 279.62,237.63 279.61,235.59 279.62,234.79 279.6,231.2 279.62,227.12 
	279.62,221.52 279.62,216.59 279.62,210.12 279.61,205.39 279.49,204.98 279.26,204.74 279.08,204.45 278.94,204.25 278.83,203.86 
	278.83,203.05 278.83,200.44 278.83,197.36 278.83,176.39 278.83,134.96 278.83,98.91 278.83,75.43 278.83,51.49 278.83,45.49 
	278.83,44.35 278.94,43.92 279.02,43.57 279.35,43.16 279.72,42.65 280.09,42.26 280.54,41.9 281.09,41.6 281.61,41.49 
	282.33,41.27 283.06,41.15 283.64,41.1 283.95,41.1 284.15,41.15 283.87,41.47 283.71,41.7 283.49,42.04 283.39,42.22 283.29,42.5 
	283.24,42.73 283.17,42.97 283.1,43.16 283.06,43.48 283.06,43.71 283.06,44.22 283.06,57.29 283.06,79.35 283.06,109.46 
	283.06,153.73 283.06,204.83 283.06,232.47 283.06,248.12 283.09,249.12 283.21,249.7 283.44,250.18 283.74,250.51 "/>
<polyline class="st54" points="291.83,252.32 291.42,252.54 290.36,252.54 289.29,252.32 288.42,251.94 287.57,251.53 
	286.77,250.94 286.23,250.42 286.01,250.05 286.01,248.55 286.01,247.15 286.01,205.17 286.01,135.96 286.01,43.29 286.1,42.37 
	286.25,41.94 286.48,41.54 286.86,41.05 287.44,40.61 288.09,40.31 288.92,40.06 289.68,39.8 290.53,39.59 291.27,39.4 291.83,39.3 
	292.18,39.34 290.84,40.89 290.7,53.7 290.7,107.43 290.7,142.58 290.7,224.64 290.88,251.39 291.83,252.32 "/>
<polyline class="st55" points="288.65,51.39 288.65,50.76 288.65,50.28 288.65,49.91 288.65,49.68 288.6,49.5 288.51,49.37 
	288.41,49.3 288.3,49.3 288.26,49.41 288.26,49.57 288.26,49.8 288.26,50.08 288.26,50.35 288.26,50.66 288.26,50.97 288.26,51.21 
	288.26,51.35 288.21,51.47 288.1,51.54 287.98,51.47 287.91,51.32 287.91,51.16 287.91,50.77 287.91,50.31 287.91,49.96 
	287.91,49.66 287.91,49.3 "/>
<polygon class="st55" points="288.74,55.35 288.74,54.78 288.74,54.33 288.74,54 288.74,53.87 288.69,53.65 288.65,53.53 
	288.54,53.42 288.42,53.31 288.28,53.31 288.12,53.31 287.91,53.31 287.83,53.49 287.75,53.69 287.72,53.94 287.72,54.11 
	287.72,54.54 287.72,55.13 287.72,55.3 287.72,55.56 287.8,55.93 287.91,56.14 288.19,56.18 288.45,56.07 288.65,55.95 
	288.74,55.76 "/>
<polyline class="st55" points="287.86,57.76 288.23,57.76 288.5,57.76 288.74,57.76 288.81,57.98 288.81,58.22 288.62,58.5 
	287.86,59.66 287.79,59.85 287.79,60.08 287.86,60.28 288.12,60.28 288.35,60.28 288.57,60.28 288.81,60.28 "/>
<polyline class="st55" points="288.81,62.42 288.59,62.62 288.45,62.8 288.3,62.96 288.17,63.16 288.17,63.36 288.17,63.54 
	288.3,63.77 288.49,63.94 288.68,64.08 288.81,64.15 "/>
<polyline class="st55" points="287.58,63.37 287.79,63.37 287.99,63.37 288.17,63.36 "/>
<polyline class="st49" points="289.09,225.53 289.09,226.63 289.09,228.22 289.09,230.31 289.02,230.62 288.83,230.77 
	288.61,230.77 288.44,230.77 288.36,230.61 288.36,230.08 288.36,229.52 288.36,226.13 288.32,225.87 288.21,225.69 288.09,225.53 
	287.94,225.44 287.78,225.36 287.59,225.3 287.41,225.3 "/>
<polyline class="st49" points="289.04,238.22 289.04,237.07 289.04,236.28 289.04,235.43 288.98,235.14 288.83,234.98 
	288.65,234.91 288.41,234.91 288.1,234.91 287.78,234.91 287.6,234.81 287.51,234.6 287.51,234.22 287.51,233.66 287.51,233.32 
	287.51,232.47 "/>
<polyline class="st49" points="286.85,243.76 288.83,243.76 288.97,243.76 288.97,243.27 287.91,239.44 287.84,239.19 
	287.76,238.97 287.65,238.84 287.45,238.84 287.43,239.1 287.44,239.3 287.43,239.64 287.51,244.89 "/>
<circle class="st56" cx="385.08" cy="113.99" r="13.38"/>
<circle class="st57" cx="388.67" cy="116.06" r="15.44"/>
<circle class="st57" cx="393.41" cy="120.62" r="16.9"/>
<circle class="st57" cx="382.03" cy="119.55" r="16.9"/>
<circle class="st58" cx="391.26" cy="118.65" r="18.03"/>
<path class="st57" d="M290.7,250.12v-72.98c0-6.61,0-27.61,0-37.39c0-1.32,0-3.04,0-4.69c0-0.49,0-0.98,0-1.45c0-1.51,0-2.8,0-3.44
	c0-0.53,0-1.05,0-1.58c0-17.9,0-35.79,0-53.69V42.85v-0.61v-0.53v-0.43l0.14-0.39l0.19-0.31l0.17-0.29l0.19-0.28l0.31-0.26
	l0.25-0.23l0.23-0.19l0.26-0.2l0.26-0.2h0.71h11.66h6.06h9.4h9.31h7.55h8.92h6.77h6.98h5.32h7.84h7.37h8.98h6.24h6.21h7.16h7.54
	h9.54h29.1h31.51h26.78h5.04h1.5h1.08h0.57l0.48,0.07l0.38,0.16l0.44,0.31l0.22,0.23l0.32,0.26l0.1,0.13l0.39,0.38l0.23,0.31
	l0.34,0.38l0.19,0.28v0.61v8.1v17.52v15.75v21.71v38.26v28.22v24.63v23.66v22.02v8.2v0.37l-0.09,0.38l-0.2,0.34l-0.2,0.26
	l-0.22,0.24l-0.22,0.36l-0.28,0.26l-0.24,0.2l-0.38,0.18l-0.39,0.22l-0.59,0.18h-23.56h-24.43h-28.29h-23.59H397h-30.22h-65.72h-7.6
	l-0.67-0.25l-0.28-0.07l-0.4-0.24l-0.5-0.35l-0.41-0.4l-0.31-0.38l-0.18-0.24v-0.52L290.7,250.12L290.7,250.12z"/>
<circle class="st59" cx="385.37" cy="106.72" r="1.22"/>
<polygon class="st60" points="291.13,128.25 307.01,119.28 319.61,110.32 328.07,102.65 335.15,96.5 343.6,88.21 353.27,78.2 
	358.96,68.54 366.38,57.76 369.84,50.42 372.77,42.16 373.22,38.94 292.7,38.94 290.84,40.89 "/>
<path class="st60" d="M456.8,38.94c0,0-1.86-2.19,2.37,14.36c4.22,16.55,1.69,6.98,1.69,6.98s0.93,1.79,4.27,8.22
	s-1.32-3.04,4.52,8.7s7.1,13.18,7.1,13.18l4.73,5.41l4.39,4.73l5.41,4.97l4.39,4.82l4.39,6.09l3.72,4.06l4.73,4.06l4.39,1.69
	l4.73,2.38l7.31,2.35V42.06l-2.61-3.05L456.8,38.94z"/>
<polygon class="st61" points="404.11,135.06 404.11,141.88 404.11,148.83 404.11,154.57 404.11,155.33 404.26,155.51 404.52,155.6 
	404.82,155.71 405.19,155.84 405.71,156.09 406.1,156.21 406.59,156.29 407.03,156.45 407.44,156.62 407.94,156.73 408.41,156.83 
	408.85,156.88 409.14,156.88 409.29,156.71 409.29,156.42 409.29,155.13 409.29,153.17 409.29,151.9 409.29,150.61 409.29,149.13 
	409.29,147.05 409.29,145.01 409.29,143.19 409.29,141.07 409.29,139.75 409.39,139.42 409.55,139.19 409.77,139.02 409.95,138.94 
	410.11,138.94 410.32,138.92 410.46,138.94 410.61,138.98 410.78,139.11 410.87,139.25 410.98,139.48 411.09,139.75 411.09,139.99 
	411.09,141.32 411.09,143.17 411.09,144.8 411.09,146.47 411.09,147.03 411.28,147.25 411.56,147.41 411.82,147.5 412.09,147.58 
	412.38,147.68 412.64,147.74 413.1,147.88 413.45,147.95 413.73,147.95 413.9,147.95 414.22,147.95 414.45,147.96 414.81,147.94 
	415.07,147.84 415.32,147.63 415.62,147.39 415.85,147.15 416.06,146.97 416.28,146.78 416.47,146.45 416.61,146.13 416.8,145.8 
	416.9,145.43 416.99,145.01 417.09,144.7 417.09,144.31 417.09,144.05 417.09,143.7 417.09,143.21 417.09,142.81 417.09,142.45 
	417.09,142.08 417.01,141.71 416.9,141.47 416.76,141.2 416.62,140.88 416.42,140.58 416.23,140.24 416.06,140.01 415.89,139.75 
	415.59,139.34 415.27,138.98 414.92,138.68 414.32,138.27 413.78,138.03 413.27,137.66 412.72,137.49 411.47,136.99 410.7,136.76 
	409.78,136.49 408.6,136.12 407.62,135.75 406.78,135.45 406.09,135.27 405.67,135.25 405.31,135.22 404.87,135.2 404.67,135.19 "/>
<path class="st49" d="M404.11,153.88"/>
<path class="st49" d="M403.77,147.03"/>
<polygon class="st61" points="404.11,153.88 403.77,153.99 403.45,154.22 403.3,154.3 402.89,154.35 402.5,154.35 402.13,154.35 
	401.58,154.35 401.01,154.35 400.13,154.35 399.21,154.35 398.51,154.29 397.86,154.26 397.5,154.17 397.03,154.11 396.55,154.11 
	396.1,153.98 395.66,153.88 395.24,153.74 394.86,153.63 394.46,153.47 394.12,153.31 393.77,153.12 393.44,152.94 393.16,152.69 
	392.98,152.53 392.88,152.36 392.88,152.13 392.79,151.9 392.79,151.61 392.95,151.4 393.17,151.21 393.51,150.94 393.85,150.75 
	394.41,150.46 394.97,150.22 395.67,149.98 396.55,149.67 397.17,149.48 397.95,149.21 398.67,148.95 399.51,148.68 400.49,148.37 
	401.41,148.07 402.1,147.9 402.88,147.64 403.39,147.5 403.77,147.4 404.11,147.36 404.11,147.82 404.11,148.51 404.11,149.22 
	404.11,149.74 404.11,149.95 403.92,150.06 403.77,150.13 403.51,150.21 403.26,150.33 402.92,150.49 402.49,150.63 401.94,150.77 
	401.49,150.94 400.79,151.14 400.36,151.25 399.92,151.35 399.58,151.51 399.21,151.61 398.81,151.74 398.51,151.83 398.23,151.95 
	398.04,152.08 397.92,152.25 397.93,152.41 398.01,152.59 398.23,152.74 398.45,152.89 398.79,152.91 399.2,152.91 399.57,152.84 
	399.97,152.75 400.68,152.52 401.19,152.44 401.8,152.22 402.38,152.05 402.92,151.81 403.41,151.61 403.66,151.57 404.11,151.46 
	404.11,151.81 404.11,152.34 404.11,153.07 "/>
<polygon class="st61" points="410.4,149.48 411.36,149.09 412.31,148.93 413.18,148.71 413.88,148.56 414.55,148.56 415.3,148.44 
	415.81,148.44 416.5,148.44 417.09,148.44 417.72,148.54 418.18,148.57 418.82,148.62 419.51,148.68 420.3,148.83 420.79,148.93 
	421.31,149.19 421.75,149.42 422.18,149.68 422.71,149.84 423.13,150.1 423.41,150.43 423.62,150.66 423.72,151.04 423.72,151.3 
	423.59,151.61 423.38,151.95 423.13,152.18 422.82,152.47 422.5,152.68 422.05,152.91 421.7,153.11 421.15,153.36 420.66,153.53 
	420.11,153.71 419.61,153.84 419.15,153.96 418.6,154.06 417.98,154.2 417.33,154.46 416.6,154.74 415.85,154.97 415.1,155.21 
	414.41,155.45 413.5,155.72 412.59,156.03 411.79,156.29 410.92,156.49 410.36,156.49 409.84,156.57 409.29,156.57 409.29,155.39 
	409.29,154.62 409.64,154.43 410.16,154.26 410.79,154.05 411.65,153.81 412.64,153.5 413.27,153.29 414.09,152.94 415.08,152.51 
	415.98,152.04 416.79,151.85 417.33,151.67 417.94,151.5 418.28,151.36 418.66,151.19 418.9,151.04 418.91,150.85 418.84,150.66 
	418.59,150.53 418.35,150.47 417.82,150.39 417.4,150.38 417.09,150.42 416.5,150.56 416.04,150.64 415.39,150.85 414.82,150.91 
	414.21,151.12 413.67,151.37 413.18,151.53 412.59,151.69 412.15,151.89 411.47,152.18 410.92,152.42 410.48,152.51 410.15,152.59 
	409.29,152.77 409.29,152.04 409.29,151.18 409.29,150.4 409.29,150.04 409.29,149.75 409.59,149.65 409.99,149.56 "/>
<ellipse class="st62" cx="371.98" cy="105.5" rx="20.81" ry="31.82"/>
<ellipse class="st62" cx="438.22" cy="104" rx="20.81" ry="31.82"/>
<polygon class="st63" points="328.07,102.65 348.48,102.65 348.48,109.2 320.84,109.2 "/>
<rect x="394.55" y="102.65" class="st63" width="21" height="6.55"/>
<polygon class="st63" points="460.82,102.65 488.17,102.65 494.65,109.2 460.82,109.2 "/>
<polygon class="st64" points="361.71,67.66 364.52,65.18 368.31,62.19 370.63,61.33 374.83,60.56 380.04,60.56 383.15,60.56 
	387.43,60.56 389.6,60.56 390.27,60.56 391.43,61.33 391.43,63.06 391.43,65.02 391.43,66.83 390.27,67.66 390.03,68.49 
	384.3,69.31 382.18,69.31 379.54,69.31 376.57,69.31 371.95,69.31 368.48,69.31 365.18,69.31 364.02,69.31 362.87,69.31 "/>
<polygon class="st64" points="424.21,66.1 427.02,63.62 430.82,60.63 433.13,59.76 437.33,59 442.54,59 445.65,59 449.93,59 
	452.11,59 452.78,59 453.93,59.76 453.93,61.5 453.93,63.45 453.93,65.27 452.78,66.1 452.53,66.92 446.81,67.75 444.69,67.75 
	442.04,67.75 439.07,67.75 434.45,67.75 430.98,67.75 427.68,67.75 426.53,67.75 425.37,67.75 "/>
<polygon class="st13" points="387.69,73.19 389.85,71.79 391.75,71.16 393.27,70.53 394.91,70.53 396.05,70.53 397.45,70.53 
	399.35,71.03 400.74,71.29 403.09,71.29 404.67,71.16 407.2,71.03 409.36,69.77 411.26,69.13 413.79,68.5 415.56,68.5 416.96,68.5 
	418.73,69.26 420.5,70.15 421.64,70.84 422.28,71.67 418.73,70.84 416.83,70.27 415.31,70.15 412.52,70.84 411,71.79 409.1,72.34 
	406.7,73.19 403.91,73.19 400.74,73.19 398.84,72.34 396.43,72.34 395.17,72.34 393.52,72.34 391.87,73.19 390.35,73.19 "/>
<polygon class="st13" points="387.69,79.4 389.85,78.01 391.75,77.38 393.27,76.74 394.91,76.74 396.05,76.74 397.45,76.74 
	399.35,77.25 400.74,77.5 403.09,77.5 404.67,77.38 407.2,77.25 409.36,75.98 411.26,75.35 413.79,74.72 415.56,74.72 416.96,74.72 
	418.73,75.48 420.5,76.36 421.64,77.06 422.28,77.88 418.73,77.06 416.83,76.49 415.31,76.36 412.52,77.06 411,78.01 409.1,78.55 
	406.7,79.4 403.91,79.4 400.74,79.4 398.84,78.55 396.43,78.55 395.17,78.55 393.52,78.55 391.87,79.4 390.35,79.4 "/>
<polygon class="st65" points="371.83,154.04 368.62,155.64 365.16,158.14 362.31,161.29 358.87,164.76 356.02,168.88 353.17,173 
	350.09,178.02 346.89,182.53 344.87,185.41 342.5,190.62 340.14,194.86 338.73,200.32 337.55,204.87 340.99,198.48 344.24,193.76 
	347.98,187.18 350.35,182.94 352.42,178.87 356.16,173.77 359,169.17 362.21,165.63 364.82,161.45 "/>
<polygon class="st65" points="478.09,200.9 477.36,197.67 475.83,193.92 473.55,190.42 471.11,186.31 467.92,182.45 464.74,178.6 
	460.75,174.22 457.28,169.93 455.07,167.21 450.74,163.35 447.32,159.85 442.53,156.68 438.55,154.04 443.73,159.21 447.38,163.62 
	452.66,169.11 456.08,172.62 459.41,175.82 463.3,180.77 466.95,184.8 469.5,188.73 472.8,192.41 "/>
<polygon class="st66" points="370.65,158.06 369.38,158.74 368.87,159.58 368.87,160.43 368.87,161.78 368.19,163.98 367.77,166.1 
	367.26,168.97 367.26,172.95 366.42,177.09 366.42,179.72 366.42,186.57 366.84,193 367.52,196.46 368.53,199.93 369.55,203.48 
	372.59,209.24 374.28,211.52 375.3,213.3 376.65,213.97 376.06,209.57 376.06,207.8 376.65,206.61 378.26,211.27 380.97,217.02 
	383.59,220.49 385.87,223.11 388.24,225.48 390.02,226.75 390.78,226.75 390.78,224.8 390.19,222.09 390.1,220.74 392.22,224.8 
	393.99,227.17 395.68,228.86 397.71,230.72 400.17,232.24 402.45,233.68 404.14,234.53 405.76,235.12 406.26,235.12 407.44,234.53 
	410.57,232.75 413.45,231.14 415.39,229.62 417.42,227.51 419.28,225.31 420.81,222.69 421.65,220.82 421.65,222.77 421.14,225.14 
	420.72,226.58 421.14,227 422.24,226.58 423.17,225.39 426.05,222.94 428.33,220.4 429.86,218.29 431.63,215.33 432.9,212.45 
	434.09,209.15 434.85,206.7 434.85,208.31 435.44,210.25 435.44,212.2 434.76,214.23 435.44,214.06 436.54,213.21 438.15,210.93 
	439.84,207.88 441.7,205.01 442.54,202.22 443.83,197.83 444.71,192.37 444.71,188.9 444.99,182.69 444.58,175.19 444.1,171.65 
	442.8,164.56 442.05,161.42 441.51,159.58 440.08,158.06 439.12,158.06 "/>
<ellipse class="st67" cx="371.7" cy="104" rx="16.72" ry="24.6"/>
<polygon class="st68" points="355.41,98.48 358.05,89.81 361.8,84.18 364.59,81.73 368.45,79.86 371.7,79.4 374.33,79.7 
	377.17,80.74 378.39,81.45 380.18,82.79 382.03,84.66 383.19,86.14 385.14,89.36 386.3,92.01 387.05,94.22 387.54,96.12 
	387.54,97.17 387.54,97.88 388,98.48 "/>
<ellipse class="st67" cx="438.22" cy="104" rx="16.72" ry="24.6"/>
<polygon class="st68" points="421.93,98.48 424.57,89.81 428.32,84.18 431.11,81.73 434.97,79.86 438.22,79.4 440.85,79.7 
	443.69,80.74 444.91,81.45 446.7,82.79 448.55,84.66 449.72,86.14 451.66,89.36 452.83,92.01 453.57,94.22 454.07,96.12 
	454.07,97.17 454.07,97.88 454.52,98.48 "/>
<ellipse class="st69" cx="374.78" cy="111.02" rx="8.28" ry="8.48"/>
<circle class="st69" cx="444" cy="111.04" r="8.5"/>
<ellipse class="st70" cx="350.99" cy="134.93" rx="3.7" ry="6.68"/>
<ellipse class="st70" cx="345.67" cy="153.88" rx="3.7" ry="6.68"/>
<ellipse class="st70" cx="458.32" cy="134.93" rx="3.7" ry="6.68"/>
<ellipse class="st70" cx="464.52" cy="150.85" rx="3.7" ry="6.68"/>
<ellipse class="st70" cx="340.21" cy="172.82" rx="3.7" ry="6.68"/>
<ellipse class="st70" cx="334.89" cy="191.77" rx="3.7" ry="6.68"/>
<ellipse class="st70" cx="471.92" cy="167.23" rx="3.7" ry="6.68"/>
<ellipse class="st70" cx="478.12" cy="183.15" rx="3.7" ry="6.68"/>
<path class="st71" d="M744.44,166.97H626.69c-15.46,0-28-12.54-28-28v-37.03c0-15.46,12.54-28,28-28h117.75c15.46,0,28,12.54,28,28
	v37.03C772.44,154.43,759.9,166.97,744.44,166.97z"/>
<text transform="matrix(0.8124 0 0 1 666.3496 96.122)" class="st72 st73">Oh PS4, Noo. </text>
<text transform="matrix(0.8124 0 0 1 602.3408 121.3222)" class="st72 st73">There is no other side. </text>
<text transform="matrix(0.8124 0 0 1 694.7754 146.5219)" class="st72 st73">This is it...</text>
<path class="st71" d="M778,176.04c-8.17-3.5-16.33-7-24.5-10.5c4-2.33,8-4.67,12-7c1-1.53,2-3.2,3-5c1.15-2.09,2.15-4.1,3-6
	C773.67,157.04,775.83,166.54,778,176.04z"/>
<rect x="373.5" y="106.54" class="st58" width="6" height="6"/>
<rect x="442.48" y="105.54" transform="matrix(0.8302 -0.5574 0.5574 0.8302 14.9341 267.109)" class="st74" width="7" height="7"/>
<circle class="st58" cx="373.5" cy="114.54" r="3"/>
<circle class="st58" cx="442.5" cy="114.54" r="3"/>
</svg>
