<?xml version="1.0" encoding="utf-8"?>
<!-- Generator: Adobe Illustrator 25.1.0, SVG Export Plug-In . SVG Version: 6.00 Build 0)  -->
<svg version="1.1" id="Layer_1" xmlns="http://www.w3.org/2000/svg" xmlns:xlink="http://www.w3.org/1999/xlink" x="0px" y="0px"
	 viewBox="0 0 1131.52 1024" style="enable-background:new 0 0 1131.52 1024;" xml:space="preserve">
<style type="text/css">
	.st0{fill:#1A1A1A;}
	.st1{fill:#736357;}
	.st2{fill:#534741;}
	.st3{fill:#808080;stroke:#000000;stroke-width:5;stroke-miterlimit:10;}
	.st4{fill:#4D4D4D;stroke:#000000;stroke-width:5;stroke-miterlimit:10;}
	.st5{fill:#E6E6E6;stroke:#000000;stroke-width:5;stroke-miterlimit:10;}
	.st6{fill:#009245;stroke:#000000;stroke-width:5;stroke-miterlimit:10;}
	.st7{fill:#666666;stroke:#000000;stroke-width:5;stroke-miterlimit:10;}
	.st8{fill:#0071BC;stroke:#000000;stroke-width:5;stroke-miterlimit:10;}
	.st9{stroke:#000000;stroke-width:5;stroke-miterlimit:10;}
	.st10{fill:#999999;stroke:#000000;stroke-width:5;stroke-miterlimit:10;}
	.st11{fill:#333333;stroke:#000000;stroke-width:5;stroke-miterlimit:10;}
	.st12{fill:#FFFFFF;stroke:#FFFFFF;stroke-width:3;stroke-miterlimit:10;}
	.st13{fill:#26272A;stroke:#000000;stroke-miterlimit:10;}
	.st14{fill:#3E3F44;stroke:#000000;stroke-miterlimit:10;}
	.st15{fill:#52545A;stroke:#000000;stroke-miterlimit:10;}
	.st16{fill:none;stroke:#000000;stroke-miterlimit:10;}
	.st17{fill:#282A2E;stroke:#000000;stroke-miterlimit:10;}
	.st18{fill:#2B2C31;stroke:#000817;stroke-miterlimit:10;}
	.st19{fill:none;stroke:#000000;stroke-width:0.25;stroke-miterlimit:10;}
	.st20{fill:none;stroke:#000817;stroke-miterlimit:10;}
	.st21{fill:#00B98F;stroke:#000817;stroke-width:1;stroke-miterlimit:10.0003;}
	.st22{fill:#56585D;stroke:#000817;stroke-width:1;stroke-miterlimit:10.0003;}
	.st23{fill:#FFFFFF;stroke:#000000;stroke-width:1;stroke-miterlimit:10.0003;}
	.st24{fill:#56585D;stroke:#000817;stroke-miterlimit:10;}
	.st25{fill:#FFFFFF;stroke:#000817;stroke-width:1;stroke-miterlimit:10.0003;}
	.st26{fill:#948F8F;stroke:#000817;stroke-miterlimit:10;}
	.st27{fill:#1F2023;stroke:#000817;stroke-miterlimit:10;}
	.st28{opacity:0.73;fill:#ADB2AE;stroke:#4D4545;stroke-width:7.0003;stroke-miterlimit:10.0004;enable-background:new    ;}
	.st29{fill:#4D4545;stroke:#4D4545;stroke-width:3;stroke-miterlimit:10;}
	.st30{fill:#B2B1AA;stroke:#000000;stroke-miterlimit:10;}
	.st31{stroke:#000000;stroke-miterlimit:10;}
	.st32{stroke:#000000;stroke-width:0.75;stroke-miterlimit:10;}
	.st33{fill:#B2B1AA;stroke:#000000;stroke-width:0.75;stroke-miterlimit:10;}
	.st34{fill:#FFFFFF;stroke:#ECBCB4;stroke-width:1;stroke-miterlimit:10.0001;}
	.st35{stroke:#A27100;stroke-width:9.9998;stroke-miterlimit:9.9998;}
	.st36{fill:#FFFFFF;}
</style>
<path class="st0" d="M-93.74-7.1c-0.14,350.37-0.28,700.73-0.42,1051.1c435.03,0,870.05,0,1305.08,0
	c0.1-350.21,0.21-700.42,0.31-1050.63L-93.74-7.1z"/>
<rect x="138.84" y="330.18" class="st1" width="38.78" height="14.58"/>
<rect x="138.84" y="352.7" class="st1" width="38.78" height="14.58"/>
<rect x="177.62" y="324.88" class="st2" width="40.07" height="47.7"/>
<rect x="189.25" y="328.85" class="st2" width="37.48" height="38.43"/>
<path class="st1" d="M493,356.68v-41.21v-32.4l7.76-15.16c4.74-8.39,9.48-16.78,14.22-25.18c4.74-4.86,9.48-9.72,14.22-14.58
	c4.31,3.53,8.62,7.07,12.93,10.6c-4.74,4.86-9.48,9.72-14.22,14.58l-7.76,10.6l-5.82,12.29l-7.11,15.54v21.2v25.18l-0.57,18.55
	C502.1,356.68,497.55,356.68,493,356.68z"/>
<path class="st1" d="M555.04,343.43c0.86-4.42,1.72-8.83,2.59-13.25c2.91-8.33,3.7-15.16,3.88-19.88
	c0.26-6.76-0.62-12.33,2.59-18.55c1.62-3.15,3.7-5.31,5.17-6.63c3.79-2.65,7.67-5.3,11.63-7.95c4.79-3.21,9.54-6.3,14.22-9.28
	c2.4-2.95,5.38-6.14,9.05-9.28c8.46-7.23,17.04-11.11,23.27-13.25c7.76-2.21,15.51-4.42,23.27-6.63c7.32-1.77,14.65-3.53,21.97-5.3
	c8.19,0,16.37,0,24.56,0c5.63,0.55,11.69,1.4,18.1,2.65c4.08,0.8,7.96,1.69,11.63,2.65c2.59,2.65,5.17,5.3,7.76,7.95
	c1.29,2.65,2.59,5.3,3.88,7.95c-3.45,3.53-6.89,7.07-10.34,10.6c-2.15-3.53-4.31-7.07-6.46-10.6c-3.88-1.33-7.76-2.65-11.63-3.98
	c-4.31-1.33-8.62-2.65-12.93-3.98c-7.76,0.44-15.51,0.88-23.27,1.33c-6.46,0.88-12.93,1.77-19.39,2.65
	c-4.31,1.33-8.62,2.65-12.93,3.98c-4.31,2.65-8.62,5.3-12.93,7.95c-5.17,2.65-10.34,5.3-15.51,7.95c-3.71,2.31-7.62,4.95-11.63,7.95
	c-5.38,4.02-10.11,8.07-14.22,11.93c-1.99,1.37-6.2,4.66-9.05,10.6c-3.03,6.33-2.81,12.14-2.59,14.58
	c-0.43,7.51-0.86,15.02-1.29,22.53C567.97,339.89,561.5,341.66,555.04,343.43z"/>
<path class="st3" d="M420.62,499.78c-38.78-14.58-77.55-29.15-116.33-43.73c3.02-63.16,6.03-126.32,9.05-189.48
	c42.65,3.53,85.31,7.07,127.96,10.6C434.4,351.38,427.51,425.58,420.62,499.78z"/>
<polygon class="st4" points="411.06,399.47 322.17,391.98 324.18,366.89 413.07,374.38 "/>
<polygon class="st4" points="416.06,344.74 327.17,337.25 329.18,312.16 418.07,319.65 "/>
<ellipse class="st5" cx="341.12" cy="425.58" rx="14.22" ry="15.24"/>
<polygon class="st6" points="417.38,472.62 358.89,467.69 360.51,447.44 419.01,452.37 "/>
<path class="st7" d="M503.98,522.97c-27.57-7.07-55.15-14.13-82.72-21.2c7.45-74.28,14.9-148.57,22.36-222.85
	c25.29,8.91,50.58,17.83,75.88,26.74C514.32,378.1,509.15,450.54,503.98,522.97z"/>
<path class="st3" d="M564.73,548.15c-28.87-9.72-57.73-19.43-86.6-29.15c-4.31-16.78-8.62-33.57-12.93-50.35
	c6.03-25.18,12.06-50.35,18.1-75.53C510.45,444.79,537.59,496.47,564.73,548.15z"/>
<path class="st3" d="M742.64,508.27c-51.54,16.88-89.99,39.23-152.58,49.97c-2.4,0.41-9.2,1.61-14.98-2.14
	c-3.46-2.24-5.15-5.34-5.67-6.26c-13.22-23.27-51.09-94.55-83.01-153.61c-5.08-9.41-1.01-21.26,8.7-25.33
	c50.18-21.01,100.35-42.02,150.53-63.03c8.37-3.5,17.96,0.09,22.15,8.3c28.35,55.56,56.71,111.11,85.06,166.67
	C757.87,492.72,753,504.88,742.64,508.27z"/>
<path class="st8" d="M707.87,487.21c-36.44,11.94-72.87,23.87-109.31,35.81c-5.7,1.87-11.9-0.65-14.8-6.02
	c-19.82-36.7-39.64-73.39-59.46-110.09c-3.64-6.74-0.73-15.24,6.23-18.15c35.95-15.06,71.89-30.12,107.84-45.17
	c5.99-2.51,12.86,0.07,15.87,5.95c20.31,39.82,40.62,79.63,60.94,119.45C718.78,476.07,715.3,484.78,707.87,487.21z"/>
<path class="st7" d="M756.03,505.75c-46.1,17.67-92.2,35.33-138.3,53c16.37,4.86,32.74,9.72,49.12,14.58
	c25.42-12.81,50.84-25.62,76.26-38.43C747.41,525.18,751.72,515.46,756.03,505.75z"/>
<path class="st3" d="M900.79,295.06c-43.52-25.18-87.03-50.35-130.55-75.53c-30.16,35.78-60.32,71.55-90.48,107.33
	c27.14,60.51,54.29,121.02,81.43,181.53C807.73,437.29,854.26,366.17,900.79,295.06z"/>
<path class="st7" d="M894.33,295.06c-38.78-25.62-77.55-51.24-116.33-76.85c7.32-0.88,14.65-1.77,21.97-2.65
	c42.22,24.29,84.45,48.59,126.67,72.88C915.87,290.65,905.1,292.85,894.33,295.06z"/>
<path class="st7" d="M739.87,534.23c51.41-79.63,102.82-159.26,154.23-238.89c11.71-0.53,23.42-1.07,35.13-1.6
	c-54.93,79.71-109.86,159.41-164.79,239.12C756.25,533.31,748.06,533.77,739.87,534.23z"/>
<path class="st5" d="M789.64,273.86c-6.46-3.53-12.93-7.07-19.39-10.6c4.31-5.74,8.62-11.48,12.93-17.23
	c6.03,3.53,12.06,7.07,18.1,10.6C797.39,262.38,793.51,268.12,789.64,273.86z"/>
<path class="st5" d="M824.2,294.4c-6.46-3.53-12.93-7.07-19.39-10.6c4.31-5.74,8.62-11.48,12.93-17.23
	c6.03,3.53,12.06,7.07,18.1,10.6C831.96,282.91,828.08,288.65,824.2,294.4z"/>
<path class="st5" d="M857.81,314.27c-6.46-3.53-12.93-7.07-19.39-10.6c4.31-5.74,8.62-11.48,12.93-17.23
	c6.03,3.53,12.06,7.07,18.1,10.6C865.56,302.79,861.69,308.53,857.81,314.27z"/>
<path class="st5" d="M764.75,306.32c-6.46-3.53-12.93-7.07-19.39-10.6c4.31-5.74,8.62-11.48,12.93-17.23
	c6.03,3.53,12.06,7.07,18.1,10.6C772.5,294.84,768.62,300.58,764.75,306.32z"/>
<path class="st5" d="M800.51,325.37c-6.46-3.53-12.93-7.07-19.39-10.6c4.31-5.74,8.62-11.48,12.93-17.23
	c6.03,3.53,12.06,7.07,18.1,10.6C808.27,313.88,804.39,319.62,800.51,325.37z"/>
<path class="st5" d="M835.41,342.59c-6.46-3.53-12.93-7.07-19.39-10.6c4.31-5.74,8.62-11.48,12.93-17.23
	c6.03,3.53,12.06,7.07,18.1,10.6C843.17,331.11,839.29,336.85,835.41,342.59z"/>
<path class="st5" d="M741.06,339.94c-6.46-3.53-12.93-7.07-19.39-10.6c4.31-5.74,8.62-11.48,12.93-17.23
	c6.03,3.53,12.06,7.07,18.1,10.6C748.81,328.46,744.94,334.2,741.06,339.94z"/>
<path class="st5" d="M774.66,358.49c-6.46-3.53-12.93-7.07-19.39-10.6c4.31-5.74,8.62-11.48,12.93-17.23
	c6.03,3.53,12.06,7.07,18.1,10.6C782.42,347.01,778.54,352.75,774.66,358.49z"/>
<path class="st5" d="M809.56,377.04c-6.46-3.53-12.93-7.07-19.39-10.6c4.31-5.74,8.62-11.48,12.93-17.23
	c6.03,3.53,12.06,7.07,18.1,10.6C817.32,365.56,813.44,371.3,809.56,377.04z"/>
<path class="st5" d="M785,408.84c-6.46-3.53-12.93-7.07-19.39-10.6c4.31-5.74,8.62-11.48,12.93-17.23
	c6.03,3.53,12.06,7.07,18.1,10.6C792.76,397.36,788.88,403.1,785,408.84z"/>
<path class="st5" d="M748.81,391.62c-6.46-3.53-12.93-7.07-19.39-10.6c4.31-5.74,8.62-11.48,12.93-17.23
	c6.03,3.53,12.06,7.07,18.1,10.6C756.57,380.13,752.69,385.88,748.81,391.62z"/>
<path class="st5" d="M716.5,373.07c-6.46-3.53-12.93-7.07-19.39-10.6c4.31-5.74,8.62-11.48,12.93-17.23
	c6.03,3.53,12.06,7.07,18.1,10.6C724.25,361.58,720.38,367.33,716.5,373.07z"/>
<path class="st5" d="M761.92,443.18c-6.46-3.53-12.93-7.07-19.39-10.6c4.31-5.74,8.62-11.48,12.93-17.23
	c6.03,3.53,12.06,7.07,18.1,10.6C769.68,431.7,765.8,437.44,761.92,443.18z"/>
<path class="st5" d="M726.69,419.92c-3.58-6.29-7.15-12.57-10.73-18.86c1.42-2.99,2.85-5.98,4.27-8.97
	c6.03,3.53,12.06,7.07,18.1,10.6C734.45,408.44,730.57,414.18,726.69,419.92z"/>
<path class="st3" d="M507.9,210.26c-2.63-10.38,5.58-20.31,13.97-30.48c13.62-16.49,29.93-24.23,37.73-27.83
	c16.39-7.57,30.31-9.58,37.73-10.6c14.17-1.94,26.36-3.61,40.52,1.33c5.83,2.03,16.32,5.69,23.75,15.9
	c11.15,15.32,6.15,32.63,5.59,34.45c-1.16,3.76-2.96,9.62-8.38,14.58c-6.77,6.18-12.47,4.83-32.14,10.6
	c-4.02,1.18-12.35,3.75-22.36,7.95c-10.82,4.54-17.64,7.4-25.15,13.25c-9.54,7.42-8.86,10.84-13.97,11.93
	c-7.16,1.52-12.03-4.41-30.74-18.55C513.79,217.18,509.53,216.71,507.9,210.26z"/>
<path class="st9" d="M541.47,169.18c-0.47,6.76,12.64,8.4,25.85,19.88c16.35,14.2,18.71,31.16,28.44,30.48
	c0.45-0.03,3.99-0.33,5.17-2.65c1.08-2.13-0.01-5.58-14.22-22.53c-6.79-8.1-10.89-12.5-14.22-15.9c0,0-7.07-7.23-17.68-13.76
	c-2.44-1.5-5.3-3.11-8.17-2.15C543.93,163.47,541.65,166.52,541.47,169.18z"/>
<path class="st9" d="M529.84,227.75c2.7-1.66,6.73-4.57,10.8-9.46c4.61-5.55,4.27-7.66,9.6-14.19c3.37-4.13,6.64-6.43,13.2-11.04
	c1.84-1.3,4.06-2.75,6-1.58c1.31,0.79,2.55,2.81,2.4,4.73c-0.23,2.86-3.42,3.7-9.6,7.89c-4.35,2.95-6.96,4.72-9.6,7.89
	c-3.84,4.61-3.04,6.56-7.2,12.62c-2.2,3.2-7.83,11.42-12,9.46C532.62,233.68,530.95,232.48,529.84,227.75z"/>
<path class="st10" d="M569.9,252.66c-1.79-9.71,20.05-25.34,40.07-30.48c9.58-2.46,15.41-1.66,32.31-6.63
	c7.26-2.13,11.04-3.71,11.63-2.65c1.27,2.26-12.38,15.97-29.73,23.85c-7.43,3.37-10.73,3.53-15.51,7.95
	c-4.07,3.76-6.02,7.67-12.93,13.25c-2.9,2.34-4.43,3.41-6.46,3.98C581.79,264.04,571.03,258.76,569.9,252.66z"/>
<polygon class="st1" points="851.98,754.51 832.6,720.09 844.91,712.8 864.3,747.22 "/>
<polygon class="st1" points="874.71,741.46 855.32,707.03 867.63,699.74 887.02,734.17 "/>
<path class="st11" d="M596.4,945c-99.53-48.14-199.05-96.29-298.58-144.43c-18.1-122.35-36.19-244.69-54.29-367.04
	c141.32,46.82,282.64,93.64,423.95,140.46C643.79,697.66,620.1,821.33,596.4,945z"/>
<path class="st11" d="M302.35,401.07c-18.53,9.28-37.05,18.55-55.58,27.83c17.23,5.3,34.47,10.6,51.7,15.9
	C299.76,430.22,301.06,415.64,302.35,401.07z"/>
<path class="st11" d="M869.77,479.25c-31.45,14.13-62.9,28.27-94.36,42.4c15.08-22.97,30.16-45.94,45.24-68.9
	c7.39,4.42,15.15,8.85,23.27,13.25C852.76,470.79,861.4,475.19,869.77,479.25z"/>
<polygon class="st1" points="759.26,506.41 785.11,498.46 810.07,502.43 823.89,513.03 829.06,544.84 829.06,571.34 818.72,583.26 
	807.09,607.11 801.91,623.01 801.91,644.21 807.09,653.49 829.06,643.79 820.01,617.71 829.06,601.96 834.23,585.91 842.87,571.34 
	843.28,555.44 843.28,533.08 843.28,510.94 829.06,494.48 813.55,485.21 788.47,485.21 770.07,485.21 754.87,485.21 "/>
<polygon class="st2" points="854.81,677.13 820.11,697.66 796.84,656.35 831.54,635.82 "/>
<polygon class="st2" points="880.5,692.24 820.04,728.02 796.78,686.71 857.24,650.92 "/>
<path class="st7" d="M347.93,812.49L347.93,812.49c19.11-2.59,32.55-20.57,30.02-40.16l-31.84-246.56
	c-2.53-19.59-20.07-33.36-39.18-30.77l0,0c-19.11,2.59-32.55,20.57-30.02,40.16l31.84,246.56
	C311.29,801.3,328.83,815.08,347.93,812.49z"/>
<path class="st7" d="M426.2,848.63L426.2,848.63c19.21,1.62,36.06-13.03,37.64-32.73l19.87-247.87
	c1.58-19.69-12.71-36.97-31.92-38.59l0,0c-19.21-1.62-36.06,13.03-37.64,32.73l-19.87,247.87
	C392.7,829.73,406.99,847.01,426.2,848.63z"/>
<path class="st7" d="M498.77,880.97L498.77,880.97c17.39,8.53,38.22,0.99,46.54-16.84l106.62-228.5
	c8.32-17.82,0.96-39.19-16.42-47.71l0,0c-17.39-8.53-38.22-0.99-46.54,16.84l-106.62,228.5
	C474.03,851.09,481.39,872.45,498.77,880.97z"/>
<path class="st1" d="M226.73,359.99l18.1,4.64l16.8,13.25l10.34,13.25l3.88,13.25l2.59,25.18v29.85v33.02v30.53l7.76,21.87
	l16.8,21.2l21.97,5.3h20l18.78-2.65l18.1-17.23l19.39-21.2l12.93-21.2l18.1-22.53l16.8-3.98c6.03,2.21,12.06,4.42,18.1,6.63
	c-1.72-6.63-3.45-13.25-5.17-19.88c-5.78-1.21-11.55-2.43-17.33-3.64l-11.1,3.64l-9.05,7.95l-6.46,5.3l-14.22,15.9l-12.93,17.23
	l-9.05,11.93l-12.93,11.93l-10.34,9.28l-9.05,5.3h-12.93l-18.1-1.33l-14.22-9.28l-9.05-15.9l-1.29-22.53l-3.08-39.42l-0.8-18.88
	l-1.29-29.15l-1.29-19.88l-6.46-18.55l-11.63-15.9l-13.78-10.6l-18.23-4.64h-10.66V359.99z"/>
<g>
	<path class="st12" d="M786.41,589.22l-168.88-48.95c-9.15-2.65-14.87-12.73-12.77-22.51l9.97-46.44
		c2.1-9.78,11.22-15.55,20.38-12.9l168.88,48.95c9.15,2.65,14.87,12.73,12.77,22.51l-9.97,46.44
		C804.69,586.1,795.57,591.87,786.41,589.22z"/>
	<path class="st12" d="M786.41,589.22l-168.88-48.95c-9.15-2.65-14.87-12.73-12.77-22.51l9.97-46.44
		c2.1-9.78,11.22-15.55,20.38-12.9l168.88,48.95c9.15,2.65,14.87,12.73,12.77,22.51l-9.97,46.44
		C804.69,586.1,795.57,591.87,786.41,589.22z"/>
	<polyline class="st13" points="590.13,549.21 589.38,549 588.31,548.51 587.34,547.96 586.75,547.45 586.14,546.84 585.66,546.19 
		585.42,545.61 585.16,545.03 585.55,543.22 586.7,537.88 592.48,510.97 599.95,476.15 606.12,447.42 613.45,413.28 622.67,370.36 
		622.81,369.7 622.95,369.06 623.02,368.75 623.37,368.35 623.86,368.02 624.42,367.62 624.95,367.42 625.61,367.27 626.1,367.26 
		626.67,367.22 627.4,367.27 627.93,367.31 628.45,367.46 628.82,367.5 629.13,367.59 629.39,367.66 629.54,367.71 629.08,367.74 
		628.43,367.98 628.05,368.37 627.71,368.97 627.59,369.51 627.34,370.67 624.76,382.71 621.49,397.92 616.29,422.12 613.82,433.61 
		607.26,464.19 600.67,494.86 595.01,521.21 589.3,547.82 589.57,548.48 590.13,549.21 	"/>
	<polyline class="st14" points="592.47,550.14 591.79,550.2 590.99,549.84 590.13,549.21 589.57,548.48 589.3,547.82 589.62,546.34 
		599.33,501.09 609.25,454.92 618.98,409.62 627.09,371.87 627.41,370.36 627.59,369.51 627.71,368.97 628.05,368.37 628.43,367.98 
		629.08,367.74 629.82,367.68 630.49,367.7 631.11,367.88 631.9,368.2 631.47,368.44 631.02,368.79 630.63,369.06 630.49,369.34 
		630.31,369.69 630.19,370.24 630.09,370.69 629.91,371.56 627.54,382.56 625.54,391.88 620.03,417.56 611.89,455.46 601.1,505.73 
		600.41,508.93 600.25,509.64 600.28,510.02 600.38,510.23 600.5,510.54 600.67,510.81 600.71,511.2 600.37,512.79 594.64,539.49 
		594.42,540.51 594.27,540.87 593.92,541.04 593.66,541.27 593.35,541.8 593.25,542.24 593.07,543.1 592.15,547.38 591.94,548.37 
		591.95,548.77 592.06,549.14 592.16,549.45 592.28,549.8 592.47,550.14 	"/>
	<polyline class="st15" points="599.6,553.89 598.88,553.81 598.39,553.6 597.84,553.38 597.32,553.06 596.81,552.69 596.42,552.35 
		596.04,551.8 595.82,551.4 595.76,550.92 595.79,550.33 596.78,545.7 600.18,529.9 602.99,516.78 610.92,479.88 622.86,424.26 
		632.64,378.71 634.4,370.53 634.53,369.94 634.76,369.57 634.97,369.16 635.31,368.82 635.76,368.46 636.08,368.3 636.38,368.23 
		636.7,368.25 637.08,368.2 637.38,368.26 637.67,368.34 638.08,368.41 638.49,368.53 638.66,368.58 638.85,368.63 639.2,368.78 
		638.72,368.96 638.34,369.18 638.03,369.43 637.72,369.78 637.54,370.14 637.38,370.63 637.24,371.18 637.13,371.7 635.04,381.42 
		628.77,410.64 621.22,445.81 614.47,477.22 606.15,515.99 599.1,548.81 598.5,551.6 598.41,552.01 598.44,552.32 598.66,552.73 
		598.83,552.99 599.6,553.89 	"/>
	<path class="st16" d="M637.82,369.62"/>
	<path class="st16" d="M638.12,369.34"/>
	<path class="st16" d="M637.71,367.77"/>
	<polygon class="st17" points="596.58,552.47 596.18,552.35 595.52,552.05 594.8,551.61 594.22,551.31 593.61,550.91 593.21,550.64 
		592.76,550.38 592.47,550.14 592.28,549.8 592.16,549.45 592.06,549.14 591.95,548.77 591.94,548.37 593.25,542.24 593.35,541.8 
		593.66,541.27 593.92,541.04 594.27,540.87 594.42,540.51 594.64,539.49 595.02,537.7 595.18,537.01 595.83,533.84 596.62,530.27 
		597.68,525.36 598.61,521.03 599.83,515.35 600.71,511.2 600.67,510.81 600.5,510.54 600.38,510.23 600.28,510.02 600.25,509.64 
		600.41,508.93 600.9,506.65 601.48,503.94 605.43,485.54 613.24,449.19 620.03,417.56 624.45,396.96 628.96,375.96 630.09,370.69 
		630.31,369.69 630.49,369.34 630.63,369.06 631.02,368.79 631.47,368.44 631.9,368.2 632.4,368.01 632.98,367.9 633.49,367.95 
		634.21,367.95 634.93,368.05 635.5,368.17 635.8,368.25 635.97,368.35 635.64,368.55 635.45,368.71 635.18,368.95 635.05,369.08 
		634.9,369.3 634.8,369.48 634.69,369.67 634.6,369.82 634.49,370.09 634.45,370.29 634.35,370.74 631.89,382.21 627.74,401.56 
		622.06,427.99 613.72,466.83 604.09,511.67 598.88,535.92 595.94,549.64 595.78,550.53 595.78,551.07 595.91,551.56 596.13,551.93 
			"/>
	<polyline class="st18" points="603.5,555.75 603.06,555.83 602.05,555.54 601.08,555.05 600.32,554.47 599.6,553.89 598.94,553.14 
		598.52,552.54 598.38,552.15 598.66,550.84 598.93,549.61 606.84,512.78 619.88,452.05 637.34,370.74 637.6,369.96 637.82,369.62 
		638.12,369.34 638.58,369.01 639.2,368.78 639.88,368.7 640.72,368.71 641.49,368.69 642.34,368.74 643.08,368.78 643.63,368.84 
		643.96,368.97 642.39,369.97 639.84,381.17 629.72,428.32 623.1,459.15 607.63,531.15 602.77,554.67 603.5,555.75 	"/>
	<polyline class="st19" points="638.33,378.58 638.45,378.02 638.54,377.6 638.61,377.28 638.65,377.08 638.64,376.91 
		638.57,376.76 638.49,376.67 638.39,376.65 638.33,376.73 638.3,376.87 638.25,377.07 638.2,377.32 638.15,377.55 638.09,377.83 
		638.03,378.1 637.99,378.31 637.96,378.43 637.9,378.53 637.77,378.55 637.68,378.47 637.64,378.31 637.67,378.17 637.74,377.83 
		637.83,377.42 637.89,377.12 637.95,376.86 638.02,376.54 	"/>
	<polygon class="st19" points="637.67,382.07 637.77,381.57 637.86,381.18 637.92,380.89 637.95,380.77 637.94,380.57 
		637.92,380.46 637.84,380.33 637.75,380.19 637.61,380.15 637.47,380.11 637.26,380.05 637.15,380.19 637.04,380.35 636.96,380.56 
		636.93,380.71 636.85,381.08 636.74,381.6 636.7,381.75 636.66,381.97 636.66,382.33 636.73,382.54 636.98,382.65 637.26,382.63 
		637.47,382.58 637.59,382.43 	"/>
	<polyline class="st19" points="636.38,383.95 636.73,384.05 636.98,384.12 637.21,384.19 637.24,384.4 637.2,384.61 636.96,384.8 
		636.02,385.61 635.91,385.76 635.87,385.96 635.9,386.16 636.15,386.23 636.37,386.3 636.58,386.36 636.81,386.42 	"/>
	<polyline class="st19" points="636.41,388.3 636.16,388.42 635.99,388.54 635.82,388.63 635.66,388.78 635.62,388.95 635.59,389.1 
		635.66,389.34 635.82,389.54 635.97,389.72 636.08,389.82 	"/>
	<polyline class="st19" points="635.05,388.79 635.25,388.85 635.45,388.91 635.62,388.95 	"/>
	<polyline class="st20" points="605.94,531.49 605.73,532.45 605.43,533.85 605.04,535.68 604.91,535.93 604.7,536.02 
		604.49,535.95 604.33,535.91 604.29,535.74 604.39,535.28 604.49,534.79 605.13,531.82 605.14,531.58 605.07,531.38 604.98,531.21 
		604.86,531.09 604.72,530.98 604.55,530.87 604.38,530.82 	"/>
	<polyline class="st20" points="603.49,542.61 603.71,541.6 603.86,540.91 604.02,540.16 604.02,539.89 603.91,539.71 603.75,539.6 
		603.52,539.53 603.23,539.45 602.92,539.36 602.77,539.22 602.72,539.01 602.79,538.68 602.9,538.19 602.96,537.89 603.12,537.14 	
		"/>
	<polyline class="st20" points="600.37,546.87 602.25,547.42 602.39,547.46 602.48,547.02 602.19,543.37 602.18,543.13 
		602.13,542.92 602.05,542.77 601.87,542.72 601.8,542.94 601.77,543.12 601.69,543.41 600.78,548.04 	"/>
	
		<ellipse transform="matrix(0.5278 -0.8494 0.8494 0.5278 -51.5689 827.4298)" class="st21" cx="718.37" cy="460.09" rx="11.85" ry="13.4"/>
	
		<ellipse transform="matrix(0.5278 -0.8494 0.8494 0.5278 -52.5214 831.3311)" class="st22" cx="721.4" cy="462.9" rx="13.69" ry="15.47"/>
	
		<ellipse transform="matrix(0.5278 -0.8494 0.8494 0.5278 -55.3012 836.9474)" class="st22" cx="725.06" cy="468.21" rx="14.98" ry="16.92"/>
	
		<ellipse transform="matrix(0.5278 -0.8494 0.8494 0.5278 -56.8596 825.9868)" class="st22" cx="714.43" cy="464.13" rx="14.98" ry="16.92"/>
	
		<ellipse transform="matrix(0.5278 -0.8494 0.8494 0.5278 -54.1208 834.4249)" class="st23" cx="723.38" cy="465.89" rx="15.98" ry="18.06"/>
	<path class="st24" d="M602.83,553.51l13.75-64.04c1.25-5.8,5.2-24.23,7.04-32.8c0.25-1.15,0.57-2.67,0.88-4.11
		c0.09-0.43,0.18-0.86,0.27-1.27c0.28-1.32,0.53-2.46,0.65-3.02c0.1-0.46,0.2-0.92,0.3-1.38c3.37-15.7,6.74-31.41,10.12-47.11
		l6.04-28.12l0.11-0.53l0.1-0.46l0.08-0.37l0.21-0.31l0.24-0.22l0.22-0.21l0.23-0.19l0.34-0.15l0.28-0.14l0.26-0.1l0.29-0.1
		l0.28-0.1l0.67,0.2l11.1,3.22l5.77,1.67l8.95,2.6l8.87,2.57l7.19,2.08l8.49,2.46l6.45,1.87l6.65,1.93l5.07,1.47l7.46,2.16
		l7.02,2.03l8.55,2.48l5.94,1.72l5.92,1.71l6.82,1.98l7.18,2.08l9.08,2.63l27.72,8.03l30.01,8.7l25.51,7.39l4.8,1.39l1.43,0.41
		l1.03,0.3l0.54,0.16l0.45,0.19l0.33,0.25l0.36,0.39l0.16,0.26l0.26,0.32l0.07,0.14l0.3,0.44l0.16,0.33l0.25,0.43l0.13,0.3
		l-0.12,0.54l-1.53,7.11l-3.3,15.37l-2.97,13.82l-4.06,19.05l-7.21,33.57l-5.32,24.76l-4.64,21.61l-4.46,20.76l-4.15,19.32
		l-1.54,7.19l-0.07,0.32l-0.15,0.31l-0.25,0.24l-0.24,0.17l-0.25,0.15l-0.27,0.25l-0.31,0.15l-0.26,0.11l-0.39,0.05L823.3,620
		l-0.6-0.01l-22.44-6.5l-23.27-6.74l-26.95-7.81l-22.46-6.51l-24.07-6.98l-28.78-8.34l-62.59-18.14l-7.24-2.1l-0.59-0.41l-0.25-0.14
		l-0.33-0.32l-0.41-0.44L603,555.1l-0.22-0.42l-0.13-0.26l0.1-0.45L602.83,553.51z"/>
	
		<ellipse transform="matrix(0.5278 -0.8494 0.8494 0.5278 -45.4339 825.8556)" class="st25" cx="720.02" cy="453.79" rx="1.08" ry="1.22"/>
	<polygon class="st26" points="626.21,446.7 643.02,443.21 656.71,438.83 666.21,434.43 674.11,430.99 683.72,426.05 694.81,419.94 
		702.06,413.03 711.16,405.62 715.83,400.13 720.18,393.7 721.21,391 644.53,368.77 642.39,369.97 	"/>
	<path class="st26" d="M800.8,414.07c0,0-1.36-2.44-0.45,13.25s0.29,6.59,0.29,6.59s0.55,1.83,2.52,8.39
		c1.97,6.57-0.69-3.03,2.66,8.88s4.28,13.52,4.28,13.52l3.49,6.05l3.29,5.36l4.21,5.86l3.28,5.44l3.04,6.56l2.78,4.58l3.74,4.86
		l3.87,2.7l4.06,3.4l6.52,4.08l16.75-77.99l-1.91-3.39L800.8,414.07z"/>
	<polygon class="st27" points="732.52,483.86 731.23,489.85 729.92,495.95 728.84,500.98 728.7,501.64 728.81,501.85 729.04,502 
		729.31,502.18 729.63,502.4 730.08,502.75 730.42,502.97 730.88,503.17 731.27,503.43 731.62,503.69 732.08,503.93 732.51,504.15 
		732.92,504.32 733.19,504.4 733.37,504.28 733.42,504.03 733.67,502.9 734.04,501.17 734.28,500.07 734.52,498.93 734.8,497.63 
		735.19,495.81 735.57,494.02 735.92,492.42 736.32,490.57 736.57,489.4 736.73,489.15 736.92,488.98 737.16,488.89 737.35,488.87 
		737.51,488.92 737.71,488.96 737.84,489.02 737.97,489.09 738.11,489.25 738.16,489.41 738.22,489.64 738.28,489.9 738.23,490.11 
		737.98,491.28 737.63,492.9 737.33,494.33 737.01,495.8 736.91,496.29 737.05,496.53 737.29,496.75 737.52,496.91 737.76,497.05 
		738.01,497.22 738.26,497.34 738.67,497.59 738.98,497.75 739.25,497.82 739.42,497.87 739.71,497.96 739.93,498.03 740.28,498.11 
		740.55,498.1 740.82,497.98 741.16,497.86 741.42,497.71 741.66,497.61 741.9,497.5 742.14,497.26 742.34,497.03 742.58,496.79 
		742.74,496.49 742.91,496.15 743.07,495.9 743.14,495.56 743.19,495.33 743.26,495.02 743.35,494.6 743.42,494.24 743.49,493.93 
		743.56,493.61 743.55,493.25 743.49,493.01 743.41,492.74 743.34,492.42 743.21,492.1 743.08,491.75 742.96,491.5 742.85,491.22 
		742.64,490.78 742.41,490.39 742.13,490.02 741.64,489.5 741.16,489.14 740.76,488.67 740.26,488.37 739.17,487.58 738.47,487.17 
		737.65,486.68 736.6,486.03 735.73,485.43 734.99,484.94 734.37,484.59 733.97,484.46 733.63,484.33 733.21,484.19 733.03,484.12 	
		"/>
	<path class="st20" d="M728.97,500.37"/>
	<path class="st20" d="M729.94,494.27"/>
	<polygon class="st27" points="728.97,500.37 728.63,500.38 728.28,500.49 728.12,500.52 727.73,500.45 727.35,500.34 
		726.99,500.24 726.47,500.09 725.93,499.93 725.09,499.69 724.22,499.43 723.56,499.18 722.95,498.98 722.62,498.8 722.19,498.62 
		721.73,498.49 721.32,498.25 720.92,498.04 720.55,497.8 720.22,497.6 719.86,497.35 719.57,497.12 719.27,496.85 718.99,496.6 
		718.77,496.31 718.62,496.12 718.56,495.94 718.61,495.74 718.57,495.51 718.62,495.26 718.81,495.12 719.06,495.01 719.43,494.87 
		719.79,494.8 720.38,494.7 720.96,494.64 721.67,494.62 722.56,494.59 723.19,494.59 723.98,494.57 724.72,494.55 725.57,494.54 
		726.57,494.54 727.49,494.53 728.19,494.58 728.98,494.56 729.49,494.58 729.87,494.6 730.2,494.65 730.12,495.06 729.99,495.66 
		729.85,496.28 729.75,496.74 729.71,496.93 729.51,496.97 729.35,496.99 729.1,496.99 728.83,497.02 728.48,497.07 728.04,497.08 
		727.5,497.04 727.03,497.07 726.32,497.06 725.9,497.03 725.46,497 725.1,497.04 724.74,497.03 724.33,497.03 724.02,497.03 
		723.73,497.05 723.53,497.12 723.39,497.24 723.37,497.38 723.4,497.56 723.59,497.75 723.77,497.94 724.09,498.05 724.48,498.17 
		724.84,498.2 725.24,498.24 725.96,498.23 726.46,498.3 727.08,498.28 727.67,498.29 728.23,498.23 728.73,498.18 728.98,498.22 
		729.43,498.25 729.36,498.56 729.26,499.02 729.13,499.66 	"/>
	<polygon class="st27" points="735.79,498.25 736.78,498.18 737.71,498.29 738.58,498.34 739.28,498.4 739.92,498.59 740.66,498.69 
		741.14,498.83 741.79,499.02 742.36,499.19 742.94,499.44 743.37,499.6 743.98,499.82 744.62,500.06 745.34,500.41 745.79,500.64 
		746.23,501.01 746.62,501.33 746.97,501.67 747.44,501.97 747.8,502.3 748,502.68 748.16,502.93 748.18,503.29 748.13,503.52 
		747.95,503.76 747.69,504 747.4,504.14 747.06,504.3 746.71,504.39 746.24,504.48 745.87,504.55 745.3,504.62 744.8,504.63 
		744.25,504.64 743.74,504.62 743.28,504.6 742.74,504.53 742.12,504.49 741.45,504.53 740.7,504.57 739.95,504.57 739.18,504.57 
		738.48,504.59 737.57,504.58 736.64,504.6 735.83,504.61 734.97,504.54 734.43,504.39 733.92,504.32 733.4,504.16 733.62,503.13 
		733.76,502.45 734.14,502.38 734.66,502.38 735.3,502.37 736.16,502.39 737.17,502.4 737.81,502.39 738.65,502.3 739.68,502.2 
		740.62,502.04 741.43,502.09 741.97,502.08 742.59,502.1 742.94,502.07 743.33,502.03 743.59,501.96 743.64,501.8 743.61,501.61 
		743.39,501.43 743.17,501.32 742.68,501.09 742.28,500.97 741.99,500.92 741.4,500.88 740.94,500.82 740.29,500.83 739.73,500.72 
		739.11,500.74 738.55,500.81 738.05,500.81 737.46,500.79 737.01,500.85 736.3,500.92 735.73,500.97 735.3,500.93 734.97,500.91 
		734.11,500.83 734.25,500.19 734.41,499.43 734.56,498.75 734.63,498.43 734.68,498.17 734.99,498.17 735.39,498.21 	"/>
	
		<ellipse transform="matrix(0.1356 -0.9908 0.9908 0.1356 166.6875 1089.0833)" class="st28" cx="707.49" cy="449.01" rx="28.63" ry="20.53"/>
	
		<ellipse transform="matrix(0.1356 -0.9908 0.9908 0.1356 204.6613 1166.5278)" class="st28" cx="770.86" cy="465.97" rx="28.63" ry="20.53"/>
	<polygon class="st29" points="666.21,434.43 685.65,440.07 684.41,445.82 658.09,438.19 	"/>
	<polygon class="st29" points="729.53,452.79 749.53,458.58 748.29,464.33 728.29,458.53 	"/>
	<polygon class="st29" points="792.63,471.08 818.68,478.63 823.61,486.16 791.4,476.83 	"/>
	<path class="st30" d="M704.84,413.02l3.14-1.4l4.18-1.58l2.36-0.12l4.15,0.49l4.96,1.44l2.97,0.86c1.45,0.1,2.89,0.2,4.33,0.3
		c1.08-0.31,2.16-0.62,3.23-0.93c0.7-0.11,1.4-0.22,2.09-0.33c-0.19,0.88-0.38,1.75-0.57,2.63c-0.13,0.58-0.25,1.17-0.38,1.75
		s-0.25,1.17-0.38,1.75c-0.06,0.29-0.13,0.58-0.19,0.88c-0.38,0.2-0.76,0.4-1.14,0.6c-0.7,0.11-1.4,0.22-2.09,0.33
		c-1.02,0.02-2.03,0.03-3.05,0.05c-1.48,0.12-2.96,0.24-4.45,0.36l-2.52-0.73l-2.83-0.82l-4.4-1.28l-3.3-0.96l-3.14-0.91l-1.1-0.32
		l-1.1-0.32L704.84,413.02z"/>
	<polygon class="st31" points="728.54,425.04 730.86,424.41 732.79,424.38 734.35,424.25 735.92,424.7 737.01,425.02 738.33,425.4 
		740.05,426.37 741.33,426.98 743.56,427.62 745.09,427.95 747.53,428.54 749.82,428.02 751.75,427.99 754.28,428.13 755.97,428.62 
		757.29,429.01 758.84,430.16 760.36,431.43 761.32,432.36 761.76,433.25 758.54,431.55 756.84,430.53 755.42,430 752.63,429.84 
		751,430.25 749.09,430.21 746.64,430.29 743.99,429.52 740.97,428.64 739.32,427.37 737.03,426.71 735.82,426.36 734.25,425.9 
		732.52,426.2 731.08,425.78 	"/>
	<polygon class="st31" points="727.37,430.5 729.69,429.87 731.61,429.84 733.18,429.7 734.75,430.15 735.84,430.47 737.16,430.85 
		738.88,431.82 740.16,432.43 742.39,433.08 743.92,433.4 746.36,433.99 748.65,433.47 750.58,433.44 753.11,433.59 754.8,434.08 
		756.12,434.46 757.67,435.62 759.19,436.88 760.15,437.81 760.59,438.71 757.37,437.01 755.67,435.98 754.24,435.45 751.46,435.29 
		749.83,435.71 747.92,435.66 745.47,435.74 742.81,434.97 739.8,434.1 738.15,432.83 735.86,432.16 734.65,431.81 733.08,431.36 
		731.35,431.65 729.91,431.23 	"/>
	<polygon class="st32" points="698.2,491.6 694.84,492.12 691.08,493.36 687.77,495.33 683.84,497.43 680.35,500.26 676.86,503.09 
		672.98,506.65 669.08,509.72 666.62,511.69 663.38,515.61 660.33,518.67 657.96,523.07 655.98,526.74 660.46,522.08 664.45,518.84 
		669.25,514.1 672.3,511.03 675.04,508.03 679.56,504.59 683.14,501.33 686.86,499.12 690.13,496.17 	"/>
	<polygon class="st32" points="790.56,562.05 790.48,559.01 789.73,555.3 788.22,551.6 786.67,547.32 784.36,543.06 782.05,538.8 
		779.08,533.85 776.59,529.13 774.99,526.14 771.59,521.55 769,517.54 765.04,513.44 761.74,510.02 765.69,515.99 768.34,520.86 
		772.34,527.14 774.93,531.16 777.5,534.89 780.28,540.3 782.99,544.85 784.68,549.01 787.13,553.15 	"/>
	<path class="st33" d="M698.31,507.5l-1.34,0.24l-0.64,0.6l-0.16,0.74l-0.26,1.19l-1.06,1.74l-0.8,1.74l-1.03,2.38l-0.75,3.49
		l-1.59,3.4l-0.49,2.3l-1.29,6.01l-0.81,5.76l-0.01,3.23l0.31,3.32l0.3,3.4l1.82,5.89l1.18,2.47l0.63,1.84l1.16,0.97l0.26-4.02
		l0.33-1.56l0.79-0.88l0.65,4.53l1.49,5.79l1.84,3.77l1.68,2.93l1.81,2.73l1.45,1.6l0.72,0.21l0.37-1.71l-0.05-2.54l0.17-1.21
		l1.25,4.15l1.25,2.57l1.29,1.95l1.58,2.19l2.05,2.01l1.9,1.89l1.45,1.21l1.43,0.97l0.47,0.14l1.24-0.19l3.32-0.69l3.04-0.62
		l2.14-0.8l2.33-1.3l2.19-1.42l1.94-1.88l1.16-1.4l-0.37,1.71l-0.93,1.94l-0.67,1.14l0.32,0.49l1.13-0.07l1.11-0.78l3.2-1.36
		l2.65-1.6l1.85-1.44l2.25-2.11l1.75-2.17l1.75-2.57l1.19-1.94l-0.3,1.41l0.2,1.87l-0.37,1.71l-1.03,1.59l0.68,0.04l1.21-0.44
		l1.96-1.56l2.18-2.2l2.31-2.01l1.33-2.22l2.05-3.5l1.87-4.54l0.66-3.05l1.43-5.37l1.02-6.69l0.21-3.24l0.1-6.58l-0.12-2.96
		l-0.17-1.77l-1.08-1.73l-0.91-0.26c-4.35-4.2-13.95-12.44-28.51-17.19C717.83,503.62,703.82,506.18,698.31,507.5z"/>
	
		<ellipse transform="matrix(0.1223 -0.9925 0.9925 0.1223 176.6956 1095.1173)" class="st34" cx="707.52" cy="447.66" rx="22.14" ry="16.48"/>
	
		<ellipse transform="matrix(0.1223 -0.9925 0.9925 0.1223 214.0717 1174.1078)" class="st34" cx="770.87" cy="466.02" rx="22.14" ry="16.48"/>
	
		<ellipse transform="matrix(0.1388 -0.9903 0.9903 0.1388 167.8346 1089.6771)" class="st35" cx="710.45" cy="448.34" rx="11.47" ry="8.14"/>
	
		<ellipse transform="matrix(0.1388 -0.9903 0.9903 0.1388 203.9205 1169.3477)" class="st35" cx="774.3" cy="467.43" rx="11.47" ry="8.14"/>
	<path class="st36" d="M746.49,479.5"/>
	
		<ellipse transform="matrix(0.8663 -0.4995 0.4995 0.8663 -126.6378 451.3588)" class="st36" cx="779.89" cy="462.26" rx="3.96" ry="4.25"/>
	
		<ellipse transform="matrix(0.8663 -0.4995 0.4995 0.8663 -125.2966 416.9651)" class="st36" cx="716.31" cy="442.56" rx="3.96" ry="4.25"/>
	<path class="st36" d="M704.12,457.77c0.08-0.58,0.21-2.1-0.7-3.8c-1.3-2.44-3.71-3.37-4.16-3.54c0.47,0.1,2.97,0.6,5.1-0.85
		c1.49-1.01,1.99-2.42,2.16-2.98c-0.08,0.58-0.21,2.1,0.7,3.8c1.3,2.44,3.71,3.37,4.16,3.54c-0.63-0.14-2.25-0.43-3.96,0.25
		C704.97,455.17,704.25,457.36,704.12,457.77z"/>
	<path class="st36" d="M768.1,477.61c0.08-0.58,0.21-2.1-0.7-3.8c-1.3-2.44-3.71-3.37-4.16-3.54c0.47,0.1,2.97,0.6,5.1-0.85
		c1.49-1.01,1.99-2.42,2.16-2.98c-0.08,0.58-0.21,2.1,0.7,3.8c1.3,2.44,3.71,3.37,4.16,3.54c-0.63-0.14-2.25-0.43-3.96,0.25
		C768.95,475,768.22,477.2,768.1,477.61z"/>
	<path class="st30" d="M789.7,436.72l-2.21-2.95l-3.05-3.67l-2.04-1.4l-3.86-1.83l-4.96-1.44l-2.97-0.86
		c-1.32-0.7-2.63-1.4-3.95-2.1c-0.83-0.86-1.65-1.72-2.48-2.58c-0.57-0.48-1.14-0.95-1.72-1.43c-0.19,0.88-0.38,1.75-0.57,2.63
		c-0.13,0.58-0.25,1.17-0.38,1.75s-0.25,1.17-0.38,1.75c-0.06,0.29-0.13,0.58-0.19,0.88c0.25,0.38,0.51,0.77,0.76,1.15
		c0.57,0.48,1.14,0.95,1.72,1.43c0.89,0.57,1.78,1.14,2.67,1.71c1.26,0.92,2.52,1.83,3.78,2.75l2.52,0.73l2.83,0.82l4.4,1.28
		l3.3,0.96l3.14,0.91l1.1,0.32l1.1,0.32L789.7,436.72z"/>
</g>
<path class="st11" d="M785.76,831.71c-61.18,36.66-122.36,73.32-183.54,109.98c21.97-122.79,43.95-245.58,65.92-368.36
	c68.5-29.59,137.01-59.19,205.51-88.78C844.35,600.27,815.06,715.99,785.76,831.71z"/>
</svg>
