<?xml version="1.0" encoding="utf-8"?>
<!-- Generator: Adobe Illustrator 25.1.0, SVG Export Plug-In . SVG Version: 6.00 Build 0)  -->
<svg version="1.1" id="Layer_1" xmlns="http://www.w3.org/2000/svg" xmlns:xlink="http://www.w3.org/1999/xlink" x="0px" y="0px"
	 viewBox="0 0 959.52 834" style="enable-background:new 0 0 959.52 834;" xml:space="preserve">
<style type="text/css">
	.st0{fill:#1A1A1A;}
	.st1{opacity:0.2;}
	.st2{fill:#736357;}
	.st3{fill:#534741;}
	.st4{fill:#808080;stroke:#000000;stroke-width:5;stroke-miterlimit:10;}
	.st5{fill:#4D4D4D;stroke:#000000;stroke-width:5;stroke-miterlimit:10;}
	.st6{fill:#E6E6E6;stroke:#000000;stroke-width:5;stroke-miterlimit:10;}
	.st7{fill:#009245;stroke:#000000;stroke-width:5;stroke-miterlimit:10;}
	.st8{fill:#666666;stroke:#000000;stroke-width:5;stroke-miterlimit:10;}
	.st9{fill:#0071BC;stroke:#000000;stroke-width:5;stroke-miterlimit:10;}
	.st10{stroke:#000000;stroke-width:5;stroke-miterlimit:10;}
	.st11{fill:#999999;stroke:#000000;stroke-width:5;stroke-miterlimit:10;}
	.st12{fill:#333333;stroke:#000000;stroke-width:5;stroke-miterlimit:10;}
	.st13{fill:#FFFFFF;stroke:#FFFFFF;stroke-width:3;stroke-miterlimit:10;}
	.st14{fill:#26272A;stroke:#000000;stroke-miterlimit:10;}
	.st15{fill:#3E3F44;stroke:#000000;stroke-miterlimit:10;}
	.st16{fill:#52545A;stroke:#000000;stroke-miterlimit:10;}
	.st17{fill:none;stroke:#000000;stroke-miterlimit:10;}
	.st18{fill:#282A2E;stroke:#000000;stroke-miterlimit:10;}
	.st19{fill:#2B2C31;stroke:#000817;stroke-miterlimit:10;}
	.st20{fill:none;stroke:#000000;stroke-width:0.25;stroke-miterlimit:10;}
	.st21{fill:none;stroke:#000817;stroke-miterlimit:10;}
	.st22{fill:#00B98F;stroke:#000817;stroke-miterlimit:10;}
	.st23{fill:#56585D;stroke:#000817;stroke-miterlimit:10;}
	.st24{fill:#FFFFFF;stroke:#000000;stroke-miterlimit:10;}
	.st25{fill:#FFFFFF;stroke:#000817;stroke-miterlimit:10;}
	.st26{fill:#948F8F;stroke:#000817;stroke-miterlimit:10;}
	.st27{fill:#1F2023;stroke:#000817;stroke-miterlimit:10;}
	.st28{opacity:0.73;fill:#ADB2AE;stroke:#4D4545;stroke-width:7;stroke-miterlimit:10;enable-background:new    ;}
	.st29{fill:#4D4545;stroke:#4D4545;stroke-width:3;stroke-miterlimit:10;}
	.st30{fill:#B2B1AA;stroke:#000000;stroke-miterlimit:10;}
	.st31{stroke:#000000;stroke-miterlimit:10;}
	.st32{stroke:#000000;stroke-width:0.75;stroke-miterlimit:10;}
	.st33{fill:#B2B1AA;stroke:#000000;stroke-width:0.75;stroke-miterlimit:10;}
	.st34{fill:#FFFFFF;stroke:#ECBCB4;stroke-miterlimit:10;}
	.st35{stroke:#A27100;stroke-width:10;stroke-miterlimit:10;}
	.st36{fill:#FFFFFF;}
</style>
<path class="st0" d="M-182.35,0.06c-0.14,278-0.28,556-0.42,834c438.89,0,877.79,0,1316.68,0c0.11-277.87,0.21-555.75,0.32-833.62
	L-182.35,0.06z"/>
<g class="st1">
	<rect x="88.81" y="261.16" class="st2" width="35.22" height="12.77"/>
	<rect x="88.81" y="280.91" class="st2" width="35.22" height="12.77"/>
	<rect x="124.03" y="256.52" class="st3" width="36.4" height="41.81"/>
	<rect x="134.6" y="260" class="st3" width="34.05" height="33.68"/>
	<path class="st2" d="M410.53,284.39v-36.12v-28.4l7.04-13.29c4.31-7.35,8.61-14.71,12.92-22.06c4.31-4.26,8.61-8.52,12.92-12.77
		c3.91,3.1,7.83,6.19,11.74,9.29c-4.31,4.26-8.61,8.52-12.92,12.77l-7.04,9.29l-5.28,10.77l-6.46,13.62v18.58v22.06l-0.52,16.26
		C418.79,284.39,414.66,284.39,410.53,284.39z"/>
	<path class="st2" d="M466.89,272.78c0.78-3.87,1.57-7.74,2.35-11.61c2.64-7.3,3.36-13.28,3.52-17.42
		c0.23-5.92-0.57-10.81,2.35-16.26c1.47-2.76,3.36-4.65,4.7-5.81c3.44-2.32,6.97-4.64,10.57-6.97c4.35-2.81,8.66-5.52,12.92-8.13
		c2.18-2.59,4.89-5.38,8.22-8.13c7.69-6.33,15.48-9.73,21.13-11.61c7.04-1.94,14.09-3.87,21.13-5.81c6.65-1.55,13.31-3.1,19.96-4.65
		c7.44,0,14.87,0,22.31,0c5.12,0.48,10.62,1.23,16.44,2.32c3.71,0.7,7.23,1.48,10.57,2.32c2.35,2.32,4.7,4.65,7.04,6.97
		c1.17,2.32,2.35,4.65,3.52,6.97c-3.13,3.1-6.26,6.19-9.39,9.29c-1.96-3.1-3.91-6.19-5.87-9.29c-3.52-1.16-7.04-2.32-10.57-3.48
		c-3.91-1.16-7.83-2.32-11.74-3.48c-7.04,0.39-14.09,0.77-21.13,1.16c-5.87,0.77-11.74,1.55-17.61,2.32
		c-3.91,1.16-7.83,2.32-11.74,3.48c-3.91,2.32-7.83,4.65-11.74,6.97c-4.7,2.32-9.39,4.65-14.09,6.97
		c-3.37,2.03-6.92,4.34-10.57,6.97c-4.89,3.53-9.18,7.07-12.92,10.45c-1.81,1.2-5.64,4.08-8.22,9.29
		c-2.76,5.55-2.56,10.64-2.35,12.77c-0.39,6.58-0.78,13.16-1.17,19.74C478.63,269.68,472.76,271.23,466.89,272.78z"/>
	<path class="st4" d="M344.78,409.81c-35.22-12.77-70.45-25.55-105.67-38.32c2.74-55.35,5.48-110.71,8.22-166.06
		c38.75,3.1,77.49,6.19,116.24,9.29C357.3,279.75,351.04,344.78,344.78,409.81z"/>
	<polygon class="st5" points="336.1,321.89 255.35,315.33 257.18,293.34 337.92,299.9 	"/>
	<polygon class="st5" points="340.64,273.93 259.89,267.37 261.72,245.38 342.46,251.94 	"/>
	<ellipse class="st6" cx="272.57" cy="344.78" rx="12.92" ry="13.35"/>
	<polygon class="st7" points="341.84,386 288.7,381.68 290.18,363.94 343.32,368.26 	"/>
	<path class="st8" d="M420.51,430.13c-25.05-6.19-50.1-12.39-75.15-18.58c6.77-65.1,13.54-130.21,20.31-195.31
		c22.98,7.81,45.95,15.63,68.93,23.44C429.9,303.16,425.21,366.65,420.51,430.13z"/>
	<path class="st4" d="M475.7,452.2c-26.22-8.52-52.45-17.03-78.67-25.55c-3.91-14.71-7.83-29.42-11.74-44.13
		c5.48-22.06,10.96-44.13,16.44-66.19C426.38,361.62,451.04,406.91,475.7,452.2z"/>
	<path class="st4" d="M637.31,417.25c-46.82,14.79-81.75,34.38-138.61,43.79c-2.18,0.36-8.36,1.41-13.61-1.88
		c-3.14-1.96-4.67-4.68-5.15-5.49c-12.01-20.4-46.41-82.87-75.4-134.62c-4.62-8.25-0.92-18.63,7.9-22.2
		c45.58-18.41,91.16-36.83,136.74-55.24c7.6-3.07,16.31,0.08,20.12,7.27c25.76,48.69,51.51,97.38,77.27,146.07
		C651.15,403.62,646.72,414.27,637.31,417.25z"/>
	<path class="st9" d="M605.72,398.79c-33.1,10.46-66.2,20.92-99.3,31.39c-5.18,1.64-10.81-0.57-13.44-5.28
		c-18.01-32.16-36.01-64.32-54.02-96.48c-3.31-5.91-0.66-13.35,5.66-15.91c32.65-13.2,65.31-26.39,97.96-39.59
		c5.44-2.2,11.69,0.06,14.41,5.21c18.45,34.9,36.9,69.79,55.35,104.69C615.64,389.02,612.47,396.66,605.72,398.79z"/>
	<path class="st8" d="M649.47,415.03c-41.88,15.48-83.76,30.97-125.64,46.45c14.87,4.26,29.75,8.52,44.62,12.77
		c23.09-11.23,46.18-22.45,69.28-33.68C641.64,432.07,645.56,423.55,649.47,415.03z"/>
	<path class="st4" d="M780.98,230.39c-39.53-22.06-79.06-44.13-118.59-66.19c-27.4,31.35-54.79,62.71-82.19,94.06
		c24.66,53.03,49.31,106.06,73.97,159.1C696.44,355.04,738.71,292.71,780.98,230.39z"/>
	<path class="st8" d="M775.11,230.39c-35.22-22.45-70.45-44.9-105.67-67.35c6.65-0.77,13.31-1.55,19.96-2.32
		c38.36,21.29,76.71,42.58,115.07,63.87C794.68,226.52,784.89,228.46,775.11,230.39z"/>
	<path class="st8" d="M634.8,440c46.7-69.79,93.4-139.58,140.11-209.37c10.64-0.47,21.27-0.94,31.91-1.41
		c-49.9,69.85-99.8,139.71-149.7,209.56C649.67,439.2,642.23,439.6,634.8,440z"/>
	<path class="st6" d="M680,211.81c-5.87-3.1-11.74-6.19-17.61-9.29c3.91-5.03,7.83-10.06,11.74-15.1c5.48,3.1,10.96,6.19,16.44,9.29
		C687.05,201.75,683.52,206.78,680,211.81z"/>
	<path class="st6" d="M711.4,229.81c-5.87-3.1-11.74-6.19-17.61-9.29c3.91-5.03,7.83-10.06,11.74-15.1
		c5.48,3.1,10.96,6.19,16.44,9.29C718.45,219.74,714.92,224.77,711.4,229.81z"/>
	<path class="st6" d="M741.93,247.23c-5.87-3.1-11.74-6.19-17.61-9.29c3.91-5.03,7.83-10.06,11.74-15.1
		c5.48,3.1,10.96,6.19,16.44,9.29C748.97,237.16,745.45,242.19,741.93,247.23z"/>
	<path class="st6" d="M657.39,240.26c-5.87-3.1-11.74-6.19-17.61-9.29c3.91-5.03,7.83-10.06,11.74-15.1
		c5.48,3.1,10.96,6.19,16.44,9.29C664.43,230.19,660.91,235.23,657.39,240.26z"/>
	<path class="st6" d="M689.88,256.95c-5.87-3.1-11.74-6.19-17.61-9.29c3.91-5.03,7.83-10.06,11.74-15.1
		c5.48,3.1,10.96,6.19,16.44,9.29C696.93,246.88,693.41,251.92,689.88,256.95z"/>
	<path class="st6" d="M721.59,272.05c-5.87-3.1-11.74-6.19-17.61-9.29c3.91-5.03,7.83-10.06,11.74-15.1
		c5.48,3.1,10.96,6.19,16.44,9.29C728.63,261.98,725.11,267.01,721.59,272.05z"/>
	<path class="st6" d="M635.87,269.72c-5.87-3.1-11.74-6.19-17.61-9.29c3.91-5.03,7.83-10.06,11.74-15.1
		c5.48,3.1,10.96,6.19,16.44,9.29C642.92,259.66,639.39,264.69,635.87,269.72z"/>
	<path class="st6" d="M666.4,285.98c-5.87-3.1-11.74-6.19-17.61-9.29c3.91-5.03,7.83-10.06,11.74-15.1
		c5.48,3.1,10.96,6.19,16.44,9.29C673.44,275.92,669.92,280.95,666.4,285.98z"/>
	<path class="st6" d="M698.1,302.24c-5.87-3.1-11.74-6.19-17.61-9.29c3.91-5.03,7.83-10.06,11.74-15.1
		c5.48,3.1,10.96,6.19,16.44,9.29C705.15,292.17,701.62,297.21,698.1,302.24z"/>
	<path class="st6" d="M675.79,330.11c-5.87-3.1-11.74-6.19-17.61-9.29c3.91-5.03,7.83-10.06,11.74-15.1
		c5.48,3.1,10.96,6.19,16.44,9.29C682.84,320.04,679.32,325.08,675.79,330.11z"/>
	<path class="st6" d="M642.92,315.01c-5.87-3.1-11.74-6.19-17.61-9.29c3.91-5.03,7.83-10.06,11.74-15.1
		c5.48,3.1,10.96,6.19,16.44,9.29C649.96,304.95,646.44,309.98,642.92,315.01z"/>
	<path class="st6" d="M613.56,298.75c-5.87-3.1-11.74-6.19-17.61-9.29c3.91-5.03,7.83-10.06,11.74-15.1
		c5.48,3.1,10.96,6.19,16.44,9.29C620.61,288.69,617.08,293.72,613.56,298.75z"/>
	<path class="st6" d="M654.82,360.2c-5.87-3.1-11.74-6.19-17.61-9.29c3.91-5.03,7.83-10.06,11.74-15.1
		c5.48,3.1,10.96,6.19,16.44,9.29C661.87,350.14,658.35,355.17,654.82,360.2z"/>
	<path class="st6" d="M622.82,339.82c-3.25-5.51-6.5-11.02-9.75-16.53c1.29-2.62,2.59-5.24,3.88-7.86
		c5.48,3.1,10.96,6.19,16.44,9.29C629.87,329.75,626.35,334.79,622.82,339.82z"/>
	<path class="st4" d="M424.07,156.07c-2.38-9.1,5.07-17.8,12.69-26.71c12.37-14.45,27.19-21.23,34.27-24.39
		c14.89-6.63,27.54-8.4,34.27-9.29c12.87-1.7,23.94-3.17,36.81,1.16c5.29,1.78,14.82,4.99,21.58,13.94
		c10.13,13.42,5.59,28.6,5.08,30.19c-1.05,3.29-2.69,8.43-7.62,12.77c-6.15,5.42-11.33,4.23-29.19,9.29
		c-3.65,1.03-11.22,3.29-20.31,6.97c-9.83,3.98-16.02,6.49-22.85,11.61c-8.67,6.51-8.05,9.5-12.69,10.45
		c-6.5,1.34-10.92-3.87-27.92-16.26C429.42,162.14,425.55,161.73,424.07,156.07z"/>
	<path class="st10" d="M454.56,120.07c-0.43,5.92,11.48,7.37,23.48,17.42c14.86,12.44,17,27.31,25.83,26.71
		c0.41-0.03,3.62-0.29,4.7-2.32c0.99-1.87-0.01-4.89-12.92-19.74c-6.17-7.1-9.89-10.95-12.92-13.94c0,0-6.42-6.34-16.06-12.06
		c-2.21-1.31-4.82-2.72-7.42-1.88C456.79,115.06,454.73,117.73,454.56,120.07z"/>
	<path class="st10" d="M443.99,171.4c2.45-1.45,6.12-4,9.81-8.29c4.19-4.86,3.88-6.71,8.72-12.44c3.06-3.62,6.03-5.64,11.99-9.68
		c1.68-1.14,3.69-2.41,5.45-1.38c1.19,0.69,2.32,2.46,2.18,4.15c-0.21,2.51-3.11,3.24-8.72,6.91c-3.95,2.58-6.32,4.14-8.72,6.91
		c-3.49,4.04-2.76,5.75-6.54,11.06c-1.99,2.81-7.11,10.01-10.9,8.29C446.52,176.59,445.01,175.54,443.99,171.4z"/>
	<path class="st11" d="M480.39,193.23c-1.63-8.51,18.22-22.21,36.4-26.71c8.7-2.15,13.99-1.45,29.35-5.81
		c6.59-1.87,10.03-3.25,10.57-2.32c1.15,1.98-11.24,13.99-27.01,20.9c-6.75,2.96-9.75,3.09-14.09,6.97
		c-3.7,3.3-5.47,6.72-11.74,11.61c-2.63,2.05-4.02,2.98-5.87,3.48C491.19,203.2,481.42,198.58,480.39,193.23z"/>
	<polygon class="st2" points="736.64,633.05 719.03,602.88 730.21,596.5 747.82,626.67 	"/>
	<polygon class="st2" points="757.28,621.61 739.67,591.44 750.85,585.06 768.47,615.23 	"/>
	<path class="st12" d="M504.46,800c-90.41-42.19-180.82-84.39-271.23-126.58c-16.44-107.23-32.88-214.45-49.31-321.68
		c128.38,41.03,256.75,82.06,385.13,123.1C547.52,583.23,525.99,691.61,504.46,800z"/>
	<path class="st12" d="M676.48,700.71c-55.58,32.13-111.15,64.26-166.73,96.39c19.96-107.61,39.92-215.22,59.88-322.84
		c62.23-25.94,124.46-51.87,186.69-77.81C729.71,497.87,703.09,599.29,676.48,700.71z"/>
	<path class="st12" d="M237.34,323.29c-16.83,8.13-33.66,16.26-50.49,24.39c15.66,4.65,31.31,9.29,46.97,13.94
		C234.99,348.84,236.17,336.07,237.34,323.29z"/>
	<path class="st12" d="M752.8,391.81c-28.57,12.39-57.14,24.77-85.71,37.16c13.7-20.13,27.4-40.26,41.1-60.39
		c6.71,3.87,13.76,7.76,21.13,11.61C737.35,384.4,745.19,388.26,752.8,391.81z"/>
	<polygon class="st2" points="652.41,415.62 675.89,408.65 698.56,412.13 711.12,421.42 715.81,449.29 715.81,472.52 706.42,482.97 
		695.85,503.87 691.16,517.81 691.16,536.39 695.85,544.52 715.81,536.01 707.59,513.16 715.81,499.36 720.51,485.29 728.36,472.52 
		728.73,458.58 728.73,438.99 728.73,419.59 715.81,405.16 701.72,397.03 678.94,397.03 662.23,397.03 648.42,397.03 	"/>
	<polygon class="st3" points="739.21,565.23 707.68,583.23 686.55,547.03 718.07,529.03 	"/>
	<polygon class="st3" points="762.54,578.48 707.62,609.84 686.49,573.63 741.41,542.27 	"/>
	<path class="st8" d="M278.75,683.86L278.75,683.86c17.36-2.27,29.57-18.03,27.27-35.2L277.1,432.57
		c-2.3-17.17-18.23-29.24-35.59-26.97l0,0c-17.36,2.27-29.57,18.03-27.27,35.2l28.92,216.09
		C245.46,674.06,261.39,686.14,278.75,683.86z"/>
	<path class="st8" d="M349.85,715.54L349.85,715.54c17.45,1.42,32.76-11.42,34.19-28.68l18.05-217.24
		c1.43-17.26-11.55-32.4-29-33.82l0,0c-17.45-1.42-32.76,11.42-34.19,28.68l-18.05,217.24C319.42,698.98,332.4,714.12,349.85,715.54
		z"/>
	<path class="st8" d="M415.78,743.89L415.78,743.89c15.79,7.47,34.72,0.87,42.28-14.76l96.85-200.26
		c7.55-15.62,0.88-34.34-14.92-41.81l0,0c-15.79-7.47-34.72-0.87-42.28,14.76l-96.85,200.26
		C393.3,717.69,399.98,736.42,415.78,743.89z"/>
	<path class="st2" d="M168.65,287.29l16.44,4.06l15.26,11.61l9.39,11.61l3.52,11.61l2.35,22.06v26.16v28.94v26.76l7.04,19.17
		l15.26,18.58l19.96,4.65h18.16l17.06-2.32l16.44-15.1l17.61-18.58l11.74-18.58l16.44-19.74l15.26-3.48
		c5.48,1.94,10.96,3.87,16.44,5.81c-1.57-5.81-3.13-11.61-4.7-17.42c-5.25-1.06-10.5-2.13-15.74-3.19l-10.09,3.19l-8.22,6.97
		l-5.87,4.65l-12.92,13.94l-11.74,15.1l-8.22,10.45l-11.71,10.45l-9.39,8.13l-8.22,4.65h-11.74l-16.44-1.16l-12.92-8.13l-8.22-13.94
		l-1.17-19.74l-2.8-34.55l-0.72-16.55l-1.17-25.55l-1.17-17.42l-5.87-16.26l-10.57-13.94l-12.51-9.29l-16.56-4.06h-9.67v10.45
		H168.65z"/>
</g>
<g>
	<path class="st13" d="M655.54,732.31H234.46c-17.12,0-31-13.88-31-31V588.7c0-17.12,13.88-31,31-31h421.08c17.12,0,31,13.88,31,31
		v112.61C686.54,718.43,672.66,732.31,655.54,732.31z"/>
	<path class="st13" d="M655.54,732.31H234.46c-17.12,0-31-13.88-31-31V588.7c0-17.12,13.88-31,31-31h421.08c17.12,0,31,13.88,31,31
		v112.61C686.54,718.43,672.66,732.31,655.54,732.31z"/>
	<polyline class="st14" points="185.72,766.24 183.93,766.24 181.29,765.88 178.85,765.33 177.27,764.66 175.59,763.79 
		174.2,762.77 173.39,761.75 172.52,760.72 172.52,756.86 172.52,745.48 172.52,688.07 172.52,613.77 172.52,552.49 172.52,479.66 
		172.52,388.09 172.52,386.69 172.52,385.32 172.52,384.65 173.13,383.65 174.07,382.71 175.13,381.57 176.22,380.87 177.65,380.17 
		178.75,379.87 180.01,379.47 181.68,379.13 182.9,378.9 184.12,378.9 184.97,378.76 185.72,378.76 186.35,378.76 186.7,378.76 
		185.67,379.11 184.33,379.96 183.66,380.96 183.19,382.37 183.19,383.52 183.19,385.99 183.19,411.69 183.19,444.14 183.19,495.75 
		183.19,520.28 183.19,585.5 183.19,650.93 183.19,707.15 183.19,763.93 184.12,765.08 185.72,766.24 	"/>
	<polyline class="st15" points="191.45,766.74 189.94,767.24 187.97,766.99 185.72,766.24 184.12,765.08 183.19,763.93 
		183.19,760.77 183.19,664.24 183.19,565.73 183.19,469.08 183.19,388.55 183.19,385.33 183.19,383.52 183.19,382.37 183.66,380.96 
		184.33,379.96 185.67,379.11 187.32,378.56 188.85,378.2 190.31,378.2 192.25,378.38 191.41,379.11 190.57,380.07 189.82,380.84 
		189.63,381.49 189.39,382.3 189.39,383.47 189.39,384.43 189.39,386.28 189.39,409.76 189.39,429.63 189.39,484.43 189.39,565.28 
		189.39,672.52 189.39,679.35 189.39,680.87 189.63,681.61 189.96,681.98 190.37,682.53 190.88,682.97 191.16,683.73 191.17,687.13 
		191.18,744.09 191.18,746.27 191.01,747.07 190.31,747.61 189.82,748.23 189.39,749.48 189.39,750.41 189.39,752.25 189.39,761.37 
		189.39,763.49 189.61,764.29 190.04,764.96 190.42,765.54 190.85,766.16 191.45,766.74 	"/>
	<polyline class="st16" points="209.29,770.11 207.65,770.37 206.45,770.24 205.09,770.11 203.77,769.77 202.46,769.32 
		201.41,768.88 200.28,767.98 199.6,767.31 199.23,766.38 199.01,765.18 199.01,755.3 199.01,721.61 199.01,693.62 199.01,614.9 
		199.01,496.24 199.01,399.06 199.01,381.6 199.01,380.34 199.35,379.47 199.63,378.51 200.23,377.64 201.07,376.65 201.7,376.15 
		202.35,375.84 203.08,375.69 203.91,375.37 204.61,375.3 205.3,375.3 206.28,375.2 207.24,375.2 207.65,375.2 208.11,375.2 
		208.98,375.3 207.98,375.93 207.23,376.59 206.64,377.27 206.11,378.17 205.89,379 205.76,380.07 205.72,381.25 205.72,382.37 
		205.72,403.11 205.72,465.43 205.72,540.48 205.72,607.48 205.72,690.19 205.72,760.2 205.72,766.16 205.72,767.04 205.94,767.63 
		206.62,768.34 207.14,768.76 209.29,770.11 	"/>
	<path class="st17" d="M206.28,377.79"/>
	<path class="st17" d="M206.81,377.04"/>
	<path class="st17" d="M205.12,374.13"/>
	<polygon class="st18" points="201.83,769.02 200.86,769.02 199.24,768.78 197.4,768.34 195.96,768.06 194.39,767.62 193.34,767.32 
		192.2,767.05 191.45,766.74 190.85,766.16 190.42,765.54 190.04,764.96 189.61,764.29 189.39,763.49 189.39,750.41 189.39,749.48 
		189.82,748.23 190.31,747.61 191.01,747.07 191.18,746.27 191.18,744.09 191.16,740.27 191.19,738.78 191.14,732.05 191.19,724.41 
		191.19,713.94 191.19,704.7 191.19,692.59 191.16,683.73 190.88,682.97 190.37,682.53 189.96,681.98 189.63,681.61 189.39,680.87 
		189.39,679.35 189.39,674.47 189.39,668.71 189.39,629.45 189.39,551.9 189.39,484.43 189.39,440.47 189.39,395.67 189.39,384.43 
		189.39,382.3 189.63,381.49 189.82,380.84 190.57,380.07 191.41,379.11 192.25,378.38 193.28,377.71 194.54,377.15 195.7,376.95 
		197.34,376.54 199.01,376.32 200.34,376.22 201.05,376.22 201.49,376.32 200.85,376.91 200.49,377.33 200,377.98 199.76,378.32 
		199.53,378.85 199.41,379.26 199.26,379.71 199.11,380.07 199.01,380.67 199.01,381.1 199.01,382.06 199.01,406.53 199.01,447.81 
		199.01,504.18 199.01,587.05 199.01,682.7 199.01,734.43 199.01,763.72 199.09,765.59 199.35,766.68 199.88,767.59 200.55,768.2 	
		"/>
	<polyline class="st19" points="218.98,771.59 218.04,772 215.63,772 213.21,771.59 211.21,770.86 209.29,770.11 207.45,769 
		206.22,768.03 205.72,767.33 205.72,764.52 205.72,761.91 205.72,683.33 205.72,553.79 205.72,380.32 205.94,378.59 206.28,377.79 
		206.81,377.04 207.67,376.13 208.98,375.3 210.47,374.74 212.35,374.27 214.09,373.79 216.01,373.39 217.7,373.04 218.98,372.84 
		219.78,372.91 216.73,375.83 216.4,399.8 216.4,500.38 216.4,566.17 216.4,719.77 216.81,769.84 218.98,771.59 	"/>
	<polyline class="st20" points="211.74,395.48 211.74,394.3 211.74,393.4 211.74,392.71 211.74,392.28 211.64,391.95 211.41,391.7 
		211.19,391.56 210.95,391.56 210.84,391.78 210.84,392.06 210.84,392.5 210.84,393.03 210.84,393.52 210.84,394.12 210.84,394.7 
		210.84,395.13 210.84,395.4 210.74,395.63 210.48,395.75 210.22,395.63 210.05,395.35 210.05,395.05 210.05,394.32 210.05,393.45 
		210.05,392.8 210.05,392.25 210.05,391.56 	"/>
	<polygon class="st20" points="211.94,402.88 211.94,401.81 211.94,400.99 211.94,400.37 211.94,400.11 211.83,399.7 211.74,399.49 
		211.5,399.29 211.23,399.06 210.9,399.06 210.54,399.06 210.05,399.06 209.87,399.41 209.7,399.78 209.62,400.25 209.62,400.58 
		209.62,401.37 209.62,402.49 209.62,402.8 209.62,403.28 209.8,403.98 210.05,404.36 210.68,404.45 211.29,404.24 211.74,404.02 
		211.94,403.66 	"/>
	<polyline class="st20" points="209.94,407.4 210.78,407.4 211.4,407.4 211.94,407.4 212.11,407.81 212.11,408.26 211.67,408.78 
		209.94,410.95 209.78,411.31 209.78,411.74 209.94,412.12 210.54,412.12 211.07,412.12 211.56,412.12 212.11,412.12 	"/>
	<polyline class="st20" points="212.11,416.12 211.62,416.5 211.29,416.84 210.94,417.13 210.65,417.52 210.65,417.88 
		210.65,418.22 210.94,418.65 211.38,418.96 211.81,419.23 212.11,419.37 	"/>
	<polyline class="st20" points="209.31,417.9 209.78,417.9 210.24,417.9 210.65,417.88 	"/>
	<polyline class="st21" points="212.75,721.43 212.75,723.49 212.75,726.48 212.75,730.38 212.57,730.96 212.15,731.25 
		211.64,731.25 211.27,731.25 211.09,730.94 211.09,729.95 211.09,728.91 211.09,722.57 210.99,722.07 210.74,721.73 210.46,721.43 
		210.13,721.27 209.76,721.12 209.32,721 208.92,721 	"/>
	<polyline class="st21" points="212.62,745.19 212.62,743.04 212.62,741.56 212.62,739.96 212.5,739.42 212.15,739.13 211.74,739 
		211.19,739 210.49,739 209.75,739 209.34,738.81 209.14,738.41 209.14,737.7 209.14,736.66 209.14,736.02 209.14,734.43 	"/>
	<polyline class="st21" points="207.65,755.57 212.15,755.57 212.47,755.57 212.47,754.64 210.06,747.48 209.9,747.01 209.7,746.6 
		209.46,746.36 209.01,746.36 208.96,746.85 208.98,747.22 208.96,747.85 209.14,757.67 	"/>
	<ellipse class="st22" cx="431.32" cy="512.66" rx="30.46" ry="25.04"/>
	<ellipse class="st23" cx="439.49" cy="516.54" rx="35.17" ry="28.91"/>
	<ellipse class="st23" cx="450.3" cy="525.07" rx="38.48" ry="31.63"/>
	<ellipse class="st23" cx="424.37" cy="523.06" rx="38.48" ry="31.63"/>
	<ellipse class="st24" cx="445.38" cy="521.38" rx="41.06" ry="33.75"/>
	<path class="st23" d="M216.4,767.47V630.85c0-12.38,0-51.69,0-69.98c0-2.46,0-5.69,0-8.77c0-0.93,0-1.84,0-2.71
		c0-2.82,0-5.25,0-6.44c0-0.98,0-1.97,0-2.95c0-33.5,0-67,0-100.5v-59.99v-1.14v-0.99v-0.8l0.33-0.74l0.43-0.57l0.4-0.55l0.43-0.52
		l0.7-0.49l0.56-0.44l0.53-0.35l0.6-0.37l0.58-0.37h1.61h26.55h13.8h21.41h21.2h17.2h20.31h15.41h15.89h12.13h17.85h16.78h20.45
		h14.22h14.15h16.3h17.16h21.72h66.27h71.75h60.99h11.48h3.42h2.46h1.3l1.1,0.13l0.86,0.3l1,0.57l0.5,0.44l0.73,0.49l0.23,0.25
		l0.9,0.71l0.53,0.57l0.76,0.71l0.43,0.52v1.15v15.17v32.79v29.49v40.64v71.61v52.82v46.11v44.28v41.21v15.35v0.69l-0.2,0.7
		l-0.45,0.63l-0.45,0.48l-0.49,0.44l-0.49,0.67l-0.63,0.48l-0.54,0.37l-0.85,0.33l-0.9,0.41l-1.35,0.33h-53.65h-55.64h-64.43h-53.71
		h-57.56h-68.83H239.97h-17.3l-1.53-0.47l-0.63-0.13l-0.9-0.45l-1.14-0.65l-0.94-0.74l-0.71-0.71l-0.41-0.45v-0.97v-0.98H216.4z"/>
	<ellipse class="st25" cx="431.98" cy="499.04" rx="2.78" ry="2.28"/>
	<polygon class="st26" points="217.4,539.36 253.55,522.56 282.24,505.78 301.5,491.43 317.62,479.91 336.87,464.4 358.88,445.67 
		371.85,427.57 388.75,407.4 396.61,393.66 403.29,378.2 404.32,372.18 220.96,372.18 216.73,375.83 	"/>
	<path class="st26" d="M594.63,372.18c0,0-4.23-4.1,5.39,26.88s3.85,13.06,3.85,13.06s2.12,3.35,9.72,15.39
		c7.61,12.04-3.01-5.68,10.29,16.28s16.16,24.67,16.16,24.67l10.77,10.13l10,8.86l12.31,9.31l10,9.02l10,11.4l8.47,7.59l10.77,7.59
		l10,3.16l10.77,4.46l16.65,4.39V378.01l-5.94-5.7L594.63,372.18z"/>
	<polygon class="st27" points="474.66,552.1 474.66,564.87 474.66,577.88 474.66,588.61 474.66,590.03 475.01,590.37 475.6,590.54 
		476.28,590.75 477.12,591 478.3,591.45 479.18,591.69 480.31,591.83 481.32,592.13 482.23,592.44 483.37,592.66 484.44,592.85 
		485.45,592.94 486.1,592.94 486.45,592.62 486.45,592.08 486.45,589.66 486.45,585.98 486.45,583.62 486.45,581.2 486.45,578.43 
		486.45,574.54 486.45,570.72 486.45,567.31 486.45,563.35 486.45,560.87 486.68,560.26 487.04,559.81 487.54,559.5 487.94,559.35 
		488.33,559.35 488.8,559.31 489.12,559.35 489.46,559.42 489.84,559.67 490.04,559.94 490.29,560.37 490.54,560.87 490.54,561.32 
		490.54,563.81 490.54,567.28 490.54,570.32 490.54,573.46 490.54,574.5 490.99,574.9 491.63,575.2 492.21,575.39 492.82,575.53 
		493.48,575.72 494.09,575.82 495.13,576.1 495.92,576.22 496.55,576.22 496.96,576.22 497.67,576.22 498.2,576.24 499.01,576.2 
		499.62,576.01 500.18,575.62 500.86,575.18 501.4,574.72 501.88,574.39 502.36,574.03 502.79,573.41 503.13,572.82 503.55,572.2 
		503.77,571.51 503.98,570.73 504.22,570.14 504.22,569.41 504.22,568.92 504.22,568.26 504.22,567.36 504.22,566.59 504.22,565.93 
		504.22,565.24 504.03,564.53 503.77,564.08 503.46,563.59 503.15,562.99 502.7,562.42 502.24,561.79 501.86,561.36 501.48,560.87 
		500.79,560.11 500.07,559.44 499.26,558.87 497.91,558.11 496.67,557.66 495.52,556.95 494.26,556.64 491.42,555.7 489.66,555.27 
		487.56,554.78 484.89,554.07 482.65,553.39 480.74,552.82 479.17,552.48 478.22,552.45 477.38,552.39 476.38,552.35 475.93,552.33 
			"/>
	<path class="st21" d="M474.66,587.32"/>
	<path class="st21" d="M473.88,574.49"/>
	<polygon class="st27" points="474.66,587.32 473.88,587.53 473.16,587.95 472.8,588.11 471.89,588.2 471,588.2 470.14,588.2 
		468.89,588.2 467.59,588.2 465.59,588.2 463.51,588.2 461.9,588.09 460.43,588.04 459.6,587.86 458.54,587.76 457.43,587.76 
		456.41,587.52 455.41,587.32 454.46,587.06 453.6,586.85 452.69,586.56 451.91,586.26 451.11,585.9 450.36,585.55 449.72,585.1 
		449.3,584.8 449.08,584.48 449.08,584.05 448.89,583.62 448.89,583.07 449.25,582.68 449.75,582.32 450.52,581.81 451.3,581.47 
		452.58,580.92 453.85,580.47 455.43,580.01 457.43,579.44 458.85,579.08 460.62,578.58 462.26,578.1 464.17,577.59 466.42,577 
		468.5,576.45 470.08,576.14 471.86,575.63 473.02,575.38 473.88,575.2 474.66,575.11 474.66,575.98 474.66,577.28 474.66,578.6 
		474.66,579.58 474.66,579.97 474.22,580.17 473.88,580.31 473.3,580.45 472.72,580.67 471.94,580.97 470.97,581.24 469.72,581.49 
		468.7,581.81 467.09,582.2 466.12,582.41 465.12,582.59 464.34,582.89 463.51,583.07 462.59,583.32 461.9,583.48 461.26,583.71 
		460.84,583.96 460.57,584.28 460.59,584.57 460.76,584.92 461.26,585.19 461.77,585.46 462.54,585.51 463.48,585.51 464.31,585.37 
		465.23,585.21 466.84,584.78 468,584.62 469.39,584.21 470.72,583.89 471.94,583.46 473.05,583.07 473.63,583 474.66,582.79 
		474.66,583.46 474.66,584.44 474.66,585.8 	"/>
	<polygon class="st27" points="488.97,579.09 491.17,578.36 493.32,578.05 495.3,577.64 496.9,577.37 498.44,577.37 500.14,577.14 
		501.3,577.14 502.87,577.14 504.22,577.14 505.64,577.33 506.7,577.38 508.16,577.48 509.73,577.59 511.52,577.88 512.63,578.06 
		513.81,578.54 514.84,578.98 515.79,579.45 517.01,579.77 517.96,580.24 518.6,580.87 519.08,581.29 519.3,582 519.3,582.49 
		519.02,583.07 518.54,583.7 517.96,584.15 517.26,584.67 516.53,585.07 515.51,585.51 514.71,585.88 513.46,586.35 512.35,586.67 
		511.1,587.01 509.95,587.24 508.9,587.48 507.65,587.66 506.25,587.93 504.75,588.4 503.09,588.92 501.4,589.37 499.67,589.82 
		498.11,590.26 496.03,590.76 493.96,591.34 492.14,591.84 490.16,592.2 488.88,592.2 487.7,592.36 486.45,592.36 486.45,590.16 
		486.45,588.71 487.26,588.35 488.44,588.03 489.87,587.64 491.82,587.19 494.09,586.61 495.52,586.22 497.37,585.56 499.64,584.75 
		501.68,583.89 503.54,583.52 504.75,583.18 506.15,582.86 506.92,582.6 507.78,582.28 508.32,582 508.36,581.65 508.2,581.29 
		507.62,581.05 507.08,580.95 505.87,580.79 504.91,580.76 504.22,580.84 502.88,581.1 501.81,581.26 500.34,581.65 499.03,581.76 
		497.66,582.15 496.42,582.63 495.3,582.91 493.96,583.23 492.97,583.6 491.41,584.15 490.16,584.59 489.17,584.75 488.4,584.91 
		486.45,585.25 486.45,583.89 486.45,582.26 486.45,580.82 486.45,580.13 486.45,579.58 487.13,579.4 488.05,579.24 	"/>
	<ellipse class="st28" cx="401.5" cy="496.76" rx="47.38" ry="59.55"/>
	<ellipse class="st28" cx="552.34" cy="493.95" rx="47.38" ry="59.55"/>
	<polygon class="st29" points="301.5,491.43 347.98,491.43 347.98,503.69 285.05,503.69 	"/>
	<rect x="452.9" y="491.43" class="st29" width="47.83" height="12.26"/>
	<polygon class="st29" points="603.79,491.43 666.08,491.43 680.82,503.69 603.79,503.69 	"/>
	<path class="st30" d="M378.11,425.93l6.39-4.64l8.65-5.6l5.26-1.63l9.57-1.43h11.86h7.09c3.3-0.64,6.6-1.27,9.91-1.91
		c2.28-1.25,4.55-2.5,6.83-3.74c1.52-0.62,3.04-1.25,4.55-1.87c0,1.87,0,3.74,0,5.62c0,1.25,0,2.5,0,3.74s0,2.5,0,3.74
		c0,0.62,0,1.25,0,1.87c-0.76,0.62-1.52,1.25-2.28,1.87c-1.52,0.62-3.04,1.25-4.55,1.87c-2.28,0.62-4.55,1.25-6.83,1.87
		c-3.28,1.11-6.56,2.21-9.83,3.32h-6.01h-6.77h-10.54h-7.89H386h-2.63h-2.63L378.11,425.93z"/>
	<polygon class="st31" points="437.27,436.28 442.18,433.67 446.51,432.49 449.97,431.3 453.72,431.3 456.31,431.3 459.49,431.3 
		463.81,432.25 466.99,432.72 472.33,432.72 475.93,432.49 481.7,432.25 486.6,429.88 490.93,428.69 496.7,427.51 500.74,427.51 
		503.91,427.51 507.95,428.93 511.99,430.59 514.59,431.89 516.03,433.43 507.95,431.89 503.62,430.83 500.16,430.59 493.82,431.89 
		490.35,433.67 486.03,434.69 480.55,436.28 474.2,436.28 466.99,436.28 462.66,434.69 457.18,434.69 454.29,434.69 450.54,434.69 
		446.79,436.28 443.33,436.28 	"/>
	<polygon class="st31" points="437.27,447.91 442.18,445.31 446.51,444.12 449.97,442.93 453.72,442.93 456.31,442.93 
		459.49,442.93 463.81,443.88 466.99,444.36 472.33,444.36 475.93,444.12 481.7,443.88 486.6,441.51 490.93,440.33 496.7,439.14 
		500.74,439.14 503.91,439.14 507.95,440.56 511.99,442.22 514.59,443.53 516.03,445.07 507.95,443.53 503.62,442.46 500.16,442.22 
		493.82,443.53 490.35,445.31 486.03,446.32 480.55,447.91 474.2,447.91 466.99,447.91 462.66,446.32 457.18,446.32 454.29,446.32 
		450.54,446.32 446.79,447.91 443.33,447.91 	"/>
	<polygon class="st32" points="401.15,587.62 393.83,590.61 385.97,595.3 379.48,601.19 371.63,607.69 365.15,615.4 358.67,623.11 
		351.65,632.52 344.35,640.96 339.76,646.34 334.37,656.1 328.98,664.03 325.77,674.25 323.1,682.76 330.92,670.8 338.33,661.98 
		346.84,649.66 352.24,641.72 356.96,634.1 365.47,624.55 371.95,615.93 379.25,609.31 385.19,601.49 	"/>
	<polygon class="st32" points="643.11,675.33 641.45,669.29 637.96,662.26 632.78,655.71 627.22,648.02 619.97,640.8 612.71,633.59 
		603.64,625.39 595.74,617.36 590.69,612.28 580.83,605.05 573.05,598.49 562.15,592.56 553.07,587.62 564.87,597.3 573.18,605.56 
		585.21,615.84 592.99,622.4 600.57,628.39 609.45,637.65 617.74,645.2 623.56,652.56 631.08,659.45 	"/>
	<path class="st33" d="M409.08,619.48l-2.89,1.27l-1.16,1.58v1.58v2.53l-1.54,4.12l-0.96,3.96l-1.16,5.38v7.44l-1.93,7.76v4.91
		v12.82l0.96,12.03l1.54,6.49l2.31,6.49l2.31,6.65l6.93,10.77l3.85,4.27l2.31,3.32l3.08,1.27l-1.35-8.23v-3.32l1.35-2.22l3.66,8.71
		l6.16,10.77l5.97,6.49l5.2,4.91l5.39,4.43l4.04,2.37h1.73v-3.64l-1.35-5.07l-0.19-2.53l4.82,7.6l4.04,4.43l3.85,3.17l4.62,3.48
		l5.59,2.85l5.2,2.69l3.85,1.58l3.69,1.11h1.13l2.7-1.11l7.13-3.32l6.55-3.01l4.43-2.85l4.62-3.96l4.24-4.12l3.47-4.91l1.93-3.48
		v3.64l-1.16,4.43l-0.96,2.69l0.96,0.79l2.5-0.79l2.12-2.22l6.55-4.59l5.2-4.75l3.47-3.96l4.04-5.54l2.89-5.38l2.7-6.17l1.73-4.59
		v3.01l1.35,3.64v3.64l-1.54,3.8l1.54-0.32l2.5-1.58l3.66-4.27l3.85-5.7l4.24-5.38l1.93-5.22l2.92-8.22l2.02-10.21v-6.51l0.62-11.61
		l-0.93-14.04l-1.09-6.64l-2.95-13.27l-1.71-5.87l-1.24-3.45l-3.26-2.84h-2.17c-11.82-5.9-37.42-16.87-72.49-17.92
		C451.14,600.32,420.84,613.63,409.08,619.48z"/>
	<ellipse class="st34" cx="400.86" cy="493.95" rx="38.07" ry="46.04"/>
	<ellipse class="st34" cx="552.34" cy="493.95" rx="38.07" ry="46.04"/>
	<ellipse class="st35" cx="407.8" cy="493.56" rx="18.79" ry="23.87"/>
	<ellipse class="st35" cx="560.76" cy="494.71" rx="18.79" ry="23.87"/>
	<path class="st36" d="M504.01,535.21"/>
	<ellipse class="st36" cx="570.86" cy="481.08" rx="9.43" ry="8.58"/>
	<ellipse class="st36" cx="418.22" cy="478.54" rx="9.43" ry="8.58"/>
	<path class="st36" d="M398.12,516.24c-0.1-1.21-0.55-4.34-3.42-7.23c-4.1-4.15-9.98-4.61-11.08-4.68c1.1-0.07,6.97-0.53,11.08-4.68
		c2.86-2.89,3.32-6.02,3.42-7.23c0.1,1.21,0.55,4.34,3.42,7.23c4.1,4.15,9.98,4.61,11.08,4.68c-1.48,0.08-5.28,0.46-8.8,2.81
		C398.77,510.5,398.21,515.34,398.12,516.24z"/>
	<path class="st36" d="M551.72,518.82c-0.1-1.21-0.55-4.34-3.42-7.23c-4.1-4.15-9.98-4.61-11.08-4.68c1.1-0.07,6.97-0.53,11.08-4.68
		c2.86-2.89,3.32-6.02,3.42-7.23c0.1,1.21,0.55,4.34,3.42,7.23c4.1,4.15,9.98,4.61,11.08,4.68c-1.48,0.08-5.28,0.46-8.8,2.81
		C552.37,513.09,551.81,517.92,551.72,518.82z"/>
	<path class="st30" d="M580.59,424.14l-6.39-4.64l-8.65-5.6l-5.26-1.63l-9.57-1.43h-11.86h-7.09c-3.3-0.64-6.6-1.27-9.91-1.91
		c-2.28-1.25-4.55-2.5-6.83-3.74c-1.52-0.62-3.04-1.25-4.55-1.87c0,1.87,0,3.74,0,5.62c0,1.25,0,2.5,0,3.74s0,2.5,0,3.74
		c0,0.62,0,1.25,0,1.87c0.76,0.62,1.52,1.25,2.28,1.87c1.52,0.62,3.04,1.25,4.55,1.87c2.28,0.62,4.55,1.25,6.83,1.87
		c3.28,1.11,6.56,2.21,9.83,3.32h6.01h6.77h10.53h7.89h7.52h2.63h2.63L580.59,424.14z"/>
</g>
</svg>
