<?xml version="1.0" encoding="utf-8"?>
<!-- Generator: Adobe Illustrator 25.1.0, SVG Export Plug-In . SVG Version: 6.00 Build 0)  -->
<svg version="1.1" id="Layer_1" xmlns="http://www.w3.org/2000/svg" xmlns:xlink="http://www.w3.org/1999/xlink" x="0px" y="0px"
	 viewBox="0 0 1317 1123" style="enable-background:new 0 0 1317 1123;" xml:space="preserve">
<style type="text/css">
	.st0{fill:#1A1A1A;}
	.st1{fill:#FFFFFF;stroke:#000817;stroke-miterlimit:10;}
	.st2{opacity:0.73;fill:#ADB2AE;stroke:#4D4545;stroke-width:7;stroke-miterlimit:10;}
	.st3{fill:#FFFFFF;stroke:#ECBCB4;stroke-miterlimit:10;}
	.st4{stroke:#A27100;stroke-width:10;stroke-miterlimit:10;}
	.st5{fill:#FFFFFF;}
</style>
<path class="st0" d="M0.42,0C0.28,374.33,0.14,748.67,0,1123c438.89,0,877.79,0,1316.68,0c0.11-374.16,0.21-748.33,0.32-1122.49
	L0.42,0z"/>
<ellipse class="st1" cx="550.68" cy="514.22" rx="8.62" ry="8.1"/>
<ellipse class="st2" cx="456.15" cy="506.12" rx="146.97" ry="211.15"/>
<ellipse class="st2" cx="924.03" cy="496.15" rx="146.97" ry="211.15"/>
<ellipse class="st3" cx="454.16" cy="496.15" rx="118.1" ry="163.24"/>
<ellipse class="st3" cx="924.03" cy="496.15" rx="118.1" ry="163.24"/>
<ellipse class="st4" cx="475.69" cy="494.79" rx="58.27" ry="84.62"/>
<ellipse class="st4" cx="950.15" cy="498.87" rx="58.27" ry="84.62"/>
<path class="st5" d="M774.11,642.45"/>
<ellipse class="st5" cx="967.53" cy="460.03" rx="29.24" ry="30.43"/>
<ellipse class="st5" cx="491.25" cy="451.01" rx="29.24" ry="30.43"/>
<path class="st5" d="M466.68,564.18c-0.31-4.3-1.72-15.39-10.59-25.64c-12.72-14.7-30.96-16.34-34.35-16.59
	c3.4-0.25,21.63-1.89,34.35-16.59c8.88-10.26,10.29-21.34,10.59-25.64c0.31,4.3,1.72,15.39,10.59,25.64
	c12.72,14.7,30.96,16.34,34.35,16.59c-4.58,0.29-16.38,1.61-27.29,9.96C468.69,543.86,466.94,560.99,466.68,564.18z"/>
<path class="st5" d="M922.12,584.36c-0.31-4.3-1.72-15.39-10.59-25.64c-12.72-14.7-30.96-16.34-34.35-16.59
	c3.4-0.25,21.63-1.89,34.35-16.59c8.88-10.26,10.29-21.34,10.59-25.64c0.31,4.3,1.72,15.39,10.59,25.64
	c12.72,14.7,30.96,16.34,34.35,16.59c-4.58,0.29-16.38,1.61-27.29,9.96C924.13,564.03,922.38,581.16,922.12,584.36z"/>
</svg>
