<?xml version="1.0" encoding="utf-8"?>
<!-- Generator: Adobe Illustrator 25.1.0, SVG Export Plug-In . SVG Version: 6.00 Build 0)  -->
<svg version="1.1" id="Layer_1" xmlns="http://www.w3.org/2000/svg" xmlns:xlink="http://www.w3.org/1999/xlink" x="0px" y="0px"
	 viewBox="0 0 1214.98 1023.15" style="enable-background:new 0 0 1214.98 1023.15;" xml:space="preserve">
<style type="text/css">
	.st0{fill:#A47449;stroke:#654321;stroke-width:5;stroke-miterlimit:10;}
	.st1{fill:#26272A;stroke:#000000;stroke-miterlimit:10;}
	.st2{fill:#3E3F44;stroke:#000000;stroke-miterlimit:10;}
	.st3{fill:#52545A;stroke:#000000;stroke-miterlimit:10;}
	.st4{fill:none;stroke:#000000;stroke-miterlimit:10;}
	.st5{fill:#282A2E;stroke:#000000;stroke-miterlimit:10;}
	.st6{fill:#2B2C31;stroke:#000817;stroke-miterlimit:10;}
	.st7{fill:none;stroke:#000000;stroke-width:0.25;stroke-miterlimit:10;}
	.st8{fill:#00B98F;stroke:#000817;stroke-miterlimit:10;}
	.st9{fill:#56585D;stroke:#000817;stroke-miterlimit:10;}
	.st10{fill:#FFFFFF;stroke:#000000;stroke-miterlimit:10;}
	.st11{fill:#FFFFFF;stroke:#000817;stroke-miterlimit:10;}
	.st12{fill:#948F8F;stroke:#000817;stroke-miterlimit:10;}
	.st13{fill:#1F2023;stroke:#000817;stroke-miterlimit:10;}
	.st14{fill:none;stroke:#000817;stroke-miterlimit:10;}
	.st15{opacity:0.73;fill:#ADB2AE;stroke:#4D4545;stroke-width:7;stroke-miterlimit:10;enable-background:new    ;}
	.st16{fill:#4D4545;stroke:#4D4545;stroke-width:3;stroke-miterlimit:10;}
	.st17{fill:#B2B1AA;stroke:#000000;stroke-miterlimit:10;}
	.st18{stroke:#000000;stroke-miterlimit:10;}
	.st19{fill:#FFFFFF;stroke:#ECBCB4;stroke-miterlimit:10;}
	.st20{fill:#8BE1FF;stroke:#A27100;stroke-width:0.25;stroke-miterlimit:10;}
	.st21{stroke:#A27100;stroke-width:10;stroke-miterlimit:10;}
	.st22{fill:#FFFFFF;}
	.st23{opacity:0.4;fill:#00FFFF;enable-background:new    ;}
</style>
<path class="st0" d="M-34.3-1.7c-0.14,341.95-0.27,683.9-0.41,1025.85c425.33,0,850.67,0,1276,0c0.1-341.8,0.2-683.59,0.31-1025.39
	L-34.3-1.7z"/>
<polyline class="st1" points="63.64,764.15 60.1,764.15 54.89,763.57 50.06,762.67 46.94,761.58 43.62,760.17 40.88,758.5 
	39.27,756.83 37.56,755.17 37.56,748.88 37.56,730.35 37.56,636.88 37.56,515.92 37.56,416.16 37.56,297.58 37.56,148.5 
	37.56,146.22 37.56,143.99 37.56,142.9 38.77,141.26 40.61,139.74 42.7,137.89 44.88,136.75 47.69,135.6 49.86,135.11 52.35,134.46 
	55.65,133.91 58.06,133.53 60.47,133.53 62.16,133.32 63.64,133.32 64.89,133.32 65.58,133.32 63.55,133.88 60.9,135.26 
	59.57,136.9 58.63,139.18 58.63,141.06 58.63,145.08 58.63,186.92 58.63,239.75 58.63,323.79 58.63,363.71 58.63,469.89 
	58.63,576.42 58.63,667.95 58.63,760.39 60.49,762.27 63.64,764.15 "/>
<polyline class="st2" points="98.89,767.33 91.53,768.15 81.93,767.74 70.97,766.51 63.2,764.62 58.63,762.73 58.63,757.56 
	58.63,599.71 58.63,438.63 58.63,280.58 58.63,148.88 58.63,143.62 58.63,140.67 58.63,138.78 60.95,136.48 64.22,134.84 
	70.76,133.45 78.76,132.55 86.22,131.97 93.35,131.97 102.79,132.26 98.69,133.45 94.6,135.02 90.95,136.28 90.04,137.35 
	88.87,138.67 88.87,140.58 88.87,142.15 88.87,145.18 88.87,183.58 88.87,216.07 88.87,305.68 88.87,437.88 88.87,613.25 
	88.87,624.43 88.87,626.91 90.02,628.11 91.64,628.73 93.64,629.63 96.13,630.35 97.5,631.59 97.55,637.14 97.57,730.3 
	97.57,733.85 96.78,735.17 93.35,736.04 90.98,737.06 88.87,739.1 88.87,740.63 88.87,743.64 88.87,758.55 88.87,762.02 
	89.92,763.33 92.03,764.42 93.88,765.36 95.99,766.38 98.89,767.33 "/>
<polyline class="st3" points="110.95,773.72 108.26,774.15 106.31,773.93 104.08,773.72 101.93,773.17 99.79,772.43 98.08,771.7 
	96.23,770.23 95.12,769.12 94.52,767.59 94.15,765.63 94.15,749.38 94.15,694.02 94.15,648.02 94.15,518.66 94.15,323.65 
	94.15,163.97 94.15,135.27 94.15,133.2 94.72,131.76 95.17,130.2 96.15,128.76 97.51,127.13 98.56,126.32 99.61,125.8 100.8,125.55 
	102.15,125.03 103.31,124.92 104.43,124.92 106.02,124.76 107.6,124.76 108.26,124.76 109.02,124.76 110.43,124.91 108.81,125.95 
	107.58,127.04 106.62,128.16 105.76,129.64 105.39,130.99 105.17,132.75 105.12,134.7 105.12,136.53 105.12,170.62 105.12,273.04 
	105.12,396.36 105.12,506.46 105.12,642.38 105.12,757.44 105.12,767.23 105.12,768.67 105.48,769.65 106.59,770.82 107.44,771.5 
	110.95,773.72 "/>
<path class="st4" d="M104.26,130.98"/>
<path class="st4" d="M105.31,129.17"/>
<path class="st4" d="M101.98,122.17"/>
<polygon class="st5" points="108.71,773.15 106.23,773.15 102.07,772.77 97.34,772.04 93.64,771.58 89.61,770.85 86.93,770.35 
	84.01,769.91 82.07,769.4 80.54,768.45 79.43,767.43 78.46,766.48 77.35,765.38 76.79,764.06 76.79,742.55 76.79,741.01 
	77.9,738.97 79.15,737.94 80.96,737.06 81.37,735.74 81.37,732.16 81.34,725.88 81.4,723.42 81.27,712.35 81.4,699.8 81.4,682.57 
	81.4,667.38 81.4,647.46 81.34,632.9 80.62,631.65 79.3,630.93 78.25,630.03 77.4,629.4 76.79,628.19 76.79,625.7 76.79,617.68 
	76.79,608.2 76.79,543.64 76.79,416.11 76.79,305.15 76.79,232.86 76.79,159.18 76.79,140.7 76.79,137.2 77.41,135.87 77.89,134.8 
	79.81,133.53 81.96,131.95 84.12,130.75 86.76,129.65 89.99,128.73 92.99,128.41 97.19,127.72 101.47,127.36 104.89,127.2 
	106.7,127.2 107.84,127.36 106.19,128.33 105.27,129.03 104,130.1 103.4,130.65 102.82,131.52 102.5,132.2 102.1,132.94 
	101.74,133.53 101.47,134.52 101.47,135.23 101.47,136.81 101.47,177.04 101.47,244.92 101.47,337.63 101.47,473.91 101.47,631.2 
	101.47,716.28 101.47,764.44 101.67,767.52 102.35,769.3 103.7,770.8 105.43,771.8 "/>
<polyline class="st6" points="129.36,779.47 127.52,780.15 122.74,780.15 117.96,779.47 114.02,778.27 110.23,777.02 106.59,775.19 
	104.16,773.57 103.17,772.42 103.17,767.77 103.17,763.43 103.17,633.3 103.17,418.75 103.17,131.46 103.6,128.59 104.26,127.28 
	105.31,126.03 107.03,124.52 109.6,123.14 112.55,122.22 116.27,121.44 119.7,120.65 123.51,119.99 126.84,119.4 129.36,119.07 
	130.95,119.2 124.92,124.03 124.27,163.73 124.27,330.31 124.27,439.26 124.27,693.65 125.08,776.58 129.36,779.47 "/>
<polyline class="st7" points="115.06,173.52 115.06,170.67 115.06,168.5 115.06,166.86 115.06,165.81 114.86,165.01 114.42,164.41 
	113.98,164.09 113.49,164.09 113.29,164.61 113.29,165.29 113.29,166.33 113.29,167.62 113.29,168.8 113.29,170.23 113.29,171.63 
	113.29,172.67 113.29,173.32 113.09,173.88 112.57,174.16 112.05,173.88 111.73,173.19 111.73,172.47 111.73,170.71 111.73,168.62 
	111.73,167.06 111.73,165.73 111.73,164.09 "/>
<polygon class="st7" points="115.46,191.3 115.46,188.73 115.46,186.75 115.46,185.26 115.46,184.64 115.25,183.65 115.06,183.15 
	114.59,182.65 114.05,182.12 113.39,182.12 112.7,182.12 111.73,182.12 111.36,182.94 111.03,183.85 110.86,184.97 110.86,185.76 
	110.86,187.66 110.86,190.35 110.86,191.09 110.86,192.25 111.24,193.94 111.73,194.85 112.97,195.06 114.17,194.57 115.06,194.03 
	115.46,193.16 "/>
<polyline class="st7" points="111.51,202.17 113.16,202.17 114.38,202.17 115.46,202.17 115.79,203.15 115.79,204.23 114.92,205.48 
	111.51,210.69 111.18,211.56 111.18,212.59 111.51,213.51 112.7,213.51 113.73,213.51 114.71,213.51 115.79,213.51 "/>
<polyline class="st7" points="115.79,223.12 114.82,224.04 114.16,224.86 113.49,225.56 112.92,226.49 112.92,227.35 112.92,228.17 
	113.49,229.2 114.35,229.96 115.2,230.61 115.79,230.94 "/>
<polyline class="st7" points="110.26,227.41 111.18,227.41 112.1,227.41 112.92,227.35 "/>
<circle class="st8" cx="548.99" cy="455.22" r="60.19"/>
<circle class="st9" cx="565.14" cy="464.53" r="69.5"/>
<circle class="st9" cx="586.5" cy="485.04" r="76.05"/>
<circle class="st9" cx="535.27" cy="480.21" r="76.05"/>
<circle class="st10" cx="576.79" cy="476.18" r="81.15"/>
<path class="st9" d="M124.27,774.95V547.72c0-20.58,0-85.97,0-116.4c0-4.1,0-9.47,0-14.59c0-1.54,0-3.06,0-4.51
	c0-4.69,0-8.73,0-10.72c0-1.64,0-3.28,0-4.91c0-55.72,0-111.44,0-167.16v-99.78v-1.89v-1.65v-1.33l0.65-1.22l0.85-0.95l0.79-0.91
	l0.85-0.86l1.38-0.82l1.11-0.73l1.05-0.59l1.19-0.61l1.15-0.61h3.18h52.46h27.28h42.31h41.9h33.99h40.13H405h31.41h23.96h35.27
	h33.17h40.41h28.09h27.96h32.22h33.91h42.92h130.97h141.8h120.53h22.69h6.76h4.86h2.56l2.16,0.21l1.71,0.5l1.97,0.95l0.98,0.73
	l1.44,0.82l0.46,0.41l1.77,1.18l1.05,0.95l1.51,1.18l0.85,0.86v1.91v25.23v54.53v49.04v67.6v119.1v87.86v76.69v73.66v68.54v25.52
	v1.15l-0.39,1.17l-0.89,1.05l-0.89,0.8l-0.98,0.74l-0.98,1.11l-1.24,0.8l-1.07,0.61l-1.69,0.55l-1.78,0.68l-2.67,0.55h-106.02
	H949.84H822.52H716.37H602.62H466.61H170.85h-34.19l-3.03-0.79l-1.24-0.22l-1.79-0.75l-2.25-1.08l-1.87-1.24l-1.4-1.18l-0.81-0.75
	v-1.61L124.27,774.95L124.27,774.95z"/>
<circle class="st11" cx="550.29" cy="422.48" r="5.49"/>
<path class="st12" d="M126.24,519.39c9.58-3.81,20.06-8.62,31.05-14.74c17-9.47,30.94-19.68,42-29c11.67-9.33,23.33-18.67,35-28
	c13.14-7.34,28.88-17.65,45-32c12.88-11.46,23.07-22.89,31-33c9-7.33,18-14.67,27-22c8.35-7.15,16.71-14.3,25.06-21.45
	c11.98-12.52,23.96-25.03,35.94-37.55c11-17,22-34,33-51c11.19-16.16,22.39-32.32,33.58-48.48l15.53-33.05l13.2-37.15l2.03-14.48
	H133.29l-8.37,8.78L126.24,519.39z"/>
<path class="st12" d="M871.73,117.49c-0.26-0.25-0.63-0.52-0.9-0.42c-1.99,0.76,6.83,19.32,9.46,42.58c1.96,17.35-1.03,23.98,4,40
	c1.9,6.05,4.12,10.8,5.69,13.86c0,0,4.18,8.06,19.21,37c7.92,15.26,5.84,10.63,5.94,10.58c0.23-0.11,7.68,13.98,14.38,28.57
	c11.71,25.48,10.69,29.69,18.77,43.99c4.07,7.2,10.08,16.3,19,26c5,5.33,10,10.67,15,16c8,6.33,16,12.67,24,19
	c7,7.33,14,14.67,21,22c9,9.33,18,18.67,27,28c4.03,7.14,8.07,14.29,12.1,21.43l16.73,18.25l21.29,18.25l19.77,7.6l21.29,10.73
	l32.91,10.56V131.5l-11.74-13.71L871.73,117.49z"/>
<polygon class="st13" points="634.64,550.02 634.64,580.72 634.64,612 634.64,637.81 634.64,641.21 635.32,642.04 636.49,642.45 
	637.85,642.94 639.51,643.55 641.84,644.64 643.57,645.2 645.8,645.54 647.79,646.26 649.6,647.01 651.86,647.54 653.97,647.99 
	655.97,648.22 657.25,648.22 657.94,647.43 657.94,646.15 657.94,640.32 657.94,631.49 657.94,625.81 657.94,619.98 657.94,613.32 
	657.94,603.98 657.94,594.8 657.94,586.61 657.94,577.08 657.94,571.11 658.4,569.65 659.11,568.58 660.09,567.82 660.9,567.46 
	661.65,567.46 662.59,567.37 663.22,567.46 663.88,567.64 664.64,568.22 665.05,568.89 665.54,569.91 666.03,571.11 666.03,572.19 
	666.03,578.17 666.03,586.51 666.03,593.83 666.03,601.37 666.03,603.87 666.92,604.85 668.17,605.57 669.33,606.01 670.53,606.36 
	671.84,606.81 673.04,607.06 675.09,607.72 676.65,608.02 677.9,608.02 678.7,608.02 680.11,608.02 681.16,608.07 682.77,607.97 
	683.97,607.51 685.07,606.56 686.42,605.51 687.48,604.41 688.43,603.6 689.38,602.75 690.24,601.26 690.9,599.85 691.74,598.34 
	692.17,596.69 692.59,594.81 693.06,593.4 693.06,591.65 693.06,590.47 693.06,588.87 693.06,586.71 693.06,584.87 693.06,583.27 
	693.06,581.62 692.69,579.92 692.17,578.84 691.55,577.66 690.94,576.2 690.05,574.84 689.15,573.33 688.4,572.29 687.65,571.11 
	686.28,569.28 684.87,567.68 683.26,566.31 680.58,564.47 678.13,563.39 675.87,561.69 673.37,560.94 667.77,558.68 664.28,557.64 
	660.14,556.46 654.86,554.77 650.43,553.12 646.66,551.75 643.55,550.95 641.67,550.86 640.02,550.72 638.04,550.62 637.15,550.58 
	"/>
<path class="st14" d="M634.64,634.69"/>
<path class="st14" d="M633.1,603.87"/>
<polygon class="st13" points="634.64,634.69 633.1,635.21 631.68,636.21 630.97,636.59 629.16,636.81 627.41,636.81 625.71,636.81 
	623.24,636.81 620.66,636.81 616.71,636.81 612.6,636.81 609.42,636.54 606.52,636.43 604.87,635.99 602.79,635.75 600.6,635.75 
	598.57,635.17 596.59,634.69 594.73,634.07 593.03,633.58 591.22,632.87 589.69,632.15 588.1,631.28 586.62,630.45 585.35,629.36 
	584.53,628.64 584.09,627.88 584.09,626.84 583.71,625.79 583.71,624.48 584.42,623.55 585.41,622.67 586.94,621.46 588.48,620.64 
	591,619.32 593.52,618.23 596.65,617.13 600.6,615.76 603.39,614.88 606.9,613.68 610.14,612.53 613.92,611.32 618.36,609.89 
	622.47,608.58 625.6,607.81 629.11,606.6 631.41,606 633.1,605.56 634.64,605.34 634.64,607.43 634.64,610.55 634.64,613.73 
	634.64,616.09 634.64,617.02 633.77,617.51 633.1,617.84 631.96,618.17 630.81,618.72 629.27,619.43 627.35,620.09 624.88,620.69 
	622.86,621.46 619.68,622.39 617.76,622.89 615.78,623.33 614.25,624.04 612.6,624.48 610.79,625.08 609.42,625.46 608.16,626.01 
	607.34,626.62 606.79,627.38 606.85,628.1 607.18,628.92 608.16,629.58 609.18,630.23 610.68,630.34 612.55,630.34 614.19,630.02 
	616,629.63 619.18,628.59 621.48,628.21 624.23,627.22 626.86,626.45 629.27,625.41 631.46,624.48 632.61,624.31 634.64,623.82 
	634.64,625.41 634.64,627.77 634.64,631.06 "/>
<polygon class="st13" points="662.92,614.91 667.27,613.17 671.51,612.41 675.43,611.43 678.59,610.78 681.63,610.78 685,610.23 
	687.29,610.23 690.38,610.23 693.06,610.23 695.87,610.67 697.95,610.8 700.85,611.05 703.94,611.3 707.48,612 709.68,612.44 
	712.02,613.6 714.04,614.65 715.93,615.78 718.33,616.54 720.22,617.67 721.48,619.19 722.43,620.2 722.87,621.9 722.87,623.1 
	722.3,624.49 721.35,626 720.22,627.07 718.83,628.34 717.38,629.28 715.36,630.35 713.78,631.24 711.32,632.37 709.12,633.13 
	706.66,633.95 704.38,634.52 702.3,635.09 699.84,635.53 697.07,636.16 694.1,637.29 690.82,638.55 687.48,639.63 684.07,640.7 
	680.98,641.77 676.88,642.97 672.78,644.36 669.18,645.56 665.27,646.44 662.75,646.44 660.42,646.82 657.94,646.82 657.94,641.52 
	657.94,638.05 659.53,637.17 661.87,636.41 664.71,635.46 668.55,634.39 673.03,633 675.87,632.06 679.53,630.48 684.01,628.52 
	688.05,626.44 691.71,625.56 694.1,624.74 696.88,623.98 698.39,623.35 700.09,622.6 701.17,621.9 701.23,621.08 700.91,620.2 
	699.78,619.63 698.71,619.38 696.31,619 694.42,618.94 693.06,619.13 690.4,619.76 688.3,620.13 685.4,621.08 682.81,621.33 
	680.1,622.28 677.64,623.42 675.43,624.11 672.78,624.87 670.82,625.75 667.73,627.07 665.27,628.15 663.32,628.52 661.8,628.9 
	657.94,629.72 657.94,626.44 657.94,622.53 657.94,619.06 657.94,617.42 657.94,616.1 659.28,615.66 661.11,615.28 "/>
<ellipse class="st15" cx="490.06" cy="416.99" rx="93.64" ry="143.17"/>
<ellipse class="st15" cx="788.15" cy="410.22" rx="93.64" ry="143.17"/>
<polygon class="st16" points="292.45,404.17 384.29,404.17 384.29,433.65 259.93,433.65 "/>
<rect x="591.64" y="404.17" class="st16" width="94.51" height="29.48"/>
<polygon class="st16" points="889.83,404.17 1012.92,404.17 1042.05,433.65 889.83,433.65 "/>
<path class="st17" d="M443.83,246.71l12.63-11.14l17.09-13.46l10.4-3.91l18.91-3.44h23.44h14.02c6.52-1.53,13.05-3.06,19.57-4.6
	c4.5-3,9-6,13.5-9c3-1.5,6-3,9-4.5c0,4.5,0,9,0,13.5c0,3,0,6,0,9s0,6,0,9c0,1.5,0,3,0,4.5c-1.5,1.5-3,3-4.5,4.5c-3,1.5-6,3-9,4.5
	c-4.5,1.5-9,3-13.5,4.5c-6.48,2.66-12.96,5.31-19.43,7.97h-11.89H510.7h-20.8h-15.6h-14.86h-5.2h-5.2L443.83,246.71z"/>
<polygon class="st18" points="560.76,271.59 570.45,265.32 579,262.47 585.84,259.62 593.26,259.62 598.39,259.62 604.66,259.62 
	613.21,261.9 619.48,263.04 630.03,263.04 637.15,262.47 648.55,261.9 658.24,256.2 666.8,253.35 678.2,250.5 686.18,250.5 
	692.45,250.5 700.43,253.92 708.41,257.91 713.54,261.04 716.39,264.75 700.43,261.04 691.88,258.48 685.04,257.91 672.5,261.04 
	665.66,265.32 657.1,267.76 646.27,271.59 633.73,271.59 619.48,271.59 610.93,267.76 600.1,267.76 594.4,267.76 586.99,267.76 
	579.57,271.59 572.73,271.59 "/>
<polygon class="st18" points="560.76,299.56 570.45,293.29 579,290.44 585.84,287.59 593.26,287.59 598.39,287.59 604.66,287.59 
	613.21,289.87 619.48,291.01 630.03,291.01 637.15,290.44 648.55,289.87 658.24,284.17 666.8,281.32 678.2,278.47 686.18,278.47 
	692.45,278.47 700.43,281.89 708.41,285.88 713.54,289.01 716.39,292.72 700.43,289.01 691.88,286.45 685.04,285.88 672.5,289.01 
	665.66,293.29 657.1,295.73 646.27,299.56 633.73,299.56 619.48,299.56 610.93,295.73 600.1,295.73 594.4,295.73 586.99,295.73 
	579.57,299.56 572.73,299.56 "/>
<ellipse class="st19" cx="488.8" cy="410.22" rx="75.24" ry="110.69"/>
<ellipse class="st19" cx="788.15" cy="410.22" rx="75.24" ry="110.69"/>
<path class="st20" d="M395.64,545.42c4.13,15.24,14.26,16.2,18,31.5c2.62,10.74,1.83,27.46-9,36c-10.02,7.9-27.94,8.26-36,0
	c-21.48-22.02,28.92-103.57,31.47-102.53C401.24,510.85,390.55,526.66,395.64,545.42z"/>
<path class="st20" d="M336.14,624.42c6.03,15.48,17.02,16.1,18,27c1.02,11.27-9.34,26.07-22.5,27c-10.14,0.71-18.55-7.04-22.5-13.5
	c-9.22-15.08-0.65-33.77,4.5-45c4.93-10.75,13.7-23.96,18-22.5C335.48,598.73,330.51,609.97,336.14,624.42z"/>
<ellipse class="st21" cx="502.51" cy="409.3" rx="37.12" ry="57.38"/>
<ellipse class="st21" cx="804.79" cy="412.07" rx="37.12" ry="57.38"/>
<path class="st22" d="M692.64,509.42"/>
<ellipse class="st22" cx="824.76" cy="379.3" rx="18.63" ry="20.63"/>
<ellipse class="st22" cx="523.1" cy="373.19" rx="18.63" ry="20.63"/>
<path class="st22" d="M483.39,463.81c-0.19-2.92-1.09-10.43-6.75-17.39c-8.11-9.97-19.72-11.08-21.89-11.25
	c2.16-0.17,13.78-1.28,21.89-11.25c5.66-6.95,6.56-14.47,6.75-17.39c0.19,2.92,1.09,10.43,6.75,17.39
	c8.11,9.97,19.72,11.08,21.89,11.25c-2.92,0.19-10.43,1.09-17.39,6.75C484.67,450.03,483.56,461.65,483.39,463.81z"/>
<path class="st22" d="M786.94,470.03c-0.19-2.92-1.09-10.43-6.75-17.39c-8.11-9.97-19.72-11.08-21.89-11.25
	c2.16-0.17,13.78-1.28,21.89-11.25c5.66-6.95,6.56-14.47,6.75-17.39c0.19,2.92,1.09,10.43,6.75,17.39
	c8.11,9.97,19.72,11.08,21.89,11.25c-2.92,0.19-10.43,1.09-17.39,6.75C788.22,456.25,787.1,467.86,786.94,470.03z"/>
<path class="st23" d="M548.64,504.92c-11.66,24.86-34.53,40.79-58.5,40.5c-17.74-0.22-30.68-9.26-36-13.5
	c-10.93-8.72-17.1-18.02-22.5-27c-7.4-12.29-11.33-23.6-13.5-31.5c15.4,15.49,27.64,18.31,36,18c14.86-0.55,17.68-11.03,36-13.5
	c16.63-2.25,21.62,5.4,40.5,4.5c13.66-0.65,24.56-5.29,31.5-9C558.37,482.46,554.5,491.53,548.64,504.92z"/>
<path class="st17" d="M843.98,242.4l-12.63-11.14l-17.09-13.46l-10.4-3.91l-18.91-3.44h-23.44h-14.02
	c-6.52-1.53-13.05-3.06-19.57-4.6c-4.5-3-9-6-13.5-9c-3-1.5-6-3-9-4.5c0,4.5,0,9,0,13.5c0,3,0,6,0,9s0,6,0,9c0,1.5,0,3,0,4.5
	c1.5,1.5,3,3,4.5,4.5c3,1.5,6,3,9,4.5c4.5,1.5,9,3,13.5,4.5c6.48,2.66,12.96,5.31,19.43,7.97h11.89h13.37h20.8h15.6h14.86h5.2h5.2
	L843.98,242.4z"/>
<path class="st20" d="M292.38,719.92c6.03,15.48,17.02,16.1,18,27c1.02,11.27-9.34,26.07-22.5,27c-10.14,0.71-18.55-7.04-22.5-13.5
	c-9.22-15.08-0.65-33.77,4.5-45c4.93-10.75,13.7-23.96,18-22.5C291.72,694.23,286.75,705.47,292.38,719.92z"/>
<path class="st20" d="M880.36,544.64c-4.13,15.24-14.26,16.2-18,31.5c-2.62,10.74-1.83,27.46,9,36c10.02,7.9,27.95,8.26,36,0
	c21.48-22.02-28.92-103.57-31.47-102.53C874.76,510.06,885.45,525.87,880.36,544.64z"/>
<path class="st20" d="M949.42,624.68c-6.03,15.48-17.02,16.1-18,27c-1.02,11.27,9.34,26.07,22.5,27c10.14,0.71,18.55-7.04,22.5-13.5
	c9.22-15.08,0.65-33.77-4.5-45c-4.93-10.75-13.7-23.96-18-22.5C950.08,598.99,955.05,610.23,949.42,624.68z"/>
<path class="st20" d="M998.72,719.68c-6.03,15.48-17.02,16.1-18,27c-1.02,11.27,9.34,26.07,22.5,27c10.14,0.71,18.55-7.04,22.5-13.5
	c9.22-15.08,0.65-33.77-4.5-45c-4.93-10.75-13.7-23.96-18-22.5C999.38,693.99,1004.36,705.23,998.72,719.68z"/>
<path class="st23" d="M848.94,494.61c-11.66,24.86-34.53,40.79-58.5,40.5c-17.74-0.22-30.68-9.26-36-13.5
	c-10.93-8.72-17.1-18.02-22.5-27c-7.4-12.29-11.33-23.6-13.5-31.5c15.4,15.49,27.64,18.31,36,18c14.86-0.55,17.68-11.03,36-13.5
	c16.63-2.25,21.62,5.4,40.5,4.5c13.66-0.65,24.56-5.29,31.5-9C858.66,472.14,854.79,481.21,848.94,494.61z"/>
</svg>
