<?xml version="1.0" encoding="utf-8"?>
<!-- Generator: Adobe Illustrator 25.1.0, SVG Export Plug-In . SVG Version: 6.00 Build 0)  -->
<svg version="1.1" id="Layer_1" xmlns="http://www.w3.org/2000/svg" xmlns:xlink="http://www.w3.org/1999/xlink" x="0px" y="0px"
	 viewBox="0 0 975.98 834" style="enable-background:new 0 0 975.98 834;" xml:space="preserve">
<style type="text/css">
	.st0{fill:#1A1A1A;}
	.st1{fill:#FFFFFF;stroke:#FFFFFF;stroke-width:3;stroke-miterlimit:10;}
	.st2{fill:#26272A;stroke:#000000;stroke-miterlimit:10;}
	.st3{fill:#3E3F44;stroke:#000000;stroke-miterlimit:10;}
	.st4{fill:#52545A;stroke:#000000;stroke-miterlimit:10;}
	.st5{fill:none;stroke:#000000;stroke-miterlimit:10;}
	.st6{fill:#282A2E;stroke:#000000;stroke-miterlimit:10;}
	.st7{fill:#2B2C31;stroke:#000817;stroke-miterlimit:10;}
	.st8{fill:none;stroke:#000000;stroke-width:0.25;stroke-miterlimit:10;}
	.st9{fill:none;stroke:#000817;stroke-miterlimit:10;}
	.st10{fill:#00B98F;stroke:#000817;stroke-miterlimit:10;}
	.st11{fill:#56585D;stroke:#000817;stroke-miterlimit:10;}
	.st12{fill:#FFFFFF;stroke:#000000;stroke-miterlimit:10;}
	.st13{fill:#FFFFFF;stroke:#000817;stroke-miterlimit:10;}
	.st14{fill:#948F8F;stroke:#000817;stroke-miterlimit:10;}
	.st15{fill:#1F2023;stroke:#000817;stroke-miterlimit:10;}
	.st16{opacity:0.73;fill:#ADB2AE;stroke:#4D4545;stroke-width:7;stroke-miterlimit:10;enable-background:new    ;}
	.st17{fill:#4D4545;stroke:#4D4545;stroke-width:3;stroke-miterlimit:10;}
	.st18{fill:#B2B1AA;stroke:#000000;stroke-miterlimit:10;}
	.st19{stroke:#000000;stroke-miterlimit:10;}
	.st20{stroke:#000000;stroke-width:0.75;stroke-miterlimit:10;}
	.st21{fill:#B2B1AA;stroke:#000000;stroke-width:0.75;stroke-miterlimit:10;}
	.st22{fill:#FFFFFF;stroke:#ECBCB4;stroke-miterlimit:10;}
	.st23{stroke:#A27100;stroke-width:10;stroke-miterlimit:10;}
	.st24{fill:#FFFFFF;}
</style>
<path class="st0" d="M-198.07,0c-0.14,278-0.28,556-0.42,834c438.89,0,877.79,0,1316.68,0c0.11-277.87,0.21-555.75,0.32-833.62
	L-198.07,0z"/>
<path class="st1" d="M745.63,688.06H171.19c-17.12,0-31-13.88-31-31V439.2c0-17.12,13.88-31,31-31h574.44c17.12,0,31,13.88,31,31
	v217.85C776.63,674.18,762.76,688.06,745.63,688.06z"/>
<path class="st1" d="M745.63,688.06H171.19c-17.12,0-31-13.88-31-31V439.2c0-17.12,13.88-31,31-31h574.44c17.12,0,31,13.88,31,31
	v217.85C776.63,674.18,762.76,688.06,745.63,688.06z"/>
<polyline class="st2" points="116.82,742.43 114.46,742.43 110.99,741.86 107.77,740.97 105.69,739.9 103.48,738.51 101.65,736.87 
	100.58,735.23 99.44,733.59 99.44,727.4 99.44,709.16 99.44,617.14 99.44,498.07 99.44,399.86 99.44,283.12 99.44,136.37 
	99.44,134.12 99.44,131.92 99.44,130.85 100.24,129.24 101.47,127.74 102.87,125.92 104.32,124.79 106.19,123.67 107.64,123.19 
	109.3,122.54 111.5,122.01 113.11,121.63 114.71,121.63 115.84,121.42 116.82,121.42 117.66,121.42 118.12,121.42 116.77,121.97 
	115,123.34 114.11,124.94 113.49,127.19 113.49,129.04 113.49,132.99 113.49,174.19 113.49,226.19 113.49,308.92 113.49,348.23 
	113.49,452.75 113.49,557.62 113.49,647.73 113.49,738.73 114.72,740.58 116.82,742.43 "/>
<polyline class="st3" points="124.37,743.23 122.38,744.04 119.79,743.63 116.82,742.43 114.72,740.58 113.49,738.73 113.49,733.66 
	113.49,578.95 113.49,421.07 113.49,266.18 113.49,137.1 113.49,131.94 113.49,129.04 113.49,127.19 114.11,124.94 115,123.34 
	116.77,121.97 118.93,121.09 120.95,120.52 122.87,120.52 125.43,120.81 124.32,121.97 123.21,123.51 122.23,124.74 121.98,125.79 
	121.66,127.08 121.66,128.96 121.66,130.5 121.66,133.46 121.66,171.1 121.66,202.94 121.66,290.77 121.66,420.34 121.66,592.22 
	121.66,603.18 121.66,605.61 121.97,606.79 122.41,607.39 122.95,608.27 123.63,608.98 124,610.19 124.01,615.64 124.02,706.93 
	124.02,710.42 123.8,711.71 122.87,712.57 122.23,713.57 121.66,715.56 121.66,717.06 121.66,720.02 121.66,734.63 121.66,738.02 
	121.95,739.31 122.52,740.38 123.02,741.3 123.59,742.3 124.37,743.23 "/>
<polyline class="st4" points="147.88,748.63 145.71,749.05 144.14,748.84 142.34,748.63 140.61,748.09 138.88,747.38 137.5,746.66 
	136.01,745.22 135.11,744.15 134.63,742.65 134.33,740.74 134.33,724.9 134.33,670.9 134.33,626.04 134.33,499.87 134.33,309.69 
	134.33,153.95 134.33,125.96 134.33,123.95 134.79,122.54 135.15,121.02 135.95,119.62 137.04,118.03 137.88,117.23 138.74,116.73 
	139.7,116.49 140.79,115.98 141.72,115.87 142.62,115.87 143.91,115.71 145.18,115.71 145.71,115.71 146.33,115.71 147.46,115.86 
	146.16,116.88 145.17,117.94 144.39,119.03 143.69,120.47 143.4,121.79 143.22,123.51 143.18,125.41 143.18,127.19 143.18,160.44 
	143.18,260.33 143.18,380.6 143.18,487.98 143.18,620.54 143.18,732.75 143.18,742.3 143.18,743.71 143.47,744.67 144.36,745.8 
	145.05,746.47 147.88,748.63 "/>
<path class="st5" d="M143.91,119.86"/>
<path class="st5" d="M144.61,118.66"/>
<path class="st5" d="M142.39,113.99"/>
<polygon class="st6" points="138.05,746.88 136.78,746.88 134.64,746.51 132.22,745.8 130.31,745.35 128.25,744.64 126.87,744.16 
	125.37,743.73 124.37,743.23 123.59,742.3 123.02,741.3 122.52,740.38 121.95,739.31 121.66,738.02 121.66,717.06 121.66,715.56 
	122.23,713.57 122.87,712.57 123.8,711.71 124.02,710.42 124.02,706.93 124,700.81 124.03,698.42 123.96,687.63 124.03,675.39 
	124.03,658.6 124.03,643.8 124.03,624.38 124,610.19 123.63,608.98 122.95,608.27 122.41,607.39 121.97,606.79 121.66,605.61 
	121.66,603.18 121.66,595.36 121.66,586.12 121.66,523.2 121.66,398.91 121.66,290.77 121.66,220.32 121.66,148.51 121.66,130.5 
	121.66,127.08 121.98,125.79 122.23,124.74 123.21,123.51 124.32,121.97 125.43,120.81 126.78,119.72 128.44,118.84 129.98,118.52 
	132.13,117.85 134.33,117.5 136.09,117.34 137.02,117.34 137.6,117.5 136.76,118.44 136.29,119.12 135.64,120.16 135.33,120.71 
	135.02,121.55 134.86,122.22 134.66,122.94 134.47,123.51 134.33,124.48 134.33,125.17 134.33,126.7 134.33,165.92 134.33,232.08 
	134.33,322.43 134.33,455.24 134.33,608.54 134.33,691.46 134.33,738.39 134.43,741.39 134.78,743.13 135.48,744.59 136.37,745.57 
	"/>
<polyline class="st7" points="160.64,751.01 159.41,751.66 156.23,751.66 153.04,751.01 150.41,749.84 147.88,748.63 145.46,746.86 
	143.84,745.29 143.18,744.18 143.18,739.68 143.18,735.48 143.18,609.56 143.18,401.93 143.18,123.91 143.46,121.13 143.91,119.86 
	144.61,118.66 145.75,117.2 147.46,115.86 149.43,114.97 151.91,114.21 154.2,113.45 156.74,112.81 158.96,112.24 160.64,111.92 
	161.7,112.04 157.68,116.72 157.25,155.14 157.25,316.34 157.25,421.78 157.25,667.95 157.78,748.2 160.64,751.01 "/>
<polyline class="st8" points="151.1,148.22 151.1,146.32 151.1,144.87 151.1,143.78 151.1,143.08 150.97,142.55 150.68,142.15 
	150.38,141.93 150.06,141.93 149.93,142.28 149.93,142.73 149.93,143.43 149.93,144.29 149.93,145.08 149.93,146.02 149.93,146.96 
	149.93,147.66 149.93,148.08 149.79,148.46 149.45,148.65 149.1,148.46 148.88,148 148.88,147.52 148.88,146.35 148.88,144.95 
	148.88,143.91 148.88,143.03 148.88,141.93 "/>
<polygon class="st8" points="151.37,160.07 151.37,158.36 151.37,157.04 151.37,156.05 151.37,155.63 151.23,154.97 151.1,154.64 
	150.79,154.31 150.43,153.95 149.99,153.95 149.53,153.95 148.88,153.95 148.64,154.5 148.42,155.11 148.31,155.85 148.31,156.38 
	148.31,157.65 148.31,159.44 148.31,159.93 148.31,160.71 148.56,161.84 148.88,162.44 149.71,162.58 150.51,162.25 151.1,161.89 
	151.37,161.31 "/>
<polyline class="st8" points="148.74,167.32 149.84,167.32 150.65,167.32 151.37,167.32 151.59,167.97 151.59,168.7 151.02,169.53 
	148.74,173 148.52,173.58 148.52,174.27 148.74,174.88 149.53,174.88 150.22,174.88 150.87,174.88 151.59,174.88 "/>
<polyline class="st8" points="151.59,181.29 150.94,181.9 150.51,182.45 150.06,182.92 149.68,183.53 149.68,184.11 149.68,184.65 
	150.06,185.34 150.64,185.85 151.2,186.28 151.59,186.5 "/>
<polyline class="st8" points="147.9,184.15 148.52,184.15 149.13,184.15 149.68,184.11 "/>
<polyline class="st9" points="152.44,670.61 152.44,673.92 152.44,678.7 152.44,684.96 152.2,685.89 151.65,686.35 150.98,686.35 
	150.49,686.35 150.24,685.86 150.24,684.26 150.24,682.61 150.24,672.44 150.12,671.64 149.78,671.09 149.42,670.61 148.99,670.36 
	148.5,670.11 147.92,669.93 147.4,669.93 "/>
<polyline class="st9" points="152.27,708.69 152.27,705.25 152.27,702.88 152.27,700.31 152.1,699.45 151.64,698.99 151.1,698.77 
	150.38,698.77 149.46,698.77 148.49,698.77 147.95,698.48 147.68,697.83 147.68,696.69 147.68,695.02 147.68,693.99 147.68,691.46 
	"/>
<polyline class="st9" points="145.71,725.33 151.64,725.33 152.07,725.33 152.07,723.84 148.89,712.37 148.69,711.61 148.43,710.96 
	148.1,710.56 147.51,710.56 147.44,711.35 147.47,711.94 147.44,712.96 147.68,728.7 "/>
<circle class="st10" cx="440.39" cy="336.02" r="40.13"/>
<circle class="st11" cx="451.16" cy="342.23" r="46.33"/>
<circle class="st11" cx="465.4" cy="355.9" r="50.7"/>
<circle class="st11" cx="431.24" cy="352.68" r="50.7"/>
<circle class="st12" cx="458.92" cy="349.99" r="54.1"/>
<path class="st11" d="M157.25,744.4V525.44c0-19.84,0-82.84,0-112.16c0-3.95,0-9.12,0-14.06c0-1.48,0-2.94,0-4.34
	c0-4.52,0-8.41,0-10.33c0-1.58,0-3.16,0-4.73c0-53.69,0-107.38,0-161.07V122.6v-1.82v-1.59v-1.28l0.43-1.18l0.57-0.92l0.52-0.87
	l0.57-0.83l0.92-0.79l0.74-0.7l0.7-0.57l0.79-0.59l0.77-0.59h2.12h34.97h18.19h28.2h27.93h22.66h26.76h20.31h20.94h15.97h23.51
	h22.11h26.94h18.73h18.64h21.48h22.61h28.61h87.31h94.53h80.35h15.13h4.51h3.24h1.71l1.44,0.2l1.14,0.48l1.31,0.92l0.66,0.7
	l0.96,0.79l0.31,0.39l1.18,1.14l0.7,0.92l1.01,1.14l0.57,0.83v1.84v24.31v52.55v47.26v65.14v114.77v84.66v73.9v70.98v66.05v24.59
	v1.1l-0.26,1.13l-0.59,1.01l-0.59,0.77l-0.65,0.71l-0.65,1.07l-0.83,0.77l-0.71,0.59l-1.13,0.53l-1.18,0.65l-1.78,0.53h-70.7h-73.3
	h-84.88h-70.77h-75.83h-90.67H188.3h-22.79l-2.02-0.76l-0.83-0.21l-1.19-0.73l-1.5-1.04l-1.24-1.19l-0.93-1.14l-0.54-0.73v-1.55
	v-1.54H157.25z"/>
<circle class="st13" cx="441.26" cy="314.19" r="3.66"/>
<polygon class="st14" points="158.56,378.8 206.2,351.88 243.99,324.99 269.37,301.99 290.59,283.53 315.97,258.68 344.96,228.64 
	362.05,199.65 384.31,167.32 394.67,145.29 403.47,120.52 404.82,110.87 163.26,110.87 157.68,116.72 "/>
<path class="st14" d="M655.55,110.87c0,0-5.58-6.58,7.1,43.08c12.67,49.66,5.07,20.93,5.07,20.93s2.79,5.37,12.81,24.67
	s-3.97-9.11,13.55,26.1s21.29,39.54,21.29,39.54l14.19,16.22l13.18,14.19l16.22,14.92l13.18,14.46l13.18,18.27l11.15,12.17
	l14.19,12.17l13.18,5.07l14.19,7.15l21.94,7.04V120.21l-7.83-9.14L655.55,110.87z"/>
<polygon class="st15" points="497.49,399.22 497.49,419.69 497.49,440.54 497.49,457.75 497.49,460.01 497.95,460.57 498.73,460.84 
	499.63,461.17 500.74,461.57 502.29,462.3 503.45,462.68 504.93,462.9 506.26,463.38 507.47,463.88 508.97,464.23 510.38,464.53 
	511.71,464.69 512.57,464.69 513.02,464.16 513.02,463.31 513.02,459.42 513.02,453.53 513.02,449.75 513.02,445.86 513.02,441.42 
	513.02,435.2 513.02,429.08 513.02,423.61 513.02,417.26 513.02,413.28 513.33,412.31 513.81,411.59 514.46,411.09 515,410.85 
	515.5,410.85 516.13,410.79 516.54,410.85 516.99,410.97 517.49,411.35 517.76,411.8 518.09,412.48 518.42,413.28 518.42,414 
	518.42,417.99 518.42,423.55 518.42,428.43 518.42,433.46 518.42,435.12 519.01,435.78 519.84,436.25 520.62,436.55 521.42,436.78 
	522.29,437.08 523.09,437.25 524.46,437.68 525.5,437.88 526.33,437.88 526.87,437.88 527.8,437.88 528.51,437.92 529.58,437.85 
	530.38,437.55 531.11,436.92 532.02,436.21 532.72,435.48 533.35,434.94 533.99,434.38 534.56,433.38 535,432.44 535.56,431.43 
	535.84,430.34 536.13,429.08 536.44,428.14 536.44,426.98 536.44,426.19 536.44,425.12 536.44,423.68 536.44,422.45 536.44,421.39 
	536.44,420.29 536.19,419.16 535.84,418.43 535.44,417.65 535.03,416.68 534.43,415.76 533.83,414.76 533.33,414.07 532.83,413.28 
	531.92,412.06 530.98,410.99 529.91,410.08 528.12,408.86 526.49,408.13 524.98,407 523.31,406.5 519.58,404.99 517.25,404.3 
	514.49,403.52 510.97,402.39 508.02,401.29 505.51,400.38 503.43,399.84 502.18,399.78 501.08,399.69 499.76,399.62 499.16,399.59 
	"/>
<path class="st9" d="M497.49,455.67"/>
<path class="st9" d="M496.47,435.12"/>
<polygon class="st15" points="497.49,455.67 496.47,456.01 495.52,456.68 495.05,456.94 493.84,457.08 492.67,457.08 491.54,457.08 
	489.89,457.08 488.17,457.08 485.54,457.08 482.8,457.08 480.68,456.9 478.74,456.83 477.65,456.53 476.26,456.38 474.8,456.38 
	473.44,455.99 472.13,455.67 470.88,455.26 469.75,454.93 468.55,454.45 467.52,453.98 466.46,453.39 465.48,452.84 464.63,452.11 
	464.09,451.64 463.79,451.13 463.79,450.43 463.54,449.74 463.54,448.86 464.01,448.24 464.67,447.65 465.69,446.85 466.72,446.3 
	468.4,445.42 470.08,444.69 472.16,443.96 474.8,443.05 476.66,442.46 479,441.66 481.16,440.89 483.68,440.09 486.64,439.14 
	489.38,438.26 491.46,437.75 493.8,436.94 495.34,436.54 496.47,436.25 497.49,436.1 497.49,437.49 497.49,439.58 497.49,441.7 
	497.49,443.27 497.49,443.89 496.91,444.22 496.47,444.44 495.7,444.66 494.94,445.02 493.91,445.5 492.63,445.94 490.99,446.34 
	489.64,446.85 487.52,447.47 486.24,447.8 484.92,448.09 483.9,448.57 482.8,448.86 481.59,449.26 480.68,449.52 479.84,449.88 
	479.29,450.28 478.93,450.8 478.96,451.27 479.18,451.82 479.84,452.26 480.52,452.7 481.52,452.77 482.76,452.77 483.86,452.55 
	485.07,452.3 487.19,451.6 488.72,451.34 490.55,450.69 492.3,450.18 493.91,449.48 495.37,448.86 496.14,448.75 497.49,448.42 
	497.49,449.48 497.49,451.05 497.49,453.25 "/>
<polygon class="st15" points="516.34,442.48 519.25,441.32 522.07,440.81 524.69,440.16 526.79,439.72 528.82,439.72 531.07,439.36 
	532.59,439.36 534.65,439.36 536.44,439.36 538.31,439.66 539.7,439.74 541.63,439.91 543.69,440.08 546.05,440.54 547.52,440.83 
	549.08,441.61 550.42,442.31 551.68,443.06 553.28,443.57 554.54,444.32 555.39,445.33 556.02,446.01 556.31,447.14 556.31,447.94 
	555.93,448.87 555.3,449.88 554.54,450.59 553.62,451.43 552.65,452.06 551.31,452.78 550.25,453.37 548.61,454.12 547.14,454.63 
	545.5,455.17 543.99,455.55 542.6,455.93 540.96,456.23 539.11,456.65 537.13,457.4 534.95,458.24 532.72,458.96 530.45,459.67 
	528.39,460.39 525.65,461.19 522.92,462.11 520.52,462.91 517.91,463.5 516.23,463.5 514.68,463.75 513.02,463.75 513.02,460.22 
	513.02,457.91 514.09,457.32 515.64,456.81 517.54,456.18 520.1,455.47 523.09,454.54 524.98,453.91 527.42,452.86 530.4,451.56 
	533.1,450.17 535.54,449.58 537.13,449.03 538.98,448.53 539.99,448.11 541.13,447.6 541.84,447.14 541.89,446.59 541.68,446.01 
	540.92,445.63 540.2,445.46 538.61,445.21 537.34,445.16 536.44,445.29 534.67,445.71 533.26,445.96 531.33,446.59 529.61,446.76 
	527.8,447.39 526.16,448.15 524.69,448.61 522.92,449.12 521.62,449.71 519.55,450.59 517.91,451.3 516.61,451.56 515.6,451.81 
	513.02,452.36 513.02,450.17 513.02,447.56 513.02,445.25 513.02,444.16 513.02,443.27 513.92,442.98 515.14,442.73 "/>
<ellipse class="st16" cx="401.11" cy="310.53" rx="62.43" ry="95.45"/>
<ellipse class="st16" cx="599.83" cy="306.02" rx="62.43" ry="95.45"/>
<polygon class="st17" points="269.37,301.99 330.59,301.99 330.59,321.64 247.69,321.64 "/>
<rect x="468.82" y="301.99" class="st17" width="63.01" height="19.66"/>
<polygon class="st17" points="667.62,301.99 749.68,301.99 769.1,321.64 667.62,321.64 "/>
<path class="st18" d="M370.29,197.02l8.42-7.43l11.39-8.97l6.93-2.61l12.61-2.29h15.62h9.34c4.35-1.02,8.7-2.04,13.05-3.06
	c3-2,6-4,9-6c2-1,4-2,6-3c0,3,0,6,0,9c0,2,0,4,0,6s0,4,0,6c0,1,0,2,0,3c-1,1-2,2-3,3c-2,1-4,2-6,3c-3,1-6,2-9,3
	c-4.32,1.77-8.64,3.54-12.96,5.31h-7.92h-8.91h-13.87h-10.4h-9.91h-3.47h-3.47L370.29,197.02z"/>
<polygon class="st19" points="448.24,213.6 454.7,209.42 460.4,207.52 464.96,205.62 469.9,205.62 473.32,205.62 477.5,205.62 
	483.2,207.14 487.38,207.9 494.42,207.9 499.17,207.52 506.77,207.14 513.23,203.34 518.93,201.44 526.53,199.54 531.85,199.54 
	536.03,199.54 541.35,201.82 546.67,204.48 550.09,206.57 551.99,209.04 541.35,206.57 535.65,204.86 531.09,204.48 522.73,206.57 
	518.17,209.42 512.47,211.05 505.25,213.6 496.89,213.6 487.38,213.6 481.68,211.05 474.46,211.05 470.66,211.05 465.72,211.05 
	460.78,213.6 456.22,213.6 "/>
<polygon class="st19" points="448.24,232.25 454.7,228.07 460.4,226.17 464.96,224.27 469.9,224.27 473.32,224.27 477.5,224.27 
	483.2,225.79 487.38,226.55 494.42,226.55 499.17,226.17 506.77,225.79 513.23,221.99 518.93,220.09 526.53,218.19 531.85,218.19 
	536.03,218.19 541.35,220.47 546.67,223.13 550.09,225.22 551.99,227.69 541.35,225.22 535.65,223.51 531.09,223.13 522.73,225.22 
	518.17,228.07 512.47,229.69 505.25,232.25 496.89,232.25 487.38,232.25 481.68,229.69 474.46,229.69 470.66,229.69 465.72,229.69 
	460.78,232.25 456.22,232.25 "/>
<polygon class="st20" points="400.65,456.16 391,460.95 380.65,468.46 372.1,477.9 361.76,488.33 353.22,500.68 344.68,513.03 
	335.43,528.11 325.82,541.64 319.77,550.27 312.67,565.9 305.57,578.62 301.34,595 297.82,608.64 308.12,589.47 317.89,575.33 
	329.1,555.59 336.21,542.87 342.42,530.64 353.64,515.34 362.17,501.54 371.79,490.92 379.62,478.38 "/>
<polygon class="st20" points="719.42,596.73 717.23,587.05 712.64,575.78 705.82,565.28 698.49,552.95 688.93,541.4 679.37,529.84 
	667.42,516.69 657.01,503.82 650.35,495.68 637.37,484.09 627.12,473.58 612.76,464.07 600.79,456.16 616.34,471.68 627.28,484.9 
	643.14,501.38 653.39,511.9 663.38,521.5 675.07,536.34 686,548.43 693.67,560.24 703.57,571.28 "/>
<path class="st21" d="M411.1,507.22l-3.81,2.03l-1.52,2.54v2.54v4.06l-2.03,6.6l-1.27,6.34l-1.52,8.63v11.93l-2.54,12.43v7.87v20.55
	l1.27,19.29l2.03,10.4l3.05,10.4l3.05,10.66l9.14,17.26l5.08,6.85l3.05,5.33l4.06,2.03l-1.78-13.2v-5.33l1.78-3.55l4.82,13.96
	l8.12,17.26l7.87,10.4l6.85,7.87l7.11,7.11l5.33,3.81h2.28v-5.84l-1.78-8.12l-0.25-4.06l6.34,12.18l5.33,7.11l5.08,5.08l6.09,5.58
	l7.36,4.57l6.85,4.31l5.08,2.54l4.86,1.78h1.49l3.55-1.78l9.39-5.33l8.63-4.82l5.84-4.57l6.09-6.34l5.58-6.6l4.57-7.87l2.54-5.58
	v5.84l-1.52,7.11l-1.27,4.31l1.27,1.27l3.3-1.27l2.79-3.55l8.63-7.36l6.85-7.61l4.57-6.34l5.33-8.88l3.81-8.63l3.55-9.9l2.28-7.36
	v4.82l1.78,5.84v5.84l-2.03,6.09l2.03-0.51l3.3-2.54l4.82-6.85l5.08-9.14l5.58-8.63l2.54-8.37l3.85-13.17l2.66-16.36v-10.43
	l0.82-18.61l-1.23-22.5L631.52,548l-3.89-21.27l-2.25-9.41l-1.64-5.52l-4.29-4.55h-2.92c-15.57-9.46-49.3-27.04-95.5-28.72
	C466.51,476.51,426.59,497.84,411.1,507.22z"/>
<ellipse class="st22" cx="400.26" cy="306.02" rx="50.16" ry="73.79"/>
<ellipse class="st22" cx="599.83" cy="306.02" rx="50.16" ry="73.79"/>
<ellipse class="st23" cx="409.41" cy="305.41" rx="24.75" ry="38.25"/>
<ellipse class="st23" cx="610.93" cy="307.25" rx="24.75" ry="38.25"/>
<path class="st24" d="M536.16,372.16"/>
<ellipse class="st24" cx="624.24" cy="285.41" rx="12.42" ry="13.75"/>
<ellipse class="st24" cx="423.13" cy="281.34" rx="12.42" ry="13.75"/>
<path class="st24" d="M396.66,341.75c-0.13-1.94-0.73-6.96-4.5-11.59c-5.4-6.65-13.15-7.39-14.59-7.5c1.44-0.11,9.19-0.85,14.59-7.5
	c3.77-4.64,4.37-9.65,4.5-11.59c0.13,1.94,0.73,6.96,4.5,11.59c5.4,6.65,13.15,7.39,14.59,7.5c-1.94,0.13-6.96,0.73-11.59,4.5
	C397.51,332.56,396.77,340.3,396.66,341.75z"/>
<path class="st24" d="M599.02,345.89c-0.13-1.94-0.73-6.96-4.5-11.59c-5.4-6.65-13.15-7.39-14.59-7.5c1.44-0.11,9.19-0.85,14.59-7.5
	c3.77-4.64,4.37-9.65,4.5-11.59c0.13,1.94,0.73,6.96,4.5,11.59c5.4,6.65,13.15,7.39,14.59,7.5c-1.94,0.13-6.96,0.73-11.59,4.5
	C599.88,336.71,599.13,344.45,599.02,345.89z"/>
<path class="st18" d="M637.05,194.14l-8.42-7.43l-11.39-8.97l-6.93-2.61l-12.61-2.29h-15.62h-9.34c-4.35-1.02-8.7-2.04-13.05-3.06
	c-3-2-6-4-9-6c-2-1-4-2-6-3c0,3,0,6,0,9c0,2,0,4,0,6s0,4,0,6c0,1,0,2,0,3c1,1,2,2,3,3c2,1,4,2,6,3c3,1,6,2,9,3
	c4.32,1.77,8.64,3.54,12.96,5.31h7.92h8.91h13.87h10.4h9.91h3.47h3.47L637.05,194.14z"/>
</svg>
