<?xml version="1.0" encoding="utf-8"?>
<!-- Generator: Adobe Illustrator 25.1.0, SVG Export Plug-In . SVG Version: 6.00 Build 0)  -->
<svg version="1.1" xmlns="http://www.w3.org/2000/svg" xmlns:xlink="http://www.w3.org/1999/xlink" x="0px" y="0px"
	 viewBox="0 0 1280 1024" style="enable-background:new 0 0 1280 1024;" xml:space="preserve">
<style type="text/css">
	.st0{fill:#A47449;stroke:#654321;stroke-width:7;stroke-miterlimit:10;}
	.st1{fill:#654321;stroke:#654321;stroke-width:5;stroke-miterlimit:10;}
	.st2{fill:#AFAEB2;stroke:#000000;stroke-miterlimit:10;}
	.st3{fill:#8E8D91;stroke:#000000;stroke-miterlimit:10;}
	.st4{fill:#86D6DA;stroke:#000000;stroke-width:0.5;stroke-miterlimit:10;}
	.st5{fill:#868589;stroke:#000000;stroke-width:0.5;stroke-miterlimit:10;}
	.st6{fill:#98D4D9;stroke:#000000;stroke-width:0.5;stroke-miterlimit:10;}
	.st7{fill:#ACAEB1;stroke:#000000;stroke-miterlimit:10;}
	.st8{fill:#5CB7A4;stroke:#000000;stroke-width:0.25;stroke-miterlimit:10;}
	.st9{fill:#8A898D;stroke:#000000;stroke-width:0.25;stroke-miterlimit:10;}
	.st10{fill:#73B5A5;stroke:#000000;stroke-width:0.25;stroke-miterlimit:10;}
	.st11{fill:#87868A;stroke:#000000;stroke-width:0.25;stroke-miterlimit:10;}
	.st12{fill:#82B3A6;stroke:#000000;stroke-width:0.25;stroke-miterlimit:10;}
	.st13{fill:#8D8C90;stroke:#000000;stroke-width:0.25;stroke-miterlimit:10;}
	.st14{fill:none;stroke:#000000;stroke-miterlimit:10;}
	.st15{fill:none;stroke:#000000;stroke-width:0.5;stroke-miterlimit:10;}
	.st16{fill:#555358;stroke:#000000;stroke-width:0.5;stroke-miterlimit:10;}
	.st17{fill:#B7B7B9;stroke:#000000;stroke-width:0.5;stroke-miterlimit:10;}
	.st18{fill:#505150;stroke:#000000;stroke-width:0.5;stroke-miterlimit:10;}
	.st19{fill:#F3AB40;}
	.st20{fill:#E9AD55;}
	.st21{fill:#43967F;}
	.st22{fill:#245EA9;}
	.st23{fill:#ADAEB1;}
	.st24{fill:none;}
	.st25{fill:#599480;}
	.st26{fill:#2964BF;}
	.st27{fill:#C6332A;}
	.st28{fill:#FFF2EB;stroke:#000000;stroke-miterlimit:10;}
	.st29{fill:#FFF7F3;stroke:#000000;stroke-miterlimit:10;}
	.st30{fill:#6C707F;stroke:#000000;stroke-miterlimit:10;}
	.st31{fill:#FFC4A6;stroke:#000000;stroke-miterlimit:10;}
	.st32{fill:#FFDAC3;stroke:#000000;stroke-miterlimit:10;}
	.st33{fill:#E5EAFF;stroke:#000000;stroke-miterlimit:10;}
	.st34{fill:#CB997E;stroke:#000000;stroke-miterlimit:10;}
	.st35{fill:url(#SVGID_1_);stroke:#000000;stroke-miterlimit:10;}
	.st36{fill:url(#SVGID_2_);stroke:#000000;stroke-miterlimit:10;}
	.st37{fill:none;stroke:#000817;stroke-miterlimit:10;}
	.st38{fill:#D48BFF;stroke:#D48BFF;stroke-width:5;stroke-miterlimit:10;}
	.st39{font-family:'MyriadPro-Regular';}
	.st40{font-size:24.0274px;}
	.st41{fill:#26272A;stroke:#000000;stroke-miterlimit:10;}
	.st42{fill:#3E3F44;stroke:#000000;stroke-miterlimit:10;}
	.st43{fill:#52545A;stroke:#000000;stroke-miterlimit:10;}
	.st44{fill:#282A2E;stroke:#000000;stroke-miterlimit:10;}
	.st45{fill:#2B2C31;stroke:#000817;stroke-miterlimit:10;}
	.st46{fill:none;stroke:#000000;stroke-width:0.25;stroke-miterlimit:10;}
	.st47{fill:#00B98F;stroke:#000817;stroke-miterlimit:10;}
	.st48{fill:#56585D;stroke:#000817;stroke-miterlimit:10;}
	.st49{fill:#FFFFFF;stroke:#000000;stroke-miterlimit:10;}
	.st50{fill:#FFFFFF;stroke:#000817;stroke-miterlimit:10;}
	.st51{fill:#948F8F;stroke:#000817;stroke-miterlimit:10;}
	.st52{fill:#1F2023;stroke:#000817;stroke-miterlimit:10;}
	.st53{opacity:0.73;fill:#ADB2AE;stroke:#4D4545;stroke-width:7;stroke-miterlimit:10;}
	.st54{fill:#4D4545;stroke:#4D4545;stroke-width:3;stroke-miterlimit:10;}
	.st55{fill:#B2B1AA;stroke:#000000;stroke-miterlimit:10;}
	.st56{stroke:#000000;stroke-miterlimit:10;}
	.st57{stroke:#000000;stroke-width:0.75;stroke-miterlimit:10;}
	.st58{fill:#B2B1AA;stroke:#000000;stroke-width:0.75;stroke-miterlimit:10;}
	.st59{fill:#FFFFFF;stroke:#ECBCB4;stroke-miterlimit:10;}
	.st60{fill:#ECBCB4;stroke:#ECBCB4;stroke-miterlimit:10;}
	.st61{stroke:#A27100;stroke-miterlimit:10;}
	.st62{fill:#8BE1FF;stroke:#A27100;stroke-width:0.25;stroke-miterlimit:10;}
</style>
<g id="Panel_4_blocks">
	<rect x="14.5" y="13.5" class="st0" width="1246" height="465"/>
</g>
<g id="Scene_17">
	<rect x="14.8" y="47.03" class="st1" width="1245.33" height="44.14"/>
	<rect x="15.07" y="401.24" class="st1" width="1245.33" height="44.14"/>
	<polygon class="st2" points="639.12,390 593.4,390 593.03,389.88 592.68,389.71 592.36,389.49 591.97,389.2 591.48,388.83 
		591.08,388.52 590.79,388.23 590.45,388.02 590.27,387.81 590.2,387.58 590.2,387.32 590.2,387 590.2,384.93 590.2,382.38 
		590.2,380.09 590.2,377.5 590.2,376.29 590.2,375.61 590.19,371.87 590.44,371.58 590.87,371.54 591.64,371.45 592.17,371.38 
		593.1,371.23 593.8,371.1 594.83,370.89 595.81,370.62 596.66,370.4 597.54,370.14 598.65,369.75 599.06,369.61 599.44,369.48 
		599.75,369.35 600.01,369.25 600.25,369.15 600.59,369.01 601.02,368.82 601.45,368.62 601.92,368.42 602.45,368.15 603.02,367.86 
		603.45,367.62 603.9,367.35 604.48,366.98 604.95,366.65 605.53,366.24 605.89,366.02 606.27,365.75 606.71,365.48 607,365.28 
		607.35,365 607.7,364.77 608.07,364.5 608.52,364.11 608.92,363.74 609.18,363.5 609.5,363.15 609.79,362.86 610.09,362.56 
		610.35,362.31 610.67,362.02 611.03,361.63 611.32,361.3 611.74,360.82 612.13,360.33 612.49,359.79 612.86,359.31 613.21,358.72 
		613.55,358.18 614.1,357.42 614.53,356.64 614.85,355.92 615.24,355.12 615.68,354.15 616.1,353.1 616.48,351.92 616.88,350.61 
		617.27,348.92 617.44,348.06 617.64,346.95 617.7,345.72 617.77,343.83 617.71,341.55 617.66,339.99 617.47,338.8 617.11,337.45 
		616.72,336.09 616.24,334.62 615.67,333.08 614.97,331.55 614.2,330.3 613.41,329.08 612.2,327.35 611.35,326.34 610.48,325.35 
		609.66,324.48 608.61,323.47 607.47,322.46 606.22,321.47 605.21,320.72 604.02,320 602.32,319.07 600.63,318.3 599.66,317.86 
		598.08,317.25 597.1,316.83 595.84,316.39 594.58,316.07 593.04,315.76 591.52,315.48 590.38,315.39 589.08,315.3 587.54,315.27 
		585.99,315.27 585.14,315.27 583.79,315.34 582.49,315.48 581.2,315.73 580.1,315.95 579.23,316.17 578.14,316.42 577.01,316.82 
		576.08,317.1 575.15,317.44 574.37,317.8 573.41,318.21 572.37,318.8 571.22,319.49 570.27,319.95 569.11,320.63 568.2,321.3 
		567.23,322.07 566.53,322.62 565.74,323.29 564.86,324.07 564.07,324.91 563.2,325.87 562.5,326.7 561.63,327.77 560.88,328.99 
		560.27,330.16 559.59,331.46 559.03,332.6 558.44,333.65 557.98,334.96 557.67,335.8 557.34,336.81 557.13,338.02 556.94,339.12 
		556.76,340.27 556.73,341.42 556.72,342.46 556.72,343.67 556.73,344.76 556.78,345.69 556.92,346.79 557.1,347.94 557.25,348.92 
		557.56,350 557.93,351.59 558.5,352.97 559.21,354.59 560.21,356.39 561.19,358.12 562.3,359.71 563.53,361.19 564.62,362.38 
		565.79,363.49 567.31,364.83 568.74,365.95 570.12,366.88 571.53,367.69 573.19,368.55 574.49,369.17 576.4,370.01 578.5,370.72 
		580.39,371.22 581.88,371.55 582.93,371.7 583.36,371.76 583.66,371.78 584.1,371.82 584.5,371.9 584.67,371.95 584.82,372.1 
		584.76,377.08 584.79,381.46 584.81,385.54 584.82,387.18 584.72,387.46 584.51,387.64 584.27,387.86 583.86,388.21 583.49,388.57 
		583.21,388.82 582.81,389.19 582.4,389.54 581.97,389.81 581.39,390 580.72,390 579.75,390 576.22,390 567.43,390 557.26,390 
		548.53,390 540,390 537.63,390 536.89,389.72 535.85,389.28 534.88,388.85 534.17,388.47 533.14,387.6 532.16,386.51 
		531.61,385.59 530.96,384.61 530.47,383.41 530.47,382.16 530.47,372.81 530.47,348.15 530.47,313.13 530.47,271.94 530.47,229.64 
		530.47,180.68 530.47,135.85 530.47,110.02 530.47,108.13 530.71,107.05 531.21,105.97 531.87,105.28 532.64,104.36 533.52,103.51 
		534.52,102.9 535.67,102.63 536.9,102.63 546.23,102.63 572.63,102.63 598.57,102.63 615.71,102.63 630.3,102.63 636.32,102.63 
		638.6,102.63 640.05,103.05 641.06,103.56 642.14,104.51 642.64,105.52 643.47,105.77 644.48,105.77 645.68,105.77 646.95,105.84 
		678.42,105.85 712.29,105.97 741.92,106.27 769.65,106.27 791.95,106.27 812.04,106.33 827.42,106.5 843.38,106.78 844.62,106.75 
		845.84,106.2 846.95,105.49 847.86,104.63 848.62,103.97 849.13,103.52 850.04,103.16 851.56,102.96 853.43,102.91 863.95,102.63 
		887.53,102.63 930.61,102.63 957.44,102.63 959.51,102.99 961.3,103.5 962.82,104.23 964.39,105.29 965.56,106.69 966.41,108.6 
		966.69,111.13 966.69,113.54 966.69,144.56 966.69,181.83 966.69,221.04 966.69,264.74 966.69,301.89 966.69,337.76 966.69,373.36 
		966.69,382.49 966.69,384.06 966.46,385.32 966.08,386.3 965.48,387.02 964.65,387.81 963.51,388.53 962.41,388.91 960.9,389.36 
		959.49,389.65 957.01,390 954.49,390 949.17,390 939.17,390 924.92,390 909.07,390 894.66,390 881.86,390 858.97,390 
		858.08,389.83 857.29,389.49 856.71,389.13 856.31,388.52 856.16,387.81 856.1,387.02 856.07,386.35 856.04,385.92 855.79,385.61 
		855.37,385.49 854.79,385.46 854.17,385.43 852.34,385.4 849.17,385.4 836.27,385.38 808.87,385.32 790.12,385.27 768.87,385.17 
		740.81,385.12 716.72,385.12 690.59,385.12 660.78,385.17 645.71,385.02 645.09,385.02 644.5,385.13 644.02,385.58 643.63,386.25 
		643.37,386.96 643.06,387.69 642.5,388.16 642.02,388.64 641.38,389.23 640.34,389.71 639.89,390 	"/>
	<polygon class="st3" points="883.37,331.52 883,332.15 882.53,333.1 881.93,334.25 881.56,335.29 881.11,336.54 880.7,337.81 
		880.35,338.98 880,340.36 879.88,341.2 879.79,342.5 879.79,343.62 879.79,345.86 879.79,346.62 879.79,347.46 879.96,348.39 
		880.2,349.49 880.35,350.55 880.65,351.72 880.93,352.56 881.17,353.42 881.58,354.46 881.88,355.21 882.25,356.06 882.66,356.92 
		883.03,357.74 883.5,358.41 883.98,359.19 884.6,360.03 885.17,360.87 885.86,361.65 886.46,362.43 887.09,363.05 887.73,363.83 
		888.32,364.48 888.94,364.91 889.76,365.6 890.58,366.23 891.25,366.77 891.84,367.2 892.57,367.76 893.46,368.19 894.47,368.82 
		895.33,369.31 896.31,369.81 897.3,370.26 898.23,370.59 899.13,370.95 900.06,371.26 900.86,371.52 901.77,371.82 902.7,372.1 
		903.76,372.27 904.71,372.49 905.78,372.59 906.97,372.75 907.94,372.75 909.56,372.75 912.97,372.75 914.12,372.75 915.18,372.55 
		916.21,372.44 917.16,372.21 918.16,371.95 919.3,371.71 920.14,371.45 921.31,371.06 922.56,370.57 923.6,370.05 924.76,369.57 
		925.67,369.08 926.64,368.51 927.55,368 928.48,367.37 929.23,366.83 930.05,366.16 930.74,365.56 931.63,364.78 932.34,364.15 
		932.9,363.63 933.66,362.86 934.22,362.19 934.74,361.56 935.32,360.74 935.88,359.92 936.44,359.14 936.83,358.52 937.26,357.76 
		937.67,356.98 938.02,356.31 938.45,355.52 938.82,354.67 939.23,353.68 939.55,352.9 939.79,352.13 939.96,351.35 940.16,350.33 
		940.31,349.6 940.44,348.89 940.55,348.2 940.55,346.99 940.55,345.86 940.55,342.63 940.55,341.81 940.55,340.96 940.31,339.75 
		939.92,338.52 939.57,337.34 939.23,336.19 938.82,335.2 938.37,334.14 937.78,332.93 937.37,332.13 936.9,331.25 936.31,330.17 
		935.73,329.35 935.04,328.38 934.2,327.36 933.23,326.32 932.6,325.68 931.78,324.86 930.7,323.97 929.88,323.26 929,322.59 
		927.96,321.86 926.84,321.16 925.8,320.52 924.59,319.91 923.38,319.35 922.11,318.81 921.03,318.38 919.91,317.99 918.83,317.6 
		917.72,317.3 916.69,317.06 915.48,316.82 914.23,316.65 912.97,316.54 912.02,316.54 907.81,316.54 906.89,316.65 905.91,316.8 
		905.09,316.89 903.93,317.13 902.85,317.36 901.86,317.6 900.86,317.86 899.98,318.1 899.2,318.4 898.38,318.72 897.45,319.09 
		896.59,319.42 895.66,319.83 894.75,320.32 893.89,320.8 893.05,321.34 892.05,321.98 891.32,322.52 890.54,323.13 889.92,323.6 
		889.25,324.14 888.51,324.79 887.99,325.33 887.19,326.09 886.74,326.65 886.16,327.3 885.66,327.88 885.06,328.55 884.47,329.33 
		884.06,330.02 	"/>
	<polygon class="st3" points="558.91,281.29 559.08,280.43 559.32,279.37 559.57,278.56 559.83,277.7 560.2,277.03 560.56,276.36 
		560.97,275.65 561.42,275.01 561.94,274.25 562.43,273.61 563.19,273.01 563.88,272.56 564.56,272 565.3,271.44 565.96,271.09 
		566.78,270.66 567.6,270.28 568.57,269.97 569.49,269.72 570.35,269.54 571.12,269.44 571.99,269.31 572.78,269.31 573.79,269.31 
		574.48,269.31 575.45,269.46 576.14,269.63 577.08,269.87 577.92,270.15 578.89,270.45 579.82,270.88 580.83,271.39 581.51,271.87 
		582.27,272.45 583.04,273.09 583.82,273.91 584.48,274.66 585.15,275.3 585.54,276.02 585.99,276.79 586.48,277.57 586.94,278.47 
		587.02,279.16 587.32,280.45 587.43,281.48 587.43,282.75 587.43,283.89 587.32,285.29 587.15,286.24 586.91,286.95 586.48,287.76 
		585.99,288.65 585.52,289.53 584.96,290.17 584.38,290.99 583.75,291.64 583.09,292.24 582.59,292.6 581.97,293.06 581.17,293.57 
		580.65,293.85 579.94,294.28 579.3,294.58 578.46,294.93 577.69,295.14 576.93,295.36 576.2,295.51 575.43,295.7 574.31,295.7 
		573.17,295.7 572.26,295.7 571.92,295.7 571.3,295.7 570.29,295.55 569.36,295.34 568.69,295.06 567.64,294.8 566.89,294.41 
		566.01,294 565.1,293.42 564.2,292.82 563.49,292.2 562.76,291.51 562.05,290.78 561.53,290.09 560.95,289.25 560.41,288.41 
		559.87,287.55 559.59,286.73 559.29,285.87 559.04,285.01 558.91,284.11 558.91,283.05 558.91,282.04 	"/>
	<polygon class="st3" points="591.64,371.45 592.17,371.38 593.1,371.23 593.8,371.1 594.83,370.89 595.81,370.62 596.66,370.4 
		597.54,370.14 598.65,369.75 599.06,369.61 599.44,369.48 599.75,369.35 600.25,369.15 600.59,369.01 601.02,368.82 601.45,368.62 
		601.92,368.42 602.45,368.15 603.02,367.86 603.45,367.62 603.9,367.35 604.48,366.98 604.95,366.65 605.53,366.24 606.27,365.75 
		606.71,365.48 607.35,365 607.7,364.77 608.07,364.5 608.52,364.11 608.92,363.74 609.5,363.15 609.79,362.86 610.35,362.31 
		610.67,362.02 611.32,361.3 611.74,360.82 612.13,360.33 612.49,359.79 612.86,359.31 613.21,358.72 613.55,358.18 614.1,357.42 
		614.53,356.64 614.85,355.92 615.24,355.12 615.68,354.15 616.1,353.1 616.48,351.92 616.88,350.61 617.27,348.92 617.44,348.06 
		617.64,346.95 617.7,345.72 617.77,343.83 617.71,341.55 617.66,339.99 617.47,338.8 617.11,337.45 616.72,336.09 616.24,334.62 
		615.67,333.08 614.97,331.55 614.2,330.3 613.41,329.08 612.2,327.35 611.35,326.34 610.48,325.35 609.66,324.48 608.61,323.47 
		607.47,322.46 606.22,321.47 605.21,320.72 604.02,320 602.32,319.07 600.63,318.3 599.66,317.86 598.08,317.25 597.1,316.83 
		595.84,316.39 594.58,316.07 593.04,315.76 591.52,315.48 590.38,315.39 589.08,315.3 587.54,315.27 585.99,315.27 585.14,315.27 
		583.79,315.34 582.49,315.48 581.2,315.73 580.1,315.95 579.23,316.17 578.14,316.42 577.01,316.82 576.08,317.1 575.15,317.44 
		574.37,317.8 573.41,318.21 572.37,318.8 571.22,319.49 570.27,319.95 569.11,320.63 568.2,321.3 567.23,322.07 566.53,322.62 
		565.74,323.29 564.86,324.07 564.07,324.91 563.2,325.87 562.5,326.7 561.63,327.77 560.88,328.99 560.27,330.16 559.59,331.46 
		559.03,332.6 558.44,333.65 557.98,334.96 557.67,335.8 557.34,336.81 557.13,338.02 556.94,339.12 556.76,340.27 556.73,341.42 
		556.72,342.46 556.72,343.67 556.73,344.76 556.78,345.69 556.92,346.79 557.1,347.94 557.25,348.92 557.56,350 557.93,351.59 
		558.5,352.97 559.21,354.59 560.21,356.39 561.19,358.12 562.3,359.71 563.53,361.19 564.62,362.38 565.79,363.49 567.31,364.83 
		568.74,365.95 570.12,366.88 571.53,367.69 573.19,368.55 574.49,369.17 576.4,370.01 578.5,370.72 580.39,371.22 581.88,371.55 
		582.93,371.7 583.66,371.78 584.32,371.78 584.99,371.78 585.73,371.78 586.74,371.78 587.59,371.78 588.91,371.78 589.67,371.78 
		590.01,371.78 590.44,371.58 590.87,371.54 	"/>
	<polygon class="st4" points="899.7,345.86 899.7,343.89 900.31,343.27 900.76,342.77 901.49,342.37 901.83,342.15 903.71,342.15 
		904.27,342.6 904.72,342.88 905.14,343.27 905.42,343.75 905.42,345.86 905.42,346.14 905.03,346.53 904.61,346.98 903.99,347.46 
		902.05,347.46 901.04,346.95 900.14,346.31 	"/>
	<polygon class="st5" points="901.86,346.28 900.99,345.55 900.99,344.03 901.42,343.55 901.86,343.19 903.46,343.19 904.1,343.64 
		904.53,344.2 904.53,345.69 903.82,346.28 	"/>
	<polygon class="st4" points="906.63,347.32 906.63,342.23 909.72,342.23 910.31,342.65 910.59,343.19 910.59,344.73 910.17,345.29 
		909.69,345.46 907.59,345.41 907.56,347.32 	"/>
	<polygon class="st5" points="907.56,343.19 907.56,344.64 909.41,344.64 909.86,344.26 909.86,343.58 909.5,343.3 	"/>
	<polygon class="st6" points="911.27,342.15 911.29,347.46 915.52,347.46 915.52,346.28 912.43,346.28 912.43,345.27 915.52,345.32 
		915.52,344.14 912.35,344.17 912.29,343.19 915.52,343.19 915.49,342.15 	"/>
	<polygon class="st4" points="916.46,342.15 916.46,347.46 917.89,347.46 917.89,344.28 917.89,343.92 918.24,344.14 918.63,344.77 
		920.83,347.39 920.88,347.52 921.6,347.52 921.72,347.52 921.67,342.09 920.95,342.09 920.93,345.67 920.93,345.84 920.73,345.85 
		920.55,345.68 920.42,345.5 918.01,342.26 917.9,342.09 	"/>
	<polyline class="st7" points="593.4,390 591.37,390 589.69,390 587.63,390 586.11,390 584.21,390 583.12,390 581.97,389.81 
		582.4,389.54 582.81,389.19 583.49,388.57 583.86,388.21 584.27,387.86 584.72,387.46 584.82,387.18 584.81,386.6 584.81,385.54 
		584.79,381.46 584.76,377.08 584.82,372.1 584.99,371.78 585.73,371.78 586.74,371.78 587.59,371.78 588.91,371.78 589.67,371.78 
		590.19,371.87 590.19,372.71 590.19,373.87 590.2,375.61 590.2,377.5 590.2,380.09 590.2,382.38 590.2,384.93 590.2,387 
		590.2,387.58 590.27,387.81 590.79,388.23 591.08,388.52 591.97,389.2 592.68,389.71 593.4,390 	"/>
	<polygon class="st8" points="572.11,345.44 572.11,344.92 572.11,344.39 572.11,343.79 572.11,342.83 572.11,342.08 572.11,341.37 
		572.11,340.98 572.11,340.74 572.49,340.74 572.77,340.74 573.2,340.74 573.59,340.74 574.09,340.74 574.55,340.74 574.78,340.74 
		574.98,340.74 575.24,340.74 575.56,340.82 575.77,340.98 576.02,341.24 576.24,341.51 576.33,341.81 576.33,342.11 576.33,342.42 
		576.33,342.77 576.33,343.09 576.22,343.27 576.01,343.43 575.85,343.62 575.6,343.82 575.26,343.94 574.96,344.09 574.45,344.12 
		574.22,344.12 573.76,344.12 573.35,344.12 573.09,344.12 572.89,344.18 572.81,344.32 572.81,344.64 572.84,344.99 572.82,345.17 
		572.81,345.44 572.58,345.44 572.38,345.44 	"/>
	<polygon class="st9" points="572.82,343.09 572.82,342.6 572.82,342.29 572.88,342.1 573.06,342.05 573.2,342.05 573.44,342.05 
		573.73,342.05 574.09,342.05 574.45,342.05 574.72,342.05 574.94,342.05 575.19,342.1 575.38,342.15 575.53,342.29 575.53,342.57 
		575.53,342.79 575.32,342.91 574.98,343.04 574.8,343.09 574.32,343.09 573.89,343.09 573.17,343.09 	"/>
	<polygon class="st10" points="577.3,344.26 577.3,343.32 577.3,342.57 577.38,342.17 577.67,341.94 578.07,341.53 578.37,341.33 
		578.62,341.07 578.82,340.92 579.03,340.74 579.3,340.74 579.71,340.74 580.22,340.74 580.63,340.74 580.87,340.74 581.16,340.82 
		581.37,340.92 581.68,341.11 581.98,341.36 582.25,341.64 582.47,341.96 582.7,342.29 582.96,342.65 583.08,342.88 583.08,343.53 
		583.08,343.86 583.08,344.1 583.08,344.43 583.08,344.68 582.75,344.96 582.34,345.44 581.9,345.76 581.61,345.93 581.31,346.07 
		580.96,346.07 580.47,346.07 580.01,346.07 579.4,346.07 579.19,346.07 578.77,345.8 578.42,345.57 578.13,345.31 577.71,344.94 
		577.58,344.68 	"/>
	<polygon class="st11" points="578.01,344 578.01,342.95 578.15,342.72 578.41,342.51 578.71,342.29 579.02,342.05 579.39,342.05 
		579.87,342.05 580.25,342.05 580.65,342.05 580.87,342.13 581.12,342.21 581.35,342.33 581.6,342.57 581.77,342.72 581.92,342.82 
		581.92,342.96 582.01,343.25 582.01,343.53 582.01,344 581.88,344.3 581.64,344.76 581.43,344.87 581.04,344.87 580.51,344.87 
		580.01,344.87 579.42,344.87 579.16,344.87 578.86,344.74 578.58,344.5 578.28,344.31 	"/>
	<polygon class="st12" points="583.27,341.41 583.62,342.05 583.91,342.57 584.1,343.2 584.31,343.62 584.48,344.06 584.68,344.54 
		584.79,345.04 584.98,345.44 585.18,345.44 585.39,345.44 585.6,345.44 585.91,345.44 586.04,344.87 586.16,344.47 586.31,344.04 
		586.56,343.53 586.75,343.09 586.89,342.7 587.24,342.72 587.48,342.72 587.68,342.97 587.79,343.46 587.96,344.14 588.14,344.62 
		588.41,345.1 588.64,345.44 588.87,345.44 589.16,345.44 589.52,345.44 589.73,344.87 589.89,344.27 590.14,343.66 590.46,342.97 
		590.6,342.45 590.68,342.05 590.79,341.64 590.79,341.41 590.37,341.41 590,341.33 589.85,341.79 589.73,342.33 589.54,343.09 
		589.39,343.46 589.18,343.91 589.04,344.14 588.73,344.14 588.46,343.89 588.33,343.29 588.16,342.57 587.89,342.05 587.75,341.62 
		587.62,341.33 587.24,341.33 587.03,341.33 586.81,341.33 586.58,341.77 586.31,342.35 586.14,342.87 585.98,343.39 585.83,343.75 
		585.71,344.1 585.37,344.14 584.89,343.39 584.71,342.79 584.52,342.14 584.18,341.6 584.06,341.33 	"/>
	<polygon class="st12" points="592.12,340.89 592.73,340.89 593.44,340.89 594.28,340.89 595.02,340.89 595.55,340.89 
		595.77,340.89 595.77,341.24 595.77,341.67 595.77,342.03 595.49,342.03 594.99,342.03 594.46,342.03 593.77,342.03 593.21,342.03 
		592.86,342.03 592.85,342.46 592.85,342.74 593.29,342.74 595.77,342.74 595.77,344.11 592.81,344.11 592.81,344.81 595.77,344.81 
		595.77,346.07 591.34,346.07 591.34,340.89 	"/>
	<polygon class="st12" points="596.57,345.96 596.57,341.72 596.67,341.52 596.87,341.41 597.08,341.23 597.26,341.02 597.4,340.89 
		597.55,340.75 600.13,340.75 600.57,341.03 601.01,341.34 601.57,341.71 601.7,341.93 601.7,342.42 601.7,342.71 601.53,343.03 
		601.26,343.25 601.06,343.43 600.94,343.53 601.01,344.11 601.32,344.4 601.61,344.75 601.7,345.16 601.7,345.44 601.7,345.76 
		601.7,345.96 601.45,345.96 601.02,345.96 600.47,345.96 600.17,345.96 600.21,345.4 600.2,344.92 600.2,344.59 600.2,344.32 
		600.15,344.15 599.83,344.14 599.29,344.12 598.88,344.11 598.41,344.11 598.08,344.13 597.99,344.52 598.01,344.82 598.02,345.31 
		598.02,345.57 597.99,345.96 	"/>
	<rect x="597.99" y="342.08" class="st13" width="2.22" height="0.73"/>
	<polyline class="st14" points="643.63,386.25 643.63,376.18 643.63,352.6 643.63,337.82 643.63,326.24 	"/>
	<polyline class="st14" points="854.17,385.43 854.17,373.38 854.17,359.51 854.17,346.83 854.01,328.47 	"/>
	<polyline class="st14" points="643.47,105.77 643.47,118.47 643.47,134.66 643.47,150.73 643.47,165.27 	"/>
	<polyline class="st14" points="852.4,102.94 852.4,121.95 852.4,136.53 852.4,155.46 852.33,165.01 	"/>
	<path class="st14" d="M643.47,165.27"/>
	<line class="st15" x1="567.14" y1="282.1" x2="565.01" y2="281.96"/>
	<polyline class="st15" points="565.01,283.67 565.01,283.28 565.01,281.96 565.01,281.05 565.01,280.71 565.01,280.5 565.68,280.5 
		566.25,280.5 566.74,280.5 566.97,280.5 567.48,280.88 567.48,281.26 567.48,281.49 567.48,281.74 567.31,282.06 567.48,283.16 
		567.48,283.33 567.48,283.67 	"/>
	<polyline class="st15" points="571.23,280.88 568.72,280.88 568.51,280.88 568.51,283.52 568.51,283.77 571.15,283.77 	"/>
	<line class="st15" x1="571.11" y1="282.23" x2="568.51" y2="282.23"/>
	<polyline class="st15" points="574.55,281.47 574.25,281.26 574,281.09 573.72,280.99 573.17,280.99 572.71,280.99 572.39,281.23 
		572.16,281.47 572.16,281.75 572.37,282.09 572.8,282.23 573.26,282.32 573.72,282.42 574,282.42 574.25,282.65 574.38,283.05 
		574.36,283.35 574.17,283.67 573.83,283.77 573.35,283.77 572.96,283.77 572.59,283.67 572.35,283.47 572.01,283.14 	"/>
	<polyline class="st15" points="577.92,280.99 575.52,280.99 575.52,284.13 577.92,284.13 	"/>
	<line class="st15" x1="577.92" y1="282.5" x2="575.52" y2="282.5"/>
	<polyline class="st15" points="578.47,281.26 578.79,281.26 581.66,281.26 	"/>
	<line class="st15" x1="580.06" y1="284.13" x2="580.06" y2="281.26"/>
	<polyline class="st14" points="862.8,317.57 866.11,319.72 868.25,321.07 870.74,322.46 872.48,323.51 874.53,324.7 877.37,326.54 
		878.81,327.39 880.5,328.44 881.65,329.28 882.44,329.85 883,330.19 883.76,330.68 883.88,330.41 883.98,330.2 884.17,329.84 
		884.39,329.47 884.67,329.07 884.94,328.7 885.28,328.3 885.19,328.1 884.94,327.8 884.22,327.34 883.42,326.83 882.17,326.11 
		880.93,325.29 879.79,324.53 878.75,323.98 877.61,323.26 876.45,322.54 875.22,321.8 873.73,320.94 872.58,320.22 871.55,319.61 
		870.52,319 869.67,318.38 868.7,317.77 867.79,317.16 866.65,316.36 865.76,315.81 864.54,315.14 863.74,316.27 862.8,317.57 	"/>
	<polygon class="st2" points="821.53,354.41 825.51,352.09 829.14,349.65 833.25,346.8 836.46,344.18 839.91,341.62 842.77,339.42 
		845.8,336.74 848.48,334.12 851.04,331.45 854.01,328.47 856.75,325.32 859.42,322.22 861.51,319.37 863.95,315.98 867.16,311.4 
		869.66,307.23 872.28,302.83 874.18,298.9 876.92,293.55 879.18,287.54 880.73,282.84 882.33,277.66 883.58,272.37 884.59,267.31 
		885.19,263.26 885.66,259.45 886.08,256 886.32,253.62 886.32,250.17 886.32,246.53 886.32,242.38 886.32,239.46 885.96,235.3 
		885.66,232.8 885.19,229.86 884.71,227.09 884.06,223.52 883.46,220.31 882.27,215.84 881.08,211.98 879.83,208.05 878.52,204.42 
		877.21,201.21 875.25,196.86 873.59,193.17 871.44,189.43 870.08,186.69 868.47,184.13 866.86,181.33 864.9,178.66 862.98,176.53 
		861.48,174.48 859.58,172.35 857.85,170.53 856.51,169.35 854.93,167.85 853.59,166.2 852.33,165.01 851.07,163.52 849.02,161.31 
		847.28,159.49 844.52,156.58 842.94,155.24 841.05,153.66 839.4,152.08 837.19,150.35 834.35,148.14 832.06,146.56 828.67,144.19 
		825.6,142.07 822.13,139.94 818.97,138.36 815.03,135.99 810.61,133.86 806.04,131.97 801.23,129.76 797.28,128.34 791.76,126.61 
		786.8,125.11 781.99,123.85 778.04,122.9 773,121.96 769.53,121.33 765.9,120.93 762.03,120.54 756.2,120.54 748.34,120.14 
		744.53,120.14 739.56,120.14 734.35,120.62 726.47,121.33 720.55,122.11 713.38,123.69 706.52,125.58 700.76,127.4 693.82,129.76 
		686.64,132.76 681.04,135.68 675.76,138.67 670.24,142.38 665.67,145.3 660.93,148.69 656.91,151.92 653.52,154.84 650.13,158.31 
		647.76,160.83 644.93,163.52 642.56,166.35 640.11,169.43 636.17,174.32 633.49,177.95 630.73,182.52 628.13,186.62 625.76,190.41 
		624.18,193.72 622.61,197.11 620.87,201.53 619.14,206.18 617.32,210.83 616.3,215.56 614.64,221.64 614.34,224.03 614.05,227.03 
		613.77,229.86 613.43,232.57 613.28,234.96 613,237.71 612.81,241.38 612.81,244.77 612.81,247.23 612.81,250.58 612.81,253.37 
		612.81,255.36 613.12,258.63 613.38,260.01 613.66,261.97 614.17,264.21 614.39,265.24 614.57,266.27 614.68,267.58 614.85,269.24 
		615.19,270.55 615.42,272.09 615.76,273.8 616.22,275.52 616.79,277.4 617.42,279.8 617.93,281.74 619.13,284.82 619.87,286.59 
		620.56,288.53 621.3,290.18 621.98,291.84 622.95,294.01 623.7,295.72 624.95,298.34 626.49,301.2 627.63,303.14 629,305.7 
		630.37,307.99 631.91,310.73 633.23,312.78 634.65,314.89 636.48,317.52 637.96,319.46 640.24,322.25 642.64,325.22 645.49,328.19 
		647.89,330.76 650.29,333.27 653.2,335.95 655.88,338.12 658.28,340.29 661.3,342.8 664.61,345.25 667.64,347.36 671.29,349.59 
		674.54,351.64 677.85,353.64 680.87,355.35 684.3,356.95 688.69,358.95 691.95,360.66 696.51,362.43 700.22,363.8 703.99,365.05 
		707.64,366.42 711.58,367.45 715.4,368.42 719.45,369.33 723.62,370.13 727.04,370.76 730.58,371.21 734.63,371.67 737.74,372.15 
		740.7,372.42 742.89,372.42 746,372.42 749.41,372.42 752.19,372.42 756.14,372.42 759.44,372.42 762.46,372 765.51,371.7 
		768.18,371.43 771.62,370.98 775.42,370.3 779.07,369.55 782.57,368.77 786.79,367.69 790.62,366.59 794.19,365.54 798.23,364.19 
		801.79,362.96 805.62,361.5 809.36,359.88 812.53,358.53 815.97,356.89 818.82,355.78 	"/>
	<polyline class="st15" points="727.75,318.35 727.75,313.18 727.75,312.85 728.45,312.85 729.35,312.85 730.01,312.85 730.64,313 
		730.94,313.33 731.12,313.93 731.12,314.41 731.12,315.01 730.85,315.6 730.43,315.92 729.44,315.92 728.78,315.92 727.96,315.95 	
		"/>
	<line class="st15" x1="733.13" y1="312.85" x2="733.13" y2="318.35"/>
	<polyline class="st15" points="735.48,314.26 737.37,314.26 737.79,314.5 738.12,314.83 738.12,315.71 738.12,315.98 
		738.12,317.93 738.12,318.35 735.66,318.35 735.21,318.05 734.94,317.63 734.94,317.18 734.94,316.7 735.42,316.31 735.75,316.13 
		736.29,316.01 736.68,316.01 737.04,316.01 737.43,315.98 737.73,315.98 	"/>
	<line class="st15" x1="743.62" y1="314.26" x2="740.47" y2="320.79"/>
	<line class="st15" x1="739.84" y1="314.26" x2="741.61" y2="317.93"/>
	<polyline class="st15" points="747.92,312.85 745.79,312.85 745.46,313.15 745.19,313.6 745.19,314.83 745.58,315.16 
		746.12,315.41 746.56,315.41 747.02,315.41 747.5,315.6 747.92,316.1 747.92,316.58 747.92,317.06 747.92,317.69 747.59,318.11 
		747.17,318.35 745.19,318.35 	"/>
	<polyline class="st15" points="750.09,313.33 750.09,318.14 750.63,318.35 751.23,318.35 	"/>
	<line class="st15" x1="751.77" y1="314.26" x2="750.21" y2="314.26"/>
	<polyline class="st15" points="753.39,314.26 755.32,314.26 755.74,314.56 755.98,314.95 755.98,318.08 755.68,318.35 
		754.99,318.35 753.48,318.35 753.09,317.93 752.76,317.52 752.76,316.88 753.21,316.46 753.66,316.31 754.11,316.1 754.84,316.1 
		755.23,316.1 755.74,316.1 	"/>
	<polyline class="st15" points="758.29,313.33 758.29,317.93 758.77,318.35 759.4,318.35 	"/>
	<line class="st15" x1="759.92" y1="314.26" x2="758.44" y2="314.26"/>
	<line class="st15" x1="761.45" y1="312.67" x2="761.45" y2="313.12"/>
	<line class="st15" x1="761.45" y1="314.26" x2="761.45" y2="318.59"/>
	<polygon class="st15" points="763.58,317.21 763.58,315.84 763.73,315.28 763.91,314.86 764.12,314.59 764.48,314.26 
		765.66,314.26 766.29,314.38 766.71,314.74 766.95,315.25 766.95,316.19 766.95,317.21 766.77,317.78 766.41,318.14 766.02,318.35 
		764.79,318.35 764.21,318.11 763.79,317.75 	"/>
	<polyline class="st15" points="772.33,318.47 772.33,315.01 772.12,314.62 771.58,314.26 769.11,314.26 769.11,318.59 	"/>
	<polygon class="st16" points="732.17,173.2 732.17,170.75 731.59,170.92 730.87,170.99 730.19,170.62 729.14,170.31 728.49,170.31 
		725.98,170.31 725.27,170.48 724.52,170.72 723.57,170.96 722.92,171.3 722.31,172.05 722.31,173.88 722.92,174.25 723.74,174.66 
		724.86,174.97 725.84,175.17 727.07,175.31 728.09,175.31 729.85,175.31 730.64,175.89 731.08,176.4 731.04,177.04 730.47,177.42 
		729.72,177.72 728.87,177.72 727.98,177.72 727.24,177.72 726.22,177.72 725.23,177.48 724.59,177.01 724.04,176.5 723.6,175.99 
		723.4,175.65 722.31,175.68 722.31,178.71 723.26,178.71 723.67,178.71 723.8,178.26 724.31,178.3 725.13,178.71 726.18,178.91 
		727.24,179.05 728.32,179.05 729.51,179.05 730.77,178.67 731.66,178.26 732.4,177.82 732.84,177.18 732.84,176.09 732.84,175.38 
		732.5,174.83 732.1,174.39 731.32,173.98 730.36,173.81 729.34,173.71 728.09,173.64 726.93,173.51 725.74,173.3 724.72,172.96 
		724.31,172.66 724.31,172.15 724.86,171.81 725.37,171.43 726.05,171.23 726.93,171.13 729.14,171.23 729.92,171.47 730.4,171.94 
		731.01,172.52 731.62,173.24 	"/>
	<polygon class="st16" points="739.06,179.05 737.53,178.33 736.52,177.52 735.84,176.7 735.33,175.99 735.33,173.74 735.87,172.79 
		736.65,172.05 737.6,171.3 738.76,170.62 739.81,170.31 743.17,170.31 744.2,170.55 745.39,171.03 746.03,171.47 747.05,172.22 
		747.53,173.27 747.53,175.82 747.22,176.8 746.57,177.42 745.59,178.16 744.67,178.54 743.79,179.05 	"/>
	<polygon class="st17" points="740.66,177.75 739.47,177.48 738.69,176.94 738.18,176.36 737.94,175.65 737.94,175.07 
		737.94,173.95 738.25,173.17 738.69,172.52 739.3,172.08 739.88,171.6 740.25,171.37 742.29,171.37 743.38,171.88 744.16,172.42 
		744.64,173.03 745.05,173.74 745.05,175.85 744.54,176.57 743.89,177.21 743.17,177.75 	"/>
	<polygon class="st18" points="757.62,170.72 757.62,171.67 759.11,171.67 759.11,175.51 753.54,170.72 749.43,170.72 
		749.43,171.67 750.82,171.71 750.82,177.75 749.43,177.75 749.43,178.54 754.27,178.54 754.15,177.75 752.52,177.75 752.49,173.13 
		753.1,173.13 759.11,178.37 759.11,178.71 761.05,178.71 761.05,171.71 762.48,171.71 762.48,170.72 	"/>
	<polygon class="st18" points="763.75,170.72 763.75,171.73 765.26,171.73 768.63,175.32 768.63,177.78 767.16,177.78 
		767.16,178.71 773.11,178.71 773.11,177.63 771.34,177.63 771.21,175.57 775.06,171.78 776.62,171.78 776.62,170.72 771.7,170.72 
		771.72,171.65 772.83,171.7 772.8,172.21 771.11,174.09 770.19,174.06 768.16,171.86 768.16,171.55 769.36,171.55 769.34,170.72 	
		"/>
	<polygon class="st19" points="745.5,308.33 744.2,307.78 743.45,307.52 742.37,307.32 741.17,307.32 739.84,307.22 738.75,307.22 
		737.71,306.99 736.53,306.7 735.49,306.37 734.55,305.89 733.73,305.2 733.57,304.39 733.8,303.8 734.58,303.21 735.46,302.75 
		736.53,302.33 737.02,302.62 737.42,302.85 738.12,303.11 738.95,303.44 739.54,303.73 740.19,304.22 739.34,304.58 738.62,304.81 
		738.66,305.33 739.37,305.33 740.25,305.33 741.1,305.33 741.61,305.33 741.85,304.87 742.24,304.68 742.77,304.68 743.38,304.68 
		744.1,304.78 744.59,304.97 745.05,305.07 745.5,305.33 745.86,305.56 745.86,306.34 745.86,308.33 	"/>
	<polygon class="st20" points="750.99,309.86 754.73,308.59 754.37,308.1 753.63,307.78 752.76,307.52 751.77,307.42 750.99,307.42 
			"/>
	<polygon class="st21" points="736.53,302.33 737.91,301.89 739.45,301.37 740.47,301.03 741.43,300.72 742.64,300.29 
		743.62,299.98 744.56,300.19 745.19,300.41 745.86,300.63 745.86,305.56 745.05,305.07 744.59,304.97 744.1,304.78 743.38,304.68 
		742.77,304.68 742.24,304.68 741.85,304.87 741.61,305.33 741.1,305.33 740.25,305.33 739.37,305.33 738.66,305.33 738.62,304.81 
		739.34,304.58 740.19,304.22 739.54,303.73 738.95,303.44 738.12,303.11 737.42,302.85 737.02,302.62 	"/>
	<polygon class="st22" points="743.62,299.98 744.62,299.3 745.19,299.05 745.86,299.05 745.86,300.63 745.19,300.41 744.56,300.19 
			"/>
	<polygon class="st23" points="745.86,302.17 744.74,302.77 743.91,303.1 742.52,303.62 741.43,303.96 740.19,304.22 739.34,304.58 
		738.62,304.81 738.66,305.33 739.37,305.33 740.25,305.33 741.1,305.33 741.61,305.33 741.85,304.87 742.24,304.68 742.77,304.68 
		743.38,304.68 743.96,304.36 744.22,304.27 744.4,304.24 744.93,304.11 745.33,304.06 	"/>
	<polygon class="st24" points="745.86,305.33 745.86,304.41 745.86,303.33 745.45,303.65 745.33,304.06 744.93,304.11 744.4,304.24 
		743.96,304.36 743.38,304.68 744.1,304.78 744.59,304.97 745.05,305.07 745.5,305.33 745.86,305.56 	"/>
	<polygon class="st25" points="750.99,307.42 750.99,306.59 751.97,306.41 752.96,306.1 754.05,306.01 754.59,305.56 755.39,305.33 
		756,305.23 756.57,304.95 757.01,304.78 757.84,304.69 758.5,304.69 759.4,304.69 760.31,304.8 760.9,305.02 761.63,305.33 
		762.43,305.72 761.45,306.34 760.8,306.57 759.4,307.04 758.43,307.42 757.3,307.8 755.93,308.17 754.73,308.59 754.37,308.1 
		753.63,307.78 752.76,307.52 751.77,307.42 	"/>
	<polygon class="st25" points="750.86,302.33 751.87,302.54 753.18,302.77 754.22,303.12 754.93,303.57 754.27,303.98 
		753.26,304.23 752.17,304.69 750.86,305.17 	"/>
	<polygon class="st26" points="750.99,302.06 753.16,301.63 754.42,301.38 756.01,301.12 757.35,300.97 758.49,300.97 759.78,301.1 
		761.49,301.33 762.78,301.52 764.12,302.17 765.08,302.94 765.43,303.5 765.43,304.13 765.33,304.86 764.85,305.33 764.07,305.44 
		763.21,305.7 762.43,305.72 761.63,305.33 760.9,305.02 759.86,304.75 758.5,304.69 758.74,304.45 759.17,304.28 759.65,304.18 
		760.28,304 760.69,303.9 760.86,303.2 760.89,302.97 760.48,302.77 760.13,302.67 759.55,302.67 758.94,302.67 758.44,302.77 
		757.68,302.92 757,303.2 756.27,303.5 755.43,303.57 754.93,303.57 754.22,303.12 753.18,302.77 751.87,302.54 750.86,302.33 	"/>
	<polygon class="st27" points="745.74,308.64 750.99,309.86 750.86,300.11 750.86,295.64 750.86,293.52 750.86,291.78 
		750.86,291.13 750.86,290.82 751.52,290.82 752.64,290.82 753.07,290.82 753.32,291.1 753.32,291.47 753.32,299.05 753.6,299.55 
		753.94,299.84 754.44,299.84 755.31,299.84 756.21,299.84 756.86,299.61 757.27,299.05 757.83,298.59 758.29,297.93 758.57,297.69 
		758.82,297.28 758.82,296.75 758.82,295.45 758.82,293.62 758.7,292.96 758.35,292.44 757.79,291.72 757.27,291.19 756.71,290.63 
		755.9,290.14 755.06,289.7 754.25,289.33 753.23,288.89 752.28,288.58 751.36,288.24 750.43,287.96 749.56,287.62 748.72,287.4 
		747.98,287.25 747.11,287.09 746.15,287.09 745.74,287.09 745.86,299.05 	"/>
	<path class="st28" d="M611.78,146.17c-1.23-3.98,6.7-10.13,10.31-12.44c6.97-4.44,13.97-4.83,17.19-4.8h43.45
		c3.87,0,7.37,1.57,9.91,4.1c0.57,0.57,4.15,4.27,4.1,9.91c-0.05,5.29-3.27,10.2-8.28,12.78c-6.43-2.43-15.13-4.97-25.62-5.99
		c-7.49-0.73-14.13-0.52-19.6,0.03C618.63,151.76,612.67,149.03,611.78,146.17z"/>
	<path class="st28" d="M893.63,148c1.23-3.98-6.7-10.13-10.31-12.44c-6.97-4.44-13.97-4.83-17.19-4.8h-43.45
		c-3.87,0-7.37,1.57-9.91,4.1c-0.57,0.57-4.15,4.27-4.1,9.91c0.05,5.29,3.27,10.2,8.28,12.78c6.43-2.43,15.13-4.97,25.62-5.99
		c7.49-0.73,14.13-0.52,19.6,0.03C886.77,153.6,892.74,150.87,893.63,148z"/>
	<path class="st29" d="M811.07,188.45c3.82-7.4,11.51-10.74,15.06-12.23c15.4-6.46,31-1.82,34.55-0.76
		c10.93,3.25,18.07,9.03,21.86,12.71c0.16,0.16,0.16,0.42,0,0.57l-9.66,9.38c-0.01,0.01-0.03,0.02-0.04,0.03
		c-6.99,5.33-13.83,7.94-18.06,9.24c-3.43,1.05-14.77,4.19-28.64,1.69c-6.85-1.23-13.02-2.34-15.95-6.88
		C806.73,196.86,810.09,190.34,811.07,188.45z"/>
	<path class="st29" d="M694.43,184.18c-3.67-7.4-11.07-10.74-14.49-12.23c-14.81-6.46-29.82-1.82-33.24-0.76
		c-10.79,3.33-17.74,9.34-21.31,12.99c3.2,3.23,6.4,6.46,9.6,9.69c6.73,5.34,13.32,7.96,17.4,9.26c3.3,1.05,14.21,4.19,27.55,1.69
		c6.59-1.23,12.52-2.34,15.34-6.88C698.61,192.59,695.37,186.07,694.43,184.18z"/>
	<path class="st30" d="M637.13,374.3c1.58-12.22,5.95-36.15,19.67-62.79c12.85-24.93,27.88-40.55,36.31-48.32
		c1.23-6.31-0.29-12.01-3.84-14.48c-3.3-2.3-7.12-0.95-8.14-0.55c-55.2,106.25-59.04,124.11-56.86,126.6
		c2.82,3.22,6.26,2.97,6.26,2.97C633.33,377.53,635.74,375.61,637.13,374.3z"/>
	<path class="st30" d="M860.74,374.3c-1.58-12.22-5.95-36.15-19.67-62.79c-12.85-24.93-27.88-40.55-36.31-48.32
		c-1.23-6.31,0.29-12.01,3.84-14.48c3.3-2.3,7.12-0.95,8.14-0.55c55.2,106.25,59.04,124.11,56.86,126.6
		c-2.82,3.22-6.26,2.97-6.26,2.97C864.55,377.53,862.13,375.61,860.74,374.3z"/>
	<path class="st31" d="M816.24,339.17c-9.91,6.27-32.31,18.57-63.31,19.71c-36.49,1.35-62.98-13.55-72.73-19.71
		c-3.02-1.73-4.76-5-4.44-8.33c0.42-4.33,4.1-6.47,4.44-6.66c17.91,4,41.02,7.5,68.02,7.5c18.35,0,41.67-1.62,68.02-7.5
		c0.21,0.11,4.29,2.48,4.44,7.22C820.79,334.59,819.07,337.6,816.24,339.17z"/>
	<path class="st30" d="M817.03,122.29c-14.3-0.68-29.12-1.18-44.42-1.43c-32.14-0.52-62.4,0.08-90.51,1.43
		c-6.94-0.94-12.03-2.75-12.22-4.78c-0.26-2.78,8.76-5.08,12.22-5.96c17.02-4.35,33.08-2.46,34.98-2.24
		c18.55,2.15,50.08,2.96,99.95,2.24c8.64,0.11,14.13,3.61,13.88,5.96C830.68,119.78,824.98,122.54,817.03,122.29z"/>
	<path class="st30" d="M789.3,135.75c-8.84-2.34-29.07-6.78-53.31-3.95c-7.9,0.92-14.56,2.42-19.88,3.95
		c-4.18,0.17-7.91-0.59-8.8-1.87c-1.13-1.62,1.9-4.67,8.8-5.89c11.99,0.93,21.4,0.54,27.66,0.04c12.06-0.96,19.31-2.89,31.38-2.1
		c6.21,0.41,11.12,1.37,14.16,2.06c4.45-0.16,8.17,1.07,8.88,2.56C799.08,132.39,795.7,135.34,789.3,135.75z"/>
	<path class="st30" d="M774.85,146.71c-12.35,1.35-19.3,2-23.29,2.3c-1.19,0.09-4.7,0.33-9.33,1.01c-1.84,0.27-3.34,0.53-4.35,0.72
		c-5.04,0.38-9.72-0.26-10.8-2.01c-1.32-2.16,2.48-6.5,10.8-9.44c6.62,1.87,18.82,4.46,33.37,2.55c4.57-0.6,8.56-1.54,11.92-2.55
		c3.76,1.91,5.85,4.58,5,6.22C787.15,147.48,781.4,148.83,774.85,146.71z"/>
	<path class="st32" d="M665.47,166.96c-4.2-0.47-12.57-0.63-21.06,4.91c-2.76,1.8-4.99,3.86-6.75,5.78
		c2.87,13.72,12.78,23.22,23.41,23.22c12.84,0,23.41-10.48,23.41-23.22c0-0.37-0.01-0.75-0.03-1.12c-0.81-1.01-1.74-2.02-2.79-2.98
		C675.85,168.22,669.35,167.15,665.47,166.96z"/>
	<path class="st32" d="M839.62,171.37c4.2-0.47,12.57-0.64,21.06,4.98c2.76,1.83,4.99,3.91,6.75,5.86
		c-2.87,13.91-12.78,23.55-23.41,23.55c-12.84,0-23.41-10.63-23.41-23.55c0-0.38,0.01-0.76,0.03-1.14c0.81-1.02,1.74-2.05,2.79-3.02
		C829.24,172.65,835.74,171.56,839.62,171.37z"/>
	<ellipse class="st33" cx="661.07" cy="181.06" rx="8.86" ry="6.18"/>
	<ellipse class="st33" cx="844.02" cy="181.06" rx="8.86" ry="6.18"/>
	<path class="st28" d="M748.03,267.42c3.92,8.34-3.49,22.85-13.94,27.48c-11.17,4.95-18.2-4.78-33.71-1.24
		c-15.67,3.57-21.92,16.56-24.06,14.99c-3.33-2.45,6.96-37.67,34.55-46.91C723.59,257.49,743.41,257.6,748.03,267.42z"/>
	<path class="st28" d="M749.27,267.42c-3.92,8.34,3.49,22.85,13.94,27.48c11.17,4.95,18.2-4.78,33.71-1.24
		c15.67,3.57,21.92,16.56,24.06,14.99c3.33-2.45-6.96-37.67-34.55-46.91C773.72,257.49,753.89,257.6,749.27,267.42z"/>
	<path class="st34" d="M618.7,204.29l-58.88-54.49c-0.28-3.05-0.56-6.09-0.84-9.14c15.62,8.86,34.67,22.45,51.78,43.11
		c4.54,5.48,8.5,10.92,11.95,16.2C621.37,201.41,620.04,202.85,618.7,204.29z"/>
	<path class="st34" d="M875.92,203.55c5.42-6.36,8.59-12.15,10.49-16.24c5.87-12.69,4.55-20.33,11.25-30.48
		c3.78-5.73,8.16-9.52,11.17-11.77c0.19,3.6,0.38,7.19,0.57,10.79c-1.02,3.33-2.46,8.03-4.19,13.66
		c-5.14,16.66-5.71,18.29-6.6,20.15c-2.56,5.34-7.83,12.84-19.94,19.43C877.76,207.24,876.84,205.4,875.92,203.55z"/>
	<linearGradient id="SVGID_1_" gradientUnits="userSpaceOnUse" x1="615.024" y1="212.7737" x2="702.3326" y2="212.7737">
		<stop  offset="0" style="stop-color:#FFFFFF"/>
		<stop  offset="0.9925" style="stop-color:#000000;stop-opacity:0.2"/>
	</linearGradient>
	<path class="st35" d="M696.09,231.16c-23.96,0-47.92,0-71.88,0c-1.61-1.28-7.48-6.28-8.9-14.89c-2.04-12.4,7.01-21.15,7.8-21.89
		c24.54,0.23,49.09,0.45,73.63,0.68c1.51,2.18,6.35,9.74,5.47,20.19C701.55,223.28,697.84,228.86,696.09,231.16z"/>
	<linearGradient id="SVGID_2_" gradientUnits="userSpaceOnUse" x1="791.5083" y1="217.3255" x2="878.817" y2="217.3255">
		<stop  offset="0" style="stop-color:#FFFFFF"/>
		<stop  offset="0.9925" style="stop-color:#000000;stop-opacity:0.2"/>
	</linearGradient>
	<path class="st36" d="M872.58,235.72c-23.96,0-47.92,0-71.88,0c-1.61-1.28-7.48-6.28-8.9-14.89c-2.04-12.4,7.01-21.15,7.8-21.89
		c24.54,0.23,49.09,0.45,73.63,0.68c1.51,2.18,6.35,9.74,5.47,20.19C878.03,227.83,874.32,233.41,872.58,235.72z"/>
	<path class="st34" d="M702.23,215.25c6.56-4.08,22.22-12.61,43.94-12.97c22.6-0.38,39.05,8.29,45.65,12.25c0,2.1-0.01,4.2-0.01,6.3
		c-9.3-3.74-25.23-8.82-45.55-8.72c-20.13,0.1-35.89,5.22-45.13,9.02C701.5,219.17,701.86,217.21,702.23,215.25z"/>
	<path class="st37" d="M742.66,268.63"/>
	<path class="st37" d="M742.15,258.38"/>
	<path class="st38" d="M416.83,266.66H203.5c-21.82,0-39.5-17.68-39.5-39.5v-79.18c0-21.82,17.68-39.5,39.5-39.5h213.33
		c21.82,0,39.5,17.68,39.5,39.5v79.18C456.33,248.98,438.65,266.66,416.83,266.66z"/>
	<polygon class="st38" points="387.85,260.32 480.84,286.88 457.35,193.06 	"/>
	<text transform="matrix(1 0 0 1 195.1982 188.5938)" class="st39 st40">The drip finally stops...</text>
</g>
<g id="Scene_18">
	<rect x="16.89" y="525.59" class="st0" width="1246" height="465"/>
	<rect x="17.47" y="562.69" class="st1" width="1245.33" height="44.14"/>
	<rect x="17.74" y="916.89" class="st1" width="1245.33" height="44.14"/>
	<path class="st38" d="M440.19,784.79H226.86c-21.82,0-39.5-17.68-39.5-39.5v-79.18c0-21.82,17.68-39.5,39.5-39.5h213.33
		c21.82,0,39.5,17.68,39.5,39.5v79.18C479.69,767.11,462.01,784.79,440.19,784.79z"/>
	<polygon class="st38" points="411.21,778.45 504.2,805.01 480.71,711.19 	"/>
	<text transform="matrix(1 0 0 1 195.5574 714.7236)" class="st39 st40">See you on the other side...</text>
	<polyline class="st41" points="536.26,943.81 535.03,943.81 533.22,943.51 531.55,943.05 530.47,942.5 529.32,941.77 
		528.36,940.92 527.8,940.06 527.21,939.21 527.21,935.99 527.21,926.5 527.21,878.61 527.21,816.65 527.21,765.54 527.21,704.79 
		527.21,628.42 527.21,627.25 527.21,626.11 527.21,625.55 527.63,624.71 528.27,623.93 529,622.98 529.75,622.4 530.73,621.81 
		531.48,621.56 532.34,621.23 533.49,620.95 534.32,620.75 535.16,620.75 535.75,620.64 536.26,620.64 536.7,620.64 536.93,620.64 
		536.23,620.93 535.31,621.64 534.85,622.48 534.52,623.65 534.52,624.61 534.52,626.67 534.52,648.1 534.52,675.17 534.52,718.22 
		534.52,738.67 534.52,793.07 534.52,847.64 534.52,894.53 534.52,941.88 535.17,942.85 536.26,943.81 	"/>
	<polyline class="st42" points="540.19,944.23 539.15,944.65 537.8,944.44 536.26,943.81 535.17,942.85 534.52,941.88 
		534.52,939.25 534.52,858.74 534.52,776.58 534.52,695.97 534.52,628.8 534.52,626.11 534.52,624.61 534.52,623.65 534.85,622.48 
		535.31,621.64 536.23,620.93 537.36,620.47 538.4,620.17 539.41,620.17 540.74,620.32 540.16,620.93 539.58,621.73 539.07,622.37 
		538.94,622.92 538.78,623.59 538.78,624.57 538.78,625.36 538.78,626.91 538.78,646.5 538.78,663.07 538.78,708.77 538.78,776.2 
		538.78,865.64 538.78,871.35 538.78,872.61 538.94,873.22 539.17,873.54 539.45,874 539.8,874.36 539.99,875 540,877.83 
		540,925.34 540,927.16 539.89,927.83 539.41,928.27 539.07,928.79 538.78,929.83 538.78,930.61 538.78,932.15 538.78,939.75 
		538.78,941.52 538.93,942.19 539.22,942.74 539.48,943.23 539.78,943.75 540.19,944.23 	"/>
	<polyline class="st43" points="552.42,947.04 551.29,947.26 550.47,947.15 549.54,947.04 548.64,946.76 547.74,946.39 
		547.02,946.01 546.24,945.27 545.78,944.71 545.53,943.93 545.37,942.93 545.37,934.69 545.37,906.59 545.37,883.24 545.37,817.59 
		545.37,718.62 545.37,637.57 545.37,623.01 545.37,621.96 545.61,621.23 545.8,620.43 546.21,619.7 546.78,618.88 547.22,618.46 
		547.66,618.2 548.16,618.07 548.73,617.81 549.21,617.76 549.69,617.76 550.35,617.67 551.02,617.67 551.29,617.67 551.61,617.67 
		552.2,617.75 551.52,618.28 551.01,618.83 550.6,619.4 550.24,620.15 550.09,620.83 550,621.73 549.98,622.72 549.98,623.65 
		549.98,640.95 549.98,692.93 549.98,755.52 549.98,811.4 549.98,880.38 549.98,938.78 549.98,943.75 549.98,944.48 550.12,944.98 
		550.59,945.57 550.95,945.91 552.42,947.04 	"/>
	<path class="st14" d="M550.35,619.83"/>
	<path class="st14" d="M550.72,619.2"/>
	<path class="st14" d="M549.56,616.77"/>
	<polygon class="st44" points="547.3,946.13 546.64,946.13 545.53,945.93 544.27,945.56 543.28,945.33 542.2,944.96 541.49,944.71 
		540.71,944.49 540.19,944.23 539.78,943.75 539.48,943.23 539.22,942.74 538.93,942.19 538.78,941.52 538.78,930.61 538.78,929.83 
		539.07,928.79 539.41,928.27 539.89,927.83 540,927.16 540,925.34 539.99,922.15 540.01,920.91 539.97,915.29 540.01,908.93 
		540.01,900.19 540.01,892.49 540.01,882.38 539.99,875 539.8,874.36 539.45,874 539.17,873.54 538.94,873.22 538.78,872.61 
		538.78,871.35 538.78,867.28 538.78,862.47 538.78,829.73 538.78,765.05 538.78,708.77 538.78,672.11 538.78,634.74 538.78,625.36 
		538.78,623.59 538.94,622.92 539.07,622.37 539.58,621.73 540.16,620.93 540.74,620.32 541.44,619.76 542.31,619.3 543.11,619.13 
		544.23,618.78 545.37,618.6 546.28,618.52 546.77,618.52 547.07,618.6 546.63,619.09 546.39,619.45 546.05,619.99 545.89,620.27 
		545.73,620.71 545.65,621.06 545.54,621.43 545.44,621.73 545.37,622.23 545.37,622.59 545.37,623.39 545.37,643.8 545.37,678.23 
		545.37,725.24 545.37,794.36 545.37,874.14 545.37,917.29 545.37,941.71 545.42,943.27 545.61,944.18 545.97,944.94 546.43,945.44 
			"/>
	<polyline class="st45" points="559.06,948.27 558.42,948.62 556.76,948.62 555.11,948.27 553.74,947.67 552.42,947.04 
		551.16,946.12 550.32,945.3 549.98,944.72 549.98,942.38 549.98,940.2 549.98,874.66 549.98,766.62 549.98,621.94 550.12,620.49 
		550.35,619.83 550.72,619.2 551.31,618.44 552.2,617.75 553.23,617.29 554.52,616.89 555.71,616.49 557.03,616.16 558.19,615.86 
		559.06,615.7 559.61,615.76 557.52,618.19 557.3,638.19 557.3,722.08 557.3,776.95 557.3,905.06 557.58,946.82 559.06,948.27 	"/>
	<polyline class="st46" points="554.1,634.59 554.1,633.6 554.1,632.85 554.1,632.28 554.1,631.91 554.03,631.64 553.88,631.43 
		553.72,631.32 553.56,631.32 553.49,631.5 553.49,631.73 553.49,632.1 553.49,632.54 553.49,632.95 553.49,633.45 553.49,633.93 
		553.49,634.29 553.49,634.52 553.42,634.71 553.24,634.81 553.05,634.71 552.94,634.48 552.94,634.23 552.94,633.61 552.94,632.89 
		552.94,632.35 552.94,631.89 552.94,631.32 	"/>
	<polygon class="st46" points="554.24,640.76 554.24,639.87 554.24,639.18 554.24,638.66 554.24,638.45 554.16,638.1 554.1,637.93 
		553.94,637.76 553.75,637.57 553.52,637.57 553.28,637.57 552.94,637.57 552.82,637.86 552.7,638.17 552.64,638.56 552.64,638.83 
		552.64,639.49 552.64,640.43 552.64,640.68 552.64,641.09 552.77,641.67 552.94,641.99 553.38,642.06 553.79,641.89 554.1,641.7 
		554.24,641.4 	"/>
	<polyline class="st46" points="552.87,644.53 553.44,644.53 553.86,644.53 554.24,644.53 554.35,644.87 554.35,645.24 
		554.05,645.68 552.87,647.48 552.75,647.79 552.75,648.14 552.87,648.46 553.28,648.46 553.64,648.46 553.98,648.46 554.35,648.46 
			"/>
	<polyline class="st46" points="554.35,651.8 554.01,652.12 553.79,652.4 553.55,652.64 553.36,652.96 553.36,653.27 553.36,653.55 
		553.55,653.91 553.85,654.17 554.15,654.4 554.35,654.51 	"/>
	<polyline class="st46" points="552.43,653.28 552.75,653.28 553.07,653.28 553.36,653.27 	"/>
	<polyline class="st37" points="554.79,906.44 554.79,908.16 554.79,910.65 554.79,913.91 554.67,914.39 554.38,914.63 
		554.03,914.63 553.78,914.63 553.65,914.37 553.65,913.54 553.65,912.68 553.65,907.39 553.59,906.98 553.41,906.69 553.22,906.44 
		553,906.31 552.74,906.18 552.44,906.08 552.17,906.08 	"/>
	<polyline class="st37" points="554.7,926.26 554.7,924.47 554.7,923.23 554.7,921.89 554.62,921.44 554.38,921.21 554.1,921.09 
		553.72,921.09 553.24,921.09 552.74,921.09 552.46,920.94 552.31,920.6 552.31,920.01 552.31,919.14 552.31,918.61 552.31,917.29 	
		"/>
	<polyline class="st37" points="551.29,934.91 554.38,934.91 554.6,934.91 554.6,934.14 552.95,928.17 552.84,927.77 552.7,927.43 
		552.53,927.23 552.23,927.23 552.19,927.64 552.21,927.95 552.19,928.48 552.31,936.67 	"/>
	<circle class="st47" cx="704.64" cy="732.32" r="20.88"/>
	<circle class="st48" cx="710.25" cy="735.55" r="24.11"/>
	<circle class="st48" cx="717.65" cy="742.66" r="26.38"/>
	<circle class="st48" cx="699.88" cy="740.99" r="26.38"/>
	<circle class="st49" cx="714.29" cy="739.59" r="28.15"/>
	<path class="st48" d="M557.3,944.84V830.89c0-10.32,0-43.11,0-58.37c0-2.05,0-4.75,0-7.32c0-0.77,0-1.53,0-2.26
		c0-2.35,0-4.38,0-5.37c0-0.82,0-1.64,0-2.46c0-27.94,0-55.88,0-83.82v-50.04v-0.95v-0.83v-0.67l0.23-0.61l0.3-0.48l0.27-0.45
		l0.3-0.43l0.48-0.41l0.39-0.36l0.36-0.3l0.41-0.31l0.4-0.31h1.1h18.2h9.46h14.68h14.54h11.79h13.92h10.57h10.9h8.31h12.24h11.51
		h14.02h9.75h9.7h11.18h11.77h14.89h45.44h49.2h41.82h7.87h2.35h1.69h0.89l0.75,0.1l0.59,0.25l0.68,0.48l0.34,0.36l0.5,0.41
		l0.16,0.2l0.61,0.59l0.36,0.48l0.52,0.59l0.3,0.43v0.96v12.65v27.35v24.59v33.9v59.72v44.06v38.45v36.94v34.37v12.8v0.57
		l-0.14,0.59l-0.31,0.52l-0.31,0.4l-0.34,0.37l-0.34,0.55l-0.43,0.4l-0.37,0.31l-0.59,0.28l-0.62,0.34l-0.92,0.28h-36.79h-38.14
		h-44.17h-36.83h-39.46h-47.19H573.46h-11.86l-1.05-0.4l-0.43-0.11l-0.62-0.38l-0.78-0.54l-0.65-0.62l-0.49-0.59l-0.28-0.38v-0.81
		V944.84z"/>
	<circle class="st50" cx="705.09" cy="720.96" r="1.9"/>
	<polygon class="st51" points="557.98,754.58 582.77,740.57 602.44,726.58 615.64,714.61 626.69,705 639.89,692.07 654.98,676.44 
		663.87,661.35 675.46,644.53 680.85,633.06 685.43,620.17 686.13,615.15 560.42,615.15 557.52,618.19 	"/>
	<path class="st51" d="M816.61,615.15c0,0-2.9-3.42,3.69,22.42c6.59,25.84,2.64,10.89,2.64,10.89s1.45,2.79,6.67,12.84
		c5.21,10.04-2.07-4.74,7.05,13.58s11.08,20.58,11.08,20.58l7.39,8.44l6.86,7.39l8.44,7.77l6.86,7.52l6.86,9.51l5.8,6.33l7.39,6.33
		l6.86,2.64l7.39,3.72l11.42,3.67V620.01l-4.07-4.76L816.61,615.15z"/>
	<polygon class="st52" points="734.36,765.21 734.36,775.86 734.36,786.71 734.36,795.66 734.36,796.84 734.59,797.13 735,797.28 
		735.47,797.45 736.05,797.65 736.86,798.03 737.46,798.23 738.23,798.35 738.92,798.6 739.55,798.86 740.33,799.04 741.06,799.2 
		741.76,799.28 742.2,799.28 742.44,799 742.44,798.56 742.44,796.54 742.44,793.47 742.44,791.5 742.44,789.48 742.44,787.17 
		742.44,783.93 742.44,780.74 742.44,777.9 742.44,774.59 742.44,772.52 742.6,772.02 742.85,771.65 743.19,771.38 743.47,771.26 
		743.73,771.26 744.05,771.23 744.27,771.26 744.5,771.32 744.77,771.52 744.91,771.75 745.08,772.11 745.25,772.52 745.25,772.9 
		745.25,774.97 745.25,777.87 745.25,780.41 745.25,783.02 745.25,783.89 745.56,784.23 745.99,784.48 746.39,784.63 746.81,784.75 
		747.26,784.91 747.68,785 748.39,785.22 748.93,785.33 749.37,785.33 749.64,785.33 750.13,785.33 750.5,785.35 751.05,785.31 
		751.47,785.15 751.85,784.82 752.32,784.46 752.69,784.08 753.02,783.8 753.35,783.5 753.64,782.99 753.87,782.49 754.17,781.97 
		754.32,781.4 754.46,780.75 754.63,780.26 754.63,779.65 754.63,779.24 754.63,778.69 754.63,777.94 754.63,777.3 754.63,776.74 
		754.63,776.17 754.49,775.58 754.32,775.21 754.1,774.8 753.89,774.29 753.58,773.82 753.27,773.29 753.01,772.93 752.75,772.52 
		752.27,771.89 751.78,771.33 751.23,770.86 750.29,770.22 749.44,769.85 748.66,769.26 747.79,769 745.85,768.21 744.64,767.85 
		743.2,767.44 741.37,766.86 739.84,766.28 738.53,765.81 737.45,765.53 736.8,765.5 736.22,765.45 735.54,765.42 735.23,765.4 	"/>
	<path class="st37" d="M734.36,794.58"/>
	<path class="st37" d="M733.82,783.89"/>
	<polygon class="st52" points="734.36,794.58 733.82,794.76 733.33,795.11 733.08,795.24 732.46,795.32 731.85,795.32 
		731.26,795.32 730.4,795.32 729.51,795.32 728.14,795.32 726.71,795.32 725.61,795.22 724.6,795.19 724.03,795.03 723.31,794.95 
		722.55,794.95 721.84,794.75 721.16,794.58 720.51,794.37 719.92,794.2 719.29,793.95 718.76,793.7 718.21,793.4 717.7,793.11 
		717.26,792.73 716.97,792.49 716.82,792.22 716.82,791.86 716.69,791.5 716.69,791.04 716.93,790.72 717.28,790.41 717.81,789.99 
		718.34,789.71 719.22,789.25 720.09,788.87 721.18,788.49 722.55,788.02 723.52,787.71 724.73,787.29 725.86,786.89 727.17,786.47 
		728.71,785.98 730.14,785.52 731.22,785.26 732.44,784.84 733.24,784.63 733.82,784.48 734.36,784.4 734.36,785.12 734.36,786.21 
		734.36,787.31 734.36,788.13 734.36,788.45 734.05,788.62 733.82,788.74 733.43,788.85 733.03,789.04 732.49,789.29 731.83,789.52 
		730.97,789.73 730.27,789.99 729.17,790.32 728.5,790.49 727.81,790.64 727.28,790.89 726.71,791.04 726.08,791.25 725.61,791.38 
		725.17,791.57 724.89,791.78 724.7,792.05 724.71,792.29 724.83,792.58 725.17,792.81 725.52,793.04 726.05,793.07 726.69,793.07 
		727.26,792.96 727.89,792.83 728.99,792.47 729.79,792.33 730.74,791.99 731.66,791.72 732.49,791.36 733.25,791.04 733.65,790.98 
		734.36,790.81 734.36,791.36 734.36,792.18 734.36,793.32 	"/>
	<polygon class="st52" points="744.17,787.72 745.68,787.12 747.15,786.85 748.51,786.51 749.6,786.29 750.66,786.29 751.83,786.1 
		752.62,786.1 753.7,786.1 754.63,786.1 755.6,786.25 756.32,786.29 757.33,786.38 758.4,786.47 759.63,786.71 760.39,786.86 
		761.2,787.27 761.9,787.63 762.56,788.02 763.39,788.29 764.05,788.68 764.48,789.2 764.81,789.55 764.97,790.15 764.97,790.56 
		764.77,791.04 764.44,791.57 764.05,791.94 763.57,792.38 763.06,792.71 762.36,793.08 761.81,793.38 760.96,793.78 760.19,794.04 
		759.34,794.33 758.55,794.52 757.83,794.72 756.98,794.87 756.01,795.09 754.99,795.49 753.85,795.92 752.69,796.3 751.51,796.67 
		750.43,797.04 749.01,797.46 747.59,797.94 746.34,798.35 744.98,798.66 744.11,798.66 743.3,798.79 742.44,798.79 742.44,796.95 
		742.44,795.75 742.99,795.44 743.8,795.18 744.79,794.85 746.12,794.48 747.68,794 748.66,793.67 749.93,793.12 751.48,792.44 
		752.89,791.72 754.15,791.41 754.99,791.13 755.95,790.87 756.47,790.65 757.07,790.39 757.44,790.15 757.46,789.86 757.35,789.55 
		756.96,789.36 756.58,789.27 755.75,789.14 755.1,789.12 754.63,789.18 753.7,789.4 752.97,789.53 751.97,789.86 751.07,789.95 
		750.13,790.28 749.27,790.67 748.51,790.91 747.59,791.17 746.91,791.48 745.84,791.94 744.98,792.31 744.31,792.44 743.78,792.57 
		742.44,792.86 742.44,791.72 742.44,790.36 742.44,789.16 742.44,788.59 742.44,788.13 742.91,787.98 743.54,787.85 	"/>
	<ellipse class="st53" cx="684.2" cy="719.05" rx="32.49" ry="49.67"/>
	<ellipse class="st53" cx="787.61" cy="716.71" rx="32.49" ry="49.67"/>
	<polygon class="st54" points="615.64,714.61 647.5,714.61 647.5,724.84 604.36,724.84 	"/>
	<rect x="719.44" y="714.61" class="st54" width="32.79" height="10.23"/>
	<polygon class="st54" points="822.89,714.61 865.59,714.61 875.7,724.84 822.89,724.84 	"/>
	<polygon class="st55" points="668.16,659.98 672.54,656.12 678.47,651.45 682.08,650.09 688.64,648.9 696.77,648.9 701.63,648.9 
		708.31,648.9 711.71,648.9 712.75,648.9 714.55,650.09 714.55,652.8 714.55,655.86 714.55,658.69 712.75,659.98 712.37,661.27 
		703.43,662.56 700.12,662.56 696,662.56 691.36,662.56 684.14,662.56 678.73,662.56 673.57,662.56 671.77,662.56 669.97,662.56 	
		"/>
	<polygon class="st55" points="765.74,657.54 770.12,653.67 776.05,649.01 779.66,647.65 786.22,646.46 794.35,646.46 
		799.21,646.46 805.89,646.46 809.29,646.46 810.33,646.46 812.13,647.65 812.13,650.36 812.13,653.42 812.13,656.25 810.33,657.54 
		809.95,658.83 801.01,660.12 797.7,660.12 793.58,660.12 788.94,660.12 781.72,660.12 776.31,660.12 771.15,660.12 769.35,660.12 
		767.55,660.12 	"/>
	<polygon class="st56" points="708.73,668.61 712.09,666.44 715.06,665.45 717.43,664.46 720,664.46 721.78,664.46 723.96,664.46 
		726.92,665.25 729.1,665.65 732.76,665.65 735.23,665.45 739.18,665.25 742.55,663.27 745.51,662.28 749.47,661.29 752.24,661.29 
		754.41,661.29 757.18,662.48 759.95,663.87 761.73,664.95 762.72,666.24 757.18,664.95 754.22,664.06 751.84,663.87 747.49,664.95 
		745.12,666.44 742.15,667.28 738.39,668.61 734.04,668.61 729.1,668.61 726.13,667.28 722.37,667.28 720.4,667.28 717.82,667.28 
		715.25,668.61 712.88,668.61 	"/>
	<polygon class="st56" points="708.73,678.32 712.09,676.14 715.06,675.15 717.43,674.16 720,674.16 721.78,674.16 723.96,674.16 
		726.92,674.95 729.1,675.35 732.76,675.35 735.23,675.15 739.18,674.95 742.55,672.98 745.51,671.99 749.47,671 752.24,671 
		754.41,671 757.18,672.18 759.95,673.57 761.73,674.66 762.72,675.94 757.18,674.66 754.22,673.77 751.84,673.57 747.49,674.66 
		745.12,676.14 742.15,676.99 738.39,678.32 734.04,678.32 729.1,678.32 726.13,676.99 722.37,676.99 720.4,676.99 717.82,676.99 
		715.25,678.32 712.88,678.32 	"/>
	<polygon class="st57" points="683.96,794.84 678.94,797.33 673.55,801.24 669.1,806.15 663.72,811.58 659.28,818.01 654.83,824.43 
		650.02,832.28 645.02,839.32 641.87,843.81 638.18,851.95 634.48,858.57 632.28,867.09 630.45,874.19 635.81,864.21 640.89,856.85 
		646.73,846.58 650.43,839.96 653.66,833.6 659.5,825.64 663.94,818.45 668.95,812.93 673.02,806.4 	"/>
	<polygon class="st57" points="849.85,867.99 848.71,862.95 846.32,857.09 842.77,851.63 838.95,845.21 833.98,839.19 
		829.01,833.18 822.79,826.34 817.37,819.64 813.91,815.4 807.15,809.38 801.82,803.9 794.34,798.96 788.11,794.84 796.2,802.91 
		801.9,809.8 810.15,818.37 815.48,823.84 820.68,828.84 826.77,836.56 832.45,842.86 836.45,849 841.6,854.75 	"/>
	<polygon class="st58" points="682.11,801.12 680.13,802.17 679.34,803.49 679.34,804.81 679.34,806.93 678.28,810.36 
		677.62,813.66 676.83,818.15 676.83,824.36 675.51,830.83 675.51,834.92 675.51,845.62 676.17,855.65 677.23,861.07 678.81,866.48 
		680.4,872.03 685.15,881.01 687.79,884.57 689.38,887.35 691.49,888.4 690.57,881.54 690.57,878.76 691.49,876.91 694,884.18 
		698.22,893.16 702.32,898.57 705.88,902.66 709.58,906.36 712.35,908.34 713.54,908.34 713.54,905.31 712.62,901.08 712.49,898.97 
		715.79,905.31 718.56,909 721.2,911.64 724.37,914.55 728.2,916.93 731.77,919.17 734.41,920.49 736.93,921.42 737.71,921.42 
		739.56,920.49 744.44,917.72 748.93,915.21 751.97,912.83 755.14,909.53 758.04,906.1 760.42,902 761.74,899.1 761.74,902.14 
		760.95,905.83 760.29,908.08 760.95,908.74 762.67,908.08 764.12,906.23 768.61,902.4 772.17,898.44 774.55,895.14 777.32,890.52 
		779.3,886.03 781.15,880.88 782.34,877.05 782.34,879.56 783.27,882.59 783.27,885.63 782.21,888.8 783.27,888.53 784.98,887.21 
		787.49,883.65 790.13,878.9 793.04,874.41 794.36,870.05 796.36,863.19 797.75,854.68 797.75,849.25 798.17,839.57 797.53,827.86 
		796.79,822.32 794.77,811.26 793.59,806.36 792.74,803.49 790.51,801.12 789.02,801.12 	"/>
	<ellipse class="st59" cx="683.76" cy="716.71" rx="26.1" ry="38.4"/>
	<polygon class="st60" points="658.32,708.1 662.44,694.56 668.3,685.77 672.65,681.95 678.69,679.03 683.76,678.31 687.86,678.78 
		692.29,680.41 694.2,681.5 696.99,683.61 699.88,686.52 701.7,688.83 704.74,693.86 706.55,697.99 707.72,701.44 708.49,704.41 
		708.49,706.06 708.49,707.16 709.2,708.1 	"/>
	<ellipse class="st59" cx="787.61" cy="716.71" rx="26.1" ry="38.4"/>
	<polygon class="st60" points="762.18,708.1 766.29,694.56 772.15,685.77 776.51,681.95 782.54,679.03 787.61,678.31 791.72,678.78 
		796.15,680.41 798.05,681.5 800.85,683.61 803.74,686.52 805.56,688.83 808.59,693.86 810.41,697.99 811.57,701.44 812.35,704.41 
		812.35,706.06 812.35,707.16 813.06,708.1 	"/>
	<circle class="st61" cx="699.13" cy="732.32" r="8.61"/>
	<circle class="st49" cx="703.36" cy="735.68" r="2.44"/>
	<circle class="st61" cx="802.98" cy="732.32" r="8.61"/>
	<circle class="st49" cx="807.22" cy="735.68" r="2.44"/>
	<ellipse class="st62" cx="651.43" cy="765.01" rx="5.78" ry="10.43"/>
	<ellipse class="st62" cx="643.12" cy="794.58" rx="5.78" ry="10.43"/>
	<ellipse class="st62" cx="818.98" cy="765.01" rx="5.78" ry="10.43"/>
	<ellipse class="st62" cx="828.67" cy="789.86" rx="5.78" ry="10.43"/>
	<ellipse class="st62" cx="634.6" cy="824.16" rx="5.78" ry="10.43"/>
	<ellipse class="st62" cx="626.29" cy="853.74" rx="5.78" ry="10.43"/>
	<ellipse class="st62" cx="840.22" cy="815.43" rx="5.78" ry="10.43"/>
	<ellipse class="st62" cx="849.9" cy="840.29" rx="5.78" ry="10.43"/>
</g>
</svg>
